<?xml version="1.0" encoding="UTF-8"?>
<svg width="109px" height="39px" viewBox="0 0 109 39" version="1.1" xmlns="http://www.w3.org/2000/svg" xmlns:xlink="http://www.w3.org/1999/xlink">
    <!-- Generator: sketchtool 60.1 (101010) - https://sketch.com -->
    <title>9351F51C-D5A2-49FE-8080-FDF9FEF2F802</title>
    <desc>Created with sketchtool.</desc>
    <g id="Page-1" stroke="none" stroke-width="1" fill="none" fill-rule="evenodd">
        <g id="LP-DE-PATROCÃNIO" transform="translate(-1255.000000, -3944.000000)">
            <g id="Group-65" transform="translate(1255.000000, 3944.000000)">
                <path d="M54.5006206,38.9761897 C36.6324904,38.9761897 18.7643601,38.971177 0.89995372,39 C0.145259507,39 -0.00245202448,38.8483661 0,38.0914495 C0.0285798099,25.6963144 0.0285798099,13.2999261 0,0.907297323 C-0.00245202448,0.149127599 0.145259507,0 0.89995372,0 C36.6324904,0.025063462 72.3662683,0.025063462 108.102529,0 C108.85474,0 109.002452,0.149127599 109,0.907297323 C108.973903,13.2999261 108.973903,25.6963144 109,38.0914495 C109.002452,38.8483661 108.85474,39 108.102529,39 C90.2368811,38.971177 72.3662683,38.9761897 54.5006206,38.9761897" id="Fill-1520" fill="#FEFEFE"></path>
                <path d="M38.9507787,19.9286335 C38.9507787,23.637383 38.806215,27.3572588 38.9915531,31.0573546 C39.1694777,34.6226991 36.5327339,38.8840523 31.4445844,38.9372111 C23.8086534,39.0113861 16.1764291,39.0348748 8.54173371,38.9236123 C4.06520004,38.8617998 1.09114083,35.6537315 1.05283762,30.9819433 C0.9848803,23.5965867 0.97993795,16.2112302 1.05283762,8.82958235 C1.09855435,3.97730171 4.23447554,1.00164833 9.05697371,1.00164833 C16.5112734,1.00164833 23.965573,0.997939584 31.4149303,1.00164833 C35.7852034,1.00164833 38.9483075,4.18499168 38.9507787,8.57738738 L38.9507787,19.9286335 Z" id="Fill-1522" fill="#E8D945"></path>
                <path d="M61,19.9322728 C61.0109572,14.7766663 64.5588796,11.0305882 69.4647539,11.0001941 C74.4483643,10.9685335 78.01815,14.8133926 78,20.2020208 C77.9829258,25.2955726 74.3426918,29.0264536 69.4198128,29 C64.4847875,28.9757967 60.9890939,25.2094558 61,19.9322728" id="Fill-1524" fill="#0A0A0A"></path>
                <path d="M92.9898805,27.8003572 L92.7917763,27.9214011 C89.4449233,28.1301401 89.4412319,28.1301401 87.9203825,25.1905021 C87.3888235,24.1640991 86.8018937,23.1562232 86.3712325,22.0878254 C86.0193207,21.2170503 85.3536415,21.3751485 84.7544072,21.4480219 C84.0690406,21.5344818 84.4381788,22.1557582 84.4271046,22.510244 C84.3778862,24.0689932 84.3864994,25.632683 84.4160305,27.1951376 C84.4234132,27.7484812 84.2634534,27.9362228 83.6826759,27.9609256 C81.019959,28.0634424 81.0211895,28.0832047 81.0211895,25.4523522 C81.0211895,20.9799031 81.0433378,16.508689 81.0002716,12.0399453 C80.9916584,11.2309273 81.1848407,10.9715475 82.0154017,11.002426 C84.14779,11.08024 86.2949439,10.9283175 88.4113363,11.1234699 C90.9276284,11.359382 92.6010549,13.0428806 92.9222051,15.2747822 C93.2987261,17.917986 92.3131271,19.7249988 89.8645104,20.8959134 L89.4953722,21.0984767 C90.6581575,23.3266728 91.8098687,25.5351067 92.9898805,27.8003572" id="Fill-1526" fill="#0A0A0A"></path>
                <path d="M52.5528586,28.9996332 C47.1155939,29.0388772 43.5370785,25.924679 43.0802468,21.6179708 C42.5073942,16.2352184 45.0308458,12.1513146 49.712767,11.1955343 C53.7710766,10.372677 57.3471749,12.1854948 58.6983334,15.9060755 C58.9497117,16.6061372 58.8759902,16.936546 58.1726143,17.0669372 L57.7665416,17.1846691 C57.1900635,17.3720274 56.5845801,17.7783922 56.0504012,17.6897769 C55.5125966,17.5998955 55.5548958,16.7213372 55.218919,16.2529415 C53.9837813,14.5236753 52.2857691,14.126172 50.3871377,14.4426556 C48.4510412,14.7629369 46.8775096,16.4719481 46.495608,18.5278253 C45.8973759,21.7496279 47.2461173,24.5118964 49.8505417,25.3942526 C52.2954375,26.2234395 54.620687,25.2347448 55.728927,22.8079489 C56.0081019,22.1990346 56.2800256,22.1623225 56.7839908,22.3749994 C57.1090906,22.5142522 57.45957,22.5927401 57.7991725,22.7016105 C59.2264696,23.1510171 59.2506405,23.1649424 58.5520989,24.6055755 C57.1042564,27.5893825 54.6956171,28.9312728 52.5528586,28.9996332" id="Fill-1528" fill="#0A0A0A"></path>
                <path d="M96.0166971,19.4048825 C96.0166971,16.9346358 96.0417096,14.4643891 96.0004389,11.9966139 C95.9904339,11.2724695 96.1467624,10.9734202 96.9571693,11.0018422 C98.7568229,11.0623935 100.558978,11.0080209 102.358631,11.0228498 C105.669044,11.0537433 107.942685,13.1359673 107.998963,16.1622976 C108.053991,19.3097305 105.914167,21.4636274 102.557481,21.6131521 C101.713307,21.6514601 100.865382,21.6514601 100.019957,21.6131521 C99.4771846,21.5859658 99.3421168,21.7849202 99.3508711,22.296517 C99.378385,23.9289312 99.344618,25.5613453 99.3696306,27.1949952 C99.3808862,27.7325427 99.2620766,27.9438544 98.6492689,27.9685692 C96.0166971,28.0674285 96.0166971,28.0909076 96.0166971,25.5045012 L96.0166971,19.4048825 Z" id="Fill-1530" fill="#0A0A0A"></path>
                <path d="M22.0674889,27.9936689 C23.1443981,26.2741723 24.0782803,24.7232292 25.0806712,23.2200847 C25.5157618,22.5659968 25.4652816,22.3483868 24.7213008,22.0427264 C21.9797496,20.9295191 20.5074129,17.8741736 21.1492315,14.8326647 C21.74057,12.0402123 24.329479,9.94209944 27.1058855,10.0012189 C31.5793855,10.0930428 34.4459351,15.0867527 32.2404347,19.2062489 C30.6935796,22.0955566 28.8174019,24.788638 27.0950683,27.5760589 C26.9027631,27.8917821 26.6599778,28.0024739 26.3138284,28 C24.9700957,27.9848639 23.6299688,27.9936689 22.0674889,27.9936689" id="Fill-1532" fill="#0F0D00"></path>
                <path d="M9.09577957,27.9908954 C10.1439139,26.3166999 11.0529366,24.7933329 12.0387105,23.3265265 C12.5196051,22.6113484 12.5004173,22.3448848 11.648958,21.9854104 C9.14614758,20.9258407 7.62551333,17.9934848 8.08002467,15.372841 C8.60888879,12.3336483 10.8442691,10.200683 13.7020541,10.0121475 C16.423126,9.82989647 18.9679098,11.7152517 19.7366216,14.5332294 C20.2127192,16.2765546 20.0628144,17.9884572 19.1274085,19.5294209 C17.504839,22.2028547 15.8163114,24.8297831 14.1709563,27.4843633 C13.9586911,27.827498 13.7476252,28.0084921 13.3362864,27.9996938 C12.0015341,27.9745557 10.6619849,27.9908954 9.09577957,27.9908954" id="Fill-1534" fill="#0F0D00"></path>
                <path d="M65,19.4956999 C65,16.2280676 67.0090678,14.0086365 69.9671535,14 C72.9646326,13.9914126 75.0107015,16.2489824 75,19.5621352 C74.9880205,22.7854774 72.9324016,25.0061387 69.9576036,25 C67.012649,24.9975267 64.9964235,22.7657928 65,19.4956999" id="Fill-1536" fill="#FEFEFE"></path>
                <path d="M85,16.5040982 C85,13.8449412 85,13.8449412 87.9085987,14.1144414 C89.3156378,14.2458725 90.1136779,15.311925 89.9868529,16.8705123 C89.904297,17.8237198 89.4532309,18.4768927 88.6635661,18.7782549 C88.243608,18.938893 87.7722021,18.9827034 87.3223324,18.9919965 C85,19.0318241 85,19.0198758 85,16.5040982" id="Fill-1538" fill="#FEFEFE"></path>
                <path d="M100.001196,16.3594917 C100.001196,13.9559802 100.001196,13.9559802 102.535315,14.0148577 C104.24288,14.0514926 105.123891,15.0798867 104.985931,16.8501377 C104.902428,17.9033912 104.339694,18.5759034 103.458683,18.8336562 C102.460283,19.1267354 101.408636,18.9383273 100.382403,18.9618783 C99.9285853,18.9749622 100.006037,18.6073048 100.003616,18.3194591 C99.9987757,17.6665727 100.003616,17.012378 100.001196,16.3594917" id="Fill-1540" fill="#FEFEFE"></path>
                <path d="M28.9999465,16.9849919 C29.0078619,18.1273091 28.1371653,19.0101118 27.0154368,18.9999125 C25.9265007,18.993113 24.9777807,18.0343825 25.0003962,16.9668598 C25.0230117,15.9276685 25.9344162,15.0222008 26.9837751,15.000669 C28.108896,14.9723377 28.9954234,15.8472077 28.9999465,16.9849919" id="Fill-1542" fill="#E8D645"></path>
                <path d="M12.0000866,16.9810195 C12.0102757,15.8559938 12.9170997,14.9734208 14.0378934,15.0006118 C15.1179309,15.0255368 15.9851309,15.8967803 15.9998484,16.9696899 C16.0134338,18.0743224 15.1122703,18.9920171 14.0005336,18.9999478 C12.8797399,19.0078785 11.9898976,18.11171 12.0000866,16.9810195" id="Fill-1544" fill="#E8D645"></path>
            </g>
        </g>
    </g>
</svg>