<?xml version="1.0" encoding="UTF-8"?>
<svg width="154px" height="38px" viewBox="0 0 154 38" version="1.1" xmlns="http://www.w3.org/2000/svg" xmlns:xlink="http://www.w3.org/1999/xlink">
    <!-- Generator: sketchtool 60.1 (101010) - https://sketch.com -->
    <title>AB1A17EE-D5A3-4D07-9B05-EE08C0A2B4E3</title>
    <desc>Created with sketchtool.</desc>
    <g id="Page-1" stroke="none" stroke-width="1" fill="none" fill-rule="evenodd">
        <g id="LP-DE-PATROCÃNIO" transform="translate(-767.000000, -3743.000000)">
            <g id="Group-50" transform="translate(767.000000, 3743.000000)">
                <path d="M116.499405,16.9131755 L117.020462,16.8952585 C117.272662,15.688426 117.520105,14.4841531 117.767547,13.2734813 L117.860338,13.292678 L117.860338,13.6305399 C117.860338,14.8693669 117.860338,16.1043545 117.857959,17.3444613 C117.857959,17.87557 117.847252,18.4066787 117.838925,18.933948 C118.225553,19.0465686 118.613371,18.9838594 119,18.9710616 C119,14.9845471 119,11.0018719 118.996431,7.01663714 L118.187485,7 L117.943612,7.12925777 L117.712824,7.76402863 C117.526053,8.81600774 117.320247,9.86798686 117.140614,10.9263649 C116.956222,11.9937013 116.742089,13.059758 116.532715,14.1603688 L116.447062,13.932568 C116.040209,11.8004546 115.62265,9.66962097 115.224126,7.53366824 L114.811325,7 L114,7.02047648 L114,18.9710616 C114.385439,18.9851392 114.772068,19.0427293 115.157507,18.9403469 L115.140852,18.7854935 L115.140852,13.409138 L115.194385,13.205653 C115.387104,14.1014989 115.566738,14.9807077 115.760647,15.8547974 C115.861765,16.3231969 115.97597,16.7839177 116.499405,16.9131755" id="Fill-720" fill="#050305"></path>
                <path d="M123.518343,16.9184325 L124.033136,16.8915983 L124.039053,16.7369822 C124.222485,15.8578426 124.414201,14.9825365 124.601183,14.1072303 L124.850888,13.2421467 L124.850888,18.9591098 C125.231953,19.0153338 125.615385,19.0115004 126,18.9591098 L126,7.04216803 L125.19645,7.01661165 C124.895858,7.04216803 124.795266,7.26067511 124.750296,7.54051752 C124.692308,7.918752 124.611834,8.2918752 124.551479,8.6649984 C124.28284,10.2264935 123.988166,11.7815994 123.704142,13.3405388 L123.549112,14.1072303 C123.390533,13.5973805 123.301775,13.0875306 123.201183,12.5789586 C122.884024,10.9344053 122.557396,9.28857417 122.249704,7.63507614 L121.835503,7.02044511 L121.804734,7.02300075 L121.473373,7 L121.347929,7.00255564 L121.191716,7.00255564 L121.061538,7.08305825 L121,7.25045256 L121,7.36290065 L121,7.54051752 L121.017751,7.86252795 C121.017751,11.4672559 121.021302,15.0681504 121.013018,18.6728783 L121.186982,19 L121.295858,19 L121.307692,18.9948887 L121.887574,18.9948887 L121.893491,18.9948887 L122.03432,18.9846662 L122.143195,18.7214354 C122.133728,17.5854542 122.142012,16.4520285 122.142012,15.3147695 L122.142012,13.0223618 L122.23432,13.3443723 L122.382249,14.0484506 C122.55503,14.8049196 122.661538,15.579278 122.899408,16.3140241 C122.997633,16.6296454 123.15858,16.8979874 123.518343,16.9184325" id="Fill-722" fill="#050305"></path>
                <path d="M53.3363481,19 C53.9907928,18.9795505 54.6478449,18.9961657 55.3101116,18.9910534 L55.8367962,18.943764 C56.5733724,18.7277665 56.9892447,18.1666844 56.9931557,17.2975823 C57.0022814,14.4333795 57.0022814,11.5691767 56.9931557,8.70497391 C56.9892447,7.61476196 56.3374073,7.00639046 55.2266764,7.00639046 C54.5878758,7.00639046 53.9503789,7.01917137 53.3141856,7 L53,7.30929811 C53.0130367,9.19703909 53.0065184,11.0783896 53.0065184,12.9648525 C53.0065184,14.8717648 53.0130367,16.7735648 53,18.6804772 L53.3363481,19 Z M54.5618023,8.23974864 C55.68557,8.24741719 55.74945,8.30365321 55.74945,9.4028118 L55.74945,16.9627223 C55.74945,17.5902652 55.5786686,17.7589733 54.9372607,17.7628075 C54.2762976,17.7653637 54.2762976,17.7653637 54.2762976,17.126318 L54.2762976,13.000639 C54.2762976,11.5116626 54.2789049,10.0252423 54.2697792,8.53243157 L54.5618023,8.23974864 Z" id="Fill-724" fill="#050305"></path>
                <path d="M110.562191,7 L109.438062,7 C108.561037,7.06155779 107.986169,7.73869347 108.000253,8.61557789 C108.022019,10.4987437 108.006655,12.3831658 108.006655,14.2650754 C108.006655,15.3819095 107.996412,16.4987437 108.015617,17.6155779 C108.02842,18.3442211 108.587924,18.9070352 109.31259,19 L110.687663,19 C111.496831,18.8354271 111.997439,18.2236181 112,17.3982412 L112,8.65829146 C112,7.73492462 111.499391,7.1620603 110.562191,7 L110.562191,7 Z M110.741437,17.1457286 C110.741437,17.6809045 110.496894,17.9409548 110.01421,17.9485102 C109.540489,17.951005 109.253695,17.6859296 109.253695,17.2135678 C109.249854,15.8128141 109.249854,14.410804 109.249854,13.0113065 C109.249854,11.6180905 109.249854,10.2261307 109.253695,8.83542714 C109.253695,8.24748744 109.722295,7.91708543 110.28564,8.10552764 C110.591638,8.20854271 110.737596,8.42964824 110.741437,8.82788945 C110.743998,9.58668342 110.741437,10.3404523 110.741437,11.1005025 L110.741437,17.1457286 Z" id="Fill-726" fill="#050305"></path>
                <path d="M136.259071,7 L136,7.24448 C136.006782,11.07936 136.006782,14.9168 136,18.75296 L136.255002,19 L136.950831,19 L136.957613,19 L137.146151,18.99616 L137.312987,18.79136 L137.3157,18.64032 L137.3157,17.68672 C137.312987,16.51296 137.312987,15.33536 137.3157,14.16288 L137.352323,13.85952 C138.148525,13.76992 138.392675,13.86848 138.620549,14.37024 L138.668023,14.76576 C138.672092,16.08544 138.676161,17.40512 138.66531,18.72096 L138.795524,18.98976 L138.984062,18.99616 L139.861648,18.98208 L140,18.95392 C139.995931,17.48576 139.995931,16.01888 139.986436,14.55072 C139.986436,14.12576 139.959308,13.7008 139.640556,13.35648 L139.640556,13.20672 C139.982367,12.93152 139.978298,12.54752 139.982367,12.18016 C139.995931,11.03328 139.972872,9.88896 139.993218,8.74464 C140.010851,7.8704 139.54154,7.16896 138.543235,7 C137.77823,7.00384 137.020007,7.01024 136.259071,7 L136.259071,7 Z M137.561207,8.14816 L137.596473,8.14816 C138.536453,8.13792 138.672092,8.25952 138.672092,9.14016 L138.672092,11.8576 C138.668023,12.4976 138.494405,12.65888 137.805358,12.66144 L137.642591,12.66144 L137.307562,12.36192 C137.326551,11.69632 137.312987,11.02944 137.312987,10.36384 C137.312987,9.70592 137.319769,9.05184 137.310275,8.39904 L137.561207,8.14816 Z" id="Fill-728" fill="#050305"></path>
                <path d="M50.8621307,17.9460669 C50.6756789,16.7962055 50.4866011,15.6476231 50.3027753,14.4952036 C50.1425844,13.45534 49.9928977,12.4103603 49.8300807,11.3704967 C49.647568,10.1912172 49.4453597,9.01065871 49.2746644,7.82498401 C49.1840646,7.17522916 49.0186215,7 48.3410924,7 L48.0850495,7 L47.8145631,7.22894905 C47.7869892,7.6740567 47.6858851,8.108932 47.6149809,8.54508634 C47.5165028,9.16414411 47.4455986,9.78831806 47.3510597,10.4073758 C47.231573,11.1658495 47.0897645,11.9179279 46.9729039,12.6751226 C46.8744259,13.2941803 46.8297825,13.9196333 46.7050436,14.5322959 C46.5789917,15.1360051 46.525157,15.7486677 46.4030442,16.3523769 C46.2717401,17.0136431 46.233662,17.6889789 46.0787231,18.3515242 C45.9277235,18.9936048 45.9369147,18.9974419 46.6275742,18.9974419 L46.6577741,18.9974419 L47.3786335,18.9513963 L47.490242,18.3361757 L47.5401375,18.0918781 C47.6491199,17.2221275 47.7528501,16.3523769 47.8697108,15.4775101 C48.0351539,14.2291622 48.200597,12.9808143 48.3857358,11.7350245 L48.5131008,11.1057344 L48.5879441,11.37945 C48.6194571,11.7657216 48.6601613,12.1507141 48.7271264,12.5229162 C48.8295436,13.0920912 48.8623696,13.6689405 48.9674129,14.2355575 C49.0763953,14.8008953 49.1354821,15.3726284 49.2103254,15.9418035 C49.2851687,16.5160946 49.3495077,17.0891068 49.4243511,17.662119 C49.4781857,18.0522277 49.5464639,18.4372202 49.5963594,18.8260499 L49.7959416,19 C50.1478365,18.9936048 50.5023575,18.9910467 50.8542525,19 L51,18.8324451 L50.8621307,17.9460669 Z" id="Fill-730" fill="#050305"></path>
                <path d="M64.7660972,7.01462715 L64.1261498,7.01207381 C63.8068331,6.95207035 63.696452,7.12314406 63.6714849,7.36060457 L63.5978975,7.87127236 C63.4967148,8.49556372 63.4415243,9.13006844 63.3245729,9.7543598 C63.1879106,10.4654647 63.0735874,11.1816763 62.9645204,11.8953345 C62.82523,12.8196432 62.6636005,13.7452285 62.5479632,14.6976239 L62.4296978,14.5201669 C62.2759527,13.4809579 62.1222076,12.4391957 61.9632063,11.3999867 C61.7766097,10.2126841 61.5939553,9.02155154 61.3929041,7.83297227 C61.2890933,7.20868091 61.3600526,6.96994372 60.4704336,7.01845716 L60.2457293,7.01462715 L60,7.28783442 C60.1116951,7.83935562 60.1603154,8.40364352 60.2667543,8.95644139 C60.455979,9.95479691 60.5781866,10.9608124 60.7660972,11.9617213 C60.9434954,12.9115634 61.0722733,13.8677888 61.2247043,14.8265676 C61.3981603,15.9142899 61.5703022,16.999459 61.7371879,18.084628 C61.8580815,18.841693 62.0394218,18.9821266 62.8331143,19 L63.2063075,18.6782793 C63.346912,17.6671571 63.5032852,16.6611416 63.6622865,15.651296 C63.868594,14.3286665 64.0827858,13.0073136 64.2956636,11.684684 C64.4375821,10.7935687 64.5821288,9.89990012 64.7293035,9.00495483 C64.8226018,8.42662357 64.9080158,7.8444623 65,7.26485437 L64.7660972,7.01462715 Z" id="Fill-732" fill="#050305"></path>
                <path d="M75.8025238,14.7053515 L75.1398602,14.9769403 C74.8173368,15.1183667 74.6791125,15.3549118 74.6899536,15.6865755 C74.7021499,16.2059734 74.6994396,16.7241198 74.6899536,17.2472724 C74.6791125,17.6765579 74.3606545,17.8893233 73.9771498,17.9080967 C73.5922899,17.9268701 73.3171964,17.6527782 73.3171964,17.2522786 C73.313131,14.4187439 73.313131,11.5814546 73.313131,8.74791993 L73.4567759,8.32113754 L74.1235049,8.11838462 C74.4799069,8.21225171 74.684533,8.44754523 74.6899536,8.76293866 C74.6953742,9.53139727 74.6899536,10.2948496 74.6926639,11.0595536 L74.7400938,11.3198783 L75.543692,10.9819568 C75.8309818,10.8593038 75.9881781,10.6565508 75.9881781,10.3599308 C75.9881781,9.71787989 76.0125706,9.07332585 75.9800472,8.43502962 C75.9556547,7.9606879 75.7279911,7.56769767 75.2862154,7.28985107 C74.6533648,6.90061553 73.9663087,6.99448262 73.2792525,7.05831224 C72.6003272,7.11963874 72.0785981,7.66782257 72,8.2835907 L72,17.7078469 C72.1273832,18.34364 72.4973365,18.7879443 73.1938787,18.9431378 C73.5990656,19.0370049 74.0232246,18.9869425 74.4365424,18.9844394 C75.1290191,18.9744269 75.9177108,18.4587836 75.9692061,17.6552813 C76.0247669,16.7078495 75.9881781,15.7566629 75.9881781,14.809231 L75.8025238,14.7053515 Z" id="Fill-734" fill="#050305"></path>
                <path d="M144.405775,19 L145.597156,19 C146.342108,18.8794475 146.950011,18.3407283 146.97715,17.6249477 C147.020571,16.7069904 146.988005,15.7814985 146.992076,14.8622855 L146.789894,14.7241524 L146.044942,15.04437 L145.692141,15.6270406 C145.700283,16.1758058 145.692141,16.7283382 145.692141,17.2833822 C145.689427,17.5960653 145.47639,17.7681038 145.203648,17.8974466 L144.555037,17.8020092 L144.316218,17.140226 C144.316218,14.3813311 144.316218,11.6174131 144.317575,8.8560067 L144.331144,8.5508581 L144.905124,8.10883215 C145.42347,8.0535789 145.694855,8.41272499 145.692141,8.83717036 C145.689427,9.660946 145.692141,10.4822101 145.692141,11.3398912 L146.465589,11.022185 C146.848242,10.8890749 146.996147,10.6291335 146.992076,10.2699874 C146.988005,9.71494349 146.992076,9.16241105 146.992076,8.60987861 C146.988005,7.73964002 146.465589,7.16073671 145.530667,7 L144.476335,7 C143.605189,7.08664713 143.092271,7.63541231 143,8.30347426 L143,17.69527 C143.037994,18.3206362 143.674392,18.9623273 144.405775,19" id="Fill-736" fill="#050305"></path>
                <path d="M102.394228,19 L103.643701,19 C104.376616,18.8505495 104.80122,18.4160126 104.982421,17.7604396 C104.989182,16.8135008 104.995943,15.8615385 104.995943,14.9133438 L105,14.855573 L105,14.8103611 L105,14.7739403 L104.905343,14.6860283 L104.215699,14.944741 C103.899274,15.0690738 103.692381,15.2700157 103.703199,15.611617 C103.707256,16.1566719 103.711313,16.6954474 103.711313,17.2392465 L103.651814,17.4740973 C103.454387,17.8282575 103.136609,18.0091052 102.836412,17.9387755 C102.524043,17.8684458 102.319855,17.5720565 102.319855,17.1814757 L102.319855,12.3651491 L102.319855,8.74317111 C102.319855,8.38398744 102.488885,8.18806907 102.840468,8.11397174 L103.192051,8.1177394 L103.651814,8.5321821 L103.711313,8.85494505 C103.714017,9.58461538 103.711313,10.3180534 103.714017,11.0502355 L103.777573,11.3290424 L104.441524,11.0288854 L104.985125,10.5102041 C104.985125,9.75792779 104.982421,8.99937206 104.982421,8.24207221 C104.787698,7.5299843 104.302243,7.11051805 103.511181,7.00376766 C103.18529,7.00376766 102.853991,7 102.526748,7 C101.586939,7.07158556 100.998714,7.69073783 101.000066,8.62009419 C101.017645,11.5475667 101.017645,14.4725275 101.000066,17.3987441 C100.993305,18.2263736 101.507157,18.8894819 102.394228,19" id="Fill-738" fill="#050305"></path>
                <path d="M79.2318841,19 C80.156724,18.9821048 81.0748231,18.9923306 82.0010111,18.988496 L82.5658915,18.6893907 C82.743849,18.4017895 82.8705763,18.0937367 83,17.7409459 L80.3643411,17.7409459 L80.3117627,17.5556029 C80.3077182,16.2901576 80.3077182,15.0247124 80.3077182,13.7643801 L80.3576003,13.5266297 L80.5476913,13.3655731 L80.6771149,13.342565 L81.4199528,13.3157222 L81.9888777,12.7034512 L82.231547,12.1806562 L81.9201213,12.0962931 C81.4024267,12.0720068 80.8820357,12.1295271 80.3643411,12.061781 L80.3616448,12.061781 L80.3077182,11.8687686 L80.3077182,8.6578611 L80.3616448,8.42266723 L80.4816313,8.30123562 C80.8982137,8.18236046 81.3296259,8.2680017 81.7502528,8.25521943 L82.3960229,7.8219003 L82.6737445,7.23135918 L82.5281429,7 C81.5062353,7.01022582 80.4856758,7.00766937 79.4637681,7.00383468 C79.1509943,7 79.0067408,7.14316148 79,7.43076268 L79,7.61738389 L79,18.674052 L79.2318841,19 Z" id="Fill-740" fill="#050305"></path>
                <path d="M150,18.9539003 L150.197117,19 L150.311096,19 L150.445189,18.9961584 C151.342273,18.9935973 152.240697,18.9871945 153.139122,18.9846334 L153.671472,18.4993064 L154,17.8449472 L153.706336,17.7822004 C152.983574,17.7770782 152.266175,17.7732366 151.547435,17.7822004 L151.30875,17.5555437 C151.315454,16.2749973 151.312772,14.9957315 151.315454,13.7190268 L151.367751,13.5154199 L151.619846,13.3361434 L152.173651,13.3297407 L152.767684,13.088998 C152.970164,12.7855085 153.090848,12.4423221 153.243714,12.0696831 L151.371773,12.0696831 L151.315454,11.914737 C151.312772,10.8185893 151.312772,9.72500267 151.315454,8.62885498 L151.363728,8.42524811 L151.688233,8.24597161 C152.016762,8.24341052 152.346631,8.23572724 152.669796,8.24597161 C152.995642,8.25365489 153.215555,8.11407534 153.357694,7.84131896 L153.754609,7.0691495 L153.426081,7.00640273 C152.390882,7 151.361046,7 150.325846,7 C149.989273,7.0691495 150.013409,7.31885605 150.010727,7.55703767 C150.010727,10.6777292 150.013409,13.8009818 150.010727,16.9191122 C150.010727,17.5990823 150.004023,18.2752108 150,18.9539003" id="Fill-742" fill="#050305"></path>
                <path d="M91.0026543,18.9744864 C92.0526793,19.0129059 93.1027042,19.0026607 94.1527292,18.9783284 L94.6159755,18.5826081 L95,17.8052547 C94.2185236,17.7399417 93.4343617,17.7975708 92.6515426,17.7732385 L92.3279416,17.71689 C92.3198851,16.5194841 92.3131714,15.3182362 92.3104859,14.1208302 C92.3064577,13.2807251 92.2312641,13.3165832 93.1362728,13.3293897 L93.8103298,12.9938599 C93.9620597,12.7057141 94.0882776,12.4022005 94.2359793,12.0833191 C93.6451724,12.0833191 93.0946478,12.0794772 92.5481514,12.0858804 L92.3024295,11.8720122 C92.3131714,10.7757774 92.3131714,9.68082331 92.3064577,8.58586921 L92.6582563,8.24265552 C92.9979703,8.24649746 93.3403697,8.24905876 93.6760555,8.24009422 L94.3501124,7.84309332 L94.7475643,7.07214318 L94.4615601,7.00170753 C93.3954222,6.99786559 92.3346553,7.00170753 91.2698601,7.00170753 C90.9395454,7.06445929 91.0053398,7.31418566 91.0053398,7.5229313 C91.0026543,11.3405432 91.0026543,15.1568745 91.0026543,18.9744864" id="Fill-744" fill="#050305"></path>
                <path d="M129,15.5147898 L129,18.6724619 L129,18.7581848 L129.323777,19 L129.372344,19 C130.291062,18.9782494 131.213828,18.9846467 132.131197,18.9820878 L132.673524,18.4984573 L133,17.8408221 L132.705902,17.7794087 C131.992243,17.7755704 131.279933,17.7755704 130.566273,17.7794087 L130.303204,17.5746974 C130.313997,16.2747805 130.305902,14.9761431 130.309949,13.6775056 L130.345025,13.5623555 L130.636425,13.3320553 L131.227319,13.3320553 L131.800675,13.0416211 C131.977403,12.748628 132.117707,12.4326049 132.22968,12.0679629 L130.350422,12.0679629 L130.313997,12.0206234 L130.313997,11.93618 L130.313997,11.8798844 C130.313997,10.8870344 130.313997,9.89162565 130.316695,8.90005519 L130.316695,8.57635541 L130.316695,8.503427 L130.347723,8.44841083 L130.653963,8.25393508 C130.966948,8.24753785 131.286678,8.24114062 131.607757,8.25393508 C132.020573,8.26672954 132.270152,8.07481267 132.43339,7.73320065 L132.788196,7.04357939 C132.44688,6.96809209 132.109612,7.01415214 131.769646,7.01159325 C130.946712,7 130.118381,7.00647546 129.299494,7.00647546 L129.025632,7.20478956 L129.002698,7.7037734 C129.002698,10.3074455 129.002698,12.9098382 129,15.5147898" id="Fill-746" fill="#050305"></path>
                <path d="M68.0145,18.4017895 L68.0095,18.7430763 L68.2645,18.9948871 L68.7255,19 L68.9905,18.6548786 C68.9835,15.0132084 68.9855,11.3715381 68.9855,7.72731146 L68.9855,7.5713677 C68.9735,7.21729868 68.8185,7.01917341 68.5445,7.00894759 L68.0335,7 L68.0175,7.37068598 C68.0145,11.0481466 68.0145,14.7243289 68.0145,18.4017895" id="Fill-748" fill="#050305"></path>
                <path d="M146.999043,25.616138 C146.999043,25.0501666 146.999043,25.0501666 146.402117,25.0180632 L146.367679,25.3616887 C146.367679,26.8122875 146.371506,28.2676425 146.371506,29.7194303 L146.357475,30.001227 L146.112583,29.6766258 C145.06286,28.2961788 144.009311,26.9169209 142.981272,25.5245838 C142.736379,25.1964155 142.513169,24.926509 142.033588,25.0180632 L142.001701,25.2415981 C141.997874,27.1154865 142.001701,28.9881858 142.001701,30.8596962 L142.014455,31 L142.235114,31 C142.635616,31 142.635616,31 142.635616,30.61357 C142.633065,29.1962635 142.633065,27.7801461 142.633065,26.3604616 L142.583321,25.9704646 L142.644544,26.1024453 C143.059076,26.6077769 143.417487,27.1499679 143.821815,27.6648116 C144.655981,28.7337365 145.448056,29.8335758 146.275844,30.9120129 L146.916137,30.9869208 L146.995217,30.7217704 C147.00287,29.0191002 146.999043,27.3188081 146.999043,25.616138" id="Fill-750" fill="#050305"></path>
                <path d="M120.999496,25.6108152 C120.999496,25.0464715 120.999496,25.0464715 120.398024,25.0167692 L120.371206,25.362504 C120.367375,26.7573239 120.367375,28.1509557 120.367375,29.5445874 L120.383977,29.8309176 L120.43378,30.0899216 L120.308633,29.9592315 L119.893605,29.3628094 C118.928185,28.0891749 117.942333,26.8262332 116.992237,25.5419059 C116.74322,25.206864 116.515912,24.9276624 116.026817,25.0167692 L116,25.129638 L116.008939,30.9940595 L116.412474,31 L116.630843,30.7861435 C116.624458,29.2891477 116.624458,27.79334 116.620627,26.2999085 L116.574655,25.9660547 L116.683201,26.1205066 L116.932218,26.4769342 C117.566892,27.3240437 118.206674,28.168777 118.847733,29.0170746 C119.313842,29.6384467 119.795275,30.2598188 120.266492,30.8800027 L120.921598,30.9786143 L120.995664,30.6875318 C121.00205,28.995689 120.999496,27.302658 120.999496,25.6108152" id="Fill-752" fill="#050305"></path>
                <path d="M64,25.024992 L64,25.024992 C63.3743616,24.975997 63.3743616,24.975997 63.3743616,25.5603528 L63.3641471,29.3485078 L63.3641471,30.0153187 C62.1345761,28.2789814 60.8449949,26.6752892 59.628192,25.024992 C59,24.966437 59,24.966437 59,25.5352577 C59,27.3516601 59,29.1680626 59.0038304,30.98805 L59.628192,30.98805 C59.6320225,29.5432931 59.6345761,28.1033161 59.6384065,26.6621442 L59.6179775,26.2008736 L59.5822268,25.9236332 L59.6843718,26.0837635 L59.9078141,26.4195589 C60.4172625,27.1090748 60.9279877,27.8021757 61.4502043,28.4881067 C62.0886108,29.3281928 62.7334014,30.1623039 63.378192,31 L64,30.98805 L64,25.024992 Z" id="Fill-754" fill="#050305"></path>
                <path d="M59.536,24.511 L59.464,24.489 L59.536,24.511 Z" id="Fill-757" fill="#050305"></path>
                <path d="M59.471,24.5565 L59.529,24.4435 L59.471,24.5565 Z" id="Fill-758" fill="#050305"></path>
                <g id="Group-773" transform="translate(51.000000, 25.000000)" fill="#050305">
                    <path d="M74.9327429,2.92121667 C75.3722667,2.68671667 75.6124571,2.35071667 75.7003619,1.92021667 L75.6978857,1.35205 C75.5678857,0.902883333 75.3276952,0.527216667 74.8460762,0.331216667 C74.5538857,0.209883333 74.2344571,0.174883333 73.9125524,0.171383333 C73.2588381,0.16205 72.6076,0.16205 71.9538857,0.159716667 L71.9155048,0.37905 C71.9130286,2.22705 71.9130286,4.07271667 71.9130286,5.91721667 L71.9316,6.02921667 C72.7388381,6.02921667 73.5485524,6.07121667 74.3496,6.01055 C75.6817905,5.91488333 76.2116952,4.81355 75.8637905,3.80321667 C75.7176952,3.37621667 75.3896,3.10438333 74.9327429,2.92121667 L74.9327429,2.92121667 Z M72.725219,0.70105 C73.1820762,0.712716667 73.635219,0.695216667 74.0871238,0.709216667 C74.699981,0.730216667 75.0751238,1.10121667 75.0837905,1.67521667 C75.091219,2.25155 74.7123619,2.67505 74.1156,2.70888333 C73.6438857,2.73455 73.1684571,2.71121667 72.6967429,2.72171667 L72.5308381,2.55255 C72.5370286,2.26555 72.5345524,1.98088333 72.5345524,1.69505 L72.5308381,0.899383333 L72.725219,0.70105 Z M74.2344571,5.50305 C73.7206476,5.53221667 73.2068381,5.50655 72.6942667,5.51588333 L72.5308381,5.34321667 C72.5370286,5.01188333 72.5345524,4.68288333 72.5345524,4.34805 C72.5345524,4.03655 72.543219,3.72271667 72.5308381,3.41121667 L72.7351238,3.22221667 C73.2093143,3.23155 73.6822667,3.21871667 74.153981,3.22805 C74.8398857,3.24438333 75.3054095,3.68188333 75.3276952,4.31888333 C75.3475048,5.00255 74.9451238,5.45871667 74.2344571,5.50305 L74.2344571,5.50305 Z" id="Fill-759"></path>
                    <path d="M83.3281429,2.72125 C83.0607143,1.23491667 82.1123333,0.340083333 80.5312857,0.08575 L79.807,0.08925 C78.8598571,0.196583333 78.103381,0.602583333 77.5524286,1.34808333 C77.0361429,2.04691667 76.9049048,2.83558333 77.0423333,3.64175 C77.1537619,4.26941667 77.479381,4.81541667 77.9721429,5.30191667 C78.8598571,6.16641667 80.3678571,6.35541667 81.4425238,5.87708333 C82.537,5.39175 83.1238571,4.56108333 83.3244286,3.46091667 L83.3281429,2.72125 Z M80.1648095,5.58542494 C78.7509048,5.58191667 77.6638571,4.48175 77.6663291,3.06775 C77.6663291,1.69108333 78.7608095,0.616583333 80.1648095,0.61189338 C81.5774762,0.606083333 82.706619,1.69691667 82.706619,3.06775 C82.706619,4.48175 81.587381,5.58891667 80.1648095,5.58542494 L80.1648095,5.58542494 Z" id="Fill-761"></path>
                    <path d="M41.1728571,3.09166667 L41.1728571,3.09166667 L41.144381,2.863 L41.1295238,2.72066667 C41.0119048,1.995 40.6924762,1.358 40.1105714,0.856333333 C38.804381,-0.274166667 36.4829524,-0.137666667 35.4293333,1.2635 C34.8721905,2.00316667 34.7174286,2.8105 34.8499048,3.64816667 C34.957619,4.354 35.334,4.97933333 35.9493333,5.46233333 C36.8741905,6.18566667 37.9141905,6.33733333 39.0037143,5.98033333 C40.2455238,5.57083333 40.9215238,4.676 41.1295238,3.4615 L41.1728571,3.09166667 Z M36.8741905,5.355 C35.8886667,4.88366667 35.3562857,3.87566667 35.4838095,2.72066667 C35.5915238,1.75816667 36.3529524,0.946166667 37.3842857,0.7 C38.986381,0.315 40.5166667,1.48983333 40.5068097,3.0975 C40.4980952,4.95716667 38.558,6.1635 36.8741905,5.355 L36.8741905,5.355 Z" id="Fill-763"></path>
                    <path d="M5.93010476,0.79835 C4.9049619,-0.0369833333 3.33381905,-0.13265 2.2022,0.512516667 C1.28353333,1.03518333 0.8242,1.83785 0.721438095,2.83651667 L0.721438095,3.34635 C0.804390476,4.24935 1.19315238,5.00418333 1.96200952,5.55951667 C2.6962,6.08801667 3.54305714,6.28051667 4.43324762,6.09735 C5.95858095,5.78468333 6.85372381,4.79535 7.0394381,3.34635 L7.0394381,2.83651667 C6.94905714,2.02451667 6.59000952,1.34201667 5.93010476,0.79835 M3.84391429,5.60385 C2.41515238,5.57118333 1.31200952,4.43251667 1.35905714,3.03485 C1.40362857,1.65001667 2.52286667,0.594183333 3.91324762,0.628016667 C5.34200952,0.660683333 6.44639048,1.77018333 6.40429524,3.12818333 C6.35972381,4.54918333 5.23800952,5.63418333 3.84391429,5.60385" id="Fill-765"></path>
                    <path d="M102.884848,2.89415 L102.884848,2.89415 L102.8118,2.39015 C102.671895,1.79165 102.405705,1.26431667 101.899324,0.851316667 C101.43999,0.47565 100.898943,0.315816667 100.326943,0.201483333 L100.005038,0.16065 C99.3290381,0.162983333 98.6518,0.169983333 97.9795143,0.165316667 L97.7467524,0.369483333 C97.7529429,2.19531667 97.7529429,4.01415 97.7467524,5.83998333 L97.9510381,6.03131667 C98.6976095,6.02315 99.4429429,6.04998333 100.184562,6.01031667 C100.911324,5.97181667 101.555133,5.71048333 102.068943,5.21115 C102.619895,4.68031667 102.83161,4.01298333 102.884848,3.29081667 L102.884848,2.89415 Z M99.7178,5.51215 C99.367419,5.51565 99.0133238,5.49931667 98.6629429,5.51915 L98.3707524,5.25898333 C98.3905619,4.53681667 98.379419,3.81465 98.379419,3.09365 C98.379419,2.37148333 98.3843714,1.64931667 98.3757048,0.928316667 L98.6047524,0.69965 C99.159419,0.721816667 99.7178,0.655316667 100.266276,0.746316667 C101.539038,0.950483333 102.234848,1.79398333 102.238581,3.09365 C102.243514,4.58931667 101.308752,5.48998333 99.7178,5.51215 L99.7178,5.51215 Z" id="Fill-767"></path>
                    <path d="M46.7738762,5.97765 C46.2947333,5.16681667 45.8193048,4.35131667 45.3414,3.54048333 L45.4392095,3.39581667 C46.0458762,3.14731667 46.3405429,2.68065 46.4544476,2.09148333 L46.4544476,1.63881667 C46.2860667,0.742816667 45.8453048,0.33915 44.8696857,0.201483333 C44.081019,0.201483333 43.2960667,0.168816667 42.5086381,0.21315 C42.5086381,2.15215 42.5111143,4.08881667 42.5111143,6.02431667 C43.1276857,6.08148333 43.1276857,6.08148333 43.1276857,5.50631667 C43.1276857,4.93815 43.1338762,4.36998333 43.1214952,3.79948333 L43.3604476,3.57315 C43.7405429,3.58948333 44.1231143,3.57548333 44.5044476,3.57898333 L44.6839714,3.63265 C45.1494952,4.43881667 45.6187333,5.24148333 46.0842571,6.04415 L46.7738762,5.97765 Z M43.2935905,3.06565 L43.1239714,2.89881667 C43.1314,2.56398333 43.1276857,2.23498333 43.1276857,1.90015 C43.1276857,1.57465 43.1338762,1.25265 43.1239714,0.932983333 L43.3381619,0.712483333 C43.7776857,0.72765 44.2246381,0.712483333 44.6678762,0.725316667 C45.3921619,0.746316667 45.8155905,1.16048333 45.8329238,1.84648333 C45.8453048,2.52431667 45.4305429,3.00498333 44.7446381,3.05398333 C44.2642571,3.08431667 43.7739714,3.05981667 43.2935905,3.06565 L43.2935905,3.06565 Z" id="Fill-769"></path>
                    <path d="M54.8681714,5.91616667 L54.8681714,5.91616667 L54.8050286,5.824 C54.3036,4.53716667 53.7910286,3.25033333 53.301981,1.96116667 C53.0915048,1.39883333 52.8302667,0.855166667 52.6767429,0.275333333 L51.9598857,0.197166667 C51.2034095,2.121 50.4531238,4.0495 49.7016,5.97683333 L50.3714095,6.00716667 C50.5286476,5.418 50.805981,4.86383333 50.9929333,4.2875 L51.247981,4.18833333 C51.9425524,4.18833333 52.6346476,4.19416667 53.327981,4.186 L53.5954095,4.38083333 C53.7910286,4.9105 53.9940762,5.43666667 54.1983619,5.964 L54.8681714,5.91616667 Z M51.2356,3.67383333 C51.5674095,2.72183333 51.9945524,1.8165 52.2916952,0.812 C52.5975048,1.806 52.9961714,2.7125 53.3403619,3.67383333 L51.2356,3.67383333 Z" id="Fill-771"></path>
                </g>
                <path d="M105.5165,30.504 L105.4835,30.496 L105.5165,30.504 Z" id="Fill-774" fill="#050305"></path>
                <path d="M105.5105,30.5055 L105.4895,30.4945 L105.5105,30.5055 Z" id="Fill-775" fill="#050305"></path>
                <g id="Group-784" transform="translate(44.000000, 25.000000)" fill="#050305">
                    <path d="M95.9674474,0.1589 L95.726191,0.168233333 L95.3742551,0.489066667 C95.4003705,0.9254 95.3941526,1.36406667 95.3817167,1.79923333 C95.3618192,2.6509 95.4538449,3.50023333 95.3269987,4.34956667 C95.2747679,4.68556667 95.1205628,5.00056667 94.8332936,5.20823333 C94.374409,5.53956667 93.8371782,5.6469 93.2601526,5.57456667 C92.5202167,5.48006667 91.8996654,4.92473333 91.9046397,4.29006667 L91.8536526,3.8724 C91.8499218,2.7384 91.8536526,1.6044 91.8499218,0.4704 L91.8312679,0.1589 L91.2604603,0.1589 L91.2331013,0.499566667 C91.2331013,1.7339 91.2331013,2.9694 91.2293705,4.20373333 L91.4308321,4.97723333 C91.8834987,5.84056667 92.6607423,6.13923333 93.6319859,6.13576369 C94.9166141,6.1334 95.780909,5.44856667 95.9997808,4.2609 C96.0022679,2.99506667 96.0022679,1.7304 96.0022679,0.468066667 L95.9674474,0.1589 Z" id="Fill-776"></path>
                    <path d="M30.8201333,0.413 L30.6248897,0.184333333 L30.5676846,0.184333333 L30.4868513,0.194833333 L30.1883897,0.224 C30.1883897,1.491 30.1983385,2.76616667 30.1883897,4.03666667 C30.1859026,4.42283333 30.0553256,4.77283333 29.7780051,5.07383333 C29.1736205,5.73183333 28.0009154,5.73416667 27.3828513,5.35033333 C26.9811718,5.10066667 26.7100692,4.75883333 26.7125564,4.27816667 L26.6640564,3.88733333 C26.6615692,2.73583333 26.6491333,1.58666667 26.6715179,0.4375 C26.6777359,0.151666667 26.5185564,0.1995 26.3382359,0.190166667 L26.0360436,0.438666667 C26.0534538,1.67416667 26.0397744,2.90966667 26.0360436,4.14516667 C26.0969795,5.43083333 27.0520564,6.041 27.9461974,6.12616667 C29.7046333,6.2965 30.5950436,5.4915 30.8052103,4.31666667 C30.8101846,3.2235 30.8101846,2.12566667 30.8201333,1.03133333 L30.8201333,0.413 Z" id="Fill-778"></path>
                    <path d="M5.50164103,4.97035 C4.88730769,5.43585 4.20084615,5.66685 3.39375641,5.58635 C2.231,5.46968333 1.25105128,4.47801667 1.22742308,3.37201667 L1.23115385,2.76185 C1.261,1.69785 2.231,0.698016667 3.46464103,0.660683333 L3.93098718,0.660683333 C4.45080769,0.688683333 4.92834615,0.85085 5.33873077,1.13318333 L5.76030769,1.06668333 L5.67823077,0.65835 C4.54283333,-0.0148166667 3.34898718,-0.120983333 2.14519231,0.43085 C1.15778205,0.88935 0.68024359,1.71301667 0.554641026,2.72218333 L0.554641026,3.46185 C0.665320513,4.38351667 1.10430769,5.13368333 1.91637179,5.66685 C2.6314359,6.13585 3.43479487,6.22451667 4.26426923,6.11251667 C4.88357692,6.03201667 5.43324359,5.77301667 5.91451282,5.38218333 L5.83492308,4.95168333 L5.50164103,4.97035 Z" id="Fill-780"></path>
                    <path d="M23.8031782,3.18301667 C23.2771397,2.91001667 22.6976269,2.74318333 22.1852679,2.44918333 C21.8072167,2.23335 21.5995372,1.93585 21.666691,1.50651667 C21.7313577,1.13085 21.9800756,0.915016667 22.3556397,0.77035 C22.9873833,0.530016667 23.5345628,0.70385 24.0717936,1.00485 L24.4088064,0.993183333 C24.4908833,0.824016667 24.728409,0.68285 24.4287038,0.505516667 C23.6837936,0.0610166667 22.8779474,-0.0509833333 22.0658833,0.23835 C21.1182679,0.57085 20.7538962,1.50885 21.1543321,2.29051667 C21.3781782,2.73035 21.8246269,2.98818333 22.2934603,3.17485 C22.8679987,3.39885 23.4636782,3.58435 23.8964474,4.03235 C24.2968833,4.44301667 24.0456782,5.15235 23.6663833,5.35885 C22.8779474,5.78585 22.1616397,5.58285 21.5037808,5.14068333 L21.0225115,5.17335 L21.0623064,5.59335 C21.5796397,5.94568333 22.1467167,6.16501667 22.7933833,6.14051667 C23.0955756,6.15335 23.3778705,6.11835 23.6576782,6.02268333 C24.4597936,5.75085 24.8851013,4.95985 24.722191,4.26801667 C24.6003192,3.74768333 24.2720115,3.42685 23.8031782,3.18301667" id="Fill-782"></path>
                </g>
                <path d="M85.4825,25.5415 L85.5175,25.4585 L85.4825,25.5415 Z" id="Fill-785" fill="#050305"></path>
                <path d="M83.4685,30.5615 L83.5315,30.4385 L83.4685,30.5615 Z" id="Fill-786" fill="#050305"></path>
                <path d="M84.5006064,25 L80.3532861,25 L80.0060573,25.0334357 L80.0060573,25.0370181 L80.0121278,25.1815081 C79.959922,25.4740706 80.0752603,25.558854 80.3775679,25.5445244 C80.9093379,25.5158652 81.4411079,25.5421362 81.9740919,25.5325831 L82.2108388,25.7511093 C82.2023402,27.4885721 82.2023402,29.227229 82.2023402,30.9599153 C82.7681047,31.038728 82.81424,31.0423104 82.8178822,30.5801812 C82.8203104,29.5615861 82.8178822,28.5406029 82.8203104,27.523202 C82.8203104,26.9750951 82.8178822,26.4246001 82.8203104,25.874105 L82.8530907,25.5636305 C83.557261,25.5063122 84.2687159,25.5516892 84.9753143,25.5385538 C85.0323764,25 85.0323764,25 84.5006064,25" id="Fill-787" fill="#050305"></path>
                <path d="M82.545,30.5195 L82.455,30.4805 L82.545,30.5195 Z" id="Fill-789" fill="#050305"></path>
                <path d="M85.5315,24.515 L85.4685,24.485 L85.5315,24.515 Z" id="Fill-790" fill="#050305"></path>
                <g id="Group-799" transform="translate(77.000000, 25.000000)" fill="#050305">
                    <path d="M3.67092258,5.85958333 C3.73711613,5.55041667 3.57653548,5.50841667 3.29582581,5.51308333 C2.5529871,5.53175 1.81750323,5.51308333 1.08079355,5.52591667 L0.812341935,5.28208333 C0.822148387,3.59508333 0.818470968,1.90458333 0.818470968,0.212916667 C0.209245161,0.149916667 0.209245161,0.149916667 0.209245161,0.70175 C0.209245161,2.39225 0.211696774,4.08041667 0.203116129,5.76975 L0.49976129,6.04508333 C1.45711613,6.03458333 2.41692258,6.04275 3.3706,6.03925 L3.69176129,5.99841667 L3.67092258,5.85958333 Z" id="Fill-791"></path>
                    <path d="M32.1701871,2.3674 L31.8147032,2.3674 C31.1539935,2.5179 30.8463161,2.87723333 30.8708323,3.50956667 C30.8879935,3.90973333 31.0804452,4.24806667 31.4665742,4.39856667 C31.879671,4.5619 32.3209613,4.5619 32.6948323,4.24573333 C33.0012839,3.9879 33.1741226,3.67173333 33.1018,3.27273333 C33.0074129,2.77573333 32.6752194,2.48756667 32.1701871,2.3674" id="Fill-793"></path>
                    <path d="M37.0645871,0.15995 L36.8868452,0.169283333 C36.4872323,0.172783333 36.4872323,0.172783333 36.4872323,0.564783333 L36.4872323,5.45311667 C36.4872323,6.03178333 36.4872323,6.03178333 37.0805226,6.03061667 C37.0866516,4.10911667 37.090329,2.18878333 37.090329,0.27195 L37.0645871,0.15995 Z" id="Fill-795"></path>
                    <path d="M22.0401226,0.185733333 C21.8452194,0.199733333 21.8452194,0.3199 21.8452194,0.699066667 L21.8452194,5.64923333 C21.8452194,6.0459 21.8452194,6.0494 22.2485097,6.04006667 L22.4568968,6.0249 C22.4568968,4.0859 22.4568968,2.1504 22.4618,0.213733333 L22.1406387,0.185733333 L22.0401226,0.185733333 Z" id="Fill-797"></path>
                </g>
                <path d="M99.541,24.514 L99.459,24.486 L99.541,24.514 Z" id="Fill-800" fill="#050305"></path>
                <path d="M98.47,24.5565 L98.53,24.4435 L98.47,24.5565 Z" id="Fill-801" fill="#050305"></path>
                <g id="Group-820" transform="translate(66.000000, 6.000000)" fill="#050305">
                    <path d="M32.2486667,7.4554381 C31.8054286,7.4554381 31.3646667,7.4554381 30.9214286,7.45915238 L30.6700952,7.65600952 L30.6824762,8.2602 C31.2247619,8.2602 31.7682857,8.24286667 32.3093333,8.2614381 L32.8033333,8.01753333 C32.825619,7.4554381 32.825619,7.4554381 32.2486667,7.4554381" id="Fill-802"></path>
                    <path d="M70.0946381,12.4822286 L70.0946381,12.6320381 L70.3174952,12.8648 L71.0120667,12.8648 C71.2832095,12.8908 71.3773048,12.8078476 71.3723524,12.5206095 C71.3574952,10.9643238 71.3674,9.41175238 71.3674,7.85794286 L71.3376857,8.18232381 C71.3339714,9.31022857 71.3339714,10.4356571 71.3339714,11.5573714 C71.3376857,11.8768 71.3376857,12.1925143 71.3414,12.5057524 L71.3314952,12.6270857 L71.1792095,12.8239429 L71.0071143,12.8301333 L70.9712095,12.8301333 L70.3360667,12.8326095 L70.1268286,12.6295619 L70.1268286,12.5082286 C70.1268286,8.84594286 70.1293048,5.18613333 70.1206381,1.5275619 L70.4289238,1.20194286 C71.1024476,1.23041905 71.7784476,1.18584762 72.4544476,1.22422857 L72.1634952,1.17594286 C71.5989238,1.17594286 71.0355905,1.19575238 70.471019,1.16851429 C70.157781,1.15489524 70.0847333,1.25394286 70.0884476,1.55727619 C70.0971143,5.19727619 70.0946381,8.83975238 70.0946381,12.4822286" id="Fill-804"></path>
                    <path d="M56.7233333,7.28755238 L56.6824762,7.60945714 L56.6824762,12.4764095 L56.5537143,12.8181238 L56.4113333,12.8292667 L56.3184762,12.8292667 L55.782381,12.8292667 L55.6709524,12.8292667 L55.6511429,12.8292667 L55.4728571,12.6559333 L55.4728571,12.4726952 L55.4728571,1.73098095 L55.4728571,1.45117143 L55.6771429,1.21221905 L55.9705714,1.20602857 L56.3506667,1.22707619 L55.7279048,1.1726 L55.4369524,1.46355238 C55.4468571,2.57040952 55.445619,3.68098095 55.445619,4.7878381 C55.445619,7.37669524 55.4468571,9.96555238 55.4369524,12.5568857 L55.7402857,12.8651714 L56.2825714,12.8614571 C56.7134286,12.8614571 56.7134286,12.8614571 56.7134286,12.4479333 C56.7134286,10.8656476 56.7134286,9.28088571 56.7171429,7.6998381 L56.7679048,7.35440952 L56.7357143,7.30364762 L56.7233333,7.28755238 Z" id="Fill-806"></path>
                    <path d="M64.0212857,12.8666571 C64.8087143,12.8542762 65.597381,12.864181 66.3810952,12.8604667 L66.6435714,12.813419 C65.8004286,12.8505619 64.9548095,12.8233238 64.1104286,12.8319905 L64.0745238,12.8319905 L64.0658571,12.8319905 L63.9531905,12.8319905 L63.7687143,12.6351333 L63.7687143,12.5955143 L63.7662381,12.5100857 C63.7687143,11.4923714 63.7687143,10.4746571 63.7687143,9.45818095 L63.7687143,1.68913333 L63.791,1.42046667 L63.7365238,1.67922857 C63.7365238,5.30808571 63.7365238,8.94065714 63.7315714,12.5732286 L64.0212857,12.8666571 Z" id="Fill-808"></path>
                    <path d="M1.67885714,12.4184667 L1.72590476,12.7378952 L1.70980952,12.4382762 C1.70980952,8.85399048 1.70733333,5.26599048 1.70980952,1.68046667 L1.75314286,1.3610381 L1.67885714,1.6965619 C1.67514286,5.26846667 1.67514286,8.84408571 1.67885714,12.4184667" id="Fill-810"></path>
                    <path d="M14.6325524,24.9966476 C13.6235048,25.0003619 12.613219,24.9941714 11.6091238,25.0065524 L11.3317905,24.7106476 C11.337981,22.8349333 11.3404571,20.9555048 11.3317905,19.0810286 L11.6437905,18.7653143 L11.9681714,18.7962667 L11.5348381,18.7356 L11.3008381,18.981981 C11.3045524,20.9146476 11.3045524,22.8473143 11.3008381,24.779981 L11.5645524,25.0350286 C12.5785524,25.0288381 13.5987429,25.0313143 14.6127429,25.0288381 L14.8702667,24.935981 L14.6325524,24.9966476 Z" id="Fill-812"></path>
                    <path d="M6.55311429,11.5920381 L6.55311429,2.74708571 L6.57292381,2.50813333 L6.5221619,2.8275619 C6.51844762,5.72222857 6.51844762,8.61565714 6.5221619,11.5115619 L6.57292381,11.8297524 L6.55311429,11.5920381 Z" id="Fill-814"></path>
                    <path d="M76.999619,11.3282 L77.0466667,11.6513429 L77.0280952,11.4086762 L77.0280952,2.62810476 L77.0466667,2.38791429 L76.999619,2.70858095 C76.9959048,5.5809619 76.9959048,8.45458095 76.999619,11.3282" id="Fill-816"></path>
                    <path d="M4.85865714,20.6463524 C4.85246667,20.1040667 4.86484762,19.5593048 4.85246667,19.0133048 L5.10751429,18.7644476 L5.2610381,18.7644476 L5.52599048,19.0355905 C5.51484762,20.2167333 5.5185619,21.3916857 5.52227619,22.5728286 L5.54827619,23.1114 C5.54827619,21.7532095 5.54208571,20.395019 5.56065714,19.0355905 C5.56684762,18.7260667 5.41332381,18.7260667 5.19046667,18.729781 C4.97999048,18.7334952 4.81037143,18.7124476 4.8178,19.0281619 C4.83513333,20.2575905 4.82399048,21.4845429 4.82646667,22.7127333 L4.87351429,22.9702571 C4.83265714,22.1964476 4.86484762,21.4201619 4.85865714,20.6463524" id="Fill-818"></path>
                </g>
                <polygon id="Fill-821" fill="#050305" points="99.5805 24.496 99.5115 24.496 99.4285 24.496 99.3145 24.504 99.6855 24.496"></polygon>
                <path d="M99.258,30.4662947 L99.258,25.2481914 L99.255,25 L99.232,25.2737406 L99.232,29.6973879 L99.232,30.7947834 L99.324,30.9979597 L99.768,30.941995 L99.747,30.9578111 C99.258,31.0454081 99.258,31.0454081 99.258,30.4662947" id="Fill-822" fill="#050305"></path>
                <polygon id="Fill-824" fill="#050305" points="59.573 24.496 59.308 24.504 59.692 24.496"></polygon>
                <g id="Group-833" transform="translate(58.000000, 13.000000)" fill="#050305">
                    <path d="M0.998105128,17.94702 L0.968258974,17.6113533 C0.965771795,15.7480867 0.965771795,13.8784867 0.968258974,12.01522 L0.965771795,11.7542867 L0.933438462,12.0671533 C0.933438462,13.9101533 0.933438462,15.7531533 0.937169231,17.59742 L0.998105128,17.94702 Z" id="Fill-825"></path>
                    <path d="M93.4063987,0.368726667 C93.4026679,1.57206 93.4126167,2.77286 93.3989372,3.97746 L93.7235141,4.29666 C94.3577449,4.27766 94.9919756,4.28779333 95.6262064,4.29286 L95.8774115,4.37899333 L95.7020654,4.26246 C95.0529115,4.25486 94.4050013,4.24472667 93.7558474,4.26246 L93.4325141,3.93439333 C93.4412192,2.65632667 93.4350013,1.37572667 93.4325141,0.0963933333 L93.4063987,0.368726667 Z" id="Fill-827"></path>
                    <path d="M72.7301026,1.19016 C72.7238846,2.14016 72.7325897,3.08636 72.7238846,4.03509333 L72.9800641,4.29349333 C73.6379231,4.28082667 74.2932949,4.28716 74.9499103,4.29349333 L75.2011154,4.38216 L75.0232821,4.26056 C74.3865641,4.25549333 73.7486026,4.24536 73.110641,4.26309333 C72.8420256,4.27069333 72.75,4.20736 72.7537308,3.90842667 C72.7686538,2.65696 72.7562179,1.40042667 72.7537308,0.143893333 C72.6952821,0.493493333 72.7325897,0.841826667 72.7301026,1.19016" id="Fill-829"></path>
                    <path d="M24.8680641,12.5389867 L24.8680641,14.2844533 C24.8643333,15.32312 24.8643333,16.35672 24.8643333,17.3915867 L24.8643333,17.52712 L24.8643333,17.5714533 L24.8680641,17.81212 L24.8991538,17.5473867 L24.8991538,12.2058533 L24.8680641,12.5389867 Z" id="Fill-831"></path>
                </g>
                <polygon id="Fill-834" fill="#050305" points="82.4145 30.5 82.3215 30.505 82.6785 30.495"></polygon>
                <g id="Group-843" transform="translate(113.000000, 25.000000)" fill="#050305">
                    <path d="M29.240192,5.80825 C29.236472,4.00575 29.236472,2.19975 29.240192,0.396083333 L29.287312,0.158083333 L29.207952,0.440416667 C29.205472,2.21375 29.205472,3.98941667 29.207952,5.76391667 L29.268712,6.03108333 L29.240192,5.80825 Z" id="Fill-835"></path>
                    <path d="M10.015232,5.80825 C10.015232,4.00225 10.015232,2.19975 10.017712,0.396083333 L10.066072,0.158083333 L9.986712,0.46725 C9.984232,2.22191667 9.984232,3.98008333 9.986712,5.73591667 L10.043752,6.03108333 L10.015232,5.80825 Z" id="Fill-837"></path>
                    <path d="M3.345768,5.80825 C3.345768,4.00575 3.345768,2.20208333 3.348248,0.396083333 L3.396608,0.158083333 L3.313528,0.41125 L3.313528,5.79308333 L3.380488,6.02641667 L3.345768,5.80825 Z" id="Fill-839"></path>
                    <path d="M1.533756,0.15995 L1.584596,0.367616667 C1.587076,2.19111667 1.587076,4.01345 1.584596,5.83811667 L1.549876,6.03061667 L1.611876,5.76461667 C1.615596,3.98078333 1.615596,2.19811667 1.611876,0.409616667 L1.533756,0.15995 Z" id="Fill-841"></path>
                </g>
                <polygon id="Fill-844" fill="#050305" points="64.499 25.2285027 64.499 30.7702946 64.476 31 64.524 30.7245941 64.524 25.2754059 64.476 25"></polygon>
                <path d="M138.26784,18.9456849 L138.242424,18.9456849 L138.129032,18.9388425 L138.105572,18.9388425 L138.025415,18.6418824 C138.021505,17.2186638 138.02346,15.7913397 138.021505,14.3667525 L138.005865,14 C138.002933,15.5710145 138,17.1433974 138,18.7171488 L138.069404,18.9648436 C138.378299,18.9648436 138.695015,19.0770589 139,18.900525 L138.899316,18.9306316 L138.26784,18.9456849 Z" id="Fill-845" fill="#050305"></path>
                <polygon id="Fill-847" fill="#050305" points="85.512 25.675 85.51 25.622 85.488 25.325"></polygon>
                <g id="Group-902" transform="translate(58.000000, 6.000000)" fill="#050305">
                    <path d="M22.1205649,18.7685333 C23.5813442,18.764819 25.0445909,18.764819 26.5053701,18.7685333 L26.7916039,18.764819 L26.5374481,18.7338667 C25.0729675,18.7338667 23.6035519,18.7338667 22.1403052,18.7363429 L21.8096558,18.815581 L21.8096558,18.8118667 L22.1205649,18.7685333 Z" id="Fill-848"></path>
                    <path d="M5.1832987,21.073 C5.1795974,20.409381 5.19563636,19.7420476 5.17712987,19.0796667 L5.49050649,18.7639524 L5.81622078,18.7911905 C5.28816883,18.6104286 5.15245455,18.6958571 5.15245455,19.2232857 L5.15245455,22.958619 L5.20303896,23.2730952 C5.15985714,22.5389048 5.18946753,21.8059524 5.1832987,21.073" id="Fill-850"></path>
                    <path d="M16.9493571,18.7494667 L16.3781234,18.806419 L16.7531883,18.7655619 L16.8136429,18.7692762 L16.8790325,18.7692762 L17.0061104,18.9847048 L17.0061104,19.0107048 L17.0098117,19.118419 L17.0061104,19.664419 C17.0061104,19.9925143 17.0098117,20.3193714 17.0061104,20.6462286 C16.9999416,21.4819429 17.0246169,22.3188952 16.9900714,23.1533714 L17.0295519,23.0741333 C17.0307857,21.6874667 17.0357208,20.3020381 17.0357208,18.9153714 L16.9493571,18.7494667 Z" id="Fill-852"></path>
                    <path d="M87.6028312,22.2816286 C87.5966623,21.1970571 87.6003636,20.1087714 87.6028312,19.0217238 L87.6509481,18.7406762 L87.5707532,19.037819 C87.5682857,20.4764857 87.5682857,21.9114381 87.5707532,23.3501048 L87.6176364,23.6373429 C87.5769221,23.1879143 87.6028312,22.7347714 87.6028312,22.2816286" id="Fill-854"></path>
                    <path d="M35.7212338,22.3999905 L35.5916883,22.6129429 C35.5916883,23.2765619 35.5941558,23.9389429 35.5916883,24.6000857 C35.5867532,25.0495143 35.6533766,24.9962762 35.1907143,24.9987524 L34.9612338,24.9640857 L35.2067532,25.0309429 C35.6225325,25.0445619 35.6225325,25.0408476 35.6225325,24.6347524 C35.6225325,23.9822762 35.6287013,23.3285619 35.6188312,22.6711333 L35.8606494,22.4259905 C36.2801299,22.433419 36.7020779,22.4272286 37.1215584,22.4272286 C36.6588961,22.3591333 36.1888312,22.4136095 35.7212338,22.3999905" id="Fill-856"></path>
                    <path d="M61.8389545,21.9493238 C61.8352532,20.9737048 61.8352532,19.9993238 61.8389545,19.0212286 L61.889539,18.7426571 L61.8068766,19.0385619 C61.8044091,20.4153238 61.8044091,21.7896095 61.8068766,23.1676095 L61.8586948,23.4548476 C61.8130455,22.9546571 61.8414221,22.4507524 61.8389545,21.9493238" id="Fill-858"></path>
                    <path d="M1.61993506,22.2058571 C1.6261039,23.0291905 1.62363636,23.8512857 1.61993506,24.674619 L1.59155844,24.9717619 L1.65201299,24.7204286 C1.65448052,23.387 1.65448052,22.0523333 1.65201299,20.7189048 L1.60019481,20.4898571 C1.64584416,21.0643333 1.61746753,21.6350952 1.61993506,22.2058571" id="Fill-860"></path>
                    <path d="M81.6379416,18.7400571 L81.6848247,18.9319619 C81.688526,20.2777714 81.688526,21.6272952 81.688526,22.975581 L81.6700195,23.0932 L81.7156688,22.923581 L81.7156688,18.946819 L81.6379416,18.7400571 Z" id="Fill-862"></path>
                    <path d="M77.5807013,19.0535429 C77.5844026,20.2990667 77.5844026,21.5483048 77.5844026,22.7938286 L77.6090779,23.1219238 C77.6090779,21.7414476 77.6127792,20.3597333 77.6127792,18.9792571 L77.5325844,18.7403048 L77.5807013,19.0535429 Z" id="Fill-864"></path>
                    <path d="M76.9232273,20.8922381 C76.9158247,20.2694762 76.919526,19.6454762 76.9232273,19.0227143 L76.9701104,18.7391905 L76.8911494,19.006619 C76.8886818,20.2632857 76.8886818,21.5174762 76.8911494,22.7741429 L76.9392662,23.0329048 C76.8973182,22.3172857 76.9293961,21.606619 76.9232273,20.8922381" id="Fill-866"></path>
                    <path d="M22.4398636,8.46411429 C22.4336948,9.46573333 22.4361623,10.4661143 22.4398636,11.4714476 L22.4682403,11.7661143 C22.4657727,10.4042095 22.4633052,9.04354286 22.4633052,7.68535238 L22.4398636,8.46411429 Z" id="Fill-868"></path>
                    <path d="M72.1526234,3.05660952 L72.1550909,3.12594286 C72.1526234,4.0248 72.1526234,4.92860952 72.1550909,5.83118095 L72.1489221,5.93889524 L72.1489221,5.99460952 L72.1847013,6.11965714 C72.1847013,4.95337143 72.1847013,3.78708571 72.181,2.62327619 L72.1526234,2.74337143 L72.1526234,3.05660952 Z" id="Fill-870"></path>
                    <path d="M22.4398636,3.28008571 C22.4336948,4.17646667 22.4361623,5.07284762 22.4361623,5.96922857 L22.4682403,6.26637143 C22.4657727,5.08770476 22.4657727,3.91399048 22.4657727,2.74151429 L22.4398636,3.28008571 Z" id="Fill-872"></path>
                    <path d="M92.671513,4.65424762 C92.671513,5.14453333 92.6270974,5.63853333 92.6998896,6.12881905 C92.6974221,4.95262857 92.6937208,3.7764381 92.6912532,2.60024762 C92.6369675,3.28615238 92.671513,3.97205714 92.671513,4.65424762" id="Fill-874"></path>
                    <path d="M34.9075649,1.20726667 L35.6836039,1.20726667 L35.8637338,1.29764762 L35.6663312,1.17879048 C34.7521104,1.1726 33.8366558,1.17507619 32.9212013,1.17507619 L32.6670455,1.23079048 C33.4097727,1.17879048 34.1599026,1.22088571 34.9075649,1.20726667" id="Fill-876"></path>
                    <path d="M94.7571948,1.20726667 L94.8904416,1.29269524 L94.6683636,1.18126667 C93.7751169,1.1726 92.8843377,1.17507619 91.9910909,1.17507619 L91.7344675,1.2246 C92.7424545,1.18374286 93.7492078,1.21717143 94.7571948,1.20726667" id="Fill-878"></path>
                    <path d="M74.3468766,1.20949524 L74.4147338,1.26273333 L74.1507078,1.17730476 C73.257461,1.17482857 72.3666818,1.17482857 71.4771364,1.17730476 L71.2229805,1.22559048 C72.2618117,1.18349524 73.3043442,1.21568571 74.3468766,1.20949524" id="Fill-880"></path>
                    <path d="M46.1463117,8.76682857 L46.1463117,8.84482857 C46.1401429,9.8006381 46.1722208,10.7576857 46.1302727,11.711019 C46.2376104,10.7069238 46.1611169,9.70035238 46.1697532,8.69873333 L46.0599481,8.6801619 L46.1463117,8.76682857 Z" id="Fill-882"></path>
                    <path d="M91.7217597,12.8286476 L91.6168896,12.8286476 L91.5083182,12.8286476 L91.435526,12.7840762 L91.6465,12.8608381 C92.480526,12.8633143 93.3207208,12.8633143 94.1584481,12.8633143 L94.3250065,12.8113143 C93.4564351,12.8509333 92.5890974,12.8286476 91.7217597,12.8286476" id="Fill-884"></path>
                    <path d="M32.4218961,12.8052476 L32.6155974,12.8622 L35.1263117,12.8622 L35.3163117,12.8089619 C34.3515065,12.8423905 33.3867013,12.849819 32.4218961,12.8052476" id="Fill-886"></path>
                    <path d="M44.9483247,5.08708571 C44.9421558,4.35908571 44.9446234,3.6360381 44.9421558,2.9080381 L44.9162468,2.61213333 C44.9162468,3.47013333 44.9137792,4.32441905 44.9162468,5.18241905 L45.0297532,5.37060952 L44.9483247,5.08708571 Z" id="Fill-888"></path>
                    <path d="M35.4326558,11.6249714 L36.0964221,11.6769714 L35.8040195,11.592781 C35.0835,11.5903048 34.3580455,11.5903048 33.6399935,11.5903048 C34.2346688,11.6621143 34.8342792,11.5964952 35.4326558,11.6249714" id="Fill-890"></path>
                    <path d="M40.1405844,7.54891429 L40.0135065,7.4152 C39.4126623,7.43377143 38.8142857,7.35453333 38.2171429,7.45977143 C38.7871429,7.42386667 39.3546753,7.45605714 39.9246753,7.4399619 L40.1146753,7.62691429 L40.09,8.01815238 L40.1405844,7.54891429 Z" id="Fill-892"></path>
                    <path d="M35.9072857,18.7695238 C36.3748831,18.7695238 36.8412468,18.7422857 37.3076104,18.785619 L37.145987,18.7348571 L35.1472857,18.7348571 L34.9572857,18.798 C35.2743636,18.7249524 35.588974,18.7695238 35.9072857,18.7695238" id="Fill-894"></path>
                    <path d="M46.1337273,4.56547619 C46.2385974,3.97985714 46.1571688,3.38557143 46.1781429,2.79871429 L46.130026,2.3257619 C46.1621039,3.07357143 46.1571688,3.82014286 46.1337273,4.56547619" id="Fill-896"></path>
                    <path d="M44.9456104,9.95180952 L44.9653506,9.5952381 L44.9135325,9.81809524 C44.9135325,10.3541905 44.916,10.8890476 44.916,11.426381 C44.9764545,10.9360952 44.9258701,10.4420952 44.9456104,9.95180952" id="Fill-898"></path>
                    <path d="M23.8957078,6.29670476 L24.1782403,6.37841905 L23.9882403,6.26451429 C23.4823961,6.2595619 22.9740844,6.2620381 22.4682403,6.26451429 C22.9407727,6.32889524 23.419474,6.27070476 23.8957078,6.29670476" id="Fill-900"></path>
                </g>
                <path d="M80.4985,12.5 L80.5015,12.5 L80.4985,12.5 Z" id="Fill-903" fill="#050305"></path>
                <g id="Group-922" transform="translate(80.000000, 6.000000)" fill="#050305">
                    <path d="M28.5195962,13.2919818 C28.9691434,13.3785273 29.4112189,13.3785273 29.8570302,13.2919818 C29.4112189,13.3238 28.9691434,13.3238 28.5195962,13.2919818" id="Fill-904"></path>
                    <path d="M33.6352189,13.1621636 C33.9565019,13.2907091 34.2865019,13.1901636 34.6140113,13.2207091 L34.8481245,13.1328909 C34.4471434,13.2461636 34.0399358,13.1888909 33.6352189,13.1621636" id="Fill-906"></path>
                    <path d="M37.6576075,13.1283091 C38.059834,13.3039455 38.4657962,13.2364909 38.8730038,13.1626727 C38.4657962,13.1843091 38.0623245,13.2530364 37.6576075,13.1283091" id="Fill-908"></path>
                    <path d="M44.9036604,13.1500727 C45.3083774,13.2684364 45.7118491,13.2684364 46.116566,13.1500727 C45.7118491,13.2137091 45.3083774,13.2162545 44.9036604,13.1500727" id="Fill-910"></path>
                    <path d="M0.372464151,2.69869091 C0.760992453,2.67832727 1.15574717,2.76487273 1.53929434,2.65287273 C1.15201132,2.71141818 0.760992453,2.62614545 0.372464151,2.69869091" id="Fill-912"></path>
                    <path d="M21.7624415,13.2946545 C22.147234,13.3786545 22.5282906,13.3837455 22.913083,13.2946545 C22.5282906,13.3264727 22.147234,13.3239273 21.7624415,13.2946545" id="Fill-914"></path>
                    <path d="M63.8408038,13.2959273 C64.2056717,13.3748364 64.5730302,13.3786545 64.9341623,13.2959273 C64.5730302,13.3239273 64.2056717,13.3239273 63.8408038,13.2959273" id="Fill-916"></path>
                    <path d="M29.7352415,1.13501818 C29.3716189,1.05483636 29.0067509,1.05483636 28.641883,1.13501818 C29.0067509,1.10701818 29.3716189,1.10192727 29.7352415,1.13501818" id="Fill-918"></path>
                    <path d="M64.8750113,1.13501818 C64.5512377,1.05483636 64.2274642,1.05483636 63.9024453,1.13501818 C64.2274642,1.10192727 64.5512377,1.10192727 64.8750113,1.13501818" id="Fill-920"></path>
                </g>
                <path d="M105.5305,30.523 L105.4695,30.477 L105.5305,30.523 Z" id="Fill-923" fill="#050305"></path>
                <path d="M105.5185,30.5075 L105.4815,30.4925 L105.5185,30.5075 Z" id="Fill-924" fill="#050305"></path>
                <polygon id="Fill-925" fill="#050305" points="105.6805 30.527 105.2945 30.56 105.7055 30.544 105.6835 30.44"></polygon>
                <path d="M102.865,7.523625 C102.621,7.460625 102.378,7.460625 102.135,7.523625 C102.378,7.501625 102.621,7.501625 102.865,7.523625" id="Fill-926" fill="#050305"></path>
                <path d="M126.841,7.5105 L126.159,7.4895 L126.841,7.5105 Z" id="Fill-928" fill="#050305"></path>
                <path d="M118.8415,7.506 L118.1585,7.494 L118.8415,7.506 Z" id="Fill-929" fill="#050305"></path>
                <path d="M114.157,7.5065 L114.843,7.4935 L114.157,7.5065 Z" id="Fill-930" fill="#050305"></path>
                <polygon id="Fill-931" fill="#050305" points="100.22 30.5325 100.78 30.4925 100.236 30.4675"></polygon>
                <polygon id="Fill-932" fill="#050305" points="81.2715 13.501 81.1765 13.52 81.8235 13.48"></polygon>
                <path d="M103.7905,24.5335 L103.2095,24.4665 L103.7905,24.5335 Z" id="Fill-933" fill="#050305"></path>
                <polygon id="Fill-934" fill="#050305" points="97.222 30.514 97.739 30.544 97.778 30.456"></polygon>
                <path d="M45.5,27.817 L45.5,27.183 L45.5,27.817 Z" id="Fill-935" fill="#050305"></path>
                <path d="M134.498,27.817 L134.502,27.183 L134.498,27.817 Z" id="Fill-936" fill="#050305"></path>
                <path d="M131.2065,24.5 L131.7935,24.5 L131.2065,24.5 Z" id="Fill-937" fill="#050305"></path>
                <path d="M59.256,30.5 L59.744,30.5 L59.256,30.5 Z" id="Fill-938" fill="#050305"></path>
                <path d="M126.501,26.743 L126.499,26.257 L126.501,26.743 Z" id="Fill-939" fill="#050305"></path>
                <path d="M63.2565,30.5065 L63.7435,30.4935 L63.2565,30.5065 Z" id="Fill-940" fill="#050305"></path>
                <path d="M45.4985,27.762 L45.5015,27.238 L45.4985,27.762 Z" id="Fill-941" fill="#050305"></path>
                <path d="M96.505,13.7435 L96.495,13.2565 L96.505,13.7435 Z" id="Fill-942" fill="#050305"></path>
                <path d="M124.2825,16.5105 L124.7175,16.4895 L124.2825,16.5105 Z" id="Fill-943" fill="#050305"></path>
                <path d="M57.5,27.7185 L57.5,27.2815 L57.5,27.7185 Z" id="Fill-944" fill="#050305"></path>
                <path d="M116.2815,16.507 L116.7185,16.493 L116.2815,16.507 Z" id="Fill-945" fill="#050305"></path>
                <path d="M51.5,27.7185 L51.5,27.2815 L51.5,27.7185 Z" id="Fill-946" fill="#050305"></path>
                <path d="M116.4745,25.575 L116.5255,25.425 L116.4745,25.575 Z" id="Fill-947" fill="#050305"></path>
                <path d="M97.5,26.695 L97.5,26.305 L97.5,26.695 Z" id="Fill-948" fill="#050305"></path>
                <path d="M120.4705,29.554 L120.5295,29.446 L120.4705,29.554 Z" id="Fill-949" fill="#050305"></path>
                <path d="M142.495,25.6085 L142.505,25.3915 L142.495,25.6085 Z" id="Fill-950" fill="#050305"></path>
                <path d="M59.473,25.5505 L59.527,25.4495 L59.473,25.5505 Z" id="Fill-951" fill="#050305"></path>
                <path d="M48.312,25.5 L48.688,25.5 L48.312,25.5 Z" id="Fill-952" fill="#050305"></path>
                <path d="M92.482,28.6585 L92.518,28.3415 L92.482,28.6585 Z" id="Fill-953" fill="#050305"></path>
                <polygon id="Fill-954" fill="#050305" points="92.495 27.4635 92.518 27.6585 92.482 27.3415"></polygon>
                <path d="M109.355,27.5 L109.645,27.5 L109.355,27.5 Z" id="Fill-955" fill="#050305"></path>
                <path d="M102.368,8.5 L102.632,8.5 L102.368,8.5 Z" id="Fill-956" fill="#050305"></path>
                <path d="M151.6315,24.5185 L151.3685,24.4815 L151.6315,24.5185 Z" id="Fill-957" fill="#050305"></path>
                <path d="M38.9800407,19.9688253 L39,19.8865822 L39,18.0971719 L38.9800407,18.016175 L38.9488543,17.4678877 L38.9376272,17.23985 L38.8927188,16.8610334 L38.8802442,16.6865783 L38.8328409,16.3738054 C38.7130852,15.7819043 38.6045565,15.1900033 38.4723262,14.6055789 C38.0731403,12.8236453 37.3832972,11.1563535 36.4863765,9.57130483 C35.6480861,8.08594476 34.6139452,6.74513315 33.4089029,5.54263947 C32.4246602,4.5594607 31.3468584,3.69216992 30.171755,2.9519821 C28.5301031,1.92518957 26.7824174,1.13889578 24.9025015,0.639206691 C24.2812685,0.473474402 23.6463134,0.377524129 23.0188431,0.216776269 L22.7069792,0.165685864 L22.5922132,0.155717004 L22.2728646,0.105872707 L22.2691222,0.105872707 L22.0408378,0.0909194172 L21.6628586,0.042321227 C20.3043792,-0.0224763599 18.9471473,-0.031199112 17.5899153,0.149486467 C13.3011621,0.710234816 9.6086928,2.5158445 6.56240562,5.56631551 C3.27286455,8.86725413 1.45033156,12.878474 1.05239315,17.5214703 L1.05239315,17.9451468 L1.05863042,18.3800383 L1.05863042,19.6012236 L1.05239315,20.0336229 L1,20.452315 L1,20.6367389 L1.0648677,20.8597921 L1.11476594,21.2423471 C1.18587092,21.9900116 1.32808089,22.7264611 1.49773488,23.4541878 C1.7684328,24.61556 2.15015429,25.7395489 2.64913663,26.8149396 C3.13065459,27.8616699 3.68951481,28.8622941 4.35191386,29.8130741 C4.97813669,30.716502 5.67546451,31.5563784 6.42768039,32.3501489 C6.92541527,32.8697757 7.48427549,33.325851 8.0406408,33.7869107 C8.91884971,34.5158836 9.85319414,35.1489062 10.8524063,35.6909629 C11.9127437,36.2728951 13.0142473,36.7626153 14.1756287,37.1165098 C15.1960475,37.4305289 16.2251986,37.7071648 17.2892784,37.825545 L17.613617,37.872897 L17.8394065,37.8903425 L18.1600026,37.9352024 L18.3895345,37.9476635 L18.9321778,37.9788162 L19.012015,38 L20.9904799,38 L21.0715646,37.9788162 L21.6179502,37.9476635 L21.7876042,37.9376946 L22.1668308,37.8903425 L22.3402272,37.8766354 L22.7132165,37.8218066 L22.925284,37.8155761 C23.7810387,37.6274139 24.6455256,37.4579433 25.4863108,37.2049835 C27.0381459,36.7376932 28.5138862,36.0847329 29.8860876,35.2323954 C32.035454,33.8978143 33.8829361,32.2180615 35.3711509,30.1532614 C36.7882608,28.1831656 37.8099271,26.031138 38.4049636,23.675995 C38.5721226,23.0118197 38.6719191,22.3339372 38.8253562,21.6685159 L38.8777493,21.345774 L38.8927188,21.1202286 L38.9376272,20.7451503 L38.9513492,20.5133743 L38.9800407,19.9688253 Z M19.6968682,37.3794385 C9.56378439,37.2249212 1.45656884,28.8598019 1.62372792,18.7040263 C1.78963955,8.62301707 9.97170245,0.618022865 20.0386711,0.608054005 C30.3389141,0.695281526 38.2190926,8.90588346 38.3725297,18.6678892 C38.5396888,29.2236653 29.9783993,37.5401864 19.6968682,37.3794385 L19.6968682,37.3794385 Z" id="Fill-958" fill="#69AB80"></path>
                <polygon id="Fill-960" fill="#69AB80" points="0.4875 19.0115 0.4875 19.9905 0.5125 19.9905 0.5125 19.9705 0.5125 19.0285 0.5125 19.0095"></polygon>
                <polygon id="Fill-961" fill="#69AB80" points="0.4785 17.3295 0.4785 17.6735 0.5035 17.6705 0.5215 17.3265"></polygon>
                <polygon id="Fill-962" fill="#69AB80" points="0.4875 18.6715 0.5125 18.6555 0.5125 18.3415 0.4875 18.3285"></polygon>
                <polygon id="Fill-963" fill="#69AB80" points="0.4885 18.507 0.5115 18.507 0.4885 18.493"></polygon>
                <polygon id="Fill-964" fill="#69AB80" points="0.4905 18.494 0.4905 18.502 0.4905 18.509 0.5095 18.491"></polygon>
                <polygon id="Fill-965" fill="#69AB80" points="0.4875 19.6685 0.5125 19.6715 0.5125 19.6505 0.5125 19.3405 0.4875 19.3285"></polygon>
                <polygon id="Fill-966" fill="#69AB80" points="0.4885 19.4935 0.4885 19.5065 0.5115 19.4935"></polygon>
                <polygon id="Fill-967" fill="#69AB80" points="0.4875 20.67 0.5125 20.342 0.4875 20.33"></polygon>
                <polygon id="Fill-968" fill="#69AB80" points="0.4905 20.505 0.5095 20.497 0.4905 20.495"></polygon>
                <polygon id="Fill-969" fill="#69AB80" points="18.7495 37.5205 18.6845 37.5015 18.2505 37.4795"></polygon>
                <polygon id="Fill-970" fill="#69AB80" points="20.3115 37.5045 20.2505 37.5205 20.7495 37.4795"></polygon>
                <polygon id="Fill-971" fill="#69AB80" points="38.505 17.691 38.52 17.751 38.48 17.249"></polygon>
                <polygon id="Fill-972" fill="#69AB80" points="38.5035 20.312 38.4805 20.751 38.5195 20.249"></polygon>
                <path d="M22.3505,37.522 L22.6495,37.478 L22.3505,37.522 Z" id="Fill-973" fill="#69AB80"></path>
                <path d="M21.3495,37.519 L21.6505,37.481 L21.3495,37.519 Z" id="Fill-974" fill="#69AB80"></path>
                <path d="M21.652,0.519 L21.348,0.481 L21.652,0.519 Z" id="Fill-975" fill="#69AB80"></path>
                <path d="M38.5195,17.6515 L38.4805,17.3485 L38.5195,17.6515 Z" id="Fill-976" fill="#69AB80"></path>
                <path d="M38.4805,20.6505 L38.5195,20.3495 L38.4805,20.6505 Z" id="Fill-977" fill="#69AB80"></path>
                <path d="M0.5205,21.653 L0.4795,21.347 L0.5205,21.653 Z" id="Fill-978" fill="#69AB80"></path>
                <path d="M38.5195,16.6265 L38.4805,16.3735 L38.5195,16.6265 Z" id="Fill-979" fill="#69AB80"></path>
                <path d="M22.626,0.522 L22.374,0.478 L22.626,0.522 Z" id="Fill-980" fill="#69AB80"></path>
                <path d="M17.63,37.5205 L17.37,37.4795 L17.63,37.5205 Z" id="Fill-981" fill="#69AB80"></path>
                <path d="M17.631,37.5175 L17.369,37.4825 L17.631,37.5175 Z" id="Fill-982" fill="#69AB80"></path>
                <path d="M38.4795,21.63 L38.5205,21.37 L38.4795,21.63 Z" id="Fill-983" fill="#69AB80"></path>
                <polygon id="Fill-984" fill="#69AB80" points="22.37 0.48 22.63 0.52 22.374 0.48"></polygon>
                <g id="Group-989" transform="translate(15.000000, 6.000000)" fill="#69AB80">
                    <path d="M9.07047273,24.2682762 C8.74592727,21.7772286 8.41756364,19.2911333 8.09683636,16.8025619 C7.79901818,14.4997048 7.50629091,12.1993238 7.21101818,9.90018095 C6.88392727,7.36951429 6.55429091,4.8425619 6.22083636,2.31189524 C6.15210909,1.79560952 6.12283636,1.27437143 5.92556364,0.772942857 C5.77792727,0.392847619 5.50683636,0.210847619 5.10210909,0.198466667 C4.7432,0.188561905 4.37538182,0.208371429 4.01392727,0.181133333 L3.68683636,0.469609524 C3.52265455,1.79932381 3.35210909,3.1278 3.17774545,4.45999048 C2.93847273,6.2985619 2.70047273,8.13713333 2.45738182,9.97694286 C2.22447273,11.7845619 1.98901818,13.5946571 1.75483636,15.4059905 C1.51174545,17.2544667 1.27629091,19.1029429 1.03701818,20.951419 C0.844836364,22.4408476 0.650109091,23.9339905 0.446472727,25.4197048 L0.695927273,25.7007524 C1.30938182,25.6846571 1.92283636,25.6735143 2.53374545,25.7044667 C2.83410909,25.7193238 2.89647273,25.5918 2.9232,25.3528476 C2.99829091,24.6186571 3.08738182,23.889419 3.16501818,23.1577048 C3.44501818,20.6319905 3.71865455,18.1087524 4.0012,15.5830381 C4.27356364,13.1699905 4.54974545,10.7557048 4.83356364,8.2485619 L4.90356364,8.52589524 C4.9952,9.35913333 5.08047273,10.1911333 5.17210909,11.0231333 C5.34265455,12.6277048 5.5132,14.2310381 5.69392727,15.8318952 C5.92938182,17.9960857 6.17501818,20.1602762 6.41810909,22.3257048 C6.53901818,23.3756095 6.65865455,24.4279905 6.76810909,25.4803714 L7.01374545,25.6970381 C7.67938182,25.6908476 8.34247273,25.6871333 9.00429091,25.6970381 L9.21683636,25.4667524 C9.16083636,25.0680857 9.12265455,24.6669429 9.07047273,24.2682762" id="Fill-985"></path>
                    <path d="M12.4225818,23.0170571 C11.8714909,23.0207714 11.3229455,23.0207714 10.7769455,23.014581 L10.5376727,23.2312476 C10.5465818,23.8441048 10.5313091,24.4594381 10.5427636,25.0710571 C10.5504,25.4486762 10.8393091,25.7346762 11.2389455,25.745819 C11.7009455,25.7606762 12.1667636,25.7421048 12.6313091,25.7520095 L12.8285818,25.5316286 C12.8260364,25.1762952 12.8285818,24.8259143 12.8285818,24.4742952 C12.8285818,24.1214381 12.8196727,23.769819 12.8324,23.4169619 L12.4225818,23.0170571 Z" id="Fill-987"></path>
                </g>
            </g>
        </g>
    </g>
</svg>