<?xml version="1.0" encoding="UTF-8"?>
<svg width="118px" height="26px" viewBox="0 0 118 26" version="1.1" xmlns="http://www.w3.org/2000/svg" xmlns:xlink="http://www.w3.org/1999/xlink">
    <!-- Generator: sketchtool 60.1 (101010) - https://sketch.com -->
    <title>2E166FC1-1E6B-44BF-BDB7-AFEE3A579FE2</title>
    <desc>Created with sketchtool.</desc>
    <g id="Page-1" stroke="none" stroke-width="1" fill="none" fill-rule="evenodd">
        <g id="LP-DE-PATROCÃNIO" transform="translate(-1251.000000, -2840.000000)">
            <g id="Group-20" transform="translate(1251.000000, 2840.000000)">
                <path d="M2.96153088,16.3664346 C2.60934883,16.7933488 2.18451384,17 1.67471185,17 C1.21416609,17 0.81272781,16.8416087 0.48640528,16.5124517 C0.158851345,16.1832947 0,15.7935035 0,15.317092 C0,14.8901779 0.120677766,14.5610209 0.352182051,14.3048724 L8.83533642,2.82892498 C9.2367747,2.29187935 9.75765934,1.85382831 10.4004532,1.51229698 C11.055561,1.17076566 11.7476111,1 12.5,1 C13.2043641,1 13.8607034,1.14601701 14.4899517,1.4516628 C15.1216629,1.75607115 15.6314649,2.17061098 16.0316718,2.72003094 L24.5148261,14.1217324 C24.660132,14.2801237 24.7697271,14.4645012 24.8670082,14.6711524 C24.9642892,14.8666667 25,15.0856922 25,15.317092 C25,15.7811292 24.8436115,16.1832947 24.5148261,16.5124517 C24.1872722,16.8416087 23.7993794,17 23.3252881,17 C22.7674613,17 22.3303123,16.7809745 22.0027583,16.3293117 L13.871786,5.41515855 C13.7141661,5.23201856 13.5072899,5.02412993 13.264703,4.80510441 C13.022116,4.58484145 12.7672151,4.47594741 12.5123141,4.47594741 C12.2586445,4.47594741 12.0025121,4.58484145 11.7599251,4.80510441 C11.5173382,5.02412993 11.3227761,5.23201856 11.1897843,5.41515855 L2.96153088,16.3664346 Z" id="Fill-63" fill="#232424"></path>
                <path d="M51.2216508,1 C51.7166811,1 52.1352636,1.17154844 52.4811582,1.51464533 C52.8270527,1.85774221 53,2.27418227 53,2.7639655 C53,3.25374874 52.8270527,3.6701888 52.4811582,4.01328568 C52.1352636,4.35638257 51.7166811,4.52793101 51.2216508,4.52793101 L40.2783492,4.52793101 L40.2783492,15.2360345 C40.2783492,15.7258177 40.1054019,16.1422578 39.7595073,16.4853547 C39.4136128,16.8284516 38.993777,17 38.5,17 C38.0049697,17 37.5863872,16.8284516 37.2404927,16.4853547 C36.8945981,16.1422578 36.7216508,15.7258177 36.7216508,15.2360345 L36.7216508,4.51549996 L25.6304667,4.51549996 C25.1855661,4.46701888 24.8033276,4.28303939 24.4812446,3.95237355 C24.1591616,3.62170772 24,3.22888664 24,2.7639655 C24,2.27418227 24.1729473,1.85774221 24.5175886,1.51464533 C24.8647364,1.17154844 25.2845722,1 25.7770959,1 L51.2216508,1 Z" id="Fill-65" fill="#232424"></path>
                <path d="M59,15.2427245 C59,15.7306502 58.8041564,16.1467492 58.4152871,16.4885449 C58.0278267,16.8291022 57.5558295,17 56.9992955,17 C56.4455794,17 55.9721733,16.8291022 55.583304,16.4885449 C55.1944347,16.1467492 55,15.7306502 55,15.2427245 L55,2.75727554 C55,2.26934985 55.1944347,1.85448916 55.583304,1.5126935 C55.9721733,1.17089783 56.4455794,1 56.9992955,1 C57.5558295,1 58.0278267,1.17089783 58.4152871,1.5126935 C58.8041564,1.85448916 59,2.26934985 59,2.75727554 L59,15.2427245 Z" id="Fill-67" fill="#232424"></path>
                <path d="M84.0384691,1.63307573 C84.3906512,1.2064915 84.8154862,1 85.3252881,1 C85.7858339,1 86.1860408,1.15703246 86.5148261,1.48717156 C86.8411487,1.81607419 87,2.20556414 87,2.68037094 C87,3.10819165 86.8780908,3.43709428 86.6478179,3.69304482 L86.6108758,3.72890263 L78.1769776,15.1712519 C77.7521426,15.7078825 77.2300266,16.1468315 76.5872328,16.4880989 C75.944439,16.8293663 75.2523889,17 74.5123141,17 C73.80795,17 73.1528421,16.8540958 72.533445,16.5486862 C71.9140479,16.2445131 71.3919318,15.8290572 70.9806423,15.2812983 L62.4974879,3.88717156 C62.3509506,3.72890263 62.2425869,3.54590417 62.1453059,3.33941267 C62.0492562,3.14404946 62,2.9251932 62,2.69397218 C62,2.23029366 62.1563885,1.82843895 62.4851739,1.49953632 C62.8139592,1.17063369 63.2006206,1.01236476 63.6747119,1.01236476 C64.2325387,1.01236476 64.6696877,1.23122102 64.9972417,1.68253478 L73.1294454,12.5882535 C73.2870653,12.7712519 73.4927101,12.9789799 73.735297,13.1978362 C73.977884,13.4166924 74.2315535,13.5267388 74.4876859,13.5267388 C74.7425869,13.5267388 74.9962565,13.4166924 75.2400749,13.1978362 C75.4826618,12.9789799 75.6759925,12.7712519 75.8102157,12.5882535 L84.0384691,1.63307573 Z" id="Fill-69" fill="#232424"></path>
                <path d="M104.036832,6.29648562 C104.944138,6.29648562 105.743401,6.25942492 106.445672,6.17124601 C107.146716,6.08306709 107.884592,5.85559105 108.671578,5.4658147 C109.458564,5.07476038 110.364641,4.49584665 111.370166,3.72779553 C112.374463,2.95846645 113.631676,1.87603834 115.145488,0.503514377 C115.543278,0.163578275 115.931246,0 116.330264,0 C116.790669,0 117.189687,0.163578275 117.516268,0.503514377 C117.842848,0.843450479 118,1.24600639 118,1.73801917 C118,2.00127796 117.93984,2.2543131 117.806016,2.49329073 C117.673419,2.73226837 117.516268,2.9341853 117.334561,3.11054313 C115.871087,4.45750799 114.563536,5.57827476 113.414365,6.4600639 C112.265193,7.34185304 111.174954,8.04728435 110.159607,8.56357827 C109.143033,9.0798722 108.138735,9.44536741 107.171271,9.6715655 C106.190301,9.88626198 105.149171,10 104.036832,10 C102.850829,10 101.774095,9.89904153 100.782075,9.6971246 C99.7900552,9.49648562 98.7968079,9.11821086 97.806016,8.58913738 C96.8127686,8.0600639 95.7360344,7.35463259 94.5991406,6.47284345 C93.461019,5.59105431 92.1546961,4.47028754 90.6654389,3.12332268 C90.4849601,2.95846645 90.3278085,2.74504792 90.1952118,2.50607029 C90.0613874,2.2658147 90,2.01405751 90,1.74952077 C90,1.2715655 90.1583794,0.856230032 90.4849601,0.51629393 C90.8115408,0.175079872 91.1982812,0.0115015974 91.6709638,0.0115015974 C91.9005525,0.0115015974 92.1055862,0.0626198083 92.2995703,0.163578275 C92.4812769,0.263258786 92.6740331,0.376996805 92.8569675,0.527795527 C94.3437692,1.87603834 95.5911602,2.9456869 96.5942296,3.71501597 C97.5997545,4.48306709 98.5070595,5.06198083 99.3050952,5.45303514 C100.104359,5.84408946 100.866789,6.08306709 101.58011,6.1827476 C102.319214,6.24536741 103.129527,6.29648562 104.036832,6.29648562" id="Fill-71" fill="#232424"></path>
                <path d="M102,15 C102,14.4410431 102.19053,13.9716553 102.580663,13.5804989 C102.971931,13.1893424 103.441452,13 104.000567,13 C104.558548,13 105.028069,13.1893424 105.420471,13.5804989 C105.810604,13.9716553 106,14.4410431 106,15 C106,15.5589569 105.810604,16.0283447 105.420471,16.4195011 C105.028069,16.8095238 104.558548,17 104.000567,17 C103.441452,17 102.971931,16.8095238 102.580663,16.4195011 C102.201871,16.0283447 102,15.5589569 102,15" id="Fill-73" fill="#D11229"></path>
                <text id="Cloud-Pe" font-family="MyriadPro-Regular, Myriad Pro" font-size="6.0477" font-weight="normal" fill="#020203">
                    <tspan x="13" y="25">Cloud Pe</tspan>
                </text>
                <text id="rf" font-family="MyriadPro-Regular, Myriad Pro" font-size="6.0477" font-weight="normal" fill="#020203">
                    <tspan x="41" y="25">rf</tspan>
                </text>
                <text id="ormance-Solutions-" font-family="MyriadPro-Regular, Myriad Pro" font-size="6.0477" font-weight="normal" fill="#020203">
                    <tspan x="46" y="25">ormance Solutions </tspan>
                </text>
            </g>
        </g>
    </g>
</svg>