<?xml version="1.0" encoding="UTF-8"?>
<svg width="68px" height="40px" viewBox="0 0 68 40" version="1.1" xmlns="http://www.w3.org/2000/svg" xmlns:xlink="http://www.w3.org/1999/xlink">
    <!-- Generator: sketchtool 60.1 (101010) - https://sketch.com -->
    <title>66868A8C-8EF8-42AA-A557-EAB1DFCF784F</title>
    <desc>Created with sketchtool.</desc>
    <g id="Page-1" stroke="none" stroke-width="1" fill="none" fill-rule="evenodd">
        <g id="LP-DE-PATROCÃNIO" transform="translate(-1275.000000, -3339.000000)">
            <g id="Group-17" transform="translate(1275.000000, 3339.000000)">
                <path d="M19.2519212,14.5884301 C19.2519212,15.4141065 19.3427474,16.0858935 19.5005764,16.5771561 C19.6792507,17.0684188 19.9025937,17.6040727 20.2182517,18.1855975 C20.3314121,18.3646421 20.3760807,18.5422069 20.3760807,18.6990558 C20.3760807,18.9224915 20.2420749,19.1459273 19.9502402,19.369363 L18.532757,20.3074972 C18.3317483,20.4421505 18.1277618,20.5087373 17.9490874,20.5087373 C17.7242555,20.5087373 17.4979347,20.3977593 17.2745917,20.1965192 C16.9589337,19.8606257 16.6894332,19.5025366 16.4646013,19.1459273 C16.2397695,18.7656426 16.0149376,18.3424464 15.7677714,17.8275085 C14.0137848,19.8828213 11.8116234,20.9097379 9.15830932,20.9097379 C7.270317,20.9097379 5.76498559,20.374084 4.66316042,19.3027762 C3.56133525,18.2299887 3,16.8005919 3,15.013106 C3,13.1131623 3.67300672,11.5727875 5.04582133,10.4112176 C6.41714697,9.24964769 8.23813641,8.66812289 10.5519693,8.66812289 C11.3172911,8.66812289 12.1034582,8.7347097 12.9357829,8.84716742 C13.7666186,8.95962514 14.6212776,9.13718997 15.5206052,9.3384301 L15.5206052,7.70779312 C15.5206052,6.00908963 15.1602786,4.82532413 14.4649376,4.13282131 C13.7457733,3.44031849 12.5307877,3.10590474 10.7991354,3.10590474 C10.0129683,3.10590474 9.20446686,3.19468715 8.37065322,3.39592728 C7.53981748,3.59716742 6.73131604,3.84279876 5.94365994,4.15501691 C5.58333333,4.31186584 5.31532181,4.40064825 5.1574928,4.44651917 C4.99966378,4.49091037 4.88799232,4.51310598 4.79716619,4.51310598 C4.48299712,4.51310598 4.32665706,4.28967024 4.32665706,3.82060316 L4.32665706,2.72562007 C4.32665706,2.36901071 4.37132565,2.09970406 4.48299712,1.94433484 C4.59615754,1.78748591 4.79716619,1.63063698 5.11282421,1.47378805 C5.89899135,1.07278749 6.84298751,0.738373732 7.94481268,0.46906708 C9.04663785,0.179044532 10.2154659,0.0443912063 11.4527858,0.0443912063 C14.1269452,0.0443912063 16.0819404,0.648111612 17.3415946,1.85407272 C18.5774256,3.06003382 19.2087416,4.89339064 19.2087416,7.34970406 L19.2087416,14.5884301 L19.2519212,14.5884301 Z M10.1246398,17.9843574 C10.8676273,17.9843574 11.6314601,17.8497041 12.4414505,17.5818771 C13.249952,17.3140502 13.9691162,16.8227875 14.5751201,16.1524803 C14.9369356,15.7278044 15.2049472,15.2587373 15.3404419,14.7230834 C15.4759366,14.1859498 15.5652738,13.5378382 15.5652738,12.7787486 L15.5652738,11.8406144 C14.9131124,11.6837655 14.2162824,11.5505919 13.4971182,11.4603298 C12.7779539,11.3715474 12.0811239,11.3271561 11.3842939,11.3271561 C9.87747358,11.3271561 8.77713737,11.6171787 8.03563881,12.2208991 C7.29414025,12.8231398 6.93381364,13.6724915 6.93381364,14.7896702 C6.93381364,15.8402621 7.20331412,16.6215474 7.76464938,17.1572012 C8.30365034,17.7165304 9.09130644,17.9843574 10.1246398,17.9843574 L10.1246398,17.9843574 Z M28.1767051,20.3977593 C27.7717099,20.3977593 27.5022094,20.3296928 27.3235351,20.1728439 C27.1433718,20.0396702 26.9840538,19.7259724 26.851537,19.3027762 L21.567243,2.03311725 C21.4332373,1.58624577 21.3647454,1.29622322 21.3647454,1.1393743 C21.3647454,0.782764938 21.5449087,0.581524803 21.9052354,0.581524803 L24.1088857,0.581524803 C24.5362152,0.581524803 24.82805,0.648111612 24.985879,0.804960541 C25.1645533,0.93813416 25.300048,1.25183202 25.4340538,1.67502818 L29.2100384,16.4646984 L32.7180115,1.67502818 C32.829683,1.22963641 32.9651777,0.93813416 33.145341,0.804960541 C33.3240154,0.670307215 33.6381844,0.581524803 34.0446686,0.581524803 L35.8433237,0.581524803 C36.2691643,0.581524803 36.560999,0.648111612 36.7411623,0.804960541 C36.9213256,0.93813416 37.0791547,1.25183202 37.1684918,1.67502818 L40.7196446,16.643743 L44.6087896,1.67502818 C44.7442843,1.22963641 44.9021134,0.93813416 45.0599424,0.804960541 C45.2386167,0.670307215 45.5304515,0.581524803 45.9354467,0.581524803 L48.0259366,0.581524803 C48.3847743,0.581524803 48.5872719,0.760569335 48.5872719,1.1393743 C48.5872719,1.25183202 48.5649376,1.36281003 48.5440922,1.49746336 C48.520269,1.63063698 48.4756004,1.80968151 48.3847743,2.05531285 L42.9679635,19.3249718 C42.8324688,19.7718433 42.6746398,20.0618658 42.4959654,20.1965192 C42.3158021,20.3296928 42.0239673,20.4184752 41.6427954,20.4184752 L39.7086455,20.4184752 C39.281316,20.4184752 38.9894813,20.3518884 38.809318,20.1965192 C38.6306436,20.0396702 38.4728146,19.748168 38.3834774,19.3027762 L34.8993276,4.89339064 L31.4360231,19.2791009 C31.3228626,19.7259724 31.1903458,20.0174746 31.0086936,20.1728439 C30.8285303,20.3296928 30.5143612,20.3977593 30.109366,20.3977593 L28.1767051,20.3977593 Z M57.0638809,21 C55.8935639,21 54.7247358,20.8653467 53.6005764,20.5975197 C52.4764169,20.3296928 51.6009126,20.0396702 51.0157541,19.7037768 C50.6569164,19.5025366 50.4097502,19.2791009 50.3189241,19.0778608 C50.2295869,18.8766206 50.1849183,18.6546646 50.1849183,18.4534245 L50.1849183,17.3140502 C50.1849183,16.8449831 50.3650817,16.6215474 50.701585,16.6215474 C50.8370797,16.6215474 50.9710855,16.643743 51.1065802,16.6881342 C51.240586,16.7325254 51.4430836,16.8227875 51.6679155,16.9115699 C52.4317483,17.2459837 53.264073,17.5152903 54.1410663,17.6943348 C55.0389049,17.8718997 55.9158982,17.9621618 56.8167147,17.9621618 C58.2327089,17.9621618 59.3330451,17.7165304 60.098367,17.223788 C60.8607109,16.7325254 61.267195,16.0178269 61.267195,15.1018884 C61.267195,14.4774521 61.0646974,13.9625141 60.6597022,13.5378382 C60.256196,13.1131623 59.4893852,12.7343574 58.389049,12.3762683 L55.13122,11.3715474 C53.4889049,10.8580891 52.2754083,10.0975197 51.5339097,9.09279876 C50.7909222,8.11027339 50.4097502,7.0152903 50.4097502,5.85372041 C50.4097502,4.91558625 50.6122478,4.0884301 51.0157541,3.37373168 C51.4207493,2.65903326 51.9597502,2.03311725 52.6342459,1.54185457 C53.3087416,1.02839628 54.0725744,0.648111612 54.971902,0.380284667 C55.8727185,0.112457723 56.8167147,0 57.8053794,0 C58.2997118,0 58.8163785,0.0221956032 59.3107109,0.0902621195 C59.8288665,0.156848929 60.2993756,0.245631342 60.7728626,0.335893461 C61.2210375,0.446871477 61.6498559,0.5593292 62.0533622,0.692502818 C62.4598463,0.827156144 62.7725264,0.96180947 62.9973583,1.09498309 C63.3130163,1.27402762 63.5378482,1.45307215 63.671854,1.65283258 C63.8073487,1.83187711 63.8743516,2.07750846 63.8743516,2.39120631 L63.8743516,3.44031849 C63.8743516,3.90938557 63.6956772,4.15501691 63.356196,4.15501691 C63.1775216,4.15501691 62.8856868,4.0662345 62.5030259,3.88718997 C61.2210375,3.30566516 59.7827089,3.01564262 58.1865514,3.01564262 C56.9060519,3.01564262 55.8935639,3.21688275 55.1982229,3.64155862 C54.5013929,4.0662345 54.1410663,4.71434611 54.1410663,5.63028467 C54.1410663,6.25620068 54.3644092,6.79185457 54.815562,7.21653044 C55.2652257,7.64120631 56.0960615,8.06440248 57.2872238,8.44468715 L60.4795389,9.44940812 C62.0980307,9.96434611 63.2683477,10.6790445 63.9636888,11.5949831 C64.6605187,12.5109216 65,13.5600338 65,14.7230834 C65,15.6834132 64.7960134,16.5549605 64.4133525,17.3140502 C64.0098463,18.0731398 63.4693564,18.743447 62.7725264,19.2791009 C62.0771854,19.8384301 61.2433718,20.2409104 60.2785303,20.5309329 C59.2660423,20.8431511 58.2103746,21 57.0638809,21 L57.0638809,21 Z" id="Fill-110" fill="#252F3F"></path>
                <path d="M61.4776186,31.7589863 C54.0371771,37.1414718 43.226292,40 33.9298596,40 C20.9034696,40 9.16683598,35.280787 0.301820335,27.4389108 C-0.400729908,26.8181934 0.234411463,25.9758961 1.07028147,26.4645459 C10.658819,31.9130651 22.488327,35.2147533 34.7222883,35.2147533 C42.9776282,35.2147533 52.0463684,33.531626 60.3915867,30.0758591 C61.6349059,29.5211755 62.6984681,30.8726665 61.4776186,31.7589863 M64.5754307,28.3032194 C63.6272126,27.1058071 58.2884299,27.7265245 55.8692004,28.0141382 C55.1441805,28.1036507 55.0318324,27.4829333 55.6879454,27.0177621 C59.9391983,24.0932001 66.9287493,24.9354975 67.7421497,25.9098623 C68.5570481,26.9062384 67.5159555,33.753206 63.5343381,37.0314155 C62.9261603,37.5406092 62.3374562,37.2750067 62.6085896,36.6102668 C63.5133665,34.4179459 65.5251468,29.477153 64.5754307,28.3032194" id="Fill-112" fill="#F3981A"></path>
            </g>
        </g>
    </g>
</svg>