<?xml version="1.0" encoding="UTF-8"?>
<svg width="120px" height="29px" viewBox="0 0 120 29" version="1.1" xmlns="http://www.w3.org/2000/svg" xmlns:xlink="http://www.w3.org/1999/xlink">
    <!-- Generator: sketchtool 60.1 (101010) - https://sketch.com -->
    <title>BBE23C4A-754E-4C0E-BCAF-E9472B0A1110</title>
    <desc>Created with sketchtool.</desc>
    <g id="Page-1" stroke="none" stroke-width="1" fill="none" fill-rule="evenodd">
        <g id="LP-DE-PATROCÃNIO" transform="translate(-1016.000000, -3646.000000)">
            <g id="Group-45" transform="translate(1016.000000, 3646.000000)">
                <path d="M0.0173151704,0.0764735076 C4.01278456,0.0542263166 8.00825395,0.0319791256 12.0037233,0.0109678896 C13.2680499,0.00478811433 14.529907,0.0393948559 15.7917642,0.00108024916 C16.5375193,-0.0186950317 16.9042233,0.229731935 16.8832335,1.01950722 C16.8523662,2.07254092 16.8536009,3.12557463 16.8832335,4.17984429 C16.9029886,4.95602407 16.558509,5.21557463 15.8028764,5.20692295 C12.6469988,5.1834398 9.49112129,5.22669823 6.33524374,5.18220384 C5.4363866,5.16984429 5.1128968,5.40838362 5.12153966,6.35883306 C5.16228456,11.6586083 5.15487639,16.9596196 5.12524374,22.2593949 C5.12153966,23.1047881 5.34625395,23.4323162 6.24387639,23.4261364 C11.5728152,23.3927656 16.9029886,23.3940016 22.2331621,23.4249005 C23.1221417,23.4310802 23.378958,23.1060241 23.3678458,22.2593949 C23.334509,19.204114 23.378958,16.151305 23.3419172,13.0960241 C23.330805,12.1604061 23.6172539,11.7389454 24.6074784,11.8093949 C25.585356,11.8761364 26.5718764,11.8415297 27.5522233,11.8217544 C28.2004376,11.8069229 28.4942948,12.0442263 28.5091111,12.7375971 C28.6152948,17.9978218 28.7449376,23.2592825 28.6412233,28.5182713 C19.3624988,28.5182713 10.0837744,28.5120915 0.805049864,28.5380465 C0.149427415,28.5380465 -0.00243993162,28.3897319 -7.26529947e-13,27.7309679 C0.0247233337,18.5132151 0.0173151704,9.29422632 0.0173151704,0.0764735076" id="Fill-1634" fill="#290F00"></path>
                <g id="Group-44" transform="translate(34.000000, 14.000000)" fill="#290F00">
                    <path d="M85.9237226,8.56534739 C84.9075695,13.002426 81.6640287,14.5004036 77.8130185,14.516471 C76.2721206,14.5226508 74.7287532,14.4855721 73.1915593,14.5288305 C72.345794,14.5535496 71.9939063,14.26928 72,13.388044 C72.0260083,9.3242238 72.0062532,5.25916762 72.0161308,1.19411144 C72.0173655,0.725684471 71.9185899,0.0928754818 72.6507634,0.0928754818 C75.0991614,0.0928754818 77.5685491,-0.180270586 79.9885491,0.210291212 C83.2728348,0.736808066 85.2705695,2.74029121 85.9237226,6.03658335 L85.9237226,8.56534739 Z M76.0609879,7.28860582 L76.0609879,10.2351227 C76.0609879,10.6627631 76.1659369,11.0051227 76.6894471,11.0187182 C77.7056002,11.0422013 78.7205185,11.0842238 79.6909879,10.6874822 C81.2294165,10.0571451 81.9764063,8.713662 81.8640491,6.75961705 C81.7776206,5.26040357 80.8590083,4.08006649 79.424294,3.68456088 C78.532845,3.43860582 77.6142328,3.58444852 76.7067328,3.57703279 C76.1140797,3.57208896 76.0597532,3.99602155 76.0597532,4.44714514 C76.0585185,5.39512267 76.0585185,6.3431002 76.0609879,7.28860582 L76.0609879,7.28860582 Z" id="Fill-1636"></path>
                    <path d="M9.52691259,6.97612947 C10.9764432,7.89320812 11.739484,9.13039913 11.6394738,10.7865789 C11.5085963,12.9099497 9.93065749,14.3745564 7.62424933,14.442534 C5.41785137,14.5105115 3.20651463,14.4450059 0.997647285,14.469725 C0.266708509,14.4783767 0.00248401956,14.1570283 0.00371871344,13.4574778 C0.0148309583,9.31579239 0.01853504,5.17534295 4.65405492e-13,1.03489351 C-0.00245475595,0.261185646 0.307453407,-0.0119604211 1.07296361,0.000399129499 C3.07069831,0.0350058711 5.068433,0.00905081489 7.06740239,0.0139946351 C9.21947382,0.0177025003 10.5159024,0.78028677 11.1097901,2.38084857 C11.739484,4.07781486 11.2764738,5.48309576 9.52691259,6.97612947 L9.52691259,6.97612947 Z M5.10423912,11.8532081 C5.87962688,11.8532081 6.40313708,11.8692755 6.92911667,11.8495003 C8.10824933,11.8074778 8.77374933,11.19568 8.78980035,10.1624216 C8.80461667,9.16006205 8.01811667,8.39624183 6.87602484,8.36534295 C5.82776973,8.33568003 4.77704524,8.38141037 3.73002484,8.34680362 C3.03983096,8.32455643 2.81141259,8.62118565 2.82499422,9.28612947 C2.88302484,12.3438823 2.43853504,11.7975901 5.10423912,11.8532081 L5.10423912,11.8532081 Z M5.249933,5.74759014 L5.249933,5.74388228 C5.73763708,5.74388228 6.22657586,5.75871374 6.71427994,5.74141037 C7.88970851,5.69815194 8.38605545,5.24455643 8.4169228,4.21253396 C8.44532075,3.17309576 7.85760647,2.5229834 6.76119831,2.48096093 C5.71541259,2.44141037 4.66839218,2.48466879 3.62137177,2.46489351 C3.0311881,2.45253396 2.82375953,2.72320812 2.82869831,3.29051149 C2.85709626,6.22219688 2.52990239,5.69197216 5.14621871,5.74759014 L5.249933,5.74759014 Z" id="Fill-1638"></path>
                    <path d="M49.7223003,6.93144639 C49.9470146,4.98852504 49.2271881,4.19009807 47.4788615,4.23212054 C46.6417391,4.25065987 45.9058615,4.55470481 45.2415962,5.03425537 C44.8736575,5.2975138 44.5069534,5.5891992 44.2266779,5.0033565 C43.9970248,4.52256998 43.2969534,4.11964863 43.8945452,3.44234526 C45.4576677,1.67122167 49.6556268,1.49077223 51.3656779,3.12594077 C52.1892187,3.91200818 52.4324534,4.92178346 52.4472697,5.99582841 C52.4731983,7.81886212 52.4694942,9.64189582 52.4472697,11.4661655 C52.4423309,11.9234689 52.6658105,12.5686374 52.0534024,12.7540307 C51.3965452,12.9505475 50.5125044,13.1347048 50.0507289,12.6415587 C49.5568513,12.1162778 49.3197901,12.4129071 48.9395044,12.5847048 C47.4430554,13.2632441 45.9503105,13.3361655 44.5291779,12.4178509 C43.2043513,11.561334 42.6857799,9.88661493 43.189535,8.316952 C43.6142697,6.99571605 45.1045452,6.0180756 46.7516268,6.01683964 C47.7838309,6.01560369 48.7456575,6.3122329 49.7223003,6.93144639 M49.8235505,9.56403066 C49.8260146,8.53324414 48.9679024,7.85346886 47.6566575,7.84358122 C46.5701268,7.83616549 45.5959534,8.60616549 45.5564432,9.50099695 C45.5181677,10.4563902 46.484933,11.2659408 47.650484,11.2535812 C49.0432187,11.2399857 49.8223105,10.6331318 49.8235505,9.56403066" id="Fill-1642"></path>
                    <path d="M22.5848858,7.35803648 C22.5848858,8.72747468 22.5935287,10.0969129 22.5774776,11.4638792 C22.5725389,11.8952275 22.7157633,12.5020814 22.0897736,12.5787106 C21.4279776,12.6602837 20.5254164,12.9952275 20.1389572,12.3265758 C19.7537327,11.6628679 19.5413654,11.9162387 19.1363858,12.1461264 C17.8979878,12.8456769 16.5941511,13.0941039 15.1915389,12.6812949 C14.0580899,12.348823 13.4024674,11.577587 13.2296103,10.450396 C12.8369776,7.90432861 13.0666307,5.33724996 13.0678654,2.78005895 C13.0678654,1.69983423 13.9840082,2.07680052 14.5791307,2.01747468 C15.2174674,1.95320502 15.666896,2.11758704 15.6570184,2.91477805 C15.6323246,4.74028367 15.6459062,6.56578929 15.6545491,8.39005895 C15.6619572,9.92387918 16.2496715,10.6135421 17.5448654,10.61725 C18.962294,10.6209578 19.9759776,9.68904772 19.9821511,8.36163199 C19.9870899,6.78084547 19.9821511,5.20376682 19.9846205,3.62421625 C19.9870899,2.05949715 20.0315389,2.00387918 21.3131511,2.008823 C22.5466103,2.01500277 22.5836511,2.05578929 22.5848858,3.56859828 C22.5873552,4.83174434 22.5848858,6.09489041 22.5848858,7.35803648" id="Fill-1644"></path>
                    <path d="M28.2215455,13.0892071 C26.9028925,13.0582845 25.6768414,12.7282845 24.5396884,12.027498 C23.6272496,11.4663744 24.0717394,10.9139025 24.4248619,10.2773856 C24.8261374,9.55435191 25.1953108,9.7607564 25.7533925,10.1092957 C26.8670863,10.8039025 28.0598006,11.3019924 29.4278414,10.8644643 C29.8599843,10.7272733 30.192117,10.5109811 30.2254537,10.0128912 C30.2587904,9.51850921 29.966168,9.22805978 29.5599537,9.04266652 C29.2426374,8.89805978 28.9117394,8.77940809 28.574668,8.68918337 C28.135117,8.57176764 27.6844537,8.50255416 27.2424333,8.39626202 C25.0594945,7.87221708 23.992719,6.72401483 24.1334741,5.05547551 C24.2742292,3.36963281 25.7608006,2.15221708 27.8548414,2.01502607 C29.2599231,1.92356539 30.5526476,2.24985753 31.7614129,2.9877227 C32.628168,3.51547551 32.2170149,4.03457663 31.8885863,4.64637438 C31.5144741,5.34468899 31.1675251,5.15682382 30.6575965,4.80086876 C29.8624537,4.24963281 28.9339639,4.02345303 27.9709027,4.13592494 C27.3930659,4.20390247 26.6633619,4.29289124 26.6349639,5.05671146 C26.6078006,5.7513182 27.2844129,5.88850921 27.8165659,6.04547551 C28.78827,6.33345303 29.7821986,6.55345303 30.7378516,6.88098112 C31.676219,7.20356539 32.3590047,7.83761034 32.6343414,8.83626202 C33.0529027,10.3651384 32.4120965,11.7939025 30.9749129,12.5330036 C30.2587904,12.9013182 29.3068414,13.0916553 28.2215455,13.0892071" id="Fill-1646"></path>
                    <path d="M69.9365442,7.25896329 C69.9365442,9.2550307 69.9032075,11.2523341 69.9501258,13.2459296 C69.9711156,14.1333453 69.7130646,14.5090756 68.7660544,14.4868285 C65.512636,14.4089633 66.0509626,14.8662667 66.0225646,11.7837947 C65.9916972,8.28233407 66.041085,4.7808734 66.0003401,1.28064868 C65.9892279,0.347502614 66.2472789,-0.0096883975 67.2375034,0.000199242953 C69.9365442,0.0273902542 69.9365442,-0.0171041278 69.9365442,2.63772733 L69.9365442,7.25896329" id="Fill-1648"></path>
                    <path d="M38.9559898,13.088084 C36.0766837,13.0646008 34.2419286,11.8323536 33.4023368,9.72505027 C32.5429898,7.57201657 33.0973674,4.89370196 34.7111123,3.40066825 C36.2655919,1.96448848 38.8522755,1.57639859 40.8129694,2.49965702 C41.0957143,2.63437612 41.3759898,2.79257836 41.6204592,2.99033117 C41.9686429,3.26718511 42.5267245,3.55639859 42.3909082,4.0235896 C42.2168163,4.62673567 41.6389796,5.02224129 41.0883061,5.33370196 C40.7746939,5.51044353 40.5981327,5.1594323 40.3907041,4.99628623 C39.1202041,4.00381432 37.5484388,4.0730278 36.4952449,5.1730278 C35.3605612,6.3583087 35.3506837,8.65718511 36.4767245,9.90920758 C37.4879388,11.0351626 39.1226735,11.1760615 40.342551,10.0970727 C41.3154898,9.23561207 41.6019388,10.2441514 42.097051,10.6161739 C42.7526735,11.108084 42.2847245,11.5233649 41.8908572,11.8879716 C40.9055714,12.8025784 39.6980408,13.0819042 38.9559898,13.088084" id="Fill-1650"></path>
                    <path d="M57.5604084,3.2484778 C58.3654288,2.70094971 59.0692044,2.19050027 59.958184,2.02859016 C60.5520717,1.92106207 60.7878982,2.11016319 60.8397554,2.70960139 C60.9545819,4.02960139 60.8903778,4.14578117 59.5890105,4.43746656 C57.9369901,4.81196094 57.4715105,5.4015115 57.4702758,7.1231969 C57.4702758,8.59645532 57.420888,10.0709497 57.4863268,11.5392643 C57.5320105,12.5181407 57.1591329,12.7949947 56.2145921,12.8147699 C55.1860921,12.8357812 54.9910105,12.3896014 55.0033574,11.4898261 C55.0441023,8.82634296 55.0070615,6.16038791 55.0268166,3.49690476 C55.0329901,2.95926431 54.7749391,2.18926431 55.7417044,2.16825308 C56.5282044,2.15218566 57.5171942,1.81476993 57.5604084,3.2484778" id="Fill-1652"></path>
                </g>
                <path d="M23.7948029,0.0396420469 C25.0887621,0.0396420469 26.383956,0.0569454177 27.6791499,0.0334622716 C28.3508233,0.019866766 28.6335682,0.312788114 28.6323521,0.970316204 C28.6249254,3.5967207 28.6249254,6.22312519 28.6323521,8.8520016 C28.6348029,9.49099036 28.3915682,9.82717014 27.702609,9.81233868 C26.5827417,9.78638362 25.4616397,9.78638362 24.3417723,9.81233868 C23.6713335,9.82717014 23.3836499,9.53424879 23.3898233,8.87548474 C23.3997009,8.00166452 23.3527825,7.12166452 23.3947621,6.24908025 C23.435507,5.41604654 23.0786805,5.12188924 22.2748948,5.16391171 C21.4377723,5.20840609 20.5957111,5.15278811 19.7561193,5.17874317 C19.063456,5.19975441 18.7103335,4.94638362 18.7251499,4.20975441 C18.7510784,3.12334991 18.744905,2.03694542 18.7300886,0.950540923 C18.7202111,0.270765642 19.0498744,0.0248105862 19.6993233,0.0334622716 C21.0648948,0.0544735076 22.4304662,0.0396420469 23.7948029,0.0396420469" id="Fill-1640" fill="#C7803D"></path>
            </g>
        </g>
    </g>
</svg>