<?xml version="1.0" encoding="UTF-8"?>
<svg width="119px" height="32px" viewBox="0 0 119 32" version="1.1" xmlns="http://www.w3.org/2000/svg" xmlns:xlink="http://www.w3.org/1999/xlink">
    <!-- Generator: sketchtool 60.1 (101010) - https://sketch.com -->
    <title>51861BEF-793B-424C-9E62-B60EC58D8AC7</title>
    <desc>Created with sketchtool.</desc>
    <g id="Page-1" stroke="none" stroke-width="1" fill="none" fill-rule="evenodd">
        <g id="LP-DE-PATROCÃNIO" transform="translate(-784.000000, -3645.000000)">
            <g id="Group-46" transform="translate(784.000000, 3645.000000)">
                <g id="Group-624" transform="translate(25.000000, 1.000000)" fill="#8FA669">
                    <path d="M13.8745242,13.5321846 C13.1849788,14.1192615 12.4097061,14.5709538 11.5549182,14.8860308 C10.7001303,15.1998769 9.81303939,15.3586462 8.89364545,15.3586462 C8.19043333,15.3586462 7.5120697,15.2663385 6.85979697,15.0854154 C6.20752424,14.9044923 5.59749394,14.6472615 5.02722121,14.3161846 C4.45819091,13.9851077 3.93761515,13.5863385 3.46922121,13.1223385 C2.99958485,12.6558769 2.59828182,12.1414154 2.26282727,11.5764923 C1.92737273,11.0128 1.67019091,10.4084923 1.48631212,9.76233846 C1.30367576,9.11618462 1.21173636,8.44418462 1.21173636,7.74633846 C1.21173636,7.04972308 1.30367576,6.37526154 1.48631212,5.72664615 C1.67019091,5.0768 1.92737273,4.47126154 2.26282727,3.90633846 C2.59828182,3.34141538 2.99958485,2.82695385 3.46922121,2.36295385 C3.93761515,1.89772308 4.45819091,1.49895385 5.02722121,1.16787692 C5.59749394,0.835569231 6.20752424,0.578338462 6.85979697,0.398646154 C7.5120697,0.217723077 8.19043333,0.125415385 8.89364545,0.125415385 C9.81303939,0.125415385 10.7001303,0.281723077 11.5549182,0.591876923 C12.4097061,0.903261538 13.1849788,1.35618462 13.8745242,1.95187692 L12.3016152,4.5168 C11.8655242,4.05033846 11.3511606,3.69341538 10.7585242,3.44356923 C10.1646455,3.19495385 9.54219091,3.07064615 8.89364545,3.07064615 C8.23888788,3.07064615 7.62388788,3.19249231 7.0511303,3.43864615 C6.47837273,3.6848 5.97767576,4.01956923 5.54903939,4.43803077 C5.12164545,4.85895385 4.78370606,5.35495385 4.53522121,5.92726154 C4.28673636,6.49710769 4.16249394,7.10387692 4.16249394,7.74633846 C4.16249394,8.39003077 4.28673636,8.99310769 4.53522121,9.5568 C4.78370606,10.1217231 5.12164545,10.6152615 5.54903939,11.0386462 C5.97767576,11.4632615 6.47837273,11.7992615 7.0511303,12.0441846 C7.62388788,12.2915692 8.23888788,12.4146462 8.89364545,12.4146462 C9.54219091,12.4146462 10.1646455,12.2878769 10.7585242,12.0392615 C11.3511606,11.7906462 11.8655242,11.4324923 12.3016152,10.9672615 L13.8745242,13.5321846 Z" id="Fill-618"></path>
                    <path d="M27.3037636,15.0393846 L24.3318848,15.0393846 L24.3318848,12.0966154 L18.3881273,12.0966154 L18.3881273,15.0393846 L15.4274303,15.0393846 L15.4274303,6.21846154 C15.4274303,5.40492308 15.5827333,4.64061538 15.8933394,3.92553846 C16.2051879,3.21169231 16.6263697,2.58646154 17.1606121,2.05476923 C17.6973394,1.52061538 18.3260061,1.10092308 19.0466121,0.793230769 C19.7672182,0.485538462 20.5375212,0.331692308 21.3612485,0.331692308 C22.1812485,0.331692308 22.9540364,0.485538462 23.6746424,0.793230769 C24.3964909,1.10092308 25.0251576,1.52061538 25.5643697,2.05476923 C26.1035818,2.58646154 26.5272485,3.21169231 26.8378545,3.92553846 C27.1484606,4.64061538 27.3037636,5.40492308 27.3037636,6.21846154 L27.3037636,15.0393846 Z M24.3318848,9.16246154 L24.3318848,6.21846154 C24.3318848,5.81476923 24.2548545,5.43446154 24.0983091,5.07507692 C23.9442485,4.71692308 23.7305515,4.40307692 23.4634303,4.136 C23.1925818,3.87015385 22.8770061,3.65969231 22.5154606,3.50584615 C22.1526727,3.35323077 21.7675212,3.27446154 21.3612485,3.27446154 C20.9524909,3.27446154 20.5685818,3.35323077 20.2045515,3.50584615 C19.8442485,3.65969231 19.5261879,3.87015385 19.2590667,4.136 C18.9894606,4.40307692 18.7770061,4.71692308 18.621703,5.07507692 C18.4664,5.43446154 18.3881273,5.81476923 18.3881273,6.21846154 L18.3881273,9.16246154 L24.3318848,9.16246154 Z" id="Fill-620"></path>
                    <path d="M29.0116,4.74190769 C29.0116,4.13267692 29.1296303,3.56283077 29.3632061,3.02867692 C29.5992667,2.49575385 29.9185697,2.02929231 30.3223576,1.62929231 C30.724903,1.22806154 31.1970242,0.911753846 31.7349939,0.680369231 C32.2729636,0.447753846 32.8494485,0.332061538 33.4632061,0.332061538 L40.2766606,0.332061538 L40.2766606,3.27483077 L33.4632061,3.27483077 C33.2569636,3.27483077 33.0631455,3.31298462 32.8842364,3.38806154 C32.7040848,3.46313846 32.5475394,3.56652308 32.4133576,3.70067692 C32.2779333,3.83483077 32.1735697,3.98990769 32.0965394,4.16590769 C32.0219939,4.34436923 31.9834788,4.53636923 31.9834788,4.74190769 C31.9834788,4.94621538 32.0219939,5.13944615 32.0965394,5.32036923 C32.1735697,5.50252308 32.2779333,5.66006154 32.4133576,5.79298462 C32.5475394,5.92590769 32.7040848,6.02929231 32.8842364,6.1056 C33.0631455,6.18067692 33.2569636,6.21883077 33.4632061,6.21883077 L36.4350848,6.21883077 C37.0500848,6.21883077 37.6278121,6.33329231 38.1695091,6.56221538 C38.7124485,6.78990769 39.1845697,7.10621538 39.5883576,7.50621538 C39.9921455,7.90621538 40.3089636,8.37513846 40.541297,8.91175385 C40.7711455,9.44836923 40.8866909,10.0206769 40.8866909,10.6286769 C40.8866909,11.2366769 40.7711455,11.8089846 40.541297,12.3406769 C40.3089636,12.8748308 39.9921455,13.3425231 39.5883576,13.7425231 C39.1845697,14.1425231 38.7124485,14.4588308 38.1695091,14.6914462 C37.6278121,14.9228308 37.0500848,15.0397538 36.4350848,15.0397538 L29.840297,15.0397538 L29.840297,12.0945231 L36.4350848,12.0945231 C36.6425697,12.0945231 36.8351455,12.0576 37.015297,11.9837538 C37.1942061,11.9074462 37.3507515,11.8028308 37.4861758,11.6711385 C37.6203576,11.5369846 37.7247212,11.3819077 37.8017515,11.2034462 C37.8787818,11.0262154 37.9160545,10.8354462 37.9160545,10.6286769 C37.9160545,10.4243692 37.8787818,10.2336 37.8017515,10.0551385 C37.7247212,9.87790769 37.6203576,9.7216 37.4861758,9.58867692 C37.3507515,9.45452308 37.1942061,9.34990769 37.015297,9.27606154 C36.8351455,9.19975385 36.6425697,9.16283077 36.4350848,9.16283077 L33.4632061,9.16283077 C32.8494485,9.16283077 32.2729636,9.04590769 31.7349939,8.81452308 C31.1970242,8.58067692 30.724903,8.2656 30.3223576,7.8656 C29.9185697,7.46436923 29.5992667,6.99667692 29.3632061,6.45883077 C29.1296303,5.92221538 29.0116,5.35113846 29.0116,4.74190769" id="Fill-622"></path>
                </g>
                <polygon id="Fill-625" fill="#8FA669" points="74.5015694 16 71.5084746 16 71.5084746 4.00251046 67 4.00251046 67 1 79 1 79 4.00251046 74.5015694 4.00251046"></polygon>
                <polygon id="Fill-626" fill="#8FA669" points="90 16 80 16 80 1 90 1 90 4.00251046 82.9187012 4.00251046 82.9187012 7.00376569 87.7111816 7.00376569 87.7111816 10.0075314 82.9187012 10.0075314 82.9187012 12.9987448 90 12.9987448"></polygon>
                <polygon id="Fill-627" fill="#8FA669" points="103 16 93 16 93 1 95.8588502 1 95.8588502 12.9987448 103 12.9987448"></polygon>
                <path d="M118,8.49393106 C118,9.18214922 117.911393,9.84487781 117.732966,10.4821168 C117.553326,11.1193559 117.302072,11.7153261 116.979204,12.2724551 C116.655122,12.8283703 116.263068,13.3357339 115.804256,13.7957598 C115.346658,14.2533581 114.841722,14.6466257 114.288234,14.9731348 C113.734747,15.299644 113.138777,15.552112 112.497896,15.7317527 C111.857016,15.9101796 111.193073,16 110.504855,16 C109.816637,16 109.155122,15.9101796 108.516669,15.7317527 C107.87943,15.552112 107.28346,15.299644 106.727545,14.9731348 C106.170416,14.6466257 105.664266,14.2533581 105.20424,13.7957598 C104.746642,13.3357339 104.352161,12.8283703 104.025651,12.2724551 C103.699142,11.7153261 103.44546,11.1193559 103.268247,10.4821168 C103.088607,9.84487781 103,9.18214922 103,8.49393106 C103,7.80692669 103.088607,7.14177051 103.268247,6.50089011 C103.44546,5.8612235 103.699142,5.26403949 104.025651,4.71055187 C104.352161,4.15827804 104.746642,3.65334196 105.20424,3.19331607 C105.664266,2.73571775 106.170416,2.34366402 106.727545,2.02079625 C107.28346,1.69671468 107.87943,1.44546043 108.516669,1.2670335 C109.155122,1.08860657 109.816637,1 110.504855,1 C111.193073,1 111.857016,1.08860657 112.497896,1.2670335 C113.138777,1.44546043 113.734747,1.69671468 114.288234,2.02079625 C114.841722,2.34366402 115.346658,2.73571775 115.804256,3.19331607 C116.263068,3.65334196 116.655122,4.15827804 116.979204,4.71055187 C117.302072,5.26403949 117.553326,5.8612235 117.732966,6.50089011 C117.911393,7.14177051 118,7.80692669 118,8.49393106 M115.117252,8.49393106 C115.117252,7.86033339 114.994659,7.26193559 114.753115,6.69873766 C114.511571,6.13675352 114.181421,5.6475967 113.767519,5.2312672 C113.352403,4.81736527 112.863246,4.48842855 112.298835,4.24567082 C111.736851,4.00291309 111.138453,3.88153423 110.504855,3.88153423 C109.862761,3.88153423 109.263149,4.00291309 108.704807,4.24567082 C108.144036,4.48842855 107.656093,4.81736527 107.237336,5.2312672 C106.819793,5.6475967 106.488429,6.13675352 106.246885,6.69873766 C106.004127,7.26193559 105.882748,7.86033339 105.882748,8.49393106 C105.882748,9.12752873 106.004127,9.72349895 106.246885,10.2794141 C106.488429,10.8365431 106.819793,11.3232724 107.237336,11.7408157 C107.656093,12.1607865 108.144036,12.4897233 108.704807,12.7312672 C109.263149,12.9752387 109.862761,13.0978314 110.504855,13.0978314 C111.138453,13.0978314 111.736851,12.9752387 112.298835,12.7312672 C112.863246,12.4897233 113.352403,12.1607865 113.767519,11.7408157 C114.181421,11.3232724 114.511571,10.8365431 114.753115,10.2794141 C114.994659,9.72349895 115.117252,9.12752873 115.117252,8.49393106" id="Fill-628" fill="#8FA669"></path>
                <path d="M32.9679342,28.5396579 C32.6078109,28.7287714 31.8061665,29 30.7849949,29 C28.4922919,29 27,27.4311042 27,25.0870918 C27,22.7269051 28.6020555,21 31.0834532,21 C31.8850976,21 32.6213772,21.2065319 33,21.3956454 L32.6855087,22.4718507 C32.3549846,22.281493 31.836999,22.1085537 31.0834532,22.1085537 C29.3408016,22.1085537 28.3973279,23.422395 28.3973279,25.007465 C28.3973279,26.7816485 29.5282631,27.874028 31.0526208,27.874028 C31.8209661,27.874028 32.3389517,27.6687403 32.7323741,27.4945568 L32.9679342,28.5396579 Z" id="Fill-630" fill="#878787"></path>
                <path d="M34.0661908,23.6073132 C34.0661908,22.6839428 34.0324465,21.9068362 34,21.1780604 L35.2719014,21.1780604 L35.32122,22.7170111 L35.3718365,22.7170111 C35.752109,21.663911 36.6450357,21 37.6028553,21 C37.7676833,21 37.8831927,21 38,21.0330684 L38,22.3774245 C37.8663206,22.3430843 37.7170668,22.3278219 37.5197923,22.3278219 C36.4789098,22.3278219 35.7689812,23.0883943 35.5704088,24.1567568 C35.5210902,24.3513514 35.504218,24.5955485 35.504218,24.8054054 L35.504218,29 L34.0661908,29 L34.0661908,23.6073132 Z" id="Fill-632" fill="#878787"></path>
                <path d="M40.3778514,25.2438569 C40.4100442,27.1300156 41.6398087,27.9063764 43.0987859,27.9063764 C44.1315305,27.9063764 44.7715232,27.7309487 45.2956218,27.5119751 L45.5428624,28.5085537 C45.0509566,28.7300156 44.165011,29 42.9030537,29 C40.4589772,29 39,27.4311042 39,25.133126 C39,22.8040435 40.4100442,21 42.7395143,21 C45.3136497,21 46,23.1860031 46,24.5956454 C46,24.8805599 45.9690949,25.1020218 45.9356144,25.2438569 L40.3778514,25.2438569 Z M44.6079838,24.2460342 C44.6247241,23.3751166 44.2306843,21.9965785 42.6081678,21.9965785 C41.1479029,21.9965785 40.5091979,23.2805599 40.3933039,24.2460342 L44.6079838,24.2460342 Z" id="Fill-634" fill="#878787"></path>
                <path d="M52.8910649,26.9881804 C52.8910649,27.6538103 52.9216646,28.3020218 53,28.8245723 L51.7686659,28.8245723 L51.6438188,27.859098 L51.6132191,27.859098 C51.1921665,28.4463453 50.3818849,29 49.3059976,29 C47.7955936,29 47,27.8914463 47,26.7978227 C47,24.9440124 48.620563,23.9312597 51.5348837,23.9623639 L51.5348837,23.7881804 C51.5348837,23.1548989 51.3476132,22.0127527 49.8200734,22.0127527 C49.1187271,22.0127527 48.370869,22.2354588 47.8567931,22.5838258 L47.5446756,21.6643857 C48.1676867,21.2525661 49.0881273,21 50.0232558,21 C52.3292534,21 52.8910649,22.6 52.8910649,24.1365474 L52.8910649,26.9881804 Z M51.5654835,24.9290824 C50.0697674,24.881804 48.370869,25.1505443 48.370869,26.6385692 C48.370869,27.5580093 48.9791922,27.9698289 49.6646267,27.9698289 C50.6621787,27.9698289 51.2705018,27.3365474 51.504284,26.6858476 C51.5348837,26.5278383 51.5654835,26.3847589 51.5654835,26.2429238 L51.5654835,24.9290824 Z" id="Fill-636" fill="#878787"></path>
                <path d="M56.8043776,19 L56.8043776,21.2073579 L59,21.2073579 L59,22.2491019 L56.8043776,22.2491019 L56.8043776,26.3652917 C56.8043776,27.3104174 57.1012312,27.8492506 57.9534884,27.8492506 C58.3543092,27.8492506 58.6333789,27.8009414 58.8413133,27.7538709 L58.9110807,28.7931376 C58.6155951,28.9194847 58.1450068,29 57.5362517,29 C56.8399453,29 56.246238,28.7782733 55.880985,28.4140964 C55.4815321,27.9731203 55.3064295,27.3104174 55.3064295,26.4111235 L55.3064295,22.2491019 L54,22.2491019 L54,21.2073579 L55.3064295,21.2073579 L55.3064295,19.3616995 L56.8043776,19 Z" id="Fill-638" fill="#878787"></path>
                <path d="M62,18.8958697 C62,19.3847586 61.5966497,19.7763816 60.9728972,19.7763816 C60.3865988,19.7763816 59.9832484,19.3847586 60.0005349,18.8958697 C59.9832484,18.4069808 60.4053257,18 60.9916242,18 C61.5779227,18 61.981273,18.391623 62,18.8958697 L62,18.8958697 Z M60.1834831,29 L61.7795979,29 L61.7795979,21.1291449 L60.1834831,21.1291449 L60.1834831,29 Z" id="Fill-640" fill="#878787"></path>
                <path d="M64.4367284,21 L65.8890604,25.4891057 C66.132716,26.217561 66.3307613,26.8796748 66.4843964,27.5586992 L66.5312071,27.5586992 C66.6980453,26.8965854 66.9128944,26.217561 67.1409465,25.4891057 L68.5932785,21 L70,21 L67.0953361,29 L65.8122428,29 L63,21 L64.4367284,21 Z" id="Fill-642" fill="#878787"></path>
                <path d="M71.3775979,25.2438569 C71.4097848,27.1300156 72.6406106,27.9063764 74.098032,27.9063764 C75.1318742,27.9063764 75.7704617,27.7309487 76.2944639,27.5119751 L76.541659,28.5085537 C76.0498437,28.7300156 75.1640611,29 73.9023358,29 C71.4587088,29 70,27.4311042 70,25.133126 C70,22.8040435 71.4097848,21 73.7388266,21 C76.3124885,21 77,23.1860031 77,24.5956454 C77,24.8805599 76.9691006,25.1020218 76.9343388,25.2438569 L71.3775979,25.2438569 Z M75.6069524,24.2460342 C75.6236895,23.3751166 75.2297223,21.9965785 73.6075041,21.9965785 C72.1487953,21.9965785 71.5089204,23.2805599 71.3930476,24.2460342 L75.6069524,24.2460342 Z" id="Fill-644" fill="#878787"></path>
                <path d="M82.3480307,27.3997511 C82.7567501,27.6697776 83.4837751,27.9547364 84.1773594,27.9547364 C85.1855338,27.9547364 85.659896,27.4470369 85.659896,26.8149012 C85.659896,26.1479235 85.2648006,25.8007466 84.2405251,25.419972 C82.8669804,24.9122725 82.2216993,24.1519676 82.2216993,23.2323845 C82.2216993,22.0129103 83.2150111,21 84.8548427,21 C85.6289324,21 86.3064157,21.2053196 86.7324746,21.457925 L86.3856824,22.4720796 C86.0847164,22.2991134 85.532326,22.0129103 84.8077781,22.0129103 C84.0039633,22.0129103 83.5457023,22.5056774 83.5457023,23.075595 C83.5457023,23.708975 83.9878623,23.9926894 84.9972752,24.3883963 C86.3064157,24.8811635 87,25.5307202 87,26.686732 C87,28.0343755 85.9583849,29 84.1451573,29 C83.310379,29 82.5362893,28.7785037 82,28.4624358 L82.3480307,27.3997511 Z" id="Fill-646" fill="#878787"></path>
                <path d="M89.0606833,23.6691635 C89.0606833,22.6853933 89.0309366,21.8888889 89,21.1735331 L90.1981982,21.1735331 L90.2588815,22.4781523 L90.2886283,22.4781523 C90.81812,21.5393258 91.6962434,21 92.8944416,21 C94.6661567,21 96,22.556804 96,24.8938826 C96,27.659176 94.3936767,29.0274657 92.6826449,29.0274657 C91.681965,29.0274657 90.8490566,28.5805243 90.4099949,27.8189763 L90.3790583,27.8189763 L90.3790583,32 L89.0606833,32 L89.0606833,23.6691635 Z M90.3790583,25.7203496 C90.3790583,25.9275905 90.3945266,26.1173533 90.4397416,26.2933833 C90.6824749,27.2771536 91.4844467,27.9300874 92.4399116,27.9300874 C93.8487166,27.9300874 94.6661567,26.721598 94.6661567,24.9575531 C94.6661567,23.4157303 93.8939317,22.1123596 92.4863165,22.1123596 C91.5760666,22.1123596 90.7265001,22.7802747 90.4706782,23.8277154 C90.4242733,24.0037453 90.3790583,24.2097378 90.3790583,24.4007491 L90.3790583,25.7203496 Z" id="Fill-648" fill="#878787"></path>
                <path d="M102.89102,26.9881804 C102.89102,27.6538103 102.922857,28.3020218 103,28.8245723 L101.769388,28.8245723 L101.64449,27.859098 L101.613878,27.859098 C101.192653,28.4463453 100.382041,29 99.3057143,29 C97.7934694,29 97,27.8914463 97,26.7978227 C97,24.9440124 98.62,23.9312597 101.536735,23.9623639 L101.536735,23.7881804 C101.536735,23.1548989 101.346939,22.0127527 99.8212245,22.0127527 C99.1183673,22.0127527 98.3702041,22.2354588 97.8559184,22.5838258 L97.544898,21.6643857 C98.1681633,21.2525661 99.0877551,21 100.023265,21 C102.330204,21 102.89102,22.6 102.89102,24.1365474 L102.89102,26.9881804 Z M101.567347,24.9290824 C100.069796,24.881804 98.3702041,25.1505443 98.3702041,26.6385692 C98.3702041,27.5580093 98.9787755,27.9698289 99.6657143,27.9698289 C100.662449,27.9698289 101.269796,27.3365474 101.504898,26.6858476 C101.536735,26.5278383 101.567347,26.3847589 101.567347,26.2429238 L101.567347,24.9290824 Z" id="Fill-650" fill="#878787"></path>
                <path d="M110.967934,28.5396579 C110.607811,28.7287714 109.806166,29 108.784995,29 C106.492292,29 105,27.4311042 105,25.0870918 C105,22.7269051 106.602055,21 109.083453,21 C109.885098,21 110.62261,21.2065319 111,21.3956454 L110.685509,22.4718507 C110.354985,22.281493 109.836999,22.1085537 109.083453,22.1085537 C107.340802,22.1085537 106.399794,23.422395 106.399794,25.007465 C106.399794,26.7816485 107.528263,27.874028 109.052621,27.874028 C109.822199,27.874028 110.338952,27.6687403 110.732374,27.4945568 L110.967934,28.5396579 Z" id="Fill-652" fill="#878787"></path>
                <path d="M113.37631,25.2438569 C113.408497,27.1300156 114.639323,27.9063764 116.096745,27.9063764 C117.131874,27.9063764 117.769174,27.7309487 118.294464,27.5119751 L118.540372,28.5085537 C118.048556,28.7300156 117.164061,29 115.901048,29 C113.459996,29 112,27.4311042 112,25.133126 C112,22.8040435 113.408497,21 115.737539,21 C118.311201,21 119,23.1860031 119,24.5956454 C119,24.8805599 118.966526,25.1020218 118.934339,25.2438569 L113.37631,25.2438569 Z M117.605665,24.2460342 C117.622402,23.3751166 117.229722,21.9965785 115.606217,21.9965785 C114.14622,21.9965785 113.50892,23.2805599 113.393048,24.2460342 L117.605665,24.2460342 Z" id="Fill-654" fill="#878787"></path>
                <path d="M18,7 L18,12.1686122 L20.2966863,14 L21.9913286,12.6368353 C21.9665531,12.6070039 21.9430164,12.5784695 21.9194797,12.5512322 C21.9157634,12.5486381 21.9120471,12.5460441 21.9058532,12.542153 C21.8463921,12.463035 21.791886,12.386511 21.7448126,12.311284 C21.5837721,12.0415045 21.5044906,11.7418936 21.5044906,11.4150454 C21.5044906,10.9403372 21.6692474,10.5343709 22,10.1984436 L18,7 Z" id="Fill-656" fill="#8FA669"></path>
                <path d="M11.9855142,2.24419907 L11.9855142,0 L11.9311927,0 C10.9497827,0 10.1977306,0.903824612 10.1977306,1.94463114 L10.1977306,1.96639462 C10.1977306,2.47847656 10.3800097,2.92526804 10.6805891,3.25044007 L10.5091743,3.38102096 L7,6.21667467 L7,11.3118899 L8.67551907,9.95231237 L8.67551907,16 L12,14.0566491 L12,2.23395743 L11.9855142,2.24419907 Z" id="Fill-658" fill="#8FA669"></path>
                <path d="M22.2139535,9 L22.1921132,9 C21.2068756,9 20.4060667,9.80219111 20.4060667,10.7918442 L20.4060667,10.8113208 C20.4060667,11.703591 21.0527806,12.4400487 21.9021234,12.5788192 C21.9045501,12.5824711 21.9069767,12.5849057 21.9094034,12.5873402 L20.249545,13.8642727 L18,15.5745587 L18,20.4266586 L19.9741153,18.9245283 L19.9741153,23 L23.4054601,20.3694461 L23.4054601,12.1454656 C23.7694641,11.8167985 24,11.3432745 24,10.8113208 L24,10.7918442 C24,9.80219111 23.1991911,9 22.2139535,9" id="Fill-660" fill="#878787"></path>
                <path d="M13.270943,4.02335848 C13.5820967,3.68863381 13.7723791,3.22868839 13.7723791,2.73743779 L13.7723791,2.71817306 C13.7723791,1.73807995 13.0244136,1 12.0502633,1 L12,1 L12,4.56638305 L12.0131642,4.56638305 L12.0131642,14.2204206 L15.2120632,16 L15.2120632,10.296436 L17,11.6642318 L17,6.88537486 L13.4851604,4.18108846 L13.270943,4.02335848 Z" id="Fill-662" fill="#878787"></path>
                <path d="M3.47639098,11.4508227 C3.47639098,11.773309 3.4006015,12.0676417 3.24661654,12.3312614 C3.21172932,12.390128 3.17323308,12.4477148 3.12992481,12.5078611 C3.10947368,12.5283364 3.09142857,12.5500914 3.07699248,12.5718464 C3.0481203,12.5987203 3.02285714,12.6255941 3,12.6575868 L4.66135338,14 L7,12.0932358 L7,7 L3,10.2491773 C3.31759398,10.5882998 3.47639098,10.9875686 3.47639098,11.4508227" id="Fill-664" fill="#878787"></path>
                <path d="M11.9855142,16 L11.9311927,16 C10.9497827,16 10.1977306,16.8710259 10.1977306,17.8752966 L10.1977306,17.8962703 C10.1977306,18.1800323 10.2605022,18.4428205 10.3691453,18.6772326 L10.3365524,18.6587264 L7,16.0518174 L7,20.9646009 L8.62481893,22.2291924 L8.61033317,26.3659486 L12,29 L12,19.5852709 L11.9855142,19.5766347 L11.9855142,16 Z" id="Fill-666" fill="#878787"></path>
                <path d="M13.6634753,18.6550251 L13.5318334,18.7302838 C13.6850168,18.4477555 13.7723791,18.1232799 13.7723791,17.780298 L13.7723791,17.7580905 C13.7723791,16.7562874 13.0244136,16 12.05146,16 L12,16 L12,19.6543608 L12.0143609,19.6543608 L12.0143609,29 L15.372427,26.3573123 L15.372427,22.2168549 L17,20.9386922 L17,16.024675 L13.6634753,18.6550251 Z" id="Fill-668" fill="#8FA669"></path>
                <path d="M3.74521554,13.8488696 L2.14227721,12.5718261 C2.15039629,12.5608696 2.16199497,12.5511304 2.17011405,12.5401739 C2.8985115,12.3356522 3.43553064,11.6417391 3.43553064,10.8114783 L3.43553064,10.792 C3.43553064,9.80226087 2.67117727,9 1.72820414,9 L1.7073265,9 C0.765513242,9 0,9.80226087 0,10.792 L0,10.8114783 C0,11.4104348 0.281848057,11.94 0.712159289,12.2650435 L0.712159289,20.3546087 L4.0085057,23 L4.0085057,18.9132174 L6,20.5128696 L6,15.664 L3.74521554,13.8488696 Z" id="Fill-670" fill="#8FA669"></path>
            </g>
        </g>
    </g>
</svg>