<?xml version="1.0" encoding="UTF-8"?>
<svg width="99px" height="23px" viewBox="0 0 99 23" version="1.1" xmlns="http://www.w3.org/2000/svg" xmlns:xlink="http://www.w3.org/1999/xlink">
    <!-- Generator: sketchtool 60.1 (101010) - https://sketch.com -->
    <title>FC18848D-A7B7-48B2-B878-03BBC88AC978</title>
    <desc>Created with sketchtool.</desc>
    <g id="Page-1" stroke="none" stroke-width="1" fill="none" fill-rule="evenodd">
        <g id="LP-DE-PATROCÃNIO" transform="translate(-1494.000000, -3750.000000)">
            <g id="Group-53" transform="translate(1494.000000, 3750.000000)">
                <path d="M30,9.53191489 C32.4689257,9.53191489 34.4661905,11.5319149 34.4661905,14.0024316 C34.4661905,16.4680851 32.4689257,18.4680851 30,18.4680851 C27.5347212,18.4680851 25.5338095,16.4680851 25.5338095,14.0024316 C25.5338095,11.5319149 27.5347212,9.53191489 30,9.53191489 M30,6 C34.4187813,6 38,9.58176292 38,14.0024316 C38,18.4182371 34.4187813,22 30,22 C25.5812187,22 22,18.4182371 22,14.0024316 C22,9.58176292 25.5812187,6 30,6" id="Fill-1225" fill="#00A3DE"></path>
                <path d="M94.5649315,11.4797291 C94.0336472,10.6249049 93.3285102,10.0127325 92.4531677,9.64444367 C91.5778252,9.27738658 90.6793835,9.21579982 89.7627054,9.46461033 C88.8581848,9.7084939 88.1250855,10.2122736 87.5573286,10.973486 C86.9907875,11.73593 86.6880649,12.6190842 86.6503766,13.6278753 L94.5649315,11.4797291 Z M98.7215925,11.8726526 L98.8808562,12.6190842 L99,13.4307977 L87.4260273,16.5704907 C87.6728252,16.959719 87.9670375,17.3083001 88.30988,17.6211608 C88.6539382,17.9389485 89.0369006,18.1889908 89.458767,18.3725193 C89.8854965,18.5572796 90.3377567,18.6693675 90.8252739,18.708783 C91.3103595,18.7494303 91.8209759,18.6976974 92.3559075,18.5511209 C93.0063355,18.3749828 93.6263698,18.0830615 94.217226,17.6790524 C94.8068664,17.2725798 95.2700684,16.8180695 95.5983219,16.313058 L98.4905993,17.9993035 C97.6918493,19.0351928 96.8505479,19.8382842 95.9715582,20.4110411 C95.095,20.9850297 94.1223972,21.4173687 93.0537499,21.70929 C91.9692979,22.0024429 90.9006506,22.0738836 89.8490239,21.9236119 C88.7986129,21.7758037 87.8345204,21.4469304 86.9579622,20.9394555 C86.0838355,20.4369075 85.3191265,19.7680753 84.67113,18.9378858 C84.0231334,18.108928 83.5550683,17.1617236 83.2730135,16.0950409 C82.9921745,15.0283582 82.9277395,13.9715294 83.0809245,12.9233228 C83.2316779,11.8763479 83.5672258,10.9094357 84.0863526,10.0262816 C84.6030478,9.14066397 85.2741437,8.36959774 86.1020718,7.70938767 C86.9299998,7.05040934 87.8795033,6.57742302 88.9481506,6.28427004 C89.9657362,6.00959309 90.9930478,5.93199378 92.0300855,6.06009424 C93.0659075,6.1881947 94.0312157,6.49243329 94.9296575,6.97281002 C95.8268835,7.45441848 96.6061815,8.11093335 97.2736301,8.93250072 C97.9386472,9.76022678 98.4213014,10.7394563 98.7215925,11.8726526 L98.7215925,11.8726526 Z" id="Fill-1227" fill="#00000A"></path>
                <path d="M51.7620497,15.696786 C51.7620497,15.2554745 51.6793881,14.8537203 51.5115973,14.4853426 C51.3450403,14.1144926 51.1167955,13.8029786 50.8280967,13.5495644 C50.5406317,13.2924417 50.2062839,13.0958912 49.8287547,12.953732 C49.4524593,12.812809 49.04532,12.7423475 48.606103,12.7423475 C48.0089653,12.7275135 47.4216976,12.723805 46.8405988,12.7299859 C46.2632012,12.7398752 45.6759335,12.7423475 45.0800296,12.7423475 L45.0800296,18.5708736 L48.1311071,18.5708736 C48.5703241,18.5708736 49.0107748,18.5189546 49.4450568,18.4126442 C49.8867412,18.30757 50.276608,18.1345067 50.6171245,17.8983989 C50.9601086,17.6610549 51.2364698,17.3619025 51.447442,17.0009418 C51.6559467,16.6424535 51.7620497,16.208559 51.7620497,15.696786 M56,15.9353661 C56,16.8130445 55.8198717,17.625206 55.4608488,18.3743231 C55.1005922,19.1209677 54.6231288,19.7625383 54.0272249,20.2990346 C53.4313209,20.8330586 52.7391841,21.2496468 51.9619181,21.5500353 C51.1784833,21.8491877 50.3605034,22 49.5018095,22 L41,21.9728043 L41,5.45267247 L43.8524428,7.22039086 C44.1658167,6.56522251 44.7370456,5.70361432 45.0800296,5.25364964 L45.0800296,9.79161761 C45.5167791,9.80892395 45.9115809,9.81757711 46.2632012,9.81757711 L47.4722816,9.81757711 C47.9287712,9.81757711 48.3679882,9.76318578 48.7886988,9.65934777 C49.2106432,9.55550977 49.5844711,9.3873911 49.9077151,9.15870026 C50.2321928,8.93000942 50.4925152,8.63456558 50.6837473,8.2736049 C50.8762132,7.91511655 50.9736799,7.47751354 50.9736799,6.96944902 C50.9736799,6.45891217 50.8762132,6.02254533 50.6837473,5.65293148 C50.4925152,5.28208147 50.2321928,4.97427596 49.9077151,4.72827879 C49.3463563,4.30180127 48.2581839,3.74305392 47.2452706,3.62809042 C47.9090311,3.37962091 48.7862313,3.28938074 49.5684323,3.23746174 L50.0175193,1 C50.3950485,1.06798917 50.7639414,1.16441017 51.1167955,1.28802684 C51.9002303,1.55998352 52.5800296,1.95555686 53.1574272,2.47227455 C53.7348248,2.9939369 54.1876131,3.62314575 54.510857,4.37349894 C54.8402698,5.11890746 54.9981905,5.95702849 54.9981905,6.89033435 C54.9981905,7.68024488 54.8254647,8.4441959 54.4726106,9.18465976 C54.1222241,9.92388745 53.6570982,10.5469155 53.0772331,11.0562162 C53.5361902,11.2861432 53.9420957,11.5766423 54.3023524,11.9264775 C54.6613752,12.2800212 54.9698141,12.6694137 55.222734,13.0983636 C55.4756539,13.5297857 55.6693535,13.9871674 55.8013654,14.4717448 C55.9321434,14.9526136 56,15.4421356 56,15.9353661" id="Fill-1229" fill="#00000A"></path>
                <path d="M80,22.6211893 L76.1384947,22.6211893 L76.1384947,21.4315464 C75.8857553,21.6849315 75.5940363,21.9066434 75.2645949,22.0928815 C74.9338962,22.2854541 74.5855937,22.4463536 74.21843,22.5819146 C73.8525238,22.7162087 73.4765583,22.8175628 73.0943057,22.8910444 C72.7082809,22.9632592 72.3461469,23 72.0053889,23 C71.2195078,23 70.4663194,22.8758413 69.7395366,22.6211893 C69.0177834,22.3665373 68.375247,21.981392 67.8232441,21.4594188 C67.267469,20.9387125 66.8261182,20.2634413 66.4966768,19.4336052 C66.1634633,18.6025022 66,17.620635 66,16.4880038 L66,7 L69.8602479,7 L69.8602479,16.297965 C69.8602479,16.857946 69.9457518,17.3469792 70.1155021,17.7726661 C70.2852524,18.1945522 70.5078139,18.5454905 70.7857015,18.8242141 C71.063589,19.1016708 71.3842285,19.3107134 71.7501347,19.4462744 C72.1198132,19.5805685 72.4995509,19.6502494 72.8906054,19.6502494 C74.1442429,19.6502494 75.2256152,19.2144271 76.1384947,18.3529179 L76.1384947,7 L80,7 L80,22.6211893 Z" id="Fill-1231" fill="#00000A"></path>
                <path d="M65,21.5288766 C64.7199385,21.6692372 64.4064541,21.7803051 64.0526316,21.8681831 C63.7022666,21.95362 63.3357664,22 62.9588936,22 C62.4344987,22 61.930849,21.9231068 61.4456396,21.7766436 C60.9627353,21.6265187 60.5409143,21.3897365 60.1813292,21.0589736 C59.8217441,20.7294313 59.5336151,20.3010264 59.3203995,19.7700971 C59.1083365,19.2403883 59,18.6032732 59,17.8575312 L59,0 L62.6154437,0 L62.6154437,17.2069903 C62.6154437,17.8306796 62.7341529,18.2615257 62.9715713,18.4946463 C63.2078371,18.730208 63.4925086,18.8473786 63.8186708,18.8473786 C64.2289666,18.8473786 64.6219746,18.7180028 65,18.4580305 L65,21.5288766 Z" id="Fill-1233" fill="#00000A"></path>
                <path d="M20,18.7856739 C18.9503476,20.0756977 17.6779671,21.0985199 16.1828585,21.8615976 C14.6852889,22.6209468 13.035132,23 11.2323879,23 C9.67575217,23 8.21509875,22.711671 6.85042761,22.141227 C5.48821756,21.564569 4.29705285,20.7828494 3.2830862,19.7935826 C2.26419738,18.8030731 1.46557559,17.6423003 0.878607026,16.3075359 C0.292869009,14.9727714 0,13.5385832 0,12 C0,10.4614168 0.292869009,9.02598576 0.878607026,7.69246413 C1.46557559,6.35769969 2.26419738,5.19071291 3.2830862,4.19274658 C4.29705285,3.19353745 5.48821756,2.41057508 6.85042761,1.84634505 C8.21509875,1.28211502 9.67575217,1 11.2323879,1 C13.035132,1 14.6852889,1.37781042 16.1828585,2.13715964 C17.6779671,2.89775167 18.9257368,3.88950401 19.9200148,5.10620269 L17.1143789,8.02304824 C16.4646527,7.08846458 15.6291146,6.33284375 14.6065342,5.75618574 C13.5827232,5.18201333 12.4592383,4.89368433 11.2323879,4.89368433 C10.2541069,4.89368433 9.32873931,5.08507513 8.46612933,5.46537114 C7.59859718,5.84442436 6.84058328,6.35769969 6.19331816,7.00395436 C5.54728358,7.64772342 5.03660863,8.39961586 4.65883222,9.25590329 C4.28474743,10.1121907 4.09524395,11.0268896 4.09524395,12 C4.09524395,12.9532256 4.28474743,13.8604677 4.65883222,14.7167552 C5.03660863,15.5730426 5.54728358,16.3224494 6.19331816,16.9699469 C6.84058328,17.6149588 7.59859718,18.1269913 8.46612933,18.5072873 C9.32873931,18.8850977 10.2541069,19.0764885 11.2323879,19.0764885 C12.5293792,19.0764885 13.6750138,18.7819455 14.674214,18.1878884 C15.6672614,17.5963168 16.4991079,16.8145972 17.1660617,15.8427296 L20,18.7856739 Z" id="Fill-1235" fill="#00A3DE"></path>
                <path d="M43.3333333,2.52681628 L40.5540763,0.971852415 L40,4.47185242 L43.8899455,7 C45.3645239,3.76892355 47.1307214,3.06998859 49.4446558,2.91555725 L50,0 C46.9468746,0.127805249 46.1556993,0.037276531 43.3333333,2.52681628" id="Fill-1237" fill="#00A3DE"></path>
            </g>
        </g>
    </g>
</svg>