<?xml version="1.0" encoding="UTF-8"?>
<svg width="133px" height="25px" viewBox="0 0 133 25" version="1.1" xmlns="http://www.w3.org/2000/svg" xmlns:xlink="http://www.w3.org/1999/xlink">
    <!-- Generator: sketchtool 60.1 (101010) - https://sketch.com -->
    <title>C70BD39F-3F45-4464-B159-83B33414979C</title>
    <desc>Created with sketchtool.</desc>
    <g id="Page-1" stroke="none" stroke-width="1" fill="none" fill-rule="evenodd">
        <g id="LP-DE-PATROCÃNIO" transform="translate(-543.000000, -3951.000000)" fill="#30A1A8">
            <g id="Group-62" transform="translate(543.000000, 3951.000000)">
                <path d="M31.0767716,16.9451866 C29.6926546,15.5733 29,13.9251056 29,12.0030165 C29,10.0797208 29.6926546,8.43514608 31.0755794,7.07291218 C32.4596964,5.71067827 34.1108609,5.01930535 36.0302652,5 C37.6349349,5 39.1025042,5.51279841 40.4305889,6.54080841 C40.7429392,6.78091873 40.9420327,7.13927433 40.9825667,7.53503404 C41.0445598,7.92838059 40.9396483,8.33137982 40.6928678,8.64147203 C40.4544324,8.95277084 40.1063169,9.15306386 39.722436,9.20132724 C39.337363,9.26165647 38.9487134,9.15065069 38.6542458,8.89364819 C37.8578719,8.30362837 36.8945932,7.99112299 35.9086632,8.00077566 C34.8845835,8.00077566 33.9677998,8.40377489 33.1547353,9.204947 C32.3428631,10.0073257 31.9351387,10.9496682 31.93037,12.0271482 C31.93037,13.110661 32.3321335,14.0493838 33.1344683,14.8421098 C33.9379953,15.6360424 34.8559713,16.0330087 35.887204,16.0330087 C36.8826715,16.0450745 37.8531032,15.7313626 38.6566302,15.1353098 C38.9499056,14.8927863 39.3337865,14.7914333 39.7081299,14.8553822 C40.0955873,14.902439 40.4496637,15.1027321 40.6904834,15.4152374 C40.9348796,15.7168836 41.0409833,16.1090235 40.9813745,16.4963372 C40.9277265,16.89451 40.7310174,17.257692 40.4282046,17.5183142 C39.0643546,18.5053004 37.5979774,19 36.0302652,19 C34.1108609,19 32.4596964,18.31466 31.0767716,16.9451866" id="Fill-1453"></path>
                <path d="M51.0611987,19 C49.088959,19 47.4208202,18.3129496 46.0542587,16.940048 C44.6876972,15.5671463 44.0025237,13.9256595 44,12.0143885 C44,10.1019185 44.688959,8.45443645 46.0643533,7.07194245 C47.4422713,5.69064748 49.09653,5 51.029653,5 C52.962776,5 54.6082019,5.69904077 55.9659306,7.09952038 C57.3236593,8.5 58,10.1666667 58,12.0971223 C58,14.0263789 57.3160883,15.6223022 55.9470032,16.883693 C54.6624606,18.2961631 53.0347003,19 51.0611987,19 M48.2498423,9.0911271 C47.5457413,9.87170264 47.1962145,10.8357314 47.1962145,11.9868106 C47.1962145,13.1342926 47.5457413,14.118705 48.2498423,14.9352518 C49.8006309,16.3081535 52.2044164,16.3081535 53.7564669,14.9352518 C54.518612,14.1199041 54.8971609,13.1366906 54.8971609,11.9868106 C54.8971609,10.8357314 54.518612,9.8705036 53.7564669,9.0911271 C52.918612,8.38609113 52.0012618,8.03477218 51.0031546,8.03477218 C50.0063091,8.03477218 49.0876972,8.38609113 48.2498423,9.0911271" id="Fill-1455"></path>
                <path d="M63.1101251,17.515281 C63.1126041,17.9193105 62.9341176,18.3028371 62.6192873,18.5657578 C62.3218099,18.8443572 61.9239338,19 61.5111839,19 C61.1095894,19.0035569 60.7241082,18.8467693 60.4464626,18.5657578 C60.1539431,18.2907765 59.9928095,17.9108681 60.0002465,17.515281 L60.0002465,6.48346603 C60.0002465,5.66696458 60.6794866,5.00242648 61.5198603,5 L61.5260578,5 C62.1780291,5 62.6477956,5.2906744 62.9378361,5.86837631 C63.8463817,5.29911681 64.906145,4.99760224 65.9869797,5 C67.6565718,5 69.075787,5.57530415 70.2446254,6.72226557 C71.4147032,7.86922698 71.9997422,9.235691 71.9997422,10.8228637 L71.9997422,17.514075 C72.0071791,17.9072499 71.8534825,18.2859522 71.5696394,18.5645517 C71.2969518,18.8455633 70.9151891,19.0023509 70.519792,18.9939084 C70.114479,18.9975266 69.7252794,18.8419451 69.4401968,18.5597275 C69.1414799,18.2883644 68.9741489,17.908456 68.9803463,17.5104568 L68.9803463,10.8240697 C68.9915017,10.0666651 68.672953,9.33820595 68.1027879,8.82321907 C67.5450177,8.28411102 66.7876898,7.98742069 66.0006141,8.00189339 C65.2271728,7.98500857 64.4822397,8.28411102 63.9455409,8.8280433 C63.3964471,9.35629683 63.0964907,10.0787257 63.1101251,10.828894 L63.1101251,17.515281 Z" id="Fill-1457"></path>
                <path d="M77.6942252,24.5191978 C77.4013744,24.8296769 76.9943616,25.0011915 76.5699762,25 C76.1505544,25.0036954 75.7460234,24.8321807 75.460618,24.5191978 C75.1677673,24.2350092 75.0027285,23.8393988 75.0002468,23.4300171 L75.0002468,6.54145664 C74.9928014,6.13082299 75.1541175,5.73646447 75.4469682,5.45227594 C75.7249282,5.15932389 76.1108459,4.99657275 76.5116543,5.00032855 C76.8950902,4.99281696 77.2723216,5.11425435 77.5763403,5.34961753 C77.8555412,5.55117856 78.0453978,5.85289413 78.1111652,6.19216765 C79.2701591,5.41346605 80.6339003,4.99782468 82.0286639,5.00032855 C83.9483252,5.00032855 85.5900264,5.71768549 86.9537677,7.15114744 C88.316268,8.58460939 88.9987591,10.299756 89,12.2940834 C89,14.2884108 88.3187498,15.9885343 86.9550086,17.3944537 C85.5925082,18.7978693 83.950807,19.501455 82.0299048,19.501455 C80.5482787,19.501455 79.2627137,19.1033407 78.1694871,18.3108678 L78.1694871,23.4237574 C78.1694871,23.8393988 77.9957621,24.2362612 77.6942252,24.5191978 L77.6942252,24.5191978 Z M84.737533,9.36331099 C84.0351877,8.58961712 83.0387507,8.15770063 82.0001234,8.17272382 C80.9602552,8.15519677 79.9650591,8.59587678 79.2738818,9.3795861 C78.5330687,10.1845783 78.1632827,11.1848718 78.1632827,12.3867264 C78.1632827,13.587329 78.5380323,14.5287817 79.2850498,15.2060769 C79.9600955,15.9947939 80.9453644,16.4429855 81.9790282,16.4292143 C83.0449552,16.4292143 83.9570114,16.0210845 84.715197,15.2060769 C85.4584918,14.4336349 85.8692273,13.3920276 85.8530957,12.3153663 C85.8655046,11.2236817 85.467178,10.1670512 84.737533,9.35955519 L84.737533,9.36331099 Z" id="Fill-1459"></path>
                <path d="M93.018974,16.9600227 C91.6725691,15.5984813 91,13.9511248 91,12.020365 C91,10.0871933 91.6713025,8.43621887 93.0139075,7.06382374 C94.3552459,5.69142861 96.0170363,5.0028191 97.998012,5.0028191 C99.3900148,5.0028191 100.693355,5.41405525 101.908032,6.23532158 C101.997962,5.89403176 102.191753,5.58650912 102.467873,5.35255073 C102.746527,5.11497442 103.108777,4.99196536 103.48116,5.00040716 C103.887742,5.0028191 104.272791,5.16683118 104.543845,5.45626424 C104.840231,5.73725551 105.00489,6.12075433 104.999824,6.51993077 L104.999824,17.5207993 C105.006157,17.9163578 104.841498,18.2962387 104.543845,18.5724061 C104.270257,18.8473675 103.885208,19.0029378 103.48496,18.9993199 C103.116377,19.0101736 102.754127,18.8907825 102.470407,18.6652659 C102.194286,18.4373373 101.999228,18.1346386 101.913099,17.7957607 C100.775684,18.5796419 99.4064807,19.0029378 98.0018118,18.9993199 C96.0221027,18.9993199 94.361579,18.3203581 93.018974,16.9600227 L93.018974,16.9600227 Z M94.1525886,12.020365 C94.1525886,13.149154 94.5097722,14.0982533 95.225406,14.8652509 C95.9410398,15.6334545 96.8631308,16.0169533 97.9891457,16.0133608 C99.1164273,16.0133608 100.047385,15.6322485 100.783284,14.8652509 C101.517917,14.1018712 101.885234,13.1551839 101.881463,12.0324247 C101.881463,10.9120776 101.510317,9.96056636 100.764285,9.17668514 C100.066384,8.40968751 99.0480305,7.97915582 97.9828127,7.99965733 C96.9289944,7.97553791 95.9207741,8.40245168 95.2330056,9.16100751 C94.5097722,9.93765291 94.1500554,10.8915761 94.1513186,12.020365 L94.1525886,12.020365 Z" id="Fill-1461"></path>
                <path d="M117.72623,6.54493269 C118.058042,6.75960718 118.286543,7.09850342 118.360684,7.48202301 C118.448195,7.87036675 118.382562,8.275595 118.17837,8.61569728 C117.962023,8.94615126 117.621703,9.17409215 117.232766,9.24645434 C116.836536,9.33208293 116.419643,9.24645434 116.091477,9.00886516 C115.036485,8.31901231 114.166237,7.97287985 113.479519,7.97287985 C112.795233,7.97287985 112.23492,8.14172495 111.799796,8.47700308 C111.497154,8.68202928 111.347656,8.86534682 111.347656,9.0233376 C111.339148,9.14394124 111.363457,9.26575092 111.418151,9.37067609 C111.497154,9.4768073 111.59925,9.56243589 111.715931,9.62394375 C112.129177,9.90615628 112.814679,10.128067 113.773653,10.2969121 L113.801608,10.3234449 L113.836856,10.3234449 C114.780029,10.4959081 115.698894,10.7781206 116.574003,11.1640523 C117.40171,11.5379236 118.013071,12.0504891 118.40687,12.7053669 C118.801885,13.3566266 119,14.00065 119,14.6350252 C119,15.9447808 118.40687,17.0278015 117.220611,17.8840874 C116.142525,18.6245938 114.861463,19.0129375 113.55123,18.9996711 C111.802227,18.9815806 110.12858,18.3363511 108.529075,17.0676007 C108.224002,16.8203632 108.036826,16.4621704 108.006441,16.0750327 C107.931084,15.258546 108.525429,14.5313061 109.347059,14.4348231 C109.74572,14.3901998 110.146812,14.5144215 110.445807,14.7773375 C111.461907,15.6179449 112.497452,16.0279973 113.548799,16.0099067 C114.228224,16.0207611 114.894279,15.8362375 115.467962,15.4768386 C115.807067,15.1970382 115.977227,14.960655 115.977227,14.7652771 C115.977227,14.5698992 115.948057,14.4336171 115.890931,14.3588428 C115.854469,14.265978 115.73171,14.1526106 115.523872,14.0235647 C115.072947,13.7051711 114.319381,13.4446672 113.266819,13.238435 L113.243726,13.238435 C112.339447,13.0804442 111.461907,12.8066739 110.630553,12.4231543 C109.903726,12.081846 109.282641,11.5487779 108.83901,10.8830458 C108.516921,10.3499777 108.349192,9.73731117 108.360131,9.1162024 C108.360131,7.90292973 108.914366,6.87659272 110.024053,6.03598531 C111.040152,5.34492642 112.200888,5 113.50869,5 C114.815276,5 116.221528,5.51497756 117.72623,6.54493269" id="Fill-1463"></path>
                <path d="M131.732307,6.53876346 C132.064119,6.75341855 132.29262,7.09228417 132.366761,7.47576911 C132.454272,7.86287183 132.388639,8.26926939 132.184447,8.60934094 C131.9681,8.93855914 131.62778,9.16647943 131.238843,9.24004101 C130.841397,9.32566186 130.42572,9.24004101 130.097554,9.00247329 C129.042562,8.31630056 128.172314,7.9714053 127.485597,7.9714053 C126.798879,7.9714053 126.237351,8.13902922 125.804658,8.47548299 C125.502016,8.68049066 125.352518,8.86379163 125.352518,9.01935628 C125.34401,9.14115495 125.367103,9.26295363 125.423013,9.37028117 C125.503231,9.47399094 125.604112,9.56081771 125.719578,9.62232002 C126.132824,9.90330112 126.820757,10.1263977 127.77973,10.2952275 L127.807685,10.3229639 L127.834425,10.3229639 C128.777598,10.4929997 129.697678,10.7751867 130.571572,11.1634953 C131.399279,11.5361269 132.01064,12.049852 132.405655,12.7034647 C132.80067,13.3546656 132.997569,13.9986308 133,14.6329487 C133,15.9437918 132.405655,17.0243029 131.21818,17.8817173 C130.142525,18.6233627 128.860247,19.0140832 127.550014,18.9996121 C125.802227,18.9827291 124.127365,18.3387638 122.529075,17.0701281 C122.225218,16.822913 122.036826,16.4647525 122.006441,16.0764439 C121.931084,15.2612369 122.525429,14.5328567 123.347059,14.4387944 C123.74572,14.3917632 124.144381,14.5135619 124.445807,14.7728363 C125.463122,15.6133677 126.496237,16.024589 127.548799,16.0065001 C128.228224,16.0161475 128.894279,15.8316406 129.469177,15.4734801 C129.807067,15.1949109 129.977227,14.9561372 129.977227,14.760777 C129.977227,14.5654167 129.948057,14.4291469 129.890931,14.3555854 C129.852038,14.261523 129.73171,14.1493718 129.525087,14.0191316 C129.072947,13.7007667 128.319381,13.4402864 127.266819,13.2328669 L127.238864,13.2328669 C126.337016,13.0773022 125.459476,12.8035567 124.628122,12.4212777 C123.901295,12.0800002 123.281426,11.5469803 122.837794,10.8825142 C122.51449,10.3482884 122.346761,9.73688313 122.3577,9.11583048 C122.3577,7.90146151 122.913151,6.87642315 124.021623,6.0358917 C125.038937,5.34489526 126.199672,5 127.506259,5 C128.812846,5 130.221528,5.5137251 131.732307,6.53876346" id="Fill-1465"></path>
                <path d="M11.9993731,0 C5.37276004,0 0,5.3740139 0,12.0018808 C0,18.62724 5.37276004,24 11.9993731,24 C18.6259861,24 24,18.62724 24,12.0018808 C24,5.3740139 18.62724,0 11.9993731,0 M18.0918447,19.0573115 C16.1370879,20.7387284 13.8600909,21.4935479 11.2646152,21.32177 C8.66788569,21.151246 6.53884332,20.0980095 4.87498041,18.1608066 C3.21237135,16.2261115 2.49516744,13.9654146 2.72587639,11.3837313 C2.95783919,8.79954025 4.04242203,6.65921321 5.98213259,4.96024241 C7.61590304,3.55592707 9.55435975,2.78856904 11.7962489,2.65942218 C12.3253748,2.62932971 12.8005851,2.80236142 13.219372,3.17600961 C13.6394128,3.55091166 13.8600909,4.00731414 13.8788987,4.54396322 C13.9064835,5.06305836 13.7259286,5.57086882 13.3773575,5.95705554 C13.0388172,6.35201923 12.5447991,6.58022047 12.025704,6.58022047 C10.6815736,6.68805183 9.48790554,7.19084687 8.44344601,8.08609791 C7.39898647,8.98260279 6.81092942,10.1888094 6.67927486,11.7084792 C6.54636644,13.2306567 6.9501071,14.53341 7.88548143,15.6230082 C8.82210961,16.7113526 10.0433624,17.3044251 11.5467321,17.4022256 C13.0501019,17.4987723 14.3290319,17.0962855 15.3822684,16.1897498 C16.4329972,15.2857217 17.1150933,14.1785696 17.4260488,12.8657855 C17.5163262,12.3629904 17.7921739,11.9617575 18.2548456,11.6633405 C18.6899326,11.3699389 19.2253278,11.2633614 19.7394076,11.368685 C20.2497257,11.4564547 20.6973512,11.7586333 20.9694373,12.1987357 C21.2590774,12.6463612 21.373178,13.185518 21.2891698,13.7121363 C20.7550285,15.9038713 19.6892534,17.6855964 18.0918447,19.0573115 M13.8513139,10.6502273 L12.2576668,13.56042 C12.2100204,13.6469359 12.1009352,13.6807899 12.0131655,13.6331435 C11.9617575,13.603051 11.9279035,13.5516431 11.9203803,13.492712 C11.8702262,13.0400711 11.8087874,12.4131446 11.7724257,11.9931038 C11.769918,11.9592498 11.7498563,11.9329189 11.71851,11.9216342 C11.2947077,11.7649026 10.6539888,11.5166397 10.2201557,11.3486234 C10.1399091,11.3235463 10.0960242,11.2370305 10.1211013,11.1580377 C10.1399091,11.1028682 10.1888094,11.0639987 10.2439789,11.0539679 C11.3511311,10.8194974 12.8883548,10.4972572 13.629382,10.3480487 C13.7422287,10.3242255 13.8513139,10.3982028 13.8738833,10.5097957 C13.8826603,10.5561883 13.8751371,10.6075963 13.8513139,10.6502273" id="Fill-1467"></path>
            </g>
        </g>
    </g>
</svg>