<?xml version="1.0" encoding="UTF-8"?>
<svg width="101px" height="21px" viewBox="0 0 101 21" version="1.1" xmlns="http://www.w3.org/2000/svg" xmlns:xlink="http://www.w3.org/1999/xlink">
    <!-- Generator: sketchtool 60.1 (101010) - https://sketch.com -->
    <title>81E16438-E317-42E8-8428-03D018E622A3</title>
    <desc>Created with sketchtool.</desc>
    <g id="Page-1" stroke="none" stroke-width="1" fill="none" fill-rule="evenodd">
        <g id="LP-DE-PATROCÃNIO" transform="translate(-326.000000, -3953.000000)">
            <g id="Group-61" transform="translate(326.000000, 3953.000000)">
                <path d="M49.3522446,15.6984835 L49.2025451,15.5486173 C47.9430894,14.2722569 48.6037469,12.9546833 49.2978084,12.2877788 L49.3819371,12.2078501 C50.0759986,11.5933988 54.6362672,7.32595897 54.9814422,7.00374665 L52.489749,7 C52.489749,7 49.7617533,9.55396967 48.0779427,11.1138269 C46.2592789,9.39161463 43.6512902,7 43.6512902,7 L41.0086603,7.00374665 C41.0779427,7.0661909 45.3511842,10.9702052 46.7306469,12.3589652 L46.7999293,12.4289028 C48.0235065,13.6715433 47.4333687,14.9504014 46.7615765,15.6347904 L46.6193001,15.7696699 C45.8980205,16.4066012 41,20.9937556 41,20.9937556 L43.650053,21 C43.650053,21 46.3780488,18.4447814 48.0593849,16.8861731 C49.8805232,18.6071365 52.5033581,20.9762712 52.5033581,20.9762712 L55,20.978769 C55,20.978769 50.8220219,17.1621766 49.3522446,15.6984835" id="Fill-1180" fill="#ADC752"></path>
                <path d="M46.2168233,12.3700169 C44.8300591,10.9853741 40.538049,7.0811558 40.4684622,7.01623116 L40.465977,7.01248551 L36.3703008,7 L43.8546023,13.9107286 L36,20.9987514 L40.465977,21 C40.465977,21 45.3792973,16.4178186 46.1049875,15.7798092 L46.2491314,15.6437171 C46.9213889,14.9595113 47.516604,13.6809953 46.28641,12.4399358 L46.2168233,12.3700169 Z" id="Fill-1182" fill="#00668F"></path>
                <path d="M13.0262055,7.67089972 C11.8819257,6.7551216 10.1865079,6.30981191 7.87503744,6.30981191 C2.57622043,6.30981191 0,8.67473344 0,13.5391758 C0,18.6300467 2.50239593,21 7.87503744,21 C10.2030548,21 11.9010183,20.5924284 13.0262055,19.7571583 L13.0262055,20.7370912 L17,20.7370912 L17,0 L13.0262055,0 L13.0262055,7.67089972 Z M13.0262055,14.8084342 C13.0262055,16.8123278 12.2675951,18.1469989 8.56109614,18.1469989 C5.06588799,18.1469989 4.05398323,17.1192644 4.05398323,13.574398 C4.05398323,10.1943213 5.10789158,9.16281299 8.56109614,9.16281299 C12.2803235,9.16281299 13.0262055,10.5125794 13.0262055,12.6938421 L13.0262055,14.8084342 Z" id="Fill-1184" fill="#00668F"></path>
                <path d="M28.0205593,7 C22.9230537,7 20,9.58517241 20,14.0941379 C20,18.807069 22.8045351,21 28.8235828,21 C31.5446712,21 33.0503401,20.837069 34.1520786,20.7187931 L34.4665155,20.6825862 L34.4665155,17.8512069 L34.0770975,17.8898276 C32.9681028,18.0044828 31.1951625,18.1372414 29.0545729,18.1372414 C25.5377173,18.1372414 24.2642479,17.4903448 23.9389267,15.4156897 L36,15.4156897 L36,13.9384483 C36,9.33413793 33.3151927,7 28.0205593,7 L28.0205593,7 Z M23.9824641,12.647069 C24.3210884,10.6013793 25.4869237,9.83137931 28.1342404,9.83137931 C30.8033258,9.83137931 31.888133,10.5760345 32.1179138,12.647069 L23.9824641,12.647069 Z" id="Fill-1186" fill="#00668F"></path>
                <path d="M93.5363515,7 C90.4188478,7 88.9298907,7.21360228 87.2057691,7.45737436 L86.7932877,7.51771399 L86.7932877,10.2848892 L87.2082842,10.2354107 C88.9801934,10.0193949 90.259137,9.86251185 93.2584296,9.86251185 C96.2174802,9.86251185 96.8927926,10.4465994 97.0499882,12.165072 C96.1005266,12.2833376 94.5839032,12.4317731 92.0071524,12.5234894 C88.6192722,12.6502026 85,13.0943022 85,16.7472632 C85,19.609775 87.1793602,21 91.6638371,21 C94.1022558,21 95.8490136,20.5740022 97.0738819,19.6749418 L97.0738819,20.7501939 L101,20.7501939 L101,12.9700026 C101,8.73174726 98.8382457,7 93.5363515,7 L93.5363515,7 Z M97.0738819,15.7468322 C97.0738819,17.3699681 95.4088658,18.2629946 92.3831643,18.2629946 C89.2556001,18.2629946 89.0066022,17.550987 89.0066022,16.62055 C89.0066022,15.5235756 89.4731588,15.1434359 92.2385444,15.0408585 C94.4883282,14.9551763 95.943331,14.846565 97.0738819,14.6727868 L97.0738819,15.7468322 Z" id="Fill-1188" fill="#00668F"></path>
                <path d="M83.3517835,7 C81.2927429,7 79.8856089,7.4430536 78.8425584,8.45133992 L78.8425584,7.09502821 L75,7.09502821 L75,21 L78.8425584,21 L78.8425584,13.5199224 C78.8425584,10.8838152 79.6875769,10.118653 82.6113161,10.118653 C83.7515375,10.118653 84.4292743,10.1680183 84.6088561,10.1803597 L85,10.2136812 L85,7.14192525 L84.6875769,7.09873061 C84.4526445,7.06664316 83.9594096,7 83.3517835,7" id="Fill-1190" fill="#00668F"></path>
                <path d="M66.7234043,3 L62.9264438,3 L62.9264438,6.76902117 L60,6.76902117 L60,9.65520855 L62.9264438,9.65520855 L62.9264438,15.1383358 C62.9264438,19.0834207 64.9349544,21 69.062614,21 C70.1580547,21 70.8705167,20.9182561 71.1951368,20.8666946 L71.5015198,20.8226787 L71.5015198,17.9100817 L71.1015198,17.9566129 C70.5507599,18.022008 70.0668693,18.0509327 69.4869301,18.0509327 C67.343465,18.0509327 66.7234043,17.349193 66.7234043,14.9107105 L66.7234043,9.65520855 L72,9.65520855 L72,6.76902117 L66.7234043,6.76902117 L66.7234043,3 Z" id="Fill-1192" fill="#00668F"></path>
                <path d="M54.5391035,7 L54.5154811,7.02122726 C54.171092,7.34338209 49.5908404,11.605066 48.8970889,12.2194078 L48.8088158,12.3005708 C48.1138211,12.9673564 47.4486651,14.2834463 48.7130831,15.559579 L48.8635203,15.7094185 C50.3392962,17.1728505 54.5391035,20.988762 54.5391035,20.988762 L56.0919629,20.992508 L58.634475,21 L51.1474297,14.088655 L59,7 L54.5391035,7 Z" id="Fill-1194" fill="#00668F"></path>
            </g>
        </g>
    </g>
</svg>