<?xml version="1.0" encoding="UTF-8"?>
<svg width="82px" height="32px" viewBox="0 0 82 32" version="1.1" xmlns="http://www.w3.org/2000/svg" xmlns:xlink="http://www.w3.org/1999/xlink">
    <!-- Generator: sketchtool 60.1 (101010) - https://sketch.com -->
    <title>C064BA49-C64C-4CE3-AF05-F1499CF6A00F</title>
    <desc>Created with sketchtool.</desc>
    <defs>
        <linearGradient x1="5.67419544%" y1="56.5887101%" x2="99.6489654%" y2="42.6200406%" id="linearGradient-1">
            <stop stop-color="#495160" offset="0%"></stop>
            <stop stop-color="#7E8AA4" offset="100%"></stop>
        </linearGradient>
    </defs>
    <g id="Page-1" stroke="none" stroke-width="1" fill="none" fill-rule="evenodd">
        <g id="LP-DE-PATROCÃNIO" transform="translate(-569.000000, -2838.000000)">
            <g id="Group-14" transform="translate(569.000000, 2838.000000)">
                <path d="M12.7891891,6.95793103 C13.7111022,6.64882759 14.6962109,6.48372414 15.7222109,6.48372414 C20.1967109,6.48372414 23.9302109,9.66662069 24.78645,13.8984828 L31.1270804,12.6024828 C29.6723413,5.41241379 23.3279935,1.12798659e-13 15.7222109,1.12798659e-13 C13.9787543,1.12798659e-13 12.3046891,0.285517241 10.7384283,0.80937931 L12.7891891,6.95793103 Z" id="Fill-17" fill="#FECB00"></path>
                <path d="M5.30595652,27.5464552 L9.59334783,22.6889379 C7.68013043,20.990731 6.47197826,18.5104552 6.47197826,15.7483862 C6.47197826,12.9875586 7.6788913,10.5097655 9.59086957,8.8128 L5.30223913,3.95528276 C2.052,6.84024828 -1.03739239e-12,11.0559724 -1.03739239e-12,15.7483862 C-1.03739239e-12,20.4445241 2.052,24.6614897 5.30595652,27.5464552" id="Fill-19" fill="#00A0DD"></path>
                <path d="M24.7842196,17.6080966 C23.9255022,21.8362345 20.1932413,25.0141655 15.7224587,25.0141655 C14.6952196,25.0141655 13.7076326,24.8478207 12.7857196,24.5374759 L10.7324804,30.6885103 C12.2999804,31.2123724 13.9765239,31.4966483 15.7224587,31.4966483 C23.3208065,31.4966483 29.6639152,26.0941655 31.12485,18.9103034 L24.7842196,17.6080966 Z" id="Fill-21" fill="#E53312"></path>
                <path d="M36.6720652,22.8942621 C36.4651304,22.5566069 36.1813696,22.0178483 36.0116087,21.6206069 C35.007913,19.2855724 34.959587,16.8686069 35.8071522,14.548469 C36.7402174,12.0036414 38.5208478,10.0559172 40.8231522,9.06405517 C43.7165217,7.81646897 46.9159565,8.06226207 49.6891304,9.71081379 C51.4511739,10.7225379 52.6989783,12.2854345 53.6481522,14.496331 C53.7683478,14.7793655 53.874913,15.0822621 53.9777609,15.3379862 L36.6720652,22.8942621 Z M42.4513696,12.8130207 C40.3956522,13.6981241 39.3361957,15.628469 39.5555217,17.8915034 L48.2591739,14.1400552 C46.7623043,12.3772966 44.8143913,11.7938483 42.4513696,12.8130207 L42.4513696,12.8130207 Z M49.3446522,20.9775724 C49.3421739,20.9800552 49.3409348,20.9812966 49.3384565,20.9825379 L49.1587826,20.8608828 C48.639587,21.7050207 47.8291957,22.3890207 46.8056739,22.8334345 C44.8602391,23.6812966 43.0585435,23.4628138 41.762413,22.3257103 L41.6434565,22.5069517 C41.6422174,22.5057103 41.6422174,22.5032276 41.6397391,22.5032276 L39.4328478,25.8127448 C39.9793043,26.1950897 40.5691304,26.5178483 41.1874565,26.7760552 C43.6260652,27.7915034 46.1216739,27.744331 48.5801087,26.6730207 C50.3582609,25.9008828 51.7535217,24.7240552 52.7076522,23.2306759 L49.3446522,20.9775724 Z" id="Fill-23" fill="#1D1D1B"></path>
                <path d="M60.028063,4.1894069 L60.028063,22.589131 L62.8830196,23.7485793 L61.2609978,27.5409931 L58.10865,26.2263724 C57.4011065,25.9197517 56.9203239,25.449269 56.5560196,24.9192 C56.2065848,24.3779586 55.9463674,23.6368552 55.9463674,22.6387862 L55.9463674,4.1894069 L60.028063,4.1894069 Z" id="Fill-25" fill="#1D1D1B"></path>
                <path d="M67.4240609,17.9018069 C67.4265391,16.3351862 68.1167348,14.9299448 69.2084087,13.9753241 L66.2803435,10.7030483 C64.2940174,12.4620828 63.0412565,15.0329793 63.0387746,17.8968414 C63.0363,20.7619448 64.2865826,23.3365655 66.2704304,25.1005655 L69.1972565,21.8245655 C68.1093,20.8649793 67.4240609,19.4647034 67.4240609,17.9018069" id="Fill-27" fill="#1D1D1B"></path>
                <path d="M72.6298957,23.1234207 C72.0524609,23.1221793 71.4973304,23.0265931 70.9793739,22.8540414 L69.5803957,27.0201103 C70.5370043,27.342869 71.5605261,27.5179034 72.6249391,27.519148 C77.2630043,27.522869 81.1377652,24.2257655 82.0336565,19.8436966 L77.7338739,18.9635586 C77.2444174,21.3395586 75.1440913,23.1259034 72.6298957,23.1234207" id="Fill-29" fill="#1D1D1B"></path>
                <path d="M72.6420391,8.29290374 C71.5788652,8.29166897 70.5553435,8.46546207 69.5999739,8.78325517 L70.9878,12.9542897 C71.5057565,12.7829793 72.0621261,12.6873931 72.6383217,12.6873931 C75.1599522,12.6898759 77.2602783,14.4861517 77.7373435,16.8683586 L82.0383652,15.9944276 C81.1536261,11.6061517 77.2850609,8.29663448 72.6420391,8.29290374" id="Fill-31" fill="#1D1D1B"></path>
            </g>
        </g>
    </g>
</svg>