<?xml version="1.0" encoding="UTF-8"?>
<svg width="121px" height="36px" viewBox="0 0 121 36" version="1.1" xmlns="http://www.w3.org/2000/svg" xmlns:xlink="http://www.w3.org/1999/xlink">
    <!-- Generator: sketchtool 60.1 (101010) - https://sketch.com -->
    <title>087E2263-3408-4807-8280-80AE3C30B1F8</title>
    <desc>Created with sketchtool.</desc>
    <g id="Page-1" stroke="none" stroke-width="1" fill="none" fill-rule="evenodd">
        <g id="LP-DE-PATROCÃNIO" transform="translate(-782.000000, -2835.000000)">
            <g id="Group-18" transform="translate(782.000000, 2835.000000)">
                <g id="Group-299">
                    <path d="M13.4033429,10.2388867 L13.4033429,10.2388867 L13.4033429,0.54612 L23.1006286,0.54612 L23.0327204,0.570786667 C18.3927408,1.95088667 14.7664449,5.59168667 13.4033429,10.2388867" id="Fill-279" fill="#820366"></path>
                    <path d="M0.662166327,22.9660233 L0.662166327,22.9660233 L0.662166327,13.2794233 L10.359452,13.2794233 L10.2915439,13.30409 C5.65156429,14.6780233 2.02526837,18.3188233 0.662166327,22.9660233" id="Fill-281" fill="#08A1A6"></path>
                    <path d="M0.662166327,10.2388867 L0.662166327,10.2388867 L0.662166327,0.54612 L10.359452,0.54612 L10.2915439,0.570786667 C5.65156429,1.95088667 2.02526837,5.59168667 0.662166327,10.2388867" id="Fill-283" fill="#DE3B03"></path>
                    <path d="M34.0494,16.2469467 C35.0680224,16.2469467 35.9026755,15.4317133 35.9150224,14.42038 L35.9150224,14.3587133 C35.9150224,13.79508 35.8594612,13.23638 35.7619204,12.6974133 C35.0680224,8.88394667 31.6985429,5.34674667 27.7709816,5.34674667 C22.2222673,5.34674667 18.6144918,9.37481333 18.6144918,14.46848 C18.6144918,19.04908 21.9531041,22.8440467 26.3350327,23.56678 C26.8252061,23.6469467 27.3289612,23.68888 27.8450633,23.68888 C30.3058082,23.68888 32.5393694,22.72688 34.1901551,21.15808 C34.2086755,21.13958 34.2271959,21.12108 34.2518898,21.10258 C34.2518898,21.0964133 34.2580633,21.0964133 34.2580633,21.0964133 C34.5469816,20.8078133 34.7247776,20.4094467 34.7247776,19.9679133 C34.7247776,19.69288 34.6568694,19.4289467 34.5284612,19.2020133 C34.2580633,18.70498 33.730849,18.36828 33.1221449,18.36828 C32.686298,18.36828 32.2874918,18.54588 31.9998082,18.8283133 L31.9936347,18.83448 C30.9071041,19.87048 29.4464612,20.49578 27.8450633,20.49578 C25.2855429,20.49578 23.1001347,18.9072467 22.2222673,16.6576467 C22.1432469,16.4615467 22.296349,16.24078 22.5111857,16.24078 L34.0494,16.24078 L34.0494,16.2469467 Z M22.5914408,12.6974133 C22.4185837,12.6974133 22.296349,12.52598 22.3580837,12.36688 C23.0692673,10.3368133 24.9966245,8.87778 27.2734,8.87778 C29.5328898,8.87778 31.4528388,10.3121467 32.1714306,12.3237133 C32.2393388,12.50748 32.097349,12.6974133 31.9072061,12.6974133 L22.5914408,12.6974133 Z" id="Fill-285" fill="#6B6E70"></path>
                    <path d="M55.5424571,21.8809367 L55.5424571,21.8809367 C55.5424571,22.0462033 55.5239367,22.2546367 55.4683755,22.4137367 C55.2053857,23.14387 54.5485286,23.66557 53.7620286,23.78767 C53.6583143,23.80617 53.5484265,23.8123367 53.4373041,23.8123367 C52.3878143,23.8123367 51.5161204,23.0637033 51.3259776,22.07087 C51.3074571,21.96727 51.3012837,21.8624367 51.3012837,21.7588367 L51.3012837,13.0897367 C51.3012837,11.0054033 49.8036,9.25160333 47.8342633,8.84707 C47.5515184,8.78540333 47.2626,8.76197 46.9625694,8.76197 C46.6193245,8.76197 46.2871918,8.80390333 45.9624673,8.88407 C44.0536306,9.33793667 42.6238551,11.0609033 42.6238551,13.0959033 L42.6238551,21.5985033 C42.6238551,21.8501033 42.5929878,22.1017033 42.5003857,22.34097 C42.2003551,23.16237 41.4076816,23.7445033 40.4816612,23.7445033 C40.4384469,23.7445033 40.3890592,23.7383367 40.3458449,23.7383367 C39.7692429,23.7013367 39.2543755,23.4386367 38.885202,23.0341033 C38.2110592,22.2916367 38.2110592,21.12737 38.9654571,20.4589033 C38.9963245,20.42807 39.0333653,20.4034033 39.0642327,20.37257 L39.0642327,8.87173667 C38.5543041,8.47953667 38.2530388,7.83573667 38.3456408,7.12410333 C38.4493551,6.35203667 39.0580592,5.74523667 39.8124571,5.55530333 C41.531151,5.11993667 42.4028449,7.00200333 42.4028449,7.00200333 C42.4028449,7.00200333 44.2993347,5.34687 47.532998,5.37770333 C49.8838551,5.39620333 51.9766612,6.51113667 53.296549,8.26493667 C54.1065082,9.33177 54.615202,10.6317033 54.720151,12.0414033 L54.720151,20.35407 C55.2288449,20.6550033 55.5424571,21.23097 55.5424571,21.8809367" id="Fill-287" fill="#6B6E70"></path>
                    <path d="M66.921149,5.34674667 C61.839149,5.34674667 57.7152714,9.45991333 57.7152714,14.54248 C57.7152714,19.61888 61.839149,23.7382133 66.921149,23.7382133 C72.003149,23.7382133 76.1270265,19.61888 76.1270265,14.54248 C76.1270265,9.46608 72.003149,5.34674667 66.921149,5.34674667 M66.921149,20.4834467 C63.638098,20.4834467 60.9736286,17.8219133 60.9736286,14.54248 C60.9736286,11.2630467 63.638098,8.60151333 66.921149,8.60151333 C70.2042,8.60151333 72.8686694,11.2630467 72.8686694,14.54248 C72.8686694,17.8219133 70.2103735,20.4834467 66.921149,20.4834467" id="Fill-289" fill="#6B6E70"></path>
                    <path d="M89.0708163,21.9851533 C89.0708163,22.9594867 88.2793776,23.7574533 87.2965612,23.7574533 L84.6456735,23.7574533 C81.8231633,23.7574533 79.5760204,21.9419867 79.6130612,18.06192 L79.5513265,8.89578667 L79.5389796,8.89578667 L79.5266327,8.89578667 C78.5512245,8.89578667 77.7536122,8.10522 77.7536122,7.12472 C77.7536122,6.15038667 78.545051,5.35242 79.5266327,5.35242 L79.5513265,5.35242 L79.5513265,3.77745333 C79.5513265,3.64795333 79.5031735,3.52585333 79.4167449,3.43458667 C79.1043673,3.09665333 78.9438571,2.66128667 78.9438571,2.22592 C78.9438571,1.74862 79.134,1.27625333 79.5093469,0.932153333 C79.7723367,0.687953333 80.085949,0.539953333 80.4168469,0.485686667 C80.4353673,0.47952 80.4600612,0.47952 80.4847551,0.473353333 C81.933051,0.28342 83.0936633,1.60678667 83.0936633,3.34825333 L83.1047755,5.35242 L85.9717347,5.35242 C86.9471429,5.35242 87.7385816,6.14422 87.7385816,7.11855333 C87.7385816,8.09288667 86.9471429,8.88468667 85.9717347,8.88468667 L83.110949,8.88468667 L83.110949,18.3862867 C83.110949,19.3914533 83.9283163,20.2128533 84.9407653,20.2128533 L87.3212551,20.2128533 C88.2732041,20.2128533 89.0708163,21.0046533 89.0708163,21.9851533" id="Fill-291" fill="#6B6E70"></path>
                    <path d="M105.45755,20.58125 C105.322968,20.4468167 105.248887,20.2568833 105.248887,20.05955 L105.248887,10.7047167 C105.248887,8.04441667 103.259795,5.35328333 98.1172949,5.35328333 C93.0167745,5.35328333 92.3475704,6.87891667 92.3426316,6.89741667 C92.1389071,7.22918333 92.0598867,7.65838333 92.1512541,8.09375 C92.2870704,8.73138333 92.8081112,9.23335 93.4526214,9.35051667 C93.8267337,9.41711667 94.1835602,9.35668333 94.4897643,9.19635 C94.6984276,9.08658333 94.9194378,8.98791667 95.1466214,8.92131667 C95.8158255,8.72521667 96.8406214,8.53405 98.2210092,8.61421667 C100.885479,8.76715 101.775693,9.71188333 101.701611,11.50145 C101.701611,11.50145 96.2516724,9.95731667 92.9315806,12.62995 C89.6114888,15.3025833 89.5497541,20.13355 93.0908561,22.70875 C96.08005,24.8781833 100.499019,23.0516167 101.811499,22.42015 C101.978183,22.3412167 102.174499,22.42015 102.241172,22.59775 C102.542438,23.4314833 103.401785,23.99635 104.364846,23.84835 C105.193326,23.72625 105.86253,23.0516167 105.984764,22.22405 C106.08354,21.58025 105.86253,20.99195 105.45755,20.58125 M100.755836,19.13455 C99.5038561,20.3358167 97.6505806,20.8760167 95.8034786,20.2803167 C94.0662643,19.72285 92.8142847,17.0687167 95.140448,15.2174833 C97.1110194,13.64745 100.492846,14.68345 101.474428,15.0324833 C101.64605,15.09415 101.763346,15.25325 101.769519,15.4320833 C101.792979,16.1794833 101.763346,18.17255 100.755836,19.13455" id="Fill-293" fill="#6B6E70"></path>
                    <path d="M111.729918,10.2757633 C111.804,8.10509667 115.461163,7.97683 117.229245,9.46669667 C117.634224,9.80956333 118.149092,10.0364967 118.739276,9.93906333 C119.493673,9.80956333 120.082622,9.17809667 120.162878,8.42453 C120.235724,7.71906333 119.764071,6.95933 119.272663,6.63373 C118.394796,6.04543 117.173684,5.34736333 114.62651,5.34736333 C114.62651,5.34736333 108.341918,5.08959667 108.232031,10.4841967 C108.127082,15.8479633 117.523102,14.92913 117.450255,18.5279967 C117.413214,20.32373 115.651306,20.4100633 114.374633,20.39773 C112.031184,20.37923 111.300245,19.0052967 109.913684,19.1532967 C109.06051,19.2445633 108.581449,19.8636967 108.477735,20.5999967 C108.385133,21.2499633 108.674051,21.8135967 109.108663,22.2119633 C109.802561,22.8495967 111.428653,23.7881633 114.374633,23.7881633 C118.966459,23.7881633 120.861714,21.7765967 120.991357,19.30623 C121.346949,12.4710967 111.624969,13.3467633 111.729918,10.2757633" id="Fill-295" fill="#6B6E70"></path>
                    <path d="M69.7810704,32.5419933 L69.7810704,35.5463933 C69.4983255,35.6869933 69.1489071,35.79676 68.7439276,35.8830933 C68.338948,35.96326 67.9216214,36.0051933 67.5042949,36.0051933 C66.8597847,36.0051933 66.3017031,35.8769267 65.8226418,35.61916 C65.3497541,35.3626267 64.9879888,34.99386 64.7361112,34.5103933 C64.4842337,34.0256933 64.3558255,33.4558933 64.3558255,32.7935933 C64.3558255,32.13746 64.4842337,31.56766 64.7361112,31.08296 C64.9879888,30.59826 65.3435806,30.2307267 65.8102949,29.97296 C66.2770092,29.7151933 66.8227439,29.5869267 67.4487337,29.5869267 C67.8845806,29.5869267 68.3019071,29.6485933 68.6821929,29.77686 C69.068652,29.90636 69.3884378,30.08396 69.6403153,30.3232267 L69.2587949,31.1507933 C68.9711112,30.92386 68.6821929,30.76476 68.4006827,30.6660933 C68.1179378,30.5674267 67.810499,30.5193267 67.4734276,30.5193267 C66.8289173,30.5193267 66.3375092,30.70926 66.0127847,31.0891267 C65.6818867,31.4689933 65.5213765,32.0387933 65.5213765,32.7874267 C65.5213765,34.3266267 66.1967541,35.0986933 67.5475092,35.0986933 C67.9524888,35.0986933 68.3512949,35.0431933 68.7562745,34.92726 L68.7562745,33.3572267 L67.4055194,33.3572267 L67.4055194,32.5419933 L69.7810704,32.5419933 Z" id="Fill-297" fill="#6B6E70"></path>
                </g>
                <path d="M78.7960366,36 L78.1260049,34.595468 L74.893625,34.595468 L74.2235932,36 L73,36 L76.0059824,30 L76.9940176,30 L80,36 L78.7960366,36 Z M75.2901477,33.7430542 L77.7229389,33.7430542 L76.505889,31.1869951 L75.2901477,33.7430542 Z" id="Fill-300" fill="#6B6E70"></path>
                <polygon id="Fill-301" fill="#6B6E70" points="82.9552415 36 82.9552415 30.8985222 81 30.8985222 81 30 86 30 86 30.8985222 84.0506478 30.8985222 84.0506478 36"></polygon>
                <polygon id="Fill-302" fill="#6B6E70" points="89 36 89 30 93 30 93 30.8701478 90.0705882 30.8701478 90.0705882 32.5205911 92.8305882 32.5205911 92.8305882 33.3789163 90.0705882 33.3789163 90.0705882 35.1298522 93 35.1298522 93 36"></polygon>
                <polygon id="Fill-303" fill="#6B6E70" points="104.958143 30 106 30 103.89274 36 103.003924 36 101.499411 31.6870936 99.9901897 36 99.1001962 36 97 30 98.0995422 30 99.5863963 34.466601 101.142708 30 101.914977 30 103.437148 34.4961576"></polygon>
                <path d="M112.796037,36 L112.126005,34.595468 L108.893625,34.595468 L108.223593,36 L107,36 L110.005982,30 L110.994018,30 L114,36 L112.796037,36 Z M109.290148,33.7430542 L111.722939,33.7430542 L110.505889,31.1869951 L109.290148,33.7430542 Z" id="Fill-304" fill="#6B6E70"></path>
                <polygon id="Fill-305" fill="#6B6E70" points="121 30 118.55 33.2323153 118.55 36 117.444048 36 117.444048 33.2323153 115 30 116.242857 30 117.988095 32.3562562 119.75119 30"></polygon>
            </g>
        </g>
    </g>
</svg>