<?xml version="1.0" encoding="UTF-8"?>
<svg width="94px" height="22px" viewBox="0 0 94 22" version="1.1" xmlns="http://www.w3.org/2000/svg" xmlns:xlink="http://www.w3.org/1999/xlink">
    <!-- Generator: sketchtool 60.1 (101010) - https://sketch.com -->
    <title>B940DA5C-88AA-43C1-A85C-C7FC4B3215F6</title>
    <desc>Created with sketchtool.</desc>
    <g id="Page-1" stroke="none" stroke-width="1" fill="none" fill-rule="evenodd">
        <g id="LP-DE-PATROCÃNIO" transform="translate(-562.000000, -2943.000000)" fill="#00A8AA">
            <path d="M644.575825,2943 L632.168752,2943 C630.261211,2943 628.242118,2944.31254 627.483564,2946.0422 L621.230449,2960.25994 L614.959981,2946.0422 C614.202666,2944.31254 612.182334,2943 610.276032,2943 L605.219003,2943 C604.719498,2943 604.315431,2943.4 604.315431,2943.89664 L604.315431,2959.42691 L592.892496,2944.28073 C591.744749,2942.77615 590.564775,2942.9682 590.11237,2943.11254 C589.659964,2943.25566 588.610135,2943.81713 588.610135,2945.70581 L588.610135,2960.86911 C588.610135,2961.23609 588.286634,2961.54067 587.930906,2961.54067 L571.824022,2961.54067 C571.450942,2961.54067 571.144794,2961.23609 571.144794,2960.86911 L571.144794,2955.47217 L579.821068,2955.47217 C580.709767,2955.47217 581.437334,2954.75168 581.437334,2953.87095 C581.437334,2952.97554 580.709767,2952.27095 579.821068,2952.27095 L571.144794,2952.27095 L571.144794,2946.87401 C571.144794,2946.50581 571.450942,2946.20245 571.824022,2946.20245 L582.616068,2946.20245 C583.52088,2946.20245 584.231095,2945.48196 584.231095,2944.60122 C584.231095,2943.72049 583.52088,2943 582.616068,2943 L571.824022,2943 C569.658672,2943 567.913501,2944.72966 567.913501,2946.87401 L567.913501,2952.27095 L563.616266,2952.27095 C562.727568,2952.27095 562,2952.97554 562,2953.87095 C562,2954.75168 562.727568,2955.47217 563.616266,2955.47217 L567.913501,2955.47217 L567.913501,2960.86911 C567.913501,2962.99755 569.658672,2964.74312 571.824022,2964.74312 L587.930906,2964.74312 C590.080143,2964.74312 591.841427,2962.99755 591.841427,2960.86911 L591.841427,2948.23547 L603.264363,2963.38287 C604.41211,2964.88746 605.590844,2964.71131 606.04325,2964.55107 C606.495655,2964.40673 607.545485,2963.86239 607.545485,2961.97248 C607.545485,2961.97248 607.539287,2946.46055 607.539287,2946.20489 C607.861549,2946.20489 610.276032,2946.20245 610.276032,2946.20245 C610.890808,2946.20245 611.746041,2946.76269 612.006329,2947.32294 L618.839515,2962.83853 C619.565843,2964.47156 620.745817,2964.64771 621.230449,2964.64771 C621.715081,2964.64771 622.911167,2964.47156 623.637495,2962.83853 L630.439695,2947.32294 C630.68263,2946.76269 631.537863,2946.20245 632.168752,2946.20245 L637.079524,2946.20245 C635.060431,2948.20367 633.801131,2950.95719 633.801131,2953.99939 C633.801131,2960.05199 638.792468,2965 644.899326,2965 C651.023537,2965 656,2960.05199 656,2953.99939 C656,2948.36269 651.720118,2943.70581 646.203246,2943.09419 C645.735967,2943.04159 645.025752,2943 644.575825,2943 M644.899326,2961.79755 C640.571105,2961.79755 637.031184,2958.29052 637.031184,2953.99939 C637.031184,2949.69235 640.571105,2946.20245 644.899326,2946.20245 C649.247379,2946.20245 652.767468,2949.69235 652.767468,2953.99939 C652.767468,2958.29052 649.247379,2961.79755 644.899326,2961.79755" id="Fill-151"></path>
        </g>
    </g>
</svg>