<?xml version="1.0" encoding="UTF-8"?>
<svg width="134px" height="24px" viewBox="0 0 134 24" version="1.1" xmlns="http://www.w3.org/2000/svg" xmlns:xlink="http://www.w3.org/1999/xlink">
    <!-- Generator: sketchtool 60.1 (101010) - https://sketch.com -->
    <title>DD6DCAA0-42D3-4BD9-B822-713F71B7323A</title>
    <desc>Created with sketchtool.</desc>
    <defs>
        <polygon id="path-1" points="0 0.7 23.981694 0.7 23.981694 9.7175 0 9.7175"></polygon>
    </defs>
    <g id="Page-1" stroke="none" stroke-width="1" fill="none" fill-rule="evenodd">
        <g id="LP-DE-PATROCÃNIO" transform="translate(-543.000000, -3851.000000)">
            <g id="Group-59" transform="translate(543.000000, 3851.000000)">
                <g id="Group-58">
                    <path d="M98.0810444,5.19623768 C96.2628361,5.19623768 94.8408231,5.58375635 93.6547607,6.81654225 L93.6017665,6.78895193 L93.6017665,1 C93.5954576,1 91,1.64586444 91,1.64586444 L91,18.1348462 L91,19.092983 L91,21.6751866 L92.6226342,21.6751866 L93.2762302,20.0636608 L93.277492,20.0624067 C94.2932156,21.287668 95.7694846,22 97.7782199,22 C101.937009,22 104,19.6523141 104,13.5209913 C104,7.33574201 101.90925,5.19623768 98.0810444,5.19623768 M97.4211395,19.7401015 C95.4111424,19.7401015 94.2616714,18.8684981 93.6017665,17.8012541 L93.6017665,9.39874589 C94.4547219,8.16721409 95.658449,7.44610331 97.3921188,7.44610331 C100.091041,7.44610331 101.404542,8.62245446 101.404542,13.576172 C101.404542,18.6402508 99.9812676,19.7401015 97.4211395,19.7401015" id="Fill-1020" fill="#00004F"></path>
                    <polygon id="Fill-1022" fill="#00004F" points="112 21 115 21 115 1 112 1.62469675"></polygon>
                    <polygon id="Fill-1023" fill="#00004F" points="106 3 109 3 109 0 106 0.751091703"></polygon>
                    <polygon id="Fill-1024" fill="#00004F" points="119 3 122 3 122 0 119 0.751091703"></polygon>
                    <polygon id="Fill-1025" fill="#00004F" points="106 21 109 21 109 6 106 6"></polygon>
                    <polygon id="Fill-1026" fill="#00004F" points="119 21 122 21 122 6 119 6"></polygon>
                    <path d="M50.9904679,12.156375 L50.9904679,12.156375 C50.9892307,6.948875 48.5135749,4.772625 44.754933,4.772625 C40.4123284,4.772625 38.2397888,7.521375 38.2397888,12.623875 C38.2397888,18.707625 40.3851098,21.517625 45.5752028,21.517625 C47.4372028,21.517625 49.0443377,20.941375 50.3520679,20.235125 L50.3520679,17.973875 C49.0096958,18.650125 47.4409144,19.263875 45.8671842,19.263875 C42.4896028,19.263875 40.9319563,17.715125 40.7896772,13.467625 L50.9904679,13.467625 L50.9904679,12.156375 Z M44.7821516,7.023875 C47.0586167,7.023875 48.3861423,8.097625 48.4381051,11.533875 L40.7896772,11.533875 L40.7896772,11.533875 C40.9876307,8.456375 42.1617423,7.023875 44.7821516,7.023875 L44.7821516,7.023875 Z" id="Fill-1027" fill="#00004F"></path>
                    <path d="M70.1151256,0.58575 L68.2011628,1.2295 L67.5652372,5.7395 L65.0153488,5.7395 L65.0153488,7.67075 L67.5652372,7.67075 L67.5652372,17.07075 C67.5652372,19.96325 68.9979256,21.5195 71.7507163,21.5195 C72.5858326,21.5195 73.4444558,21.3645 73.941814,21.13325 L73.941814,19.00075 C73.6189023,19.17075 72.9198791,19.2645 72.4781953,19.2645 C71.0182884,19.2645 70.1151256,18.682 70.1151256,16.9895 L70.1151256,7.67075 L73.941814,7.67075 L73.941814,5.7395 L70.1151256,5.7395 L70.1151256,0.58575 Z" id="Fill-1029" fill="#00004F"></path>
                    <path d="M81.8130633,4.771625 C79.9708586,4.771625 78.3031005,5.085375 76.8097888,5.741625 L76.8097888,7.997875 C78.2239191,7.332875 79.7023842,7.029125 81.3812772,7.029125 C84.0004493,7.029125 85.0953795,7.856625 85.0953795,10.421625 L85.0953795,10.815375 L85.0966167,10.815375 L85.0966167,12.149125 C84.1031377,11.799125 82.7954074,11.532875 81.4357144,11.532875 C77.6003656,11.532875 75.5305144,13.284125 75.5305144,16.340375 C75.5305144,19.996625 77.6548028,21.516625 80.5981237,21.516625 C82.5628121,21.516625 84.2379935,20.767875 85.2129144,19.510375 C85.3044679,19.545375 85.4145795,19.587875 85.4145795,19.587875 L86.0566912,21.194125 L87.6465051,21.194125 L87.6465051,18.620375 L87.6465051,17.665375 L87.6465051,11.660375 L87.6465051,10.891625 L87.6465051,10.801625 C87.6465051,6.519125 86.0529795,4.771625 81.8130633,4.771625 M81.3008586,19.265375 C79.4376214,19.265375 78.08164,18.631625 78.08164,16.314125 C78.08164,14.376625 79.2211098,13.464125 81.8947191,13.464125 C83.5006167,13.464125 84.6809144,13.811625 85.0966167,14.056625 L85.0966167,17.442875 C84.9778447,18.396625 83.2296679,19.265375 81.3008586,19.265375" id="Fill-1031" fill="#00004F"></path>
                    <path d="M55.4567935,9.0765 C55.4567935,7.74025 56.7199842,7.02525 58.6364214,7.02525 C59.9095098,7.02525 61.7566633,7.43525 63.102747,7.9915 L63.102747,5.739 C61.8123377,5.149 60.1891191,4.7715 58.6364214,4.7715 C54.9384028,4.7715 52.9007191,6.4565 52.9007191,9.214 C52.9007191,14.69775 61.187547,13.009 61.187547,16.6915 C61.187547,18.22025 60.3932586,19.26525 58.0425609,19.26525 C56.5393516,19.26525 54.7552958,18.86025 53.5403563,17.9765 L53.5403563,20.23525 C54.7491098,20.95775 56.3537702,21.51775 58.0685423,21.51775 C62.0375098,21.51775 63.7399098,19.47275 63.7399098,16.4165 C63.7399098,10.7415 55.4567935,12.54275 55.4567935,9.0765" id="Fill-1033" fill="#00004F"></path>
                    <path d="M125.583054,9.0765 C125.583054,7.74025 126.845007,7.02525 128.762682,7.02525 C130.03577,7.02525 131.882924,7.43525 133.229007,7.9915 L133.229007,5.739 C131.937361,5.149 130.31538,4.7715 128.762682,4.7715 C125.064663,4.7715 123.02698,6.4565 123.02698,9.214 C123.02698,14.69775 131.31257,13.009 131.31257,16.6915 C131.31257,18.22025 130.517045,19.26525 128.167584,19.26525 C126.665612,19.26525 124.881556,18.86025 123.666617,17.9765 L123.666617,20.23525 C124.87537,20.95775 126.477556,21.51775 128.194803,21.51775 C132.16377,21.51775 133.86617,19.47275 133.86617,16.4165 C133.86617,10.7415 125.583054,12.54275 125.583054,9.0765" id="Fill-1035" fill="#00004F"></path>
                    <path d="M8.51026791,10.246625 C9.38497488,6.484125 12.6945098,3.805375 16.5756353,3.805375 C20.4555237,3.805375 23.761347,6.484125 24.636054,10.246625 L28.0495144,10.246625 L28.0495144,0.585375 L5.09928186,0.585375 L5.09928186,10.246625 L8.51026791,10.246625 Z" id="Fill-1037" fill="#00004F"></path>
                    <path d="M24.6386521,14.111125 C23.7639451,17.874875 20.4544102,20.552375 16.5732847,20.552375 C12.6946335,20.552375 9.38757302,17.873625 8.51286605,14.111125 L5.09940558,14.111125 L5.09940558,23.772375 L28.0496381,23.772375 L28.0496381,14.111125 L24.6386521,14.111125 Z" id="Fill-1039" fill="#00004F"></path>
                    <path d="M21.0371358,12.179375 C21.0371358,14.668125 19.0390428,16.688125 16.5745219,16.688125 C14.1100009,16.688125 12.1119079,14.668125 12.1119079,12.179375 C12.1119079,9.689375 14.1100009,7.670625 16.5745219,7.670625 C19.0390428,7.670625 21.0371358,9.689375 21.0371358,12.179375" id="Fill-1041" fill="#00004F"></path>
                    <g id="Group-1045" transform="translate(-0.000000, 3.750000)">
                        <mask id="mask-2" fill="white">
                            <use xlink:href="#path-1"></use>
                        </mask>
                        <g id="Clip-1044"></g>
                        <path d="M2.54951721,7.14125 L-0.000371162791,9.7175 L10.1991823,9.7175 C10.664373,9.7175 11.479694,9.36125 11.479694,8.3225 C11.5353684,5.58625 13.7895637,3.2775 16.5745219,3.2775 C18.9697591,3.2775 20.9567172,4.9875 21.5060381,7.14 L21.5060381,7.14125 C21.5085126,7.1475 21.5097498,7.15375 21.5122242,7.15875 C21.8623544,6.755 22.3770335,6.4975 22.9486242,6.4975 L23.981694,6.4975 C23.2467916,3.4575 20.3566707,0.7 16.5745219,0.7 C12.792373,0.7 9.63872651,3.485 9.03125674,7.14125 L2.54951721,7.14125 Z" id="Fill-1043" fill="#80BAA6" mask="url(#mask-2)"></path>
                    </g>
                    <path d="M30.5996502,13.467625 L33.1495386,10.891375 L22.9499851,10.891375 C22.4847944,10.891375 21.6694735,11.247625 21.6694735,12.285125 C21.6137991,15.021375 19.3596037,17.331375 16.5746456,17.331375 C14.1794084,17.331375 12.1924502,15.620125 11.6431293,13.467625 C11.6394177,13.461375 11.6381805,13.455125 11.6369433,13.450125 C11.286813,13.853875 10.772134,14.111375 10.2005433,14.111375 L9.16747349,14.111375 C9.90237581,17.150125 12.7924967,19.908875 16.5746456,19.908875 C20.3567944,19.908875 23.5104409,17.121375 24.1179107,13.467625 L30.5996502,13.467625 Z" id="Fill-1046" fill="#455496"></path>
                </g>
            </g>
        </g>
    </g>
</svg>