<?xml version="1.0" encoding="UTF-8"?>
<svg width="134px" height="27px" viewBox="0 0 134 27" version="1.1" xmlns="http://www.w3.org/2000/svg" xmlns:xlink="http://www.w3.org/1999/xlink">
    <!-- Generator: sketchtool 60.1 (101010) - https://sketch.com -->
    <title>8DB87FB6-714A-465A-9441-2A465818D3C2</title>
    <desc>Created with sketchtool.</desc>
    <g id="Page-1" stroke="none" stroke-width="1" fill="none" fill-rule="evenodd">
        <g id="LP-DE-PATROCÃNIO" transform="translate(-777.000000, -2940.000000)">
            <g id="Group-23" transform="translate(776.000000, 2940.000000)">
                <path d="M13.4565,10.5275 L13.5435,10.4725 L13.4565,10.5275 Z" id="Fill-345" fill="#5480A6"></path>
                <g id="Group-356" transform="translate(2.000000, 6.000000)">
                    <path d="M16.6175905,8.78775882 C16.3934952,9.17934706 16.1694,9.57340588 15.9415905,9.96499412 C15.663019,10.4479941 15.3844476,10.9297588 15.1034,11.4127588 C14.6242571,12.2379353 14.1426381,13.0631118 13.6634952,13.8895235 C13.2635905,14.5812882 12.8674,15.2779941 12.4674952,15.9722294 C12.0836857,16.6355824 11.6936857,17.2964647 11.3098762,17.9610529 C10.9520667,18.5774647 10.5992095,19.1951118 10.2438762,19.8127588 C10.1324476,20.0091706 10.0173048,20.2043471 9.9046381,20.3995235 L9.88854286,20.4007588 L9.87244762,20.3970529 C9.67311429,20.2636412 9.5666381,20.0499353 9.4354,19.8634059 C8.40901905,18.3884647 7.76025714,16.7628176 7.50520952,14.9877 C7.43092381,14.4688765 7.36406667,13.9463471 7.40244762,13.4201118 L7.42844762,13.3731706 L7.44082857,13.3657588 C8.53778095,13.3657588 9.61368571,13.2088765 10.6648286,12.8975824 C12.1332095,12.4615235 13.4604476,11.7611118 14.6465429,10.7938765 C15.351019,10.2169941 15.975019,9.55858235 16.5222571,8.83099412 L16.5854,8.75564118 L16.6175905,8.78775882 Z" id="Fill-346" fill="#B05761"></path>
                    <path d="M7.42758095,13.4001 L7.43872381,13.6150412 C7.45110476,14.3735118 7.5439619,15.1221 7.71110476,15.8608059 C7.92281905,16.8008647 8.25215238,17.7013941 8.69786667,18.5586882 C9.01977143,19.1775706 9.38872381,19.7655706 9.82329524,20.3128059 L9.87281905,20.3980412 C9.69824762,20.4103941 9.53358095,20.3560412 9.3664381,20.3226882 C8.23729524,20.0978647 7.16262857,19.7124529 6.15234286,19.1578059 C5.41072381,18.7538647 4.72110476,18.2758059 4.09091429,17.7137471 C3.91386667,17.5568647 3.73310476,17.4024529 3.57958095,17.2221 L3.65758095,17.0701588 C4.85729524,15.8682176 6.05824762,14.6712176 7.2604381,13.4729824 L7.42758095,13.4001 Z" id="Fill-348" fill="#9C7A9E"></path>
                    <path d="M7.42758095,13.4001 L7.29510476,13.4939824 C6.0879619,14.6971588 4.88081905,15.9028059 3.67367619,17.1072176 L3.57958095,17.2221 C3.33815238,17.0219824 3.14005714,16.7848059 2.93948571,16.5488647 C2.46777143,15.9979235 2.05548571,15.4037471 1.70015238,14.7712765 C1.24948571,13.9720412 0.899104762,13.1332765 0.653961905,12.2512765 C0.54872381,11.8683353 0.467009524,11.4804529 0.39767619,11.0888647 L0.387771429,10.9393941 C0.616819048,11.1024529 0.845866667,11.2667471 1.07862857,11.4248647 C1.89577143,11.9832176 2.77358095,12.4192765 3.70958095,12.7429235 C4.36205714,12.9689824 5.02939048,13.1394529 5.71405714,13.2395118 C6.03100952,13.2864529 6.3492,13.3123941 6.66739048,13.3420412 C6.9224381,13.3667471 7.17624762,13.3568647 7.43005714,13.3729235 L7.42758095,13.4001 Z" id="Fill-350" fill="#8A78A1"></path>
                    <path d="M51.5863524,3.10207059 C50.9772095,1.45048235 49.7911143,0.489423529 48.0565429,0.204070588 C47.3755905,0.0928941176 46.6896857,0.0941294118 46.003781,0.189247059 C45.2980667,0.289305882 44.6356857,0.504247059 44.0302571,0.881011765 C43.2242571,1.38254118 42.651019,2.08542353 42.2622571,2.94024706 C41.8338762,3.88030588 41.6667333,4.87965882 41.6295905,5.90248235 C41.6085429,6.45465882 41.6258762,7.00683529 41.689019,7.55654118 C41.765781,8.24583529 41.9131143,8.9166 42.181781,9.56142353 C42.7475905,10.9190118 43.7294,11.8281882 45.1445429,12.2531294 C46.1300667,12.5496 47.1341619,12.6039529 48.1506381,12.4767176 C48.889781,12.3828353 49.5893048,12.1703647 50.2442571,11.8183059 C50.6367333,11.6070706 51.0019714,11.3587765 51.3152095,11.0413059 C51.5120667,10.8399529 51.6247333,10.6052471 51.595019,10.3236 C51.5145429,9.55401176 50.6862571,9.30077647 50.1786381,9.66642353 L49.9235905,9.85048235 C48.8464476,10.6447765 47.643019,10.8918353 46.3380667,10.6435412 C45.4986381,10.4841882 44.8127333,10.0629529 44.3113048,9.36377647 C43.821019,8.67942353 43.6315905,7.89995294 43.5894952,7.07477647 L43.6972095,6.95865882 L43.8284476,6.95742353 L47.2876857,6.95742353 C48.4453048,6.95742353 49.6041619,6.95742353 50.763019,6.95865882 L51.1579714,6.91048235 C51.5554,6.80918824 51.7646381,6.52754118 51.8649238,6.15201176 C51.933019,5.89877647 51.9392095,5.6406 51.9454,5.37871765 C51.9639714,4.59801176 51.8574952,3.83583529 51.5863524,3.10207059 L51.5863524,3.10207059 Z M49.9396857,5.22554118 L49.8072095,5.22554118 L46.8159714,5.22554118 L43.8086381,5.22554118 L43.691019,5.22554118 L43.6043524,5.12301176 C43.6749238,4.56712941 43.7987333,4.02607059 44.0612095,3.52454118 C44.4536857,2.77471765 45.0516857,2.27442353 45.8700667,2.05083529 C46.6339714,1.84207059 47.4028286,1.84330588 48.161781,2.07430588 C48.9343524,2.31148235 49.4481619,2.82783529 49.7415905,3.57024706 C49.8963524,3.95812941 49.9768286,4.36330588 50.0102571,4.77712941 L50.033781,5.12424706 L49.9396857,5.22554118 Z" id="Fill-352" fill="#61615E"></path>
                    <path d="M103.220867,4.76650588 C103.124295,4.11921176 102.957152,3.49291765 102.679819,2.89503529 C102.170962,1.79562353 101.368676,0.995152941 100.235819,0.535623529 C99.6984857,0.319447059 99.1376286,0.203329412 98.5606762,0.153917647 C97.7942952,0.0896823529 97.0341048,0.119329412 96.282581,0.298447059 C94.826581,0.643094118 93.7556286,1.47815294 93.1056286,2.83203529 C92.6871524,3.70168235 92.5051524,4.63062353 92.4494381,5.58550588 C92.408581,6.26985882 92.4172476,6.95421176 92.5026762,7.63609412 C92.5819143,8.25868235 92.7143905,8.86521176 92.9434381,9.44950588 C93.2046762,10.1103882 93.5699143,10.7058 94.0849619,11.1999176 C94.7114381,11.8027412 95.4617238,12.1758 96.3036286,12.3697412 C97.0254381,12.5340353 97.7583905,12.5723294 98.4975333,12.5118 C98.9457238,12.4747412 99.3852476,12.4018588 99.8148667,12.2709176 C100.615914,12.0263294 101.310486,11.6125059 101.875057,10.9886824 C102.439629,10.3636235 102.793724,9.62738824 103.019057,8.82568235 C103.250581,8.00544706 103.329819,7.16791765 103.329819,6.31803529 C103.329819,5.79921176 103.298867,5.28285882 103.220867,4.76650588 M101.37239,6.36127059 C101.364962,7.11850588 101.303057,7.87203529 101.059152,8.59715294 C100.927914,8.98874118 100.747152,9.35191765 100.48839,9.6768 C100.1182,10.1425059 99.637819,10.4476235 99.0682952,10.6045059 C98.3514381,10.8009176 97.6246762,10.8108 96.8979143,10.6563882 C95.8752476,10.4365059 95.1893429,9.82009412 94.7968667,8.86397647 C94.6024857,8.38962353 94.4972476,7.89303529 94.4402952,7.3878 C94.3907714,6.95915294 94.3722,6.52803529 94.385819,6.09815294 C94.4093429,5.30509412 94.4972476,4.52315294 94.8117238,3.78321176 C95.269819,2.71221176 96.0820095,2.10197647 97.2396286,1.94756471 L97.453819,1.92285882 C97.5962,1.91791765 97.7410571,1.92162353 97.8846762,1.92162353 C98.2982,1.89815294 98.701819,1.95003529 99.0967714,2.06985882 C99.9362,2.32803529 100.520581,2.87527059 100.887057,3.66091765 C101.102486,4.12044706 101.220105,4.60715294 101.291914,5.10744706 C101.351343,5.52250588 101.377343,5.94374118 101.37239,6.36127059" id="Fill-354" fill="#61615E"></path>
                </g>
                <polygon id="Fill-357" fill="#B57D52" points="18.446 14.543 18.445 14.6 18.452 14.61 18.555 14.39"></polygon>
                <polygon id="Fill-358" fill="#AB695E" points="18.4475 14.5545 18.4735 14.5805 18.5525 14.4195"></polygon>
                <polygon id="Fill-359" fill="#AB695E" points="18.4735 14.5445 18.5265 14.5125 18.5265 14.4555"></polygon>
                <path d="M18.4855,14.527 L18.5145,14.473 L18.4855,14.527 Z" id="Fill-360" fill="#BA8C52"></path>
                <path d="M18.487,14.5165 L18.513,14.4835 L18.487,14.5165 Z" id="Fill-361" fill="#BA8C52"></path>
                <path d="M18.513,25.5145 L18.487,25.4855 L18.513,25.5145 Z" id="Fill-362" fill="#D9A64A"></path>
                <g id="Group-344">
                    <path d="M115.80622,0.193321739 C116.266954,0.321147826 116.530761,0.668104348 116.530761,1.14775652 L116.530761,10.9392348 L116.530761,11.1157565 L116.648422,11.0621913 C118.107413,9.89106087 119.566404,8.71627826 121.024156,7.54514783 C121.432872,7.21766957 121.836633,6.88653913 122.249064,6.56393043 C122.70856,6.20358261 123.378606,6.31436522 123.690716,6.7928 C123.930991,7.15801739 123.877734,7.66688696 123.556954,7.9821913 C123.372413,8.16358261 123.156908,8.30966957 122.953789,8.47036522 C121.836633,9.34566957 120.719477,10.2221913 119.602321,11.0999304 C119.443789,11.2241043 119.443789,11.2241043 119.568881,11.3799304 C120.993193,13.1816696 122.413789,14.9870609 123.845532,16.7851478 C124.110578,17.1174957 124.10067,17.7395826 123.752642,18.0536696 C123.392229,18.3848 122.836128,18.4103652 122.460853,18.1072348 L122.197046,17.8345391 C121.048927,16.3882783 119.902046,14.9395826 118.752688,13.490887 C118.466587,13.1317565 118.179248,12.7714087 117.891908,12.4086261 L117.753193,12.4901913 C117.385349,12.7799304 117.019982,13.0745391 116.649661,13.3594087 L116.529523,13.6053217 C116.533239,14.8519304 116.533239,16.1009739 116.530761,17.3475826 C116.530761,17.818713 116.244661,18.1924522 115.791358,18.2922783 C115.102734,18.4432348 114.618468,17.9441043 114.59989,17.4461913 L114.594936,17.2501913 L114.594936,1.22810435 L114.624661,0.871408696 C114.728697,0.51106087 114.961541,0.279756522 115.334339,0.190886957 L115.438376,0.164104348 L115.703422,0.164104348 L115.80622,0.193321739 Z" id="Fill-306" fill="#61615E"></path>
                    <path d="M67.2687661,0.192713043 C67.6985367,0.299843478 67.9722523,0.623669565 67.9995,1.05462609 L68.0032156,1.25062609 L68.0032156,7.31688696 L68.0032156,7.49097391 L68.0775275,7.46662609 C68.6992706,6.78245217 69.4919312,6.40993043 70.4010138,6.27601739 C71.4426193,6.12262609 72.4706009,6.2054087 73.4639037,6.5548 C74.7272064,6.99914783 75.4876651,7.89636522 75.8133991,9.16488696 C75.9533532,9.71271304 75.9929862,10.2702783 75.9929862,10.832713 L75.9929862,17.2581043 C75.9929862,17.3981043 75.9905092,17.5405391 75.9446835,17.676887 C75.8208303,18.0518435 75.4381239,18.3525391 74.9365183,18.3148 C74.519133,18.2843652 74.1624358,17.9775826 74.0794541,17.5685391 L74.0571606,17.3092348 C74.0571606,15.2323652 74.0571606,13.156713 74.0571606,11.0798435 C74.0571606,10.5831478 74.0237202,10.0901043 73.8850046,9.60923478 C73.7599128,9.17097391 73.5518394,8.7801913 73.187711,8.48193043 C72.8917018,8.23966957 72.5461514,8.09966957 72.1721147,8.02784348 C71.4376651,7.88906087 70.7044541,7.89149565 69.9836284,8.08993043 C69.0250046,8.35410435 68.4367018,8.98714783 68.1704174,9.91723478 C68.0552339,10.312887 68.0044541,10.7182783 68.0044541,11.1261043 C68.0032156,13.1761913 68.0032156,15.2262783 68.0032156,17.2739304 L67.9672982,17.6306261 C67.8360138,18.0956696 67.3864266,18.3781043 66.8773899,18.308713 C66.4228486,18.2478435 66.069867,17.8521913 66.069867,17.3908 C66.0673899,16.0005391 66.0686284,14.6102783 66.0686284,13.2212348 C66.0686284,9.19410435 66.069867,5.16697391 66.0673899,1.14106087 C66.0673899,0.806278261 66.1924817,0.536017391 66.4661972,0.337582609 L66.7968853,0.192713043 L66.8996835,0.163495652 L67.1659679,0.163495652 L67.2687661,0.192713043 Z" id="Fill-308" fill="#61615E"></path>
                    <path d="M1.5236422,14.3193217 C1.5546055,13.7106261 1.66359633,13.1141043 1.80974312,12.5236696 C2.01781651,11.6690609 2.33488073,10.8534087 2.7423578,10.0742783 C2.82286239,9.91845217 2.91079817,9.76871304 2.99625688,9.61532174 L3.07552294,9.59827826 C3.76538532,9.96106087 4.47011009,10.2909739 5.21942202,10.5186261 C6.04056881,10.7669739 6.87905505,10.9422783 7.73859633,11.0116696 C8.29345872,11.056713 8.8483211,11.0603652 9.39946789,11.0311478 C10.4992844,10.972713 11.5693761,10.7438435 12.604789,10.3628 C12.9268073,10.244713 13.2463486,10.1205391 13.5522661,9.96471304 L13.7095596,9.92210435 L13.7083211,10.0194957 L13.5336881,10.1302783 L13.4259358,10.1838435 L13.3850642,10.2081913 C12.776945,10.5454087 12.1762569,10.8960174 11.5693761,11.2356696 C10.2069908,12.0050609 8.8446055,12.7805391 7.48222018,13.5523652 C6.24368807,14.2548 5.00763303,14.9572348 3.77157798,15.660887 C3.10524771,16.040713 2.4376789,16.4193217 1.76887156,16.7942783 L1.58680734,16.8356696 C1.49515596,16.6238435 1.51249541,16.3998435 1.49515596,16.1794957 L1.46047706,15.7935826 L1.46047706,14.7490609 C1.4963945,14.6066261 1.50754128,14.4641913 1.5236422,14.3193217" id="Fill-310" fill="#7899C2"></path>
                    <path d="M12.3723165,26.3571304 L12.3723165,26.3254783 L12.5073165,26.2743478 C12.717867,26.2682609 12.9284174,26.2670435 13.1389679,26.2755652 L13.2727294,26.327913 L13.2702523,26.3571304 L12.3723165,26.3571304 Z" id="Fill-312" fill="#E0B899"></path>
                    <path d="M1.5236422,14.3193217 C1.53231193,14.4666261 1.52983486,14.612713 1.46047706,14.7490609 L1.46047706,14.5518435 L1.5236422,14.3193217 Z" id="Fill-314" fill="#94B5D1"></path>
                    <path d="M85.2811101,10.329687 C85.082945,10.9968174 84.8934495,11.6274261 84.7076697,12.2604696 C84.2382661,13.8528174 83.7688624,15.4476 83.2982202,17.0399478 C83.2462018,17.217687 83.1805596,17.3929913 83.1409266,17.5731652 C83.0467982,17.9919478 82.6504679,18.3036 82.2392752,18.3157739 C81.7673945,18.3303826 81.4305138,18.1039478 81.2583578,17.6401217 C80.746844,16.265687 80.2365688,14.8912522 79.7262936,13.5168174 C79.0141376,11.5994261 78.3032202,9.68203478 77.5910642,7.76829565 C77.4969358,7.51629565 77.4412018,7.26794783 77.5353303,7.00377391 C77.679,6.60568696 77.9725321,6.3902087 78.391156,6.35977391 C78.7812936,6.3329913 79.0896881,6.49246957 79.2903303,6.83090435 C79.3894128,6.99646957 79.434,7.18394783 79.4984037,7.36412174 C80.3480367,9.73925217 81.1951927,12.1168174 82.0423486,14.4943826 L82.1178991,14.6623826 L82.1946881,14.4578609 C82.9117982,12.0011652 83.6301468,9.54325217 84.3435413,7.08533913 C84.4389083,6.75907826 84.6246881,6.52046957 84.9566147,6.40968696 C85.4594587,6.24046957 86.0527156,6.46933913 86.223633,7.06342609 C86.8825321,9.3436 87.552578,11.6225565 88.2164312,13.9027304 C88.2895046,14.1522957 88.362578,14.4030783 88.4381284,14.6623826 L88.5211101,14.5150783 C88.9991835,13.1808174 89.4747798,11.8465565 89.9503761,10.5122957 C90.3628073,9.35577391 90.774,8.20046957 91.1851927,7.04516522 C91.295422,6.73473043 91.4873945,6.5009913 91.8180826,6.40238261 C92.1797339,6.29646957 92.5141376,6.3609913 92.7890917,6.61664348 C93.0603303,6.86986087 93.1519817,7.19368696 93.0491835,7.54429565 C92.9501009,7.87786087 92.817578,8.20168696 92.6962018,8.52916522 C91.6806055,11.269513 90.6637706,14.0098609 89.6481743,16.7489913 C89.5305138,17.0667304 89.4128532,17.3832522 89.2927156,17.6997739 C89.1787706,17.9919478 88.9756514,18.1952522 88.6635413,18.2804696 C88.1309725,18.4289913 87.6045963,18.1465565 87.4473028,17.6242957 C87.1723486,16.7063826 86.9023486,15.7860348 86.6323486,14.8669043 C86.1963853,13.3938609 85.7616606,11.9208174 85.3269358,10.4465565 L85.2811101,10.329687 Z" id="Fill-316" fill="#61615E"></path>
                    <path d="M59.0610138,6.23304348 C59.936656,6.23547826 60.730555,6.35234783 61.4848211,6.67617391 C62.1164725,6.94278261 62.6539954,7.33234783 63.0763349,7.87286957 C63.2757385,8.12973913 63.3450963,8.41095652 63.2422982,8.71895652 C63.0391789,9.33495652 62.2675734,9.52852174 61.7870229,9.0866087 C61.5913349,8.90886957 61.3919312,8.736 61.1689954,8.59113043 C60.7639954,8.32695652 60.3168853,8.17721739 59.8400505,8.11147826 C59.378078,8.04817391 58.9123899,8.04330435 58.4491789,8.11026087 C58.1903257,8.14678261 57.9438578,8.2186087 57.7048211,8.3306087 C56.9158761,8.70556522 56.8477569,9.68069565 57.3790872,10.2187826 C57.625555,10.472 57.9252798,10.6448696 58.2411055,10.7921739 C58.6919312,11.0027826 59.1638119,11.1586087 59.6332156,11.318087 C60.3391789,11.5603478 61.0488578,11.7916522 61.7151881,12.1325217 C62.1350505,12.348 62.5239495,12.6036522 62.8571147,12.9396522 C63.3215642,13.4095652 63.5791789,13.9732174 63.6460596,14.6257391 C63.700555,15.141913 63.6534908,15.645913 63.4838119,16.1389565 C63.2150505,16.9156522 62.6812431,17.4695652 61.9542248,17.8493913 C61.4389954,18.1184348 60.8853716,18.2645217 60.3119312,18.346087 C59.7954633,18.4215652 59.2728028,18.4398261 58.7538578,18.4008696 C57.5103716,18.3107826 56.3733991,17.926087 55.3838119,17.1627826 C55.1261972,16.9631304 54.8921147,16.7403478 54.7088119,16.4688696 C54.4276651,16.050087 54.576289,15.3354783 55.2289954,15.1613913 C55.5745459,15.0688696 55.8742706,15.169913 56.1244541,15.4146087 C56.3399587,15.6215652 56.5690872,15.8090435 56.8229862,15.966087 C57.353078,16.2947826 57.9314725,16.4798261 58.5507385,16.5504348 C59.0833073,16.610087 59.6133991,16.6064348 60.1397752,16.513913 C60.5088578,16.4493913 60.8568853,16.3325217 61.1677569,16.1182609 C61.7387202,15.7286957 61.8551422,14.9483478 61.6123899,14.4881739 C61.5095917,14.2909565 61.3584908,14.133913 61.1801422,14 C60.8692706,13.7662609 60.5150505,13.6104348 60.1546376,13.4704348 C59.5378486,13.2306087 58.8987661,13.0443478 58.2757844,12.8191304 C57.7407385,12.6267826 57.2118853,12.4149565 56.7239037,12.1203478 C56.196289,11.8026087 55.7454633,11.4093913 55.4482156,10.8627826 C55.2649128,10.521913 55.1608761,10.157913 55.1212431,9.77443478 C55.0729404,9.32643478 55.1014266,8.88330435 55.2351881,8.45113043 C55.465555,7.69634783 55.9560138,7.14973913 56.6495917,6.77234783 C57.1722523,6.49113043 57.7357844,6.34747826 58.3228486,6.27686957 C58.589133,6.24643478 58.8554174,6.244 59.0610138,6.23304348" id="Fill-318" fill="#61615E"></path>
                    <path d="M129.764725,6.2461913 C130.603211,6.23523478 131.419404,6.36306087 132.189771,6.70636522 C132.796651,6.9754087 133.310642,7.36132174 133.718119,7.88358261 C133.976972,8.21349565 133.983165,8.62862609 133.773853,8.9341913 C133.46422,9.38706087 132.837523,9.45888696 132.425092,9.09001739 C132.250459,8.93297391 132.074587,8.77349565 131.878899,8.63958261 C131.436743,8.33766957 130.946284,8.1648 130.414954,8.10393043 C129.91211,8.04549565 129.409266,8.04184348 128.910138,8.14166957 C128.685963,8.18549565 128.474174,8.26097391 128.272294,8.36810435 C127.540321,8.75523478 127.509358,9.71697391 128.010963,10.2173217 C128.28344,10.4900174 128.61289,10.6738435 128.963394,10.8321043 C129.441468,11.0475826 129.941835,11.2082783 130.438486,11.3774957 C131.061468,11.5893217 131.683211,11.8011478 132.272752,12.0945391 C132.665367,12.2917565 133.03445,12.5169739 133.358945,12.8128 C133.884083,13.2888 134.194954,13.8731478 134.275459,14.5755826 C134.346055,15.1976696 134.279174,15.8039304 134.02156,16.3809739 C133.704495,17.0919304 133.157064,17.5837565 132.454817,17.9161043 C131.971789,18.1437565 131.459037,18.2728 130.930183,18.3482783 C130.417431,18.4213217 129.902202,18.4408 129.38945,18.4018435 C128.133578,18.3081043 126.986697,17.9197565 125.993394,17.1406261 C125.796468,16.9884522 125.619358,16.8168 125.458349,16.6281043 C125.241606,16.374887 125.146239,16.0875826 125.241606,15.7625391 C125.416239,15.1696696 126.129633,14.9383652 126.634954,15.3096696 L126.79844,15.4472348 C127.36445,16.0011478 128.043165,16.346887 128.827156,16.4954087 C129.576468,16.6354087 130.32578,16.6329739 131.068899,16.446713 C131.41445,16.3602783 131.735229,16.2141913 131.991606,15.9561043 C132.501881,15.4435826 132.490734,14.6181913 131.963119,14.1239304 C131.673303,13.8536696 131.317844,13.686887 130.953716,13.5371478 C130.370367,13.2961043 129.765963,13.1183652 129.171468,12.9114087 C128.637661,12.7263652 128.111284,12.5291478 127.613394,12.2637565 C127.146468,12.0154087 126.721651,11.714713 126.383532,11.3056696 C125.989679,10.8296696 125.787798,10.2806261 125.748165,9.67071304 C125.713486,9.14966957 125.765505,8.63714783 125.979771,8.15262609 C126.283211,7.45627826 126.813303,6.98271304 127.49945,6.66497391 C128.074128,6.4008 128.685963,6.28271304 129.317615,6.2474087 C129.465,6.23888696 129.614862,6.2461913 129.764725,6.2461913" id="Fill-320" fill="#61615E"></path>
                    <path d="M31.2479174,12.9648522 L31.2479174,17.2646783 L31.212,17.6372 C31.1104404,18.0145913 30.7240183,18.3469391 30.2174587,18.3177217 C29.7802569,18.2909391 29.4186055,17.9853739 29.3343853,17.5605043 L29.3108532,17.2865913 C29.3108532,14.3806783 29.3108532,11.4772 29.3096147,8.57250435 C29.3096147,8.33511304 29.3418165,8.36676522 29.1003028,8.36067826 C28.879844,8.3558087 28.6581468,8.38015652 28.4364495,8.33998261 C27.9682844,8.25598261 27.6697982,7.85546087 27.7057156,7.35876522 C27.7379174,6.92537391 28.1131927,6.57476522 28.5664954,6.56137391 C28.7720917,6.55528696 28.9764495,6.56137391 29.1832844,6.56015652 L29.3108532,6.43233043 C29.3120917,6.00624348 29.3046606,5.58015652 29.3133303,5.15528696 C29.3232385,4.6038087 29.4025046,4.06085217 29.5895229,3.53737391 C30.0985596,2.11789565 31.1129174,1.26572174 32.6053486,0.947982609 C32.9917706,0.8652 33.3843853,0.8372 33.7745229,0.82746087 C34.3145229,0.815286957 34.7083761,1.15128696 34.7517248,1.67233043 C34.7864037,2.0838087 34.5312661,2.50867826 34.028422,2.6145913 C33.8810367,2.64624348 33.7311743,2.63650435 33.5813119,2.6438087 C33.2085138,2.66085217 32.8468624,2.73146087 32.5050275,2.88728696 C31.9439725,3.14537391 31.5934679,3.58363478 31.405211,4.1545913 C31.2986972,4.47598261 31.2541101,4.81198261 31.249156,5.1492 C31.2417248,5.56433043 31.2479174,5.97824348 31.2479174,6.39337391 C31.2479174,6.55893913 31.249156,6.56015652 31.4225505,6.56015652 C32.0826881,6.56015652 32.7428257,6.55772174 33.4029633,6.56137391 C33.8636972,6.5638087 34.240211,6.89250435 34.2922294,7.33076522 C34.3615872,7.90050435 33.949156,8.35824348 33.3620917,8.36067826 C32.7254862,8.36433043 32.0864037,8.36189565 31.4497982,8.36189565 C31.2268624,8.36189565 31.2479174,8.33998261 31.2479174,8.56763478 L31.2479174,12.9648522" id="Fill-322" fill="#61615E"></path>
                    <path d="M23.3226743,4.83328696 L23.5716193,5.0938087 C23.4539587,5.37137391 23.2793257,5.61850435 23.1269862,5.8778087 C21.9763899,7.84511304 20.8196009,9.80754783 19.6665275,11.7748522 C19.2008394,12.5649391 18.7450596,13.3635478 18.2645092,14.1463304 L18.2385,14.1828522 L18.2261147,14.1998957 L18.1877202,14.2546783 L18.1641881,14.2899826 L18.0527202,14.4555478 L17.9920321,14.5432 L17.9672615,14.5797217 L17.8372156,14.7586783 C16.8129495,16.1379826 15.5248761,17.2117217 13.9915734,18.0066783 C12.7394174,18.6567652 11.4079954,19.0609391 10.0047385,19.2265043 C9.6368945,19.2715478 9.26657339,19.3080696 8.89625229,19.3032 L8.70056422,19.2800696 L8.66960092,19.2423304 L8.78354587,19.0865043 C13.5816193,14.3715478 18.3796927,9.65537391 23.1790046,4.93798261 L23.3226743,4.83328696 Z" id="Fill-324" fill="#9CBA75"></path>
                    <path d="M23.3226743,4.83328696 L23.2050138,4.9672 C18.4057018,9.6845913 13.6051514,14.4044174 8.80460092,19.1218087 L8.68198624,19.2301565 L8.63739908,19.0134609 C8.64359174,18.0273739 8.80707798,17.0619826 9.08698624,16.1160696 C9.41643578,15.0033739 9.90937156,13.9649391 10.5657936,13.0019826 C11.2284083,12.0305043 12.0346927,11.1880696 12.9635917,10.461287 C13.1023073,10.3529391 13.2521697,10.2592 13.4057477,10.1703304 L13.4032706,10.1715478 L13.5097844,10.1045913 L13.746344,9.94267826 C13.9023991,9.77346087 14.1104725,9.68093913 14.3061606,9.57015652 C15.6388211,8.81415652 16.9739587,8.05572174 18.3078578,7.29850435 C19.8287752,6.43537391 21.3534083,5.57589565 22.8718486,4.70546087 L23.0861147,4.63363478 L23.3226743,4.83328696 Z" id="Fill-326" fill="#73AB80"></path>
                    <path d="M18.2271055,14.1515652 C18.3905917,13.8691304 18.554078,13.5854783 18.7188028,13.3030435 C19.0333899,12.7649565 19.3492156,12.2293043 19.6662798,11.6912174 C19.9697202,11.1726087 20.2731606,10.6527826 20.579078,10.1353913 C20.8503165,9.674 21.121555,9.2126087 21.3940321,8.75121739 C21.8782982,7.92704348 22.3638028,7.10286957 22.8493073,6.27869565 C23.0623349,5.91591304 23.2753624,5.55313043 23.4871514,5.18913043 L23.5713716,5.09295652 C23.6630229,5.20982609 23.7534358,5.32547826 23.8116468,5.46182609 C23.6927477,6.01573913 23.5255459,6.55747826 23.376922,7.10530435 C23.067289,8.246 22.7551789,9.38791304 22.4443073,10.5286087 C22.0021514,12.144087 21.563711,13.7583478 21.1227936,15.3738261 C20.7239862,16.8298261 20.3288945,18.2870435 19.9325642,19.7442609 C19.4866927,21.3792174 19.0432982,23.0166087 18.593711,24.6503478 L18.5342615,24.7830435 L18.4810046,24.794 L18.4289862,24.772087 C18.2989404,24.6150435 18.2110046,24.4324348 18.1230688,24.2522609 C17.6127936,23.2174783 17.2486651,22.1352174 17.0666009,20.9981739 C16.9650413,20.3626957 16.9018761,19.7235652 16.9192156,19.0807826 C16.9650413,17.4957391 17.2920138,15.9727826 17.9967385,14.5374783 L18.1614633,14.2562609 L18.1614633,14.2574783 L18.1949037,14.1905217 L18.1949037,14.1929565 L18.2271055,14.1515652 Z" id="Fill-328" fill="#DEB34A"></path>
                    <path d="M3.05558257,9.61422609 L2.99737156,9.61544348 C3.34168349,9.03231304 3.7318211,8.47961739 4.18016972,7.96587826 C4.44273853,7.66518261 4.7115,7.36692174 5.00750917,7.09787826 C5.40136239,6.73996522 5.81255505,6.40153043 6.24851835,6.09353043 C6.71420642,5.76483478 7.20218807,5.47631304 7.70998624,5.22431304 C8.29705046,4.93092174 8.90888532,4.69353043 9.5405367,4.50361739 C10.0334725,4.35509565 10.535078,4.25161739 11.0403991,4.16518261 C11.2670505,4.1237913 11.4998945,4.10674783 11.7302615,4.0824 C12.464711,4.00813913 13.2003991,4.02518261 13.9360872,4.02518261 C16.4081972,4.02274783 18.8815459,4.02031304 21.3524174,4.0264 C21.8503073,4.03005217 22.3271422,4.14448696 22.7556743,4.41231304 L22.5859954,4.5024 C20.8186101,4.9637913 19.0524633,5.42883478 17.2863165,5.89509565 C15.2365459,6.43683478 13.1867752,6.97613913 11.1382431,7.51666087 C9.64333486,7.91109565 8.15090367,8.30431304 6.65599541,8.69509565 C5.53264679,8.98970435 4.40929817,9.28918261 3.28471101,9.5850087 L3.05558257,9.61422609 Z" id="Fill-330" fill="#94C2CC"></path>
                    <path d="M18.4904174,24.7905913 L18.6142706,24.407113 C18.7703257,23.8544174 18.9115183,23.2956348 19.0626193,22.7405043 C19.2756468,21.9613739 19.4961055,21.1810261 19.709133,20.4018957 C19.8280321,19.967287 19.9395,19.5302435 20.0583991,19.0956348 C20.2392248,18.4297217 20.4250046,17.7650261 20.6058303,17.1015478 C20.7569312,16.551287 20.903078,16.0010261 21.0541789,15.4507652 C21.2250963,14.8225913 21.4009679,14.1944174 21.5731239,13.5662435 C21.6895459,13.1377217 21.8022523,12.7067652 21.9199128,12.2782435 C22.1019771,11.6062435 22.2877569,10.9378957 22.4685826,10.2658957 C22.620922,9.71076522 22.7683073,9.15441739 22.9194083,8.59928696 C23.1002339,7.9345913 23.2860138,7.27111304 23.4668394,6.6052 C23.5609679,6.25946087 23.6563349,5.91372174 23.7479862,5.56676522 L23.8123899,5.46206957 C23.9994083,5.75789565 24.0984908,6.08415652 24.1492706,6.42502609 C24.1752798,6.60398261 24.1789954,6.78293913 24.1789954,6.96433043 C24.1777569,9.71928696 24.1814725,12.4766783 24.1777569,15.2340696 C24.1752798,16.2737217 24.0254174,17.2926783 23.7269312,18.2909391 C23.2104633,20.0208522 22.3199587,21.5389391 21.059133,22.8476348 C20.3345917,23.5999826 19.5183991,24.2366783 18.6142706,24.7686783 L18.4966101,24.8258957 L18.4867018,24.8039826 L18.4904174,24.7905913 Z" id="Fill-332" fill="#D9A64A"></path>
                    <path d="M3.05558257,9.61422609 L3.36769266,9.5144 C4.12938991,9.31353043 4.88984862,9.11144348 5.6527844,8.9117913 C6.21136239,8.76448696 6.7711789,8.6184 7.33099541,8.47231304 C7.97007798,8.30187826 8.60792202,8.13022609 9.24824312,7.9610087 C9.69039908,7.84535652 10.1337936,7.73457391 10.5759495,7.61770435 C11.2534266,7.43996522 11.9284266,7.25857391 12.6046651,7.08083478 C13.1694358,6.93109565 13.735445,6.78744348 14.3002156,6.63770435 C14.9776927,6.45996522 15.6526927,6.27857391 16.3289312,6.10083478 C16.840445,5.96448696 17.3519587,5.82935652 17.8622339,5.69544348 C18.597922,5.50187826 19.3323716,5.30587826 20.0692982,5.11474783 C20.7566835,4.93457391 21.4440688,4.75561739 22.1314541,4.57666087 C22.3407661,4.52187826 22.5488394,4.46709565 22.7556743,4.41231304 L23.0863624,4.63387826 C22.3296193,5.06361739 21.5716376,5.49335652 20.8148945,5.92187826 C19.9949862,6.38813913 19.1763165,6.85196522 18.3564083,7.31822609 C17.594711,7.7504 16.8305367,8.17892174 16.070078,8.61596522 C15.3108578,9.0530087 14.5380138,9.46570435 13.7924174,9.92709565 L13.7453532,9.94292174 L13.5917752,9.99648696 C12.848656,10.3629217 12.0634266,10.6222261 11.2534266,10.8121391 C10.8372798,10.9095304 10.4124633,10.9691826 9.98516972,11.0251826 C9.31264679,11.1140522 8.63888532,11.0909217 7.96512385,11.0775304 C7.62700459,11.0702261 7.28640826,11.0178783 6.95076606,10.9667478 C6.51356422,10.8985739 6.08379358,10.7999652 5.65773853,10.6928348 C5.14870183,10.5625739 4.65700459,10.3824 4.17273853,10.180313 C3.8631055,10.0500522 3.5658578,9.8917913 3.26241743,9.74692174 L3.05558257,9.61422609 Z" id="Fill-334" fill="#78B5D9"></path>
                    <path d="M18.4904174,24.7905913 L18.4966101,24.8258957 C18.1572523,25.0413739 17.7918853,25.2093739 17.4252798,25.371287 C16.466656,25.7925043 15.465922,26.0700696 14.4267936,26.2185913 C14.0440872,26.2745913 13.6564266,26.2916348 13.2724817,26.3269391 C12.9727569,26.3257217 12.6717936,26.3257217 12.3720688,26.3245043 C12.0054633,26.2977217 11.6376193,26.2733739 11.2722523,26.2234609 L11.1471606,26.1905913 L11.1917477,26.0274609 C12.3039495,24.1368522 13.4136743,22.2462435 14.5258761,20.3544174 C15.5711972,18.5770261 16.6152798,16.7996348 17.6568853,15.0198087 L17.8364725,14.7446783 L17.9603257,14.551113 L17.9590872,14.551113 L18.0148211,14.5097217 L18.0346376,14.523113 C17.9256468,14.7848522 17.8141789,15.0453739 17.7101422,15.3083304 C17.4661514,15.9279826 17.2853257,16.5658957 17.1639495,17.2208522 C17.0710596,17.7212 17.006656,18.2264174 16.990555,18.7389391 C16.9856009,18.9008522 16.9645459,19.0639826 16.9682615,19.2258957 C16.9794083,19.6714609 17.006656,20.1145913 17.0561972,20.5565043 C17.1181239,21.0945913 17.2233991,21.619287 17.3645917,22.139113 C17.5342706,22.7587652 17.7559679,23.3625913 18.0296835,23.9469391 C18.1597294,24.223287 18.2972064,24.4947652 18.4606927,24.7540696 L18.491656,24.7893739 L18.4904174,24.7905913 Z" id="Fill-336" fill="#C77342"></path>
                    <path d="M38.0621972,7.73250435 L38.322289,7.43911304 C38.8944908,6.84502609 39.6078853,6.50902609 40.4141697,6.34589565 C40.6916009,6.28989565 40.9739862,6.26798261 41.255133,6.2545913 C41.7431147,6.23267826 42.1282982,6.47737391 42.2670138,6.89128696 C42.467656,7.48172174 42.0329312,8.09650435 41.3988028,8.10746087 C41.1052706,8.11476522 40.8142156,8.13667826 40.5256376,8.19754783 C39.4010505,8.44346087 38.671555,9.12033043 38.2888486,10.1745913 C38.1067844,10.6785913 38.0312339,11.1984174 38.0299954,11.7292 C38.0262798,13.5881565 38.0275183,15.4446783 38.0299954,17.3024174 C38.0299954,17.531287 37.9854083,17.7455478 37.8479312,17.9342435 C37.6113716,18.2580696 37.1642615,18.3980696 36.7642156,18.2763304 C36.376555,18.1570261 36.106555,17.8100696 36.0941697,17.4119826 L36.0941697,17.3304174 C36.0941697,14.0008522 36.0941697,10.6725043 36.0929312,7.34537391 C36.0929312,7.05806957 36.1783899,6.80606957 36.3976101,6.61250435 C36.7060046,6.3385913 37.0651789,6.28015652 37.4466468,6.43476522 C37.8132523,6.58450435 38.0015092,6.8718087 38.0262798,7.25893913 C38.0374266,7.41476522 38.0275183,7.5718087 38.0275183,7.72641739 L38.0621972,7.73250435 Z" id="Fill-338" fill="#61615E"></path>
                    <path d="M108.74733,7.72678261 L108.822881,7.67686957 C109.345541,7.02069565 110.036642,6.62626087 110.844165,6.41078261 C111.242972,6.30365217 111.649211,6.25617391 112.060404,6.25617391 C112.430725,6.25617391 112.725495,6.41321739 112.90756,6.73826087 C113.250633,7.35547826 112.809716,8.10052174 112.093844,8.10904348 C111.760679,8.11269565 111.429991,8.14313043 111.107972,8.22469565 C110.065128,8.49130435 109.383936,9.14382609 109.016092,10.1262609 C108.83155,10.6217391 108.74733,11.1366957 108.74733,11.6626087 L108.74733,17.2686957 C108.74733,17.5365217 108.687881,17.7848696 108.505817,17.997913 C108.259349,18.2815652 107.823385,18.3947826 107.444394,18.2669565 C107.07655,18.1415652 106.82389,17.808 106.810266,17.4293913 L106.810266,17.3478261 C106.810266,14.0073043 106.811505,10.668 106.809018,7.32869565 C106.807789,7 106.926688,6.73095652 107.19545,6.53982609 C107.789945,6.1173913 108.640817,6.45704348 108.729991,7.18017391 L108.74733,7.55513043 L108.74733,7.72678261 Z" id="Fill-340" fill="#61615E"></path>
                    <path d="M13.4059954,10.1699652 C13.2610872,10.3136174 13.0864541,10.4170957 12.9266835,10.5449217 C12.1191606,11.1816174 11.4119587,11.9132696 10.8063165,12.7386609 C10.1375092,13.650487 9.62599541,14.6414435 9.26186697,15.7066609 C9.05379358,16.3141391 8.90145413,16.9374435 8.80608716,17.5741391 C8.72805963,18.0951826 8.67480275,18.6198783 8.67727982,19.1494435 L8.68223394,19.2297913 L8.68223394,19.2590087 L8.66365596,19.278487 C8.4952156,19.3308348 8.3218211,19.3113565 8.15338073,19.3028348 C6.95076606,19.2346609 5.78283028,19.0130957 4.65576606,18.5894435 C3.6277844,18.2047478 2.67659174,17.6885739 1.79971101,17.0397043 L1.62507798,16.8680522 L1.62012385,16.8437043 C1.85296789,16.6854435 2.10438991,16.562487 2.3471422,16.422487 C2.72861009,16.2009217 3.11255505,15.9878783 3.49526147,15.7687478 C3.8977844,15.5410957 4.29783028,15.3134435 4.70035321,15.0857913 L5.86333486,14.4247478 C6.26461927,14.1958783 6.66590367,13.9694435 7.06842661,13.7405739 C7.45608716,13.5214435 7.84250917,13.2998783 8.23140826,13.0807478 C8.63269266,12.8530957 9.0352156,12.6242261 9.4365,12.3977913 C9.82044495,12.1798783 10.2019128,11.9619652 10.5846193,11.7452696 C10.9859037,11.5176174 11.3884266,11.2887478 11.789711,11.0598783 C12.2591147,10.794487 12.7260413,10.5278783 13.195445,10.262487 L13.4059954,10.1699652 Z" id="Fill-342" fill="#5480A6"></path>
                </g>
            </g>
        </g>
    </g>
</svg>