<?xml version="1.0" encoding="UTF-8"?>
<svg width="119px" height="55px" viewBox="0 0 119 55" version="1.1" xmlns="http://www.w3.org/2000/svg" xmlns:xlink="http://www.w3.org/1999/xlink">
    <!-- Generator: sketchtool 60.1 (101010) - https://sketch.com -->
    <title>7515B787-2435-418C-9663-1D372E50362E</title>
    <desc>Created with sketchtool.</desc>
    <defs>
        <polygon id="path-1" points="0.97510765 0.890485632 44.6186486 0.890485632 44.6186486 53.8024236 0.97510765 53.8024236"></polygon>
    </defs>
    <g id="Page-1" stroke="none" stroke-width="1" fill="none" fill-rule="evenodd">
        <g id="LP-DE-PATROCÃNIO" transform="translate(-784.000000, -3532.000000)">
            <g id="Group-35" transform="translate(784.000000, 3532.000000)">
                <path d="M4.07979781,35.127367 C2.36551366,35.127367 0.976224044,36.5157319 0.976224044,38.2273468 C0.976224044,39.9377233 2.36551366,41.3236112 4.07979781,41.3236112 C5.79408197,41.3236112 7.18213115,39.9377233 7.18213115,38.2273468 C7.18213115,36.5157319 5.79408197,35.127367 4.07979781,35.127367" id="Fill-1196" fill="#00294A"></path>
                <path d="M41.5145787,19.5369328 C43.2288628,19.5369328 44.6181525,18.1485678 44.6181525,16.4381914 C44.6181525,14.7265764 43.2288628,13.3406885 41.5145787,13.3406885 C39.8002945,13.3406885 38.4122454,14.7265764 38.4122454,16.4381914 C38.4122454,18.1485678 39.8002945,19.5369328 41.5145787,19.5369328" id="Fill-1198" fill="#00294A"></path>
                <g id="Group-1202" transform="translate(-0.000000, -0.000000)">
                    <mask id="mask-2" fill="white">
                        <use xlink:href="#path-1"></use>
                    </mask>
                    <g id="Clip-1201"></g>
                    <path d="M41.5014301,22.6775356 C39.7797033,22.6775356 38.3842115,24.0708546 38.3842115,25.7899006 L38.3842115,27.3454638 C38.3842115,30.7835557 35.590747,33.5714322 32.1497743,33.5714322 C28.7063208,33.5714322 25.9140967,30.7835557 25.9140967,27.3454638 L25.9128563,27.3454638 C25.8992115,20.4829034 20.3209656,14.9257282 13.4452224,14.9257282 C11.1727415,14.9257282 9.0453918,15.5338345 7.21078525,16.5939954 L7.21078525,7.11447241 L7.21078525,0.889742529 L7.00363224,0.993777011 L0.97510765,4.46902414 L0.97510765,13.3404408 L0.97510765,24.2343374 L0.97510765,28.903504 C0.97510765,30.62255 2.37059945,32.0146305 4.09232623,32.0146305 C5.81405301,32.0146305 7.21078525,30.62255 7.21078525,28.903504 L7.21078525,27.3751879 C7.21078525,23.9358575 10.0017689,21.1492195 13.4452224,21.1492195 C16.888676,21.1492195 19.6796596,23.9358575 19.6796596,27.3751879 L19.6809,27.3751879 C19.6957852,34.2377483 25.2727907,39.7961621 32.1497743,39.7961621 C34.4210148,39.7961621 36.5483645,39.1880557 38.3842115,38.1266563 L38.3842115,47.5776937 L38.3842115,53.8024236 L38.590124,53.6996276 L44.6186486,50.2243805 L44.6186486,43.5996132 L44.6186486,30.4590672 L44.6186486,25.7899006 C44.6186486,24.0708546 43.2219164,22.6775356 41.5014301,22.6775356" id="Fill-1200" fill="#00294A" mask="url(#mask-2)"></path>
                </g>
                <path d="M59.2541945,35.0327451 L59.2541945,30.6199491 C59.2541945,30.3908256 59.2368284,30.1728486 59.204577,29.9660181 C59.1723257,29.7591876 59.1090634,29.5783658 59.0160306,29.4185986 C58.9242383,29.2613083 58.8001945,29.1362193 58.6476208,29.0420928 C58.4962874,28.9504434 58.2990579,28.9033802 58.0584131,28.9033802 C57.5895279,28.9033802 57.2298011,29.0693399 56.9792328,29.402498 C56.727424,29.7344175 56.6021399,30.1468399 56.6021399,30.6360497 L56.6021399,35.0327451 L53.9190743,35.0327451 L53.9190743,22.6774118 L56.6021399,22.6774118 L56.6021399,27.9237221 L56.6356317,27.9237221 C56.8204568,27.5967566 57.1156809,27.3044693 57.518823,27.0493371 C57.921965,26.7929664 58.4094568,26.6654003 58.9763366,26.6654003 C59.5320525,26.6654003 59.9996973,26.7632422 60.3755497,26.9601647 C60.7514022,27.1558486 61.0565497,27.4085037 61.2922328,27.7193687 C61.5266754,28.0302336 61.6953749,28.3869233 61.7995716,28.7894376 C61.9025279,29.1931905 61.9546262,29.5957049 61.9546262,29.9994578 L61.9546262,35.0327451 L59.2541945,35.0327451 Z" id="Fill-1203" fill="#00A3DE"></path>
                <polygon id="Fill-1206" fill="#00A3DE" points="64.0218579 35 67.0218579 35 67.0218579 27 64.0218579 27"></polygon>
                <g id="Group-1211" transform="translate(53.021858, 23.000000)" fill="#00A3DE">
                    <path d="M13.8555,1.84430769 C13.8555,2.04984615 13.81425,2.24184615 13.73175,2.42030769 C13.64925,2.59876923 13.53925,2.75384615 13.40175,2.88307692 C13.26425,3.01353846 13.09925,3.11692308 12.908,3.19076923 C12.71425,3.26830769 12.51425,3.30523077 12.30425,3.30523077 C11.86425,3.30523077 11.49675,3.16246154 11.19925,2.87569231 C10.903,2.58769231 10.75425,2.24430769 10.75425,1.84430769 C10.75425,1.64861538 10.793,1.46276923 10.86925,1.28307692 C10.94675,1.10461538 11.05675,0.952 11.19925,0.819076923 C11.343,0.691076923 11.508,0.585230769 11.693,0.505230769 C11.8805,0.422769231 12.0855,0.382153846 12.30425,0.382153846 C12.51425,0.382153846 12.71425,0.420307692 12.908,0.496615385 C13.09925,0.570461538 13.26425,0.675076923 13.40175,0.804307692 C13.53925,0.934769231 13.64925,1.08861538 13.73175,1.26830769 C13.81425,1.44553846 13.8555,1.63876923 13.8555,1.84430769" id="Fill-1207"></path>
                    <path d="M9.721,23.3592615 C9.721,23.9229538 9.6335,24.4632615 9.45725,24.9826462 C9.28225,25.5020308 9.026,25.9598769 8.68975,26.3549538 C8.35475,26.7500308 7.94475,27.0688 7.461,27.3051077 C6.9785,27.5438769 6.4285,27.6620308 5.8135,27.6620308 C5.30725,27.6620308 4.8285,27.5635692 4.37725,27.3617231 C3.92725,27.1623385 3.5735,26.8903385 3.321,26.5432615 L3.2885,26.5432615 L3.2885,31.3334154 L0.58475,31.3334154 L0.58475,19.3469538 L3.156,19.3469538 L3.156,20.3377231 L3.20725,20.3377231 C3.45975,20.0140308 3.8085,19.7297231 4.25475,19.4860308 C4.69975,19.2411077 5.2235,19.1217231 5.8285,19.1217231 C6.42225,19.1217231 6.96225,19.2349538 7.44475,19.4626462 C7.9285,19.6878769 8.3385,19.9980308 8.67475,20.3869538 C9.00975,20.7758769 9.2685,21.2288 9.44975,21.7432615 C9.631,22.2589538 9.721,22.7955692 9.721,23.3592615 M7.0985,23.3592615 C7.0985,23.0995692 7.05725,22.8435692 6.97475,22.5949538 C6.8935,22.3475692 6.771,22.1284923 6.61225,21.9377231 C6.4535,21.7494154 6.25225,21.5943385 6.00975,21.4749538 C5.7685,21.3568 5.48725,21.2964923 5.1685,21.2964923 C4.861,21.2964923 4.586,21.3568 4.34475,21.4749538 C4.10225,21.5943385 3.896,21.7518769 3.726,21.9463385 C3.556,22.1408 3.42475,22.3635692 3.32975,22.6121846 C3.236,22.8608 3.18975,23.1168 3.18975,23.3764923 C3.18975,23.6349538 3.236,23.8884923 3.32975,24.1383385 C3.42475,24.3869538 3.556,24.6097231 3.726,24.8041846 C3.896,24.9986462 4.10225,25.1561846 4.34475,25.2755692 C4.586,25.3949538 4.861,25.4540308 5.1685,25.4540308 C5.48725,25.4540308 5.7685,25.3949538 6.00975,25.2755692 C6.25225,25.1561846 6.4535,24.9986462 6.61225,24.8041846 C6.771,24.6097231 6.8935,24.3869538 6.97475,24.1309538 C7.05725,23.8774154 7.0985,23.6189538 7.0985,23.3592615" id="Fill-1209"></path>
                </g>
                <polygon id="Fill-1212" fill="#00A3DE" points="64.0218579 50 67.0218579 50 67.0218579 38 64.0218579 38"></polygon>
                <path d="M68.4264527,43.4379772 C68.9203902,42.9582193 69.4960124,42.6003458 70.1533193,42.3591701 C70.8093499,42.1205878 71.4794201,42 72.1660826,42 C72.8731662,42 73.4692096,42.0881717 73.959318,42.2645152 C74.4468739,42.4421553 74.8425344,42.715747 75.1462995,43.0878836 C75.4487884,43.4587235 75.6721451,43.9242184 75.8112644,44.4895548 C75.9503838,45.0535946 76.0218579,45.7252557 76.0218579,46.5006483 L76.0218579,50.7951304 L73.4960124,50.7951304 L73.4960124,49.8874802 L73.4449594,49.8874802 C73.2330896,50.2414638 72.9101796,50.5150555 72.4775057,50.7082553 C72.0435554,50.9040484 71.5764208,51 71.0709964,51 C70.7327705,51 70.3856103,50.9533208 70.0269632,50.8625558 C69.6670398,50.7717908 69.3377482,50.6226768 69.0403646,50.4191039 C68.7442574,50.2129376 68.4992032,49.9393459 68.3077545,49.5970321 C68.1163059,49.2547183 68.0218579,48.8333093 68.0218579,48.3302118 C68.0218579,47.7156029 68.1877801,47.2189886 68.5196244,46.8429621 C68.8501923,46.465639 69.2764846,46.1751909 69.7997775,45.9690246 C70.3205178,45.7654517 70.9025216,45.6280075 71.54196,45.5592854 C72.1826748,45.4905633 72.805521,45.4568506 73.411775,45.4568506 L73.411775,45.3194064 C73.411775,44.8979974 73.2649977,44.5868031 72.9739958,44.38712 C72.6829939,44.187437 72.3217941,44.0888921 71.8955018,44.0888921 C71.502394,44.0888921 71.124602,44.1731739 70.7595733,44.3443308 C70.3945446,44.5154877 70.0831215,44.7216539 69.825304,44.9602363 L68.4264527,43.4379772 Z M73.4960124,47.0815444 L73.1424706,47.0815444 C72.8387054,47.0815444 72.5336639,47.0971042 72.2235171,47.1243337 C71.915923,47.1541565 71.640237,47.2086155 71.3990117,47.2864141 C71.1565101,47.3681026 70.9574036,47.4835038 70.801692,47.6378044 C70.6434278,47.7921049 70.565572,47.9943812 70.565572,48.24593 C70.565572,48.4054171 70.6025854,48.5415646 70.6753359,48.6569659 C70.7468101,48.7710705 70.8399817,48.8605388 70.9535746,48.9305576 C71.0646148,48.9992796 71.1947999,49.0472554 71.3403008,49.0744849 C71.4858018,49.1043077 71.6261974,49.1172742 71.7602115,49.1172742 C72.3217941,49.1172742 72.7519154,48.9603803 73.0505752,48.6478894 C73.3466824,48.3328051 73.4960124,47.9075061 73.4960124,47.3719925 L73.4960124,47.0815444 Z" id="Fill-1213" fill="#00A3DE"></path>
                <path d="M80.0553965,44.9477418 L80.0553965,47.9224403 C80.0553965,48.2901395 80.1318133,48.5620714 80.2808263,48.7453299 C80.4336601,48.9285883 80.7036665,49.0196264 81.0972135,49.0196264 C81.230943,49.0196264 81.3748615,49.0089856 81.5264217,48.9877039 C81.6767083,48.9676046 81.8027962,48.9356822 81.9034117,48.8943013 L81.9377993,50.7659021 C81.7467571,50.8285647 81.5060439,50.8841334 81.214386,50.9302436 C80.9227282,50.9787184 80.632344,51 80.3406862,51 C79.7802956,51 79.3103317,50.9361551 78.9282472,50.8049184 C78.5474364,50.674864 78.2430424,50.4880586 78.0137917,50.2421376 C77.7832674,49.9973989 77.6164238,49.7041854 77.5183555,49.366044 C77.4164663,49.0279026 77.3655217,48.6495625 77.3655217,48.2322062 L77.3655217,44.9477418 L76.0218579,44.9477418 L76.0218579,43.0442185 L77.3489647,43.0442185 L77.3489647,41 L80.0553965,41 L80.0553965,43.0442185 L82.0218579,43.0442185 L82.0218579,44.9477418 L80.0553965,44.9477418 Z" id="Fill-1215" fill="#00A3DE"></path>
                <path d="M98.0218579,46.4659042 C98.0218579,47.1568263 97.9022361,47.7821301 97.6629925,48.3405289 C97.4249821,48.9015011 97.0981802,49.3762688 96.6862865,49.7686919 C96.2756261,50.1598284 95.7971388,50.4609006 95.2545244,50.677055 C94.71191,50.8919228 94.1322991,51 93.5132254,51 C92.9064838,51 92.3281062,50.8919228 91.7817922,50.677055 C91.2317784,50.4609006 90.7545244,50.1598284 90.3487968,49.7686919 C89.941836,49.3762688 89.6187338,48.9015011 89.3794902,48.3405289 C89.142713,47.7821301 89.0218579,47.1568263 89.0218579,46.4659042 C89.0218579,45.7749821 89.142713,45.1522516 89.3794902,44.5989993 C89.6187338,44.0444603 89.941836,43.5748392 90.3487968,43.1901358 C90.7545244,42.8041458 91.2317784,42.5095068 91.7817922,42.3049321 C92.3281062,42.1029307 92.9064838,42 93.5132254,42 C94.1322991,42 94.71191,42.1029307 95.2545244,42.3049321 C95.7971388,42.5095068 96.2756261,42.8041458 96.6862865,43.1901358 C97.0981802,43.5748392 97.4249821,44.0444603 97.6629925,44.5989993 C97.9022361,45.1522516 98.0218579,45.7749821 98.0218579,46.4659042 M95.4506055,46.4659042 C95.4506055,46.1944246 95.407443,45.9268049 95.3198848,45.6669049 C95.2335598,45.4082916 95.1077719,45.1792709 94.9462208,44.9798427 C94.7834364,44.7829878 94.5824225,44.6208721 94.344412,44.4960686 C94.1039352,44.3725518 93.8276951,44.3095068 93.5132254,44.3095068 C93.1987557,44.3095068 92.9225156,44.3725518 92.683272,44.4960686 C92.4440284,44.6208721 92.246714,44.7829878 92.0900958,44.9798427 C91.9322443,45.1792709 91.8126225,45.4082916 91.7312304,45.6669049 C91.6510714,45.9268049 91.6103753,46.1944246 91.6103753,46.4659042 C91.6103753,46.7373838 91.6510714,47.0037169 91.7312304,47.2636169 C91.8126225,47.5248034 91.9347108,47.7576841 92.0974951,47.9686919 C92.2602794,48.1771265 92.4612934,48.3443888 92.700537,48.4691923 C92.9373142,48.5939957 93.2147875,48.6557541 93.5304904,48.6557541 C93.8437269,48.6557541 94.1212002,48.5939957 94.3592106,48.4691923 C94.597221,48.3443888 94.798235,48.1771265 94.9610193,47.9686919 C95.1250369,47.7576841 95.2458919,47.5248034 95.3285173,47.2636169 C95.4099094,47.0037169 95.4506055,46.7373838 95.4506055,46.4659042" id="Fill-1217" fill="#00A3DE"></path>
                <path d="M103.916208,44.3280047 C103.805964,44.2972173 103.695721,44.2759029 103.591219,44.2652457 C103.483273,44.2557726 103.381068,44.2510361 103.278863,44.2510361 C102.946984,44.2510361 102.666782,44.3137951 102.439405,44.4381291 C102.21088,44.5612789 102.029437,44.7128478 101.892781,44.8880995 C101.756125,45.0657194 101.658514,45.258733 101.59765,45.4647721 C101.537935,45.6743635 101.505781,45.8543517 101.505781,46.0106572 L101.505781,50 L99.0218579,50 L99.0218579,42.2285376 L101.416208,42.2285376 L101.416208,43.3522795 L101.446066,43.3522795 C101.637843,42.9544109 101.911155,42.6287744 102.263705,42.3777383 C102.618551,42.1267022 103.026222,42 103.491311,42 C103.593516,42 103.692276,42.0059207 103.787591,42.0165779 C103.884054,42.0272351 103.962143,42.0414446 104.021858,42.062759 L103.916208,44.3280047 Z" id="Fill-1219" fill="#00A3DE"></path>
                <path d="M115.357086,50 L115.357086,45.750148 C115.357086,45.5310835 115.339846,45.3203079 115.307829,45.1166371 C115.275813,44.9129663 115.215474,44.7388988 115.129275,44.5932504 C115.043076,44.446418 114.927323,44.330373 114.780786,44.2403789 C114.633016,44.1527531 114.442148,44.1089402 114.203254,44.1089402 C113.975443,44.1089402 113.778418,44.1551214 113.609714,44.2486679 C113.442243,44.3422143 113.301862,44.4689165 113.187341,44.6240379 C113.074051,44.7803434 112.990315,44.9603316 112.936133,45.1628182 C112.880719,45.366489 112.85486,45.5784488 112.85486,45.7963292 L112.85486,50 L110.188856,50 L110.188856,45.5618709 C110.188856,45.1142688 110.097732,44.7602131 109.91302,44.499704 C109.72954,44.2391948 109.436464,44.1089402 109.035025,44.1089402 C108.613882,44.1089402 108.285096,44.2699822 108.052359,44.5932504 C107.819622,44.9153345 107.70387,45.3120189 107.70387,45.7797513 L107.70387,50 L105.021858,50 L105.021858,42.2166963 L107.605357,42.2166963 L107.605357,43.2966252 L107.638605,43.2966252 C107.735887,43.1284784 107.857796,42.9674364 108.004334,42.812315 C108.150872,42.6548253 108.325732,42.517466 108.532609,42.3978686 C108.738255,42.277087 108.968528,42.1811723 109.22343,42.1101243 C109.477101,42.035524 109.757862,42 110.060789,42 C110.644478,42 111.140736,42.1136767 111.547102,42.3433985 C111.952236,42.5719361 112.26994,42.9011249 112.496519,43.3274127 C112.76743,42.9212552 113.114687,42.5991711 113.537061,42.3587922 C113.959435,42.1195974 114.474164,42 115.08125,42 C115.632922,42 116.097163,42.0959147 116.469049,42.2889284 C116.843398,42.481942 117.143862,42.731794 117.371673,43.0384843 C117.599484,43.3451747 117.764493,43.6897573 117.8667,44.0698638 C117.970139,44.4499704 118.021858,44.821788 118.021858,45.1865009 L118.021858,50 L115.357086,50 Z" id="Fill-1221" fill="#00A3DE"></path>
                <path d="M88.8501587,40.3478048 C88.7566122,40.3160262 88.6464879,40.2867899 88.5209698,40.2651804 C88.3966359,40.2422998 88.2711178,40.2308595 88.1467839,40.2308595 C87.9075891,40.2308595 87.7145755,40.2753496 87.5701113,40.3656009 C87.4232789,40.454581 87.3072339,40.5753398 87.2255287,40.7253349 C87.1402712,40.8778723 87.084617,41.0469346 87.0526454,41.2376063 C87.0218579,41.4270069 87.0064642,41.6176787 87.0064642,41.8070793 L87.0064642,42.6473062 L88.7400344,42.6473062 L88.7400344,44.6925785 L87.0064642,44.6925785 L87.0064642,51 L84.4440012,51 L84.4440012,44.6925785 L83.0218579,44.6925785 L83.0218579,42.6473062 L84.4440012,42.6473062 L84.4440012,41.8414002 C84.4440012,41.3265865 84.496103,40.8384668 84.6003067,40.3744989 C84.7045104,39.9079887 84.8833144,39.5012223 85.1390871,39.1491151 C85.3948597,38.7957368 85.737074,38.5160849 86.1704666,38.3101594 C86.602675,38.1042339 87.1402712,38 87.7879917,38 C88.0058721,38 88.2225684,38.0139826 88.4357123,38.0432189 C88.6500403,38.069913 88.844238,38.1105896 89.0218579,38.1677911 L88.8501587,40.3478048 Z" id="Fill-1223" fill="#00A3DE"></path>
            </g>
        </g>
    </g>
</svg>