<?xml version="1.0" encoding="UTF-8"?>
<svg width="122px" height="41px" viewBox="0 0 122 41" version="1.1" xmlns="http://www.w3.org/2000/svg" xmlns:xlink="http://www.w3.org/1999/xlink">
    <!-- Generator: sketchtool 60.1 (101010) - https://sketch.com -->
    <title>455EAC68-EA54-4185-8F54-2B6FC44DF334</title>
    <desc>Created with sketchtool.</desc>
    <g id="Page-1" stroke="none" stroke-width="1" fill="none" fill-rule="evenodd">
        <g id="LP-DE-PATROCÃNIO" transform="translate(-1483.000000, -3438.000000)">
            <g id="Group-369" transform="translate(1482.000000, 3438.000000)">
                <path d="M89.2361273,14.1319545 C87.5936424,12.0161061 85.2976424,10.917803 82.4027939,10.8445 C80.2111576,10.8668636 78.3338545,11.5129242 76.8516424,12.7590758 C75.3942788,13.9269545 74.3419455,15.4501667 73.7356424,17.2889545 C73.5356121,17.8269242 73.3815515,18.4232879 73.2734606,19.1438939 C73.1765515,19.7949242 73.0808848,20.5006212 73.0237333,21.2460758 C72.9752788,21.9902879 72.9255818,22.7419545 72.9144,23.5184697 C72.8895515,24.2813182 72.8895515,25.0068939 72.8895515,25.6927121 C72.8895515,26.374803 72.8895515,27.007197 72.9044606,27.5787121 L72.9355212,37.2795606 L72.9404909,37.2795606 L72.9404909,38.1852879 C72.9417333,38.592803 73.2734606,38.9220455 73.6760061,38.9220455 L75.8154606,38.9220455 C76.2180061,38.9220455 76.5484909,38.592803 76.5484909,38.1852879 L76.5484909,37.2795606 L76.5559455,37.2795606 L76.5559455,30.7742273 C78.0592788,32.0042273 80.0310061,32.6540152 82.4487636,32.706197 C85.4392788,32.6540152 87.7564,31.5022879 89.3268242,29.2895303 C90.8251879,27.2208939 91.5917651,24.6776515 91.5917651,21.7393182 C91.5930061,18.6506515 90.7966121,16.0925 89.2361273,14.1319545 L89.2361273,14.1319545 Z M86.5599455,27.0047121 C85.7262788,28.3701364 84.3782485,29.0547121 82.4512485,29.0870152 C79.770097,29.0485 76.6826727,28.1800455 76.5571879,21.7380758 C76.5571879,19.6545303 77.0901879,17.946197 78.2170667,16.5025 C79.178703,15.1569545 80.5553091,14.484803 82.4288848,14.4574697 C84.3061879,14.484803 85.6119758,15.1271364 86.5114909,16.4826212 C87.4793394,17.8865606 87.970097,19.6545303 87.970097,21.7380758 C87.9688545,23.7035909 87.4855515,25.4715606 86.5599455,27.0047121 L86.5599455,27.0047121 Z M70.6246121,14.2301061 L70.6246121,29.4025909 C70.6258545,29.4224697 70.6345515,29.4348939 70.6345515,29.4448333 L70.6345515,31.5917424 C70.6345515,31.9992576 70.3015818,32.3272576 69.8953091,32.3272576 L67.7521273,32.3272576 C67.347097,32.3272576 67.0128848,31.9992576 67.0128848,31.5917424 L67.0128848,29.4448333 C67.0128848,29.4299242 67.0203394,29.4137727 67.0240667,29.4001061 L67.0240667,14.2363182 C67.0203394,14.2201667 67.0128848,14.2077424 67.0128848,14.1853788 L67.0128848,12.0459242 C67.0128848,11.6346818 67.3408848,11.3004697 67.7533697,11.3004697 L69.8953091,11.3004697 C70.3015818,11.3079242 70.6345515,11.6371667 70.6345515,12.0459242 L70.6345515,14.1853788 C70.6345515,14.2015303 70.6258545,14.2139545 70.6246121,14.2301061 L70.6246121,14.2301061 Z M110.940036,22.0176212 C111.071733,19.1426515 110.413248,16.5981667 108.995642,14.4748636 C107.469945,12.1490455 105.057158,10.9488636 101.809461,10.8954394 C99.3432485,10.8954394 97.2149758,11.8794394 95.4768242,13.8002273 C93.6653697,15.6862273 92.7298242,18.3872576 92.6813697,21.8163485 C92.6577636,24.8503485 93.3634606,27.3985606 94.7736121,29.3963788 C96.252097,31.5967121 98.6139455,32.7335303 101.809461,32.7608636 L101.829339,32.7608636 C104.219764,32.7347727 106.2474,32.0029848 107.857582,30.5853788 C108.810521,29.7442576 109.549764,28.6422273 110.061642,27.3277424 L110.410764,26.4294697 L110.397097,26.4095909 C110.413248,26.3561667 110.4294,26.2965303 110.4294,26.2356515 C110.4294,25.9374697 110.190855,25.6976818 109.89143,25.6976818 C109.876521,25.6976818 109.861612,25.7063788 109.844218,25.7063788 L107.338248,25.7063788 C107.322097,25.7038939 107.304703,25.6976818 107.291036,25.6976818 C106.976703,25.6976818 106.709582,25.9014394 106.610188,26.1847121 L106.571673,26.2083182 C105.710673,28.1775606 104.131552,29.139197 101.761006,29.1652879 C99.8054303,29.139197 98.4698242,28.524197 97.6684606,27.2855 C96.9751879,26.2567727 96.5378545,24.9534697 96.3626727,23.4178333 L110.881642,23.4178333 L110.940036,22.0176212 Z M96.4794606,19.8235 C96.7652182,18.3176818 97.3143697,17.1001061 98.1070364,16.2179848 C99.1544,15.0737121 100.385642,14.5195909 101.881521,14.4959848 C103.70043,14.5195909 105.021127,15.1035303 105.915673,16.3049545 C106.641248,17.2815 107.086036,18.4642879 107.266188,19.8222576 L96.4794606,19.8222576 L96.4794606,19.8235 Z M122.308218,13.9381364 C122.308218,14.2301061 122.07837,14.4624394 121.793855,14.4823182 L121.767764,14.5059242 L121.275764,14.4959848 C119.469279,14.4959848 118.199521,15.0153182 117.411824,16.0999545 C116.452673,17.3808939 115.996703,18.8668333 115.996703,20.6186515 L115.996703,31.0301667 L115.994218,31.0301667 L115.994218,31.5842879 C115.992976,31.991803 115.664976,32.3222879 115.261188,32.3222879 L113.122976,32.3222879 C112.719188,32.3222879 112.388703,31.991803 112.387461,31.5842879 L112.387461,31.0301667 L112.387461,12.5068636 L112.388703,12.5068636 L112.388703,12.0508939 C112.387461,11.6495909 112.712976,11.3215909 113.124218,11.3215909 L115.258703,11.3215909 C115.663733,11.3215909 115.992976,11.6520758 115.990491,12.0508939 L115.990491,12.5068636 L115.995461,12.5068636 L115.995461,12.821197 C117.267703,11.7812879 119.026976,10.8929545 121.209915,10.8929545 L121.603764,10.9053788 C121.616188,10.9053788 121.631097,10.8954394 121.643521,10.8954394 C122.011279,10.8954394 122.308218,11.1948636 122.308218,11.5626212 L122.308218,13.9381364 Z M70.6345515,8.04283333 C70.6320667,8.44910606 70.3015818,8.77710606 69.8977939,8.77710606 L67.7521273,8.77710606 C67.3508242,8.77710606 67.0153697,8.44910606 67.0153697,8.04283333 L67.0153697,5.85616667 C67.0153697,5.44865152 67.3446121,5.12065152 67.7546121,5.12065152 L69.8977939,5.12065152 C70.3028242,5.12065152 70.6345515,5.45113636 70.6333091,5.85616667 L70.6345515,8.04283333 Z M64.6709152,28.2558333 L64.6671879,31.7979848 L64.6671879,31.7992273 L64.6671879,31.8017121 C64.6920364,32.0427424 64.518097,32.2601667 64.2758242,32.2862576 C64.1391576,32.2999242 64.0161576,32.2465 63.9254606,32.1582879 L63.9204909,32.1595303 L63.8223394,32.0812576 L63.8173697,32.0862273 L52.1857939,22.725803 L52.1895212,22.7220758 L51.9224,22.5058939 L49.2971576,24.6664697 L49.2971576,29.4100455 C49.2971576,29.426197 49.3008848,29.4361364 49.3008848,29.4435909 L49.3046121,31.5905 C49.3008848,31.9980152 48.9716424,32.3260152 48.5653697,32.3260152 L46.419703,32.3260152 C46.0184,32.3260152 45.6841879,31.9980152 45.6841879,31.5905 L45.6841879,30.3132879 L45.6779758,30.3132879 L45.6841879,5.84622727 C45.6841879,5.43995455 46.0146727,5.11195455 46.4246727,5.11195455 L48.5666121,5.11195455 C48.9728848,5.11195455 49.3058545,5.44243939 49.3033697,5.84622727 L49.2984,19.9353182 L59.6415818,11.5104394 L59.6639455,11.5005 C59.7956424,11.3812273 59.9658545,11.2992273 60.1571879,11.2992273 L64.2435212,11.2992273 C64.4920061,11.2992273 64.6982485,11.5054697 64.6982485,11.7576818 C64.6982485,11.8968333 64.6212182,12.0136212 64.518097,12.0981061 L64.5230667,12.1117727 L63.9801273,12.5863788 L54.7762485,20.160197 L64.4621879,27.932803 C64.5740061,28.0036212 64.6560061,28.114197 64.6721576,28.2558333 L64.6709152,28.2558333 Z" id="Fill-363" fill="#3B3B3D"></path>
                <path d="M18.7019636,40.3077212 L18.7019636,35.1156303 L6.53490303,26.2596303 C6.52993333,26.2546606 6.52247879,26.2521758 6.51750909,26.2484485 C6.08017576,25.9490242 5.79317576,25.4470848 5.79317576,24.8743273 L5.79317576,20.8178121 L18.7019636,30.1819636 L18.7019636,26.2347818 L6.53614545,17.3787818 C6.52993333,17.3738121 6.52620606,17.3713273 6.51999394,17.3663576 L6.48272121,17.3427515 L6.47775152,17.3315697 C6.06526667,17.030903 5.79441818,16.5463576 5.79441818,15.9947212 L5.79441818,9.97517576 L18.7032061,19.3405697 L18.7032061,12.6911152 L2.99647879,1.45587273 L2.29575152,0.978781818 C2.16405455,0.87690303 2.00253939,0.813539394 1.8236303,0.813539394 C1.39375152,0.813539394 1.0446303,1.16266061 1.0446303,1.59378182 L1.04587273,1.60247879 L1.04338788,1.60372121 L1.04338788,2.43490303 L1.04338788,26.7205697 C1.04338788,27.5480242 1.48196364,28.2686303 2.13672121,28.6699333 L18.7019636,40.3077212 Z" id="Fill-365" fill="#127859"></path>
                <path d="M18.7019636,40.3077212 L18.7019636,35.1156303 L30.8715091,26.2596303 C30.8752364,26.2546606 30.8814485,26.2521758 30.888903,26.2484485 C31.3237515,25.9490242 31.6107515,25.4470848 31.6107515,24.8743273 L31.6107515,20.8178121 L18.7019636,30.1819636 L18.7019636,26.2347818 L30.8690242,17.3787818 C30.8739939,17.3738121 30.8802061,17.3713273 30.8851758,17.3663576 L30.9212061,17.3427515 L30.9261758,17.3315697 C31.3386606,17.030903 31.6095091,16.5463576 31.6095091,15.9947212 L31.6095091,9.97517576 L18.7007212,19.3405697 L18.7007212,12.6911152 L34.4074485,1.45587273 L35.1081758,0.978781818 C35.2398727,0.87690303 35.4013879,0.813539394 35.5815394,0.813539394 C36.0114182,0.813539394 36.3605394,1.16266061 36.3605394,1.59378182 L36.359297,1.60247879 L36.3605394,1.60372121 L36.3605394,2.43490303 L36.3605394,26.7205697 C36.3605394,27.5480242 35.9219636,28.2686303 35.2659636,28.6699333 L18.7019636,40.3077212 Z" id="Fill-367" fill="#36996B"></path>
            </g>
        </g>
    </g>
</svg>