<?xml version="1.0" encoding="UTF-8"?>
<svg width="124px" height="26px" viewBox="0 0 124 26" version="1.1" xmlns="http://www.w3.org/2000/svg" xmlns:xlink="http://www.w3.org/1999/xlink">
    <!-- Generator: sketchtool 60.1 (101010) - https://sketch.com -->
    <title>4AE27A72-544F-42BA-ACE7-6CC084273424</title>
    <desc>Created with sketchtool.</desc>
    <g id="Page-1" stroke="none" stroke-width="1" fill="none" fill-rule="evenodd">
        <g id="LP-DE-PATROCÃNIO" transform="translate(-1013.000000, -3547.000000)" fill="#7DAB78">
            <g id="Group-36" transform="translate(1013.000000, 3547.000000)">
                <path d="M3.18856469,15.6559272 C3.92024977,15.0449948 4.73476713,14.9482134 5.59948586,14.7848949 C9.28677708,14.0856495 12.7682426,12.8637847 15.9208892,10.8519419 C16.3174801,10.6015201 16.7278763,10.3765035 17.1821988,10.2325412 C17.59134,10.1018863 17.8410919,10.2434291 17.8611724,10.6535401 C17.8862731,11.1689009 17.8674476,11.6854715 17.8674476,12.1996225 L17.9088637,12.1996225 C17.9088637,12.6157824 17.8912933,13.0331521 17.9113738,13.449312 C17.9954611,15.0982246 19.4010997,15.8712658 20.9121612,15.0849171 C21.3978595,14.8320758 21.852182,14.5151168 22.3002293,14.2005774 C24.3961368,12.7307103 26.7568566,12.2347058 29.3033215,12.4113318 C29.7990601,12.4452052 30.1906309,12.6327192 30.558356,12.9629856 C31.2950612,13.6271477 32.5337802,13.6138403 33.2729955,12.9859712 C34.1025732,12.2794672 34.2469022,10.9487233 33.5779688,10.1950384 C32.7245454,9.23569304 31.469511,9.11471633 30.5269801,9.94461658 C30.1567449,10.2700439 29.79655,10.3813425 29.3033215,10.3172249 C28.2541127,10.1805212 27.2036489,10.3087565 26.1682455,10.4466699 C24.1237943,10.7176578 22.3177998,11.5487678 20.6837449,12.7488568 C20.5431811,12.8541065 20.3812816,13.0186349 20.1930264,12.9436293 C19.9608451,12.8504772 20.0198317,12.6048945 20.0148115,12.4149611 C19.995986,11.6612761 20.0461874,10.9027522 19.9671202,10.1563258 C19.7901604,8.48321789 18.4548037,7.65210786 16.7956482,8.13722448 C16.0815336,8.34409466 15.4100902,8.65863412 14.7951233,9.05785727 C11.8784232,10.9475135 8.63792427,12.0387235 5.2292507,12.742808 C4.55404217,12.8819312 3.99806191,12.8819312 3.41321585,12.3810876 C2.59116829,11.6770031 1.29597274,11.8003994 0.601938687,12.514162 C-0.167397431,13.3065594 -0.202538395,14.4159159 0.51534131,15.2748506 C1.12152295,15.9982913 2.44307422,16.2789573 3.18856469,15.6559272 M31.9125381,10.6366034 C32.3781559,10.6366034 32.7270555,10.9801773 32.7182702,11.4326302 C32.709485,11.9032296 32.3756458,12.2407546 31.9175583,12.2395481 C31.4569606,12.2383351 31.1218664,11.9044393 31.1118261,11.4350497 C31.1005308,10.9838066 31.4469203,10.6366034 31.9125381,10.6366034 M2.11676527,13.1420311 C2.53845684,13.1384018 2.93504773,13.5206882 2.93881283,13.9356384 C2.94383297,14.3517983 2.55602732,14.7401335 2.13182568,14.7437656 C1.67373811,14.7449726 1.26961701,14.3566373 1.27211545,13.9150723 C1.27463715,13.5098003 1.67122804,13.1468702 2.11676527,13.1420311" id="Fill-672"></path>
                <path d="M4.26113349,11.8738483 C5.00029546,12.2114728 5.73071734,11.8496412 5.91176208,11.0482607 C6.2538742,9.53213538 7.56488783,8.28228753 9.04570893,8.06187603 C9.75115912,7.95740353 9.88475765,8.06060197 9.89349774,8.76515433 C9.8972435,9.06328318 9.94968404,9.29133901 10.2818075,9.37797474 C11.2794264,9.6417041 11.7151824,9.35504175 11.8263064,8.33452378 C11.8400408,8.21221451 11.8587696,8.08735713 11.8862385,7.96504786 C12.5180222,5.05383241 14.9889707,2.99623374 17.9755846,2.89176124 C20.7799052,2.79238496 23.4656102,4.7913771 24.2597099,7.56626867 C24.5306527,8.51161741 24.5306527,8.53582445 25.5257745,8.5090693 C26.5183991,8.48104009 27.4161313,8.75241378 28.1028527,9.46715858 C28.5660775,9.9525735 28.9256698,9.98060271 29.3839003,9.54360188 C29.4725498,9.45951425 29.5786795,9.3932634 29.6835606,9.32701254 C30.0743675,9.082394 30.1018363,8.82758302 29.7734586,8.47976603 C28.9094382,7.56881678 27.906825,6.90121201 26.6707264,6.70628161 C26.0913832,6.61200155 25.7667513,6.33807975 25.5370118,5.81189507 C25.0275893,4.649957 24.2709472,3.68422339 23.3007971,2.87392447 C19.290344,-0.476839913 13.1747776,0.81887392 10.8236931,5.54179544 C10.607688,5.97752221 10.3205136,6.16735639 9.85853738,6.14697151 C9.57386014,6.13550502 9.28668572,6.1444234 9.00075989,6.16480828 C6.52356843,6.33043542 4.13502647,8.78553921 4.00642227,11.2979755 C3.98519634,11.5387719 4.0039251,11.7553612 4.26113349,11.8738483" id="Fill-674"></path>
                <path d="M40.7204175,19.9925324 C42.4879985,19.9986738 44.2555795,19.9937607 46.024415,19.9925324 C47.8333943,19.9925324 49.6423736,19.9839345 51.4526074,20 C51.9694586,20.0048152 52.2504651,19.8254872 52.3508245,19.3132969 C52.5126542,18.4817555 52.7096096,17.6588119 52.9053105,16.8358683 C53.1035205,16.0055551 53.0458138,15.9171194 52.1902494,15.9158911 C50.2370034,15.9134346 48.2850119,15.9171194 46.3305114,15.9122063 C45.6518305,15.9097498 45.5740519,15.8065748 45.7082827,15.1555896 C45.9453819,14.0120665 46.1799722,12.8673152 46.4271074,11.7237921 C47.0731714,8.75382565 47.7305259,5.78263092 48.3703174,2.81020792 C48.5083117,2.18133165 48.3627905,2.01919949 47.6803461,2.00814502 C46.8172548,1.99709055 45.9529089,1.99831883 45.0885631,2.00568847 C43.9294113,2.01305812 43.8001985,1.89514382 43.5254645,3.2167666 C42.4164924,8.55975836 41.2247238,13.8892391 40.065572,19.2224047 C39.9162873,19.9151512 39.9777575,19.9888476 40.7204175,19.9925324" id="Fill-676"></path>
                <path d="M30.7424867,15.1289422 C30.1470406,14.8014979 29.2941043,15.1301373 29.1084143,15.7491743 C28.6491409,17.2848162 27.4681521,18.2145667 25.8179865,18.220542 C20.2571884,18.2384678 14.6988662,18.2301024 9.13930597,18.2241272 C8.28760759,18.2229321 7.44086095,18.0580149 6.82560791,17.4736344 C6.29082056,16.9633472 5.93181979,17.0852425 5.45026358,17.4939503 C4.87710029,17.9815316 4.83996228,18.1380834 5.4032221,18.6459806 C6.45298987,19.5876816 7.72063396,19.9892191 9.1294025,19.9939993 C11.9098016,20.0023647 14.6889627,19.9951944 17.4693617,19.9975845 C20.2485229,19.9975845 23.0289219,19.9916092 25.809321,20 C26.6374986,20.0023647 27.4223486,19.8362524 28.1564433,19.4741517 C29.67415,18.7224639 30.6521176,17.5620683 30.9541734,15.9188717 C31.0049287,15.6392295 31.0841564,15.3165654 30.7424867,15.1289422" id="Fill-678"></path>
                <path d="M54.6755943,19.9996273 C55.7661441,19.9792847 56.8554154,19.9843704 57.9446868,19.9945416 C58.4445754,19.9996273 58.6670322,19.7796736 58.6785386,19.2838243 C58.7066653,17.9653738 58.9534134,16.6748942 59.2397946,15.394586 C59.7857087,12.9522104 60.3367368,10.5123776 60.8916004,8.07254487 C61.1166142,7.07576067 61.0654747,7.01091884 60.012001,7.00837602 C59.5517455,7.00710461 59.09149,7.00710461 58.6299561,7.00710461 L58.6299561,7.00964743 C58.1044977,7.00964743 57.5803178,7.03380419 57.0574165,7.00329039 C56.4578058,6.96641954 56.2008299,7.23977235 56.083209,7.8055491 C55.5424088,10.417022 54.965811,13.0234093 54.4160613,15.6323393 C54.1603639,16.8389059 54.0261227,18.0569152 54.0005529,19.2939956 C53.9890465,19.8127302 54.1552499,20.0097985 54.6755943,19.9996273" id="Fill-680"></path>
                <path d="M119.916626,19.9995222 C120.819482,20.0043279 120.86917,19.989911 120.939459,19.109279 C121.040046,17.8502036 121.20365,16.6043437 121.481172,15.3716993 C121.964715,13.2187764 122.437351,11.0634508 122.908775,8.90812514 C122.962098,8.66664216 123.102677,8.40353385 122.871207,8.18247481 C122.426444,7.75957925 121.153963,8.12721005 121.020655,8.7183027 C120.731014,10.0062119 120.435314,11.2929197 120.163851,12.5832317 C119.713029,14.7217376 119.114357,16.8338126 119.007711,19.0311875 C118.966507,19.8913955 119.065882,19.995918 119.916626,19.9995222" id="Fill-682"></path>
                <path d="M122.764854,4.99931833 C123.666554,5.01774169 123.965355,4.66539491 123.999262,3.61641479 C124.020453,2.95317379 123.580729,3.05219936 123.272392,3.00038365 C122.365393,2.98656613 122.026328,3.34467021 122.000898,4.28771601 C121.986064,4.83350808 122.151358,4.98550081 122.764854,4.99931833" id="Fill-684"></path>
                <path d="M58.8647267,4.99735881 C58.9021252,4.99991677 58.9395237,4.99735881 58.9757889,4.99607983 C59.5741649,5.02165942 60.1589414,4.91934107 60.7380514,4.76842149 C61.0259065,4.69296171 61.2536974,4.53436826 61.3681594,4.21590238 C61.7398778,3.18248701 62.0322661,2.13372389 61.9971341,0.995432203 C61.9801348,0.490235332 61.7976755,0.201185983 61.3568265,0.144910889 C60.8774458,0.0847988559 60.3923987,-0.0315882714 59.9198177,0.00806009064 C57.581845,0.20758088 57.648709,0.124447218 57.184061,2.56601893 C56.7749441,4.71086742 56.9313378,4.87585577 58.8647267,4.99735881" id="Fill-686"></path>
                <path d="M83.0170776,13.7485358 C83.2705164,15.7023857 83.7874809,17.5862279 84.4897962,19.4229741 C84.6461464,19.8341099 84.9058896,20.0097655 85.333331,19.9995825 C85.9965587,19.985581 86.6572646,19.9970368 87.3179705,19.9983097 C87.9799373,19.9983097 88.6406432,20.0034011 89.3013491,19.9944911 C89.9948381,19.9868539 90.0276212,19.9232106 89.7703998,19.2765944 C89.0390841,17.4360297 88.358204,15.5801905 87.9471542,13.632705 C87.8298915,13.0815538 87.9231973,12.6335049 88.2371587,12.1663629 C89.313958,10.5549141 90.5559338,9.07584339 91.7726918,7.57640681 C91.8735629,7.45039304 92.0538701,7.33965366 91.9845212,7.15508804 C91.9126505,6.96543095 91.7058647,7.00361694 91.5482535,7.00234408 C90.3491479,6.99852548 89.1513033,7.00488981 87.9534586,7.00107121 C87.5953661,6.99979834 87.3167096,7.14872371 87.0859669,7.41093418 C85.6662057,9.01601867 84.332185,10.6822007 83.2591684,12.5507686 C83.0410345,12.9326285 82.9615985,13.3195799 83.0170776,13.7485358" id="Fill-688"></path>
                <path d="M77.5919758,20 C78.6683052,19.9925383 79.7458522,19.9937761 80.8221817,19.9950138 C81.2105857,19.9950138 81.4041788,19.8093497 81.4334005,19.4107907 C81.4808856,18.7634418 81.5125423,18.1111419 81.6184707,17.4736951 C82.1201084,14.4547965 82.8871758,11.4903595 83.4959594,8.49250285 C83.9464593,6.26824672 84.4627078,4.05884372 84.9424293,1.84201416 C85.0885374,1.16743453 84.982609,1.02880532 84.3202524,1.01518996 C83.8015688,1.00405011 83.2828851,1.01271443 82.7642015,1.01271443 C82.2856975,1.01271443 81.8047585,1.04489621 81.3286897,1.00652563 C80.6870317,0.953301916 80.4216021,1.22437153 80.2901048,1.86676937 C79.4365902,6.05411411 78.5502012,10.2365078 77.6625947,14.4189015 C77.3204583,16.025515 77.0233718,17.6358418 77.0002381,19.2870146 C76.9941502,19.7128044 77.1025137,20.0036781 77.5919758,20" id="Fill-690"></path>
                <path d="M105.283805,25.866819 C106.123166,26.2283398 106.913002,25.8314254 107.108557,24.9478484 C107.471729,23.3121566 107.846331,21.6752007 108.196805,20.0344527 C108.286963,19.6122571 108.458391,19.4732107 108.888864,19.6274258 C109.516163,19.8524282 110.173937,19.9687216 110.822822,20.1115602 C112.441861,20.4705529 113.75106,19.9611373 114.909149,18.8399173 C116.994216,16.8212157 117.95929,14.3512452 117.989766,11.4906806 C118.046909,10.3239545 117.871672,9.21663921 117.288818,8.18769552 C116.714853,7.1713924 115.989777,6.82251223 114.846927,7.0829083 C113.845027,7.31043885 113.045032,7.91086668 112.264084,8.53657569 C111.695198,8.99542896 111.201233,9.52506951 110.709807,10.0610304 C110.629807,10.1495145 110.53203,10.268336 110.396158,10.205133 C110.255206,10.139402 110.30219,9.99024307 110.312349,9.87394968 C110.354253,9.39866365 110.410126,8.92464168 110.446951,8.44935564 C110.521871,7.48361488 110.410126,7.36732149 109.443782,7.37237772 C109.359973,7.37364178 109.277434,7.37996207 109.193625,7.37490584 C108.700929,7.35088873 108.492676,7.56957086 108.46093,8.07266618 C108.394899,9.16607687 108.257757,10.2582235 108.026647,11.3326733 C107.263477,14.8758295 106.493957,18.4189858 105.726977,21.960878 C105.498407,23.0125747 105.264758,24.0642715 105.046346,25.1210245 C104.987934,25.4003814 104.920632,25.7088117 105.283805,25.866819 M108.760611,17.4203795 C109.046324,16.0830055 109.334576,14.7468956 109.639336,13.4120497 C109.719336,13.0619055 109.977112,12.7951891 110.210762,12.5322649 C111.412025,11.1784582 112.643764,9.8549888 114.295819,9.02197419 C115.032322,8.6490769 115.272321,8.73882506 115.574542,9.49599616 C115.871683,10.2354704 115.997396,11.0103384 115.980889,11.8117515 C115.918667,14.4283528 114.873593,16.5734602 112.853287,18.250866 C112.487575,18.5542401 112.077418,18.7286801 111.592342,18.6945506 C110.754251,18.6338757 109.951716,18.4253061 109.161879,18.1560616 C108.799976,18.0309198 108.685691,17.7692597 108.760611,17.4203795" id="Fill-692"></path>
                <path d="M90.1138747,19.3355607 C90.0130312,19.5276559 89.8875916,19.7442218 90.1888925,19.8934932 C90.7632089,20.1761301 91.8208364,19.867799 92.1258266,19.3037488 C92.9780777,17.7339517 93.8241797,16.1604841 94.6555241,14.5808987 C94.858441,14.1954848 95.1326863,14.0290839 95.5680353,14.0327545 C97.3020525,14.0449899 99.0348399,14.0474369 100.768857,14.0327545 C101.312429,14.0278604 101.501818,14.2725676 101.542401,14.791347 C101.649394,16.1506958 101.79205,17.5051504 101.940856,18.8620522 C102.057687,19.9424347 102.076134,19.9448818 103.158357,19.9387641 C103.218618,19.936317 103.278878,19.9326464 103.339138,19.936317 C103.856884,19.9754702 104.048732,19.7870456 103.989702,19.2315601 C103.423994,13.9679071 102.885342,8.7030305 102.329473,3.43937746 C102.179437,2.0004988 102.16345,2.00172234 100.429433,2.00539295 C100.030977,1.99560466 99.4000904,1.92708662 98.961052,2.76031483 C96.4055287,7.62998919 93.7848261,12.4654045 91.1874897,17.3130552 C90.8259286,17.9872237 90.4643676,18.6577216 90.1138747,19.3355607 M96.2026118,11.6395175 C97.4840628,9.25117475 98.7581351,6.85916134 100.039586,4.47081853 C100.110914,4.33867662 100.157647,4.11476948 100.349496,4.15147557 C100.533965,4.18573458 100.519208,4.40474757 100.533965,4.55524254 C100.776236,6.93012644 101.011128,9.30501034 101.248479,11.6786707 C101.289062,12.0726494 101.092294,12.2353797 100.723355,12.2366033 C100.01745,12.2378268 99.3115448,12.2366033 98.6068697,12.2366033 L98.6068697,12.2427209 C97.9403184,12.2427209 97.2749969,12.2378268 96.6084456,12.245168 C96.1534198,12.2500621 95.9468135,12.1166967 96.2026118,11.6395175" id="Fill-694"></path>
                <path d="M61.7752012,19.9874586 C62.780694,19.9936753 63.7900245,19.9638352 64.794238,19.9986486 C65.4133964,20.0197853 65.6986698,19.7947415 65.8176403,19.1991837 C66.140012,17.5990105 66.5148331,16.008784 66.8730239,14.4160708 C66.9536168,14.0592334 67.0188587,13.6899627 67.3220417,13.4263755 C68.1509975,12.7015107 69.0413575,12.0587061 70.050688,11.5862385 C70.5854157,11.3350847 70.7146203,11.4196315 70.7427638,11.9977827 C70.7811414,12.7450275 70.5188946,13.4437822 70.358988,14.1587003 C69.9880046,15.8322303 69.6451649,17.508247 69.605508,19.2315104 C69.5927155,19.7760915 69.8012337,20.022272 70.3756183,19.9961619 C70.8988327,19.9700519 71.4233264,19.9899453 71.94782,19.9899453 C72.4505664,19.9899453 72.9558713,19.9725386 73.4573384,19.9949186 C73.9946246,20.018542 74.2466374,19.8395016 74.2914113,19.2737838 C74.4398046,17.4846236 74.730195,15.7190867 75.2124734,13.9796599 C75.5988077,12.5846372 75.944206,11.165991 75.9979346,9.71377478 C76.0478255,8.39956883 75.1881676,7.24450986 74.0355607,7.07292952 C73.2488202,6.95605595 72.4505664,6.96848931 71.6663844,7.19228975 C70.2233872,7.60632058 69.0311235,8.4194622 67.9130565,9.36315408 C67.7915275,9.46510762 67.6815117,9.63793129 67.4921823,9.56830449 C67.3015736,9.49370434 67.3425097,9.29228394 67.3309964,9.1381103 C67.3028529,8.73153949 67.2811056,8.32372534 67.2619168,7.9159112 C67.2401695,7.45712028 66.9843189,7.27932326 66.5250671,7.28802661 C65.7703079,7.30170331 65.0142695,7.28802661 64.2595103,7.29051328 C63.2693686,7.29299996 63.2143607,7.34895007 63.0813184,8.30010196 C62.8715209,9.81199831 62.7333616,11.3350847 62.4033144,12.8308177 C61.9415041,14.9245952 61.5091166,17.023346 61.0728914,19.1196102 C60.9104263,19.9116151 60.9692719,19.9824852 61.7752012,19.9874586" id="Fill-696"></path>
            </g>
        </g>
    </g>
</svg>