<?xml version="1.0" encoding="UTF-8"?>
<svg width="132px" height="33px" viewBox="0 0 132 33" version="1.1" xmlns="http://www.w3.org/2000/svg" xmlns:xlink="http://www.w3.org/1999/xlink">
    <!-- Generator: sketchtool 60.1 (101010) - https://sketch.com -->
    <title>1CBD987D-974E-4923-9351-4ECE7B280D83</title>
    <desc>Created with sketchtool.</desc>
    <defs>
        <polygon id="path-1" points="0.860684 0.0706588235 15.286844 0.0706588235 15.286844 19.9327059 0.860684 19.9327059"></polygon>
        <polygon id="path-3" points="0.380976636 0.215722222 16.0793271 0.215722222 16.0793271 19.7217778 0.380976636 19.7217778"></polygon>
    </defs>
    <g id="Page-1" stroke="none" stroke-width="1" fill="none" fill-rule="evenodd">
        <g id="LP-DE-PATROCÃNIO" transform="translate(-1011.000000, -3342.000000)">
            <g id="Group-30" transform="translate(1010.000000, 3342.000000)">
                <path d="M29.9958935,20.2473118 L29.9958935,22.2793706 C29.9958935,23.3936059 30.1930948,23.5418412 30.8020623,23.5418412 L31.082361,23.5418412 C31.5102506,23.5418412 31.5921078,23.6727824 31.5921078,23.9680176 L31.5921078,25.4590176 C31.5921078,25.8851941 31.492887,25.9827824 31.082361,25.9827824 L25.0931468,25.9827824 C24.7136273,25.9827824 24.5660364,25.8851941 24.5660364,25.4590176 L24.5660364,23.9680176 C24.5660364,23.6727824 24.6652571,23.5418412 25.0931468,23.5418412 L25.3399584,23.5418412 C26.2441078,23.5418412 26.5566532,23.3441941 26.5566532,22.2793706 L26.5566532,16.2647235 C26.5566532,15.4778412 26.4251857,15.2320176 25.1253935,15.2320176 C24.7471143,15.2320176 24.6478935,15.0034882 24.6478935,14.6749 L24.6478935,13.2987824 C24.6478935,12.9220176 24.779361,12.7910765 25.1750039,12.7737824 L29.386926,12.5452529 C29.864426,12.5452529 29.9958935,12.7416647 29.9958935,13.2493706 L29.9958935,14.2981353 C30.7524519,12.8886647 32.3164195,12.2821353 34.1916922,12.2821353 C35.9032506,12.2821353 37.2687766,12.9380765 37.7946468,14.7403706 C38.4532247,13.0035471 40.1647831,12.2821353 42.2372571,12.2821353 C44.4585623,12.2821353 46.1205104,13.3642529 46.1205104,16.6748412 L46.1205104,22.4103118 C46.1205104,23.1971941 46.3673221,23.5739588 46.8783091,23.5739588 C47.3384455,23.5739588 47.4376662,23.4763706 47.6844779,23.4763706 C47.8655558,23.4430176 47.9312896,23.5084882 47.9312896,23.7221941 L47.9312896,25.2292529 C47.9312896,25.4750765 47.8816792,25.7369588 47.5852571,25.8357824 C47.2069779,26.0161353 46.7294779,26.1137235 45.5450299,26.1137235 C44.2117506,26.1137235 42.6986338,25.5566059 42.6986338,23.2305471 L42.6986338,17.1504294 C42.6986338,15.9373706 42.2211338,15.1183706 40.9870753,15.1183706 C39.094439,15.1183706 38.1071922,16.9206647 38.0588221,20.0175471 L38.0588221,22.2793706 C38.0588221,23.3936059 38.3874909,23.5418412 39.2755169,23.5418412 L39.5558156,23.5418412 C40.0159519,23.5418412 40.082926,23.6727824 40.082926,23.9680176 L40.082926,25.4590176 C40.082926,25.8851941 39.9837052,25.9827824 39.5558156,25.9827824 L33.5666013,25.9827824 C33.1548351,25.9827824 33.0568545,25.8851941 33.0568545,25.4590176 L33.0568545,23.9680176 C33.0568545,23.6727824 33.1387117,23.5418412 33.5666013,23.5418412 L33.813413,23.5418412 C34.3392831,23.5418412 34.5699714,23.3936059 34.6195818,22.6067235 L34.6195818,17.1504294 C34.6195818,15.9373706 34.1582052,15.1183706 32.9241468,15.1183706 C30.9670169,15.1183706 29.9958935,17.0021941 29.9958935,20.2473118" id="Fill-205" fill="#3396FF"></path>
                <g id="Group-213" transform="translate(48.000000, 13.000000)">
                    <path d="M7.103464,0.00481764706 C10.755264,0.00481764706 12.812424,0.954758824 12.812424,5.00281765 L12.812424,10.2305824 C12.844664,10.9359353 13.091424,11.2805824 13.535344,11.2805824 C14.012744,11.2805824 14.094584,11.1817588 14.341344,11.1817588 C14.522384,11.1484059 14.621584,11.2138765 14.621584,11.4275824 L14.621584,12.9346412 C14.621584,13.1804647 14.539744,13.4435824 14.275624,13.5411706 C13.865184,13.7215235 13.420024,13.8203471 12.235824,13.8203471 C11.199184,13.8203471 10.098064,13.4929941 9.604544,12.3120529 C8.699344,13.2471706 7.251024,13.8203471 5.310424,13.8203471 C2.431144,13.8203471 0.950584,12.5912294 0.950584,10.0514647 C0.950584,6.41228824 4.060504,5.57722941 8.468704,5.57722941 L9.373904,5.57722941 L9.373904,4.90522941 C9.373904,3.26599412 8.748944,2.59399412 7.053864,2.59399412 C6.494624,2.59399412 5.919264,2.67552353 5.360024,2.82375882 C5.392264,2.9547 5.409624,3.1017 5.409624,3.24993529 C5.409624,4.46299412 4.470944,5.26593529 3.385944,5.26593529 C2.398904,5.26593529 1.592904,4.54452353 1.592904,3.38087647 C1.609024,0.954758824 3.533504,0.00481764706 7.103464,0.00481764706 M6.198264,11.4115235 C8.123984,11.4115235 9.373904,10.1984647 9.373904,8.10093529 L9.373904,7.82175882 L8.468704,7.82175882 C6.001104,7.82175882 4.355624,8.3307 4.355624,9.95264118 C4.355624,10.8371118 4.866504,11.4115235 6.198264,11.4115235" id="Fill-208" fill="#3396FF"></path>
                    <g id="Group-212" transform="translate(14.880000, 0.000000)">
                        <mask id="mask-2" fill="white">
                            <use xlink:href="#path-1"></use>
                        </mask>
                        <g id="Clip-211"></g>
                        <path d="M10.138364,13.4760706 L10.138364,12.3457765 C8.970284,13.6070118 7.505844,14.0010706 6.025284,14.0010706 C3.081524,14.0010706 0.860684,12.3939529 0.860684,7.65783529 C0.860684,2.61042353 3.229084,0.0706588235 6.897004,0.0706588235 C8.279604,0.0706588235 9.316244,0.447423529 10.154484,1.07001176 L10.154484,0.923011765 C10.154484,0.414070588 10.285924,0.217658824 10.731084,0.217658824 L14.761084,0.496835294 C15.172764,0.528952941 15.286844,0.594423529 15.286844,1.0206 L15.286844,2.3646 C15.286844,2.65983529 15.139284,2.82412941 14.761084,2.92171765 L14.382884,2.95507059 C13.823644,3.10207059 13.593004,3.20089412 13.576884,3.8556 L13.576884,13.1808353 C13.576884,17.9342471 10.648004,19.9490118 6.387364,19.9490118 C3.656884,19.9490118 0.892924,19.2448941 0.892924,16.0986 C0.926404,14.9349529 1.830364,14.1147176 2.834764,14.1147176 C3.821804,14.1147176 4.709644,14.8521882 4.709644,16.0331294 C4.709644,16.4420118 4.610444,16.7866588 4.429404,17.0818941 C4.956404,17.2622471 5.614844,17.3598353 6.321644,17.3598353 C8.558604,17.3437765 10.138364,16.3444235 10.138364,13.4760706 M10.138364,7.15012941 L10.138364,3.52824706 C9.660964,3.11812941 8.657804,2.74136471 7.621164,2.74136471 C5.400324,2.74136471 4.446764,4.65977647 4.446764,7.44536471 C4.446764,9.80477647 5.236644,11.3624824 6.996204,11.3624824 C8.954164,11.3624824 9.925084,9.83812941 10.138364,7.15012941" id="Fill-210" fill="#3396FF" mask="url(#mask-2)"></path>
                    </g>
                </g>
                <g id="Group-218" transform="translate(79.000000, 6.000000)" fill="#3396FF">
                    <path d="M5.877,16.4076706 C5.927,17.2921412 6.25825,17.4070235 7.12075,17.4070235 L7.4695,17.4070235 C7.93325,17.4070235 7.9995,17.5379647 7.9995,17.8332 L7.9995,19.3242 C7.9995,19.7503765 7.867,19.8492 7.4695,19.8492 L0.802,19.8492 C0.38825,19.8492 0.272,19.7503765 0.272,19.3242 L0.272,17.8332 C0.272,17.5379647 0.3545,17.4070235 0.802,17.4070235 L1.15075,17.4070235 C1.997,17.4070235 2.3445,17.2760824 2.3945,16.4076706 L2.3945,9.95078824 C2.3445,9.34425882 2.112,9.14784706 1.582,9.11449412 L1.002,9.08237647 C0.537,9.04902353 0.47075,8.8032 0.47075,8.47584706 L0.47075,7.19731765 C0.47075,6.73902353 0.57075,6.67355294 1.002,6.6402 L5.2795,6.41043529 C5.7445,6.41043529 5.86075,6.60684706 5.86075,7.11578824 L5.86075,16.4076706 L5.877,16.4076706 Z" id="Fill-214"></path>
                    <path d="M18.331125,12.6219882 L21.962375,15.8337529 C23.206125,16.9319294 23.522375,17.4235765 24.068625,17.4235765 L24.449875,17.4235765 C24.832375,17.4235765 24.881125,17.5545176 24.881125,17.8831059 L24.881125,19.3407529 C24.881125,19.7669294 24.748625,19.8657529 24.317375,19.8657529 L17.982375,19.8657529 C17.551125,19.8657529 17.452375,19.7669294 17.452375,19.3407529 L17.452375,18.0301059 C17.452375,17.7027529 17.551125,17.4235765 17.982375,17.4235765 L18.182375,17.4235765 C18.746125,17.4235765 18.911125,17.3741647 18.148625,16.7194588 L14.616125,13.7041059 L14.616125,16.1623412 C14.616125,17.2592824 14.848625,17.4235765 15.462375,17.4235765 L15.761125,17.4235765 C16.174875,17.4235765 16.274875,17.5545176 16.274875,17.8497529 L16.274875,19.3407529 C16.274875,19.7669294 16.142375,19.8657529 15.761125,19.8657529 L9.674875,19.8657529 C9.259875,19.8657529 9.143625,19.7669294 9.143625,19.3407529 L9.143625,17.8497529 C9.143625,17.5545176 9.227375,17.4235765 9.674875,17.4235765 L9.973625,17.4235765 C10.868625,17.4235765 11.167375,17.2765765 11.167375,16.1623412 L11.167375,4.39492941 C11.167375,3.6414 10.968625,3.39557647 10.371125,3.36222353 L9.857375,3.33010588 C9.392375,3.29675294 9.326125,3.05092941 9.326125,2.72357647 L9.326125,1.44504706 C9.326125,0.986752941 9.426125,0.921282353 9.857375,0.887929412 L14.052375,0.658164706 C14.483625,0.658164706 14.583625,0.854576471 14.583625,1.36351765 L14.583625,12.8517529 L18.182375,9.85245882 C18.844875,9.32745882 18.646125,9.13104706 18.148625,9.13104706 L17.534875,9.13104706 C17.121125,9.13104706 17.053625,8.88522353 17.053625,8.57392941 L17.053625,7.19781176 C17.053625,6.77163529 17.153625,6.67281176 17.568625,6.67281176 L23.753625,6.67281176 C24.168625,6.67281176 24.267375,6.77163529 24.267375,7.19781176 L24.267375,8.54181176 C24.267375,8.83581176 24.184875,9.11498824 23.753625,9.11498824 L23.322375,9.11498824 C22.509875,9.11498824 22.327375,9.21381176 21.366125,10.0167529 L18.331125,12.6219882 Z" id="Fill-216"></path>
                </g>
                <g id="Group-228">
                    <path d="M116.430437,16.6051111 C116.430437,19.0862222 114.76483,20.8046667 110.922746,20.8046667 C109.917166,20.8046667 108.894185,20.7068889 107.986802,20.4807778 C108.267718,22.4913333 109.273297,23.3664444 111.68097,23.3664444 C113.049503,23.3664444 114.385718,23.1232222 115.143942,22.8152222 C115.606335,22.6367778 115.935727,22.4754444 116.149521,22.4754444 C116.3484,22.4754444 116.430437,22.605 116.430437,22.8152222 L116.430437,24.4041111 C116.430437,24.6962222 116.330998,24.8746667 115.902166,25.102 C114.912746,25.5725556 113.099222,25.9282222 111.367736,25.9282222 C106.338596,25.9282222 104.260316,23.1232222 104.260316,19.1668889 C104.260316,15.081 106.454194,12.2271111 110.741269,12.2271111 C114.385718,12.2271111 116.430437,13.816 116.430437,16.6051111 M107.938325,18.227 C108.894185,18.4213333 109.867447,18.5508889 110.625671,18.5508889 C112.27512,18.5508889 113.280699,17.9348889 113.280699,16.5073333 C113.280699,15.1457778 112.390718,14.5945556 110.757428,14.5945556 C108.993624,14.5945556 108.1024,15.8913333 107.938325,18.227" id="Fill-219" fill="#3396FF"></path>
                    <g id="Group-223" transform="translate(116.841121, 12.222222)">
                        <mask id="mask-4" fill="white">
                            <use xlink:href="#path-3"></use>
                        </mask>
                        <g id="Clip-222"></g>
                        <path d="M2.6730514,14.5658333 C3.67863084,14.5658333 4.52013551,15.2955 4.52013551,16.4786111 C4.52013551,17.1606111 4.20690187,17.7436111 3.74450935,18.0846111 L3.8439486,18.0846111 C4.89924766,18.0846111 5.74075234,17.4515 6.34981776,15.9603889 L6.86192991,14.5169444 L2.55745327,4.13905556 C1.99686449,2.87527778 1.86510748,2.69683333 1.0236028,2.69683333 L0.891845794,2.69683333 C0.463014019,2.69683333 0.380976636,2.42061111 0.380976636,2.11261111 L0.380976636,0.751055556 C0.380976636,0.329388889 0.479172897,0.215722222 0.891845794,0.215722222 L7.24104206,0.215722222 C7.65371495,0.215722222 7.75191121,0.3135 7.75191121,0.751055556 L7.75191121,2.11261111 C7.75191121,2.42061111 7.65371495,2.66383333 7.24104206,2.66383333 L7.05956542,2.66383333 C6.39953738,2.66383333 6.11986449,2.71272222 6.11986449,3.03661111 C6.11986449,3.23216667 6.21806075,3.54016667 6.3833785,3.96183333 L8.54369626,10.0093889 L10.8022103,3.78338889 C11.1328458,2.87527778 10.9836869,2.69683333 10.0278271,2.69683333 L9.87991121,2.69683333 C9.45107944,2.69683333 9.36779907,2.4365 9.36779907,2.14561111 L9.36779907,0.766944444 C9.36779907,0.345277778 9.49955607,0.231611111 9.87991121,0.231611111 L15.5690794,0.231611111 C15.9805093,0.231611111 16.0799486,0.329388889 16.0799486,0.766944444 L16.0799486,2.08083333 C16.0799486,2.38883333 15.9966682,2.67972222 15.5690794,2.67972222 L15.1887243,2.67972222 C14.5958178,2.67972222 14.2167056,2.7775 13.7878738,3.96183333 L9.17016355,16.1547222 C8.16458411,18.8460556 6.71277103,19.7382778 4.27278037,19.7382778 C2.34365888,19.7382778 0.760088785,18.5869444 0.760088785,16.6093889 C0.760088785,15.4739444 1.42011682,14.5658333 2.6730514,14.5658333" id="Fill-221" fill="#3396FF" mask="url(#mask-4)"></path>
                    </g>
                    <path d="M83.6804925,10.9298444 L83.6804925,10.9298444 L81.5363336,10.9298444 L81.5363336,8.82151111 L81.5537355,8.82151111 C81.5537355,7.65428889 82.5095953,6.7144 83.6966514,6.7144 C84.8837075,6.7144 85.8408103,7.65428889 85.8408103,8.82151111 C85.8246514,9.98995556 84.8675486,10.9298444 83.6804925,10.9298444" id="Fill-224" fill="#3396FF"></path>
                    <path d="M20.1758514,14.4322444 L20.1758514,9.2268 C20.1758514,6.22746667 18.6420009,3.58502222 16.3176084,2.01202222 C14.8657953,1.02202222 13.1343093,0.454911111 11.2549075,0.454911111 C9.35810374,0.454911111 7.61045888,1.03913333 6.15864579,2.02791111 C3.85041215,3.6168 2.35012243,6.24335556 2.35012243,9.21091111 L2.35012243,14.4322444 C1.49245888,15.9074667 0.997748598,17.6100222 0.997748598,19.4262444 C0.997748598,25.0044667 5.58189813,29.5120222 11.2549075,29.5120222 C16.9266738,29.5120222 21.5120664,25.0044667 21.5120664,19.4262444 C21.5120664,17.6100222 21.0173561,15.9074667 20.1758514,14.4322444 L20.1758514,14.4322444 Z M6.17604766,9.2268 C6.17604766,6.47068889 8.45072056,4.2328 11.2549075,4.2328 C13.8925336,4.2328 16.0702533,6.22746667 16.3002065,8.75746667 L16.3002065,9.68146667 L16.3002065,10.6384667 C14.8160757,9.81102222 13.0845897,9.32457778 11.2549075,9.32457778 C9.40782336,9.32457778 7.67633738,9.81102222 6.17604766,10.6384667 L6.17604766,9.2268 Z M11.2710664,24.3554667 L11.2549075,24.3554667 L6.15864579,24.3554667 L6.15864579,19.3455778 L6.17604766,19.3455778 C6.17604766,16.5882444 8.45072056,14.3344667 11.2710664,14.3344667 C14.0740103,14.3344667 16.366085,16.5723556 16.366085,19.3455778 C16.3499262,22.1016889 14.0740103,24.3554667 11.2710664,24.3554667 L11.2710664,24.3554667 Z" id="Fill-226" fill="#3396FF"></path>
                </g>
            </g>
        </g>
    </g>
</svg>