<?xml version="1.0" encoding="UTF-8"?>
<svg width="104px" height="45px" viewBox="0 0 104 45" version="1.1" xmlns="http://www.w3.org/2000/svg" xmlns:xlink="http://www.w3.org/1999/xlink">
    <!-- Generator: sketchtool 60.1 (101010) - https://sketch.com -->
    <title>24EA5927-239C-4438-B778-AE380ECB1375</title>
    <desc>Created with sketchtool.</desc>
    <g id="Page-1" stroke="none" stroke-width="1" fill="none" fill-rule="evenodd">
        <g id="LP-DE-PATROCÃNIO" transform="translate(-324.000000, -3840.000000)">
            <g id="Group-60" transform="translate(324.000000, 3840.000000)">
                <path d="M36.6387163,6.28375 C36.6387163,2.8125 33.8525209,-2.80664381e-13 30.4155535,-2.80664381e-13 L24.2418791,-2.80664381e-13 L6.22316279,-2.80664381e-13 C2.78866977,-2.80664381e-13 4.8316906e-13,2.8125 4.8316906e-13,6.28375 L4.8316906e-13,25.99 L0.0334046512,26.5975 L0.0903162791,27.0075 L0.113823256,27.17 L0.241255814,27.6925 L0.24744186,27.715 L0.420651163,28.245 L0.420651163,28.2475 C1.32381395,30.60125 3.57553488,32.27375 6.22316279,32.27375 L10.2255349,32.27375 C12.8137767,36.92625 16.7901674,40.3475 21.6833302,44.34125 C19.7050326,36.39125 23.3226326,33.06875 28.8504837,30.45 C31.9422698,28.9825 35.7714326,27.73875 36.6387163,23.46875 C36.1982698,23.305 36.2019814,23.29625 36.6387163,23.44875 L36.6387163,6.28375 Z" id="Fill-1048" fill="#BA9442"></path>
                <path d="M23.7539237,25.645125 L22.3694865,25.645125 L12.4718121,9.997625 L12.3332447,10.083875 L12.1946772,10.360125 L12.1946772,25.615125 L8.04755163,25.615125 L8.04755163,10.083875 C8.04755163,9.413875 8.17374698,8.778875 8.43108651,8.182625 C8.69213767,7.586375 9.03608186,7.067625 9.46786791,6.631375 C9.90460279,6.192625 10.4168074,5.845125 11.0081935,5.585125 C11.5946307,5.321375 12.223133,5.190125 12.8862772,5.190125 L14.26824,5.190125 L24.169626,20.840125 L24.3057191,20.755125 L24.4442865,20.475125 L24.4442865,5.220125 L28.5951237,5.220125 L28.5951237,20.755125 C28.5951237,21.425125 28.4676912,22.060125 28.2190121,22.656375 C27.970333,23.250125 27.6263888,23.772625 27.1834679,24.220125 C26.740547,24.665125 26.2258679,25.016375 25.6344819,25.267625 C25.044333,25.520125 24.4158307,25.645125 23.7539237,25.645125" id="Fill-1050" fill="#FEFEFE"></path>
                <path d="M54.7931544,33.41125 L55.1841126,33.9925 C54.731294,34.255 54.2487823,34.4625 53.7303916,34.61875 C53.218187,34.77 52.6738149,34.85 52.0960381,34.85 C51.255973,34.85 50.4740567,34.68875 49.7403916,34.37 C49.0042521,34.04875 48.3621405,33.6125 47.815294,33.0575 C47.2647358,32.5 46.8304753,31.855 46.5186986,31.115 C46.2007358,30.37 46.0436102,29.57625 46.0436102,28.7325 C46.0436102,27.8875 46.2007358,27.0925 46.5186986,26.3425 C46.8304753,25.595 47.2647358,24.9425 47.815294,24.39 C48.3621405,23.83375 49.0042521,23.395 49.7403916,23.0675 C50.4740567,22.74375 51.255973,22.58 52.0960381,22.58 C52.6738149,22.58 53.218187,22.655 53.7303916,22.805 C54.2487823,22.95125 54.7350056,23.165 55.2014335,23.43625 L55.0047172,23.72875 L54.8092381,24.02125 C54.4145684,23.78125 53.9889684,23.5975 53.5287265,23.4625 C53.0697219,23.33125 52.5933963,23.26625 52.0960381,23.26625 C51.3598986,23.26625 50.6682986,23.41375 50.0200009,23.705 C49.3692288,23.995 48.7988753,24.39 48.3151265,24.8825 C47.8289033,25.38125 47.4466056,25.96375 47.1694707,26.625 C46.8948102,27.285 46.7550056,27.995 46.7550056,28.75 C46.7550056,29.4925 46.8948102,30.19125 47.1694707,30.84625 C47.4466056,31.505 47.8289033,32.0775 48.3151265,32.56875 C48.7988753,33.06 49.3630428,33.44875 50.00268,33.735 C50.6398428,34.02375 51.3252567,34.165 52.0638707,34.165 C52.5698893,34.165 53.0499265,34.09875 53.5039823,33.96625 C53.9530893,33.835 54.3848753,33.65 54.7931544,33.41125" id="Fill-1052" fill="#575759"></path>
                <path d="M58.3020037,28.37175 L60.0687386,28.37175 C60.6551758,28.37175 61.1438735,28.293 61.5323572,28.133 C61.9196037,27.97425 62.2350921,27.76675 62.4664502,27.5155 C62.6990456,27.263 62.8574084,26.99425 62.9514363,26.70175 C63.0392781,26.4105 63.0862921,26.1255 63.0862921,25.85425 C63.0862921,25.533 63.0083479,25.2255 62.854934,24.92675 C62.7039944,24.62925 62.4899572,24.36925 62.2214828,24.14175 C61.9492967,23.913 61.6300967,23.7305 61.2601712,23.59925 C60.8951944,23.468 60.4980502,23.40425 60.0823479,23.40425 L58.3020037,23.40425 L58.3020037,28.37175 Z M57.6079293,34.71175 L57.6079293,22.7155 L60.1516316,22.7155 C60.4980502,22.7155 60.886534,22.7755 61.3009991,22.88925 C61.7228874,23.003 62.1175572,23.188 62.4837712,23.43925 C62.8512223,23.68675 63.1592874,24.0155 63.4079665,24.4155 C63.6566456,24.8155 63.7816037,25.293 63.7816037,25.85425 C63.7816037,26.67675 63.5638549,27.3605 63.1234084,27.90175 C62.6928595,28.44425 62.0618828,28.80175 61.2366642,28.97425 C61.6882456,29.94175 62.1336409,30.90175 62.5852223,31.84925 C63.0318549,32.79925 63.4747758,33.753 63.9164595,34.71175 L63.1531014,34.71175 C62.7126549,33.753 62.269734,32.8055 61.8305247,31.8655 C61.3913153,30.93425 60.9471572,29.98925 60.5079479,29.04175 L60.207306,29.06425 L59.9153247,29.07425 L58.3020037,29.07425 L58.3020037,34.71175 L57.6079293,34.71175 Z" id="Fill-1054" fill="#575759"></path>
                <path d="M66.6123386,22.16975 C67.6515944,23.52975 68.6883758,24.886 69.7115479,26.23975 C70.7421433,27.59225 71.7789247,28.9485 72.8206549,30.311 C73.8586735,28.9485 74.8929805,27.59225 75.9223386,26.23975 C76.9492223,24.886 77.9872409,23.52975 79.0252595,22.16975 L79.0252595,34.7135 L78.3138642,34.7135 L78.3138642,27.071 L78.3138642,24.85975 L78.3386084,24.52725 L78.348506,24.176 C77.4515293,25.42975 76.5434177,26.6635 75.6068502,27.866 C74.6752316,29.071 73.7473247,30.2835 72.8206549,31.506 C72.0399758,30.47975 71.2679572,29.46475 70.5144967,28.466 C69.7523758,27.4685 68.9865433,26.4535 68.2071014,25.42475 L67.495706,24.501 L67.3930177,24.336 L67.2866177,24.176 L67.2952781,24.52725 L67.3249712,24.85975 L67.3249712,34.7135 L66.6123386,34.7135 L66.6123386,22.16975 Z" id="Fill-1056" fill="#575759"></path>
                <path d="M53.0546279,6.881 L46.0408884,6.881 L46.0408884,18.256 L48.0525907,18.256 L48.0525907,8.91225 L53.0546279,8.91225 C53.9540791,8.91225 54.3710186,9.3285 54.3710186,10.22225 L54.3710186,18.256 L56.3802465,18.256 L56.3802465,10.22225 C56.3802465,8.00725 55.2630465,6.881 53.0546279,6.881" id="Fill-1058" fill="#575759"></path>
                <path d="M65.7704177,6.881 L62.0649758,6.881 C59.8714037,6.881 58.7566781,8.00725 58.7566781,10.22225 L58.7566781,14.8935 C58.7566781,17.12475 59.8714037,18.256 62.0649758,18.256 L68.160706,18.256 L68.160706,16.22225 L62.0649758,16.22225 C61.1803712,16.22225 60.7696177,15.79975 60.7696177,14.8935 L60.7696177,10.22225 C60.7696177,9.3285 61.1803712,8.91225 62.0649758,8.91225 L65.7704177,8.91225 C66.9507153,8.91225 67.0868084,9.53975 67.0868084,10.00725 L67.0868084,10.461 C67.0868084,10.92725 66.9507153,11.5535 65.7704177,11.5535 L61.3758502,11.5535 L61.3758502,13.58475 L65.7704177,13.58475 C67.9788363,13.58475 69.0960363,12.53225 69.0960363,10.461 L69.0960363,10.00725 C69.0960363,7.9335 67.9788363,6.881 65.7704177,6.881" id="Fill-1060" fill="#575759"></path>
                <path d="M71.1350809,10.22375 L71.1350809,14.89375 C71.1350809,17.125 72.2460949,18.255 74.4421414,18.255 L79.0272391,18.255 L79.0272391,16.2225 L74.4421414,16.2225 C73.5562995,16.2225 73.1467833,15.8 73.1467833,14.89375 L73.1467833,10.22375 C73.1467833,9.32875 73.5562995,8.91375 74.4421414,8.91375 L79.0272391,8.91375 L79.0272391,6.88125 L74.4421414,6.88125 C72.2460949,6.88125 71.1350809,8.00625 71.1350809,10.22375" id="Fill-1062" fill="#575759"></path>
                <polygon id="Fill-1065" fill="#575759" points="83.5884208 1.99175 81.5027358 1.99175 81.5027358 6.66401891 80.5958605 6.66401891 80.5958605 8.69078517 81.5027358 8.69078517 81.5027358 17.99175 83.5884208 17.99175 83.5884208 8.69078517 85.5958605 8.69078517 85.5958605 6.66401891 83.5884208 6.66401891"></polygon>
                <g id="Group-1070" transform="translate(84.595860, 6.991750)" fill="#575759">
                    <path d="M8.25980667,0.61368 L2.03540667,0.61368 L2.03540667,2.56368 L8.25980667,2.56368 C9.16420667,2.56368 9.58094,2.96328 9.58094,3.82128 L9.58094,8.30568 C9.58094,9.17568 9.16420667,9.58128 8.25980667,9.58128 L4.46487333,9.58128 C3.55667333,9.58128 3.13614,9.23328 3.13614,8.49048 L3.13614,8.09688 C3.13614,7.38168 3.55667333,7.04928 4.46487333,7.04928 L8.95900667,7.04928 L8.95900667,5.09928 L4.46487333,5.09928 C2.21780667,5.09928 1.08034,6.10728 1.08034,8.09688 L1.08034,8.49048 C1.08034,10.50888 2.21780667,11.53368 4.46487333,11.53368 L8.25980667,11.53368 C10.5056067,11.53368 11.6430733,10.44768 11.6430733,8.30568 L11.6430733,3.82128 C11.6430733,1.69488 10.5056067,0.61368 8.25980667,0.61368" id="Fill-1066"></path>
                    <path d="M17.4848133,0.61368 C15.23648,0.61368 14.0977467,1.69488 14.0977467,3.82128 L14.0977467,11.53368 L16.15988,11.53368 L16.15988,3.82128 C16.15988,2.96328 16.57788,2.56368 17.4848133,2.56368 L18.9934133,2.56368 L18.9934133,0.61368 L17.4848133,0.61368 Z" id="Fill-1068"></path>
                </g>
            </g>
        </g>
    </g>
</svg>