<?xml version="1.0" encoding="UTF-8"?>
<svg width="131px" height="23px" viewBox="0 0 131 23" version="1.1" xmlns="http://www.w3.org/2000/svg" xmlns:xlink="http://www.w3.org/1999/xlink">
    <!-- Generator: sketchtool 60.1 (101010) - https://sketch.com -->
    <title>00478767-3CC6-47B6-8AA2-E5BA0C5A4F74</title>
    <desc>Created with sketchtool.</desc>
    <g id="Page-1" stroke="none" stroke-width="1" fill="none" fill-rule="evenodd">
        <g id="LP-DE-PATROCÃNIO" transform="translate(-1244.000000, -3548.000000)">
            <g id="Group-39" transform="translate(1244.000000, 3548.000000)">
                <path d="M89.6580974,4.00291223 C92.0429713,4.0079717 94.0635919,4.17746408 96.0214528,4.83266595 C96.8939376,5.12485056 97.7147378,5.53213821 98.4592417,6.09500468 C99.5987635,6.95764497 100.323578,8.10614554 100.682909,9.49750086 C101.093924,11.0899703 101.100077,12.6925586 100.732132,14.2913524 C100.20175,16.5896184 98.7619657,18.054336 96.6736628,18.9144466 C95.3458616,19.4596049 93.956531,19.7302868 92.5388971,19.8668926 C91.4855162,19.968082 90.4284437,20.026266 89.3701405,19.9883199 C87.2486119,19.9098981 85.1480032,19.7062543 83.1581472,18.8524681 C80.5985303,17.7532974 79.2793431,15.7522754 79.0430708,12.9379431 C78.9310875,11.5933879 79.0270732,10.275395 79.4540862,9.00040755 C80.1001433,7.07021827 81.462401,5.85720941 83.256594,5.10081806 C84.5511695,4.55439488 85.9085048,4.28624277 87.2941436,4.13572342 C88.1924706,4.04085828 89.0944895,3.98646894 89.6580974,4.00291223 M89.8956004,8.07831844 C89.1990892,8.06061028 88.3979783,8.07831844 87.5993286,8.15294568 C86.8843587,8.21871884 86.1730806,8.31864344 85.4937976,8.5893253 C84.5807035,8.95487228 84.0146344,9.61513362 83.8054349,10.6080554 C83.6528424,11.3277655 83.6503812,12.0563298 83.7119105,12.7810994 C83.8152796,13.9801947 84.3247418,14.9174622 85.4716471,15.3829338 C85.8937378,15.5536911 86.3305955,15.6751185 86.7809896,15.7345673 C88.5899496,15.977422 90.4050626,15.9685679 92.2214061,15.8484054 C92.856388,15.8079296 93.4876781,15.7231835 94.1005095,15.5334532 C95.1342009,15.2147063 95.8885496,14.5974505 96.1568171,13.4742473 C96.3315602,12.7406236 96.3586331,11.9943512 96.2823368,11.2430193 C96.2208075,10.6472663 96.097749,10.073016 95.7630299,9.5721281 C95.2609512,8.81826649 94.4979885,8.51722779 93.6796494,8.34394081 C92.4675231,8.08464278 91.2332463,8.06566975 89.8956004,8.07831844" id="Fill-1129" fill="#CC7545"></path>
                <path d="M48.740749,14.0538282 L48.740749,13.6046317 L48.740749,4.4689309 C48.740749,4.00749478 48.740749,4.00627081 49.1919708,4.00627081 C50.2911323,4.00382288 51.3878349,4.00382288 52.4869965,4.00382288 C52.9984631,4.00382288 52.9996926,4.00382288 52.9996926,4.50320202 L52.9996926,15.4491523 C52.9996926,16.4797337 53.0009221,17.5139871 52.9984631,18.5445686 C52.9972337,18.9692856 52.9689554,18.994989 52.5410939,18.994989 C51.3816875,18.9962129 50.2210516,18.9900931 49.0604156,19 C48.8243541,19.0011088 48.6657502,18.9203269 48.5034579,18.7489713 C47.3981489,17.5678417 46.2817746,16.3965039 45.1678592,15.225166 C43.2916617,13.2496809 41.4130052,11.2778676 39.5392667,9.29993455 C39.4568911,9.21548072 39.3991052,9.10654752 39.3105821,8.97680686 C39.1925514,9.19467326 39.224518,9.31951804 39.2232885,9.43824299 C39.222059,12.4614452 39.222059,15.4858713 39.222059,18.5127454 C39.222059,18.994989 39.2208296,18.994989 38.7241167,18.994989 C37.6151193,18.9962129 36.5073513,18.9888691 35.3983539,19 C35.1131128,19.0035568 35,18.9203269 35,18.6180067 C35.0073769,13.8775767 35.0073769,9.1346988 35.0012295,4.39304486 C35.0012295,4.10908417 35.0811462,3.9952551 35.3848295,4.00015097 C36.5651372,4.01239066 37.7454449,4.00749478 38.9245231,4.00382288 C39.1101757,4.00382288 39.2527962,4.04666177 39.3880398,4.18864212 C40.6949847,5.57295048 42.0117655,6.94869107 43.3211694,8.33177547 C45.0682707,10.1738481 46.8116835,12.0208165 48.5575554,13.865337 C48.5993579,13.9081759 48.6411605,13.9497909 48.740749,14.0538282" id="Fill-1130" fill="#6B2B47"></path>
                <path d="M117.869989,7.94750447 L111.519554,7.94750447 C111.436679,7.94750447 111.352567,7.9499535 111.270929,7.94505545 C111.201661,7.94138191 111.113838,7.96219863 111.080441,7.87770722 C111.049518,7.79811386 111.124971,7.75035784 111.167027,7.69525475 C111.773126,6.932383 112.379225,6.16828673 112.986561,5.4066395 C113.299506,5.01234623 113.617399,4.62295102 113.921686,4.2237597 C114.037958,4.06947103 114.171547,4.00457183 114.366983,4.00579634 C117.651051,4.01191891 120.935119,3.97763254 124.217951,4.02783758 C126.026353,4.05600139 127.733326,4.52254093 129.175595,5.68093046 C130.249256,6.54666132 130.835564,7.68423413 130.967917,9.03242321 C131.106454,10.4602056 130.808352,11.7863535 129.838593,12.9006605 C129.008608,13.8533318 127.920103,14.3994648 126.722748,14.7557981 C125.675063,15.068049 124.596453,15.1721326 123.511659,15.1794797 C121.042733,15.1929493 118.575043,15.1831532 116.106117,15.1843777 C115.68061,15.1843777 115.679373,15.1856023 115.679373,15.6117329 C115.678137,16.6048131 115.669478,17.5966688 115.685558,18.5885246 C115.690506,18.8897548 115.605157,19.00241 115.284791,19 C113.994665,18.9852668 112.703303,18.9852668 111.41194,18.9987365 C111.108891,19.0011855 110.997566,18.9166941 111,18.6007697 C111.01241,16.2999093 111.01241,14.0002734 111,11.6994131 C110.997566,11.3810396 111.110128,11.3026708 111.41194,11.3038953 C115.595262,11.3124669 119.777346,11.3100178 123.959431,11.3087933 C124.471523,11.3087933 124.971245,11.2451186 125.427675,10.9953179 C125.994192,10.6842916 126.274977,10.2055069 126.255186,9.56141293 C126.236632,8.94425825 125.942241,8.49731092 125.386856,8.21567287 C125.002169,8.02097527 124.589032,7.94750447 124.159815,7.94750447 C122.063206,7.9499535 119.966598,7.94750447 117.869989,7.94750447 Z" id="Fill-1131" fill="#CC7545"></path>
                <path d="M67.6170316,19.9996687 C66.0686237,20.0165465 65.1267065,19.3872491 64.4150083,18.39267 C62.230404,15.3353942 60.0557016,12.270885 57.8785238,9.20999251 C56.96755,7.92728686 56.052863,6.64578677 55.143127,5.36067002 C55.0837156,5.27387039 54.9574665,5.18586521 55.0144024,5.07374902 C55.0738137,4.95922173 55.2198666,5.01226595 55.3275496,5.01226595 C56.9923047,5.0086493 58.6558221,5.01467705 60.3205772,5.0062382 C60.5755508,5.00503265 60.733981,5.08339343 60.8800339,5.2907481 C62.990374,8.337174 65.1081405,11.3775722 67.225907,14.4191759 C67.4548882,14.7482911 67.4561259,14.7507022 67.6863449,14.4336425 C69.8882774,11.4004776 72.0914477,8.36972386 74.2859539,5.33173681 C74.4530483,5.10027113 74.6263313,5.00262155 74.918437,5.00503265 C76.5200676,5.01708815 78.1229359,5.0086493 79.7245664,5.01226595 C79.8136834,5.01226595 79.9287929,4.97248279 79.984491,5.05928242 C80.0364759,5.1400543 79.9448834,5.20635957 79.8990872,5.27025374 C76.747811,9.60902969 73.5952971,13.9466001 70.4415455,18.2841705 C70.0912661,18.7651851 69.6531076,19.1618112 69.1580131,19.5005709 C68.6220734,19.8670582 68.0106317,19.9852021 67.6170316,19.9996687" id="Fill-1132" fill="#CC7545"></path>
                <path d="M0,21.3591612 C0.365069907,20.5888932 0.701185993,19.8781629 1.04107866,19.1686729 C4.04346393,12.9172227 7.04459034,6.66453209 10.0507522,0.415562605 C10.1237662,0.261757084 10.1539789,0.00252035895 10.3239252,0 C10.498907,-0.00368147658 10.5278608,0.255555249 10.6046514,0.408120403 C12.9876766,5.10415027 15.3681842,9.79893976 17.7474329,14.4974504 C19.1258865,17.2212965 20.5005636,19.9488638 21.8752406,22.6739503 C21.9255951,22.7731797 22.0036445,22.8649669 22,22.9964458 C21.880276,23.0200127 21.8362159,22.9207834 21.7757905,22.8637265 C19.4934742,20.689363 17.2149344,18.5137591 14.9338769,16.3393955 C13.8474792,15.303689 12.7497518,14.2741843 11.6709073,13.2297952 C11.473266,13.040019 11.3498975,13.0251346 11.1258201,13.1925842 C7.56701796,15.8358065 4.00066263,18.4666251 0.435566165,21.1011648 C0.319750884,21.1855098 0.219041944,21.2959025 0,21.3591612" id="Fill-1133" fill="#6B2B47"></path>
                <path d="M11,0 C11.1568696,0.0459923999 11.2402982,0.142949351 11.3313112,0.227475924 C12.680074,1.51153401 14.0301008,2.79559209 15.3788635,4.07840714 C17.3748301,5.97528288 19.3720608,7.86967254 21.3591789,9.77276347 C21.558902,9.96419129 21.6777246,9.90949763 21.8622788,9.7740065 C25.4547659,7.11763465 29.0510452,4.46747798 32.6473245,1.81483524 C32.7370734,1.7477112 32.8167098,1.65945551 33,1.62589349 C32.910251,1.83099473 32.8407272,2.00626307 32.7585626,2.17531621 C31.4047436,4.98955387 30.0483964,7.8025485 28.6945774,10.6155431 C26.7466455,14.6666034 24.8012417,18.7201498 22.8495175,22.7699671 C22.8078032,22.8594658 22.7964266,23.0036582 22.6712836,23 C22.5537251,22.9962 22.5372922,22.8557367 22.4917857,22.766238 C19.9080265,17.6797271 17.3230033,12.5932163 14.7417722,7.50546245 C13.5358494,5.12877411 12.3362469,2.74835666 11.1353804,0.369182237 C11.0797613,0.261037946 10.9963327,0.162837957 11,0" id="Fill-1134" fill="#CC7545"></path>
                <path d="M108.994758,11.5097995 L108.994758,18.5688 C108.994758,18.98771 108.986914,18.9938344 108.535936,18.9938344 C107.159473,18.9962842 105.784318,18.98771 104.410469,19 C104.091516,19.0024086 103.998706,18.8958438 104,18.6067714 C104.006549,13.8738236 104.003935,9.13720124 104.005242,4.40180373 C104.005242,4.02331489 104.023543,4.00616653 104.433998,4.00616653 C105.819611,4.00494165 107.205225,4.01229094 108.590838,4 C108.909791,3.99759235 109.001293,4.1017074 109,4.39322954 C108.990836,6.76460295 108.994758,9.13720124 108.994758,11.5097995" id="Fill-1135" fill="#CC7545"></path>
            </g>
        </g>
    </g>
</svg>