<?xml version="1.0" encoding="UTF-8"?>
<svg width="143px" height="32px" viewBox="0 0 143 32" version="1.1" xmlns="http://www.w3.org/2000/svg" xmlns:xlink="http://www.w3.org/1999/xlink">
    <!-- Generator: sketchtool 60.1 (101010) - https://sketch.com -->
    <title>63E26C47-59E0-4BC9-817A-446777150956</title>
    <desc>Created with sketchtool.</desc>
    <g id="Page-1" stroke="none" stroke-width="1" fill="none" fill-rule="evenodd">
        <g id="LP-DE-PATROCÃNIO" transform="translate(-304.000000, -3443.000000)" fill="#638AB5">
            <g id="Group-33" transform="translate(304.000000, 3443.000000)">
                <path d="M17.4506531,0 C18.2452844,0.169984376 19.058657,0.239977942 19.8507895,0.43745979 C26.1915974,2.01856446 31.0056138,7.31182792 31.8452242,13.783733 C32.4549413,18.4957999 31.2704909,22.7441594 28.1631826,26.3838249 C25.4431947,29.5660324 21.9872982,31.4408601 17.8167332,31.8920686 C13.1876311,32.3920226 9.05204995,31.1596359 5.51619055,28.0999171 C2.3589055,25.3689182 0.559740287,21.9029867 0.0787134779,17.754618 C0.0674686953,17.6546272 0.026237826,17.5571362 0,17.4558955 L0,14.5161657 C0.026237826,14.4174248 0.0687181156,14.3199338 0.0787134779,14.2174432 C0.472280867,10.5765278 1.97033579,7.43806632 4.50665896,4.82080689 C6.82683243,2.42477712 9.65052227,0.894917742 12.9402459,0.266225529 C13.4625036,0.16623472 13.9885095,0.0887418431 14.513266,0 L17.4506531,0 Z M19.2523172,21.4180313 C19.3822569,21.3880341 19.4147418,21.4417791 19.4484761,21.486775 C20.8178408,23.3266059 23.274201,23.6415769 25.1545786,22.8516495 C25.5906262,22.6679164 25.9479605,22.3829426 26.1978445,21.9829794 C26.472717,21.5430198 26.3415278,21.2742945 25.8292655,21.2217994 C25.5356518,21.1893023 25.2357909,21.2130502 24.9396783,21.1980515 C23.9151536,21.1443065 22.9393564,20.920577 22.1022448,20.2893851 C20.5779521,19.1419905 19.5321873,17.0246851 20.8628199,14.828637 C21.0627271,14.5011671 21.2426437,14.1586986 21.4088166,13.8099806 C22.6719805,11.1639738 21.7948874,7.96676772 19.3422754,6.50440214 C17.6293202,5.48449588 15.7739311,5.37950553 13.886057,5.95945223 C11.6083639,6.65938789 10.1003136,8.75919488 10.0440897,11.140226 C10.0128542,12.4263578 10.4001744,13.5575038 11.0311317,14.6424041 C11.4946666,15.4348313 11.8520008,16.2772538 11.7133152,17.2159176 C11.4009601,19.310725 9.90790285,20.7693409 7.81887213,21.116809 C7.27162605,21.2080506 6.72437997,21.171804 6.1783833,21.2155499 C5.63988316,21.258046 5.50369635,21.5405201 5.79106301,21.9967281 C6.03594939,22.3829426 6.38453765,22.6604171 6.8005946,22.8454001 C8.76218445,23.7228195 11.0148892,23.2266151 12.4367295,21.6167631 C12.5054476,21.5392702 12.5379325,21.4030327 12.7328421,21.4142817 C12.4479743,22.0229757 12.1006354,22.5504272 11.6670866,23.0178843 C10.8412198,23.9065526 9.81919401,24.4939986 8.69471575,24.9152099 C8.48981083,24.9939526 8.24742329,25.0739453 8.23118083,25.3401708 C8.21743721,25.5963973 8.42858923,25.7238855 8.61850112,25.8438745 C9.18823677,26.2013417 9.82918937,26.3700761 10.4838856,26.3488281 C12.9364976,26.2675856 14.7581524,25.1776857 15.7951712,22.9003951 C15.8413998,22.7966546 15.8463975,22.6304199 15.9900808,22.6316698 C16.1262676,22.6341695 16.1437595,22.7954047 16.1874892,22.9003951 C16.754726,24.2290229 17.6905418,25.2101828 19.0036825,25.7976288 C20.3792942,26.4138221 21.7886403,26.6213031 23.2129794,25.9288667 C23.4678612,25.8038782 23.7539784,25.6613913 23.72899,25.327672 C23.7077499,25.0276995 23.4053902,24.9652053 23.1767463,24.8777133 C22.3546277,24.5589926 21.5899825,24.1377813 20.9028013,23.5853321 C20.1768882,23.0028856 19.6633764,22.2604539 19.2523172,21.4180313 L19.2523172,21.4180313 Z" id="Fill-698"></path>
                <path d="M49.9929702,17.2066418 C49.9529618,17.8950546 50.0754876,18.791084 49.8754454,19.6774004 C49.271568,22.3460625 46.7572877,24.5752088 43.927941,24.9418766 C40.7197643,25.3546815 37.5590976,23.5334836 36.3976027,20.5964983 C36.1400483,19.9469377 36.0050198,19.2682379 36.0050198,18.5688979 C36.0050198,17.530815 36.0237738,16.4927322 36.0012691,15.4546494 C35.9287538,12.16678 38.9768967,9.44105367 41.8187461,9.07802821 C44.8343821,8.69436251 47.1998811,9.72880295 48.9540011,12.1097158 C49.607889,12.9972462 49.949211,14.0086182 49.9879691,15.101337 C50.0117242,15.736328 49.9929702,16.3701049 49.9929702,17.2066418 M39.5745227,17.1034406 C39.6082798,17.6825815 39.5082588,18.4025618 39.6595407,19.1176855 C40.0521235,20.9777357 41.9050143,22.2343623 43.7203972,21.7790628 C45.1269438,21.4257504 46.0296342,20.4884405 46.3234462,19.1043301 C46.5697482,17.9399775 46.4047134,16.7476999 46.4159657,15.5699919 C46.4272181,14.375286 45.8771021,13.4221924 44.8981456,12.7301372 C43.8654278,11.9992298 42.7251873,11.8826731 41.5799457,12.4496727 C40.3321825,13.0664518 39.665792,14.0948215 39.5782735,15.4522211 C39.5470169,15.9548717 39.5745227,16.4611648 39.5745227,17.1034406" id="Fill-700"></path>
                <path d="M84.5984886,22.5297841 C83.6739872,23.4320842 82.7896271,24.1793582 81.6631655,24.5875127 C80.1465819,25.1373708 78.6375248,25.1785496 77.1598279,24.4603429 C76.1011046,23.9468191 75.3885988,23.1341435 75.1665679,22.00536 C74.895615,20.6258704 74.868018,19.2597033 75.7599046,18.0267617 C76.2240369,17.3824346 76.8913838,17.0178812 77.6126705,16.7308408 C78.7679836,16.2706072 79.9872716,16.0828803 81.2266303,16.0174787 C82.131061,15.969033 83.0380006,15.8818309 83.9461946,15.9326988 C84.294921,15.9520771 84.4354151,15.8127958 84.4165989,15.4773098 C84.3739489,14.7990708 84.2748504,14.1341544 83.975046,13.5092056 C83.3578755,12.2253961 82.0545419,11.6161921 80.4539127,11.8099747 C79.5319202,11.9213997 78.7027542,12.2350852 77.888641,12.6420286 C77.1209412,13.0283826 76.6003604,12.843078 76.2278001,12.0885371 C75.7749575,11.1717034 75.9932252,10.4825641 76.9139633,9.975096 C77.9024396,9.42887139 78.9837424,9.15999807 80.1039319,9.05826222 C81.4612052,8.93593698 82.8147153,8.9807492 84.1142857,9.4409828 C86.4324383,10.2633476 87.5350661,11.992857 87.9138984,14.2504239 C88.0142513,14.8499387 87.9991984,15.453087 87.9991984,16.0574463 C87.9991984,18.4433942 88.0004528,20.8293421 87.9991984,23.2152899 C87.997944,24.0509773 87.6680337,24.4458092 86.827578,24.6517032 C86.4123677,24.7534391 86.0034295,24.7485945 85.5944914,24.6250581 C84.9334165,24.4240087 84.6022518,23.9892091 84.5984886,23.3182369 C84.5972342,23.0917535 84.5984886,22.8676925 84.5984886,22.5297841 M83.0743785,17.9104921 L83.0743785,17.9165478 C82.8059344,17.9165478 82.5374904,17.9032253 82.2703007,17.9189701 C81.2554817,17.9807383 80.2469348,18.0691516 79.3976982,18.7013672 C78.7566939,19.1785568 78.5434439,19.8204616 78.6437968,20.571369 C78.7491674,21.3428659 79.1392894,21.9145244 79.9320775,22.1785532 C81.8977405,22.8337805 84.3752033,21.0267581 84.4103268,18.8975721 C84.4278886,17.7712109 84.5094254,17.9226036 83.4306314,17.9104921 C83.3127167,17.909281 83.1922932,17.9104921 83.0743785,17.9104921" id="Fill-702"></path>
                <path d="M66.0118049,11.2769136 C66.0118049,8.33296426 66.0260966,5.3890149 66.0001117,2.44631139 C65.9936155,1.79597641 66.2703549,1.41848312 66.8654095,1.18924626 C67.4643619,0.957517706 68.0737083,0.941321624 68.6765584,1.12570779 C69.4911856,1.37861584 69.7237507,1.71125844 69.7237507,2.52978351 C69.7250499,4.49698454 69.7354439,6.46543143 69.7159552,8.43138661 C69.7107582,8.86868082 69.8380843,9.0343792 70.3162068,9.02316653 C71.4569448,8.99575777 72.598982,9.01195385 73.73972,9.01693726 C74.5608435,9.01942897 75.0025871,9.50157387 75,10.378654 C75,11.248259 74.5881276,11.6805698 73.7475155,11.6818157 C72.5755956,11.6855532 71.4023765,11.6917825 70.2304566,11.6768323 C69.8510768,11.6718489 69.7172544,11.8014175 69.7185537,12.1664523 C69.7302469,14.7403835 69.7120575,17.3143146 69.7302469,19.8882458 C69.7393416,21.246225 70.4019571,21.8591844 71.8155367,21.8890849 C72.3235419,21.8978058 72.8341456,21.8816098 73.34345,21.89656 C74.3269792,21.9289522 75.0025871,22.5755496 74.9895946,23.458859 C74.9779014,24.3857732 74.3373732,24.978799 73.3239613,24.9937492 C72.2611781,25.0074536 71.1970956,25.0161745 70.1434071,24.8205757 C67.5059378,24.3259723 66.0273959,22.6390881 66.0144034,20.063911 C66.0014109,17.1361577 66.0118049,14.2046669 66.0118049,11.2769136" id="Fill-704"></path>
                <path d="M52,16.9972508 C52.0448336,15.9441577 51.9260852,14.9068004 52.141771,13.8827581 C52.6906792,11.2827075 54.3313454,9.65222888 56.9644085,9.18015266 C58.6450614,8.8799606 60.3184439,8.92111596 61.9324522,9.56265545 C62.4437972,9.76480091 62.9066735,10.0419944 63.3150224,10.4232867 C64.1765539,11.2258163 63.7161011,12.4883176 62.8824391,12.9894447 C62.620708,13.1480139 62.3262606,13.1213839 62.0487771,13.0003387 C61.7591765,12.8756622 61.4683642,12.7497752 61.1836105,12.6105732 C60.2045424,12.1336552 59.1721587,12.025925 58.1131172,12.2111241 C56.5003205,12.4931594 55.6969515,13.2557441 55.5248876,14.8729078 C55.3746346,16.2842946 55.3709994,17.7247323 55.5248876,19.1361192 C55.7139156,20.9070103 56.8444485,21.8003238 58.7662332,21.8753718 C59.6592693,21.9104749 60.5123188,21.7422221 61.3144761,21.3367207 C61.4804814,21.2531995 61.6489102,21.1696783 61.8161273,21.0861572 C62.6110143,20.6939708 63.170828,20.7920174 63.6082582,21.3984537 C64.154743,22.1513548 64.1329321,22.8473646 63.5210145,23.4574323 C62.7915603,24.1837035 61.873078,24.5565226 60.8915865,24.7671413 C59.3805742,25.0975946 57.8635033,25.0782274 56.3597613,24.6969351 C54.0490151,24.1110764 52.4107724,22.2324551 52.094514,19.8623903 C51.9660719,18.9000811 52.0436218,17.9377719 52,16.9972508" id="Fill-706"></path>
                <path d="M100.331006,11.0022453 L100.331006,10.2308957 L100.331006,2.25904642 C100.332234,2.02418034 100.321182,1.78931426 100.392405,1.56062886 C100.523799,1.1341615 100.838162,0.952449325 101.355141,1.01054778 C101.761603,1.05628486 101.991235,1.30722072 101.994919,1.75593855 C102.003515,2.69416674 101.998603,3.63363106 101.998603,4.57433152 L101.998603,23.5552193 C101.998603,23.7171533 102.003515,23.8790872 101.994919,24.0385489 C101.966675,24.4959197 101.642489,24.7975372 101.193048,24.7888843 C100.793955,24.7802313 100.442752,24.4526549 100.414509,24.0434935 C100.399773,23.8246972 100.416965,23.6034286 100.408369,23.3833962 C100.399773,23.1683083 100.448892,22.9470397 100.343286,22.6676727 C100.037519,23.0607644 99.7612234,23.4291333 99.4001973,23.7171533 C96.7502166,25.822295 93.3315205,25.2919921 91.221851,22.453821 C90.4089282,21.3586033 89.997555,20.131119 90,18.7627151 C90.0036949,17.4709516 90,16.1779521 90.0012389,14.8874247 C90.0036949,11.9021532 92.1047685,9.35447434 95.0322727,8.89833968 C97.0437038,8.58683309 98.7923472,9.12702508 100.07313,10.8304222 C100.123477,10.8959375 100.162773,10.9824671 100.331006,11.0022453 M100.331006,17.2051821 C100.331006,16.3695533 100.344514,15.5314523 100.32855,14.6945873 C100.292939,12.8675765 99.417389,11.5387289 97.7976835,10.7958104 C94.6294953,9.34211296 91.7130429,12.1345471 91.6725196,14.8614659 C91.6516439,16.1668268 91.650416,17.4746601 91.6725196,18.7812571 C91.7032191,20.6379353 92.6192921,22.0088115 94.1653189,22.9062472 C95.9176462,23.9272966 98.1009945,23.3599096 99.5058036,21.6861797 C100.092778,20.9877622 100.414509,20.2497882 100.342058,19.3189769 C100.288027,18.6168509 100.331006,17.9097804 100.331006,17.2051821" id="Fill-708"></path>
                <path d="M131.000303,12.9124653 C131.000303,9.28618813 130.999091,5.66240327 131.001515,2.03612612 C131.001515,1.26600953 131.340882,0.927058538 132.014769,1.01304243 C132.392921,1.06164202 132.613509,1.27971711 132.641386,1.67972912 C132.651082,1.82552789 132.645022,1.9750651 132.645022,2.12335615 C132.645022,6.78393229 132.645022,11.4457546 132.648658,16.1050845 C132.648658,16.27456 132.558968,16.5212964 132.726228,16.5985573 C132.923788,16.6907719 133.03287,16.4378048 133.167405,16.3181751 C134.913935,14.7555113 136.655616,13.1891091 138.398509,11.6202146 C139.199658,10.9011899 139.995959,10.1771806 140.793472,9.4519252 C140.934067,9.32606472 141.063754,9.18400438 141.244346,9.11546649 C141.571593,8.98960602 142.02489,9.13166636 142.211542,9.41703318 C142.413951,9.72483059 142.342441,10.1971189 142.01277,10.4974395 C141.280707,11.16288 140.535311,11.8158591 139.797187,12.475069 C138.996038,13.1928475 138.203373,13.9243337 137.387679,14.6271585 C137.11255,14.8664181 137.135578,15.0371397 137.324654,15.3212604 C139.100272,17.978038 140.86377,20.6460309 142.630903,23.3102854 C142.703625,23.4211922 142.778771,23.5296066 142.845432,23.6442518 C143.11329,24.1003403 143.027236,24.5788593 142.632115,24.8567493 C142.249115,25.1221778 141.847935,25.0187479 141.53402,24.5464596 C140.216548,22.5688301 138.905136,20.5874622 137.5913,18.6073404 C137.098005,17.8633928 136.596227,17.1206914 136.115052,16.3655285 C135.951429,16.1113153 135.839922,16.0614695 135.595093,16.2895138 C134.729707,17.0907839 133.848564,17.8746081 132.956513,18.6447247 C132.718956,18.8478461 132.640174,19.0671673 132.642598,19.3712263 C132.651082,20.8940134 132.646234,22.4180468 132.645022,23.9420801 C132.645022,24.5913208 132.34444,24.9801175 131.848721,24.9813636 C131.319066,24.9813636 131.002727,24.5975515 131.001515,23.9196495 C130.999091,20.2497573 131.000303,16.5823574 131.000303,12.9124653" id="Fill-710"></path>
                <path d="M110.825932,17.5670923 C109.600698,17.5670923 108.37425,17.5768709 107.150231,17.5622029 C106.782296,17.5560912 106.643865,17.6783249 106.642651,18.0609165 C106.631722,19.1891337 106.659651,20.2990159 107.311733,21.2829973 C108.175104,22.5884534 109.444053,23.1898433 110.932791,23.3976406 C112.524745,23.6176613 113.996482,23.3340791 115.304289,22.3415413 C115.678295,22.0579591 116.089944,22.1215206 116.346162,22.4442176 C116.592666,22.7534689 116.57688,23.2045114 116.281804,23.5125403 C115.526507,24.2985031 114.553848,24.6615373 113.520475,24.8436655 C111.920021,25.1260254 110.334138,25.0416841 108.7944,24.461074 C106.459291,23.5858806 105.005768,21.4797936 105.000911,18.9666683 C104.999696,17.6318761 104.999696,16.2970839 105.000911,14.9610694 C105.005768,11.6962067 107.64081,9.11829762 110.885433,9.00339792 C113.769407,8.9007216 116.479736,11.138821 116.9011,13.8414085 C117.015245,14.5760332 117.054102,15.3094355 116.888957,16.0428378 C116.687382,16.9314769 116.172517,17.3751853 115.275145,17.490085 C114.440918,17.5964283 113.605476,17.5573136 112.771249,17.5658699 C112.12281,17.5719816 111.474371,17.5670923 110.825932,17.5670923 M110.45314,16.1687385 C111.475585,16.1687385 112.499244,16.1772949 113.521689,16.1626268 C113.894481,16.1577375 114.269701,16.119845 114.636421,16.0538388 C115.156144,15.9621635 115.341932,15.7250301 115.383219,15.1945358 C115.521649,13.3316939 114.278201,11.3930671 112.530816,10.7476731 C110.731216,10.0814993 108.607397,10.7550071 107.473236,12.306153 C106.721581,13.3304716 106.611079,14.4855802 106.642651,15.6944717 C106.649937,16.0550612 106.772582,16.1772949 107.125945,16.1736279 C108.233391,16.1589598 109.343265,16.1675162 110.45314,16.1687385" id="Fill-712"></path>
                <path d="M123.358823,9.00875063 C124.392748,8.95500645 125.385605,9.1516613 126.348266,9.52054181 C126.632112,9.62803017 126.909918,9.7452902 127.14545,9.94316651 C127.510222,10.2509741 127.571823,10.5575602 127.349578,10.9337695 C127.114046,11.3331865 126.868851,11.4235744 126.411074,11.2269196 C125.291392,10.7505507 124.149969,10.3914418 122.911917,10.4916014 C121.931138,10.5709963 121.067522,10.860482 120.4491,11.7069528 C119.476776,13.0371213 119.772701,14.5309652 121.19797,15.3615571 C122.078497,15.8770126 123.061691,16.1066469 124.017105,16.4095686 C124.918165,16.6941685 125.854253,16.8944877 126.603123,17.5394179 C127.440167,18.2612999 127.937803,19.1590721 127.986117,20.2815926 C128.004235,20.7298679 128.013898,21.185472 127.954713,21.62764 C127.780782,22.9333793 127.030704,23.8873385 125.871163,24.3624859 C123.494103,25.3323241 121.137577,25.2089568 118.883719,23.9007746 C118.572093,23.7187772 118.293078,23.4903644 118.116731,23.1569062 C117.963333,22.8649776 117.960918,22.573049 118.110692,22.2823418 C118.297909,21.9134613 118.570885,21.8145232 118.927202,22.0197282 C119.186891,22.1675247 119.421215,22.3641796 119.676072,22.5254121 C121.252324,23.5306726 122.951776,23.7090055 124.715245,23.1984358 C125.611474,22.9382651 126.264923,22.3385289 126.402619,21.3576976 C126.543938,20.341444 126.301159,19.4363432 125.470155,18.7449976 C124.47005,17.9119628 123.23683,17.654235 122.0483,17.2865759 C121.212464,17.0264052 120.382668,16.7772277 119.665202,16.2251284 C117.97662,14.9230534 118.098613,12.5778528 118.899421,11.2232552 C119.743712,9.79414855 121.018,9.11135316 122.629279,9.01119355 C122.87085,8.99531459 123.116045,9.00875063 123.358823,9.00875063" id="Fill-714"></path>
                <path d="M14.9966043,14.4081183 C15.0007893,14.9364728 14.9087202,15.3746204 14.5725287,15.7225611 C14.2195973,16.0905478 13.8011016,16.0905478 13.4384053,15.734016 C12.8594862,15.1655696 12.8525113,13.8396719 13.4258504,13.2697937 C13.8317913,12.8631469 14.3786257,12.9204211 14.6897075,13.4129792 C14.8919804,13.730851 15.0231091,14.075928 14.9966043,14.4081183" id="Fill-716"></path>
                <path d="M17.9973906,14.4604352 C18.0029855,14.9245832 17.9162639,15.3171035 17.6477064,15.6465913 C17.2518638,16.1264975 16.7287362,16.1164696 16.3342924,15.6236704 C15.8531269,15.0176994 15.8978865,13.8702222 16.426609,13.3072278 C16.8406351,12.8674332 17.3385855,12.9018145 17.6910672,13.3974788 C17.9274538,13.7269666 18.0169729,14.0994311 17.9973906,14.4604352" id="Fill-718"></path>
            </g>
        </g>
    </g>
</svg>