<?xml version="1.0" encoding="UTF-8"?>
<svg width="121px" height="35px" viewBox="0 0 121 35" version="1.1" xmlns="http://www.w3.org/2000/svg" xmlns:xlink="http://www.w3.org/1999/xlink">
    <!-- Generator: sketchtool 60.1 (101010) - https://sketch.com -->
    <title>8C328B23-53B7-4DE1-A063-A753014CBD04</title>
    <desc>Created with sketchtool.</desc>
    <g id="Page-1" stroke="none" stroke-width="1" fill="none" fill-rule="evenodd">
        <g id="LP-DE-PATROCÃNIO" transform="translate(-317.000000, -2836.000000)">
            <g id="Group-16" transform="translate(317.000000, 2836.000000)">
                <path d="M4.34091554,33.8996243 C1.93824163,33.8760381 0.00148075614,31.918383 0.000241625705,29.5113485 L0.000241625705,4.34858985 C-0.0121496786,3.19410709 0.452524234,2.08555536 1.28645902,1.28858985 C2.09685032,0.475486399 3.19348076,0.0136932958 4.34091554,-2.84217094e-14 L13.5451764,-2.84217094e-14 C15.9329808,-0.00989291105 17.8746981,1.9216933 17.8846112,4.31258985 L17.8846112,4.34858985 L17.8846112,8.13231399 C17.8846112,9.42583123 17.3084155,10.6498312 16.3171112,11.4741071 L7.47591554,18.8826588 C7.00504597,19.2774174 6.30369815,19.2141071 5.90965467,18.7411416 C5.5242851,18.2781071 5.57756771,17.5916243 6.02861119,17.1919002 L14.9106981,9.74362433 C15.3890025,9.34514157 15.6678068,8.7554864 15.6740025,8.13231399 L15.6740025,4.34858985 C15.6678068,3.19410709 14.7359808,2.26058985 13.5835895,2.25562433 L4.38056771,2.25562433 C3.24304597,2.23824502 2.3075025,3.14817605 2.2913938,4.28776226 L2.2913938,4.34858985 L2.2913938,29.5113485 C2.29882858,30.6869347 3.2480025,31.6378312 4.42145902,31.6452795 C5.04102423,31.6440381 5.54535032,32.1467967 5.54658945,32.7687278 L5.54658945,32.7724519 C5.5242851,33.4167278 4.98402423,33.9207278 4.34091554,33.8996243" id="Fill-1" fill="#00B0CB"></path>
                <path d="M19.6122068,34.2216381 L10.407946,34.2216381 C8.02138076,34.2315692 6.07842423,32.299983 6.06851119,29.9090864 L6.06851119,29.8730864 L6.06851119,26.0893623 C6.06851119,24.7970864 6.64346771,23.571845 7.63601119,22.7475692 L16.4772068,15.2992933 C16.9493155,14.9057761 17.6506634,14.967845 18.0422286,15.4408105 C18.4288373,15.903845 18.3767938,16.5915692 17.9245112,16.9900519 L9.04366336,24.4780519 C8.56411989,24.8777761 8.28531554,25.4661898 8.27911989,26.0893623 L8.27911989,29.8730864 C8.28531554,31.0263278 9.21714163,31.9610864 10.3695329,31.9672933 L19.5725547,31.9672933 C20.7113155,31.9834312 21.6456199,31.0747416 21.6629677,29.9351554 L21.6629677,29.8730864 L21.6629677,4.71032778 C21.6555329,3.53474157 20.7051199,2.58384502 19.5329025,2.57639674 C18.910859,2.57763812 18.4065329,2.07239674 18.4065329,1.44922433 C18.4065329,0.827293296 18.910859,0.322051917 19.5316634,0.322051917 L19.5329025,0.322051917 C21.9281416,0.327017434 23.8686199,2.26977605 23.8723373,4.67060364 L23.8723373,29.8333623 C23.8847286,30.987845 23.4188155,32.0963967 22.5848808,32.8933623 C21.846359,33.7648105 20.753446,34.2526726 19.6122068,34.2216381" id="Fill-3" fill="#00B0CB"></path>
                <path d="M34.5229112,5.87585881 C34.7385199,5.67103123 35.0012155,5.56923812 35.3109981,5.56923812 L40.7582155,5.56923812 C41.8808677,5.56923812 42.8969547,5.70827261 43.8052373,5.98261743 C44.7122808,6.25820364 45.4830199,6.68275536 46.1162155,7.25751399 C46.7494112,7.83227261 47.2388677,8.57337605 47.5858242,9.48330709 C47.9315416,10.3919967 48.1050199,11.469514 48.1050199,12.7146174 C48.1050199,13.9584795 47.9315416,15.0297898 47.5858242,15.9273071 C47.2388677,16.8248243 46.7494112,17.5622036 46.1162155,18.1357209 C45.4830199,18.7104795 44.7122808,19.1350312 43.8052373,19.4093761 C42.8969547,19.6849623 41.8808677,19.8227554 40.7582155,19.8227554 L37.3183895,19.8227554 C37.1263242,19.8227554 37.0321503,19.9307554 37.0321503,20.145514 L37.0321503,27.5776519 C37.0321503,28.415583 36.5897808,28.8351692 35.7062808,28.8351692 L35.4906721,28.8351692 C34.6307155,28.8351692 34.2007373,28.415583 34.2007373,27.5776519 L34.2007373,6.68275536 C34.2007373,6.34758295 34.3085416,6.07820364 34.5229112,5.87585881 M44.002259,16.2513071 C44.7544112,15.4965485 45.1311068,14.3184795 45.1311068,12.7146174 C45.1311068,11.063583 44.7544112,9.8668933 44.002259,9.12454847 C43.2488677,8.38220364 42.0481503,8.01103123 40.4001068,8.01103123 L37.3183895,8.01103123 C37.1263242,8.01103123 37.0321503,8.11903123 37.0321503,8.33378985 L37.0321503,17.059445 C37.0321503,17.2742036 37.1263242,17.3822036 37.3183895,17.3822036 L40.4001068,17.3822036 C42.0481503,17.3822036 43.2488677,17.0048243 44.002259,16.2513071" id="Fill-5" fill="#575756"></path>
                <path d="M45.509909,27.6315278 C45.5223003,27.4763554 45.5396481,27.3497347 45.5631916,27.2541485 C45.6598438,26.6806312 45.9448438,26.3926312 46.4231481,26.3926312 C46.5904308,26.3926312 46.8060395,26.4286312 47.0687351,26.5006312 C47.3314308,26.5726312 47.7366264,26.6086312 48.2880395,26.6086312 C49.2421699,26.6086312 50.0253003,26.4944243 50.6349525,26.2672519 C51.2446047,26.0400795 51.7216699,25.6875278 52.0673873,25.2083554 C52.4143438,24.729183 52.653496,24.1196657 52.7848438,23.3773209 C52.9161916,22.6349761 52.9818655,21.761045 52.9818655,20.7567692 L52.9818655,6.75401054 C52.9818655,5.91732088 53.4106047,5.49773468 54.2718003,5.49773468 L54.4861699,5.49773468 C55.370909,5.49773468 55.8132786,5.91732088 55.8132786,6.75401054 L55.8132786,21.4382864 C55.8132786,22.5629761 55.7054742,23.5982864 55.4898655,24.5442174 C55.275496,25.4901485 54.886409,26.297045 54.3250829,26.9673898 C53.7637568,27.6377347 52.9930177,28.1578726 52.0141047,28.529045 C51.0339525,28.9002174 49.7799525,29.0864243 48.2508655,29.0864243 C47.8927568,29.0864243 47.5581916,29.0615967 47.248409,29.013183 C46.9373873,28.9660105 46.6623003,28.9175967 46.4231481,28.8704243 C45.8023438,28.7264243 45.4913221,28.4272519 45.4913221,27.9729071 C45.4913221,27.9009071 45.4975177,27.7867002 45.509909,27.6315278" id="Fill-7" fill="#575756"></path>
                <path d="M61.1260503,5.78536226 C61.2697895,5.64260364 61.4494634,5.56936226 61.6638329,5.56936226 L66.8595068,5.56936226 C68.9375286,5.56936226 70.4913981,6.09074157 71.5186373,7.13101743 C72.5458764,8.17377605 73.0601155,9.68701743 73.0601155,11.6732243 C73.0601155,12.8215002 72.8085721,13.8096381 72.3067242,14.6351554 C71.8048764,15.4606726 71.1964634,16.0528105 70.4790068,16.4128105 C70.3835938,16.459983 70.3365068,16.5083967 70.3365068,16.5555692 C70.3365068,16.603983 70.3712025,16.639983 70.4443112,16.6635692 C70.9449199,16.8311554 71.4232242,17.0533623 71.876746,17.3277071 C72.3302677,17.6020519 72.731746,17.9620519 73.0774634,18.4052243 C73.4244199,18.8471554 73.6982677,19.385914 73.9027242,20.0202588 C74.1047025,20.6546036 74.2075503,21.4143278 74.2075503,22.3006726 C74.2075503,24.4308795 73.6387895,26.0397071 72.503746,27.1283967 C71.3687025,28.2183278 69.6673764,28.7620519 67.3985286,28.7620519 L61.6638329,28.7620519 C61.4494634,28.7620519 61.2697895,28.6900519 61.1260503,28.5472933 C60.9823112,28.4032933 60.9116808,28.2245347 60.9116808,28.0085347 L60.9116808,6.32412088 C60.9116808,6.10812088 60.9823112,5.92936226 61.1260503,5.78536226 M69.9598112,14.9405347 C70.7355068,14.2701898 71.1245938,13.1815002 71.1245938,11.6732243 C71.1245938,10.1649485 70.7355068,9.0588795 69.9598112,8.35253468 C69.1828764,7.64618985 68.1258981,7.29363812 66.7876373,7.29363812 L63.0615721,7.29363812 C62.8695068,7.29363812 62.7753329,7.38922433 62.7753329,7.58039674 L62.7753329,15.6580519 C62.7753329,15.8504657 62.8695068,15.9460519 63.0615721,15.9460519 L66.7876373,15.9460519 C68.1258981,15.9460519 69.1828764,15.6108795 69.9598112,14.9405347 M63.0615721,27.0390174 L67.4332242,27.0390174 C68.8668981,27.0390174 70.0267242,26.6864657 70.9102242,25.9788795 C71.7937242,25.2737761 72.2348547,24.0708795 72.2348547,22.3714312 C72.2348547,20.6968105 71.7937242,19.493914 70.9102242,18.763983 C70.0267242,18.0340519 68.8668981,17.6690864 67.4332242,17.6690864 L63.0615721,17.6690864 C62.8695068,17.6690864 62.7753329,17.7646726 62.7753329,17.955845 L62.7753329,26.7522588 C62.7753329,26.9434312 62.8695068,27.0390174 63.0615721,27.0390174" id="Fill-9" fill="#575756"></path>
                <path d="M77.6667068,22.533183 C78.0025112,21.9708381 78.4498373,21.4978726 79.0099242,21.1155278 C79.5724895,20.7319416 80.2230329,20.4327692 80.9640329,20.2180105 C81.7050329,20.0020105 82.4807286,19.8108381 83.2935981,19.6432519 L86.4471851,19.0337347 C86.6380112,18.9853209 86.7334242,18.8649071 86.7334242,18.6737347 L86.7334242,17.0227002 C86.7334242,15.4424243 86.3691199,14.3599416 85.6417503,13.7727692 C84.9131416,13.1868381 83.9144025,12.8938726 82.6492503,12.8938726 C81.8834677,12.8938726 81.2031851,12.9894588 80.6059242,13.1806312 C80.0086634,13.3718036 79.4708808,13.6002174 78.9938155,13.8633898 C78.8500764,13.9118036 78.7422721,13.9353898 78.6716416,13.9353898 C78.4077068,13.9353898 78.1933373,13.7913898 78.0260547,13.5046312 C77.9777286,13.3842174 77.9479895,13.2948381 77.9355981,13.2352519 C77.924446,13.1756657 77.9182503,13.121045 77.9182503,13.0738726 C77.9182503,12.8094588 78.0495981,12.607114 78.3122938,12.463114 C79.0062068,12.1043554 79.7335764,11.8225623 80.4981199,11.6189761 C81.2626634,11.4153898 82.1337721,11.3135967 83.1139242,11.3135967 C84.8350764,11.3135967 86.1659025,11.7393898 87.1101199,12.5884933 C88.0543373,13.4388381 88.5252068,14.7484933 88.5252068,16.5199416 L88.5252068,25.351114 C88.5252068,26.189045 88.5797286,26.8420105 88.6875329,27.3075278 C88.7940981,27.7755278 88.8486199,28.0796657 88.8486199,28.2236657 C88.8486199,28.5588381 88.6342503,28.7748381 88.2030329,28.869183 C88.155946,28.8940105 88.0964677,28.9064243 88.023359,28.9064243 L87.9155547,28.9064243 C87.510359,28.9064243 87.2464242,28.7028381 87.1287068,28.2956657 C87.0803808,28.1044933 87.0382503,27.907114 87.0023155,27.7035278 C86.9663808,27.4999416 86.9366416,27.3385623 86.9130981,27.2181485 C86.8647721,27.0753898 86.8288373,27.0033898 86.8052938,27.0033898 C86.7582068,27.0033898 86.7098808,27.0269761 86.6615547,27.0753898 C85.9924242,27.6973209 85.2402721,28.1814588 84.403859,28.529045 C83.5686851,28.8753898 82.6244677,29.049183 81.5736851,29.049183 C80.2118808,29.049183 79.1375547,28.6606312 78.3482286,27.8822864 C77.5601416,27.1039416 77.164859,26.0338726 77.164859,24.6695967 C77.164859,23.8080795 77.3321416,23.0955278 77.6667068,22.533183 M79.2441199,25.9792519 C79.4114025,26.3504243 79.644359,26.6508381 79.9417503,26.8767692 C80.2416199,27.1039416 80.5873373,27.2665623 80.9826199,27.3621485 C81.3766634,27.4589761 81.8128373,27.5049071 82.2899025,27.5049071 C83.1027721,27.5049071 83.890859,27.3137347 84.6554025,26.9301485 C85.419946,26.5478036 86.0407503,26.1182864 86.5190547,25.639114 C86.5909242,25.5907002 86.6442068,25.5199416 86.6801416,25.423114 C86.7160764,25.3275278 86.7334242,25.2443554 86.7334242,25.1723554 L86.7334242,20.7207692 C86.7334242,20.553183 86.6751851,20.4700105 86.5537503,20.4700105 C86.5066634,20.4700105 86.3269895,20.5047692 86.0172068,20.5767692 L83.4732721,21.1155278 C81.8475329,21.4507002 80.6963808,21.8640795 80.014859,22.3544243 C79.3333373,22.8447692 78.9938155,23.5920795 78.9938155,24.5975967 C78.9938155,25.1487692 79.0768373,25.6093209 79.2441199,25.9792519" id="Fill-11" fill="#575756"></path>
                <path d="M92.6240025,11.6553485 C92.7441981,11.5001761 92.9350242,11.4219692 93.1964808,11.4219692 L93.3402199,11.4219692 C93.7937416,11.4219692 94.0452851,11.6727278 94.0936112,12.1754864 L94.2014155,14.1505209 C94.2014155,14.3181071 94.2373503,14.4012795 94.3079808,14.4012795 C94.3550677,14.4012795 94.4033938,14.3541071 94.4517199,14.2585209 C95.5025025,12.2959002 97.0551329,11.3139692 99.1108503,11.3139692 C100.974502,11.3139692 102.341263,11.7745209 103.213611,12.6956243 C104.085959,13.6179692 104.522133,15.1324519 104.522133,17.2378312 L104.522133,27.9720381 C104.522133,28.5467967 104.234655,28.8335554 103.662176,28.8335554 L103.590307,28.8335554 C103.016589,28.8335554 102.73035,28.5467967 102.73035,27.9720381 L102.73035,17.8125898 C102.73035,16.9510726 102.682024,16.2087278 102.586611,15.5867967 C102.491198,14.9648657 102.305329,14.4496933 102.031481,14.0425209 C101.756394,13.6365898 101.374742,13.3361761 100.884046,13.1450036 C100.394589,12.9538312 99.7551981,12.858245 98.9671112,12.858245 C98.4169373,12.858245 97.9039373,12.9712105 97.4256329,13.198383 C96.9473286,13.4267967 96.5123938,13.7247278 96.1183503,14.0959002 C95.7243068,14.4670726 95.3773503,14.9040381 95.0787199,15.4067967 C94.7813286,15.9095554 94.5347416,16.4359002 94.3439155,16.9858312 C94.2732851,17.178245 94.2373503,17.3570036 94.2373503,17.5258312 L94.2373503,27.9720381 C94.2373503,28.5467967 93.9498721,28.8335554 93.3761547,28.8335554 L93.3055242,28.8335554 C92.7305677,28.8335554 92.4443286,28.5467967 92.4443286,27.9720381 L92.4443286,12.1754864 C92.4443286,11.984314 92.5038068,11.8105209 92.6240025,11.6553485" id="Fill-13" fill="#575756"></path>
                <path d="M109.530202,3.48794157 L109.602072,3.48794157 C110.175789,3.48794157 110.462029,3.77470019 110.462029,4.34945881 L110.462029,18.7817347 C110.462029,18.9244933 110.497963,18.9964933 110.568594,18.9964933 L110.856072,18.8897347 L112.827529,18.1362174 C112.994811,18.0642174 113.13855,17.9562174 113.256268,17.8122174 L118.023202,12.1043554 C118.285898,11.769183 118.620463,11.6015967 119.026898,11.6015967 L119.528746,11.6015967 C119.672485,11.6015967 119.786485,11.6438036 119.868268,11.7269761 C119.952529,11.8113898 119.994659,11.9119416 119.994659,12.0323554 C119.994659,12.1527692 119.958724,12.2595278 119.886855,12.355114 L114.797746,18.5657347 C114.702333,18.6861485 114.654007,18.7941485 114.654007,18.8897347 C114.654007,18.9381485 114.702333,19.0449071 114.797746,19.2124933 L120.709637,28.0089071 C120.782746,28.1280795 120.818681,28.2360795 120.818681,28.3316657 C120.818681,28.6668381 120.639007,28.8344243 120.280898,28.8344243 L119.886855,28.8344243 C119.33792,28.8344243 118.942637,28.6544243 118.703485,28.2956657 L113.185637,20.0380105 C113.113768,19.9175967 113.041898,19.8592519 112.970029,19.8592519 C112.898159,19.8592519 112.802746,19.8828381 112.683789,19.9312519 L110.712333,20.6487692 C110.546289,20.7443554 110.462029,20.8759416 110.462029,21.0435278 L110.462029,27.9729071 C110.462029,28.5464243 110.175789,28.8344243 109.602072,28.8344243 L109.530202,28.8344243 C108.957724,28.8344243 108.670246,28.5464243 108.670246,27.9729071 L108.670246,4.34945881 C108.670246,3.77470019 108.957724,3.48794157 109.530202,3.48794157" id="Fill-15" fill="#575756"></path>
            </g>
        </g>
    </g>
</svg>