<?xml version="1.0" encoding="UTF-8"?>
<svg width="90px" height="47px" viewBox="0 0 90 47" version="1.1" xmlns="http://www.w3.org/2000/svg" xmlns:xlink="http://www.w3.org/1999/xlink">
    <!-- Generator: sketchtool 60.1 (101010) - https://sketch.com -->
    <title>9E6AFCAA-AFF7-495F-A59D-D75D571FBC18</title>
    <desc>Created with sketchtool.</desc>
    <g id="Page-1" stroke="none" stroke-width="1" fill="none" fill-rule="evenodd">
        <g id="LP-DE-PATROCÃNIO" transform="translate(-1031.000000, -3738.000000)">
            <g id="Group-51" transform="translate(1031.000000, 3738.000000)">
                <path d="M0,38 L0,17.3080115 L4.26146293,17.3080115 L4.26146293,18.4504762 C4.85686943,17.9534857 5.4822335,17.5865716 6.13755513,17.3521884 C6.79287676,17.1178052 7.52184405,17 8.32570525,17 C10.3029042,17 11.9093784,17.6712441 13.146376,19.0125051 C14.3808771,20.3574476 15,22.1073453 15,24.2621983 C15,26.4109157 14.3808771,28.1509963 13.146376,29.4824403 C11.9093784,30.8151113 10.3029042,31.482674 8.32570525,31.482674 C7.55180161,31.482674 6.84155779,31.3746859 6.19747025,31.1599369 C5.55088624,30.946415 4.96047266,30.6138608 4.42498128,30.1635014 L4.42498128,38 L0,38 Z M4.42498128,21.2323964 L4.42498128,27.1778765 C4.80194724,27.460118 5.19638845,27.6748671 5.6083049,27.8208964 C6.02022135,27.9669257 6.43463427,28.0417811 6.85279188,28.0417811 C7.94499459,28.0417811 8.80377798,27.7018641 9.42914205,27.0232572 C10.0545061,26.3458774 10.366564,25.4144802 10.366564,24.2339742 C10.366564,23.0718752 10.0570026,22.1380237 9.43538321,21.4299655 C8.8162603,20.7219073 7.99866855,20.3684918 6.98635267,20.3684918 C6.54822335,20.3684918 6.11758342,20.4396658 5.69068819,20.5807865 C5.26379296,20.7219073 4.84064242,20.9391106 4.42498128,21.2323964 L4.42498128,21.2323964 Z" id="Fill-1136" fill="#335278"></path>
                <path d="M24.5699973,30.0149163 C23.8674528,30.7106062 23.1425658,31.2156795 22.3916127,31.528922 C21.6406596,31.8433787 20.7767533,32 19.7986524,32 C18.2582676,32 17.07412,31.5434915 16.242486,30.6316885 C15.4145758,29.7186714 15,28.4074235 15,26.6967306 L15,18 L19.4287614,18 L19.4287614,26.1030266 C19.4287614,27.0767496 19.588882,27.7906513 19.9116056,28.2398751 C20.2306056,28.6878848 20.7333097,28.9124967 21.4135118,28.9124967 C22.0266868,28.9124967 22.6013831,28.7328072 23.1400833,28.3697858 C23.6787836,28.0079785 24.1541803,27.4689099 24.5699973,26.7537941 L24.5699973,18 L29,18 L29,31.7389645 L24.5699973,31.7389645 L24.5699973,30.0149163 Z" id="Fill-1137" fill="#335278"></path>
                <polygon id="Fill-1139" fill="#335278" points="30 32 34 32 34 11 30 11"></polygon>
                <path d="M34.2526762,29.920331 L34.2526762,26.7139274 C35.1444023,27.1302458 35.9686664,27.4500084 36.7266949,27.6782311 C37.4847235,27.9064538 38.1225468,28.0205651 38.6377119,28.0205651 C39.3417707,28.0205651 39.8716548,27.9302792 40.2285905,27.7471995 C40.5855263,27.5641197 40.7621543,27.2907541 40.7621543,26.9271025 C40.7621543,26.6236415 40.6296833,26.3515298 40.3622881,26.1132754 C40.094893,25.8762749 39.4840544,25.5540043 38.5322257,25.1489717 C38.434099,25.1075907 38.2758698,25.0411302 38.0587645,24.9508443 C35.3529215,23.8072229 34,22.336315 34,20.5431366 C34,19.1750543 34.4967663,18.0778298 35.4939786,17.2464471 C36.4899643,16.4150644 37.8085415,16 39.455843,16 C40.3377565,16 41.1718332,16.0978097 41.9592997,16.2884133 C42.7479929,16.4815248 43.5133809,16.7686842 44.2554639,17.1561612 L44.2554639,20.3312155 C43.3244871,19.8258652 42.4953167,19.4559438 41.7667261,19.2214513 C41.0381356,18.9894666 40.3671945,18.8715934 39.7514496,18.8715934 C39.2178858,18.8715934 38.8057538,18.9681491 38.5187333,19.1612607 C38.2304862,19.3543722 38.0882025,19.6264839 38.0882025,19.9813576 C38.0882025,20.4478348 38.890388,21.0208995 40.4959857,21.6980438 C41.1497547,21.9626317 41.6649197,22.1795686 42.0414808,22.3526166 C43.0730375,22.8078081 43.8224799,23.3557933 44.293488,23.9928106 C44.7632694,24.6323357 45,25.4223374 45,26.3653235 C45,27.852533 44.4958742,28.9986624 43.4913024,29.7974419 C42.4842774,30.5999833 41.0553078,31 39.2019402,31 C38.2807761,31 37.4062221,30.9109681 36.5782783,30.7329042 C35.7515611,30.5573483 34.9763604,30.2839826 34.2526762,29.920331" id="Fill-1140" fill="#335278"></path>
                <path d="M58.6859171,29.1158035 C57.7608448,29.7530136 56.786697,30.2281154 55.762247,30.538615 C54.7353431,30.8453737 53.6421874,31 52.4790991,31 C50.1443344,31 48.3125931,30.3216394 46.9875559,28.9649181 C45.6625186,27.6057029 45,25.7264943 45,23.3247984 C45,21.1064095 45.647796,19.3307008 46.9446148,17.9976723 C48.2402068,16.6671378 49.9664359,16 52.1220752,16 C54.2470423,16 55.9254228,16.7207582 57.1559898,18.1660155 C58.3865568,19.6100258 59,21.5977222 59,24.1315986 L59,24.282484 L49.404522,24.282484 L49.404522,24.3435863 C49.404522,25.4895669 49.771361,26.3923851 50.5062659,27.0570288 C51.238717,27.7191787 52.2459907,28.052124 53.5231794,28.052124 C54.3819998,28.052124 55.2395934,27.8912628 56.0971869,27.5657993 C56.9560074,27.2415828 57.8185085,26.7589991 58.6859171,26.120542 L58.6859171,29.1158035 Z M49.4327403,22.0790589 L54.6960827,22.0640951 C54.6187889,21.1313492 54.3550083,20.4018622 53.9022873,19.8743869 C53.4483393,19.3481586 52.8655683,19.0850445 52.1502936,19.0850445 C51.4153887,19.0850445 50.8080799,19.3481586 50.3271405,19.8743869 C49.8449741,20.4018622 49.5468408,21.1363372 49.4327403,22.0790589 L49.4327403,22.0790589 Z" id="Fill-1142" fill="#335278"></path>
                <path d="M59.2519738,29.9197299 L59.2519738,26.7139285 C60.1448905,27.1290323 60.9693095,27.4503626 61.7276771,27.6779195 C62.4860447,27.9067267 63.122095,28.0205051 63.637051,28.0205051 C64.3403758,28.0205051 64.8712332,27.9292323 65.2271767,27.747937 C65.5831202,27.564141 65.7629267,27.2915729 65.7629267,26.9277319 C65.7629267,26.6226557 65.6296008,26.3513378 65.3617258,26.1137784 C65.0938508,25.8762191 64.4847103,25.5548887 63.5330813,25.1497874 C63.4340042,25.1072768 63.2749917,25.0422606 63.0572668,24.9509877 C60.3516068,23.8069517 59,22.3390848 59,20.5436359 C59,19.1770443 59.4978316,18.0767692 60.4934949,17.247812 C61.4891582,16.4163541 62.8101857,16 64.4553542,16 C65.3372623,16 66.1714667,16.0962741 66.9604137,16.2900725 C67.7481374,16.4826207 68.5138441,16.7701925 69.2563105,17.1552888 L69.2563105,20.3323331 C68.3242522,19.8259565 67.4949405,19.4546137 66.7671522,19.2220555 C66.0381408,18.9894974 65.3666185,18.871968 64.7525853,18.871968 C64.2168353,18.871968 63.805849,18.9694924 63.5184032,19.1620405 C63.2309574,19.3533383 63.0878461,19.6271568 63.0878461,19.9809952 C63.0878461,20.4486122 63.890248,21.0212553 65.4950517,21.6989247 C66.1494496,21.9627407 66.6644056,22.1802951 67.0411431,22.3528382 C68.0722784,22.8092023 68.8220838,23.3555889 69.2930057,23.9932483 C69.7651507,24.632158 70,25.4223556 70,26.3650913 C70,27.8542136 69.4960525,28.9982496 68.4906038,29.7984496 C67.4851551,30.5986497 66.0552652,31 64.2021572,31 C63.2811075,31 62.4053152,30.9099775 61.5784499,30.7324331 C60.7515846,30.5573893 59.9748693,30.2848212 59.2519738,29.9197299" id="Fill-1144" fill="#335278"></path>
                <path d="M81.0756268,21.8452704 C81.0792901,21.8465325 81.0805112,21.8465325 81.0841745,21.8477945 C81.0646369,21.7152773 81.0512048,21.5827601 81.0512048,21.4477188 C81.0512048,20.6273743 81.4224194,19.8978987 82,19.425885 C79.5187235,11.6300877 72.4180234,6 64.0437154,6 C59.9139531,6 56.0943504,7.37060642 52.9854282,9.69281252 C52.9854282,9.69281252 52.9854282,9.69407459 52.9854282,9.69533666 C52.3907522,10.1408468 52,10.86275 52,11.6830946 C52,13.0372941 53.0623575,14.1352937 54.3738196,14.1352937 C54.8476066,14.1352937 55.288424,13.9901559 55.6596386,13.7415284 C55.713367,13.7061904 55.7646532,13.6670663 55.8147183,13.6279422 C58.1348095,11.9102669 60.9726473,10.89935 64.0437154,10.89935 C65.7190655,10.89935 67.3248128,11.2035086 68.8169977,11.7562946 C69.2724683,11.1643844 69.9746011,10.7832397 70.762211,10.7832397 C71.2213448,10.7832397 71.6499512,10.9144949 72.0187235,11.1391431 C72.1408336,11.2136051 72.2556171,11.2956396 72.364295,11.3890326 C72.3704005,11.396605 72.3789482,11.4054395 72.3862748,11.4130119 C72.3862748,11.4117499 72.3862748,11.4117499 72.3850537,11.4117499 C72.3874959,11.4117499 72.388717,11.4117499 72.3911592,11.4104878 C76.7004233,14.637597 79.5101758,19.8802297 79.512618,25.7892346 C79.8069033,25.9242759 80.130495,26 80.4736242,26 C80.7386031,26 80.9913709,25.9533035 81.2282644,25.871269 C81.2563497,25.4510002 81.2734451,25.0269452 81.2734451,24.5991039 C81.2734451,23.6639112 81.2062846,22.7426011 81.0756268,21.8452704 M53.9427711,9.2725437 C53.9867307,9.26497129 54.0319114,9.25739888 54.0770922,9.25108853 C54.0319114,9.25739888 53.9867307,9.26497129 53.9427711,9.2725437 M54.1540215,9.24099199 C54.2260664,9.23468164 54.2993325,9.23089544 54.3738196,9.23089544 C54.2993325,9.23089544 54.2260664,9.23468164 54.1540215,9.24099199" id="Fill-1146" fill="#A63654"></path>
                <path d="M67.8329923,0.0369336835 C67.8329923,0.0406270519 67.8305564,0.0430892974 67.8305564,0.0467826658 C67.7854916,0.0381648063 67.7416447,0.028315824 67.6965799,0.0209290873 C67.6332456,0.0147734734 67.5711293,0.0110801051 67.507795,0.00615561392 C67.4663841,0.00246224557 67.4249732,0 67.3823443,0 C66.0657215,0 65,1.07723244 65,2.40807617 C65,3.48407748 65.6991133,4.39510834 66.6649615,4.70412016 C68.144792,4.85308601 75.3856085,5.73456993 80.5595342,12.0637722 C80.5595342,12.0637722 82.8566209,14.8756566 84.2317061,18.9740643 C85.3717237,19.0073047 86.3193023,19.8161523 86.5738575,20.8983093 C86.6067427,21.0349639 86.6274481,21.1790053 86.6371919,21.3242777 C86.7833479,22.3818122 86.8625158,23.4615069 86.8625158,24.5584373 C86.8625158,26.3226362 86.6652051,28.0412837 86.294943,29.6922193 C86.6371919,29.8879678 87.0342492,30 87.455666,30 C88.7345318,30 89.775894,28.9806303 89.8331385,27.7014938 C89.8367924,27.6990315 89.8404463,27.6965693 89.8428822,27.694107 C89.9451915,26.7707649 90,25.8326494 90,24.8822226 C90,11.9554334 80.2854916,1.32468812 67.8329923,0.0369336835" id="Fill-1148" fill="#7D3875"></path>
                <path d="M74.1285836,29.901443 C74.1223681,29.8977587 74.1161526,29.8953024 74.108694,29.8928462 C74.6830083,28.4829598 75,26.9478047 75,25.3377341 C75,25.2947498 74.9987569,25.2505373 74.9975138,25.207553 C74.6892238,25.0736874 74.3473701,25 73.9893559,25 C72.981198,25 72.1122679,25.5809027 71.7045296,26.4233958 C71.6970709,26.4209395 71.6883692,26.416027 71.6821537,26.4123426 C70.6665372,29.6398526 67.6159584,31.9929383 64.0171704,31.9929383 C63.359568,31.9929383 62.7218553,31.9131102 62.1090047,31.7645072 L62.1090047,31.7645072 C62.0804133,31.7571385 62.0518219,31.752226 62.0257167,31.7448572 C61.8665993,31.7141541 61.7025095,31.6969604 61.5346904,31.6969604 C60.1337114,31.6969604 59,32.8182376 59,34.2035616 C59,35.3936138 59.842825,36.3896224 60.971564,36.643844 C60.995183,36.6487565 61.0175589,36.6548971 61.0411778,36.6585815 C61.9983684,36.880872 62.9928521,37 64.0171704,37 C68.098283,37 71.745552,35.1443046 74.1484733,32.2447037 C73.9520628,31.8897759 73.8426696,31.4844949 73.8426696,31.0534234 C73.8426696,30.6370893 73.9458473,30.2465459 74.1285836,29.901443" id="Fill-1150" fill="#5499B8"></path>
                <path d="M78.6574285,23.9786697 L78.6574285,23.9786697 C78.6526465,23.9799046 78.6478644,23.9811395 78.6418868,23.9811395 C78.0823823,18.4264945 74.4467993,13.8202638 69.5284208,12 C69.1984567,12.4285153 69,12.9718776 69,13.5609318 C69,14.4142576 69.4112596,15.1675554 70.0401043,15.6220039 C70.0353222,15.6269436 70.0317357,15.6331182 70.0269536,15.6380578 C73.0743397,17.8485546 75.080426,21.4878473 75.1222693,25.6075218 C75.9866319,25.9952849 76.5903706,26.8819534 76.5903706,27.9168117 C76.5903706,28.1415661 76.559287,28.3576761 76.5066841,28.5651417 C76.4756005,28.6836935 76.4397348,28.8010104 76.3919139,28.9121527 C76.3739811,28.9553747 76.3524617,28.9998316 76.3333333,29.0418187 C76.3357244,29.0455234 76.3381154,29.0492282 76.3405065,29.0529329 C75.8539289,30.3817008 75.160526,31.6042661 74.3045321,32.6848162 C74.7169873,33.466517 75.5203782,34 76.4445169,34 C77.339963,34 78.1206391,33.4973898 78.5426584,32.7539714 C78.5534181,32.7490317 78.5629823,32.7428571 78.573742,32.7391524 C79.489512,30.595341 80,28.229245 80,25.7396576 L80,25.7310132 C79.3125747,25.4148751 78.7985002,24.7653101 78.6574285,23.9786697" id="Fill-1152" fill="#C4AB4A"></path>
                <path d="M72.67504,11.6257359 C72.672528,11.6269975 72.671272,11.6269975 72.670016,11.6269975 L72.671272,11.628259 C72.663736,11.6232128 72.6549441,11.6143818 72.6461521,11.6055509 C72.5368806,11.5134567 72.4175611,11.4301934 72.2932176,11.3557611 C71.9139073,11.1312027 71.4705412,11 70.9995433,11 C70.1894268,11 69.468486,11.3809924 69,11.9726661 C74.1684174,13.8322119 77.9866408,18.5378469 78.5744462,24.2123633 C78.5794702,24.2123633 78.5844942,24.2111018 78.5895182,24.2098402 C78.7389815,25.0134567 79.2778032,25.6770395 80,26 C79.997488,20.0933558 77.1074446,14.8528175 72.67504,11.6257359 M78.5593743,23.9890664 C78.5518383,23.912111 78.5480703,23.8364172 78.5480703,23.7594617 C78.5480703,23.8364172 78.5518383,23.912111 78.5593743,23.9890664" id="Fill-1154" fill="#A83338"></path>
                <path d="M75.699722,29.3967894 C75.7247451,29.3552609 75.7483781,29.3112895 75.7692308,29.2685395 C75.8234476,29.1573896 75.8651529,29.0425755 75.9012975,28.9253184 C75.9638554,28.7213401 76,28.5075903 76,28.2840691 C76,27.2617344 75.2965709,26.3835282 74.2928638,26 C74.2942539,26.04275 74.2942539,26.0867213 74.2942539,26.1306927 C74.2942539,27.7307625 73.939759,29.2587681 73.2988879,30.6609667 C73.3058387,30.6634095 73.3141798,30.6658524 73.3211307,30.6682952 C73.1167748,31.0115163 73,31.4011516 73,31.8139941 C73,32.2439365 73.1237257,32.6470075 73.3419833,33 C74.3373494,31.9300297 75.1422614,30.7208166 75.708063,29.4077822 C75.7052827,29.404118 75.7025023,29.4004537 75.699722,29.3967894" id="Fill-1156" fill="#3B7D4A"></path>
                <path d="M84.7679065,27.5764773 C84.7679065,27.5054455 84.7728251,27.4380877 84.7789733,27.3682806 C84.7826622,27.3352141 84.7851214,27.3033723 84.79004,27.2715304 C84.8084845,27.1147706 84.9314479,25.1883392 84.9326775,24.8821677 C84.9437442,22.7646853 84.5170612,20.7647728 83.9182293,19.0048987 C83.8936366,19.0024494 83.8702736,19 83.8456809,19 C83.2579158,19 82.719336,19.2032979 82.2901937,19.5400866 C82.6590839,20.6582251 82.9283738,21.8204523 83.0845374,23.01942 C83.1189671,23.1798539 83.1398709,23.3439619 83.1411005,23.5129686 C83.1411005,23.5215414 83.1423302,23.5301142 83.1423302,23.5399116 C83.1423302,24.588243 82.4598832,25.4773652 81.5142945,25.7945589 C80.9806333,33.6154048 75.4300646,40.0878712 68.0473409,42.0253248 L68.0473409,42.0449197 L68.0473409,42.0485938 L68.0473409,42.0473691 C66.8816477,42.2629139 66,43.2794034 66,44.5016402 C66,45.8818615 67.1238856,47 68.5072241,47 C68.6240393,47 68.7371657,46.9889778 68.850292,46.9742816 C69.0396557,46.9485632 69.2216416,46.9020251 69.3962496,46.8371167 C77.6495543,44.6400297 84.1002152,38.0046801 86,29.6670166 C85.2659084,29.2567467 84.7679065,28.4753969 84.7679065,27.5764773" id="Fill-1158" fill="#85B55C"></path>
                <path d="M83,23.8375098 C83,23.8281128 82.9986395,23.821065 82.9986395,23.8128426 C82.9972789,23.6507439 82.9741497,23.4909945 82.9346939,23.3371182 C82.7632653,22.188332 82.4666667,21.07361 82.0585034,20 C81.414966,20.4404855 81,21.1182459 81,21.8829287 C81,22.0086139 81.014966,22.1331245 81.0380952,22.2541112 C81.0326531,22.2541112 81.0326531,22.2541112 81.029932,22.2517619 C81.1727891,23.0892717 81.2489796,23.9455756 81.2489796,24.8159749 C81.2489796,25.2141738 81.229932,25.6076742 81.1986395,26 C82.2462585,25.6957713 83,24.8429914 83,23.8375098" id="Fill-1160" fill="#7D2938"></path>
                <path d="M86.7445627,21.4120147 C86.7334567,21.2616586 86.7098565,21.1163565 86.6723739,20.9748449 C86.3808422,19.8629681 85.3021749,19.0328509 84,19 C84.6774641,20.8181714 85.1591856,22.8789341 85.1466913,25.0635194 C85.1453031,25.3793935 85.0064785,27.3668734 84.987043,27.528601 C84.9801018,27.5627154 84.9773253,27.5955663 84.9731606,27.6296807 C84.9648311,27.7004365 84.9620546,27.7711923 84.9620546,27.8432116 C84.9620546,28.770618 85.5229061,29.5779922 86.351689,30 C86.7764924,28.3043878 87,26.5418102 87,24.7324833 C87,23.6054445 86.9111522,22.4973581 86.7445627,21.4120147" id="Fill-1162" fill="#591233"></path>
            </g>
        </g>
    </g>
</svg>