<?xml version="1.0" encoding="UTF-8"?>
<svg width="117px" height="28px" viewBox="0 0 117 28" version="1.1" xmlns="http://www.w3.org/2000/svg" xmlns:xlink="http://www.w3.org/1999/xlink">
    <!-- Generator: sketchtool 60.1 (101010) - https://sketch.com -->
    <title>22355A5D-E3EF-4A7A-80D9-FF119E900082</title>
    <desc>Created with sketchtool.</desc>
    <g id="Page-1" stroke="none" stroke-width="1" fill="none" fill-rule="evenodd">
        <g id="LP-DE-PATROCÃNIO" transform="translate(-785.000000, -3949.000000)">
            <g id="Group-63" transform="translate(785.000000, 3949.000000)">
                <polygon id="Fill-1470" fill="#36965C" points="24 12 12 12 12 12.0038449 23.9961555 24 24 24"></polygon>
                <polygon id="Fill-1471" fill="#388557" points="24 12 24 0 23.9961547 0 12 11.9961551 12 12"></polygon>
                <polygon id="Fill-1472" fill="#409963" points="12 24 24 24 24 23.9961551 12.0038449 12 12 12"></polygon>
                <polygon id="Fill-1473" fill="#36965C" points="12 24 12 12 11.9961547 12 0 23.9961551 0 24"></polygon>
                <g id="Group-1486" transform="translate(30.000000, 7.000000)" fill="#005754">
                    <path d="M14.1720901,5.99781111 C14.1720901,2.5707 11.8097239,1.04658889 8.01580845,1.04658889 L1.22369577,1.04658889 L1.22369577,16.2791444 L4.40409014,16.2791444 L4.40409014,10.7925889 L6.31282254,10.7925889 L11.4688789,16.2791444 L15.0372169,16.2791444 L15.0372169,15.7658111 L10.106738,10.6801444 C12.4232451,10.2095889 14.1720901,8.41658889 14.1720901,5.99781111 L14.1720901,5.99781111 Z M4.40409014,8.32736667 L4.40409014,3.77947778 L8.35789296,3.77947778 C9.81051268,3.77947778 10.8553577,4.56536667 10.8553577,6.06381111 C10.8553577,7.47547778 9.81051268,8.32736667 8.35789296,8.32736667 L4.40409014,8.32736667 Z" id="Fill-1474"></path>
                    <path d="M21.1248338,4.36296667 C19.4887775,4.36296667 17.7399324,4.69907778 16.5822986,5.14641111 L17.1276507,7.83407778 C18.1253972,7.38674444 19.6709746,7.02741111 20.875707,7.02741111 C22.2378479,7.02741111 22.919538,7.61041111 22.9653972,9.0453 C22.3741859,8.93285556 21.7148056,8.88641111 20.9661859,8.88641111 C17.7176225,8.88641111 15.5597634,10.2993 15.5597634,13.0077444 C15.5597634,15.1380778 16.9677634,16.5033 19.4664676,16.5033 C21.0343549,16.5033 22.1696789,15.8995222 22.9653972,15.1600778 L22.9653972,16.2796333 L26.1457915,16.2796333 L26.1457915,8.97685556 C26.1457915,6.51285556 24.7824113,4.36296667 21.1248338,4.36296667 L21.1248338,4.36296667 Z M22.9653972,13.1214111 C22.4646648,13.5467444 21.6007775,14.0405222 20.5113127,14.0405222 C19.4664676,14.0405222 18.7389183,13.6591889 18.7389183,12.6740778 C18.7389183,11.6437444 19.9882704,11.1047444 21.6466366,11.1047444 C22.1250592,11.1047444 22.6010028,11.1719667 22.9653972,11.2624111 L22.9653972,13.1214111 Z" id="Fill-1476"></path>
                    <path d="M48.545138,16.2798778 L48.545138,9.53687778 C48.545138,6.64632222 47.2734761,4.36198889 44.048462,4.36198889 C42.0033915,4.36198889 40.5272225,5.3031 39.7091944,6.28943333 C39.0039549,5.05743333 37.8450817,4.34121111 35.7330817,4.34121111 C34.0065465,4.34121111 32.7348845,4.94621111 31.8486873,5.8641 L31.8486873,4.56365556 L28.668293,4.56365556 L28.668293,16.2798778 L31.8486873,16.2798778 L31.8486873,9.08832222 C32.2341521,8.14843333 33.0757296,7.25132222 34.6646873,7.25132222 C36.3689127,7.25132222 37.0493634,8.3281 37.0493634,10.0294333 L37.0493634,16.2798778 L40.2309972,16.2798778 L40.2309972,9.04432222 C40.5941521,8.12643333 41.4109408,7.25132222 42.9800676,7.25132222 C44.6595042,7.25132222 45.3647437,8.3281 45.3647437,10.0514333 L45.3647437,16.2798778 L48.545138,16.2798778 Z" id="Fill-1478"></path>
                    <path d="M57.7922028,4.36272222 C56.2020056,4.36272222 55.0431324,4.94572222 54.2486535,5.77438889 L54.2486535,4.56438889 L51.0682592,4.56438889 L51.0682592,20.9666111 L54.2486535,19.4950556 L54.2486535,15.1830556 C55.0666817,15.9432778 56.2701746,16.5030556 57.7922028,16.5030556 C61.1089352,16.5030556 63.3572732,13.9730556 63.3572732,10.4567222 C63.3572732,6.89272222 61.1089352,4.36272222 57.7922028,4.36272222 M56.9060056,13.7713889 C55.8611606,13.7713889 54.8609352,13.2996111 54.2486535,12.7190556 L54.2486535,8.16994444 C54.7716958,7.61016667 55.8165408,7.09561111 56.9060056,7.09561111 C58.882907,7.09561111 60.1322592,8.43883333 60.1322592,10.4567222 C60.1322592,12.4501667 58.8605972,13.7713889 56.9060056,13.7713889" id="Fill-1480"></path>
                    <path d="M76.148507,9.1333 C76.148507,6.42241111 74.4455211,4.25052222 70.8325634,4.25052222 C67.0150986,4.25052222 64.563493,6.96141111 64.563493,10.4569667 C64.563493,13.9048556 66.5627042,16.5949667 71.035831,16.5949667 C73.0585915,16.5949667 74.8074366,15.9899667 76.0357183,15.0024111 L74.8309859,12.7620778 C74.0141972,13.3683 72.6272676,13.9720778 71.1287887,13.9720778 C69.196507,13.9720778 68.1293521,13.0541889 67.8343662,11.4188556 L75.8981408,11.4188556 C76.0357183,10.9703 76.148507,9.85074444 76.148507,9.1333 M73.0821408,8.99885556 L67.9248451,8.99885556 C68.1529014,7.8573 69.060169,6.84896667 70.7631549,6.84896667 C72.3769014,6.84896667 73.1044507,7.65563333 73.1044507,8.59674444 C73.1044507,8.70918889 73.1044507,8.88641111 73.0821408,8.99885556" id="Fill-1482"></path>
                    <path d="M84.4625239,4.36247778 C82.9863549,4.36247778 81.987369,5.25836667 81.3069183,6.64681111 L81.3069183,4.56414444 L78.1240451,4.56414444 L78.1240451,16.2803667 L81.3069183,16.2803667 L81.3069183,9.51536667 C81.6688338,8.26014444 82.5996507,7.25181111 83.9407211,7.25181111 C84.5765521,7.25181111 85.3041014,7.47425556 85.7800451,7.76881111 L86.9860169,5.16914444 C86.3030873,4.65336667 85.4404394,4.36247778 84.4625239,4.36247778" id="Fill-1484"></path>
                </g>
            </g>
        </g>
    </g>
</svg>