<?xml version="1.0" encoding="UTF-8"?>
<svg width="126px" height="22px" viewBox="0 0 126 22" version="1.1" xmlns="http://www.w3.org/2000/svg" xmlns:xlink="http://www.w3.org/1999/xlink">
    <!-- Generator: sketchtool 60.1 (101010) - https://sketch.com -->
    <title>E2AB8F76-C52E-46EA-9E21-E6A3E5B67A59</title>
    <desc>Created with sketchtool.</desc>
    <g id="Page-1" stroke="none" stroke-width="1" fill="none" fill-rule="evenodd">
        <g id="LP-DE-PATROCÃNIO" transform="translate(-1480.000000, -3549.000000)" fill="#3D5287">
            <g id="Group-38" transform="translate(1480.000000, 3549.000000)">
                <path d="M0,0.453244821 C1.54003511,0.193888062 3.83482177,0 6.38119228,0 C9.5247691,0 11.7242959,0.485979169 13.2337989,1.71729427 C14.4904969,2.75346229 15.1829631,4.27686849 15.1829631,6.28625386 C15.1829631,9.0724505 13.264331,10.9848918 11.4409587,11.6647591 L11.4409587,11.7617031 C12.9187085,12.3773607 13.7357454,13.8352982 14.2706664,15.8446835 C14.930158,18.3073137 15.5908709,21.1589791 16,22 L11.094115,22 C10.7497138,21.3843425 10.2465461,19.6028385 9.61880772,16.9135859 C9.05213342,14.1903399 8.14105793,13.447522 6.19189375,13.4147877 L4.74589726,13.4147877 L4.74589726,22 L0,22 L0,0.453244821 Z M4.74589726,9.85052077 L6.63277612,9.85052077 C9.0216014,9.85052077 10.4358446,8.61920568 10.4358446,6.70676434 C10.4358446,4.69737896 9.11564003,3.69394529 6.91489199,3.66121094 C5.75223265,3.66121094 5.09274101,3.75815497 4.74589726,3.82362367 L4.74589726,9.85052077 Z" id="Fill-1409"></path>
                <path d="M18,0.448598131 C19.786166,0.160747664 22.1136319,0 24.5674425,0 C28.6476302,0 31.293435,0.737694704 33.3657344,2.30903427 C35.5978225,3.97632399 37,6.63800623 37,10.4548287 C37,14.5931464 35.5024447,17.446729 33.4289067,19.2099688 C31.1658518,21.1028037 27.7223417,22 23.5145707,22 C20.9975878,22 19.2126605,21.8392523 18,21.6797508 L18,0.448598131 Z M22.877893,18.0872274 C23.2916096,18.1844237 23.9617315,18.1844237 24.5674425,18.1844237 C28.9659691,18.2143302 31.8359737,15.7781931 31.8359737,10.6155763 C31.8669405,6.1258567 29.2533412,3.75202492 25.0777756,3.75202492 C23.9926984,3.75202492 23.2916096,3.84797508 22.877893,3.94517134 L22.877893,18.0872274 Z" id="Fill-1411"></path>
                <path d="M43.7007783,18.3289897 C44.9436917,19.0897501 46.7599693,19.7214419 48.672432,19.7214419 C51.5080234,19.7214419 53.1644086,18.2334292 53.1644086,16.0814577 C53.1644086,14.0870988 52.0176804,12.9478197 49.1183819,11.8383257 C45.6132411,10.6059683 43.447199,8.80024821 43.447199,5.79319682 C43.447199,2.46967902 46.2190833,0 50.3925243,0 C52.5910445,0 54.1837225,0.506346251 55.1393293,1.04495967 L54.3748439,3.29125063 C53.6753147,2.91273199 52.2400307,2.27979918 50.2975882,2.27979918 C47.3658115,2.27979918 46.2503123,4.02098494 46.2503123,5.47673041 C46.2503123,7.4710893 47.5569328,8.45151464 50.5211877,9.59203475 C54.1524935,10.9844869 56,12.7269137 56,15.8605517 C56,19.1518023 53.5466513,22 48.4800615,22 C46.4089555,22 44.1467282,21.3980933 43,20.639815 L43.7007783,18.3289897 Z" id="Fill-1413"></path>
                <path d="M61.0495532,3 L61.0495532,6.48439106 L65,6.48439106 L65,8.58845067 L61.0495532,8.58845067 L61.0495532,16.7862282 C61.0495532,18.6706064 61.5832656,19.7385021 63.1186028,19.7385021 C63.841186,19.7385021 64.3736799,19.6445272 64.71974,19.549332 L64.8440292,21.6241007 C64.3103168,21.8425617 63.4646629,22 62.397238,22 C61.1116978,22 60.077173,21.5911485 59.4179529,20.8381295 C58.6356621,20.021647 58.3529651,18.6706064 58.3529651,16.880203 L58.3529651,8.58845067 L56,8.58845067 L56,6.48439106 L58.3529651,6.48439106 L58.3529651,3.72250771 L61.0495532,3 Z" id="Fill-1415"></path>
                <path d="M85.0476513,3 L85.0476513,6.48439106 L89,6.48439106 L89,8.58845067 L85.0476513,8.58845067 L85.0476513,16.7862282 C85.0476513,18.6706064 85.5812915,19.7385021 87.1176391,19.7385021 C87.8389062,19.7385021 88.3725464,19.6445272 88.7173413,19.549332 L88.842832,21.6241007 C88.3091918,21.8425617 87.462434,22 86.396372,22 C85.1110058,22 84.0766211,21.5911485 83.4174902,20.8381295 C82.6340869,20.021647 82.3514282,18.6706064 82.3514282,16.880203 L82.3514282,8.58845067 L80,8.58845067 L80,6.48439106 L82.3514282,6.48439106 L82.3514282,3.72250771 L85.0476513,3 Z" id="Fill-1417"></path>
                <path d="M76.5127844,21.6522808 L76.2953493,19.725695 L76.2023354,19.725695 C75.3640024,20.926125 73.7465271,22 71.6011677,22 C68.5534528,22 67,19.8203041 67,17.6049762 C67,13.9066196 70.2325347,11.8817386 76.0465069,11.9136845 L76.0465069,11.5979112 C76.0465069,10.3323606 75.7046507,8.05559822 72.6267365,8.05559822 C71.2279042,8.05559822 69.7674653,8.49792659 68.7092813,9.19459376 L68.0883833,7.35893104 C69.3313872,6.53693749 71.1348903,6 73.0314073,6 C77.632575,6 78.7523656,9.19459376 78.7523656,12.2614038 L78.7523656,17.9846414 C78.7523656,19.3128552 78.8139722,20.609123 79,21.6522808 L76.5127844,21.6522808 Z M76.1093215,13.8427277 C73.1244212,13.7788358 69.73485,14.317002 69.73485,17.2892029 C69.73485,19.091691 70.9162472,19.9444018 72.3162875,19.9444018 C74.2744111,19.9444018 75.5186229,18.6800799 75.9534931,17.383812 C76.0465069,17.098756 76.1093215,16.7829826 76.1093215,16.4979266 L76.1093215,13.8427277 Z" id="Fill-1419"></path>
                <path d="M93.9990814,1.79333372 C94.0268804,2.76978873 93.4217181,3.55247251 92.4583768,3.55247251 C91.6051622,3.55247251 91,2.76978873 91,1.79333372 C91,0.782683783 91.631892,0 92.5129056,0 C93.4217181,0 93.9990814,0.782683783 93.9990814,1.79333372 L93.9990814,1.79333372 Z M91.3015119,22 L93.7232301,22 L93.7232301,6.22600887 L91.3015119,6.22600887 L91.3015119,22 Z" id="Fill-1421"></path>
                <path d="M112,13.874069 C112,19.5329801 108.066705,22 104.356445,22 C100.202579,22 97,18.9641404 97,14.125931 C97,9.00391615 100.360306,6 104.611517,6 C109.017991,6 112,9.19434846 112,13.874069 M99.8218188,14.0313292 C99.8218188,17.3829379 101.756428,19.9126161 104.483365,19.9126161 C107.147457,19.9126161 109.146143,17.4148814 109.146143,13.9686708 C109.146143,11.3751056 107.844903,8.08861245 104.546209,8.08861245 C101.248747,8.08861245 99.8218188,11.1220149 99.8218188,14.0313292" id="Fill-1423"></path>
                <path d="M113.12507,10.5906272 C113.12507,8.9741738 113.094713,7.64785305 113,6.3566999 L115.438259,6.3566999 L115.5949,8.94151817 L115.656828,8.94151817 C116.407248,7.45443127 118.157015,6 120.657202,6 C122.750607,6 126,7.29240914 126,12.6592354 L126,22 L123.250887,22 L123.250887,12.9820237 C123.250887,10.4612607 122.34504,8.35999686 119.751354,8.35999686 C117.937231,8.35999686 116.531104,9.68506162 116.063609,11.2688594 C115.937325,11.6255593 115.874183,12.1091137 115.874183,12.5939242 L115.874183,22 L113.12507,22 L113.12507,10.5906272 Z" id="Fill-1425"></path>
            </g>
        </g>
    </g>
</svg>