<?xml version="1.0" encoding="UTF-8"?>
<svg width="92px" height="19px" viewBox="0 0 92 19" version="1.1" xmlns="http://www.w3.org/2000/svg" xmlns:xlink="http://www.w3.org/1999/xlink">
    <!-- Generator: sketchtool 60.1 (101010) - https://sketch.com -->
    <title>C11CD1EB-D95D-49F9-8659-72BA1A58FB89</title>
    <desc>Created with sketchtool.</desc>
    <g id="Page-1" stroke="none" stroke-width="1" fill="none" fill-rule="evenodd">
        <g id="LP-DE-PATROCÃNIO" transform="translate(-798.000000, -3853.000000)">
            <g id="Group-57" transform="translate(798.000000, 3853.000000)">
                <path d="M43.7808691,3.45087009 C41.052813,3.16953674 39.3625508,3.10660691 36.7588329,3.35709231 C36.4449095,3.38917418 36.1962329,3.67174146 36.1962329,3.98762453 L36.1962329,18 L34,18 L34,2.97704549 C34,2.06764775 34.7214083,1.37788746 35.5991629,1.28410967 C38.8282654,0.905296775 40.7708975,0.905296775 44,1.28410967 L43.7808691,3.45087009 Z" id="Fill-1164" fill="#000000"></path>
                <path d="M59.3215562,17.7007651 C55.497892,18.099745 51.8051049,18.099745 47.9852901,17.7007651 C47.0704335,17.6061741 46.3839703,16.957377 46.3185318,16.0939311 C45.8938227,11.5232465 45.8938227,7.44855813 46.3185318,2.87908619 C46.3839703,2.04231983 47.0704335,1.39352273 47.9519292,1.30378257 C51.4458345,0.898739144 54.5509577,0.898739144 58.0461461,1.30378257 C58.8981303,1.39352273 59.5499496,1.98168459 59.6795436,2.81602554 C60.1068188,5.37847092 60.1068188,6.92224422 59.6795436,9.48590231 C59.5499496,10.2887129 58.8326918,10.9071924 57.9819907,10.999358 C54.6805517,11.3680203 51.6113555,11.4007633 48.3099166,11.1230539 C48.3445605,12.2035739 48.408716,13.8091952 48.5075154,15.075259 C48.5395931,15.3844988 48.7692695,15.6003602 49.0964623,15.6294652 C52.4607735,15.9411303 55.6942077,15.9083873 59.0918798,15.5688299 L59.3215562,17.7007651 Z M48.2457612,8.92927077 C51.2520851,9.20698019 53.9953716,9.20698019 56.9709009,8.92927077 L57.5239208,8.40416956 C57.7882412,6.6445348 57.7882412,5.62828812 57.5239208,3.89533287 C57.49056,3.59094395 57.2647328,3.37023166 56.9709009,3.34112675 C54.2584089,3.09130954 51.8051049,3.06341733 49.0964623,3.34112675 C48.7692695,3.37023166 48.5395931,3.61883616 48.5075154,3.89533287 C48.3445605,5.93510246 48.279122,7.19874093 48.2457612,8.92927077 L48.2457612,8.92927077 Z" id="Fill-1166" fill="#000000"></path>
                <path d="M75.3240915,17.7007651 C71.5002521,18.099745 67.8085789,18.099745 63.988589,17.7007651 C63.0724073,17.6061741 62.3859127,16.957377 62.3204711,16.0939311 C61.8931763,11.5232465 61.8931763,7.44855813 62.3204711,2.87908619 C62.3859127,2.04231983 63.0724073,1.39352273 63.9539434,1.30378257 C67.449292,0.898739144 70.5532744,0.898739144 74.0486229,1.30378257 C74.9006462,1.39352273 75.5524953,1.98168459 75.6833784,2.81602554 C76.1055405,5.37847092 76.1055405,6.92224422 75.6833784,9.48590231 C75.5524953,10.2887129 74.8364878,10.9071924 73.9844645,10.999358 C70.6841575,11.3680203 67.6135374,11.4007633 64.3132304,11.1230539 C64.3440264,12.2035739 64.4120343,13.8091952 64.509555,15.075259 C64.5416342,15.3844988 64.7713212,15.6003602 65.0946794,15.6294652 C68.4629944,15.9411303 71.6965767,15.9083873 75.0956876,15.5688299 L75.3240915,17.7007651 Z M64.2477888,8.92927077 C67.2542505,9.20698019 69.9976628,9.20698019 72.9694789,8.92927077 L73.5263737,8.40416956 C73.7868567,6.6445348 73.7868567,5.62828812 73.5263737,3.89533287 C73.4930113,3.59094395 73.2671738,3.37023166 72.9694789,3.34112675 C70.2607122,3.09130954 67.8085789,3.06341733 65.0946794,3.34112675 C64.7713212,3.37023166 64.5416342,3.61883616 64.509555,3.89533287 C64.3440264,5.93510246 64.2773017,7.19874093 64.2477888,8.92927077 L64.2477888,8.92927077 Z" id="Fill-1168" fill="#000000"></path>
                <path d="M79.2815783,1 L79.2815783,3.56847592 L79.3802203,4.10260076 L84.2700487,14.6312598 L84.7286703,14.6312598 L89.6184986,4.10260076 L89.7197028,3.56847592 L89.7197028,1 L92,1 L92,3.82200062 C92,4.16536659 91.9359467,4.44719744 91.7758135,4.76102655 L86.1647451,16.9191356 C85.5139636,18.3602881 83.4898796,18.3602881 82.836536,16.9191356 L77.2241865,4.76102655 C77.0614912,4.44719744 77,4.16536659 77,3.82200062 L77,1 L79.2815783,1 Z" id="Fill-1170" fill="#000000"></path>
                <path d="M21.4228214,3 L1.57717865,3 C0.706535948,3 0,2.32883776 0,1.50178501 C0,0.671162237 0.706535948,0 1.57717865,0 L21.4228214,0 C22.2934641,0 23,0.671162237 23,1.50178501 C23,2.32883776 22.2934641,3 21.4228214,3" id="Fill-1172" fill="#6BAB85"></path>
                <path d="M21.3932888,11 L7.60926357,11 C6.72231814,11 6,10.3288378 6,9.50178501 C6,8.67116224 6.72231814,8 7.60926357,8 L21.3932888,8 C22.2802342,8 23,8.67116224 23,9.50178501 C23,10.3288378 22.2802342,11 21.3932888,11" id="Fill-1174" fill="#6BAB85"></path>
                <path d="M21.4794686,19 L14.5217391,19 C13.6811594,19 13,18.3288378 13,17.501785 C13,16.6711622 13.6811594,16 14.5217391,16 L21.4794686,16 C22.3188406,16 23,16.6711622 23,17.501785 C23,18.3288378 22.3188406,19 21.4794686,19" id="Fill-1176" fill="#6BAB85"></path>
                <path d="M21.5303004,11 C20.6855357,11 20,10.3108198 20,9.4615641 C20,8.60864252 20.6855357,7.91946234 21.5303004,7.91946234 C22.8563987,7.91946234 23.9369682,6.83681404 23.9369682,5.50122195 C23.9369682,4.16807376 22.8563987,3.08175961 21.5303004,3.08175961 C20.6855357,3.08175961 20,2.39135748 20,1.54210176 C20,0.689180182 20.6855357,0 21.5303004,0 C24.5459281,0 27,2.46956232 27,5.50122195 C27,8.53532548 24.5459281,11 21.5303004,11" id="Fill-1178" fill="#6BAB85"></path>
            </g>
        </g>
    </g>
</svg>