<?xml version="1.0" encoding="UTF-8"?>
<svg width="73px" height="29px" viewBox="0 0 73 29" version="1.1" xmlns="http://www.w3.org/2000/svg" xmlns:xlink="http://www.w3.org/1999/xlink">
    <!-- Generator: sketchtool 60.1 (101010) - https://sketch.com -->
    <title>0B655A6D-D971-41E1-AA74-48785015F4DB</title>
    <desc>Created with sketchtool.</desc>
    <g id="Page-1" stroke="none" stroke-width="1" fill="none" fill-rule="evenodd">
        <g id="LP-DE-PATROCÃNIO" transform="translate(-1041.000000, -2939.000000)">
            <g id="Group-27" transform="translate(1041.000000, 2939.000000)">
                <g id="Group-26">
                    <path d="M43.3514847,3.62009941 C49.4071768,3.61887373 54.3155919,8.47958415 54.3168297,14.4767078 C54.3180671,20.4738315 49.4108897,25.3382196 43.3576729,25.3394455 L43.3514847,25.3394455 L28.6287149,25.3394455 C22.5730228,25.3394455 17.6646075,20.4775092 17.6646075,14.4803855 C17.6633701,8.48326186 22.5705475,3.62009941 28.6262396,3.62009941 L28.6287149,3.62009941 L43.3514847,3.62009941 Z M43.3514847,3.55271368e-15 L28.6287149,3.55271368e-15 C20.5433201,0.00613386124 13.9938163,6.50220057 14,14.5110331 C14.0061925,22.5186398 20.5643597,29.0061252 28.6497545,29 L43.3725243,29 C51.4566814,28.9938661 58.0049477,22.4977994 58,14.4901928 C57.9938091,6.4813602 51.4344042,-0.00612518143 43.3502471,3.55271368e-15 L43.3514847,3.55271368e-15 Z" id="Fill-126" fill="#71B752"></path>
                    <path d="M9.38315467,16.999834 L9.38315467,16.8938769 C9.83399694,16.6365525 10.2480858,16.314897 10.6094946,15.9364788 C10.9660031,15.5252643 11.2686064,15.0673783 11.5087289,14.5754346 C11.8162328,13.9258167 11.9632466,13.2106063 11.9387443,12.4903503 C11.9485452,11.7473892 11.7954058,11.0132578 11.4891271,10.3409348 C11.1816233,9.66861177 10.7356815,9.07323378 10.1807044,8.59642683 C9.55957121,8.07042551 8.84532925,7.67308638 8.07595712,7.42585315 C7.14977029,7.13194834 6.18315467,6.98814941 5.21286371,7.00076335 C4.3957121,7.00076335 3.65941807,7.02220705 3.04563553,7.08527676 C2.41225115,7.14960785 1.8805513,7.21267755 1.45053599,7.27700865 C1.00214395,7.32872581 0.558652374,7.4145006 0.121286371,7.53307164 L0,7.55325395 L0,22 L3.59693721,22 L3.59693721,18.0001195 L6.23460949,18.0001195 L8.17764165,22 L12,22 L9.38315467,16.999834 Z M3.59693721,10.3194911 C3.63859112,10.2980474 3.68024502,10.2980474 3.72067381,10.2778651 C3.78192956,10.25516 3.86278714,10.2349777 3.92404288,10.213534 C4.07718224,10.165601 4.23522205,10.136589 4.39448698,10.1277592 C4.61990812,10.1063155 4.88453292,10.0848718 5.19203675,10.0848718 C6.03246554,10.0230635 6.86676876,10.2715581 7.54303216,10.7874683 C8.03430322,11.2075125 8.31975498,11.8319026 8.31975498,12.4903503 C8.3381317,13.1740258 8.07105666,13.8324735 7.58468606,14.2979279 C6.99540582,14.7835646 6.2517611,15.0257523 5.49954058,14.9790807 L3.57733538,14.9790807 L3.57733538,10.3194911 L3.59693721,10.3194911 Z" id="Fill-128" fill="#2F2337"></path>
                    <path d="M72.7054523,15.5340103 C72.4802062,15.0622003 72.1680445,14.6415349 71.7861055,14.2963081 C71.4066148,13.9587529 70.9708125,13.6979148 70.4995095,13.5278586 C70.0208616,13.3360659 69.5287478,13.1800746 69.0280649,13.0586058 C68.5383994,12.930744 68.0475098,12.8233401 67.5786552,12.7389513 C67.1624396,12.6647915 66.7535689,12.5586662 66.3532674,12.4192968 C66.0423299,12.3157288 65.7509789,12.1571801 65.4926804,11.950044 C65.2919176,11.7851023 65.1792945,11.5319359 65.1854153,11.267262 C65.205002,10.9655082 65.3555741,10.6906053 65.5930618,10.5205491 C65.9750009,10.2609896 66.4267172,10.1420782 66.8796578,10.1791581 C67.3938065,10.1689291 67.9042827,10.2494821 68.392724,10.4157024 C68.7575247,10.5499573 69.1076355,10.7289638 69.4320389,10.9488861 C69.7233898,11.1585795 69.9853608,11.4091886 70.2093828,11.695599 L70.2901776,11.803003 L72.4765337,9.43372379 L72.3945148,9.34805639 C71.9978858,8.88647529 71.5363761,8.49138232 71.0258999,8.17556367 C70.4933887,7.85463056 69.9327218,7.58995663 69.3512441,7.38665636 C68.6094009,7.11814658 67.8283846,6.98900616 67.0436957,7.00179234 C66.2541102,6.98389169 65.4694213,7.10024593 64.7153365,7.34318335 C64.0959097,7.55159809 63.5156562,7.86869535 62.9990592,8.28168897 C62.5277562,8.65632405 62.1433688,9.13708442 61.875277,9.69072601 C61.6316684,10.2226311 61.5068037,10.8069595 61.5080279,11.3976811 C61.4908896,12.0357114 61.6084093,12.669906 61.8556904,13.2542344 C62.1078681,13.7247658 62.4396164,14.1441525 62.8350212,14.4919366 C63.2157361,14.8282132 63.6515384,15.0890512 64.1228413,15.2591074 C64.6027135,15.4509001 65.0936031,15.6081701 65.5930618,15.7283602 C66.0851756,15.856222 66.574841,15.9649046 67.0449199,16.0492934 C67.4537905,16.1196173 67.8577645,16.2270213 68.2494968,16.3689479 C68.5604344,16.4725159 68.8517853,16.6310646 69.1088597,16.8382007 C69.3096225,17.0018638 69.4222456,17.2550301 69.4149006,17.5209827 C69.3928656,17.8828316 69.2031203,18.2088792 68.9056485,18.3955574 C68.4061898,18.7228836 67.8185912,18.8724819 67.2309927,18.8213372 C66.6140143,18.8405165 65.99826,18.7471774 65.4118856,18.5438771 C64.9895492,18.4032291 64.5892477,18.1948144 64.2281194,17.925026 C63.8902503,17.7012678 63.6050201,17.4020712 63.3907915,17.0504513 L63.3087725,16.9213108 L61,19.2266591 L61.0612082,19.3123265 C61.4872171,19.8416744 61.9915725,20.2955838 62.5559119,20.656154 C63.1361655,21.0282319 63.7519198,21.3363788 64.3933815,21.5729231 C65.2343819,21.8721198 66.1206763,22.015325 67.0094191,21.9987029 C67.8920411,22.0102105 68.7734389,21.8887418 69.6230084,21.6355754 C70.2987467,21.4399469 70.9316393,21.1062276 71.4825129,20.6535968 C71.9660575,20.2661755 72.3528932,19.7611214 72.6062951,19.1819075 C72.8548003,18.6065294 72.9808891,17.9787279 72.9747683,17.3470906 C73.0494423,16.7282395 72.95763,16.1004381 72.7091248,15.5327317" id="Fill-130" fill="#2F2337"></path>
                    <polygon id="Fill-133" fill="#2F2337" points="28 23 32 23 32 8 28 8"></polygon>
                    <polygon id="Fill-134" fill="#2F2337" points="36 8 36 11.7440081 39.6674989 11.7440081 39.6674989 23 43.3325011 23 43.3325011 11.7440081 47 11.7440081 47 8"></polygon>
                </g>
            </g>
        </g>
    </g>
</svg>