<?xml version="1.0" encoding="UTF-8"?>
<svg width="116px" height="37px" viewBox="0 0 116 37" version="1.1" xmlns="http://www.w3.org/2000/svg" xmlns:xlink="http://www.w3.org/1999/xlink">
    <!-- Generator: sketchtool 60.1 (101010) - https://sketch.com -->
    <title>561F61A4-5386-4900-97E6-57D0077FC4AD</title>
    <desc>Created with sketchtool.</desc>
    <defs>
        <polygon id="path-1" points="0.370027265 0.337709677 16.6443993 0.337709677 16.6443993 24.807871 0.370027265 24.807871"></polygon>
    </defs>
    <g id="Page-1" stroke="none" stroke-width="1" fill="none" fill-rule="evenodd">
        <g id="LP-DE-PATROCÃNIO" transform="translate(-317.000000, -3744.000000)">
            <g id="Group-48" transform="translate(317.000000, 3743.000000)">
                <path d="M96.2606173,14.8169915 C96.2606173,12.9937803 96.2791358,11.2015549 96.2458025,9.41304789 C96.2346914,8.74127324 96.392716,8.44628732 97.1359259,8.31118873 C99.6087654,7.86251268 99.2569136,7.95547042 99.2618519,10.1170479 C99.2692593,16.2510197 99.2655556,22.3899493 99.2618519,28.5214423 C99.2618519,30.1376676 99.2569136,30.1227944 97.6445679,30.5578366 C96.3964198,30.8912451 95.1346914,30.9321465 93.8680247,30.7772169 C92.1075309,30.5578366 90.818642,29.6456113 90.0322222,28.0306254 C89.6741975,27.3030761 89.4346914,26.5371042 89.3198765,25.7426254 C88.9951852,23.490569 88.972963,21.2335549 89.5001235,18.9976113 C89.6630864,18.3035268 89.9322222,17.6491042 90.3124691,17.0479775 C91.1803704,15.6870761 92.3902469,14.8814423 94.0235802,14.8207099 C94.7248148,14.7946817 95.4260494,14.8169915 96.2606173,14.8169915 M96.264321,22.9266254 C96.264321,21.6103437 96.2680247,20.2953014 96.264321,18.9790197 C96.2569136,17.7061183 95.9606173,17.4297239 94.7248148,17.4631887 C93.6396296,17.4892169 92.9482716,18.094062 92.6569136,19.0633014 C91.9137037,21.506231 91.9050617,23.9826254 92.6458025,26.4218366 C93.0334568,27.6922592 94.0334568,28.2376113 95.3593827,28.2004282 C95.9865432,28.1818366 96.292716,27.9971606 96.2754321,27.2956394 C96.2346914,25.8430197 96.264321,24.3829634 96.264321,22.9266254" id="Fill-589" fill="#000000"></path>
                <path d="M77.7945679,22.9895887 C77.7945679,20.9135324 77.7908642,18.8374761 77.7945679,16.7626592 C77.8019753,15.5765183 77.805679,15.5616451 78.9760494,15.2864901 C80.168642,15.0100958 81.3723457,14.8130254 82.6019753,14.8316169 C85.5167901,14.8725183 87.1192593,16.2842366 87.5069136,19.2130254 C87.6081481,19.9616451 87.6735802,20.716462 87.6809877,21.4700394 C87.7032099,24.1125183 87.7007407,26.7537577 87.6883951,29.3962366 C87.6809877,30.4906592 87.651358,30.5216451 86.5883951,30.5241239 C84.4180247,30.5241239 84.705679,30.7088 84.6982716,28.6476169 C84.6846914,26.1451944 84.6871605,23.6452507 84.6982716,21.1428282 C84.7019753,20.3359549 84.6328395,19.5328 84.3439506,18.7779831 C83.8958025,17.6067155 81.9846914,17.0217014 80.9883951,17.7257014 C80.6488889,17.9636732 80.7624691,18.3156732 80.76,18.6218141 C80.751358,21.1217577 80.7550617,23.6217014 80.7550617,26.1241239 C80.7550617,27.2098704 80.7661728,28.2968563 80.751358,29.3788845 C80.7402469,30.4980958 80.7291358,30.5241239 79.6871605,30.5216451 C77.5883951,30.512969 77.805679,30.776969 77.7945679,28.6525746 C77.7871605,26.7624338 77.7945679,24.8747718 77.7945679,22.9895887" id="Fill-591" fill="#000000"></path>
                <path d="M73.1775309,23.8053859 C72.2367901,23.8053859 71.2997531,23.8202592 70.3614815,23.7979493 C69.8614815,23.7905127 69.6676543,24.0086535 69.7417284,24.4833577 C69.8219753,24.9902873 69.8812346,25.514569 70.0207407,26.0066254 C70.4935802,27.6216113 71.5059259,28.3169352 73.1738272,28.1781183 L74.1306173,27.978569 C75.5997531,27.5497239 75.5676543,27.5534423 75.9059259,29.0655549 C76.0614815,29.7621183 75.8590123,30.1165972 75.2158025,30.3582873 C72.4182716,31.4043718 68.1824691,31.2519211 67.071358,26.473893 C66.4639506,23.8599211 66.488642,21.2285972 67.2158025,18.6456113 C67.9837037,15.9300056 69.8960494,14.602569 72.5293827,14.8281465 C74.071358,14.9582873 75.1837037,15.7254986 75.8182716,17.1223437 C76.7009877,19.0583437 76.7923457,21.1257239 76.7479012,23.2116958 C76.7367901,23.7533296 76.3935802,23.7979493 75.9911111,23.7979493 C75.0540741,23.8016676 74.1158025,23.7979493 73.1775309,23.7979493 L73.1775309,23.8053859 Z M73.0824691,21.4293859 C74.1120988,21.4293859 73.8503704,20.5840901 73.4034568,18.8773859 L73.1775309,18.2167662 C72.934321,17.6305127 72.488642,17.3813859 71.8565432,17.3974986 C70.9417284,17.4160901 70.4158025,17.926738 70.0516049,19.2095549 C69.5923457,20.7985127 69.4750617,21.4256676 70.3034568,21.4256676 C70.797284,21.4256676 72.6096296,21.4293859 73.0824691,21.4293859 L73.0824691,21.4293859 Z" id="Fill-593" fill="#000000"></path>
                <path d="M106.847407,23.8053859 C105.906667,23.8053859 104.96963,23.8202592 104.031358,23.7979493 C103.531358,23.7905127 103.337531,24.0086535 103.411605,24.4833577 C103.491852,24.9902873 103.551111,25.514569 103.690617,26.0066254 C104.163457,27.6216113 105.175802,28.3169352 106.843704,28.1781183 L107.800494,27.978569 C109.273333,27.5497239 109.237531,27.5534423 109.577037,29.0655549 C109.731358,29.7621183 109.528889,30.1165972 108.885679,30.3582873 C106.088148,31.4043718 101.85358,31.2519211 100.741235,26.473893 C100.133827,23.8599211 100.158519,21.2285972 100.885679,18.6456113 C101.65358,15.9300056 103.565926,14.602569 106.199259,14.8281465 C107.741235,14.9582873 108.85358,15.7254986 109.488148,17.1223437 C110.370864,19.0583437 110.462222,21.1257239 110.417778,23.2116958 C110.406667,23.7533296 110.063457,23.7979493 109.660988,23.7979493 C108.723951,23.8016676 107.785679,23.7979493 106.847407,23.7979493 L106.847407,23.8053859 Z M106.752346,21.4293859 C107.781975,21.4293859 107.520247,20.5840901 107.073333,18.8773859 L106.847407,18.2167662 C106.605432,17.6305127 106.158519,17.3813859 105.527654,17.3974986 C104.611605,17.4160901 104.085679,17.926738 103.721481,19.2095549 C103.263457,20.7985127 103.146173,21.4256676 103.973333,21.4256676 C104.46716,21.4256676 106.284444,21.4293859 106.752346,21.4293859 L106.752346,21.4293859 Z" id="Fill-595" fill="#000000"></path>
                <path d="M60.657004,26.628625 C61.498964,23.447375 62.247924,19.976125 62.833204,16.847375 C62.903884,16.472375 62.984484,16.103625 63.056404,15.729875 L63.401124,15.341125 C64.153804,15.333625 64.901524,15.344875 65.659164,15.344875 C66.018764,15.344875 65.981564,15.801125 65.924524,16.081125 C65.758364,16.918625 65.577324,17.754875 65.391324,18.589875 C64.541924,22.344875 63.593324,26.072375 62.417804,29.738625 C62.143764,30.587375 62.132604,30.934875 61.572124,30.934875 L59.591844,30.934875 C58.999124,30.934875 59.006564,30.501125 58.513044,29.009875 C57.167644,24.946125 56.206644,20.778625 55.321284,16.592375 C55.057164,15.351125 55.301444,15.344875 55.602764,15.344875 L57.612804,15.344875 C58.472124,15.344875 58.309684,15.976125 58.490724,17.003625 C59.006564,19.809875 60.444964,26.128625 60.657004,26.628625" id="Fill-598" fill="#000000"></path>
                <path d="M111.261652,18.36125 C111.261652,15.46125 111.276532,12.55625 111.250492,9.65625 C111.244292,8.9575 111.324892,8.58 112.170572,8.43 C114.659252,7.98875 114.224012,8.1275 114.231452,10.1675 C114.246332,15.44875 114.235172,20.73 114.240132,26.01 C114.240132,26.43875 114.258732,26.865 114.302132,27.29125 C114.350492,27.74375 114.609652,28.03875 114.999012,28.2925 C115.325132,28.51125 115.992252,28.2925 115.973652,28.9025 C115.960012,29.56125 115.837252,30.225 115.666132,30.865 L114.918412,31.085 C112.800492,31.04875 111.429052,29.74 111.310012,27.49375 C111.220732,25.785 111.269092,24.06875 111.261652,22.3575 C111.257932,21.0275 111.261652,19.6925 111.261652,18.36125" id="Fill-600" fill="#000000"></path>
                <g id="Group-609" transform="translate(42.000000, 8.000000)" fill="#000000">
                    <path d="M1.25172727,15.2473263 C1.25172727,13.0873263 1.28227273,10.9298526 1.23136364,8.76985263 C1.21736364,8.06753684 1.48718182,7.73153684 2.11972727,7.51174737 C4.07845455,6.8208 6.06518182,6.66164211 8.10154545,7.09995789 C8.75318182,7.25027368 8.81681818,7.39427368 8.73027273,8.08269474 L8.47063636,9.35848421 C8.295,10.1972211 8.36118182,9.87132632 7.29081818,9.66416842 L6.29045455,9.52522105 C4.50609091,9.44185263 4.30372727,9.63511579 4.30372727,11.3681684 C4.30372727,14.7749053 4.30754545,18.3256421 4.29990909,21.7298526 C4.29990909,22.8250105 4.445,22.9235368 3.59863636,22.9235368 C3.05136364,22.9235368 2.18718182,22.9146947 1.91354545,22.9146947 C1.141,22.9146947 1.25172727,22.5900632 1.25172727,21.1475368 C1.24790909,19.2288 1.25172727,17.1673263 1.25172727,15.2473263" id="Fill-603"></path>
                    <path d="M9.84530909,7.65511579 C9.84530909,7.37469474 9.91403636,7.15616842 10.2780364,7.15616842 L12.3576727,7.14101053 L12.9164,7.60964211 L12.9164,8.93216842 C12.9087636,13.0525895 12.9164,17.3208 12.9125818,21.4424842 C12.9125818,22.9835368 13.0500364,22.8357474 11.4387636,22.8319579 L10.5707636,22.8357474 C9.86312727,22.9001684 9.87203636,22.6993263 9.8784,22.0386947 C9.8784,20.0896421 9.84530909,7.83322105 9.84530909,7.65511579" id="Fill-605"></path>
                    <path d="M13.2634727,3.10913684 C13.2520182,4.20934737 12.4222,5.00134737 11.3034727,4.97608421 C10.2254727,4.94829474 9.5102,4.21945263 9.49238182,3.13818947 C9.4682,2.01776842 10.2598364,1.17524211 11.3454727,1.16384001 C12.3992909,1.15755789 13.2711091,2.04050526 13.2634727,3.10913684" id="Fill-607"></path>
                </g>
                <g id="Group-617">
                    <g id="Group-612" transform="translate(18.620690, 12.258065)">
                        <mask id="mask-2" fill="white">
                            <use xlink:href="#path-1"></use>
                        </mask>
                        <g id="Clip-611"></g>
                        <path d="M5.23638621,17.4855161 C4.57224828,18.518871 3.85845517,19.5816452 3.0950069,20.6664839 C2.34024828,21.7304839 1.59045517,22.7417742 0.849351724,23.699129 C0.413627586,19.4725484 0.0796965517,15.3146129 0.751282759,11.146871 C0.989627586,9.68816129 1.76797241,8.57022581 2.9385931,7.66925806 C5.2910069,5.85751613 7.87928276,4.42822581 10.5035586,3.06022581 C12.3159724,2.11635484 14.1184552,1.1406129 16.2722483,0.337709677 C16.6409379,5.50693548 16.9140414,10.3917742 16.1928,15.2827419 C15.9780414,16.7340968 15.4045241,17.955 14.2128,18.8706774 C10.8424552,21.4730645 7.01031724,23.2615161 2.87155862,24.8084839 C5.30590345,19.9052581 7.7390069,15.0008065 10.1696276,10.0988065 C8.5248,12.5602258 6.87997241,15.0216452 5.23638621,17.4855161" id="Fill-610" fill="#265E3B" mask="url(#mask-2)"></path>
                    </g>
                    <path d="M6.50532414,22.3561355 C8.93594483,27.2605871 11.371531,32.1613613 13.8033931,37.0658129 C9.66463448,35.5188452 5.83622069,33.7328452 2.46215172,31.1304581 C1.27042759,30.2111032 0.694427586,28.9902 0.483393103,27.5388452 C-0.236606897,22.6491032 0.0340137931,17.7618129 0.402703448,12.5974903 C2.56022069,13.4003935 4.35897931,14.3712323 6.1713931,15.3175548 C8.79815172,16.6855548 11.3839448,18.1185226 13.7363586,19.9265871 C14.9094621,20.8275548 15.6890483,21.9454903 15.9224276,23.4078774 C16.5940138,27.5719419 16.2650483,31.732329 15.8256,35.9552323 C15.0882207,34.9978774 14.3334621,33.9902645 13.5849103,32.9225871 C12.8164966,31.8377484 12.1027034,30.7749742 11.4385655,29.7416194 C9.79373793,27.2826516 8.14891034,24.8200065 6.50532414,22.3561355" id="Fill-613" fill="#618C57"></path>
                    <path d="M22.9946897,9.61118065 C24.2348276,9.6222129 25.5221379,9.6589871 26.8628276,9.73253548 C28.1774483,9.80240645 29.4386897,9.89679355 30.6527586,10.0181484 C27.2488966,12.6095032 23.8450345,15.080729 19.9061379,16.7159548 C18.5244828,17.2871806 17.1552414,17.2209871 15.759931,16.7159548 C12.9606207,15.6948581 10.3648966,14.2815032 7.80393103,12.800729 C6.03372414,11.7771806 4.24737931,10.7756968 2.42255172,9.3942129 C6.67303448,6.36034194 10.7335862,3.55447097 15.3217241,1.57969677 C16.6797931,0.99376129 18.0353793,0.831954839 19.4530345,1.34801935 C23.4726207,2.80427742 27.0291724,5.07692258 30.5410345,7.73201935 C25.0404828,8.27750323 19.5386897,8.8242129 14.0331724,9.36479355 C17.0224138,9.44937419 20.0066897,9.53150323 22.9946897,9.61118065" id="Fill-615" fill="#A6C254"></path>
                </g>
            </g>
        </g>
    </g>
</svg>