<?xml version="1.0" encoding="UTF-8"?>
<svg width="134px" height="20px" viewBox="0 0 134 20" version="1.1" xmlns="http://www.w3.org/2000/svg" xmlns:xlink="http://www.w3.org/1999/xlink">
    <!-- Generator: sketchtool 60.1 (101010) - https://sketch.com -->
    <title>B67348DE-B8E9-4B31-A47D-8B1DBB58C55D</title>
    <desc>Created with sketchtool.</desc>
    <g id="Page-1" stroke="none" stroke-width="1" fill="none" fill-rule="evenodd">
        <g id="LP-DE-PATROCÃNIO" transform="translate(-1010.000000, -2844.000000)">
            <g id="Group-19" transform="translate(1010.000000, 2844.000000)">
                <path d="M30.4785926,7.95528124 L30.4785926,16 L28,16 L28,5.26644928 L30.3666808,5.26644928 L30.3666808,6.14265751 C31.3688003,5.24723419 32.6748622,5 34,5 L34,7.30581111 C32.713014,7.30581111 31.2937685,7.57226039 30.4785926,7.95528124" id="Fill-33" fill="#5E5F60"></path>
                <path d="M39.5,16 C36.5960063,16 35,14.4392736 35,11.1317821 L35,9.84824064 C35,6.56072645 36.5960063,5 39.5,5 C42.4051838,5 44,6.56072645 44,9.84824064 L44,11.1317821 C44,14.4392736 42.4051838,16 39.5,16 L39.5,16 Z M41.6803756,9.84824064 C41.6803756,7.84177072 41.0222163,7.09886493 39.5,7.09886493 C37.9944459,7.09886493 37.3208146,7.84177072 37.3208146,9.84824064 L37.3208146,11.1317821 C37.3208146,13.138252 37.9754033,13.8998865 39.5,13.8998865 C41.0222163,13.8998865 41.6803756,13.138252 41.6803756,11.1317821 L41.6803756,9.84824064 Z" id="Fill-35" fill="#5E5F60"></path>
                <path d="M50.6119647,16 C47.4593004,16 46,14.2908864 46,11.1498127 L46,9.83021223 C46,6.63420724 47.4593004,5 50.6119647,5 C52.2857143,5 53.4939523,5.24094881 54,5.38951311 L54,7.24719101 C52.617849,7.1360799 51.6632887,7.07990012 51.0604773,7.07990012 C49.4638771,7.07990012 48.5694671,7.56304619 48.5694671,9.83021223 L48.5694671,11.1498127 C48.5694671,13.3982522 49.4638771,13.9188514 51.0604773,13.9188514 C51.6632887,13.9188514 52.617849,13.8626717 54,13.752809 L54,15.6104869 C53.4939523,15.7403246 52.2857143,16 50.6119647,16" id="Fill-37" fill="#5E5F60"></path>
                <polygon id="Fill-40" fill="#5E5F60" points="62.0846641 16 58.4160242 11.1884459 58.4160242 16 56 16 56 2 58.4160242 2 58.4160242 10.3772377 62.1044879 5.85505492 64.8884912 5.85505492 60.8692181 10.7198824 65 16"></polygon>
                <g id="Group-55" transform="translate(65.000000, 2.000000)" fill="#5E5F60">
                    <path d="M4.76309464,14.2065 C1.79239821,14.2065 0.417326786,12.49525 0.417326786,9.35025 L0.417326786,8.029 C0.417326786,4.829 1.79239821,3.19275 4.76309464,3.19275 C6.33900536,3.19275 7.47750536,3.434 7.95434464,3.58275 L7.95434464,5.44275 C6.65196964,5.3315 5.7537375,5.27525 5.1844875,5.27525 C3.68127321,5.27525 2.83725536,5.759 2.83725536,8.029 L2.83725536,9.35025 C2.83725536,11.6015 3.68127321,12.12275 5.1844875,12.12275 C5.7537375,12.12275 6.65196964,12.0665 7.95434464,11.9565 L7.95434464,13.8165 C7.47750536,13.9465 6.33900536,14.2065 4.76309464,14.2065" id="Fill-41"></path>
                    <path d="M14.0047821,14.2065 C10.9983536,14.2065 9.34851429,12.644 9.34851429,9.33275 L9.34851429,8.04775 C9.34851429,4.7565 10.9995857,3.194 14.0047821,3.194 C17.0124429,3.194 18.6635143,4.7565 18.6635143,8.04775 L18.6635143,9.33275 C18.6622821,12.644 17.0124429,14.2065 14.0047821,14.2065 L14.0047821,14.2065 Z M16.2596036,8.04775 C16.2596036,6.039 15.581925,5.29525 14.00355,5.29525 C12.4461214,5.29525 11.7487286,6.039 11.7487286,8.04775 L11.7487286,9.33275 C11.7487286,11.3415 12.4264071,12.104 14.00355,12.104 C15.581925,12.104 16.2596036,11.3415 16.2596036,9.33275 L16.2596036,8.04775 Z" id="Fill-43"></path>
                    <path d="M27.5005661,13.927 L27.5005661,7.287 C27.5005661,5.7795 27.2430482,5.2595 26.0515661,5.2595 C25.3541732,5.2595 24.4374589,5.5195 23.3383875,5.967 L23.3383875,13.92825 L20.9357089,13.92825 L20.9357089,3.4545 L23.2459768,3.4545 L23.2459768,4.292 C24.3647625,3.64075 25.4823161,3.19325 26.6380661,3.19325 C29.5533161,3.19325 29.9389768,4.90575 29.9389768,7.287 L29.9389768,13.92825 L27.5005661,13.92825 L27.5005661,13.927 Z" id="Fill-45"></path>
                    <path d="M36.0468321,14.2065 C34.0113321,14.2065 33.2042786,13.38775 33.2042786,11.19275 L33.2042786,5.4265 L31.2796714,5.259 L31.2796714,3.454 L33.2042786,3.454 L33.2042786,0.794 L35.6254393,0.794 L35.6254393,3.454 L38.1377786,3.454 L38.1377786,5.4265 L35.6254393,5.4265 L35.6254393,11.15525 C35.6254393,12.12275 35.6981357,12.309 36.5791179,12.309 C37.1114036,12.309 37.8432964,12.27275 38.1377786,12.23525 L38.1377786,13.91025 C37.8617786,13.98275 36.9623143,14.2065 36.0468321,14.2065" id="Fill-47"></path>
                    <path d="M41.7490661,9.462875 L41.7490661,9.649125 C41.7490661,11.175375 41.9696196,12.160375 44.5004411,12.160375 C45.5822625,12.160375 46.8649232,12.049125 48.2215125,11.919125 L48.2215125,13.760375 C47.4514232,13.945375 46.1133161,14.206625 44.3895482,14.206625 C40.6660125,14.206625 39.3451554,12.755375 39.3451554,9.072875 L39.3451554,8.421625 C39.3451554,4.904125 40.9235304,3.194125 44.0038875,3.194125 C47.4514232,3.194125 48.6613875,5.464125 48.6613875,8.644125 L48.6613875,9.462875 L41.7490661,9.462875 Z M46.2414589,7.694125 C46.2414589,6.485375 46.0024232,5.164125 44.0038875,5.164125 C42.0595661,5.164125 41.7663161,6.504125 41.7663161,7.694125 L41.7663161,7.861625 L46.2414589,7.861625 L46.2414589,7.694125 Z" id="Fill-49"></path>
                    <path d="M57.4643089,13.927 L57.4643089,7.287 C57.4643089,5.7795 57.2067911,5.2595 56.0153089,5.2595 C55.3179161,5.2595 54.4012018,5.5195 53.3021304,5.967 L53.3021304,13.92825 L50.8994518,13.92825 L50.8994518,3.4545 L53.2097196,3.4545 L53.2097196,4.292 C54.3285054,3.64075 55.4472911,3.19325 56.6018089,3.19325 C59.5170589,3.19325 59.9027196,4.90575 59.9027196,7.287 L59.9027196,13.92825 L57.4643089,13.92825 L57.4643089,13.927 Z" id="Fill-51"></path>
                    <path d="M66.0087268,14.2065 C63.9732268,14.2065 63.1661732,13.38775 63.1661732,11.19275 L63.1661732,5.4265 L61.2403339,5.259 L61.2403339,3.454 L63.1661732,3.454 L63.1661732,0.794 L65.5873339,0.794 L65.5873339,3.454 L68.1009054,3.454 L68.1009054,5.4265 L65.5873339,5.4265 L65.5873339,11.15525 C65.5873339,12.12275 65.6600304,12.309 66.5410125,12.309 C67.0745304,12.309 67.8051911,12.27275 68.1009054,12.23525 L68.1009054,13.91025 C67.8249054,13.98275 66.9266732,14.2065 66.0087268,14.2065" id="Fill-53"></path>
                </g>
                <polygon id="Fill-56" fill="#4F6BB1" points="6 11 16 11 16 9 6 9"></polygon>
                <path d="M16,6 L6,6 L6,5.09134045 C6,4.48991696 6.51262909,4 7.14221725,4 L14.8577828,4 C15.4886152,4 16,4.48873072 16,5.09134045 L16,6 Z" id="Fill-57" fill="#4F6BB1"></path>
                <path d="M16,13 L6,13 L6,13.9098458 C6,14.510083 6.51262909,15 7.14221725,15 L14.8577828,15 C15.4886152,15 16,14.5124555 16,13.9098458 L16,13 Z" id="Fill-59" fill="#4F6BB1"></path>
                <path d="M13.1324978,0 L7.86750219,0 C2.61352375,0 0,3.27751646 0,10.011916 C0,16.7463155 2.61352375,20 7.86750219,20 L13.1324978,20 C18.3864762,20 21,16.7463155 21,10.011916 C21,3.27751646 18.3864762,0 13.1324978,0 M12.7346546,17.8864848 C10.3635092,17.8864848 12.7346546,17.895265 12.7346546,17.895265 L8.24820752,17.895265 C8.24820752,17.895265 10.619353,17.8864848 8.24820752,17.8864848 C2.59638589,17.8864848 2.61352313,14.4396362 2.61352313,10.011916 C2.61352313,5.58294136 2.59638589,2.11853246 8.24820752,2.11853246 L12.7346546,2.11853246 C18.3864762,2.11853246 18.369339,5.58294136 18.369339,10.011916 C18.369339,14.4408906 18.3864762,17.8864848 12.7346546,17.8864848" id="Fill-61" fill="#4F6BB1"></path>
            </g>
        </g>
    </g>
</svg>