<?xml version="1.0" encoding="UTF-8"?>
<svg width="133px" height="32px" viewBox="0 0 133 32" version="1.1" xmlns="http://www.w3.org/2000/svg" xmlns:xlink="http://www.w3.org/1999/xlink">
    <!-- Generator: sketchtool 60.1 (101010) - https://sketch.com -->
    <title>89AC7F1D-F73C-4088-B6B0-A28C361A420C</title>
    <desc>Created with sketchtool.</desc>
    <g id="Page-1" stroke="none" stroke-width="1" fill="none" fill-rule="evenodd">
        <g id="LP-DE-PATROCÃNIO" transform="translate(-1477.000000, -2838.000000)">
            <g id="Group-21" transform="translate(1476.000000, 2838.000000)">
                <g id="Group-139">
                    <path d="M30.3392064,17.6904615 C33.2324174,12.7883077 31.4315917,7.91938462 27.1784725,5.86276923 L23.0281514,10.4203077 C20.7281972,13.1009231 25.5250321,16.2283077 21.9357661,19.9267692 L11.8442064,31.0627692 L8.09145413,31.0627692 L19.4723257,18.4953846 C22.0199862,14.9581538 18.0170505,12.4732308 20.0494817,9.49723077 L24.3509037,4.80923077 C23.5235642,4.61230769 22.1673716,4.34769231 21.1084266,4.34769231 L24.5490688,0.499076923 L20.7777385,0.499076923 L17.1550321,4.51384615 C18.6288853,4.33292308 19.7348945,4.26646154 21.1270046,4.33292308 L16.9915459,8.80553846 C14.8909954,11.7175385 19.2431972,14.2344615 16.1146651,18.0510769 L8.38994037,26.5064615 C16.5927385,28.5790769 26.5195734,24.1544615 30.3392064,17.6904615 L30.3392064,17.6904615 Z M12.6665917,17.6633846 C16.4887018,13.5009231 11.2608578,11.2473846 13.9757202,7.90830769 L17.168656,4.52 C8.71443578,5.85292308 3.0568211,11.0849231 1.55200459,15.7052308 C0.294894495,19.5710769 1.84925229,23.5698462 5.67136239,25.4603077 L12.6665917,17.6633846 Z" id="Fill-135" fill="#006C33"></path>
                    <path d="M36.4580505,25.2301538 L38.7208486,25.2301538 C38.717133,25.7618462 38.6997936,26.1064615 38.6675917,26.2652308 C38.6329128,26.4412308 38.5771789,26.5741538 38.5016284,26.664 C38.4248394,26.7513846 38.309656,26.8227692 38.1536009,26.8756923 C37.9393349,26.9446154 37.4637385,26.9778462 36.7193807,26.9778462 C36.0196101,26.9778462 35.5254358,26.9556923 35.2343807,26.9113846 C34.9817202,26.8707692 34.799656,26.7624615 34.685711,26.584 C34.5593807,26.3846154 34.4962156,25.9427692 34.4962156,25.2572308 C34.4962156,24.7809231 34.529656,24.4092308 34.5990138,24.1421538 C34.664656,23.8886154 34.820711,23.7236923 35.069656,23.6436923 C35.3161239,23.5636923 35.8016284,23.5243077 36.5236927,23.5243077 C36.7602523,23.5243077 37.0265367,23.5304615 37.3237844,23.5427692 C37.6197936,23.5550769 37.8216743,23.5698462 37.9294266,23.5846154 C38.1511239,23.6141538 38.330711,23.7003077 38.4669495,23.8381538 C38.5499312,23.9243077 38.6081422,24.0227692 38.6428211,24.136 C38.6762615,24.2492308 38.696078,24.4067692 38.6997936,24.6123077 L38.2254358,24.6123077 C38.2204817,24.3452308 38.1833257,24.1778462 38.1139679,24.1089231 C38.0669037,24.0646154 38.0037385,24.0326154 37.9219954,24.0116923 C37.8390138,23.9932308 37.7064908,23.9747692 37.5269037,23.9612308 C37.2804358,23.9452308 36.9720413,23.9366154 36.6054358,23.9366154 C36.1224083,23.9366154 35.7731422,23.9489231 35.5601147,23.9747692 C35.3483257,23.9993846 35.2083716,24.0461538 35.1390138,24.1113846 C35.0758486,24.1716923 35.0325,24.2812308 35.0052523,24.4375385 C34.9829587,24.5950769 34.9705734,24.8449231 34.9705734,25.1907692 C34.9705734,25.7052308 34.9916284,26.0436923 35.0337385,26.2049231 C35.0609862,26.2984615 35.1030963,26.3698462 35.1600688,26.4190769 C35.2170413,26.4646154 35.3025,26.4966154 35.4176835,26.5150769 C35.6430963,26.5507692 36.1372706,26.5667692 36.8977294,26.5667692 C37.3200688,26.5667692 37.6297018,26.5507692 37.8291055,26.5175385 C38.0124083,26.4867692 38.1275917,26.4203077 38.1783716,26.3206154 C38.2279128,26.2196923 38.2551606,25.9907692 38.2601147,25.6350769 L36.459289,25.6350769 L36.459289,25.2301538 L36.4580505,25.2301538 Z M40.8375,26.9704615 L40.8375,23.5366154 L44.2224083,23.5366154 L44.2224083,23.9390769 L41.2982339,23.9390769 L41.2982339,24.9864615 L44.096078,24.9864615 L44.096078,25.3889231 L41.2982339,25.3889231 L41.2982339,26.5655385 L44.2248853,26.5655385 L44.2248853,26.968 L40.8375,26.968 L40.8375,26.9704615 Z M46.1470872,25.896 L46.5954358,25.896 C46.5954358,25.9341538 46.5954358,25.96 46.5966743,25.9723077 C46.6003899,26.1655385 46.6140138,26.2947692 46.6387844,26.36 C46.663555,26.4264615 46.7168119,26.4744615 46.7997936,26.5113846 C46.9273624,26.5667692 47.3447477,26.5938462 48.0556651,26.5938462 C48.569656,26.5938462 48.9399771,26.5692308 49.1641514,26.5187692 C49.3846101,26.4707692 49.4936009,26.3009231 49.4936009,26.008 C49.4936009,25.8603077 49.4750229,25.7495385 49.4415826,25.6744615 C49.4069037,25.5993846 49.3462156,25.5464615 49.2607569,25.5169231 C49.1740596,25.4886154 49.053922,25.4689231 48.8991055,25.4652308 C48.744289,25.4603077 48.241445,25.4590769 47.3893349,25.4590769 C47.1032339,25.4590769 46.872867,25.4307692 46.7019495,25.3790769 C46.5310321,25.3261538 46.3985092,25.2424615 46.3056193,25.128 C46.1953899,24.9889231 46.1408945,24.7809231 46.1408945,24.5003077 C46.1408945,24.1901538 46.2275917,23.9661538 46.4022248,23.8283077 C46.486445,23.7593846 46.5793349,23.7064615 46.6833716,23.6707692 C46.7861697,23.6350769 46.9298394,23.608 47.1143807,23.5846154 C47.4190596,23.5464615 47.7819495,23.5304615 48.2030505,23.5304615 C48.5931881,23.5304615 48.8941514,23.5489231 49.1059404,23.5895385 C49.3202064,23.6289231 49.4849312,23.6953846 49.6025917,23.7926154 C49.6979587,23.8713846 49.7673165,23.9612308 49.8019954,24.0683077 C49.8391514,24.1753846 49.8589679,24.3366154 49.861445,24.5569231 L49.4019495,24.5569231 L49.4019495,24.5052308 C49.4019495,24.3366154 49.3833716,24.2258462 49.3462156,24.168 C49.2917202,24.0793846 49.1765367,24.0141538 48.9944725,23.976 C48.8136468,23.9390769 48.5424083,23.9206154 48.185711,23.9206154 C47.7373624,23.9206154 47.4017202,23.9366154 47.1800229,23.9698462 C46.9570872,24.0043077 46.8047477,24.0584615 46.7279587,24.136 C46.6524083,24.2098462 46.6152523,24.3329231 46.6152523,24.5027692 C46.6152523,24.6578462 46.6350688,24.7673846 46.6697477,24.8326154 C46.7081422,24.8966154 46.7799771,24.9470769 46.8877294,24.9803077 C47.0437844,25.0307692 47.3472248,25.0566154 47.7918578,25.0603077 C47.9429587,25.0627692 48.3194725,25.064 48.9176835,25.064 C49.1653899,25.0664615 49.3548853,25.0898462 49.4861697,25.1366154 C49.6186927,25.1821538 49.726445,25.2596923 49.8106651,25.3704615 C49.9159404,25.5107692 49.9679587,25.7126154 49.9679587,25.9747692 C49.9679587,26.2233846 49.9270872,26.4203077 49.8403899,26.5655385 C49.7375917,26.7329231 49.5468578,26.8436923 49.2669495,26.9027692 C48.9882798,26.9593846 48.4879128,26.9889231 47.7658486,26.9889231 C47.3806651,26.9889231 47.1007569,26.9778462 46.9186927,26.9556923 C46.737867,26.9323077 46.5954358,26.8916923 46.488922,26.8313846 C46.3601147,26.76 46.2709404,26.6676923 46.2238761,26.5569231 C46.1755734,26.4461538 46.1483257,26.28 46.1483257,26.0584615 C46.1433716,26.0387692 46.1446101,25.9883077 46.1470872,25.896 L46.1470872,25.896 Z M51.793555,23.5366154 L55.7147477,23.5366154 L55.7147477,23.9390769 L53.9869954,23.9390769 L53.9869954,26.968 L53.5275,26.968 L53.5275,23.9390769 L51.793555,23.9390769 L51.793555,23.5366154 Z M60.8373165,26.9704615 L60.4286009,26.2443077 L57.6369495,26.2443077 L57.2257569,26.9704615 L56.7043349,26.9704615 L58.6612156,23.5366154 L59.3969037,23.5366154 L61.3488303,26.9704615 L60.8373165,26.9704615 Z M60.2093807,25.8418462 L59.1368119,23.9390769 L58.9497936,23.9390769 L57.8598853,25.8418462 L60.2093807,25.8418462 Z M59.7251147,22.5532308 L59.9963532,22.5532308 L59.9988303,22.6369231 C60.0000688,22.6812308 60.0000688,22.7169231 60.0000688,22.7464615 C60.0000688,22.8806154 59.9591972,22.9852308 59.8762156,23.0615385 C59.7919954,23.1353846 59.6780505,23.1735385 59.5294266,23.1735385 C59.448922,23.1735385 59.3758486,23.1649231 59.3102064,23.1489231 C59.2445642,23.1316923 59.1269037,23.0898462 58.9584633,23.0246154 C58.7256193,22.9347692 58.5720413,22.8916923 58.501445,22.8916923 C58.4419954,22.8916923 58.3974083,22.9052308 58.3713991,22.9347692 C58.3453899,22.9618462 58.3268119,23.0147692 58.3181422,23.0861538 L58.0518578,23.0861538 C58.0518578,22.9163077 58.0716743,22.7907692 58.1137844,22.712 C58.1843807,22.5889231 58.2958486,22.5261538 58.4519037,22.5261538 C58.6042431,22.5261538 58.8086009,22.5766154 59.0662156,22.6775385 C59.292867,22.7649231 59.446445,22.8092308 59.5281881,22.8092308 C59.6000229,22.8092308 59.6508028,22.7907692 59.6805275,22.7526154 C59.7090138,22.7169231 59.7238761,22.6504615 59.7251147,22.5532308 L59.7251147,22.5532308 Z M65.3777752,23.528 C65.9673165,23.528 66.3834633,23.5464615 66.6249771,23.5846154 C66.8689679,23.6227692 67.0423624,23.6953846 67.1550688,23.8049231 C67.2269037,23.8738462 67.2801606,23.9550769 67.3123624,24.0498462 C67.3482798,24.1446154 67.3767661,24.2763077 67.3965826,24.4486154 C67.4225917,24.664 67.4362156,24.9384615 67.4362156,25.2683077 C67.4362156,25.6892308 67.4163991,26.0104615 67.3767661,26.2258462 C67.3358945,26.4436923 67.2690138,26.6024615 67.1699312,26.7033846 C67.0683716,26.8104615 66.9011697,26.8843077 66.6695642,26.9236923 C66.4379587,26.9630769 66.0577294,26.9827692 65.5301147,26.9827692 C65.2712615,26.9827692 64.983922,26.9778462 64.6656193,26.9704615 C64.3510321,26.9606154 64.1429587,26.9532308 64.0438761,26.9446154 C63.8729587,26.9286154 63.7354817,26.9003077 63.6363991,26.8609231 C63.5373165,26.8227692 63.4493807,26.7624615 63.3701147,26.68 C63.2673165,26.5741538 63.2004358,26.4227692 63.1632798,26.2270769 C63.1298394,26.0326154 63.1125,25.704 63.1125,25.2424615 C63.1125,24.6984615 63.149656,24.3070769 63.2252064,24.0793846 C63.3168578,23.8073846 63.5249312,23.6473846 63.8494266,23.5993846 C64.1503899,23.5513846 64.6606651,23.528 65.3777752,23.528 L65.3777752,23.528 Z M65.1139679,23.9390769 C64.6297018,23.9390769 64.2779587,23.9575385 64.0488303,23.9956923 C63.9200229,24.0178462 63.824656,24.0535385 63.766445,24.1089231 C63.7082339,24.1606154 63.6661239,24.2467692 63.6425917,24.3661538 C63.6054358,24.5569231 63.5856193,24.8375385 63.5856193,25.2067692 C63.5856193,25.5870769 63.5967661,25.8627692 63.6178211,26.0375385 C63.6376376,26.2110769 63.6772706,26.3267692 63.7317661,26.3846154 C63.7763532,26.4338462 63.8382798,26.4683077 63.9212615,26.4892308 C64.0030046,26.5126154 64.134289,26.5273846 64.3138761,26.5396923 C64.6086468,26.5593846 64.9504817,26.5692308 65.3418578,26.5692308 C65.8991972,26.5692308 66.3029587,26.5470769 66.5556193,26.5027692 C66.7562615,26.4683077 66.873922,26.3513846 66.9098394,26.152 C66.9469954,25.9390769 66.9668119,25.6449231 66.9668119,25.2756923 C66.9668119,24.8252308 66.950711,24.5064615 66.9160321,24.3218462 C66.8825917,24.136 66.7513073,24.0252308 66.5234174,23.9895385 C66.3908945,23.9686154 66.2422706,23.9550769 66.0738303,23.9489231 C65.907867,23.9452308 65.5883257,23.9403077 65.1139679,23.9390769 L65.1139679,23.9390769 Z M74.0747477,26.9704615 L74.0747477,23.5366154 L76.456445,23.5366154 C76.9840596,23.5366154 77.3556193,23.5575385 77.5674083,23.6018462 C77.8250229,23.6535385 78.0219495,23.7901538 78.1569495,24.0116923 C78.2263073,24.1249231 78.2746101,24.2750769 78.3030963,24.4633846 C78.3315826,24.6516923 78.3452064,24.9138462 78.3452064,25.2510769 C78.3452064,25.672 78.3080505,26.0055385 78.2325,26.2504615 C78.1148394,26.6295385 77.8634174,26.8523077 77.4794725,26.9175385 C77.2813073,26.9507692 76.9518578,26.968 76.4923624,26.968 L74.0747477,26.968 L74.0747477,26.9704615 Z M74.5342431,26.5667692 L76.4713073,26.5667692 C76.8044725,26.5667692 77.0088303,26.5655385 77.0893349,26.5618462 C77.1698394,26.5569231 77.2565367,26.5421538 77.3556193,26.5187692 C77.5401606,26.4744615 77.6751606,26.3538462 77.7556651,26.1544615 C77.8361697,25.9550769 77.8782798,25.6473846 77.8782798,25.2313846 C77.8782798,24.6910769 77.808922,24.3366154 77.6677294,24.168 C77.615711,24.1003077 77.5475917,24.0523077 77.462133,24.0203077 C77.3754358,23.9870769 77.2602523,23.9636923 77.1103899,23.9513846 C77.0236927,23.9452308 76.8019954,23.9403077 76.4502523,23.9403077 L74.5342431,23.9403077 L74.5342431,26.5667692 Z M80.4853899,26.9704615 L80.4853899,23.5366154 L83.8678211,23.5366154 L83.8678211,23.9390769 L80.9448853,23.9390769 L80.9448853,24.9864615 L83.7439679,24.9864615 L83.7439679,25.3889231 L80.9448853,25.3889231 L80.9448853,26.5655385 L83.8702982,26.5655385 L83.8702982,26.968 L80.4853899,26.968 L80.4853899,26.9704615 Z M90.3911697,23.5366154 L91.1578211,23.5366154 L94.181078,26.5470769 L94.2875917,26.5470769 L94.2875917,23.5366154 L94.7470872,23.5366154 L94.7470872,26.9704615 L93.9705275,26.9704615 L90.9534633,23.9686154 L90.8519037,23.9686154 L90.8519037,26.9704615 L90.3911697,26.9704615 L90.3911697,23.5366154 Z M96.9553899,26.9704615 L96.9553899,23.5366154 L100.33906,23.5366154 L100.33906,23.9390769 L97.4161239,23.9390769 L97.4161239,24.9864615 L100.215206,24.9864615 L100.215206,25.3889231 L97.4161239,25.3889231 L97.4161239,26.5655385 L100.340298,26.5655385 L100.340298,26.968 L96.9553899,26.968 L96.9553899,26.9704615 Z M104.251583,25.2301538 L106.514381,25.2301538 C106.510665,25.7618462 106.493326,26.1064615 106.461124,26.2652308 C106.425206,26.4412308 106.370711,26.5741538 106.296399,26.664 C106.218372,26.7513846 106.103188,26.8227692 105.947133,26.8756923 C105.734106,26.9446154 105.258509,26.9778462 104.512913,26.9778462 C103.813142,26.9778462 103.318968,26.9556923 103.027913,26.9113846 C102.775252,26.8707692 102.593188,26.7624615 102.480482,26.584 C102.352913,26.3846154 102.289748,25.9427692 102.289748,25.2572308 C102.289748,24.7809231 102.324427,24.4092308 102.392546,24.1421538 C102.458188,23.8886154 102.614243,23.7236923 102.863188,23.6436923 C103.109656,23.5636923 103.595161,23.5243077 104.317225,23.5243077 C104.553784,23.5243077 104.820069,23.5304615 105.118555,23.5427692 C105.414564,23.5550769 105.616445,23.5698462 105.724197,23.5846154 C105.944656,23.6141538 106.124243,23.7003077 106.260482,23.8381538 C106.343463,23.9243077 106.402913,24.0227692 106.437592,24.136 C106.469794,24.2492308 106.48961,24.4067692 106.493326,24.6123077 L106.018968,24.6123077 C106.014014,24.3452308 105.976858,24.1778462 105.9075,24.1089231 C105.860436,24.0646154 105.797271,24.0326154 105.715528,24.0116923 C105.633784,23.9932308 105.501261,23.9747692 105.321674,23.9612308 C105.073968,23.9452308 104.765573,23.9366154 104.398968,23.9366154 C103.91594,23.9366154 103.567913,23.9489231 103.354885,23.9747692 C103.143096,23.9993846 103.003142,24.0461538 102.932546,24.1113846 C102.869381,24.1716923 102.826032,24.2812308 102.798784,24.4375385 C102.776491,24.5950769 102.764106,24.8449231 102.764106,25.1907692 C102.764106,25.7052308 102.786399,26.0436923 102.827271,26.2049231 C102.854518,26.2984615 102.897867,26.3698462 102.953601,26.4190769 C103.010573,26.4646154 103.097271,26.4966154 103.211216,26.5150769 C103.436628,26.5507692 103.932041,26.5667692 104.694977,26.5667692 C105.117317,26.5667692 105.42695,26.5507692 105.627592,26.5175385 C105.807179,26.4867692 105.924839,26.4203077 105.974381,26.3206154 C106.022683,26.2196923 106.049931,25.9907692 106.056124,25.6350769 L104.255298,25.6350769 L104.255298,25.2301538 L104.251583,25.2301538 Z M110.828188,23.528 C111.418968,23.528 111.833876,23.5464615 112.077867,23.5846154 C112.319381,23.6227692 112.494014,23.6953846 112.605482,23.8049231 C112.677317,23.8738462 112.730573,23.9550769 112.764014,24.0498462 C112.799931,24.1446154 112.827179,24.2763077 112.849472,24.4486154 C112.873005,24.664 112.88539,24.9384615 112.88539,25.2683077 C112.88539,25.6892308 112.866812,26.0104615 112.827179,26.2258462 C112.787546,26.4436923 112.719427,26.6024615 112.620344,26.7033846 C112.520023,26.8104615 112.352821,26.8843077 112.121216,26.9236923 C111.888372,26.9630769 111.509381,26.9827692 110.981766,26.9827692 C110.722913,26.9827692 110.435573,26.9778462 110.117271,26.9704615 C109.801445,26.9606154 109.59461,26.9532308 109.495528,26.9446154 C109.32461,26.9286154 109.187133,26.9003077 109.08805,26.8609231 C108.988968,26.8227692 108.899794,26.7624615 108.823005,26.68 C108.718968,26.5741538 108.650849,26.4227692 108.61617,26.2270769 C108.580252,26.0326154 108.562913,25.704 108.562913,25.2424615 C108.562913,24.6984615 108.600069,24.3070769 108.676858,24.0793846 C108.767271,23.8073846 108.976583,23.6473846 109.299839,23.5993846 C109.60328,23.5513846 110.111078,23.528 110.828188,23.528 L110.828188,23.528 Z M110.564381,23.9390769 C110.080115,23.9390769 109.728372,23.9575385 109.50172,23.9956923 C109.370436,24.0178462 109.275069,24.0535385 109.215619,24.1089231 C109.159885,24.1606154 109.116537,24.2467692 109.093005,24.3661538 C109.055849,24.5569231 109.038509,24.8375385 109.038509,25.2067692 C109.038509,25.5870769 109.047179,25.8627692 109.069472,26.0375385 C109.090528,26.2110769 109.127683,26.3267692 109.183417,26.3846154 C109.226766,26.4338462 109.289931,26.4683077 109.371674,26.4892308 C109.454656,26.5126154 109.58594,26.5273846 109.764289,26.5396923 C110.060298,26.5593846 110.402133,26.5692308 110.794748,26.5692308 C111.350849,26.5692308 111.753372,26.5470769 112.007271,26.5027692 C112.204197,26.4683077 112.324335,26.3513846 112.360252,26.152 C112.398647,25.9390769 112.418463,25.6449231 112.418463,25.2756923 C112.418463,24.8252308 112.401124,24.5064615 112.367683,24.3218462 C112.334243,24.136 112.202959,24.0252308 111.976307,23.9895385 C111.842546,23.9686154 111.692683,23.9550769 111.525482,23.9489231 C111.359518,23.9452308 111.039977,23.9403077 110.564381,23.9390769 L110.564381,23.9390769 Z M111.126674,22.3895385 L111.415252,22.8067692 L110.58172,23.3076923 L110.382317,23.0295385 L111.126674,22.3895385 Z M118.536812,25.7963077 L118.983922,25.7963077 C118.971537,26.1076923 118.954197,26.3218462 118.928188,26.44 C118.872454,26.6947692 118.701537,26.8523077 118.415436,26.9089231 C118.180115,26.9556923 117.768922,26.9778462 117.173188,26.9778462 C116.400344,26.9778462 115.878922,26.9507692 115.606445,26.8978462 C115.34883,26.8461538 115.175436,26.712 115.086261,26.4966154 C114.997087,26.2775385 114.953739,25.8836923 114.953739,25.3076923 C114.953739,24.76 114.987179,24.3624615 115.055298,24.1126154 C115.134564,23.8196923 115.343876,23.6473846 115.67828,23.5993846 C116.002775,23.5513846 116.475894,23.5255385 117.102592,23.5255385 C117.699564,23.5255385 118.126858,23.5550769 118.384472,23.6141538 C118.514518,23.6412308 118.623509,23.6978462 118.717638,23.7790769 C118.810528,23.864 118.869977,23.96 118.895986,24.0683077 C118.920757,24.1716923 118.935619,24.3710769 118.940573,24.6701538 L118.512041,24.6701538 C118.509564,24.6123077 118.509564,24.5716923 118.509564,24.5507692 C118.509564,24.3870769 118.492225,24.2701538 118.461261,24.2012308 C118.430298,24.1310769 118.365894,24.0769231 118.274243,24.0412308 C118.102087,23.9723077 117.706995,23.9390769 117.081537,23.9390769 C116.628234,23.9390769 116.288876,23.9513846 116.060986,23.9747692 C115.833096,23.9993846 115.685711,24.0375385 115.615115,24.0916923 C115.548234,24.1446154 115.50117,24.2553846 115.470206,24.4227692 C115.439243,24.5913846 115.424381,24.8227692 115.424381,25.1230769 C115.424381,25.2633846 115.430573,25.4455385 115.44172,25.6683077 C115.454106,25.8898462 115.466491,26.0436923 115.478876,26.1273846 C115.497454,26.2590769 115.540803,26.3563077 115.605206,26.4166154 C115.673326,26.4744615 115.776124,26.5126154 115.919794,26.5249231 C116.181124,26.552 116.555161,26.5655385 117.040665,26.5655385 C117.186812,26.5655385 117.381261,26.5618462 117.621537,26.5507692 C117.86305,26.5421538 118.016628,26.5323077 118.081032,26.5236923 C118.209839,26.5064615 118.305206,26.4818462 118.365894,26.4486154 C118.427821,26.4141538 118.47117,26.3624615 118.494702,26.2923077 C118.516995,26.2356923 118.530619,26.0683077 118.536812,25.7963077 L118.536812,25.7963077 Z M121.053509,26.9704615 L121.513005,26.9704615 L121.513005,23.5366154 L121.053509,23.5366154 L121.053509,26.9704615 Z M125.913509,23.528 C126.50305,23.528 126.919197,23.5464615 127.160711,23.5846154 C127.404702,23.6227692 127.578096,23.6953846 127.690803,23.8049231 C127.761399,23.8738462 127.813417,23.9550769 127.848096,24.0498462 C127.885252,24.1446154 127.9125,24.2763077 127.933555,24.4486154 C127.958326,24.664 127.97195,24.9384615 127.97195,25.2683077 C127.97195,25.6892308 127.952133,26.0104615 127.9125,26.2258462 C127.872867,26.4436923 127.804748,26.6024615 127.705665,26.7033846 C127.604106,26.8104615 127.436904,26.8843077 127.206537,26.9236923 C126.973693,26.9630769 126.593463,26.9827692 126.067087,26.9827692 C125.808234,26.9827692 125.520894,26.9778462 125.202592,26.9704615 C124.885528,26.9606154 124.678693,26.9532308 124.57961,26.9446154 C124.408693,26.9286154 124.271216,26.9003077 124.172133,26.8609231 C124.07305,26.8227692 123.985115,26.7624615 123.905849,26.68 C123.80305,26.5741538 123.73617,26.4227692 123.699014,26.2270769 C123.666812,26.0326154 123.646995,25.704 123.646995,25.2424615 C123.646995,24.6984615 123.68539,24.3070769 123.76094,24.0793846 C123.852592,23.8073846 124.060665,23.6473846 124.385161,23.5993846 C124.687362,23.5513846 125.195161,23.528 125.913509,23.528 L125.913509,23.528 Z M125.647225,23.9390769 C125.164197,23.9390769 124.812454,23.9575385 124.583326,23.9956923 C124.45328,24.0178462 124.359151,24.0535385 124.299702,24.1089231 C124.242729,24.1606154 124.200619,24.2467692 124.177087,24.3661538 C124.138693,24.5569231 124.118876,24.8375385 124.118876,25.2067692 C124.118876,25.5870769 124.130023,25.8627692 124.152317,26.0375385 C124.172133,26.2110769 124.211766,26.3267692 124.265023,26.3846154 C124.310849,26.4338462 124.372775,26.4683077 124.455757,26.4892308 C124.5375,26.5126154 124.668784,26.5273846 124.847133,26.5396923 C125.141904,26.5593846 125.484977,26.5692308 125.876353,26.5692308 C126.433693,26.5692308 126.837454,26.5470769 127.090115,26.5027692 C127.290757,26.4683077 127.408417,26.3513846 127.444335,26.152 C127.482729,25.9390769 127.501307,25.6449231 127.501307,25.2756923 C127.501307,24.8252308 127.483968,24.5064615 127.451766,24.3218462 C127.415849,24.136 127.285803,24.0252308 127.057913,23.9895385 C126.92539,23.9686154 126.775528,23.9550769 126.609564,23.9489231 C126.444839,23.9452308 126.121583,23.9403077 125.647225,23.9390769 L125.647225,23.9390769 Z M130.010573,25.896 L130.457683,25.896 C130.457683,25.9341538 130.457683,25.96 130.460161,25.9723077 C130.463876,26.1655385 130.476261,26.2947692 130.503509,26.36 C130.527041,26.4264615 130.580298,26.4744615 130.66328,26.5113846 C130.792087,26.5667692 131.209472,26.5938462 131.92039,26.5938462 C132.434381,26.5938462 132.803463,26.5692308 133.027638,26.5187692 C133.248096,26.4707692 133.358326,26.3009231 133.358326,26.008 C133.358326,25.8603077 133.339748,25.7495385 133.305069,25.6744615 C133.269151,25.5993846 133.209702,25.5464615 133.124243,25.5169231 C133.037546,25.4886154 132.917408,25.4689231 132.76383,25.4652308 C132.607775,25.4603077 132.10617,25.4590769 131.252821,25.4590769 C130.96672,25.4590769 130.736353,25.4307692 130.565436,25.3790769 C130.394518,25.3261538 130.260757,25.2424615 130.169106,25.128 C130.060115,24.9889231 130.004381,24.7809231 130.004381,24.5003077 C130.004381,24.1901538 130.092317,23.9661538 130.265711,23.8283077 C130.35117,23.7593846 130.44406,23.7064615 130.546858,23.6707692 C130.650894,23.6350769 130.793326,23.608 130.979106,23.5846154 C131.283784,23.5464615 131.645436,23.5304615 132.066537,23.5304615 C132.457913,23.5304615 132.757638,23.5489231 132.970665,23.5895385 C133.183693,23.6289231 133.347179,23.6953846 133.464839,23.7926154 C133.562683,23.8713846 133.629564,23.9612308 133.665482,24.0683077 C133.702638,24.1741538 133.722454,24.3366154 133.724931,24.5569231 L133.265436,24.5569231 L133.265436,24.5052308 C133.265436,24.3366154 133.245619,24.2258462 133.209702,24.168 C133.155206,24.0793846 133.040023,24.0141538 132.857959,23.976 C132.677133,23.9390769 132.407133,23.9206154 132.049197,23.9206154 C131.600849,23.9206154 131.266445,23.9366154 131.044748,23.9698462 C130.820573,24.0043077 130.668234,24.0584615 130.591445,24.136 C130.517133,24.2098462 130.479977,24.3329231 130.479977,24.5027692 C130.479977,24.6578462 130.498555,24.7673846 130.534472,24.8326154 C130.571628,24.8966154 130.644702,24.9470769 130.751216,24.9803077 C130.907271,25.0307692 131.21195,25.0566154 131.655344,25.0603077 C131.807683,25.0627692 132.184197,25.064 132.779931,25.064 C133.030115,25.0664615 133.218372,25.0898462 133.349656,25.1366154 C133.483417,25.1821538 133.589931,25.2596923 133.67539,25.3704615 C133.778188,25.5107692 133.830206,25.7126154 133.830206,25.9747692 C133.830206,26.2233846 133.789335,26.4203077 133.702638,26.5655385 C133.598601,26.7329231 133.40539,26.8436923 133.127959,26.9027692 C132.849289,26.9593846 132.348922,26.9889231 131.626858,26.9889231 C131.242913,26.9889231 130.963005,26.9778462 130.78094,26.9556923 C130.600115,26.9323077 130.456445,26.8916923 130.35117,26.8313846 C130.221124,26.76 130.134427,26.6676923 130.084885,26.5569231 C130.036583,26.4461538 130.010573,26.28 130.010573,26.0584615 C130.009335,26.0387692 130.009335,25.9883077 130.010573,25.896 L130.010573,25.896 Z" id="Fill-137" fill="#020203"></path>
                </g>
                <polygon id="Fill-140" fill="#020203" points="116.013023 20 116.013023 16.7318841 122 10 118.1619 10 114.625128 14.2657005 110.92237 10 107 10 112.920582 16.4710145 112.920582 20"></polygon>
                <polygon id="Fill-141" fill="#020203" points="93 20 96.0790782 20 96.0790782 16.1413043 103.041499 16.1413043 103.041499 20 106 20 106 10 103.041499 10 103.041499 14.0024155 96.0790782 14.0024155 96.0790782 10 93 10"></polygon>
                <polygon id="Fill-142" fill="#020203" points="78 20 81.1160287 20 81.1160287 16.3128019 82.4557416 16.3128019 86.937799 20 91 20 85.4174641 15.0929952 91 10 87.4174641 10 82.6626794 14.0024155 81.1160287 14.0024155 81.1160287 10 78 10"></polygon>
                <polygon id="Fill-143" fill="#020203" points="63 20 65.8388959 20 65.8388959 12.4806763 71.8298755 20 77 20 77 10 74.2027783 10 74.2027783 18.071256 67.8139996 10 63 10"></polygon>
                <path d="M52.3045915,16.1961116 L54.694749,11.667673 L56.9105597,16.1961116 L52.3045915,16.1961116 Z M47,20 L50.1419504,20 L51.0952931,18.1886246 L58.0110461,18.1886246 L58.9099827,20 L62,20 L56.751051,10 L52.8412332,10 L47,20 Z" id="Fill-144" fill="#020203"></path>
                <path d="M123.305828,16.1961116 L125.695985,11.667673 L127.91056,16.1961116 L123.305828,16.1961116 Z M118,20 L121.143187,20 L122.09653,18.1886246 L129.011046,18.1886246 L129.911219,20 L133,20 L127.751051,10 L123.84247,10 L118,20 Z" id="Fill-145" fill="#020203"></path>
                <path d="M34,16.7709686 L34,17.2603405 C34,20.1656896 37.5862623,19.9982103 39.6782486,19.9982103 L40.4506929,19.9982103 C42.94999,19.9982103 46,20.0742293 46,17.1451243 C46,15.3895618 45.213095,13.8929388 42.7125929,13.8537415 L38.9045993,13.7777226 C37.5055232,13.7515911 36.9680659,13.8537415 36.9680659,12.7966031 C36.9680659,12.4343253 37.2042579,11.9306998 39.4950793,11.9306998 C40.0831492,11.9306998 42.8957622,11.6860138 42.8957622,12.9118193 L45.7613979,12.9118193 L45.7613979,12.4604568 C45.7613979,9.60855856 42.2269532,10.0207238 40.1349669,10.0207238 L39.5565375,10.0207238 C37.3717614,10.0207238 34.0747138,9.72377478 34.0747138,12.7443401 C34.0747138,14.6151188 34.3615184,15.8813093 37.1247238,15.8813093 L42.0690902,15.8813093 C43.677847,15.8813093 43.2090781,17.2247066 42.9849367,17.3660544 C42.2245431,17.8696799 38.5997188,17.7663416 37.7248443,17.5335336 C36.9656558,17.3280449 36.9379393,17.1712558 36.9379393,16.7733441 L34,16.7733441 L34,16.7709686 Z" id="Fill-146" fill="#020203"></path>
                <polygon id="Fill-148" fill="#006C33" points="34 21.839 133 21.839 133 21.161 34 21.161"></polygon>
                <path d="M131.496189,8.76872964 L131.150998,8.76872964 L131.150998,9.41042345 L131.496189,9.41042345 C131.695463,9.41042345 131.832668,9.38653637 131.905626,9.33659066 C131.979673,9.28664495 132.017786,9.2019544 132.017786,9.07709012 C132.017786,8.97068404 131.974229,8.89250814 131.890381,8.84256243 C131.807623,8.79478827 131.674773,8.76872964 131.496189,8.76872964 L131.496189,8.76872964 Z M131.539746,8.6102063 C131.788022,8.6102063 131.968784,8.64820847 132.084211,8.72638436 C132.198548,8.80347448 132.256261,8.92399566 132.256261,9.08794788 C132.256261,9.21064061 132.219238,9.31270358 132.141924,9.39413681 C132.06461,9.47557003 131.965517,9.52551574 131.835935,9.53963084 L132.229038,10.3463626 L131.960073,10.3463626 L131.585481,9.5732899 L131.147731,9.5732899 L131.147731,10.3463626 L130.910345,10.3463626 L130.910345,8.6102063 L131.539746,8.6102063 Z M132.851906,9.50162866 C132.851906,9.32030402 132.818149,9.14766558 132.751724,8.98371336 C132.684211,8.82084691 132.587296,8.6742671 132.463158,8.54940282 C132.332486,8.41910966 132.184392,8.32138979 132.019964,8.25298588 C131.855535,8.18458198 131.681307,8.15092291 131.498367,8.15092291 C131.316515,8.15092291 131.141198,8.18458198 130.980036,8.25081433 C130.817786,8.31704669 130.675136,8.41368078 130.549909,8.53963084 C130.420327,8.67318132 130.320145,8.82084691 130.251543,8.98479913 C130.18294,9.14983713 130.148094,9.32138979 130.148094,9.49945711 C130.148094,9.67643865 130.18294,9.84690554 130.249365,10.009772 C130.317967,10.1715527 130.41706,10.3181325 130.546642,10.4462541 C130.676225,10.5732899 130.821053,10.6731813 130.985481,10.7415852 C131.14882,10.8121607 131.32196,10.8458198 131.499456,10.8458198 C131.67804,10.8458198 131.850091,10.8099891 132.017786,10.7415852 C132.184392,10.6710098 132.332486,10.5722041 132.464247,10.441911 C132.591652,10.3170467 132.688566,10.1737242 132.754991,10.0130293 C132.818149,9.85559175 132.851906,9.68403909 132.851906,9.50162866 L132.851906,9.50162866 Z M131.496189,8 C131.699819,8 131.89147,8.0369164 132.076588,8.11292074 C132.259528,8.18783931 132.422868,8.29750271 132.565517,8.44191097 C132.707078,8.58089034 132.814882,8.74049946 132.88784,8.92399566 C132.962976,9.10749186 133,9.29750271 133,9.50162866 C133,9.70684039 132.962976,9.8990228 132.890018,10.0760043 C132.818149,10.2529859 132.708167,10.412595 132.566606,10.5515744 C132.421779,10.6948969 132.254083,10.8089034 132.070054,10.8838219 C131.887114,10.9619978 131.696552,11 131.499456,11 C131.299093,11 131.110708,10.9630836 130.929946,10.8859935 C130.748094,10.8099891 130.586933,10.69924 130.442105,10.5548317 C130.297278,10.412595 130.188385,10.2519001 130.11216,10.0705755 C130.035935,9.88925081 130,9.70141151 130,9.49945711 C130,9.30184582 130.038113,9.11074919 130.114338,8.92616721 C130.190563,8.74267101 130.300544,8.57871878 130.445372,8.43213898 C130.585844,8.29207383 130.743739,8.18458198 130.923412,8.11074919 C131.099819,8.0369164 131.292559,8 131.496189,8 L131.496189,8 Z" id="Fill-149" fill="#020203"></path>
            </g>
        </g>
    </g>
</svg>