<?xml version="1.0" encoding="UTF-8"?>
<svg width="90px" height="43px" viewBox="0 0 90 43" version="1.1" xmlns="http://www.w3.org/2000/svg" xmlns:xlink="http://www.w3.org/1999/xlink">
    <!-- Generator: sketchtool 60.1 (101010) - https://sketch.com -->
    <title>69F05710-A407-4AFA-93FF-CCE0F2EA54B4</title>
    <desc>Created with sketchtool.</desc>
    <g id="Page-1" stroke="none" stroke-width="1" fill="none" fill-rule="evenodd">
        <g id="LP-DE-PATROCÃNIO" transform="translate(-1498.000000, -3942.000000)" fill="#2E78A8">
            <g id="Group-66" transform="translate(1498.000000, 3942.000000)">
                <path d="M0,25.110778 C0.00748051036,25.0917146 0.0199480276,25.073922 0.0211947794,25.0535877 C0.0623375863,24.626566 0.0511168208,24.6570676 0.481246166,24.6557967 L3.95469648,24.6557967 C4.28259218,24.6557967 4.28508568,24.6570676 4.23396886,24.9963973 C4.14794299,25.5797393 4.32872199,26.0639513 4.75511109,26.4477624 C5.02814971,26.6943166 5.36601943,26.7591324 5.71136966,26.7909048 C6.39832986,26.8531788 7.06908229,26.7985302 7.69869191,26.4719095 C7.99915908,26.3143182 8.24352242,26.0880984 8.43552218,25.8034173 C8.73598935,25.359874 8.69983355,24.8032208 8.35947033,24.3825537 C8.11386024,24.0838927 7.81339307,23.8754655 7.45183507,23.7534593 C6.88830329,23.559012 6.29858972,23.4764036 5.72508393,23.3277086 C4.77630586,23.0836962 3.84373557,22.7939316 2.98846389,22.2868434 C1.8439458,21.6094549 1.40010219,20.63976 1.51480335,19.21 C1.60456947,18.0865265 2.00727028,17.099039 2.75781482,16.2742264 C3.34254138,15.6286103 4.06815088,15.1926924 4.84363046,14.8419247 C6.17017429,14.2357065 7.56528948,13.9611926 9.01027473,14.0044031 C10.0051826,14.0349046 10.99261,14.1594526 11.9501153,14.4822606 C13.2716721,14.9296166 13.8563987,15.9158332 13.9848141,17.310008 C14.0234634,17.7421132 13.9810739,18.166593 13.9386843,18.5948856 C13.9174895,18.7855202 13.8439312,18.8719413 13.6432041,18.8693995 C12.3914654,18.863045 11.1397267,18.8643159 9.88674119,18.8681286 C9.70097518,18.8693995 9.65235187,18.8160218 9.66855964,18.6126781 C9.72965047,17.89335 9.39801451,17.3506767 8.58513239,17.2299414 C7.88071766,17.1244569 7.20123797,17.2159616 6.60030364,17.6645885 C6.30981049,17.8793702 6.10783671,18.1513423 6.00560307,18.5033809 C5.89838242,18.8833793 6.14025225,19.4171564 6.53547255,19.6726068 C6.88331628,19.8962848 7.27604308,19.9547461 7.66627637,20.031 C8.87687229,20.2610324 10.098689,20.4478544 11.2058045,21.0604271 C11.5860638,21.2713961 11.9526088,21.4988868 12.3054395,21.7581499 C12.9138544,22.2055059 13.2367631,22.8422257 13.2417501,23.5882426 C13.2529709,25.943216 12.3366083,27.7860177 10.2632602,28.8980532 C8.662431,29.7559091 6.93692661,30.0621955 5.14035737,29.9897543 C4.02326782,29.944002 2.93236006,29.7876816 1.90628339,29.2869479 C0.819115884,28.7582544 0.2530906,27.8495626 0.0398960552,26.6663568 C0.027428538,26.6053537 0.0124675173,26.5456215 0,26.4846185 L0,25.110778 Z" id="Fill-1546"></path>
                <path d="M63,0 C62.9093408,0.578843441 62.756983,1.14753173 62.634845,1.72073343 C62.4875238,2.40338505 62.3250928,3.08377997 62.1815491,3.76643159 C62.1462927,3.93342736 62.0782983,4 61.8768335,4 C52.6698901,3.9954866 43.4654651,3.99661495 34.2585217,3.9954866 C33.976471,3.9954866 33.9714343,3.98984485 34.0293555,3.7303244 C34.2912598,2.54781382 34.5556824,1.36417489 34.8175867,0.181664316 C34.8326965,0.122990127 34.8389923,0.0609308886 34.8503247,0 L63,0 Z" id="Fill-1548"></path>
                <path d="M40.237509,21.225549 C40.7011359,21.4227227 41.1609626,21.6087355 41.5802536,21.8803144 C41.8842713,22.077488 42.1743548,22.293263 42.4150355,22.5636017 C42.8887963,23.0980787 42.9736679,23.7454036 42.9039972,24.41505 C42.8115252,25.3190726 42.5075075,26.1548905 41.959009,26.8915015 C41.466247,27.5537074 40.8113423,28.0038586 40.0449644,28.3064396 C39.1151771,28.6747451 38.1461208,28.8781192 37.1529964,28.9413636 C35.3491583,29.0542114 33.5415199,28.9674054 31.7376818,28.9785661 C30.9041667,28.9822864 30.0706516,28.9599648 29.2358697,28.947564 C28.9837884,28.9450838 28.9736545,28.9351631 29.0243241,28.6933464 C29.6057579,25.9378755 30.1922586,23.1848847 30.7736924,20.4306539 C31.2043841,18.3981531 31.6312756,16.3644122 32.0607005,14.3331515 C32.1240375,14.0342908 32.1278378,14.0342908 32.4343889,14.0342908 C34.4928418,14.0342908 36.5512948,14.0342908 38.6097477,14.0342908 C39.0467731,14.0342908 39.481265,13.9623658 39.9195572,14.0268503 C41.0190877,14.1955019 42.1034174,14.3827549 43.0256043,15.0784431 C43.8109833,15.6699641 44.0440635,16.4636191 43.9933939,17.3850029 C43.9705925,17.8264735 43.9021886,18.2642238 43.7413125,18.6759323 C43.2460171,19.9532208 42.2630267,20.6836314 40.9747518,21.0630977 C40.7340711,21.1337826 40.4832566,21.1722253 40.237509,21.225549 M35.3694261,26.0184811 L35.3694261,26.0135207 C35.745648,26.0135207 36.1218698,26.0147608 36.4980917,26.0135207 C37.2454684,26.0073203 37.8307025,25.6910984 38.2309924,25.0698153 C38.5172757,24.6233844 38.5096752,24.1434711 38.2892624,23.6747187 C38.0713831,23.2121666 37.6723599,23.0211934 37.1783312,23.0162331 C36.3714177,23.0100326 35.5645041,23.0174731 34.7575906,23.0100326 C34.6055817,23.0100326 34.5384445,23.0658365 34.5080427,23.2096865 C34.3294323,24.0703061 34.1470217,24.9309257 33.955744,25.7890652 C33.9177418,25.9626772 33.9620777,26.0234414 34.140688,26.0209612 C34.5498452,26.0147608 34.9590023,26.0184811 35.3694261,26.0184811 M36.5588952,19.8862562 L36.5588952,19.8788157 C36.9211829,19.8788157 37.2834707,19.8912165 37.6457584,19.8750954 C38.6629508,19.8378929 39.3621914,19.1942883 39.4191947,18.2592635 C39.45213,17.7198261 39.1721804,17.299437 38.6566171,17.1171444 C38.4552054,17.0464595 38.2449265,17.010497 38.0321142,17.0092569 C37.3620086,17.0042734 36.6919029,17.010497 36.0217973,17.0042734 C35.8799224,17.0030564 35.8102517,17.0514198 35.7823834,17.1903094 C35.613907,18.0186868 35.4441638,18.8470642 35.2655534,19.6742015 C35.2275512,19.8490536 35.292155,19.8899765 35.4492307,19.8874963 C35.8191189,19.883776 36.1890071,19.8862562 36.5588952,19.8862562" id="Fill-1550"></path>
                <path d="M54.7945539,21.6470179 C55.1707107,21.7141567 55.4957999,21.7539427 55.807188,21.870814 C56.5271174,22.1368828 56.9007831,22.6565872 56.992954,23.4174941 C57.1187548,24.4544163 57.087616,25.4863652 56.9680429,26.5208007 C56.8808543,27.2817077 56.8272955,28.0475878 56.8845909,28.813468 C56.8958009,28.9701253 56.8385055,29.0012081 56.7064769,29 C55.5630597,28.9937482 54.418397,28.9974781 53.2762254,28.9825584 C53.0358337,28.9788285 52.792951,28.9465024 52.5513138,28.9601788 C52.3607443,28.9713686 52.3034489,28.8830934 52.3009578,28.7090298 C52.2922389,28.1147267 52.3744454,27.53037 52.484054,26.9509867 C52.6459758,26.0968314 52.650958,25.2389461 52.6173281,24.3785742 C52.5936626,23.7507017 52.1913492,23.3540852 51.571064,23.3404088 C50.9121668,23.3242457 50.2532695,23.3379221 49.5943722,23.3304623 C49.4449059,23.329219 49.3988205,23.4075476 49.3714183,23.5356087 C49.0089626,25.2451627 48.6427701,26.9547166 48.2790688,28.6655139 C48.2167912,28.9552055 48.2192823,28.9576922 47.9303141,28.9576922 L44.2571798,28.9576922 C43.975685,28.9576922 43.9719483,28.9502323 44.0292437,28.6692438 C44.7429453,25.2314862 45.4554013,21.7924854 46.1691029,18.3522412 C46.4530889,16.9808681 46.7408115,15.6057651 47.0210608,14.2319054 C47.0559363,14.059085 47.1344061,14.003136 47.3062923,14.003136 C49.4922369,14.0081092 51.6781815,13.9882162 53.8628806,14.0118392 C55.1183975,14.0255156 56.3490034,14.1995793 57.5310327,14.6869576 C58.6893965,15.163146 59.0904644,16.1105497 58.9833469,17.2606133 C58.9061226,18.0836858 58.6943787,18.8744322 58.2571898,19.58685 C57.741531,20.4260855 56.9468685,20.8910842 56.0787185,21.2591045 C55.6826328,21.4269517 55.2653727,21.5313899 54.7945539,21.6470179 M51.7815624,17.0691433 C51.4315621,17.0691433 51.1836972,17.0790898 50.9345867,17.0654133 C50.7651916,17.0567101 50.6991773,17.1201191 50.6655474,17.2829929 C50.4737323,18.2341266 50.2756894,19.180287 50.0714188,20.1276907 C50.0328067,20.3129442 50.0975754,20.3539734 50.2632339,20.3527572 C51.0230209,20.3452703 51.7815624,20.3788397 52.5376128,20.2719149 C53.3173286,20.1625034 53.9575426,19.8529187 54.240283,19.0435226 C54.5828099,18.0550896 54.1867242,17.355105 53.1666168,17.1524452 C52.6758691,17.0567101 52.1776481,17.0654133 51.7815624,17.0691433" id="Fill-1552"></path>
                <path d="M72.6149581,28.9960948 C71.905201,28.9960948 71.1941788,28.9911078 70.4818914,28.9998351 C70.3060335,29.0023287 70.2301237,28.9462242 70.2035552,28.76669 C70.0960163,28.0286049 69.9682347,27.2905197 69.8657564,26.5486943 C69.8366576,26.3504586 69.7556871,26.2906138 69.562117,26.2931073 C67.7795007,26.2993412 65.9956193,26.2980944 64.2117378,26.2931073 C64.0371451,26.2931073 63.943523,26.3579391 63.8574918,26.5038107 C63.4083586,27.2830391 62.9453085,28.0535402 62.49491,28.8290283 C62.4240608,28.9524581 62.34056,28.9985884 62.2001268,28.9985884 C60.8603179,28.9948481 59.5217743,28.9960948 58.1832306,28.9948481 C58.1237679,28.9948481 58.0453277,29.0197834 58.0124334,28.9599386 C57.9719482,28.888873 58.040267,28.8327686 58.0756916,28.7779109 C59.7026927,26.204587 61.2664356,23.5938601 62.8618076,21.000588 C64.2623444,18.7277346 65.6552901,16.4498941 67.0469707,14.1720536 C67.119085,14.0536109 67.203851,14 67.3442842,14 C68.9092923,14.0037403 70.4730352,14.0037403 72.0367781,14 C72.1987191,14 72.2645076,14.0623383 72.2923413,14.218184 C72.783225,16.8875088 73.2753738,19.5555868 73.7713182,22.2249117 C74.116708,24.0900728 74.4620978,25.9552339 74.8087528,27.820395 C74.8682155,28.1420605 74.9251479,28.463726 74.9896712,28.782898 C75.0225655,28.9412372 74.9808151,29.0010819 74.8074876,28.9998351 C74.0774879,28.9923545 73.3449578,28.9960948 72.6149581,28.9960948 M68.791632,17.1730181 C68.7460861,17.2403434 68.7321693,17.2540578 68.7207828,17.2715125 C67.7137122,19.1628557 66.7091718,21.0541989 65.6983057,22.9442953 C65.6110093,23.1076216 65.6881844,23.1076216 65.8134356,23.1076216 C66.8976813,23.1076216 67.981927,23.1051281 69.0674378,23.1101151 C69.2407653,23.1101151 69.3014932,23.0477769 69.2837809,22.8794635 C69.2483563,22.5278757 69.2217879,22.1775346 69.1914239,21.8247 C69.1142489,20.9120677 69.0358087,19.9994353 68.9573685,19.086803 C68.9029665,18.4659138 68.8485644,17.8437779 68.791632,17.1730181" id="Fill-1554"></path>
                <path d="M81.4866848,28.99626 L76.2305268,28.99626 C75.9762552,28.99626 75.9750444,28.9950133 76.0271095,28.7381981 C76.845622,24.6640625 77.6641345,20.5911735 78.4838579,16.5170379 C78.6364209,15.7590592 78.7901947,15.0010805 78.9354927,14.2406084 C78.9681848,14.0735539 79.0323581,14 79.2067158,14 C82.7301942,14.0049867 86.2548835,14.00374 89.7807835,14.00374 C90.0132605,14.00374 90.0265794,14.0224402 89.9757251,14.2655419 C89.8037891,15.118268 89.6209556,15.967254 89.4550737,16.8212267 C89.4163275,17.0206948 89.3364136,17.0805352 89.1426828,17.0805352 C87.0382823,17.0743019 84.9326709,17.0767952 82.8270596,17.0767952 C82.5291986,17.0767952 82.5304094,17.0780419 82.4662361,17.3859707 C82.3015649,18.1576629 82.1368937,18.925615 81.975855,19.6973072 C81.903206,20.0388963 81.9056276,20.0388963 82.2349699,20.0388963 L88.0214659,20.0388963 C88.3278027,20.0388963 88.3265919,20.0388963 88.266051,20.3567985 C88.1038015,21.2057846 87.9367087,22.0510306 87.7877782,22.8987699 C87.7514537,23.1057181 87.6654857,23.1605718 87.4741765,23.1605718 C85.5271823,23.1543384 83.5789772,23.1568318 81.6307721,23.1568318 C81.3159596,23.1568318 81.3159596,23.1568318 81.2493646,23.4697473 C81.0846935,24.2389461 80.9200223,25.0081449 80.7553512,25.7785904 C80.6984428,26.0428856 80.7020752,26.0503657 80.9745091,26.0503657 L87.2308022,26.0503657 C87.617053,26.0503657 87.6122097,26.0503657 87.5322957,26.4418218 C87.3748895,27.2122673 87.2162724,27.9852061 87.0709743,28.7581449 C87.0358606,28.9401596 86.96079,29 86.7827998,29 C85.0174282,28.9937666 83.2520565,28.99626 81.4866848,28.99626" id="Fill-1556"></path>
                <path d="M20.5068284,28.9950141 L15.2521221,28.9950141 C14.9749215,28.9950141 14.9725005,28.9912747 15.0293932,28.7095729 C15.9953586,23.8994516 16.9625344,19.0893302 17.9260788,14.2779624 C17.9672353,14.0747881 18.0447062,14 18.2492778,14 C21.7524154,14.0062323 25.255553,14.0049859 28.7586906,14.0049859 C29.0237863,14.0049859 29.0274178,14.0112182 28.9705251,14.2817018 C28.7962155,15.1193286 28.6170641,15.9544624 28.4536489,16.7933355 C28.4124925,17.0064816 28.3374425,17.0825162 28.1219766,17.0812697 C26.0048419,17.0750374 23.8877073,17.0812697 21.7693621,17.0725445 C21.5551067,17.0725445 21.460689,17.1273891 21.4195326,17.3579857 C21.2766956,18.1744225 21.1084385,18.9858734 20.9510757,19.7985707 C20.9062878,20.0366462 20.9087088,20.0391391 21.142332,20.0391391 L26.9260194,20.0391391 C26.9841226,20.0391391 27.0446468,20.044125 27.1027499,20.0391391 C27.2770595,20.0241815 27.3145844,20.1002161 27.2770595,20.2722287 C27.095487,21.1422636 26.9163356,22.0122985 26.7480784,22.8873193 C26.709343,23.0904936 26.6282406,23.1602958 26.423669,23.1602958 C24.4699496,23.152817 22.5162301,23.1565564 20.5625107,23.1565564 C20.2659423,23.1565564 20.2671528,23.1565564 20.2090496,23.4532159 C20.0601602,24.2123151 19.9076394,24.9714143 19.756329,25.7305135 C19.6933839,26.0496094 19.6933839,26.0496094 20.0153724,26.0496094 L26.3086731,26.0496094 C26.6052414,26.0508559 26.6088729,26.0558418 26.5459278,26.362473 C26.386144,27.1527339 26.2190974,27.9417484 26.070208,28.7369952 C26.0338935,28.9376766 25.9564226,29 25.7615348,29 C24.0111765,28.9925212 22.2571868,28.9950141 20.5068284,28.9950141" id="Fill-1558"></path>
                <path d="M40.0353311,42.998847 L26.2863667,42.998847 C25.9682317,42.998847 25.9682317,42.998847 26.0361341,42.7134549 C26.3090008,41.5618138 26.5806102,40.4079344 26.8547344,39.2562933 C26.9163495,39 26.9201218,39 27.2156227,39 L54.712294,39 C55.0342014,39 55.0316865,39 54.9625267,39.2865113 C54.687145,40.4504634 54.4067336,41.6121772 54.1426689,42.7794868 C54.0961433,42.9753442 53.9867451,43.0010854 53.8031573,43 C51.0870641,42.9977279 48.3722283,42.998847 45.6561351,42.998847 L40.0353311,42.998847 Z" id="Fill-1560"></path>
                <path d="M41.0595384,35.9966263 L27.4300244,35.9966263 L27.2864232,35.9966263 C26.9727681,35.9955066 26.9702487,35.9943869 27.0307124,35.7223053 C27.2889425,34.5723966 27.5471727,33.4247273 27.8066625,32.2736989 C27.8683858,32.0004976 27.8683858,32.0004976 28.1908586,32.0004976 C29.9115533,31.999378 31.6335076,32.0004976 33.3516829,32.0004976 L55.6325373,32.0004976 C56.0381476,32.0004976 56.0381476,32.0004976 55.958789,32.3509567 C55.7043378,33.4818308 55.4435884,34.6115853 55.1992145,35.7435792 C55.156386,35.9384031 55.0732485,36.001105 54.8515485,36 C50.2537919,35.9943869 45.6560353,35.9966263 41.0595384,35.9966263" id="Fill-1562"></path>
                <path d="M46.0511586,10.9966079 L32.3786543,10.9966079 C32.3107258,10.9966079 32.2427972,10.9909815 32.1748687,10.9966079 C32.0075632,11.0112368 31.9798886,10.9380925 32.011337,10.807558 C32.1232933,10.3394345 32.2302179,9.87018558 32.3409162,9.40318729 C32.5132534,8.6694936 32.6906224,7.9380505 32.8566699,7.2054821 C32.8906342,7.05919348 32.9547889,6.98379858 33.1258682,7.00292863 C33.1749277,7.00742982 33.2214713,7.00292863 33.2692728,7.00292863 L60.6746623,7.00292863 C61.0369478,7.00292863 61.0356899,7.00292863 60.9589558,7.32588889 C60.6897576,8.46581483 60.4167855,9.60461547 60.1576507,10.746792 C60.113623,10.943719 60.0217936,11.0011091 59.8054287,11 C55.2202527,10.9954827 50.6363346,10.9966079 46.0511586,10.9966079" id="Fill-1564"></path>
            </g>
        </g>
    </g>
</svg>