<?xml version="1.0" encoding="UTF-8"?>
<svg width="118px" height="31px" viewBox="0 0 118 31" version="1.1" xmlns="http://www.w3.org/2000/svg" xmlns:xlink="http://www.w3.org/1999/xlink">
    <!-- Generator: sketchtool 60.1 (101010) - https://sketch.com -->
    <title>A3DFD24D-5E34-4008-AC2C-2C5B1FD0412E</title>
    <desc>Created with sketchtool.</desc>
    <g id="Page-1" stroke="none" stroke-width="1" fill="none" fill-rule="evenodd">
        <g id="LP-DE-PATROCÃNIO" transform="translate(-1251.000000, -3645.000000)">
            <g id="Group-41" transform="translate(1251.000000, 3645.000000)">
                <path d="M111.158077,12.7841768 L115.794441,12.7841768 L115.612623,12.2979049 C115.136907,11.3178992 114.148114,10.637616 112.996184,10.6015498 L112.996184,10.6052808 L112.988712,10.6052808 L112.988712,10.6015498 L112.982485,10.6015498 C112.561564,10.6015498 112.195437,10.6674639 111.892821,10.7719315 L111.627566,10.8838611 C111.225324,11.0778724 110.958824,11.3427724 110.824328,11.5852865 C110.598923,11.9745528 110.099546,12.1138429 109.707267,11.8912274 C109.317479,11.6686119 109.178002,11.1723907 109.403406,10.7793935 C109.683606,10.2856596 110.184228,9.76705252 110.917728,9.41385248 L110.921464,9.41385248 L111.363556,9.23227781 C111.830555,9.0718454 112.369783,8.9735961 112.988712,8.9735961 L112.988712,8.97110877 L112.996184,8.97110877 L113.008637,8.9735961 C114.805649,9.01463695 116.351104,10.0742371 117.085848,11.5902612 C117.231552,11.8874964 117.343632,12.2046302 117.419597,12.5304697 C117.495562,12.8401416 117.534167,13.173443 117.541639,13.5229121 L117.545375,13.6012628 L117.545375,14.6969291 L117.556583,14.8212953 L117.552847,14.8212953 L117.545375,15.0339615 L117.545375,17.1917153 L117.638775,17.4777576 L117.635039,17.4777576 L117.673644,17.5262604 L117.715986,17.5648139 L117.722212,17.5710322 C118.063433,17.8732421 118.094566,18.3881182 117.791951,18.723907 C117.493071,19.0572085 116.977505,19.0945183 116.643756,18.7985267 L116.465674,18.6206831 L116.310008,18.4291591 L116.306272,18.4291591 L116.03479,17.9155266 C115.331178,18.5199464 114.435786,18.919162 113.494316,18.9825887 L113.107018,19 C112.739646,19 112.37601,18.9564718 112.032298,18.8743901 C111.336159,18.7077394 110.706022,18.3856309 110.194191,17.9428872 C109.671152,17.4877069 109.272647,16.9106477 109.067167,16.2502631 C108.966295,15.919449 108.90901,15.5687362 108.90901,15.1968813 C108.90901,14.8548742 108.968786,14.5439587 109.070903,14.2653784 L109.070903,14.2616474 L109.272647,13.8400459 L109.275137,13.8400459 L109.557827,13.4731656 C109.971277,13.0341529 110.535411,12.7841768 111.158077,12.7841768 L111.158077,12.7841768 Z M115.909011,14.4220798 L111.158077,14.4220798 L110.747118,14.5924615 L110.671152,14.6931981 L110.671152,14.6969291 L110.603905,14.8287573 L110.601414,14.8287573 L110.542883,15.1968813 L110.630057,15.7627475 C110.740891,16.1271405 110.966296,16.45298 111.262684,16.7091744 C111.575262,16.9765618 111.968787,17.178035 112.410879,17.2825026 L113.107018,17.365828 L113.14936,17.365828 L113.236533,17.358366 L113.239023,17.358366 L113.239023,17.362097 L113.803158,17.2825026 L113.932672,17.2439491 L113.932672,17.2476801 L114.054715,17.2066392 L114.060941,17.2029083 L114.161813,17.174304 C114.505524,17.0312829 114.82931,16.8198603 115.102037,16.5599349 C115.540394,16.1383335 115.843009,15.5973405 115.909011,15.0414235 L115.909011,14.4220798 Z M52.1954268,12.7841768 L57.0434974,12.7841768 L57.3946805,12.6113078 L57.4345311,12.5304697 L57.4581923,12.4160528 L57.468155,12.264326 L57.471891,12.264326 C57.471891,11.8638668 57.2215796,11.5094231 56.8703965,11.2345738 C56.4519655,10.9037597 55.9027749,10.6935808 55.4009068,10.626423 L55.0845929,10.6052808 L55.080857,10.6052808 L55.080857,10.6015498 C54.2564483,10.6015498 53.5055142,10.9398259 52.9613049,11.4808189 C52.6026498,11.8402373 52.3361492,12.2842246 52.1954268,12.7841768 L52.1954268,12.7841768 Z M50.4457379,13.6012628 L50.4457379,13.6012628 L50.4519645,13.5229121 C50.4731352,12.2730317 50.9849659,11.1475175 51.8093745,10.3279441 C52.644991,9.4922032 53.8043935,8.9735961 55.080857,8.97110877 L55.080857,8.96862145 L55.0845929,8.96862145 L55.6163489,9.00717497 C56.3909443,9.11039893 57.2302969,9.4362384 57.8828499,9.94862719 C58.5964242,10.5120061 59.1007829,11.2980006 59.1007829,12.264326 L59.0808576,12.6237444 L59.0771216,12.6349373 L59.0771216,12.6411556 L58.9787405,13.0416148 L58.8156023,13.4172008 C58.4644192,14.0390319 57.8305461,14.4220798 57.0434974,14.4220798 L52.0845925,14.4220798 L52.0845925,14.4320291 L52.1642936,15.0650531 L52.384717,15.6732039 C52.8566972,16.6532096 53.851716,17.3372238 55.0123638,17.365828 C55.4320401,17.365828 55.7944312,17.3036449 56.0970464,17.1954463 L56.397171,17.0735674 L56.397171,17.0698364 L56.6437464,16.9255716 L57.1730117,16.3858223 C57.3934352,15.992825 57.8940579,15.8572659 58.2826009,16.0786377 C58.6761253,16.3024969 58.8118663,16.7987181 58.5939335,17.189228 C58.3747554,17.5673013 58.0360256,17.9602985 57.5628001,18.2774323 L57.1244438,18.5336267 L57.1244438,18.5298957 L56.6263118,18.738831 C56.1630489,18.8992634 55.6163489,18.996269 55.0011558,18.996269 L54.9837212,18.996269 C53.1854644,18.9564718 51.6462362,17.8968717 50.9114914,16.3820913 C50.7657878,16.0786377 50.649972,15.7627475 50.5690256,15.4406391 C50.5017777,15.1309672 50.4569459,14.7976657 50.4519645,14.4481967 L50.4457379,14.366115 L50.4457379,13.6012628 Z M84.8454945,12.7841768 L89.689829,12.7841768 L90.0459934,12.6113078 L90.0833533,12.5304697 L90.1095053,12.4160528 L90.1119959,12.4160528 L90.1182226,12.264326 L90.1232039,12.264326 C90.1232039,11.8638668 89.8716472,11.5094231 89.5229547,11.2345738 C89.1032785,10.9037597 88.5528425,10.6935808 88.0522198,10.626423 L87.7359059,10.6052808 L87.7359059,10.6015498 C86.906516,10.6015498 86.1580725,10.9398259 85.6113725,11.4808189 C85.2527174,11.8402373 84.9887074,12.2842246 84.8454945,12.7841768 L84.8454945,12.7841768 Z M83.0982962,13.6012628 L83.0982962,13.6012628 L83.1020321,13.5229121 C83.1232028,12.2730317 83.6375241,11.1475175 84.4644234,10.3279441 C85.2987947,9.4922032 86.4544611,8.9735961 87.7359059,8.97110877 L87.7359059,8.96862145 L88.2676619,9.00717497 C89.0397666,9.11039893 89.8828552,9.4362384 90.5329175,9.94862719 C91.2502278,10.5120061 91.7508505,11.2980006 91.7508505,12.264326 L91.7545865,12.264326 L91.7271892,12.6237444 L91.7271892,12.6349373 L91.7271892,12.6411556 L91.6325441,13.0416148 L91.4656699,13.4172008 C91.1144868,14.0390319 90.4806137,14.4220798 89.689829,14.4220798 L84.7346601,14.4220798 L84.7346601,14.4320291 L84.8180972,15.0650531 L85.0335393,15.6732039 C85.5080101,16.6532096 86.503029,17.3372238 87.6611861,17.365828 C88.087089,17.365828 88.4457441,17.3036449 88.7483593,17.1954463 L89.0472386,17.0735674 L89.0472386,17.0698364 L89.2987953,16.9255716 L89.8230793,16.3858223 C90.0459934,15.992825 90.5441255,15.8572659 90.9364045,16.0786377 C91.3274382,16.3024969 91.4656699,16.7987181 91.2427558,17.189228 C91.0273136,17.5673013 90.6860932,17.9602985 90.2128677,18.2774323 L89.7770021,18.5336267 L89.7745114,18.5298957 L89.2776247,18.738831 C88.8131165,18.8992634 88.2701525,18.996269 87.6512234,18.996269 L87.6350341,18.996269 C85.8342866,18.9564718 84.2963038,17.8968717 83.561559,16.3820913 C83.4158554,16.0786377 83.3000397,15.7627475 83.2240745,15.4406391 C83.1506,15.1309672 83.1095041,14.7976657 83.1020321,14.4481967 L83.0982962,14.366115 L83.0982962,13.6012628 Z M100.671151,15.4020855 L100.671151,12.5727542 C100.671151,12.1660767 100.669906,11.8427246 100.581487,11.631302 C100.504277,11.443509 100.322458,11.2557161 99.955086,11.0343442 L99.9152354,11.0082273 L99.3386475,10.7520329 L99.2128692,10.7122357 L98.4096312,10.6015498 L98.4096312,10.6052808 L98.4058947,10.6052808 L98.4058947,10.6015498 C97.5777506,10.6015498 96.8255711,10.9398259 96.2838525,11.4808189 C95.7570778,12.0131063 95.4208386,12.735674 95.4058947,13.537836 L95.4058947,13.6012628 L95.4058947,14.366115 L95.4058947,14.369846 L95.4058947,14.4320291 C95.4233293,15.2341911 95.7570778,15.9580025 96.2838525,16.4865589 C96.8255711,17.0287956 97.5777506,17.365828 98.4058947,17.369559 L98.4058947,17.365828 L98.4096312,17.365828 L98.4096312,17.369559 C98.7956835,17.369559 99.1755093,17.2924519 99.5304284,17.1506744 L99.6973026,17.0735674 L100.393442,16.6158997 L100.581487,16.3485124 C100.669906,16.1346025 100.671151,15.812494 100.671151,15.4020855 L100.671151,15.4020855 Z M100.671151,6.817086 C100.671151,6.36563666 101.037278,6 101.489333,6 C101.941388,6 102.307515,6.36563666 102.307515,6.817086 L102.307515,12.5727542 L102.307515,15.4020855 C102.307515,15.9853631 102.301288,16.4554673 102.098299,16.9566632 L101.729682,17.5747632 L101.615111,17.7103224 L101.559071,17.7625562 C101.361064,17.9640295 101.113243,18.1543098 100.796929,18.3458337 L100.699793,18.3943366 L100.403405,18.551038 L100.399669,18.551038 L100.135659,18.6654549 C99.5951855,18.8806084 99.0073897,18.996269 98.4096312,18.996269 L98.4096312,19 L98.4058952,19 L98.4058952,18.996269 C97.1256957,18.996269 95.9700293,18.4789056 95.1306767,17.6431646 C94.3087588,16.824835 93.7944374,15.6980771 93.7745121,14.4481967 L93.7695308,14.369846 L93.7695308,14.366115 L93.7695308,13.6012628 L93.7745121,13.5229121 C93.7944374,12.2730317 94.3087588,11.1475175 95.1306767,10.3279441 C95.9700293,9.4922032 97.1256957,8.9735961 98.4058952,8.97110877 L98.4058952,8.96862145 L98.4096312,8.96862145 L98.4096312,8.97110877 C98.8305528,8.9735961 99.2527197,9.02956089 99.6474894,9.13900316 L99.8430062,9.20118626 L100.671151,9.56309194 L100.671151,6.817086 Z M80.6836009,11.0343442 C80.9127416,11.4186358 80.7869633,11.918588 80.4021562,12.1523964 C80.0185945,12.3812303 79.5241984,12.260595 79.2875857,11.8850091 L79.1904499,11.7419879 L79.0883329,11.6039415 L78.4457425,11.0119583 L78.4457425,11.0082273 L78.232791,10.8726681 L78.0098769,10.7607385 C77.6238245,10.5804075 77.1929403,10.4846456 76.7471121,10.4846456 L76.7433761,10.4846456 C76.3984196,10.4846456 76.0571991,10.545585 75.7371493,10.6612456 L75.5839736,10.7234287 L74.8392662,11.1686597 L74.4258165,11.7942218 L74.4295525,12.3028796 L74.6474853,12.628719 L75.2477345,12.7841768 L78.1630525,12.7841768 L78.243999,12.7866641 C78.6636753,12.7978571 79.036029,12.8774514 79.3710228,13.0154979 C79.8840989,13.2294078 80.2900765,13.5776332 80.5652945,14.0116713 C80.8355312,14.4357601 80.9824801,14.9431742 80.9824801,15.4854109 C80.9824801,15.9032814 80.895307,16.3373194 80.7147341,16.7651392 L80.7147341,16.7676265 L80.3498524,17.4180618 L79.8629283,17.9428872 C79.0024051,18.6940591 77.7844721,19 76.6699016,19 L76.6661656,19 L76.6661656,18.996269 C75.849229,18.996269 75.0559536,18.7873338 74.3660407,18.4042859 L74.0322922,18.2028126 C73.4781202,17.8359323 73.0011588,17.350904 72.636277,16.7726012 C72.4009096,16.3895532 72.511744,15.8883574 72.8903244,15.6495743 C73.2776221,15.4083038 73.7794902,15.5189898 74.0210842,15.9032814 C74.2589423,16.283842 74.5752562,16.6009758 74.9376473,16.8434899 L75.1568254,16.9740744 C75.6151069,17.2302688 76.1344096,17.369559 76.6661656,17.369559 L76.6661656,17.365828 L76.6699016,17.365828 C77.4420063,17.365828 78.2614336,17.174304 78.7894536,16.7153927 L79.0310477,16.45298 L79.2078846,16.1420645 L79.2078846,16.1383335 L79.3498522,15.4854109 L79.1842233,14.8872094 L78.7408857,14.5228164 L78.221583,14.4183488 L78.1630525,14.4220798 L75.2477345,14.4220798 C74.6151067,14.4220798 74.092068,14.2417488 73.6910717,13.9457572 C73.2738861,13.6385727 72.9986681,13.2256768 72.8629271,12.7680092 C72.7271861,12.3289965 72.7234501,11.8526739 72.8442472,11.3912752 C72.9924415,10.8278963 73.314982,10.2918779 73.824322,9.88893141 C74.1642972,9.62278772 74.5416322,9.39146656 74.9413832,9.22232852 L75.1804866,9.1278102 C75.6723921,8.95121018 76.2004121,8.85420453 76.7433761,8.85047355 L76.7471121,8.85047355 C77.429553,8.85047355 78.0908234,8.999713 78.6935632,9.27704965 L79.036029,9.45489333 L79.3685322,9.66009758 L79.3685322,9.66382857 L79.3685322,9.66009758 C79.7371499,9.91753564 80.0746344,10.2234765 80.359815,10.5804075 L80.5241986,10.7943174 L80.6723929,11.0156893 L80.6836009,11.0343442 Z M48.1730102,11.0343442 C48.4033963,11.4186358 48.277618,11.918588 47.8915656,12.1523964 C47.5042679,12.3812303 47.0136078,12.260595 46.7769951,11.8850091 L46.6798593,11.738257 L46.5789876,11.6039415 L45.9351518,11.0119583 L45.9351518,11.0082273 L45.7222004,10.8726681 L45.4955503,10.7607385 C45.1094979,10.5804075 44.6823496,10.4846456 44.2365214,10.4846456 L44.2327854,10.4846456 C43.887829,10.4846456 43.5503445,10.545585 43.2265586,10.6612456 L43.0708923,10.7271597 L42.3286755,11.1686597 L41.9139806,11.7942218 L41.9139806,12.3028796 L41.9189619,12.3028796 L42.13814,12.628719 L42.7358985,12.7841768 L45.6524619,12.7841768 L45.7371443,12.7866641 C46.1493486,12.7978571 46.5266837,12.8774514 46.8566962,13.0154979 C47.3710176,13.2294078 47.7832219,13.5776332 48.0571945,14.0116713 C48.3261859,14.4357601 48.4718895,14.9431742 48.4718895,15.4854109 C48.4718895,15.9032814 48.3847164,16.3373194 48.2066342,16.7651392 L48.2066342,16.7676265 L47.8392617,17.4180618 L47.3510923,17.9428872 C46.4905691,18.6940591 45.2726362,19 44.159311,19 L44.155575,19 L44.155575,18.996269 C43.337393,18.996269 42.5478537,18.7873338 41.8554501,18.4042859 L41.5254375,18.2028126 C40.9687749,17.8359323 40.4918135,17.350904 40.1256864,16.7726012 C39.8853377,16.3895532 39.999908,15.8883574 40.3822244,15.6495743 C40.7657861,15.4083038 41.2664089,15.5189898 41.5104936,15.9032814 C41.7483517,16.283842 42.0634202,16.6009758 42.4270566,16.8434899 L42.6449894,16.9740744 C43.1057616,17.2265378 43.623819,17.369559 44.155575,17.369559 L44.155575,17.365828 L44.159311,17.365828 C44.932661,17.365828 45.7495976,17.174304 46.275127,16.7153927 L46.520457,16.45298 L46.6960486,16.1420645 L46.6960486,16.1383335 L46.8392616,15.4854109 L46.6723873,14.8872094 L46.2302951,14.5228164 L45.7109924,14.4183488 L45.6524619,14.4220798 L42.7358985,14.4220798 C42.1057614,14.4220798 41.5814774,14.2417488 41.1804811,13.9457572 C40.7632955,13.6385727 40.4880775,13.2256768 40.3523365,12.7680092 L40.3523365,12.7642782 C40.2190862,12.3289965 40.2153502,11.8489429 40.3349019,11.3912752 C40.4818508,10.8278963 40.8081273,10.2918779 41.3075048,9.88893141 C41.6524612,9.62278772 42.0297963,9.39519755 42.4295473,9.22232852 L42.669896,9.13154118 C43.1605561,8.95121018 43.6885761,8.85420453 44.2327854,8.85047355 L44.2365214,8.85047355 C44.9152264,8.85047355 45.5827234,8.999713 46.1854632,9.27704965 L46.5266837,9.45489333 L46.8566962,9.66009758 L46.8566962,9.66382857 L46.8566962,9.66009758 C47.2265593,9.91753564 47.5640438,10.2234765 47.8492244,10.5804075 L48.0123626,10.7943174 L48.1618023,11.0156893 L48.1692743,11.0343442 L48.1730102,11.0343442 Z M68.7769987,13.6012628 L68.7769987,13.6012628 L68.7769987,13.537836 C68.759564,12.735674 68.4245702,12.0131063 67.9002862,11.4808189 C67.3560769,10.9398259 66.6051428,10.6015498 65.7732622,10.6015498 L65.7732622,10.6052808 L65.7695262,10.6052808 L65.7695262,10.6015498 C64.9451176,10.6015498 64.1916928,10.9398259 63.6499742,11.4808189 C63.1070102,12.0242992 62.7695257,12.7742275 62.7695257,13.6012628 L62.7732617,13.6012628 L62.7695257,13.6721515 L62.7695257,18.182914 C62.7695257,18.6306324 62.4083799,18.996269 61.9550797,18.996269 C61.5017795,18.996269 61.1368978,18.6306324 61.1368978,18.182914 L61.1368978,13.6771262 L61.1344071,13.6012628 L61.1368978,13.6012628 C61.1368978,12.3215345 61.6586912,11.1649287 62.4943077,10.3316751 C63.332415,9.4922032 64.4918174,8.9735961 65.7695262,8.97110877 L65.7695262,8.96862145 L65.7732622,8.96862145 L65.7732622,8.97110877 C67.0571976,8.9735961 68.2128641,9.4922032 69.0522166,10.3279441 C69.8691533,11.1475175 70.388456,12.2730317 70.4058906,13.5191811 L70.4096266,13.6012628 L70.4096266,17.2103702 L70.4096266,17.2165885 L70.5042717,17.4777576 L70.5416316,17.5262604 L70.5827275,17.5648139 L70.5864635,17.5710322 L70.5901995,17.5710322 C70.927684,17.8732421 70.9588172,18.3881182 70.659938,18.723907 C70.3598134,19.0572085 69.845492,19.0945183 69.5067622,18.7985267 L69.3299253,18.6206831 L69.177995,18.4291591 L69.174259,18.4291591 C68.9401369,18.1058069 68.796924,17.7103224 68.7769987,17.28499 L68.7769987,17.2364871 L68.7732627,17.1917153 L68.7769987,17.1718167 L68.7769987,13.6012628 Z M105.016108,9.74217928 C105.016108,9.2919736 105.378499,8.92260595 105.829309,8.92260595 C106.285099,8.92260595 106.654963,9.2919736 106.654963,9.74217928 L106.654963,18.182914 C106.654963,18.6343633 106.285099,19 105.829309,19 C105.378499,19 105.016108,18.6343633 105.016108,18.182914 L105.016108,9.74217928 Z M104.991201,6.817086 C104.991201,6.36563666 105.356083,6 105.808138,6 C106.261438,6 106.631301,6.36563666 106.631301,6.817086 L106.631301,7.61178609 C106.631301,8.0644791 106.261438,8.43011576 105.808138,8.43011576 C105.356083,8.43011576 104.991201,8.0644791 104.991201,7.61178609 L104.991201,6.817086 Z" id="Fill-1239" fill="#4F3880"></path>
                <path d="M0,15.3817791 C0,15.3817791 -0.0869640727,0.0418920609 7.42312937,0 C7.42312937,0 22.7702203,3.29099102 18.3116462,14.184159 C18.3116462,14.184159 13.8481001,11.8936489 11.1309428,12.0057718 C11.1309428,12.0057718 8.41005658,22.1732214 18.8635299,23.0098305 C28.1274701,23.7527985 31,15.4852771 31,15.4852771 C31,20.5677698 18.8635299,30.8732168 8.20247869,30.9951966 C7.21928042,31.0087499 -0.0111422091,31.5570431 0,15.3817791" id="Fill-1241" fill="#4F3880"></path>
                <path d="M17.3046656,13.476411 L18.437116,14 C19.6378929,11.1442786 18.9774023,7.59924515 15.8761332,4.61983188 C15.8191944,4.56579173 11.2349847,0.423914908 7,0 C19.5316071,4.49854177 17.3046656,13.476411 17.3046656,13.476411" id="Fill-1243" fill="#2B265E"></path>
                <path d="M11.116382,0.284219044 C9.99177736,0.0704836515 8.28399747,-0.0782561828 7,0.0442354454 C10.14358,0.86542932 13.1492726,2.39532476 15.4212524,4.72891527 C19.9259962,9.35984876 19.8513599,15.6019221 13.9234662,18.369233 C13.4212524,18.604217 13.3225806,18.8504501 13.7248577,19.2779209 C15.9032258,21.7889993 20.3586338,22.6739388 24.3282732,21.4640215 C27.0961417,20.6265787 30.4231499,18.1567475 31,15.7531618 L30.9911448,15.4819303 C30.8507274,13.0808444 28.7609108,10.7260054 27.1277672,9.08111781 C25.1619228,7.10250304 19.8235294,1.93410628 11.116382,0.284219044" id="Fill-1245" fill="#C96636"></path>
            </g>
        </g>
    </g>
</svg>