<?xml version="1.0" encoding="UTF-8"?>
<svg width="82px" height="37px" viewBox="0 0 82 37" version="1.1" xmlns="http://www.w3.org/2000/svg" xmlns:xlink="http://www.w3.org/1999/xlink">
    <!-- Generator: sketchtool 60.1 (101010) - https://sketch.com -->
    <title>AD4E5721-3CB5-4DDA-86CC-AFE914EC3520</title>
    <desc>Created with sketchtool.</desc>
    <g id="Page-1" stroke="none" stroke-width="1" fill="none" fill-rule="evenodd">
        <g id="LP-DE-PATROCÃNIO" transform="translate(-335.000000, -2935.000000)">
            <g id="Group-22" transform="translate(335.000000, 2935.000000)">
                <path d="M1.53768844,29.7798022 C1.53768844,30.0400833 1.58834171,30.2535138 1.69085427,30.4200937 C1.79336683,30.5866736 1.9320603,30.7220198 2.10331658,30.8248308 C2.27457286,30.9289433 2.47477387,31.0135346 2.70030151,31.0799063 C2.92703518,31.146278 3.16100503,31.2061426 3.40221106,31.2595003 C3.73386935,31.3401874 4.04864322,31.428683 4.3441206,31.524987 C4.63959799,31.621291 4.9121608,31.7670484 5.16301508,31.9596564 C5.41266332,32.1535659 5.61527638,32.4151484 5.76964824,32.744404 C5.92281407,33.074961 6,33.5031234 6,34.0301926 C6,34.5104112 5.91316583,34.9346694 5.74070352,35.30557 C5.56824121,35.6751692 5.32462312,35.9849037 5.00864322,36.2347736 C4.69507538,36.4846434 4.31879397,36.6746486 3.87979899,36.8047892 C3.44201005,36.9349297 2.96080402,37 2.43497487,37 C2.11537688,37 1.82231156,36.9817803 1.56060302,36.945341 C1.29768844,36.9076002 1.06733668,36.862051 0.865929648,36.8047892 C0.665728643,36.7475273 0.494472362,36.6902655 0.352160804,36.6304008 C0.209849246,36.5705362 0.0940703518,36.5132743 0,36.4599167 L0,35.1598126 C0.364221106,35.3198855 0.724824121,35.4461218 1.08180905,35.539823 C1.43879397,35.6335242 1.83316583,35.6803748 2.26371859,35.6803748 C2.6038191,35.6803748 2.90894472,35.6465383 3.18150754,35.5801666 C3.45407035,35.5137949 3.68924623,35.4148881 3.88582915,35.2847475 C4.08361809,35.154607 4.23557789,34.9919313 4.34170854,34.7954191 C4.44663317,34.5989068 4.49969849,34.3698594 4.49969849,34.1095783 C4.49969849,33.8440916 4.45145729,33.6228527 4.35376884,33.4497657 C4.25849246,33.2766788 4.12703518,33.1335242 3.96422111,33.0203019 C3.80020101,32.9070796 3.61085427,32.8133784 3.3961809,32.7391983 C3.18030151,32.6663196 2.95477387,32.5999479 2.71839196,32.5400833 C2.40964824,32.4672046 2.0960804,32.3800104 1.77889447,32.2798022 C1.46050251,32.179594 1.16984925,32.0403436 0.909346734,31.8594482 C0.648844221,31.6798542 0.438994975,31.43519 0.278592965,31.1254555 C0.118190955,30.8144196 0.0373869347,30.4161895 0.0373869347,29.9294638 C0.0373869347,29.4297241 0.120603015,28.9963561 0.287035176,28.6293597 C0.454673367,28.2636648 0.678994975,27.9604373 0.96361809,27.7196773 C1.24703518,27.4802186 1.57748744,27.2993233 1.95497487,27.179594 C2.33005025,27.0598647 2.72924623,27 3.14773869,27 C3.6361809,27 4.08844221,27.0494534 4.50452261,27.1496616 C4.92180905,27.2498699 5.29929648,27.3774076 5.63939698,27.529672 L5.63939698,28.8492972 C5.27758794,28.6957314 4.9121608,28.5720979 4.54190955,28.4744925 C4.17165829,28.3781884 3.79055276,28.3261322 3.39859296,28.3196252 C3.0681407,28.3196252 2.78472362,28.3560645 2.54834171,28.4302447 C2.31437186,28.5031234 2.12140704,28.604633 1.97065327,28.7347736 C1.8198995,28.8649141 1.71015075,29.01848 1.64140704,29.1954711 C1.57266332,29.3711609 1.53768844,29.5663717 1.53768844,29.7798022" id="Fill-76" fill="#4D4F50"></path>
                <path d="M12.9919692,35.6504425 C13.4982332,35.6504425 13.9595246,35.6087975 14.3784131,35.5255075 C14.7947318,35.4422176 15.2110504,35.3237897 15.6260842,35.1702238 L15.6260842,36.4599167 C15.2907164,36.6264966 14.8756826,36.7579386 14.3822679,36.855544 C13.8888532,36.951848 13.3607453,37 12.7953742,37 C12.1233537,37 11.4937359,36.9128058 10.9052361,36.7397189 C10.3167363,36.566632 9.80661741,36.2868298 9.37744941,35.9003123 C8.94699647,35.5137949 8.61034372,35.0088496 8.36620623,34.3854763 C8.12206874,33.7621031 8,33.0098907 8,32.1301406 C8,31.2634045 8.11949888,30.5124935 8.35464182,29.8748048 C8.59106971,29.2384175 8.90587857,28.707444 9.29906842,28.280583 C9.69225827,27.853722 10.14584,27.5335763 10.6572438,27.3201458 C11.1686476,27.1067153 11.7044651,27 12.2608416,27 C12.7850948,27 13.2759396,27.0884956 13.7320912,27.2654867 C14.1882429,27.4411765 14.5827176,27.7196773 14.9180854,28.0996877 C15.2521683,28.4796981 15.5155798,28.970328 15.7108898,29.5702759 C15.9036299,30.1702238 16,30.8899011 16,31.7306091 L16,31.9362311 C16,31.9921916 15.9974301,32.1197293 15.9897205,32.3201458 L9.51879216,32.3201458 C9.51879216,32.9266007 9.61002249,33.4419573 9.7911982,33.8649141 C9.97237392,34.2891723 10.2177963,34.631442 10.5300353,34.8956273 C10.8422743,35.1585112 11.2097655,35.3498178 11.629939,35.4708485 C12.0513974,35.5905778 12.5049791,35.6504425 12.9919692,35.6504425 M12.1850305,28.3300364 C11.8329586,28.3300364 11.5040154,28.4003123 11.2020559,28.5408641 C10.8988114,28.6801145 10.634115,28.8701197 10.4079666,29.1095783 C10.1805332,29.3503384 9.9980726,29.631442 9.85929971,29.9554919 C9.71795695,30.2795419 9.63186637,30.6244144 9.59845808,30.9901093 L14.3925474,30.9901093 C14.3925474,30.6166059 14.3450048,30.2691307 14.2473498,29.9450807 C14.1509798,29.6223321 14.009637,29.3399271 13.8220366,29.1004685 C13.6370061,28.8597085 13.4070029,28.6710047 13.1333119,28.5356585 C12.8609059,28.3990109 12.5448121,28.3300364 12.1850305,28.3300364" id="Fill-78" fill="#4D4F50"></path>
                <path d="M20.3457491,29.4497531 L20.3726407,29.4497531 C20.5281443,29.2467636 20.7000167,29.0569865 20.8894271,28.8816228 C21.0776683,28.7062592 21.2892935,28.5525157 21.5207951,28.4203924 C21.754635,28.2882691 22.0106898,28.1849726 22.2889594,28.1117043 C22.567229,28.0372348 22.871221,28 23.1997662,28 C23.5891097,28 23.9539001,28.0564527 24.2953065,28.1669558 C24.6355437,28.277459 24.9325205,28.456426 25.1838984,28.7014547 C25.4352764,28.9476845 25.6340404,29.2695849 25.7801904,29.6659549 C25.9263404,30.063526 26,30.5511811 26,31.1289203 L26,37 L24.6086521,37 L24.6086521,31.3607367 C24.6086521,30.6028293 24.4660097,30.0587215 24.1830633,29.7260109 C23.8989477,29.3945015 23.4838817,29.2275457 22.9402038,29.2275457 C22.462001,29.2275457 21.9978286,29.3656746 21.5488559,29.6383291 C21.0998831,29.9121847 20.7140471,30.2893367 20.3913479,30.7697851 L20.3913479,37 L19,37 L19,28.2318164 L20.0768331,28.2318164 L20.3457491,29.4497531 Z" id="Fill-80" fill="#4D4F50"></path>
                <path d="M30.5376884,29.7798022 C30.5376884,30.0400833 30.5883417,30.2535138 30.6908543,30.4200937 C30.7933668,30.5866736 30.9320603,30.7220198 31.1033166,30.8248308 C31.2745729,30.9289433 31.4747739,31.0135346 31.7003015,31.0799063 C31.9270352,31.146278 32.161005,31.2061426 32.4022111,31.2595003 C32.7338693,31.3401874 33.0474372,31.428683 33.3441206,31.524987 C33.639598,31.621291 33.9121608,31.7670484 34.1630151,31.9596564 C34.4126633,32.1535659 34.6152764,32.4151484 34.7696482,32.744404 C34.9228141,33.074961 35,33.5031234 35,34.0301926 C35,34.5104112 34.9131658,34.9346694 34.7407035,35.30557 C34.5682412,35.6751692 34.3246231,35.9849037 34.0086432,36.2347736 C33.6950754,36.4846434 33.318794,36.6746486 32.879799,36.8047892 C32.4420101,36.9349297 31.960804,37 31.4349749,37 C31.1153769,37 30.8223116,36.9817803 30.560603,36.945341 C30.2976884,36.9076002 30.0673367,36.862051 29.8659296,36.8047892 C29.6657286,36.7475273 29.4944724,36.6902655 29.3521608,36.6304008 C29.2098492,36.5705362 29.0940704,36.5132743 29,36.4599167 L29,35.1598126 C29.3642211,35.3198855 29.7248241,35.4461218 30.081809,35.539823 C30.438794,35.6335242 30.8331658,35.6803748 31.2637186,35.6803748 C31.6038191,35.6803748 31.9089447,35.6465383 32.1815075,35.5801666 C32.4540704,35.5137949 32.6892462,35.4148881 32.8858291,35.2847475 C33.0836181,35.154607 33.2355779,34.9919313 33.3417085,34.7954191 C33.4466332,34.5989068 33.4996985,34.3698594 33.4996985,34.1095783 C33.4996985,33.8440916 33.4514573,33.6228527 33.3537688,33.4497657 C33.2584925,33.2766788 33.1270352,33.1335242 32.9642211,33.0203019 C32.800201,32.9070796 32.6108543,32.8133784 32.3961809,32.7391983 C32.1803015,32.6663196 31.9547739,32.5999479 31.718392,32.5400833 C31.4096482,32.4672046 31.0960804,32.3800104 30.7788945,32.2798022 C30.4605025,32.179594 30.1698492,32.0403436 29.9093467,31.8594482 C29.6488442,31.6798542 29.438995,31.43519 29.278593,31.1254555 C29.118191,30.8144196 29.0373869,30.4161895 29.0373869,29.9294638 C29.0373869,29.4297241 29.120603,28.9963561 29.2870352,28.6293597 C29.4546734,28.2636648 29.678995,27.9604373 29.9636181,27.7196773 C30.2470352,27.4802186 30.5774874,27.2993233 30.9549749,27.179594 C31.3300503,27.0598647 31.7292462,27 32.1477387,27 C32.6361809,27 33.0884422,27.0494534 33.5045226,27.1496616 C33.921809,27.2498699 34.2992965,27.3774076 34.639397,27.529672 L34.639397,28.8492972 C34.2775879,28.6957314 33.9109548,28.5720979 33.5407035,28.4744925 C33.1704523,28.3781884 32.7905528,28.3261322 32.398593,28.3196252 C32.0681407,28.3196252 31.7847236,28.3560645 31.5483417,28.4302447 C31.3143719,28.5031234 31.121407,28.604633 30.9706533,28.7347736 C30.8198995,28.8649141 30.7101508,29.01848 30.641407,29.1954711 C30.5726633,29.3711609 30.5376884,29.5663717 30.5376884,29.7798022" id="Fill-82" fill="#4D4F50"></path>
                <path d="M41.9911675,35.6504425 C42.4973502,35.6504425 42.9585675,35.6087975 43.3773888,35.5255075 C43.7936406,35.4422176 44.2111771,35.3237897 44.6248595,35.1702238 L44.6248595,36.4599167 C44.2895455,36.6264966 43.8745784,36.7579386 43.3825277,36.855544 C42.8879075,36.951848 42.3598844,37 41.7946041,37 C41.1226915,37 40.4931749,36.9128058 39.9047696,36.7397189 C39.3163642,36.566632 38.8063273,36.2868298 38.3772282,35.9003123 C37.9468444,35.5137949 37.6102457,35.0088496 37.3661474,34.3854763 C37.1220491,33.7621031 37,33.0098907 37,32.1301406 C37,31.2634045 37.1194797,30.5124935 37.3545849,29.8748048 C37.5909748,29.2384175 37.9057331,28.707444 38.2988598,28.280583 C38.6932712,27.853722 39.1454954,27.5335763 39.6568171,27.3201458 C40.1681388,27.1067153 40.7038702,27 41.2614421,27 C41.7843263,27 42.2750923,27.0884956 42.7311707,27.2654867 C43.1872491,27.4411765 43.5816605,27.7196773 43.9169745,28.0996877 C44.2522884,28.4796981 44.5156576,28.970328 44.7096515,29.5702759 C44.9023607,30.1702238 45,30.8899011 45,31.7306091 L45,31.9362311 C45,31.9921916 44.9961458,32.1197293 44.9884374,32.3201458 L38.5185483,32.3201458 C38.5185483,32.9266007 38.6097639,33.4419573 38.7909106,33.8649141 C38.9720572,34.2891723 39.2174402,34.631442 39.529629,34.8956273 C39.8431026,35.1585112 40.20925,35.3498178 40.6306408,35.4708485 C41.0507467,35.5905778 41.5042557,35.6504425 41.9911675,35.6504425 M41.1843584,28.3300364 C40.832343,28.3300364 40.5034527,28.4003123 40.2015417,28.5408641 C39.8983459,28.6801145 39.633692,28.8701197 39.4075799,29.1095783 C39.1801831,29.3503384 38.9977517,29.631442 38.8590011,29.9554919 C38.7189658,30.2795419 38.6316043,30.6244144 38.5982014,30.9901093 L43.3915208,30.9901093 C43.3915208,30.6166059 43.3439859,30.2691307 43.2463466,29.9450807 C43.149992,29.6223321 43.0086719,29.3399271 42.8211017,29.1004685 C42.6361009,28.8597085 42.4061346,28.6710047 42.1324876,28.5356585 C41.8601253,28.3990109 41.5440822,28.3300364 41.1843584,28.3300364" id="Fill-84" fill="#4D4F50"></path>
                <path d="M47,32.3617811 C47,31.7346939 47.0618812,31.1781076 47.1856436,30.694496 C47.3094059,30.2096475 47.4715347,29.7866419 47.674505,29.4254793 C47.8774752,29.0643166 48.115099,28.7612863 48.3873762,28.5176252 C48.6596535,28.2739641 48.9405941,28.0748299 49.2326733,27.9226964 C49.5247525,27.7717996 49.8205446,27.6617192 50.1200495,27.5949289 C50.4220297,27.5293754 50.7054455,27.4959802 50.9715347,27.4959802 C51.5222772,27.4959802 52.0012376,27.5875077 52.4059406,27.7717996 C52.8118812,27.9548547 53.1757426,28.2244898 53.4987624,28.5794682 L53.5272277,28.5794682 L53.5272277,23 L55,23 L55,36.7625232 L53.8886139,36.7625232 L53.5841584,35.7544836 L53.5470297,35.7544836 C53.4319307,35.9004329 53.299505,36.047619 53.1472772,36.1972789 C52.9950495,36.3457019 52.8168317,36.4805195 52.6101485,36.6004947 C52.404703,36.72047 52.1670792,36.8181818 51.8972772,36.8911565 C51.6287129,36.9628942 51.3168317,37 50.9616337,37 C50.4678218,37 49.9826733,36.9158936 49.5086634,36.7476809 C49.0334158,36.5794682 48.6101485,36.3110699 48.2388614,35.9400124 C47.8688119,35.5701917 47.5705446,35.0915275 47.3415842,34.5052566 C47.1138614,33.9189858 47,33.2040816 47,32.3617811 M48.539604,32.3432282 C48.539604,32.8627087 48.5977723,33.3327149 48.7153465,33.7544836 C48.8316832,34.1762523 49.0012376,34.5337044 49.2227723,34.8280767 C49.4455446,35.122449 49.7178218,35.3500309 50.0408416,35.5071119 C50.3626238,35.6654298 50.7339109,35.7458256 51.1522277,35.7458256 C51.4628713,35.7458256 51.7438119,35.7037724 51.9975248,35.6221398 C52.2512376,35.5392703 52.4777228,35.4341373 52.6769802,35.3079777 C52.8762376,35.1818182 53.0470297,35.0470006 53.1893564,34.903525 C53.3329208,34.7612863 53.4455446,34.6301793 53.5272277,34.5102041 L53.5272277,29.7866419 C53.2227723,29.4761905 52.8712871,29.2275819 52.4727723,29.0395795 C52.0730198,28.8528139 51.6423267,28.7600495 51.1806931,28.7600495 C50.9022277,28.7600495 50.6089109,28.8119975 50.3007426,28.9171305 C49.9938119,29.0210266 49.7091584,29.2102659 49.4467822,29.4823748 C49.1831683,29.7544836 48.9665842,30.1205937 48.7957921,30.5794682 C48.6237624,31.0395795 48.539604,31.6270872 48.539604,32.3432282" id="Fill-86" fill="#4D4F50"></path>
                <path d="M63.6430658,35.6998959 L63.6057742,35.6998959 C63.4890875,35.8599688 63.3411239,36.0187402 63.1630864,36.1749089 C62.983846,36.3310776 62.7769376,36.4716294 62.5435642,36.5952629 C62.3101908,36.717595 62.0539612,36.8165018 61.7772813,36.8906819 C61.5006015,36.9622592 61.2046743,37 60.8907029,37 C60.4660595,37 60.0763018,36.9310255 59.7226328,36.7956793 C59.3677608,36.6577303 59.063413,36.4586153 58.8083863,36.19443 C58.5521567,35.9315461 58.353669,35.6100989 58.2117202,35.2300885 C58.0709744,34.8500781 58,34.4193129 58,33.9390942 C58,33.466684 58.0781921,33.0424258 58.2357793,32.6702238 C58.3921636,32.2967205 58.6135075,31.9791775 58.8962021,31.7201978 C59.1800997,31.4599167 59.5193332,31.2595003 59.9163086,31.1202499 C60.3132841,30.9796981 60.7523629,30.9094222 61.2323423,30.9094222 C61.6882626,30.9159292 62.1092971,30.960177 62.4978519,31.0395627 C62.8852036,31.1202499 63.230452,31.2204581 63.5323939,31.3401874 L63.5684826,31.3401874 L63.5684826,30.6803748 C63.5684826,30.4200937 63.5528441,30.1897449 63.5227702,29.9893285 C63.4914934,29.7902134 63.4397663,29.6132223 63.366386,29.4596564 C63.2051899,29.1395107 62.9501633,28.8753254 62.5989002,28.6644977 C62.2476371,28.4549714 61.7736725,28.3495575 61.1770064,28.3495575 C60.7343186,28.3495575 60.3168929,28.3951067 59.9259323,28.4849037 C59.5337687,28.5747007 59.145214,28.6996356 58.7566592,28.8597085 L58.7566592,27.5596044 C58.9058257,27.4802186 59.0790514,27.4047371 59.279945,27.3344612 C59.4796357,27.2641853 59.6901529,27.2043207 59.9114968,27.1548673 C60.1340437,27.1054138 60.3674171,27.0663717 60.6128201,27.0390422 C60.860629,27.0130141 61.106032,27 61.3526379,27 C62.2392164,27 62.9645987,27.1691827 63.5275821,27.510151 C64.0917683,27.8498178 64.4947585,28.3001041 64.7413645,28.8597085 C64.8339921,29.073139 64.8989517,29.307392 64.9398522,29.5650703 C64.9795498,29.8214472 65,30.1038522 65,30.4096825 L65,36.7501301 L63.7994501,36.7501301 L63.6430658,35.6998959 Z M63.5684826,32.5791255 C63.3050352,32.4997397 62.9922667,32.4229568 62.63138,32.3500781 C62.2692903,32.2771994 61.8711119,32.2368558 61.4368448,32.2290474 C60.8293521,32.2290474 60.3541846,32.3695992 60.0101392,32.6494014 C59.6672968,32.9292035 59.4964771,33.3599688 59.4964771,33.9390942 C59.4964771,34.2332119 59.5385805,34.4895888 59.6251933,34.7095263 C59.7106032,34.9294638 59.8296958,35.1116606 59.9788623,35.2548152 C60.1292318,35.3979698 60.3072693,35.5046851 60.5117718,35.574961 C60.7174772,35.6452369 60.9364152,35.6803748 61.1697886,35.6803748 C61.4753394,35.6803748 61.7604399,35.6322228 62.0250902,35.5346174 C62.2873346,35.4383134 62.521911,35.3237897 62.7276164,35.1897449 C62.9321189,35.0570016 63.1077505,34.9229568 63.2509022,34.7902134 C63.3952569,34.6561687 63.501117,34.5533576 63.5684826,34.4804789 L63.5684826,32.5791255 Z" id="Fill-88" fill="#4D4F50"></path>
                <path d="M73,36.7761855 C72.8734125,36.8280295 72.6816878,36.8760801 72.4248259,36.9216017 C72.1667349,36.9671233 71.8582548,36.9924131 71.4993855,37 C71.0286768,37 70.6194183,36.9393045 70.272839,36.8191781 C69.9274887,36.7003161 69.6399017,36.5283456 69.4100778,36.3045311 C69.180254,36.0807165 69.0081934,35.8113804 68.896354,35.4939937 C68.7820565,35.176607 68.7255223,34.8225501 68.7255223,34.4343519 L68.7255223,28.8187566 L67,28.8187566 L67,27.5264489 L68.7255223,27.5264489 L68.7255223,25 L70.1880377,25 L70.1880377,27.5264489 L72.8684965,27.5264489 L72.8684965,28.8187566 L70.1880377,28.8187566 L70.1880377,34.201686 C70.1880377,34.4153846 70.2175338,34.6126449 70.277755,34.7934668 C70.3367472,34.9755532 70.4313806,35.1323498 70.5604261,35.2651212 C70.6907005,35.3978925 70.8541581,35.5015806 71.0557149,35.5761855 C71.2572716,35.6507903 71.4993855,35.6874605 71.7820565,35.6874605 C71.9774683,35.6874605 72.183941,35.6722866 72.4002458,35.6394099 C72.6177796,35.6065332 72.8168783,35.5648051 73,35.512961 L73,36.7761855 Z" id="Fill-90" fill="#4D4F50"></path>
                <path d="M80.6428326,35.6998959 L80.6055345,35.6998959 C80.4888278,35.8599688 80.3408388,36.0187402 80.1627707,36.1749089 C79.9834995,36.3310776 79.7777587,36.4716294 79.543142,36.5952629 C79.3097284,36.717595 79.054658,36.8165018 78.7767274,36.8906819 C78.5,36.9622592 78.204022,37 77.8899966,37 C77.4652802,37 77.0766586,36.9310255 76.7217257,36.7956793 C76.3667927,36.6577303 76.0623926,36.4586153 75.8073221,36.19443 C75.5522516,35.9315461 75.3537298,35.6100989 75.2117566,35.2300885 C75.0697834,34.8500781 75,34.4193129 75,33.9390942 C75,33.466684 75.0782056,33.0424258 75.2346167,32.6702238 C75.3910278,32.2967205 75.6124098,31.9791775 75.895153,31.7201978 C76.1790993,31.4599167 76.5183912,31.2595003 76.9154349,31.1202499 C77.3136817,30.9796981 77.7516329,30.9094222 78.2316947,30.9094222 C78.6876934,30.9159292 79.1088003,30.960177 79.4974218,31.0395627 C79.8848402,31.1202499 80.2301478,31.2204581 80.5321416,31.3401874 L80.5682365,31.3401874 L80.5682365,30.6803748 C80.5682365,30.4200937 80.5525954,30.1897449 80.5225163,29.9893285 C80.4912341,29.7902134 80.4394981,29.6132223 80.3661052,29.4596564 C80.2060846,29.1395107 79.9498109,28.8753254 79.5984875,28.6644977 C79.247164,28.4549714 78.7731179,28.3495575 78.1763493,28.3495575 C77.7335854,28.3495575 77.316088,28.3951067 76.9250602,28.4849037 C76.5328292,28.5747007 76.1442076,28.6996356 75.7567893,28.8597085 L75.7567893,27.5596044 C75.9047783,27.4802186 76.0780337,27.4047371 76.2789618,27.3344612 C76.4786868,27.2641853 76.6892403,27.2043207 76.9106222,27.1548673 C77.1332073,27.1054138 77.3666208,27.0663717 77.6132692,27.0390422 C77.8599175,27.0130141 78.1053627,27 78.352011,27 C79.2387418,27 79.9642489,27.1691827 80.527329,27.510151 C81.0916122,27.8498178 81.4958749,28.3001041 81.74132,28.8597085 C81.8339636,29.073139 81.9001375,29.307392 81.941045,29.5650703 C81.9795462,29.8214472 82,30.1038522 82,30.4096825 L82,36.7501301 L80.7992437,36.7501301 L80.6428326,35.6998959 Z M80.5682365,32.5791255 C80.3047439,32.4997397 79.9931248,32.4229568 79.6309728,32.3500781 C79.2688209,32.2771994 78.8705741,32.2368558 78.4362324,32.2290474 C77.8286353,32.2290474 77.353386,32.3695992 77.0092815,32.6494014 C76.6663802,32.9292035 76.4955311,33.3599688 76.4955311,33.9390942 C76.4955311,34.2332119 76.5376418,34.4895888 76.6242695,34.7095263 C76.7096941,34.9294638 76.8288072,35.1116606 76.9779993,35.2548152 C77.1283946,35.3979698 77.3064627,35.5046851 77.5110003,35.574961 C77.7167411,35.6452369 77.9357167,35.6803748 78.1691303,35.6803748 C78.4747336,35.6803748 78.7598831,35.6322228 79.0245789,35.5346174 C79.2868683,35.4383134 79.521485,35.3237897 79.7272259,35.1897449 C79.9329667,35.0570016 80.1074252,34.9229568 80.2506016,34.7902134 C80.3949811,34.6561687 80.5008594,34.5533576 80.5682365,34.4804789 L80.5682365,32.5791255 Z" id="Fill-92" fill="#4D4F50"></path>
                <path d="M31.0752454,2 C31.0338059,2 31,2.0383217 31,2.08529668 L31,18.9147033 C31,18.9616783 31.0338059,19 31.0752454,19 L32.9236641,19 C32.9651036,19 33,18.9616783 33,18.9147033 L33,2.08529668 C33,2.0383217 32.9651036,2 32.9236641,2 L31.0752454,2 Z" id="Fill-94" fill="#EF813C"></path>
                <path d="M31.0752454,2 C31.0338059,2 31,2.0383217 31,2.08529668 L31,18.9147033 C31,18.9616783 31.0338059,19 31.0752454,19 L32.9236641,19 C32.9651036,19 33,18.9616783 33,18.9147033 L33,2.08529668 C33,2.0383217 32.9651036,2 32.9236641,2 L31.0752454,2 Z" id="Fill-96" fill="#EF813C"></path>
                <path d="M38.0752454,6 C38.0338059,6 38,6.03923669 38,6.08733327 L38,18.9126667 C38,18.9607633 38.0338059,19 38.0752454,19 L39.9247546,19 C39.9651036,19 40,18.9607633 40,18.9126667 L40,6.08733327 C40,6.03923669 39.9651036,6 39.9247546,6 L38.0752454,6 Z" id="Fill-98" fill="#0B7EC2"></path>
                <path d="M38.0752454,6 C38.0338059,6 38,6.03923669 38,6.08733327 L38,18.9126667 C38,18.9607633 38.0338059,19 38.0752454,19 L39.9247546,19 C39.9651036,19 40,18.9607633 40,18.9126667 L40,6.08733327 C40,6.03923669 39.9651036,6 39.9247546,6 L38.0752454,6 Z" id="Fill-100" fill="#0B7EC2"></path>
                <path d="M50.0752044,4 C50.0337875,4 50,4.03871129 50,4.08616384 L50,18.9138362 C50,18.96004 50.0337875,19 50.0752044,19 L51.9237057,19 C51.9651226,19 52,18.96004 52,18.9138362 L52,4.08616384 C52,4.03871129 51.9651226,4 51.9237057,4 L50.0752044,4 Z" id="Fill-102" fill="#E32B2B"></path>
                <path d="M50.0752044,4 C50.0337875,4 50,4.03871129 50,4.08616384 L50,18.9138362 C50,18.96004 50.0337875,19 50.0752044,19 L51.9237057,19 C51.9651226,19 52,18.96004 52,18.9138362 L52,4.08616384 C52,4.03871129 51.9651226,4 51.9237057,4 L50.0752044,4 Z" id="Fill-104" fill="#E32B2B"></path>
                <path d="M44.0751634,0 C44.0337691,0 44,0.038017169 44,0.0846188601 L44,18.9153811 C44,18.9619828 44.0337691,19 44.0751634,19 L45.9237473,19 C45.9651416,19 46,18.9619828 46,18.9153811 L46,0.0846188601 C46,0.038017169 45.9651416,0 45.9237473,0 L44.0751634,0 Z" id="Fill-106" fill="#5B8C38"></path>
                <path d="M44.0751634,0 C44.0337691,0 44,0.038017169 44,0.0846188601 L44,18.9153811 C44,18.9619828 44.0337691,19 44.0751634,19 L45.9237473,19 C45.9651416,19 46,18.9619828 46,18.9153811 L46,0.0846188601 C46,0.038017169 45.9651416,0 45.9237473,0 L44.0751634,0 Z" id="Fill-108" fill="#5B8C38"></path>
            </g>
        </g>
    </g>
</svg>