<?xml version="1.0" encoding="UTF-8"?>
<svg width="117px" height="20px" viewBox="0 0 117 20" version="1.1" xmlns="http://www.w3.org/2000/svg" xmlns:xlink="http://www.w3.org/1999/xlink">
    <!-- Generator: sketchtool 60.1 (101010) - https://sketch.com -->
    <title>EDF52AD8-6B79-42D2-9868-2CC116D4DFB3</title>
    <desc>Created with sketchtool.</desc>
    <g id="Page-1" stroke="none" stroke-width="1" fill="none" fill-rule="evenodd">
        <g id="LP-DE-PATROCÃNIO" transform="translate(-1485.000000, -3853.000000)" fill="#EB634C">
            <path d="M1570.14212,3854.10103 C1569.02295,3854.57344 1568.09691,3855.24112 1567.28601,3856.10532 C1566.47511,3856.93172 1565.85858,3857.98992 1565.39309,3859.20937 C1564.93007,3860.38725 1564.69856,3861.72512 1564.69856,3863.13857 C1564.69856,3864.55329 1564.93007,3865.8899 1565.39309,3867.10557 C1565.85858,3868.32502 1566.51349,3869.34669 1567.36153,3870.17183 C1568.17243,3870.99698 1569.1777,3871.66465 1570.29687,3872.13706 C1571.45565,3872.60821 1572.68996,3872.84379 1573.96759,3872.84379 C1575.58815,3872.84379 1577.09358,3872.52885 1578.32912,3871.86243 C1579.44953,3871.31192 1580.41394,3870.56488 1581.18646,3869.66163 C1581.26322,3869.581 1581.30284,3869.4651 1581.30284,3869.34669 C1581.30284,3869.22827 1581.22484,3869.11111 1581.14685,3869.03301 L1579.71818,3867.77576 C1579.64266,3867.6964 1579.56466,3867.65734 1579.44953,3867.65734 C1579.33192,3867.65734 1579.21554,3867.6964 1579.10041,3867.81356 C1578.52349,3868.44344 1577.8661,3868.9549 1577.13196,3869.30637 C1576.20592,3869.77879 1575.20065,3870.01436 1574.04311,3870.01436 L1573.7336,3870.01436 C1572.57606,3869.97657 1571.53365,3869.66163 1570.64475,3869.11111 C1570.568,3869.0708 1570.52962,3869.03301 1570.49124,3868.99395 C1570.3761,3868.91459 1570.29687,3868.83522 1570.18173,3868.75838 C1570.10374,3868.67901 1570.02698,3868.63996 1569.95023,3868.55933 C1569.87347,3868.52154 1569.79547,3868.44344 1569.75586,3868.40312 C1569.29284,3867.97103 1568.90658,3867.50113 1568.59831,3866.94936 C1568.52155,3866.83346 1568.48194,3866.71504 1568.40642,3866.59536 C1567.82579,3865.5359 1567.51752,3864.2774 1567.51752,3863.06047 C1567.51752,3861.92038 1567.74903,3860.78156 1568.25167,3859.71958 C1568.59831,3858.85538 1569.13809,3858.10834 1569.83509,3857.51877 C1570.33525,3857.08793 1570.83788,3856.77425 1571.41728,3856.53741 C1571.61041,3856.45931 1571.8023,3856.37994 1571.95829,3856.34089 C1572.07219,3856.30184 1572.15142,3856.26279 1572.22694,3856.26279 C1572.30493,3856.22373 1572.42254,3856.22373 1572.53644,3856.18468 C1572.65405,3856.14311 1572.72957,3856.14311 1572.80757,3856.14311 C1573.07746,3856.10532 1573.34734,3856.06626 1573.69523,3856.06626 C1575.20065,3856.06626 1576.43743,3856.53741 1577.40185,3857.51877 C1578.36874,3858.46233 1578.98527,3859.75989 1579.2564,3861.37113 L1579.2564,3861.48828 L1570.99264,3861.48828 C1570.75989,3861.48828 1570.568,3861.68481 1570.568,3861.92038 L1570.568,3863.60973 C1570.568,3863.84656 1570.75989,3864.04182 1570.99264,3864.04182 L1581.88099,3864.04182 C1581.9986,3864.04182 1582.1125,3863.96246 1582.15212,3863.80625 C1582.1905,3863.49131 1582.1905,3863.17889 1582.1905,3862.82489 C1582.1905,3861.01713 1581.84261,3859.36684 1581.10971,3857.95213 C1580.37433,3856.53741 1579.37153,3855.39733 1578.058,3854.57344 C1576.90169,3853.78861 1575.39502,3853.39305 1573.65685,3853.39305 C1572.42254,3853.39305 1571.22291,3853.62988 1570.14212,3854.10103 L1570.14212,3854.10103 Z M1589.99,3854.10103 C1588.87083,3854.57344 1587.9448,3855.24112 1587.13266,3856.10532 C1586.32176,3856.93172 1585.70399,3857.98992 1585.24097,3859.20937 C1584.77671,3860.38725 1584.54644,3861.72512 1584.54644,3863.13857 C1584.54644,3864.55329 1584.77671,3865.8899 1585.24097,3867.10557 C1585.70399,3868.32502 1586.36014,3869.34669 1587.20942,3870.17183 C1588.02155,3870.99698 1589.02435,3871.66465 1590.14475,3872.13706 C1591.30354,3872.60821 1592.53784,3872.84379 1593.813,3872.84379 C1595.43604,3872.84379 1596.93899,3872.52885 1598.177,3871.86243 C1599.29617,3871.31192 1600.26182,3870.56488 1601.03311,3869.66163 C1601.1111,3869.581 1601.15072,3869.4651 1601.15072,3869.34669 C1601.15072,3869.22827 1601.07273,3869.11111 1600.99473,3869.03301 L1599.56606,3867.77576 C1599.4893,3867.6964 1599.41131,3867.65734 1599.29617,3867.65734 C1599.1798,3867.65734 1599.06342,3867.6964 1598.94829,3867.81356 C1598.37014,3868.44344 1597.71275,3868.9549 1596.9786,3869.30637 C1596.05381,3869.77879 1595.04854,3870.01436 1593.89099,3870.01436 L1593.58149,3870.01436 C1592.42394,3869.97657 1591.38029,3869.66163 1590.49264,3869.11111 C1590.41588,3869.0708 1590.3775,3869.03301 1590.2995,3868.99395 C1590.18313,3868.91459 1590.10514,3868.83522 1589.99,3868.75838 C1589.91324,3868.67901 1589.83525,3868.63996 1589.75973,3868.55933 C1589.68173,3868.52154 1589.60374,3868.44344 1589.56536,3868.40312 C1589.10358,3867.97103 1588.71608,3867.50113 1588.40658,3866.94936 C1588.32982,3866.83346 1588.29144,3866.71504 1588.21468,3866.59536 C1587.63529,3865.5359 1587.32703,3864.2774 1587.32703,3863.06047 C1587.32703,3861.92038 1587.55854,3860.78156 1588.05869,3859.71958 C1588.40658,3858.85538 1588.94883,3858.10834 1589.64336,3857.51877 C1590.14475,3857.08793 1590.64739,3856.77425 1591.22678,3856.53741 C1591.41867,3856.45931 1591.6118,3856.37994 1591.76655,3856.34089 C1591.88293,3856.30184 1591.95969,3856.26279 1592.03768,3856.26279 C1592.11444,3856.22373 1592.22957,3856.22373 1592.34595,3856.18468 C1592.46232,3856.14311 1592.53784,3856.14311 1592.61583,3856.14311 C1592.88572,3856.10532 1593.15809,3856.06626 1593.50473,3856.06626 C1595.01016,3856.06626 1596.2457,3856.53741 1597.21135,3857.51877 C1598.177,3858.46233 1598.79477,3859.75989 1599.06342,3861.37113 L1599.06342,3861.48828 L1590.8009,3861.48828 C1590.57063,3861.48828 1590.3775,3861.68481 1590.3775,3861.92038 L1590.3775,3863.60973 C1590.3775,3863.84656 1590.57063,3864.04182 1590.8009,3864.04182 L1601.6905,3864.04182 C1601.80563,3864.04182 1601.922,3863.96246 1601.95915,3863.80625 C1602,3863.49131 1602,3863.17889 1602,3862.82489 C1602,3861.01713 1601.65212,3859.36684 1600.91797,3857.95213 C1600.18383,3856.53741 1599.1798,3855.39733 1597.86874,3854.57344 C1596.74957,3853.78861 1595.20329,3853.39305 1593.50473,3853.39305 C1592.26795,3853.39305 1591.07079,3853.62988 1589.99,3854.10103 L1589.99,3854.10103 Z M1501.91378,3853.35525 C1501.64266,3853.35525 1501.41115,3853.39305 1501.33315,3853.51146 C1501.21802,3853.59083 1501.14002,3853.78861 1501.14002,3854.10103 L1501.14002,3871.82338 C1501.14002,3872.09801 1501.17964,3872.29327 1501.29601,3872.41043 C1501.41115,3872.4898 1501.60428,3872.56916 1501.87293,3872.56916 L1503.22608,3872.56916 C1503.49597,3872.56916 1503.6891,3872.52885 1503.80423,3872.41043 C1503.92061,3872.33359 1503.96022,3872.13706 1503.96022,3871.82338 L1503.96022,3854.10103 C1503.96022,3853.82514 1503.92061,3853.62988 1503.80423,3853.51146 C1503.72872,3853.39305 1503.53435,3853.35525 1503.26446,3853.35525 L1501.91378,3853.35525 Z M1514.23205,3853.35525 C1513.96092,3853.35525 1513.76779,3853.39305 1513.65266,3853.51146 C1513.53628,3853.62988 1513.49667,3853.78861 1513.49667,3854.10103 L1513.49667,3861.41018 L1507.12583,3861.41018 C1506.89309,3861.41018 1506.73957,3861.60544 1506.73957,3861.80197 L1506.73957,3863.53036 C1506.73957,3863.7672 1506.9327,3863.92467 1507.12583,3863.92467 L1513.45829,3863.92467 L1513.45829,3871.78181 C1513.45829,3872.0577 1513.49667,3872.25422 1513.6118,3872.37264 C1513.72818,3872.45074 1513.92007,3872.52885 1514.19119,3872.52885 L1515.54311,3872.52885 C1515.813,3872.52885 1516.04574,3872.4898 1516.1225,3872.37264 C1516.23887,3872.29327 1516.27601,3872.09801 1516.27601,3871.78181 L1516.27601,3854.10103 C1516.27601,3853.82514 1516.23887,3853.62988 1516.1225,3853.51146 C1516.00736,3853.43336 1515.813,3853.35525 1515.54311,3853.35525 L1514.23205,3853.35525 Z M1560.41255,3853.35525 C1560.14142,3853.35525 1559.94829,3853.39305 1559.83315,3853.51146 C1559.71678,3853.59083 1559.6784,3853.78861 1559.6784,3854.10103 L1559.6784,3866.9103 C1559.6784,3866.9103 1559.87153,3870.60267 1555.81703,3870.60267 C1555.6239,3870.60267 1555.46914,3870.60267 1555.27725,3870.56488 C1554.19523,3870.48677 1551.8789,3870.01436 1551.8789,3867.54019 L1551.8789,3854.10103 C1551.8789,3853.82514 1551.84052,3853.62988 1551.72414,3853.51146 C1551.60901,3853.43336 1551.41464,3853.35525 1551.14475,3853.35525 L1549.79408,3853.35525 C1549.52295,3853.35525 1549.32982,3853.39305 1549.21468,3853.51146 C1549.09831,3853.59083 1549.05869,3853.78861 1549.05869,3854.10103 L1549.05869,3867.57798 C1549.05869,3870.01436 1546.74237,3870.52457 1545.66282,3870.60267 C1545.46968,3870.60267 1545.31493,3870.64424 1545.12304,3870.64424 C1541.0673,3870.64424 1541.26043,3866.94936 1541.26043,3866.94936 L1541.26043,3854.10103 C1541.26043,3853.82514 1541.22205,3853.62988 1541.10691,3853.51146 C1540.9893,3853.43336 1540.79617,3853.35525 1540.52628,3853.35525 L1539.17685,3853.35525 C1538.90448,3853.35525 1538.71011,3853.39305 1538.59498,3853.51146 C1538.47984,3853.59083 1538.44023,3853.78861 1538.44023,3854.10103 L1538.44023,3866.9103 C1538.44023,3869.03301 1538.98124,3870.56488 1540.02365,3871.50844 C1541.0673,3872.45074 1542.76586,3872.92189 1545.16018,3872.92189 C1546.54923,3872.92189 1547.74764,3872.72411 1548.67367,3872.37264 C1549.40782,3872.09801 1550.02559,3871.70244 1550.52822,3871.19224 C1551.06676,3871.70244 1551.68577,3872.09801 1552.41867,3872.37264 C1553.34471,3872.72411 1554.50349,3872.92189 1555.9334,3872.92189 C1558.32773,3872.92189 1560.02505,3872.45074 1561.06869,3871.50844 C1562.1111,3870.56488 1562.65088,3869.03301 1562.65088,3866.9103 L1562.65088,3854.10103 C1562.65088,3853.82514 1562.61374,3853.62988 1562.49737,3853.51146 C1562.38223,3853.43336 1562.18786,3853.35525 1561.91921,3853.35525 L1560.41255,3853.35525 Z M1523.96038,3853.94482 C1522.84122,3854.41723 1521.91518,3855.08365 1521.10428,3855.94911 C1520.29462,3856.77425 1519.67437,3857.83371 1519.21135,3859.0519 C1518.74957,3860.23104 1518.51682,3861.56639 1518.51682,3862.98236 C1518.51682,3864.39708 1518.74957,3865.73117 1519.21135,3866.94936 C1519.67437,3868.16881 1520.33052,3869.19048 1521.1798,3870.01436 C1521.99194,3870.83951 1522.99597,3871.50844 1524.1139,3871.97959 C1525.11917,3872.41043 1526.20119,3872.64727 1527.32036,3872.68506 L1529.82982,3872.68506 C1530.10095,3872.68506 1530.29284,3872.64727 1530.41045,3872.52885 C1530.48597,3872.41043 1530.56396,3872.21391 1530.56396,3871.94054 L1530.56396,3870.6833 C1530.56396,3870.40741 1530.52559,3870.21214 1530.41045,3870.09247 C1530.33246,3869.97657 1530.13809,3869.93626 1529.82982,3869.93626 L1527.32036,3869.93626 C1526.27671,3869.85815 1525.35315,3869.54321 1524.54101,3869.0708 C1524.46302,3869.03301 1524.42464,3868.99395 1524.34788,3868.9549 C1524.23151,3868.87554 1524.15475,3868.79617 1524.03962,3868.71681 C1523.96038,3868.63996 1523.88363,3868.59965 1523.80563,3868.52154 C1523.72887,3868.48249 1523.65212,3868.40312 1523.6125,3868.36533 C1523.15072,3867.93197 1522.76446,3867.46082 1522.45372,3866.9103 C1522.37944,3866.79315 1522.33858,3866.67347 1522.26306,3866.55757 C1521.68367,3865.49559 1521.37417,3864.23709 1521.37417,3863.02016 C1521.37417,3861.88133 1521.60568,3860.7425 1522.10831,3859.68052 C1522.45372,3858.81633 1522.99597,3858.07055 1523.6905,3857.47846 C1524.19313,3857.04888 1524.73167,3856.73394 1525.27268,3856.49836 C1525.46705,3856.42026 1525.65894,3856.34089 1525.81493,3856.30184 C1525.93007,3856.26279 1526.00806,3856.22373 1526.12444,3856.22373 C1526.20119,3856.18468 1526.27671,3856.18468 1526.4327,3856.14311 C1526.54784,3856.10532 1526.62583,3856.10532 1526.74097,3856.10532 C1527.01209,3856.06626 1527.28198,3856.02595 1527.62986,3856.02595 C1529.13529,3856.02595 1530.37083,3856.49836 1531.33525,3857.47846 C1532.30214,3858.42454 1532.91867,3859.71958 1533.1898,3861.32955 L1533.1898,3861.44797 L1533.26655,3863.02016 L1533.26655,3872.0577 C1533.26655,3872.33359 1533.30493,3872.52885 1533.42007,3872.64727 C1533.53644,3872.72411 1533.73081,3872.80474 1534.0007,3872.80474 L1535.35137,3872.80474 C1535.6225,3872.80474 1535.81439,3872.76568 1535.932,3872.64727 C1536.04714,3872.56916 1536.08676,3872.37264 1536.08676,3872.0577 L1536.08676,3862.70648 C1536.08676,3860.89872 1535.73887,3859.24969 1535.00349,3857.83371 C1534.27182,3856.42026 1533.26655,3855.28143 1531.95426,3854.45503 C1530.64196,3853.62988 1529.09691,3853.23684 1527.39712,3853.23684 C1527.31541,3853.23306 1527.23246,3853.2318 1527.15075,3853.2318 C1526.06996,3853.2318 1524.96565,3853.46989 1523.96038,3853.94482 L1523.96038,3853.94482 Z M1487.20119,3854.45503 C1486.00403,3855.4389 1485.42464,3856.77425 1485.42464,3858.46233 L1485.42464,3858.66012 C1485.42464,3859.95515 1485.77128,3861.01713 1486.46705,3861.80197 C1487.16282,3862.5868 1488.2436,3863.17889 1489.71065,3863.60973 L1492.87626,3864.43613 C1494.07466,3864.74855 1494.92394,3865.18191 1495.38696,3865.69211 C1495.88836,3866.20358 1496.1211,3866.94936 1496.1211,3867.85387 C1496.1211,3869.81784 1494.76919,3870.80045 1492.06536,3870.80045 C1490.71468,3870.80045 1489.67227,3870.56488 1489.01613,3870.13278 C1488.32036,3869.69942 1487.8561,3868.99395 1487.66421,3868.01134 C1487.62583,3867.73545 1487.54784,3867.57798 1487.4327,3867.50113 C1487.31757,3867.42177 1487.12444,3867.38272 1486.85207,3867.38272 L1485.77128,3867.38272 C1485.46302,3867.38272 1485.26989,3867.42177 1485.15351,3867.54019 C1485.03962,3867.61703 1485,3867.81356 1485,3868.05039 C1485,3869.26732 1485.46302,3870.36835 1486.38905,3871.23255 C1487.62583,3872.41043 1489.55714,3873 1492.14336,3873 C1496.7005,3873 1498.93883,3871.19224 1498.93883,3867.54019 L1498.93883,3867.3424 C1498.93883,3864.55329 1497.51016,3862.78458 1494.65158,3862.03754 L1491.71748,3861.29176 C1491.02419,3861.13429 1490.44356,3860.93777 1489.98054,3860.7425 C1489.51876,3860.54472 1489.13126,3860.34946 1488.86137,3860.07483 C1488.59149,3859.83925 1488.35874,3859.56337 1488.2436,3859.28748 C1488.16561,3859.0519 1488.09009,3858.69791 1488.09009,3858.30612 C1488.09009,3857.32225 1488.39712,3856.57647 1489.0545,3856.06626 C1489.71065,3855.51701 1490.63669,3855.28143 1491.83509,3855.28143 C1494.42254,3855.28143 1495.85122,3856.18468 1496.15948,3857.98992 C1496.19662,3858.26707 1496.27462,3858.42454 1496.39099,3858.50139 C1496.46775,3858.58201 1496.7005,3858.6198 1497.00876,3858.6198 L1498.05117,3858.6198 C1498.36068,3858.6198 1498.55381,3858.58201 1498.66894,3858.46233 C1498.78532,3858.38549 1498.82369,3858.18644 1498.82369,3857.91308 C1498.82369,3856.73394 1498.39905,3855.71227 1497.55101,3854.80902 C1496.39099,3853.59083 1494.61568,3853 1492.10498,3853 C1490.02016,3853 1488.39712,3853.47367 1487.20119,3854.45503 L1487.20119,3854.45503 Z" id="Fill-1712"></path>
        </g>
    </g>
</svg>