<?xml version="1.0" encoding="UTF-8"?>
<svg width="189px" height="36px" viewBox="0 0 189 36" version="1.1" xmlns="http://www.w3.org/2000/svg" xmlns:xlink="http://www.w3.org/1999/xlink">
    <!-- Generator: sketchtool 60.1 (101010) - https://sketch.com -->
    <title>0D1E2A5E-B0B3-413E-81E1-C659772BD91D</title>
    <desc>Created with sketchtool.</desc>
    <g id="Page-1" stroke="none" stroke-width="1" fill="none" fill-rule="evenodd">
        <g id="LP-DE-PATROCÃNIO" transform="translate(-515.000000, -4047.000000)">
            <g id="Group-67" transform="translate(515.000000, 4047.000000)">
                <g id="Group-31">
                    <path d="M11.9292998,21.0557456 C11.9292998,21.0557456 13.7352141,22.8416382 15.7131203,22.8416382 C16.3400181,22.8416382 16.6902334,22.6721827 16.6902334,22.2371267 C16.6902334,21.199963 10.2255835,20.8634557 10.2255835,16.834982 C10.2255835,14.1585467 12.8054611,13 15.5373895,13 C17.6436664,13 20.5500793,13.5804752 20.5500793,15.8218545 L20.5500793,17.2928723 L16.7911851,17.2928723 L16.7911851,16.6895627 C16.7911851,16.3530554 16.2403127,16.1114912 15.6134149,16.1114912 C15.0126898,16.1114912 14.4593247,16.3049829 14.4593247,16.6895627 C14.4593247,17.9694925 21,17.800037 21,21.9703245 C21,24.4797079 18.7217312,26 15.7131203,26 C12.0053252,26 10,23.7321808 10,23.7321808 L11.9292998,21.0557456 Z" id="Fill-1247" fill="#262E3B"></path>
                    <path d="M22.4654978,12.2048923 C22.4654978,11.8523939 22.2710702,11.651683 21.9283916,11.651683 L21,11.651683 L21,8 L24.9092093,8 C26.1547609,8 26.6930822,8.17813088 26.6930822,9.46142588 L26.6930822,17.3154924 L27.3529208,17.3154924 C27.7186876,17.3154924 28.1354917,17.3154924 28.3542227,16.9128162 L30.4054336,13.0353335 L35,13.0353335 L32.1419148,18.0192348 C31.6765038,18.8509304 31.212308,19.1030734 31.212308,19.1030734 L31.212308,19.1532511 C31.212308,19.1532511 31.7263258,19.3539619 32.1662182,20.2358352 L32.9718774,21.9218064 C33.1432167,22.2730504 33.4117698,22.3495714 33.9002691,22.3495714 L34.8796979,22.3495714 L34.8796979,26 L31.6765038,26 C30.7736308,26 30.2851315,25.8482124 29.8683274,25.0177713 L28.0613662,21.3924315 C27.84142,20.9646665 27.3772242,20.9646665 27.0588491,20.9646665 L26.6930822,20.9646665 L26.6930822,26 L22.4654978,26 L22.4654978,12.2048923 Z" id="Fill-1249" fill="#262E3B"></path>
                    <path d="M37.3309013,27.425488 C38.0334549,27.425488 38.8331702,27.2275227 39.2591868,26.1585098 L39.4099119,25.7873247 L35.3266305,16.9989002 C35.177151,16.6734946 35.077498,16.6004949 34.7772934,16.6004949 L34.3002046,16.6004949 L34.3002046,13 L37.4567132,13 C38.1829344,13 38.7098496,13.3724223 38.9602278,14.0417927 L40.8611086,19.2062139 C41.1127324,19.9028045 41.339443,21.1945285 41.339443,21.1945285 L41.3892695,21.1945285 C41.3892695,21.1945285 41.6134887,19.9028045 41.8140404,19.2062139 L43.2428152,14.0417927 C43.4184536,13.3724223 44.0936026,13 44.7699973,13 L48,13 L48,16.6004949 L47.5254026,16.6004949 C47.2239523,16.6004949 47.0495596,16.6734946 46.9249933,16.9989002 L43.0161046,27.1520484 C41.9136934,29.9817157 39.686449,31 37.6335973,31 C35.4026159,31 34,29.634039 34,29.634039 L35.5545867,26.6051691 C35.5545867,26.6051691 36.3044755,27.425488 37.3309013,27.425488" id="Fill-1251" fill="#262E3B"></path>
                    <path d="M62.4746224,13 C66.6749195,13 70,15.6295782 70,19.536071 C70,23.4197188 66.6749195,26 62.500619,26 C58.3238425,26 55,23.4197188 55,19.536071 C55,15.6295782 58.3238425,13 62.4746224,13 M62.500619,22.527562 C64.1235454,22.527562 65.5162169,21.3937292 65.5162169,19.536071 C65.5162169,17.6543655 64.1235454,16.4736404 62.500619,16.4736404 C60.8764546,16.4736404 59.4825452,17.6543655 59.4825452,19.536071 C59.4825452,21.3937292 60.8764546,22.527562 62.500619,22.527562" id="Fill-1253" fill="#335E91"></path>
                    <path d="M71.5115347,17.4161385 C71.5115347,17.0705704 71.3106422,16.8738057 70.957265,16.8738057 L70,16.8738057 L70,13.2976067 L73.8798881,13.2976067 C75.0634596,13.2976067 75.6951819,13.864535 75.6951819,14.7278403 L75.6951819,14.9000095 C75.6951819,15.0242172 75.6697678,15.1939268 75.6697678,15.1939268 L75.7193858,15.1939268 C76.3244838,14.2101031 77.5334695,13 79.8267907,13 C82.4468648,13 84.4872551,14.1842777 84.4872551,17.7617066 L84.4872551,21.8814682 C84.4872551,22.2258065 84.6893578,22.4225712 85.042735,22.4225712 L86,22.4225712 L86,26 L81.9676273,26 C80.6836094,26 80.1293397,25.458897 80.1293397,24.1996027 L80.1293397,18.5499953 C80.1293397,17.3669473 79.6501021,16.8738057 78.6940473,16.8738057 C77.332577,16.8738057 76.5023826,17.614133 76.1223811,18.6987986 C75.9469027,19.19317 75.8718705,19.7588686 75.8718705,20.376218 L75.8718705,26 L71.5115347,26 L71.5115347,17.4161385 Z" id="Fill-1255" fill="#335E91"></path>
                    <path d="M92.8868533,13 C96.7924063,13 99,15.5579093 99,19.006938 C99,19.4170213 98.8988135,20.2612396 98.8988135,20.2612396 L90.5472235,20.2612396 C90.8828666,21.8282146 92.2180351,22.5281221 93.6309445,22.5281221 C95.5337447,22.5281221 97.150261,21.2257169 97.150261,21.2257169 L98.9234931,24.0253469 C98.9234931,24.0253469 96.7924063,26 93.2718557,26 C88.5444708,26 86,22.7938945 86,19.4879741 C86,15.846531 88.6209777,13 92.8868533,13 L92.8868533,13 Z M94.4540104,17.7273821 C94.4540104,16.9565217 93.8111058,16.1351526 92.8868533,16.1351526 C91.6010441,16.1351526 90.9581395,16.8122109 90.6767916,17.7273821 L94.4540104,17.7273821 Z" id="Fill-1257" fill="#335E91"></path>
                    <path d="M50.2985173,29 C50.7940692,29 51.8523888,29.2279594 51.8523888,30.0148311 L51.8523888,30.4432848 L51.2962109,30.4432848 L51.2962109,30.1672617 C51.2962109,29.7703927 50.6622735,29.5781379 50.2985173,29.5781379 C49.3614498,29.5781379 48.6075783,30.3485306 48.6075783,31.5034331 C48.6075783,32.6803076 49.3970346,33.4122494 50.3169687,33.4122494 C51.2105437,33.4122494 51.721911,32.7379841 51.721911,32.7379841 L52,33.2213678 C52,33.2213678 51.4082372,34 50.2906096,34 C48.9871499,34 48,32.9851689 48,31.5034331 C48,30.0450426 48.9963756,29 50.2985173,29" id="Fill-1259" fill="#262E3B"></path>
                    <path d="M51.6537568,28.6906919 C51.6537568,28.5696046 51.5716499,28.502883 51.4291247,28.502883 L51,28.502883 L51,28 L51.7250194,28 C52.1634392,28 52.3477924,28.1532125 52.3477924,28.5189456 L52.3477924,33.3068369 C52.3477924,33.4353377 52.4283501,33.4958814 52.5708753,33.4958814 L53,33.4958814 L53,34 L52.2765298,34 C51.83811,34 51.6537568,33.8455519 51.6537568,33.4785832 L51.6537568,28.6906919 Z" id="Fill-1261" fill="#262E3B"></path>
                    <path d="M55.9971388,29 C57.1038627,29 58,30.0642681 58,31.4773414 C58,32.9178797 57.1038627,34 56.0040057,34 C54.8961373,34 54,32.9178797 54,31.4773414 C54,30.0642681 54.8961373,29 55.9971388,29 M56.0040057,33.4218621 C56.8097282,33.4218621 57.4735336,32.5869267 57.4735336,31.4773414 C57.4735336,30.3952211 56.8097282,29.5891239 56.0040057,29.5891239 C55.1902718,29.5891239 54.5276109,30.3952211 54.5276109,31.4773414 C54.5276109,32.5869267 55.1902718,33.4218621 56.0040057,33.4218621" id="Fill-1263" fill="#262E3B"></path>
                    <path d="M58.5720109,30.6286196 C58.5720109,30.5195389 58.4986413,30.4576891 58.3736413,30.4576891 L58,30.4576891 L58,30 L58.6345109,30 C59.0190217,30 59.1807065,30.1394434 59.1807065,30.4576891 L59.1807065,32.3446725 C59.1807065,32.9575485 59.2961957,33.5018274 60.1644022,33.5018274 C61.1834239,33.5018274 61.8179348,32.7168963 61.8179348,31.8712398 L61.8179348,30 L62.4252717,30 L62.4252717,33.2780433 C62.4252717,33.3949958 62.4972826,33.4467248 62.6236413,33.4467248 L63,33.4467248 L63,33.9055384 L62.3817935,33.9055384 C62.0040761,33.9055384 61.8369565,33.7672196 61.8369565,33.4714647 L61.8369565,33.2937869 C61.8369565,33.1363509 61.8532609,33.0126511 61.8532609,33.0126511 L61.8369565,33.0126511 C61.6576087,33.3949958 61.0679348,34 60.0828804,34 C59.0190217,34 58.5720109,33.5018274 58.5720109,32.4841158 L58.5720109,30.6286196 Z" id="Fill-1265" fill="#262E3B"></path>
                    <path d="M64.7317428,29.5780522 C65.6674425,29.5780522 65.9874891,30.3664709 65.9874891,30.3664709 L66.0037824,30.3664709 C66.0037824,30.3664709 65.9874891,30.2243369 65.9874891,30.0481879 L65.9874891,28.6790848 C65.9874891,28.562462 65.9292988,28.4944321 65.8210649,28.4944321 L65.4986907,28.4944321 L65.4986907,28 L66.0410241,28 C66.371545,28 66.5100378,28.1506378 66.5100378,28.5114396 L66.5100378,33.2188702 C66.5100378,33.3452116 66.5717195,33.403523 66.6787896,33.403523 L67,33.403523 L67,33.8979551 L66.4658132,33.8979551 C66.1422752,33.8979551 66.0037824,33.7412432 66.0037824,33.4290342 C66.0037824,33.2698927 66.0200756,33.1617736 66.0200756,33.1617736 L66.0037824,33.1617736 C66.0037824,33.1617736 65.6907186,34 64.6770439,34 C63.6447483,34 63,33.0937437 63,31.7853817 C63,30.4502936 63.7215595,29.5780522 64.7317428,29.5780522 M66.0037824,31.7853817 C66.0037824,30.928933 65.6069246,30.088277 64.778295,30.088277 C64.0963049,30.088277 63.5376782,30.7175542 63.5376782,31.7853817 C63.5376782,32.8252683 64.0346232,33.4885604 64.7550189,33.4885604 C65.3997672,33.4885604 66.0037824,32.9856246 66.0037824,31.7853817" id="Fill-1267" fill="#262E3B"></path>
                    <path d="M69.3163097,32.7201318 C69.3163097,32.7201318 69.7734761,33.4410876 70.5778418,33.4410876 C71.0325371,33.4410876 71.4390445,33.1856633 71.4390445,32.6816809 C71.4390445,31.6393848 69.145799,31.8288932 69.145799,30.2908542 C69.145799,29.4284537 69.779654,29 70.601318,29 C71.01771,29 71.8455519,29.1908816 71.8455519,29.8637737 L71.8455519,30.2730019 L71.3241351,30.2730019 L71.3241351,30.0436693 C71.3241351,29.6934908 70.8867381,29.5602856 70.6186161,29.5602856 C70.0490115,29.5602856 69.7067545,29.788245 69.7067545,30.2524032 C69.7067545,31.3249107 72,31.0790991 72,32.6624554 C72,33.4589399 71.3822076,34 70.5691928,34 C69.5041186,34 69,33.1650645 69,33.1650645 L69.3163097,32.7201318 Z" id="Fill-1269" fill="#262E3B"></path>
                    <path d="M73.9948498,29 C75.1038627,29 76,30.0642681 76,31.4773414 C76,32.9178797 75.1038627,34 74.0040057,34 C72.8961373,34 72,32.9178797 72,31.4773414 C72,30.0642681 72.8961373,29 73.9948498,29 M74.0040057,33.4218621 C74.8097282,33.4218621 75.4723891,32.5869267 75.4723891,31.4773414 C75.4723891,30.3952211 74.8097282,29.5891239 74.0040057,29.5891239 C73.1902718,29.5891239 72.5264664,30.3952211 72.5264664,31.4773414 C72.5264664,32.5869267 73.1902718,33.4218621 74.0040057,33.4218621" id="Fill-1271" fill="#262E3B"></path>
                    <path d="M76.6522076,28.6906919 C76.6522076,28.5696046 76.5701007,28.502883 76.4275755,28.502883 L76,28.502883 L76,28 L76.7250194,28 C77.1634392,28 77.3462432,28.1532125 77.3462432,28.5189456 L77.3462432,33.3068369 C77.3462432,33.4353377 77.4268009,33.4958814 77.5708753,33.4958814 L78,33.4958814 L78,34 L77.2734314,34 C76.8350116,34 76.6522076,33.8455519 76.6522076,33.4785832 L76.6522076,28.6906919 Z" id="Fill-1273" fill="#262E3B"></path>
                    <path d="M78.5706522,30.6286196 C78.5706522,30.5195389 78.4986413,30.4576891 78.375,30.4576891 L78,30.4576891 L78,30 L78.6345109,30 C79.0203804,30 79.1793478,30.1394434 79.1793478,30.4576891 L79.1793478,32.3446725 C79.1793478,32.9575485 79.2961957,33.5018274 80.1644022,33.5018274 C81.1834239,33.5018274 81.8179348,32.7168963 81.8179348,31.8712398 L81.8179348,30 L82.4252717,30 L82.4252717,33.2780433 C82.4252717,33.3949958 82.4986413,33.4467248 82.6236413,33.4467248 L83,33.4467248 L83,33.9055384 L82.3831522,33.9055384 C82.0054348,33.9055384 81.8369565,33.7672196 81.8369565,33.4714647 L81.8369565,33.2937869 C81.8369565,33.1363509 81.8546196,33.0126511 81.8546196,33.0126511 L81.8369565,33.0126511 C81.6576087,33.3949958 81.0679348,34 80.0842391,34 C79.0203804,34 78.5706522,33.5018274 78.5706522,32.4841158 L78.5706522,30.6286196 Z" id="Fill-1275" fill="#262E3B"></path>
                    <path d="M83.4893138,29.8203002 L83,29.8203002 L83,29.2919561 L83.4971879,29.2919561 L83.4971879,28 L83.9932508,28 L83.9932508,29.2919561 L84.9246344,29.2919561 L84.9246344,29.8203002 L83.9932508,29.8203002 L83.9932508,32.1985212 C83.9932508,33.2941967 84.5478065,33.434013 84.8290214,33.434013 C84.9325084,33.434013 85,33.4138472 85,33.4138472 L85,33.9798342 C85,33.9798342 84.9111361,34 84.7851519,34 C84.3543307,34 83.4893138,33.8225409 83.4893138,32.2630518 L83.4893138,29.8203002 Z" id="Fill-1277" fill="#262E3B"></path>
                    <path d="M85.6547711,30.3970346 C85.6547711,30.2784185 85.5725369,30.2092257 85.4282389,30.2092257 L85,30.2092257 L85,29.7063427 L85.7230411,29.7063427 C86.1636928,29.7063427 86.3467804,29.8595552 86.3467804,30.2265239 L86.3467804,33.3068369 C86.3467804,33.4365733 86.4305663,33.4958814 86.5717611,33.4958814 L87,33.4958814 L87,34 L86.2769589,34 C85.8363072,34 85.6547711,33.8467875 85.6547711,33.4785832 L85.6547711,30.3970346 Z M85.6330489,28.7339374 L86.3079907,28.7339374 L86.3079907,28 L85.6330489,28 L85.6330489,28.7339374 Z" id="Fill-1279" fill="#262E3B"></path>
                    <path d="M88.9965675,29 C90.104119,29 91,30.0642681 91,31.4773414 C91,32.9178797 90.104119,34 89.0045767,34 C87.8970252,34 87,32.9178797 87,31.4773414 C87,30.0642681 87.8970252,29 88.9965675,29 M89.0045767,33.4218621 C89.8100686,33.4218621 90.4736842,32.5869267 90.4736842,31.4773414 C90.4736842,30.3952211 89.8100686,29.5891239 89.0045767,29.5891239 C88.1910755,29.5891239 87.5297483,30.3952211 87.5297483,31.4773414 C87.5297483,32.5869267 88.1910755,33.4218621 89.0045767,33.4218621" id="Fill-1281" fill="#262E3B"></path>
                    <path d="M91.566927,30.7230812 C91.566927,30.6140006 91.4955562,30.5521507 91.3716671,30.5521507 L91,30.5521507 L91,30.0944616 L91.6207918,30.0944616 C91.9911123,30.0944616 92.162133,30.233905 92.162133,30.5285353 L92.162133,30.7062131 C92.162133,30.8636491 92.1432804,30.9862243 92.1432804,30.9862243 L92.162133,30.9862243 C92.3196876,30.6308687 92.8866146,30 93.9329383,30 C95.0425532,30 95.433073,30.5521507 95.433073,31.5158842 L95.433073,33.3725049 C95.433073,33.4894574 95.5017506,33.5411864 95.6269863,33.5411864 L96,33.5411864 L96,34 L95.3697818,34 C94.9886884,34 94.8284406,33.8616812 94.8284406,33.5276919 L94.8284406,31.6553275 C94.8284406,31.041327 94.7220576,30.4992972 93.8629141,30.4992972 C93.1007272,30.4992972 92.4449232,30.9569862 92.240237,31.602474 C92.1863722,31.7632837 92.1702128,31.942086 92.1702128,32.1287602 L92.1702128,34 L91.566927,34 L91.566927,30.7230812 Z" id="Fill-1283" fill="#262E3B"></path>
                    <path d="M96.3163097,32.7201318 C96.3163097,32.7201318 96.7722405,33.4410876 97.5766063,33.4410876 C98.0325371,33.4410876 98.4390445,33.1856633 98.4390445,32.6816809 C98.4390445,31.6393848 96.145799,31.8288932 96.145799,30.2908542 C96.145799,29.4284537 96.779654,29 97.6000824,29 C98.0164745,29 98.8455519,29.1908816 98.8455519,29.8637737 L98.8455519,30.2730019 L98.3253707,30.2730019 L98.3253707,30.0436693 C98.3253707,29.6934908 97.8855025,29.5602856 97.6173806,29.5602856 C97.0490115,29.5602856 96.7067545,29.788245 96.7067545,30.2524032 C96.7067545,31.3249107 99,31.0790991 99,32.6624554 C99,33.4589399 98.380972,34 97.5691928,34 C96.5041186,34 96,33.1650645 96,33.1650645 L96.3163097,32.7201318 Z" id="Fill-1285" fill="#262E3B"></path>
                    <polygon id="Fill-1288" fill="#335E91" points="49 26 53 26 53 22 49 22"></polygon>
                    <path d="M7.30786809,10.077177 C3.27309802,10.077177 0,13.4307748 0,17.568265 C0,18.8071176 0.292856138,19.9741343 0.810891576,21 C0.744445226,20.5929304 0.707530586,20.1745184 0.707530586,19.7472844 C0.707530586,15.6085339 3.9806286,12.2561964 8.01662917,12.2561964 L8.67124877,12.2561964 C8.7906061,6.66812699 13.2449726,2.17775911 18.723105,2.17775911 C22.2423007,2.17775911 25.3406694,4.03414751 27.1371818,6.84078497 C28.3627479,6.09344056 29.7962663,5.66242573 31.3269934,5.66242573 C32.6485375,5.66242573 33.8937913,5.98253616 35,6.5509212 C34.0069962,4.7777111 32.6116228,3.48340635 30.6194628,3.48340635 C29.0875053,3.48340635 27.6552173,3.91568145 26.4271903,4.66176559 C24.6319083,1.85512813 21.5347701,0 18.0155745,0 C12.5362115,0 8.084306,4.49162816 7.9624877,10.077177 L7.30786809,10.077177 Z" id="Fill-1289" fill="#335E91"></path>
                    <polygon id="Fill-1291" fill="#290F00" points="111.031 36 111.969 36 111.969 6 111.031 6"></polygon>
                    <polygon id="Fill-1292" fill="#F49A35" points="134.997619 14 133 13.2511721 133 10 135 10.6684528"></polygon>
                    <polygon id="Fill-1293" fill="#F49A35" points="135 10.6671132 137 10 136.992853 13.2498326 135 14"></polygon>
                    <polygon id="Fill-1294" fill="#F49A35" points="133 9.5335 134.989064 9.9495 137 9.5335 134.986491 9.0505"></polygon>
                    <polygon id="Fill-1295" fill="#F49A35" points="139.997619 14 138 13.2511721 138 10 140 10.6684528"></polygon>
                    <polygon id="Fill-1296" fill="#F49A35" points="140 10.6671132 142 10 141.992853 13.2498326 140 14"></polygon>
                    <polygon id="Fill-1297" fill="#F49A35" points="138 9.5335 139.989064 9.9495 142 9.5335 139.986491 9.0505"></polygon>
                    <polygon id="Fill-1298" fill="#F49A35" points="127 14.6657736 125 14 125 17.2511721 126.996431 18"></polygon>
                    <polygon id="Fill-1299" fill="#F49A35" points="127 14.6657736 129 14 128.992857 17.248493 127 18"></polygon>
                    <polygon id="Fill-1300" fill="#F49A35" points="125 14.535 126.988424 14.949 129 14.535 126.984566 14.051"></polygon>
                    <polygon id="Fill-1301" fill="#F49A35" points="131.997619 18 130 17.2498326 130 14 132 14.6657736"></polygon>
                    <polygon id="Fill-1302" fill="#F49A35" points="133 14.6657736 135 14 134.994041 17.248493 133 18"></polygon>
                    <polygon id="Fill-1303" fill="#F49A35" points="130 14.535 131.989064 14.949 134 14.535 131.986491 14.051"></polygon>
                    <polygon id="Fill-1304" fill="#F49A35" points="128.996431 23 127 22.2498326 127 19 129 19.6671132"></polygon>
                    <polygon id="Fill-1305" fill="#F49A35" points="130 19.6684528 132 19 131.994044 22.248493 130 23"></polygon>
                    <polygon id="Fill-1306" fill="#F49A35" points="128 18.535 129.989064 18.949 132 18.535 129.986491 18.051"></polygon>
                    <polygon id="Fill-1307" fill="#290F00" points="138.880521 20 138.736199 20 138.596609 20.1156015 138.15418 21.975094 137.7153 20.1184211 137.594637 20 137.420741 20 137.301262 20.1184211 136.894322 21.9567669 136.472003 20.1156015 136.328864 20 136.120662 20 136.010647 20.0606203 136 20.1395677 136.650631 22.8829887 136.766562 23 136.977129 23 137.096609 22.8801692 137.497634 21.0516917 137.932965 22.8815789 138.048896 23 138.254732 23 138.374211 22.8815789 139 20.1409774 138.98817 20.0606203"></polygon>
                    <g id="Group-1318" transform="translate(138.000000, 19.000000)" fill="#290F00">
                        <path d="M1.88004,1.09573333 C1.12284,1.09573333 0.77844,1.8384 0.77844,2.52773333 C0.77844,3.38906667 1.20684,3.94506667 1.86804,3.94506667 C2.34324,3.94506667 2.70564,3.6784 2.86044,3.2144 L2.85324,3.13173333 L2.77284,3.06906667 L2.56044,3.02373333 L2.42004,3.1064 C2.31804,3.36373333 2.12964,3.5104 1.89804,3.5184 C1.67364,3.5104 1.46844,3.3624 1.37244,3.13973333 C1.29684,2.96106667 1.28484,2.7824 1.28244,2.60106667 L2.80404,2.60106667 L2.89164,2.5584 L2.92164,2.48373333 C2.91804,1.8104 2.64204,1.09573333 1.88004,1.09573333 M2.42364,2.21573333 L1.30524,2.21573333 C1.32924,1.8664 1.53444,1.50506667 1.88004,1.49173333 C2.24844,1.50373333 2.41524,1.85973333 2.42364,2.21573333" id="Fill-1308"></path>
                        <path d="M4.33848,1.07146667 L4.29888,1.07146667 C4.04688,1.07146667 3.85008,1.18746667 3.69768,1.42346667 L3.69648,0.331466667 L3.57648,0.2128 L3.35928,0.2128 L3.23688,0.331466667 L3.23688,3.7448 L3.35928,3.86346667 L3.42168,3.86346667 L3.54048,3.75946667 L3.60888,3.5168 C3.76848,3.77013333 4.00728,3.9168 4.26288,3.9168 L4.30128,3.9168 C4.97688,3.9168 5.27928,3.18613333 5.27928,2.46346667 C5.27928,2.10613333 5.19888,1.7608 5.05968,1.52213333 C4.90008,1.24346667 4.62408,1.07146667 4.33848,1.07146667 M4.79208,2.53146667 C4.79208,2.69013333 4.76688,3.48346667 4.25688,3.50346667 C4.08768,3.4968 3.91608,3.38613333 3.82128,3.2208 C3.75048,3.09813333 3.70848,2.92746667 3.69768,2.71413333 L3.69768,2.24613333 C3.70608,1.89013333 3.93168,1.49546667 4.25688,1.4808 C4.76688,1.5048 4.79208,2.3608 4.79208,2.53146667" id="Fill-1310"></path>
                        <path d="M7.67196,2.454 C7.53036,2.342 7.35876,2.30466667 7.18716,2.26466667 L6.85836,2.198 C6.62436,2.15533333 6.48756,2.086 6.48756,1.854 C6.48756,1.61133333 6.71556,1.51666667 6.90876,1.51133333 C7.14396,1.518 7.32156,1.634 7.40676,1.83933333 L7.51956,1.92066667 L7.54596,1.918 L7.74996,1.86866667 L7.83156,1.802 L7.83876,1.72066667 C7.71276,1.31533333 7.39476,1.10066667 6.91476,1.10066667 C6.47916,1.102 6.01356,1.31666667 6.01356,1.91666667 C6.01356,2.326 6.24636,2.58866667 6.70356,2.69133333 L7.07196,2.76866667 C7.27356,2.81 7.47876,2.88733333 7.47876,3.13 C7.47876,3.486 7.10796,3.52066667 6.99276,3.522 C6.74076,3.51666667 6.45396,3.39266667 6.38436,3.12866667 L6.24636,3.04066667 L6.03276,3.08733333 L5.95236,3.15 L5.94276,3.234 C6.05196,3.67666667 6.43476,3.94066667 6.96516,3.94466667 L6.97716,3.94466667 C7.45356,3.94466667 7.95756,3.71933333 7.95756,3.08466667 C7.95756,2.82866667 7.85316,2.598 7.67196,2.454" id="Fill-1312"></path>
                        <path d="M9.2946,1.0984 C8.5374,1.0984 8.193,1.84106667 8.193,2.52906667 C8.193,3.3904 8.6202,3.94773333 9.2838,3.94773333 C9.759,3.94773333 10.119,3.68106667 10.2762,3.21706667 L10.2678,3.13573333 L10.1862,3.0704 L9.9774,3.0264 L9.8334,3.10773333 C9.7326,3.3664 9.5454,3.51173333 9.3138,3.52106667 C9.0882,3.51173333 8.883,3.36506667 8.787,3.14506667 C8.7114,2.96106667 8.6994,2.7864 8.6982,2.6024 L10.2186,2.6024 L10.3062,2.56106667 L10.3362,2.48373333 C10.3326,1.8144 10.0566,1.0984 9.2946,1.0984 M9.8394,2.2184 L8.7198,2.2184 C8.745,1.86906667 8.949,1.5064 9.2946,1.49173333 C9.663,1.5064 9.8298,1.85973333 9.8394,2.2184" id="Fill-1314"></path>
                        <path d="M11.77212,1.12973333 L11.68572,1.1244 C11.43012,1.1244 11.22372,1.2764 11.08092,1.5724 L11.08092,1.31373333 L10.96092,1.19773333 L10.76892,1.19773333 L10.65492,1.3164 L10.65372,3.81906667 L10.76892,3.93773333 L10.99212,3.93773333 L11.11572,3.81906667 L11.11572,2.55773333 C11.11572,2.34973333 11.13372,2.19106667 11.22252,2.00706667 C11.35092,1.74306667 11.52852,1.61373333 11.76852,1.61106667 L11.88132,1.4844 L11.88132,1.2524 L11.77212,1.12973333 Z" id="Fill-1316"></path>
                    </g>
                    <polygon id="Fill-1319" fill="#290F00" points="152.882554 20 152.716078 20 152.580388 20.1120448 152.041049 22.1946779 151.491448 20.1148459 151.355758 20 151.118586 20 151.011403 20.0602241 151 20.140056 151.752566 22.8823529 151.867731 23 152.153934 23 152.269099 22.8823529 153 20.1414566 152.989738 20.0616246"></polygon>
                    <path d="M153.4995,19.256 C153.3655,19.256 153.2555,19.366 153.2555,19.5 C153.2555,19.635 153.3655,19.744 153.4995,19.744 C153.6345,19.744 153.7445,19.635 153.7445,19.5 C153.7445,19.366 153.6345,19.256 153.4995,19.256" id="Fill-1320" fill="#290F00"></path>
                    <polygon id="Fill-1322" fill="#290F00" points="153.4015 20 153.2975 20.1280992 153.2955 22.8732782 153.3305 22.9641873 153.4005 23 153.6025 23 153.7045 22.8746556 153.7045 20.1280992 153.6015 20"></polygon>
                    <g id="Group-1341" transform="translate(135.000000, 14.000000)" fill="#290F00">
                        <path d="M20.0504571,7.90714286 L19.8436952,7.90714286 L19.7174095,8.00614286 C19.6394095,8.34557143 19.4710286,8.51914286 19.2110286,8.52685714 C18.7058857,8.51142857 18.6675048,7.78114286 18.6675048,7.55742857 C18.6675048,7.11128571 18.8160762,6.62914286 19.2308381,6.61885714 C19.4809333,6.62528571 19.6641714,6.81171429 19.7186476,7.11771429 L19.8362667,7.23342857 L20.0591238,7.236 L20.1755048,7.11257143 C20.0975048,6.56228571 19.7310286,6.20614286 19.2395048,6.20614286 L19.2234095,6.20742857 L19.2048381,6.20614286 C18.4916952,6.20614286 18.1722667,6.89657143 18.1722667,7.58185714 C18.1722667,8.21057143 18.4421714,8.94342857 19.2011238,8.94342857 L19.2370286,8.94342857 C19.7149333,8.94342857 20.073981,8.595 20.177981,8.03185714 L20.153219,7.956 L20.0504571,7.90714286 Z" id="Fill-1323"></path>
                        <path d="M21.5297333,6.20202857 C20.7497333,6.20202857 20.3931619,6.91817143 20.3931619,7.5816 C20.3931619,8.41217143 20.8339238,8.9496 21.5185905,8.9496 C22.0076381,8.9496 22.3815429,8.69245714 22.5424952,8.24502857 L22.5350667,8.1666 L22.4508762,8.1036 L22.2329714,8.06117143 L22.0856381,8.1396 C21.9816381,8.38902857 21.7884952,8.52917143 21.5495429,8.53817143 C21.316781,8.52917143 21.1038286,8.38774286 21.006019,8.1756 C20.928019,7.99817143 20.9168762,7.82974286 20.9156381,7.65231429 L22.4830667,7.65231429 L22.5746857,7.61245714 L22.6044,7.53788571 C22.5994476,6.89245714 22.3171619,6.20202857 21.5297333,6.20202857 M22.0918286,7.28202857 L20.9354476,7.28202857 C20.9614476,6.94388571 21.1731619,6.59545714 21.5297333,6.58131429 C21.9098286,6.59545714 22.0819238,6.93617143 22.0918286,7.28202857" id="Fill-1325"></path>
                        <path d="M24.5707429,7.50921429 C24.4221714,7.40121429 24.2463619,7.36521429 24.0693143,7.32664286 L23.7313143,7.26235714 C23.4874095,7.22121429 23.3475048,7.15435714 23.3475048,6.93064286 C23.3475048,6.62721429 23.7102667,6.6015 23.7808381,6.60021429 C24.0247429,6.60664286 24.207981,6.7185 24.2971238,6.9165 L24.4135048,6.99492857 L24.4395048,6.99235714 L24.6475048,6.94478571 L24.7329333,6.87921429 L24.7416,6.80207143 C24.6128381,6.41121429 24.2847429,6.20421429 23.7870286,6.20421429 C23.3388381,6.2055 22.8584571,6.4125 22.8584571,6.99107143 C22.8584571,7.38578571 23.0986476,7.63907143 23.5716,7.73807143 L23.9504571,7.81264286 C24.1584571,7.8525 24.3701714,7.92707143 24.3701714,8.16107143 C24.3701714,8.50435714 23.9876,8.53778571 23.8687429,8.53907143 C23.6273143,8.53392857 23.3177905,8.43107143 23.2410286,8.15978571 L23.0986476,8.07492857 L22.8782667,8.11992857 L22.7965524,8.18164286 L22.7854095,8.26135714 C22.8980762,8.68821429 23.2917905,8.94278571 23.8402667,8.94664286 L23.8526476,8.94664286 C24.3416952,8.94664286 24.8654095,8.72935714 24.8654095,8.11735714 C24.8654095,7.8705 24.7576952,7.64807143 24.5707429,7.50921429" id="Fill-1327"></path>
                        <path d="M14.5092381,1.233 L14.5092381,0.649285714 L14.651619,0.504 L17.1637143,0.504 L17.3085714,0.649285714 L17.3085714,1.14942857 C17.3085714,1.233 17.2417143,1.341 17.120381,1.51585714 L15.8191429,3.44442857 C16.302,3.43285714 16.8120952,3.50742857 17.250381,3.76457143 L17.3853333,3.99085714 L17.3853333,4.61314286 L17.198381,4.74557143 C16.4258095,4.32385714 15.4006667,4.27757143 14.5439048,4.75071429 L14.3668571,4.61442857 L14.3668571,4.02428571 C14.3668571,3.93171429 14.3680952,3.76971429 14.4597143,3.62314286 L15.9689524,1.38085714 L14.6553333,1.37957143 L14.5092381,1.233 Z" id="Fill-1329"></path>
                        <path d="M5.34733333,4.86668571 L4.58342857,4.86668571 L4.446,4.73425714 L4.4472381,0.661114286 L4.59333333,0.513257143 L5.3052381,0.513257143 L5.44514286,0.649542857 L5.44514286,1.18182857 L5.4587619,1.18182857 C5.64571429,0.667542857 5.99361905,0.4284 6.46533333,0.4284 C6.9432381,0.4284 7.24285714,0.667542857 7.45580952,1.18182857 C7.64152381,0.667542857 8.06247619,0.4284 8.51314286,0.4284 C8.83380952,0.4284 9.18295238,0.564685714 9.39466667,0.873257143 C9.63733333,1.21782857 9.58780952,1.71282857 9.58780952,2.15254286 L9.58780952,4.72011429 L9.44171429,4.86668571 L8.67657143,4.86668571 L8.54038095,4.72268571 L8.54038095,2.5614 C8.54038095,2.38911429 8.5552381,1.96225714 8.51933333,1.80025714 C8.46238095,1.52511429 8.29152381,1.44797143 8.07114286,1.44797143 C7.88542857,1.44797143 7.69352381,1.57525714 7.61304762,1.78097143 C7.53504762,1.98668571 7.5412381,2.32868571 7.5412381,2.5614 L7.5412381,4.72011429 L7.39514286,4.86668571 L6.6312381,4.86668571 L6.49380952,4.72268571 L6.49380952,2.5614 C6.49380952,2.10754286 6.56561905,1.43897143 6.02209524,1.43897143 C5.47361905,1.43897143 5.49466667,2.09211429 5.49466667,2.5614 L5.49466667,4.72011429 L5.34733333,4.86668571 Z" id="Fill-1331"></path>
                        <path d="M19.4712762,0.428785714 C20.6066095,0.428785714 21.2194667,1.44064286 21.2194667,2.72507143 C21.2194667,3.96707143 20.5409905,4.95321429 19.4712762,4.95321429 C18.3594667,4.95321429 17.7515619,3.94135714 17.7515619,2.68264286 C17.7515619,1.41364286 18.3656571,0.428785714 19.4712762,0.428785714 M19.4774667,1.25935714 C18.9153714,1.25935714 18.8782286,2.05778571 18.8782286,2.55278571 C18.8782286,3.05035714 18.8720381,4.11364286 19.4712762,4.11364286 C20.0630857,4.11364286 20.0915619,3.25735714 20.0915619,2.73278571 C20.0915619,2.39078571 20.0779429,1.97935714 19.9801333,1.65407143 C19.8922286,1.37121429 19.7213714,1.25935714 19.4774667,1.25935714" id="Fill-1333"></path>
                        <path d="M22.6902,4.86668571 L21.9300095,4.86668571 L21.792581,4.72268571 L21.7901048,0.645685714 L21.9386762,0.513257143 L22.6468667,0.513257143 L22.781819,0.627685714 L22.781819,1.24997143 L22.7954381,1.24997143 C23.0096286,0.695828571 23.3104857,0.4284 23.8379143,0.4284 C24.1796286,0.4284 24.5151524,0.555685714 24.7293429,0.907971429 C24.9286762,1.23325714 24.9286762,1.78097143 24.9286762,2.17568571 L24.9286762,4.73811429 L24.783819,4.86668571 L24.0174381,4.86668571 L23.8787714,4.73811429 L23.8787714,2.52797143 C23.8787714,2.08054286 23.9282952,1.43125714 23.4021048,1.43125714 C23.2176286,1.43125714 23.0467714,1.55982857 22.9601048,1.75525714 C22.8523905,2.00468571 22.8387714,2.25282857 22.8387714,2.52797143 L22.8387714,4.72011429 L22.6902,4.86668571 Z" id="Fill-1335"></path>
                        <path d="M12.5074857,2.9232 C12.5074857,3.23177143 12.5149143,3.4902 12.3651048,3.76405714 C12.2437714,3.98777143 12.0493905,4.12534286 11.8352,4.12534286 C11.5430095,4.12534286 11.3696762,3.89391429 11.3696762,3.55062857 C11.3696762,2.87434286 11.9540571,2.75091429 12.5074857,2.75091429 L12.5074857,2.9232 Z M13.277581,4.85691429 L13.0980571,4.87491429 C12.8442476,4.65762857 12.7984381,4.55605714 12.6610095,4.34777143 C12.2400571,4.79005714 11.9429143,4.92377143 11.3993905,4.92377143 C10.755581,4.92377143 10.2553905,4.51105714 10.2553905,3.68562857 C10.2553905,3.04277143 10.5921524,2.60434286 11.0700571,2.38962857 C11.484819,2.20062857 12.0642476,2.16591429 12.5074857,2.1132 L12.5074857,2.01291429 C12.5074857,1.82262857 12.5223429,1.59891429 12.4158667,1.43691429 C12.3217714,1.28905714 12.1434857,1.22991429 11.9862476,1.22991429 C11.6952952,1.22991429 11.4352952,1.38548571 11.3709143,1.70691429 L11.2384381,1.8522 L10.496819,1.76862857 L10.3841524,1.60405714 C10.5550095,0.670628571 11.3659619,0.387771429 12.0927238,0.387771429 C12.4641524,0.387771429 12.9507238,0.490628571 13.2441524,0.783771429 C13.615581,1.14505714 13.5796762,1.62591429 13.5796762,2.1492 L13.5796762,3.38605714 C13.5796762,3.75762857 13.7294857,3.92091429 13.8693905,4.12148571 L13.8656762,4.33105714 C13.7096762,4.46734286 13.4323429,4.71805714 13.2800571,4.8582 L13.277581,4.85691429 Z" id="Fill-1337"></path>
                        <path d="M2.48931429,2.9232 C2.48931429,3.23177143 2.49674286,3.4902 2.34693333,3.76405714 C2.2256,3.98777143 2.03121905,4.12534286 1.81702857,4.12534286 C1.5248381,4.12534286 1.35150476,3.89391429 1.35150476,3.55062857 C1.35150476,2.87434286 1.93588571,2.75091429 2.48931429,2.75091429 L2.48931429,2.9232 Z M3.25940952,4.85691429 L3.07864762,4.87491429 C2.8248381,4.65762857 2.77902857,4.55605714 2.6403619,4.34777143 C2.22188571,4.79005714 1.92350476,4.92377143 1.38121905,4.92377143 C0.737409524,4.92377143 0.235980952,4.51105714 0.235980952,3.68562857 C0.235980952,3.04277143 0.573980952,2.60434286 1.05312381,2.38962857 C1.46664762,2.20062857 2.04607619,2.16591429 2.48931429,2.1132 L2.48931429,2.01291429 C2.48931429,1.82262857 2.50293333,1.59891429 2.39645714,1.43691429 C2.3023619,1.28905714 2.12407619,1.22991429 1.96807619,1.22991429 C1.67712381,1.22991429 1.41712381,1.38548571 1.35274286,1.70691429 L1.22026667,1.8522 L0.478647619,1.76862857 L0.365980952,1.60405714 C0.5356,0.670628571 1.34655238,0.387771429 2.07455238,0.387771429 C2.44721905,0.387771429 2.93255238,0.490628571 3.22598095,0.783771429 C3.59740952,1.14505714 3.56150476,1.62591429 3.56150476,2.1492 L3.56150476,3.38605714 C3.56150476,3.75762857 3.71131429,3.92091429 3.84874286,4.12148571 L3.84626667,4.33105714 C3.69026667,4.46734286 3.41293333,4.71805714 3.26188571,4.8582 L3.25940952,4.85691429 Z" id="Fill-1339"></path>
                    </g>
                    <polygon id="Fill-1342" fill="#290F00" points="167 19 167.298167 19 169.749491 22.6689189 169.761711 22.6689189 169.761711 19 170 19 170 23 169.717719 23 167.249287 19.3027027 167.239511 19.3027027 167.239511 23 167 23"></polygon>
                    <g id="Group-1347" transform="translate(169.000000, 19.000000)" fill="#290F00">
                        <path d="M1.31412,2.773625 C1.30332,3.399875 1.64532,3.971125 2.32332,3.971125 C2.84172,3.971125 3.21012,3.669875 3.30612,3.178625 L3.50892,3.178625 C3.40092,3.799875 2.97612,4.141125 2.32332,4.141125 C1.52172,4.141125 1.09932,3.531125 1.11132,2.794875 C1.09932,2.064875 1.49652,1.354875 2.32332,1.354875 C3.18252,1.354875 3.56892,2.012375 3.53172,2.773625 L1.31412,2.773625 Z M3.32772,2.602375 C3.31692,2.043625 2.95452,1.524875 2.32332,1.524875 C1.71372,1.524875 1.35732,2.073625 1.31412,2.602375 L3.32772,2.602375 Z" id="Fill-1343"></path>
                        <path d="M4.98912,1.58675 L4.39152,1.58675 L4.39152,3.44675 C4.39152,3.878 4.59912,3.918 4.98312,3.90675 L4.98312,4.07925 C4.56792,4.1055 4.16712,4.04925 4.18752,3.44675 L4.18752,1.58675 L3.68112,1.58675 L3.68112,1.4155 L4.18752,1.4155 L4.18752,0.58675 L4.39152,0.58675 L4.39152,1.4155 L4.98912,1.4155 L4.98912,1.58675 Z" id="Fill-1345"></path>
                    </g>
                    <polygon id="Fill-1348" fill="#290F00" points="175.051095 22.7423745 175.063789 22.7423745 175.85338 20 176.141542 20 176.93748 22.7423745 176.950175 22.7423745 177.762615 20 178 20 177.068232 23 176.80292 23 176.005712 20.281558 175.994288 20.281558 175.190733 23 174.921612 23 174 20 174.232307 20"></polygon>
                    <g id="Group-1353" transform="translate(178.000000, 20.000000)" fill="#290F00">
                        <path d="M1.862,0.109866667 C2.70075,0.109866667 3.1745,0.7912 3.1745,1.5992 C3.1745,2.40453333 2.70075,3.08453333 1.862,3.08453333 C1.022,3.08453333 0.54825,2.40453333 0.54825,1.5992 C0.54825,0.7912 1.022,0.109866667 1.862,0.109866667 M1.862,2.90053333 C2.57825,2.90053333 2.962,2.27653333 2.962,1.5992 C2.962,0.917866667 2.57825,0.2952 1.862,0.2952 C1.1445,0.2952 0.762,0.917866667 0.762,1.5992 C0.762,2.27653333 1.1445,2.90053333 1.862,2.90053333" id="Fill-1349"></path>
                        <path d="M3.854125,0.806266667 L3.871625,0.806266667 C3.980375,0.436933333 4.449125,0.136933333 4.966625,0.160933333 L4.966625,0.370266667 C4.745375,0.3436 4.432875,0.398266667 4.176625,0.6476 C3.965375,0.862266667 3.877875,1.0396 3.854125,1.46493333 L3.854125,3.01826667 L3.642875,3.01826667 L3.642875,0.1796 L3.854125,0.1796 L3.854125,0.806266667 Z" id="Fill-1351"></path>
                    </g>
                    <polygon id="Fill-1354" fill="#290F00" points="183 19 183.178364 19 183.178364 21.65 184.667546 20.1202703 184.925066 20.1202703 183.868602 21.1959459 185 23 184.756201 23 183.727177 21.3581081 183.178364 21.9121622 183.178364 23 183 23"></polygon>
                    <g id="Group-1369" transform="translate(167.000000, 14.000000)" fill="#290F00">
                        <path d="M0.161353846,0.546875 L1.80196923,0.546875 C2.23766154,0.546875 2.9232,0.695625 2.9232,1.568125 C2.9232,2.203125 2.48012308,2.566875 1.71581538,2.566875 L0.400123077,2.566875 L0.400123077,4.189375 L0.161353846,4.189375 L0.161353846,0.546875 Z M0.400123077,2.373125 L1.75273846,2.373125 C2.44812308,2.373125 2.68443077,1.939375 2.68443077,1.561875 C2.68443077,1.290625 2.5552,0.740625 1.78596923,0.740625 L0.400123077,0.740625 L0.400123077,2.373125 Z" id="Fill-1355"></path>
                        <path d="M5.36492308,3.70425 C5.36492308,3.85675 5.36492308,4.0205 5.54830769,4.0205 L5.69969231,4.0055 L5.69969231,4.16925 L5.53230769,4.1905 C5.20984615,4.1905 5.16061538,4.0205 5.16061538,3.8055 L5.16061538,3.66925 L5.14953846,3.66925 C5.02030769,3.9805 4.64861538,4.25175 4.12061538,4.25175 C3.59753846,4.25175 3.19261538,4.06175 3.19261538,3.51175 C3.19261538,2.898 3.75261538,2.77175 4.21169231,2.7355 C5.12738462,2.67425 5.16553846,2.61675 5.16553846,2.18925 C5.16553846,2.073 5.02523077,1.67425 4.39507692,1.67425 C3.89907692,1.67425 3.57046154,1.918 3.54215385,2.373 L3.33784615,2.373 C3.36492308,1.798 3.74153846,1.5055 4.39507692,1.5055 C4.88,1.5055 5.36492308,1.64925 5.36492308,2.18925 L5.36492308,3.70425 Z M5.16061538,2.69925 C4.99815385,2.873 4.55753846,2.853 4.15753846,2.903 C3.67261538,2.9555 3.39815385,3.11925 3.39815385,3.51175 C3.39815385,3.82675 3.64061538,4.08175 4.12553846,4.08175 C5.05846154,4.08175 5.16061538,3.328 5.16061538,3.188 L5.16061538,2.69925 Z" id="Fill-1357"></path>
                        <path d="M6.23372308,2.149125 L6.25095385,2.149125 C6.35803077,1.806625 6.80972308,1.531625 7.31187692,1.552875 L7.31187692,1.745375 C7.09526154,1.719125 6.79372308,1.771625 6.54633846,2.001625 C6.3408,2.199125 6.25587692,2.364125 6.23372308,2.756625 L6.23372308,4.190375 L6.02818462,4.190375 L6.02818462,1.566625 L6.23372308,1.566625 L6.23372308,2.149125 Z" id="Fill-1359"></path>
                        <path d="M8.69206154,1.736125 L8.08898462,1.736125 L8.08898462,3.567375 C8.08898462,3.991125 8.29821538,4.031125 8.68713846,4.021125 L8.68713846,4.189875 C8.26621538,4.213625 7.86129231,4.158625 7.88467692,3.567375 L7.88467692,1.736125 L7.37144615,1.736125 L7.37144615,1.566125 L7.88467692,1.566125 L7.88467692,0.751125 L8.08898462,0.751125 L8.08898462,1.566125 L8.69206154,1.566125 L8.69206154,1.736125 Z" id="Fill-1361"></path>
                        <path d="M9.08024615,1.567875 L9.28578462,1.567875 L9.28578462,2.129125 L9.29563077,2.129125 C9.43716923,1.736625 9.85809231,1.506625 10.2876308,1.506625 C11.2636308,1.506625 11.2734769,2.246625 11.2734769,2.566625 L11.2734769,4.190375 L11.0704,4.190375 L11.0704,2.530375 C11.0704,2.261625 11.0359385,1.674125 10.2839385,1.674125 C9.6624,1.674125 9.28578462,2.129125 9.28578462,2.770375 L9.28578462,4.190375 L9.08024615,4.190375 L9.08024615,1.567875 Z" id="Fill-1363"></path>
                        <path d="M11.9704615,2.903875 C11.9593846,3.521375 12.304,4.082625 12.9895385,4.082625 C13.5113846,4.082625 13.8830769,3.785125 13.9803077,3.301375 L14.1858462,3.301375 C14.0787692,3.913875 13.648,4.250125 12.9895385,4.250125 C12.1796923,4.250125 11.7550769,3.648875 11.7661538,2.923875 C11.7550769,2.205125 12.1526154,1.506375 12.9895385,1.506375 C13.8572308,1.506375 14.2461538,2.152625 14.2067692,2.903875 L11.9704615,2.903875 Z M14.0036923,2.735125 C13.9926154,2.183875 13.6258462,1.673875 12.9895385,1.673875 C12.3741538,1.673875 12.0135385,2.216375 11.9704615,2.735125 L14.0036923,2.735125 Z" id="Fill-1365"></path>
                        <path d="M14.904,2.149125 L14.92,2.149125 C15.0283077,1.806625 15.4812308,1.531625 15.9821538,1.552875 L15.9821538,1.745375 C15.7655385,1.719125 15.464,1.771625 15.2166154,2.001625 C15.0110769,2.199125 14.9249231,2.364125 14.904,2.756625 L14.904,4.190375 L14.6984615,4.190375 L14.6984615,1.566625 L14.904,1.566625 L14.904,2.149125 Z" id="Fill-1367"></path>
                    </g>
                    <polygon id="Fill-1370" fill="#290F00" points="163.408 26 163.592 26 163.592 12 163.408 12"></polygon>
                    <path d="M130.15673,29 L131,31 L130.681623,31 L130.448064,30.3980583 L129.533497,30.3980583 L129.291334,31 L129,31 L129.839582,29 L130.15673,29 Z M130.35587,30.1741862 L129.996927,29.2410051 L129.990781,29.2410051 L129.625691,30.1741862 L130.35587,30.1741862 Z" id="Fill-1371" fill="#290F00"></path>
                    <path d="M131.831834,29 C132.20692,29 132.496194,29.0777143 132.696886,29.2354286 C132.898962,29.392 133,29.6331429 133,29.9531429 C133,30.1211429 132.977855,30.2697143 132.930796,30.3988571 C132.885121,30.5291429 132.817301,30.6388571 132.721799,30.728 C132.626298,30.816 132.504498,30.8845714 132.356401,30.9314286 C132.209689,30.9782857 132.03391,31 131.831834,31 L131,31 L131,29 L131.831834,29 Z M131.8609,30.7771429 L131.995156,30.7702857 L132.16955,30.7371429 L132.350865,30.6594286 L132.512803,30.5211429 L132.63045,30.3051429 C132.6609,30.2182857 132.677509,30.112 132.677509,29.9885714 C132.677509,29.8685714 132.662284,29.7634286 132.633218,29.6697143 L132.493426,29.4274286 L132.244291,29.2754286 C132.141869,29.2411429 132.017301,29.224 131.866436,29.224 L131.323875,29.224 L131.323875,30.7771429 L131.8609,30.7771429 Z" id="Fill-1372" fill="#290F00"></path>
                    <polygon id="Fill-1374" fill="#290F00" points="133.818061 31 133 29 133.330677 29 133.998672 30.7348571 134.005312 30.7348571 134.677291 29 135 29 134.169987 31"></polygon>
                    <path d="M136.157248,29 L137,31 L136.681818,31 L136.447174,30.3980583 L135.534398,30.3980583 L135.293612,31 L135,31 L135.840295,29 L136.157248,29 Z M136.356265,30.1741862 L135.997543,29.2410051 L135.9914,29.2410051 L135.625307,30.1741862 L136.356265,30.1741862 Z" id="Fill-1375" fill="#290F00"></path>
                    <polygon id="Fill-1376" fill="#290F00" points="137.354539 29 138.674053 30.6210046 138.68263 30.6210046 138.68263 29 139 29 139 31 138.632595 31 137.324518 29.3949772 137.31594 29.3949772 137.31594 31 137 31 137 29"></polygon>
                    <path d="M140.460903,29.3164212 C140.346472,29.2498636 140.210426,29.2138571 140.055308,29.2138571 C139.921805,29.2138571 139.806103,29.2367703 139.712015,29.2793235 L139.478067,29.4517185 C139.417038,29.5237316 139.372537,29.6055646 139.342022,29.6993999 C139.312778,29.7910529 139.297521,29.8881615 139.297521,29.9885434 C139.297521,30.0976541 139.312778,30.2002182 139.342022,30.2973268 C139.372537,30.3955265 139.417038,30.4795417 139.478067,30.5526459 L139.713287,30.7239498 C139.809917,30.766503 139.924348,30.7894163 140.059123,30.7894163 L140.319771,30.745772 L140.516847,30.6312057 L140.645264,30.4555374 L140.701208,30.2362248 L141,30.2362248 C140.969485,30.4784506 140.874126,30.6661211 140.707565,30.7992362 C140.543547,30.9323513 140.3185,31 140.034965,31 C139.862047,31 139.709472,30.9749045 139.579784,30.9236225 C139.451367,30.8734315 139.342022,30.8025095 139.258106,30.7141298 C139.171647,30.6257501 139.109345,30.5188216 139.066116,30.3987998 C139.022886,30.2755046 139,30.146754 139,30.0060011 C139,29.8696127 139.024158,29.7375887 139.071202,29.6153846 C139.116974,29.4920895 139.184361,29.3851609 139.273363,29.2956901 C139.361093,29.2040371 139.470439,29.1331151 139.603942,29.080742 C139.737444,29.0272777 139.888748,29 140.059123,29 C140.176097,29 140.286713,29.0152755 140.38843,29.040371 L140.66815,29.1593017 L140.871583,29.3524277 C140.924984,29.4288052 140.960585,29.5204583 140.978385,29.6219313 L140.680865,29.6219313 C140.646535,29.487725 140.574062,29.3829787 140.460903,29.3164212" id="Fill-1377" fill="#290F00"></path>
                    <polygon id="Fill-1379" fill="#290F00" points="142.988515 29 142.988515 29.2237443 141.383921 29.2237443 141.383921 29.8607306 142.88023 29.8607306 142.88023 30.0844749 141.383921 30.0844749 141.383921 30.7751142 143 30.7751142 143 31 141 31 141 29"></polygon>
                    <path d="M143.833218,29 C144.208304,29 144.49481,29.0777143 144.69827,29.2354286 C144.898962,29.392 145,29.6331429 145,29.9531429 C145,30.1211429 144.976471,30.2697143 144.930796,30.3988571 C144.887889,30.5291429 144.815917,30.6388571 144.720415,30.728 C144.626298,30.816 144.503114,30.8845714 144.356401,30.9314286 C144.211073,30.9782857 144.03391,31 143.833218,31 L143,31 L143,29 L143.833218,29 Z M143.859516,30.7771429 L143.995156,30.7702857 L144.16955,30.7371429 L144.350865,30.6594286 L144.512803,30.5211429 L144.631834,30.3051429 C144.6609,30.2182857 144.677509,30.112 144.677509,29.9885714 C144.677509,29.8685714 144.662284,29.7634286 144.635986,29.6697143 L144.49481,29.4274286 L144.244291,29.2754286 C144.143253,29.2411429 144.017301,29.224 143.866436,29.224 L143.322491,29.224 L143.322491,30.7771429 L143.859516,30.7771429 Z" id="Fill-1380" fill="#290F00"></path>
                    <polygon id="Fill-1382" fill="#290F00" points="146 29.2237443 146 29 148 29 148 29.2237443 147.165242 29.2237443 147.165242 31 146.833333 31 146.833333 29.2237443"></polygon>
                    <polygon id="Fill-1383" fill="#290F00" points="149.986885 29 149.986885 29.2237443 148.383607 29.2237443 148.383607 29.8607306 149.880328 29.8607306 149.880328 30.0844749 148.383607 30.0844749 148.383607 30.7751142 150 30.7751142 150 31 148 31 148 29"></polygon>
                    <path d="M151.460216,29.3164212 C151.346913,29.2498636 151.21324,29.2138571 151.055379,29.2138571 C150.921706,29.2138571 150.808402,29.2367703 150.712922,29.2793235 L150.477403,29.4517185 C150.417568,29.5237316 150.370465,29.6055646 150.342457,29.6993999 C150.313176,29.7910529 150.297899,29.8881615 150.297899,29.9885434 C150.297899,30.0976541 150.313176,30.2002182 150.342457,30.2973268 C150.370465,30.3955265 150.417568,30.4795417 150.477403,30.5526459 L150.714195,30.7239498 C150.810948,30.766503 150.924252,30.7894163 151.057925,30.7894163 L151.320178,30.745772 L151.516232,30.6312057 L151.647358,30.4555374 L151.703374,30.2362248 L152,30.2362248 C151.971992,30.4784506 151.875239,30.6661211 151.709739,30.7992362 C151.544239,30.9323513 151.320178,31 151.03501,31 C150.859325,31 150.709102,30.9749045 150.579249,30.9236225 C150.450668,30.8734315 150.342457,30.8025095 150.257161,30.7141298 C150.171865,30.6257501 150.108211,30.5188216 150.063654,30.3987998 C150.021642,30.2755046 150,30.146754 150,30.0060011 C150,29.8696127 150.024188,29.7375887 150.070019,29.6153846 C150.114577,29.4920895 150.183323,29.3851609 150.271165,29.2956901 C150.359007,29.2040371 150.471038,29.1331151 150.603437,29.080742 C150.735837,29.0272777 150.887333,29 151.057925,29 C151.175048,29 151.285805,29.0152755 151.388924,29.040371 L151.669001,29.1593017 L151.872693,29.3524277 C151.927435,29.4288052 151.961808,29.5204583 151.979631,29.6219313 L151.681731,29.6219313 C151.648631,29.487725 151.574793,29.3829787 151.460216,29.3164212" id="Fill-1384" fill="#290F00"></path>
                    <polygon id="Fill-1386" fill="#290F00" points="152.336449 29 152.336449 29.8607306 153.663551 29.8607306 153.663551 29 154 29 154 31 153.663551 31 153.663551 30.0844749 152.336449 30.0844749 152.336449 31 152 31 152 29"></polygon>
                    <polygon id="Fill-1387" fill="#290F00" points="154.355714 29 155.674286 30.6210046 155.681429 30.6210046 155.681429 29 156 29 156 31 155.634286 31 154.324286 29.3949772 154.315714 29.3949772 154.315714 31 154 31 154 29"></polygon>
                    <path d="M156.061868,29.6244541 C156.1047,29.5043668 156.167757,29.3973799 156.251041,29.3045852 C156.335515,29.2117904 156.439024,29.1375546 156.56395,29.0818777 C156.687686,29.0272926 156.834027,29 156.999405,29 C157.165973,29 157.312314,29.0272926 157.43605,29.0818777 C157.559786,29.1375546 157.664485,29.2117904 157.747769,29.3045852 C157.832243,29.3973799 157.89649,29.5043668 157.938132,29.6244541 C157.977394,29.7456332 158,29.8689956 158,30 C158,30.1310044 157.977394,30.2565502 157.938132,30.3777293 C157.89649,30.4967249 157.832243,30.6048035 157.747769,30.6965066 C157.664485,30.7893013 157.559786,30.8635371 157.43605,30.9181223 C157.312314,30.9716157 157.165973,31 156.999405,31 C156.834027,31 156.687686,30.9716157 156.56395,30.9181223 C156.439024,30.8635371 156.335515,30.7893013 156.251041,30.6965066 C156.167757,30.6048035 156.1047,30.4967249 156.061868,30.3777293 C156.020226,30.2565502 156,30.1310044 156,30 C156,29.8689956 156.020226,29.7456332 156.061868,29.6244541 M156.317668,30.2860262 C156.345033,30.378821 156.387864,30.4628821 156.446163,30.5393013 L156.672219,30.7183406 C156.762641,30.7652838 156.8721,30.7871179 156.999405,30.7871179 C157.12671,30.7871179 157.234979,30.7652838 157.326591,30.7183406 L157.551457,30.5393013 C157.609756,30.4628821 157.653778,30.378821 157.682332,30.2860262 C157.708507,30.1921397 157.722784,30.0971616 157.722784,30 C157.722784,29.9039301 157.708507,29.8111354 157.682332,29.7150655 C157.653778,29.6222707 157.609756,29.5371179 157.551457,29.4617904 L157.326591,29.2827511 C157.234979,29.2368996 157.12671,29.2139738 156.999405,29.2139738 C156.8721,29.2139738 156.762641,29.2368996 156.672219,29.2827511 L156.446163,29.4617904 C156.387864,29.5371179 156.345033,29.6222707 156.317668,29.7150655 C156.290303,29.8111354 156.277216,29.9039301 156.277216,30 C156.277216,30.0971616 156.290303,30.1921397 156.317668,30.2860262" id="Fill-1388" fill="#290F00"></path>
                    <polygon id="Fill-1390" fill="#290F00" points="159.201204 29 159.201204 30.7751142 160 30.7751142 160 31 159 31 159 29"></polygon>
                    <g id="Group-1395" transform="translate(159.000000, 29.000000)" fill="#290F00">
                        <path d="M1.15692,1.0352 C1.19892,0.888533333 1.26252,0.757866667 1.34772,0.644533333 C1.43292,0.5312 1.53732,0.440533333 1.66332,0.372533333 C1.78812,0.305866667 1.93692,0.272533333 2.10252,0.272533333 C2.27052,0.272533333 2.41812,0.305866667 2.54292,0.372533333 C2.66772,0.440533333 2.77332,0.5312 2.85732,0.644533333 C2.94252,0.757866667 3.00732,0.888533333 3.04692,1.0352 C3.09012,1.1832 3.11172,1.33386667 3.11172,1.49386667 C3.11172,1.65386667 3.09012,1.8072 3.04692,1.9552 C3.00732,2.10053333 2.94252,2.23253333 2.85732,2.34453333 C2.77332,2.45786667 2.66772,2.54853333 2.54292,2.6152 C2.41812,2.68053333 2.27052,2.7152 2.10252,2.7152 C1.93692,2.7152 1.78812,2.68053333 1.66332,2.6152 C1.53732,2.54853333 1.43292,2.45786667 1.34772,2.34453333 C1.26252,2.23253333 1.19892,2.10053333 1.15692,1.9552 C1.11492,1.8072 1.09452,1.65386667 1.09452,1.49386667 C1.09452,1.33386667 1.11492,1.1832 1.15692,1.0352 M1.41492,1.8432 C1.44372,1.95653333 1.48572,2.0592 1.54452,2.15253333 L1.77252,2.3712 C1.86372,2.42853333 1.97652,2.4552 2.10252,2.4552 C2.23092,2.4552 2.34012,2.42853333 2.43252,2.3712 L2.66052,2.15253333 C2.71812,2.0592 2.76252,1.95653333 2.79132,1.8432 C2.81772,1.72853333 2.83212,1.61253333 2.83212,1.49386667 C2.83212,1.37653333 2.81772,1.2632 2.79132,1.14586667 C2.76252,1.03253333 2.71812,0.928533333 2.66052,0.836533333 L2.43252,0.617866667 C2.34012,0.561866667 2.23092,0.533866667 2.10252,0.533866667 C1.97652,0.533866667 1.86372,0.561866667 1.77252,0.617866667 L1.54452,0.836533333 C1.48572,0.928533333 1.44372,1.03253333 1.41492,1.14586667 C1.38852,1.2632 1.37412,1.37653333 1.37412,1.49386667 C1.37412,1.61253333 1.38852,1.72853333 1.41492,1.8432" id="Fill-1391"></path>
                        <path d="M4.72212,2.63493333 C4.59972,2.68693333 4.47732,2.71626667 4.35492,2.71626667 C4.19652,2.71626667 4.05612,2.6816 3.93252,2.6176 C3.80772,2.5536 3.70212,2.46693333 3.61692,2.3576 C3.52932,2.24826667 3.46452,2.12293333 3.41892,1.98293333 C3.37332,1.84026667 3.34932,1.6936 3.34932,1.54026667 C3.34932,1.3696 3.37212,1.20826667 3.41412,1.0536 C3.45612,0.9016 3.52092,0.7656 3.60252,0.650933333 C3.68652,0.536266667 3.78972,0.442933333 3.91452,0.374933333 C4.04052,0.3056 4.18572,0.272266667 4.35492,0.272266667 C4.46652,0.272266667 4.57452,0.2856 4.67652,0.316266667 L4.94772,0.454933333 L5.14812,0.694933333 C5.20212,0.792266667 5.23932,0.9096 5.25972,1.04693333 L4.97892,1.04693333 L4.90212,0.816266667 L4.76292,0.656266667 L4.57572,0.564266667 L4.35492,0.5336 C4.22532,0.5336 4.11612,0.5616 4.02372,0.618933333 L3.79932,0.8416 C3.74292,0.934933333 3.69972,1.0416 3.67212,1.16026667 C3.64452,1.27893333 3.63012,1.40026667 3.63012,1.52426667 C3.63012,1.64693333 3.64572,1.76426667 3.67812,1.8776 L3.81612,2.1736 L4.04172,2.37893333 C4.13292,2.43226667 4.23372,2.45493333 4.35492,2.45493333 C4.46412,2.45493333 4.56012,2.4376 4.64652,2.3976 L4.86012,2.23493333 L4.98972,1.99226667 L5.02812,1.6936 L4.35612,1.6936 L4.35612,1.43226667 L5.28012,1.43226667 L5.28012,2.66293333 L5.10252,2.66293333 L5.02812,2.37093333 C4.94652,2.4936 4.84452,2.5816 4.72212,2.63493333" id="Fill-1393"></path>
                    </g>
                    <polygon id="Fill-1396" fill="#290F00" points="166.15205 31 165.856782 31 165.856782 30.1828571 165 29 165.350789 29 166.015773 29.952 166.664353 29 167 29 166.15205 30.1828571"></polygon>
                    <path d="M169.17737,29 C169.448012,29 169.652905,29.0502283 169.792049,29.1552511 C169.931193,29.2591324 170,29.402968 170,29.5901826 C170,29.7773973 169.931193,29.923516 169.792049,30.0262557 C169.652905,30.1312785 169.448012,30.1826484 169.17737,30.1803653 L168.357798,30.1803653 L168.357798,31 L168,31 L168,29 L169.17737,29 Z M169.058104,29.956621 C169.259939,29.9589041 169.408257,29.9292237 169.503058,29.8652968 C169.597859,29.8013699 169.642202,29.7089041 169.642202,29.5901826 C169.642202,29.4703196 169.597859,29.3789954 169.503058,29.3184932 C169.408257,29.2545662 169.259939,29.2237443 169.058104,29.2237443 L168.357798,29.2237443 L168.357798,29.956621 L169.058104,29.956621 Z" id="Fill-1397" fill="#290F00"></path>
                    <path d="M170.156212,29 L171,31 L170.682657,31 L170.446494,30.3980583 L169.533825,30.3980583 L169.292743,31 L169,31 L169.838868,29 L170.156212,29 Z M170.356704,30.1741862 L169.99754,29.2410051 L169.99139,29.2410051 L169.623616,30.1741862 L170.356704,30.1741862 Z" id="Fill-1399" fill="#290F00"></path>
                    <path d="M172.163969,29 C172.399015,29 172.584799,29.0456621 172.715693,29.1392694 C172.849402,29.2328767 172.915552,29.3607306 172.915552,29.5228311 C172.915552,29.6438356 172.881773,29.7511416 172.812808,29.8413242 C172.74525,29.9326484 172.636875,29.9965753 172.486277,30.0296804 L172.486277,30.0342466 L172.660802,30.0901826 L172.766362,30.18379 L172.82829,30.3059361 L172.857847,30.4474886 L172.864884,30.5947489 L172.884588,30.7442922 L172.92259,30.8824201 L173,31 L172.636875,31 L172.589022,30.913242 L172.574947,30.7956621 L172.565095,30.6541096 L172.543983,30.5068493 L172.508797,30.3664384 L172.442646,30.2534247 L172.325827,30.1746575 L172.133005,30.1438356 L171.329346,30.1438356 L171.329346,31 L171,31 L171,29 L172.163969,29 Z M172.234342,29.9063927 L172.415904,29.8527397 L172.539761,29.7431507 L172.586207,29.5650685 C172.586207,29.4646119 172.552428,29.3824201 172.482055,29.3196347 C172.413089,29.2557078 172.3019,29.2226027 172.148487,29.2226027 L171.329346,29.2226027 L171.329346,29.9212329 L172.016186,29.9212329 L172.234342,29.9063927 Z" id="Fill-1400" fill="#290F00"></path>
                    <polygon id="Fill-1402" fill="#290F00" points="173 29.2237443 173 29 175 29 175 29.2237443 174.165836 29.2237443 174.165836 31 173.834164 31 173.834164 29.2237443"></polygon>
                    <polygon id="Fill-1403" fill="#290F00" points="175.355714 29 176.675714 30.6210046 176.684286 30.6210046 176.684286 29 177 29 177 31 176.632857 31 175.324286 29.3949772 175.317143 29.3949772 175.317143 31 175 31 175 29"></polygon>
                    <polygon id="Fill-1404" fill="#290F00" points="178.988515 29 178.988515 29.2237443 177.383921 29.2237443 177.383921 29.8607306 178.878589 29.8607306 178.878589 30.0844749 177.383921 30.0844749 177.383921 30.7751142 179 30.7751142 179 31 177 31 177 29"></polygon>
                    <path d="M180.161744,29 C180.398031,29 180.582278,29.0456621 180.71308,29.1392694 C180.846695,29.2328767 180.914205,29.3607306 180.914205,29.5228311 C180.914205,29.6438356 180.879044,29.7511416 180.810127,29.8413242 C180.744023,29.9326484 180.632911,29.9965753 180.483826,30.0296804 L180.483826,30.0342466 L180.658228,30.0901826 L180.76512,30.18379 L180.824191,30.3059361 L180.855134,30.4474886 L180.862166,30.5947489 L180.881857,30.7442922 L180.918425,30.8824201 L181,31 L180.632911,31 L180.586498,30.913242 L180.572433,30.7956621 L180.563994,30.6541096 L180.541491,30.5068493 L180.507736,30.3664384 L180.441632,30.2534247 L180.323488,30.1746575 L180.132208,30.1438356 L179.327707,30.1438356 L179.327707,31 L179,31 L179,29 L180.161744,29 Z M180.232068,29.9063927 L180.413502,29.8527397 L180.537271,29.7431507 L180.585091,29.5650685 C180.585091,29.4646119 180.54993,29.3824201 180.479606,29.3196347 C180.412096,29.2557078 180.299578,29.2226027 180.146273,29.2226027 L179.327707,29.2226027 L179.327707,29.9212329 L180.014065,29.9212329 L180.232068,29.9063927 Z" id="Fill-1405" fill="#290F00"></path>
                    <path d="M187.706107,35 L122.292653,35 C121.578781,35 121,34.4117139 121,33.6907506 L121,7.30674608 C121,6.5870344 121.578781,6 122.292653,6 L187.706107,6 C188.421219,6 189,6.5870344 189,7.30674608 L189,33.6907506 C189,34.4117139 188.421219,35 187.706107,35 L187.706107,35 Z M122.292653,6.26159955 C121.722547,6.26159955 121.257787,6.73097674 121.257787,7.30674608 L121.257787,33.6907506 C121.257787,34.2677716 121.722547,34.7384004 122.292653,34.7384004 L187.706107,34.7384004 C188.277453,34.7384004 188.740974,34.2677716 188.740974,33.6907506 L188.740974,7.30674608 C188.740974,6.73097674 188.277453,6.26159955 187.706107,6.26159955 L122.292653,6.26159955 Z" id="Fill-1407" fill="#290F00"></path>
                </g>
            </g>
        </g>
    </g>
</svg>