<?xml version="1.0" encoding="UTF-8"?>
<svg width="134px" height="19px" viewBox="0 0 134 19" version="1.1" xmlns="http://www.w3.org/2000/svg" xmlns:xlink="http://www.w3.org/1999/xlink">
    <!-- Generator: sketchtool 60.1 (101010) - https://sketch.com -->
    <title>4CD5FB4A-A349-4E0D-87C0-6600AC2D7A58</title>
    <desc>Created with sketchtool.</desc>
    <defs>
        <path d="M0.150428571,7.59728571 C-0.120857143,8.25428571 0.362571429,8.973 1.07485714,8.973 L1.07485714,8.973 L8.00357143,8.973 L8.00357143,8.97042857 L2.90185714,0.874285714 L0.150428571,7.59728571 Z" id="path-1"></path>
        <path d="M0.18875,3.41366667 L0.18875,8.33066667 C0.18875,9.504 1.1625,10.4548889 2.3625,10.4548889 L2.3625,10.4548889 C3.5575,10.4548889 4.53625,9.49788889 4.53625,8.33066667 L4.53625,8.33066667 L4.53625,3.41366667 C4.53625,2.178 3.5625,1.16966667 2.3625,1.16966667 L2.3625,1.16966667 C1.1625,1.16966667 0.18875,2.178 0.18875,3.41366667 L0.18875,3.41366667 Z" id="path-3"></path>
        <path d="M6.81882353,0.3175 C5.90470588,0.3175 5.07458824,0.455 4.35317647,0.725 L4.35317647,0.725 C3.61570588,0.995 2.98941176,1.38 2.48170588,1.86625 L2.48170588,1.86625 C1.97029412,2.35875 1.57870588,2.95125 1.31682353,3.6325 L1.31682353,3.6325 C1.06729412,4.29375 0.935117647,5.02375 0.935117647,5.795 L0.935117647,5.795 C0.935117647,6.58875 1.07717647,7.33375 1.34894118,8.00625 L1.34894118,8.00625 C1.62564706,8.6875 2.02341176,9.285 2.52988235,9.7825 L2.52988235,9.7825 C3.03635294,10.27375 3.66388235,10.665 4.39023529,10.94 L4.39023529,10.94 C5.10547059,11.21 5.91088235,11.3475 6.77805882,11.3475 L6.77805882,11.3475 L14.5480588,11.3475 C15.1694118,11.3475 15.6400588,11.48 15.9377647,11.73875 L15.9377647,11.73875 C16.2144706,11.97625 16.3454118,12.35125 16.3454118,12.88625 L16.3454118,12.88625 C16.3454118,13.3775 16.2095294,13.7375 15.9167647,14.0175 L15.9167647,14.0175 C15.6190588,14.3025 15.1595294,14.445 14.5480588,14.445 L14.5480588,14.445 L4.58911765,14.445 C2.71764706,14.445 1.197,15.98375 1.197,17.8775 L1.197,17.8775 L1.197,18.7925 L14.553,18.7925 C15.5140588,18.7925 16.3713529,18.64875 17.1088235,18.375 L17.1088235,18.375 C17.8549412,18.09375 18.4886471,17.68625 18.9889412,17.16875 L18.9889412,17.16875 C19.4904706,16.65625 19.8672353,16.0375 20.118,15.33375 L20.118,15.33375 C20.3576471,14.6525 20.4836471,13.90125 20.4836471,13.1025 L20.4836471,13.1025 C20.4836471,11.24625 19.9611176,9.825 18.9259412,8.8775 L18.9259412,8.8775 C17.913,7.9475 16.4442353,7.4775 14.5579412,7.4775 L14.5579412,7.4775 L6.80894118,7.4775 C6.32841176,7.4775 5.97264706,7.36 5.71694118,7.1175 L5.71694118,7.1175 C5.47111765,6.89 5.35623529,6.55125 5.35623529,6.08125 L5.35623529,6.08125 C5.35623529,5.61 5.47111765,5.26125 5.712,5.02375 L5.712,5.02375 C5.95782353,4.78 6.31729412,4.66375 6.825,4.66375 L6.825,4.66375 L16.2453529,4.66375 C18.1168235,4.66375 19.6374706,3.125 19.6374706,1.2325 L19.6374706,1.2325 L19.6374706,0.3175 L6.81882353,0.3175 Z" id="path-5"></path>
        <path d="M12.1667619,0.47 C11.8572381,0.6975 11.5947619,1.005 11.3818095,1.375 L11.3818095,1.375 L1.02142857,18.7925 L5.97133333,18.7925 L13.2921905,6.2975 L18.4674286,15.03875 L14.209619,15.03875 C12.5282857,15.03875 10.9571429,15.9475 10.1090476,17.4175 L10.1090476,17.4175 L9.29685714,18.7925 L25.7882857,18.7925 L15.4080952,1.38 C15.1926667,1.01 14.936381,0.70375 14.638,0.47625 L14.638,0.47625 C14.2925714,0.21125 13.8790476,0.07875 13.402381,0.07875 L13.402381,0.07875 C12.9319048,0.07875 12.518381,0.21125 12.1667619,0.47 L12.1667619,0.47 Z" id="path-7"></path>
        <path d="M1.00421053,0.3175 L1.00421053,18.7925 L5.37473684,18.7925 L5.37473684,4.65875 L14.1170526,4.65875 C14.9823158,4.65875 15.6454737,4.87 16.0888421,5.2875 L16.0888421,5.2875 C16.5208421,5.695 16.7393684,6.36625 16.7393684,7.28125 L16.7393684,7.28125 C16.7393684,8.2175 16.5258947,8.92 16.0938947,9.375 L16.0938947,9.375 C15.6707368,9.81375 15.0088421,10.04125 14.1170526,10.04125 L14.1170526,10.04125 L6.21978947,10.04125 L6.21978947,10.945 C6.21978947,12.6475 7.61936842,14.03375 9.33978947,14.03375 L9.33978947,14.03375 L13.0749474,14.03375 L17.4555789,18.7925 L23.6854737,18.7925 L17.9962105,13.11875 C18.8286316,12.6475 19.5132632,12.0025 20.0362105,11.2 L20.0362105,11.2 C20.7309474,10.125 21.0833684,8.79375 21.0833684,7.23875 L21.0833684,7.23875 C21.0833684,6.2075 20.9229474,5.25625 20.6147368,4.415 L20.6147368,4.415 C20.2938947,3.55875 19.8227368,2.8125 19.2189474,2.205 L19.2189474,2.205 C18.6101053,1.59625 17.8623158,1.12125 16.9970526,0.79875 L16.9970526,0.79875 C16.1418947,0.48125 15.1743158,0.3175 14.1107368,0.3175 L14.1107368,0.3175 L1.00421053,0.3175 Z" id="path-9"></path>
        <path d="M3.06242857,0.3175 C1.40371429,0.3175 0.0522142857,1.7075 0.0522142857,3.41625 L0.0522142857,3.41625 L0.0522142857,4.66375 L6.36528571,4.66375 L6.36528571,18.7925 L10.5861429,18.7925 L10.5861429,4.66375 L13.889,4.66375 C15.5489286,4.66375 16.8992143,3.2725 16.8992143,1.565 L16.8992143,1.565 L16.8992143,0.3175 L3.06242857,0.3175 Z" id="path-11"></path>
        <path d="M0.08875,0.3275 L0.08875,18.765 L1.3375,18.765 C3.04875,18.765 4.44125,17.29 4.43502096,15.4825 L4.43502096,15.4825 L4.43502096,3.61125 C4.43502096,1.7975 3.045,0.3275 1.3375,0.3275 L1.3375,0.3275 L0.08875,0.3275 Z" id="path-13"></path>
        <path d="M3.49375,0.3225 C1.78625,0.3225 0.395,1.7975 0.395,3.60625 L0.395,3.60625 L0.395,15.4825 C0.395,17.29625 1.78625,18.765 3.49375,18.765 L3.49375,18.765 L4.74125,18.765 L4.74125,0.3225 L3.49375,0.3225 Z" id="path-15"></path>
        <path d="M0.100285714,0.348428571 L5.20071429,8.44585714 L7.95342857,1.72414286 C8.22471429,1.06585714 7.74128571,0.348428571 7.02771429,0.348428571 L7.02771429,0.348428571 L0.100285714,0.348428571 Z" id="path-17"></path>
        <path d="M6.225,0.343266667 L3.13625,8.3372 C2.6075,9.74193333 1.93625,10.7223333 1.5125,12.1574667 L1.5125,12.1574667 C1.49125,12.2220667 1.2175,12.2486667 1.19625,12.3082 L1.19625,12.3082 C1.4175,12.7996667 4.94375,17.1405333 5.66375,17.8524 L5.66375,17.8524 C6.29375,18.4794 6.77875,18.8974 7.68875,18.9734 L7.68875,18.9734 C6.79,18.8974 6.62,17.955 6.965,17.1139333 L6.965,17.1139333 L13.80125,0.343266667 L6.225,0.343266667 Z" id="path-19"></path>
        <path d="M6.7764,2.20273333 L0.2136,18.9734 L7.4868,18.9734 L10.452,10.9782 L11.406,8.3372 L8.1564,1.67706667 C7.7568,0.857533333 6.954,0.343266667 6.0816,0.3382 L6.0816,0.3382 C6.9492,0.419266667 7.1112,1.35533333 6.7764,2.20273333 L6.7764,2.20273333 Z" id="path-21"></path>
    </defs>
    <g id="Page-1" stroke="none" stroke-width="1" fill="none" fill-rule="evenodd">
        <g id="LP-DE-PATROCÃNIO" transform="translate(-1008.000000, -3449.000000)">
            <g id="Group-32" transform="translate(1008.000000, 3449.000000)">
                <g id="Group-248" transform="translate(126.000000, 10.000000)">
                    <mask id="mask-2" fill="white">
                        <use xlink:href="#path-1"></use>
                    </mask>
                    <g id="Clip-247"></g>
                    <polygon id="Fill-246" fill="#2C377F" mask="url(#mask-2)" points="0.063 8.982 8.00357143 8.982 8.00357143 0.824142857 0.063 0.824142857"></polygon>
                </g>
                <g id="Group-251" transform="translate(29.000000, 3.000000)">
                    <mask id="mask-4" fill="white">
                        <use xlink:href="#path-3"></use>
                    </mask>
                    <g id="Clip-250"></g>
                    <polygon id="Fill-249" fill="#2C377F" mask="url(#mask-4)" points="0.18875 10.4548889 4.535 10.4548889 4.535 1.16966667 0.18875 1.16966667"></polygon>
                </g>
                <g id="Group-254">
                    <mask id="mask-6" fill="white">
                        <use xlink:href="#path-5"></use>
                    </mask>
                    <g id="Clip-253"></g>
                    <polygon id="Fill-252" fill="#2C377F" mask="url(#mask-6)" points="0.936352941 18.7925 20.4836471 18.7925 20.4836471 0.3175 0.936352941 0.3175"></polygon>
                </g>
                <g id="Group-257" transform="translate(40.000000, 0.000000)">
                    <mask id="mask-8" fill="white">
                        <use xlink:href="#path-7"></use>
                    </mask>
                    <g id="Clip-256"></g>
                    <polygon id="Fill-255" fill="#2C377F" mask="url(#mask-8)" points="1.02142857 18.7925 25.7882857 18.7925 25.7882857 0.08 1.02142857 0.08"></polygon>
                </g>
                <g id="Group-260" transform="translate(64.000000, 0.000000)">
                    <mask id="mask-10" fill="white">
                        <use xlink:href="#path-9"></use>
                    </mask>
                    <g id="Clip-259"></g>
                    <polygon id="Fill-258" fill="#2C377F" mask="url(#mask-10)" points="1.00421053 18.7925 23.6854737 18.7925 23.6854737 0.3175 1.00421053 0.3175"></polygon>
                </g>
                <g id="Group-263" transform="translate(86.000000, 0.000000)">
                    <mask id="mask-12" fill="white">
                        <use xlink:href="#path-11"></use>
                    </mask>
                    <g id="Clip-262"></g>
                    <polygon id="Fill-261" fill="#2C377F" mask="url(#mask-12)" points="0.0522142857 18.7925 16.8992143 18.7925 16.8992143 0.3175 0.0522142857 0.3175"></polygon>
                </g>
                <g id="Group-266" transform="translate(23.000000, 0.000000)">
                    <mask id="mask-14" fill="white">
                        <use xlink:href="#path-13"></use>
                    </mask>
                    <g id="Clip-265"></g>
                    <polygon id="Fill-264" fill="#2C377F" mask="url(#mask-14)" points="0.08875 18.765 4.44 18.765 4.44 0.3275 0.08875 0.3275"></polygon>
                </g>
                <g id="Group-269" transform="translate(35.000000, 0.000000)">
                    <mask id="mask-16" fill="white">
                        <use xlink:href="#path-15"></use>
                    </mask>
                    <g id="Clip-268"></g>
                    <polygon id="Fill-267" fill="#2C377F" mask="url(#mask-16)" points="0.395 18.765 4.74125 18.765 4.74125 0.3225 0.395 0.3225"></polygon>
                </g>
                <g id="Group-272" transform="translate(109.000000, 0.000000)">
                    <mask id="mask-18" fill="white">
                        <use xlink:href="#path-17"></use>
                    </mask>
                    <g id="Clip-271"></g>
                    <polygon id="Fill-270" fill="#2C377F" mask="url(#mask-18)" points="0.100285714 8.44585714 8.226 8.44585714 8.226 0.348428571 0.100285714 0.348428571"></polygon>
                </g>
                <g id="Group-275" transform="translate(119.000000, 0.000000)">
                    <mask id="mask-20" fill="white">
                        <use xlink:href="#path-19"></use>
                    </mask>
                    <g id="Clip-274"></g>
                    <polygon id="Fill-273" fill="#2C377F" mask="url(#mask-20)" points="1.19625 18.9734 13.80125 18.9734 13.80125 0.343266667 1.19625 0.343266667"></polygon>
                </g>
                <g id="Group-278" transform="translate(111.000000, 0.000000)">
                    <mask id="mask-22" fill="white">
                        <use xlink:href="#path-21"></use>
                    </mask>
                    <g id="Clip-277"></g>
                    <polygon id="Fill-276" fill="#2C377F" mask="url(#mask-22)" points="0.2136 18.9734 11.406 18.9734 11.406 0.3382 0.2136 0.3382"></polygon>
                </g>
            </g>
        </g>
    </g>
</svg>