<?xml version="1.0" encoding="UTF-8"?>
<svg width="120px" height="30px" viewBox="0 0 120 30" version="1.1" xmlns="http://www.w3.org/2000/svg" xmlns:xlink="http://www.w3.org/1999/xlink">
    <!-- Generator: sketchtool 60.1 (101010) - https://sketch.com -->
    <title>479351B0-9B29-4CB3-B7AA-B6C0EEA74001</title>
    <desc>Created with sketchtool.</desc>
    <g id="Page-1" stroke="none" stroke-width="1" fill="none" fill-rule="evenodd">
        <g id="LP-DE-PATROCÃNIO" transform="translate(-1018.000000, -3847.000000)">
            <g id="Group-56" transform="translate(1018.000000, 3847.000000)">
                <polygon id="Fill-990" fill="#5FB130" points="5 23 0 17.9987639 5 13 10 17.9987639"></polygon>
                <polygon id="Fill-991" fill="#5FB130" points="5 18 10 18 10 13 5 13"></polygon>
                <polygon id="Fill-992" fill="#5FB130" points="0 23 5 23 5 18 0 18"></polygon>
                <polygon id="Fill-993" fill="#5FB130" points="13 18.000618 18 13 23 18.000618 18 23"></polygon>
                <polygon id="Fill-994" fill="#5FB130" points="18 23 23 23 23 18 18 18"></polygon>
                <polygon id="Fill-995" fill="#5FB130" points="13 18 18 18 18 13 13 13"></polygon>
                <polygon id="Fill-996" fill="#211F1F" points="18 10 13 5 18 0 23 5"></polygon>
                <polygon id="Fill-997" fill="#211F1F" points="18 5 23 5 23 0 18 0"></polygon>
                <polygon id="Fill-998" fill="#211F1F" points="13 10 18 10 18 5 13 5"></polygon>
                <polygon id="Fill-999" fill="#5FB130" points="10 5.00185345 5 10 0 5.00185345 5 0"></polygon>
                <polygon id="Fill-1000" fill="#5FB130" points="0 5 5 5 5 0 0 0"></polygon>
                <polygon id="Fill-1001" fill="#5FB130" points="5 10 10 10 10 5 5 5"></polygon>
                <g id="Group-1016" transform="translate(26.000000, 17.000000)" fill="#211F1F">
                    <path d="M43.1732105,7.85018182 C43.8077105,7.57018182 44.2876053,7.16163636 44.6042368,6.63218182 C44.9468421,6.06327273 45.1150526,5.39890909 45.1150526,4.65818182 C45.1150526,4.24072727 45.0445526,3.82327273 44.8998421,3.41981818 C44.7576053,3.00745455 44.5287895,2.63709091 44.2171053,2.31636364 C43.9054211,1.99563636 43.4960263,1.72963636 43.0012895,1.52727273 C42.5127368,1.32745455 41.9005,1.22309091 41.1880789,1.22309091 L37.5703158,1.22309091 L37.5703158,12.698 L39.3872368,12.698 L39.3872368,8.13018182 L41.3290789,8.13018182 L43.6506316,12.698 L45.7532632,12.698 L43.1732105,7.85018182 Z M43.2189737,4.71036364 C43.2189737,5.25381818 43.0643684,5.67 42.7526842,5.98690909 C42.4434737,6.30509091 41.9598684,6.46418182 41.3228947,6.46418182 L39.3872368,6.46418182 L39.3872368,2.92218182 L41.2845526,2.92218182 C41.8967895,2.92218182 42.3779211,3.08 42.7143421,3.39309091 C43.052,3.70490909 43.2189737,4.13509091 43.2189737,4.71036364 L43.2189737,4.71036364 Z" id="Fill-1002"></path>
                    <path d="M61.5764316,12.8168727 C60.7749579,12.8168727 60.0291421,12.6641455 59.3426947,12.3650545 C58.6550105,12.0646909 58.0613263,11.6548727 57.5566947,11.1279636 C57.0533,10.6061455 56.6587474,9.98505455 56.3730368,9.26723636 C56.0836158,8.54687273 55.9389053,7.77687273 55.9389053,6.95341818 C55.9389053,6.11723636 56.0836158,5.34214545 56.3730368,4.63069091 C56.6587474,3.91923636 57.0533,3.29941818 57.5566947,2.77887273 C58.0613263,2.25196364 58.6550105,1.84214545 59.3426947,1.54178182 C60.0291421,1.23887273 60.7749579,1.08996364 61.5764316,1.08996364 C62.3779053,1.08996364 63.1212474,1.23887273 63.8076947,1.54178182 C64.4978526,1.84214545 65.0927737,2.25196364 65.5924579,2.77887273 C66.0995632,3.29941818 66.4941158,3.91923636 66.7773526,4.63069091 C67.0667737,5.34214545 67.2114842,6.11723636 67.2114842,6.95341818 C67.2114842,7.77687273 67.0667737,8.54687273 66.7773526,9.26723636 C66.4941158,9.98505455 66.0995632,10.6061455 65.5924579,11.1279636 C65.0927737,11.6548727 64.4978526,12.0646909 63.8076947,12.3650545 C63.1212474,12.6641455 62.3779053,12.8168727 61.5764316,12.8168727 M61.5764316,10.4445091 C62.0513789,10.4445091 62.4768526,10.3503273 62.8590368,10.1594182 C63.2387474,9.96723636 63.5590895,9.71396364 63.8250105,9.39069091 C64.0884579,9.07123636 64.2913,8.69578182 64.4347737,8.27323636 C64.5745368,7.84814545 64.6425632,7.3976 64.6425632,6.92032727 C64.6425632,6.44050909 64.5745368,5.99123636 64.4347737,5.5636 C64.2913,5.14232727 64.0884579,4.77069091 63.8250105,4.45505455 C63.5590895,4.13687273 63.2387474,3.88869091 62.8590368,3.70287273 C62.4768526,3.51705455 62.0513789,3.42541818 61.5764316,3.42541818 C61.0990105,3.42541818 60.6735368,3.51705455 60.2864053,3.70287273 C59.9005105,3.88869091 59.5764579,4.13687273 59.3105368,4.45505455 C59.0446158,4.77069091 58.8417737,5.14232727 58.7020105,5.5636 C58.5585368,5.99123636 58.4892737,6.44050909 58.4892737,6.92032727 C58.4892737,7.3976 58.5585368,7.84814545 58.7020105,8.27323636 C58.8417737,8.69578182 59.0446158,9.07123636 59.3105368,9.39069091 C59.5764579,9.71396364 59.9005105,9.96723636 60.2864053,10.1594182 C60.6735368,10.3503273 61.0990105,10.4445091 61.5764316,10.4445091" id="Fill-1004"></path>
                    <path d="M91.6375079,9.46743636 L91.0450605,9.9498 C90.8249026,10.0885273 90.5701132,10.2005273 90.2831658,10.2858 C89.9986921,10.3685273 89.6610342,10.4092545 89.2714289,10.4092545 C88.7927711,10.4092545 88.3611132,10.3214364 87.98635,10.1407091 C87.6091132,9.9638 87.2825868,9.72070909 87.0141921,9.40761818 C86.7457974,9.0958 86.5342974,8.72798182 86.3871132,8.30289091 C86.2411658,7.88416364 86.1694289,7.42598182 86.1694289,6.93598182 C86.1694289,6.45870909 86.2411658,6.00561818 86.3871132,5.57543636 C86.5342974,5.14398182 86.7457974,4.76852727 87.0141921,4.44525455 C87.2825868,4.12452727 87.6115868,3.87125455 88.0011921,3.68416364 C88.3846132,3.50598182 88.8187447,3.41434545 89.2961658,3.4118 L89.2961658,1.11325455 L89.2194816,1.1018 C88.3846132,1.1018 87.6264289,1.25961818 86.9387447,1.56252727 C86.2498237,1.86925455 85.6610868,2.28925455 85.1688237,2.81743636 C84.6765605,3.34689091 84.3005605,3.97052727 84.0272184,4.68834545 C83.7551132,5.40998182 83.6178237,6.17743636 83.6178237,7.00470909 C83.6178237,7.84725455 83.7551132,8.62489091 84.0272184,9.33634545 C84.3005605,10.0414364 84.6765605,10.6536182 85.1688237,11.1716182 C85.6610868,11.6870727 86.2498237,12.0943455 86.92885,12.3807091 C87.6115868,12.6683455 88.3611132,12.8159818 89.1873237,12.8159818 C89.6832974,12.8159818 90.1644289,12.7561636 90.6245342,12.6314364 C91.0846395,12.5105273 91.51135,12.3438 91.9096132,12.1312545 C92.3004553,11.9199818 92.6603763,11.6743455 92.9869026,11.3867091 C93.2849816,11.1258 93.5447184,10.8470727 93.7586921,10.5530727 L93.7624026,10.4270727 L92.1433763,8.90743636 L91.6375079,9.46743636 Z" id="Fill-1006"></path>
                    <path d="M53.9806132,6.83696364 C53.6800605,6.55696364 53.3337447,6.33423636 52.9503237,6.15987273 C52.5681395,5.98550909 52.1748237,5.84932727 51.7740868,5.75005455 C51.0864026,5.59478182 50.5582711,5.40132727 50.1661921,5.1646 C49.7778237,4.93296364 49.5836395,4.62623636 49.5836395,4.24569091 L49.7036132,3.83714545 L50.0289026,3.50369091 L50.4815868,3.27841818 L50.9936395,3.19187273 C51.2546132,3.19187273 51.4995079,3.22878182 51.7345079,3.29496364 L52.3727184,3.54441818 L52.90085,3.87150909 L53.3102447,4.19096364 L53.3102447,1.55641818 C53.0715342,1.44314545 52.7969553,1.35023636 52.4902184,1.26241818 C52.0635079,1.14787273 51.5774289,1.08805455 51.0282711,1.08805455 C50.3554289,1.08805455 49.7728763,1.18223636 49.2806132,1.36550909 C48.7908237,1.54878182 48.3789553,1.79950909 48.0499553,2.11387273 C47.7209553,2.43205455 47.47235,2.7986 47.3090868,3.21350909 C47.1458237,3.62205455 47.0654289,4.06241818 47.0654289,4.53205455 C47.0654289,4.95205455 47.1371658,5.33896364 47.2769289,5.67878182 C47.4166921,6.03005455 47.6121132,6.33423636 47.8693763,6.60150909 C48.1216921,6.86878182 48.4309026,7.09532727 48.7796921,7.28623636 C49.1334289,7.47587273 49.5119026,7.62223636 49.9237711,7.71896364 C50.7685342,7.94169091 51.3844816,8.17078182 51.7740868,8.39732727 C52.1636921,8.62387273 52.3578763,8.94714545 52.3578763,9.35950909 L52.2205868,9.8686 L51.8581921,10.2529636 L51.3510868,10.4935091 L50.7994553,10.5787818 C50.4840605,10.5787818 50.1921658,10.5380545 49.9151132,10.4540545 C49.6380605,10.3687818 49.3869816,10.2593273 49.1544553,10.1256909 L48.5187184,9.68405455 L48.0870605,9.27678182 L46.5137974,10.9020545 L46.5137974,10.8893273 L46.4507184,10.9631455 C46.6535605,11.1960545 46.8984553,11.4238727 47.1878763,11.6466 C47.4748237,11.8706 47.7951658,12.0640545 48.1563237,12.2422364 C48.5137711,12.4115091 48.9132711,12.5540545 49.3535868,12.6571455 C49.7976132,12.7627818 50.29235,12.8162364 50.8316132,12.8162364 C51.4166395,12.8162364 51.9583763,12.7296909 52.4642447,12.5566 C52.9676395,12.3860545 53.4042447,12.1416909 53.7802447,11.8311455 C54.1550079,11.5167818 54.4469026,11.1502364 54.6608763,10.7276909 C54.8785605,10.3038727 54.9898763,9.84187273 54.9898763,9.34296364 C54.9898763,8.7626 54.8946395,8.27005455 54.7128237,7.86150909 C54.5260605,7.45805455 54.2836395,7.11314545 53.9806132,6.83696364" id="Fill-1008"></path>
                    <path d="M8.01201579,6.95978182 C7.70033158,6.67723636 7.33546316,6.45069091 6.94091053,6.28269091 C6.55006842,6.11850909 6.14685789,5.98232727 5.73993684,5.88305455 C5.33177895,5.78378182 4.96691053,5.68069091 4.65646316,5.5776 C4.35714737,5.47705455 4.09493684,5.35741818 3.89209474,5.21232727 L3.44064737,4.74396364 L3.2947,4.11396364 L3.39488421,3.60614545 L3.71151579,3.15050909 L4.2817,2.81196364 C4.51051579,2.72796364 4.79375263,2.68087273 5.12027895,2.68087273 C5.45051579,2.68087273 5.74859474,2.7216 5.99843684,2.79669091 L6.65767368,3.09578182 L7.12767368,3.44832727 L7.39977895,3.73087273 L7.50243684,3.8556 L7.50243684,1.50741818 C7.24517368,1.36487273 6.94462105,1.2376 6.60201579,1.13450909 C6.20375263,1.01232727 5.72880526,0.948690909 5.18830526,0.948690909 C4.57977895,0.948690909 4.02938421,1.03905455 3.56062105,1.21214545 C3.09185789,1.38141818 2.69483158,1.61687273 2.37201579,1.90832727 C2.05538421,2.2036 1.81543684,2.54723636 1.65464737,2.93414545 C1.49756842,3.31850909 1.4147,3.73087273 1.4147,4.1636 C1.4147,4.62814545 1.49756842,5.05323636 1.65464737,5.42105455 C1.81914737,5.79014545 2.04177895,6.11469091 2.33243684,6.39850909 C2.61938421,6.67469091 2.95951579,6.91014545 3.35406842,7.09087273 C3.7412,7.27541818 4.17780526,7.41923636 4.65275263,7.51978182 C5.48267368,7.7056 6.12954211,7.94869091 6.56738421,8.24014545 C6.98172632,8.52269091 7.17962105,8.92996364 7.17962105,9.49123636 C7.17962105,10.0156 6.99904211,10.4190545 6.63541053,10.7245091 C6.26435789,11.0337818 5.73127895,11.1890545 5.05967368,11.1890545 C4.72448947,11.1890545 4.41527895,11.1496 4.1407,11.0643273 C3.86612105,10.9816 3.60885789,10.8670545 3.38004211,10.7270545 L2.76533158,10.2574182 C2.61072632,10.0996 2.46230526,9.89341818 2.31883158,9.60705455 L2.22112105,9.42250909 L1.00530526,10.6774182 L0.854410526,10.8543273 L0.926147368,10.9510545 C1.09435789,11.1852364 1.31204211,11.4232364 1.57177895,11.6548727 C1.83522632,11.8877818 2.14196316,12.1066909 2.49322632,12.3001455 C2.84325263,12.4936 3.23409474,12.6565091 3.65956842,12.7837818 C4.08875263,12.9097818 4.57112105,12.9721455 5.09059474,12.9721455 C5.64346316,12.9721455 6.16293684,12.8856 6.64530526,12.7226909 C7.12767368,12.5534182 7.55191053,12.3116 7.90564737,12.0061455 C8.26433158,11.6981455 8.54262105,11.3328727 8.74793684,10.9166909 C8.94954211,10.4928727 9.05591053,10.0283273 9.05591053,9.5256 C9.05591053,8.93505455 8.96191053,8.42978182 8.77514737,8.0136 C8.58714737,7.60250909 8.32864737,7.24487273 8.01201579,6.95978182" id="Fill-1010"></path>
                    <path d="M17.2032368,1.23454545 L17.2032368,7.90490909 C17.2032368,8.39109091 17.1599474,8.84163636 17.0758421,9.25018182 C16.9942105,9.64472727 16.8532105,9.99090909 16.6565526,10.2696364 C16.4623684,10.5483636 16.1952105,10.7647273 15.8723947,10.9110909 C15.5409211,11.0650909 15.1179211,11.1414545 14.6108158,11.1414545 C14.0925789,11.1414545 13.6646316,11.0650909 13.3319211,10.9110909 C13.0066316,10.7647273 12.7431842,10.5483636 12.549,10.2696364 C12.3535789,9.99090909 12.2113421,9.64472727 12.1284737,9.25018182 C12.0418947,8.84418182 12.0023158,8.39490909 12.0023158,7.90490909 L12.0023158,1.23454545 L10.1396316,1.23454545 L10.1396316,8.288 C10.1396316,8.93836364 10.2311579,9.55436364 10.4080263,10.1169091 C10.5861316,10.6845455 10.8668947,11.1872727 11.2354737,11.606 C11.6052895,12.0298182 12.0765263,12.3645455 12.6380526,12.6076364 C13.1958684,12.8481818 13.8575789,12.9690909 14.6108158,12.9690909 C15.3615789,12.9690909 16.0282368,12.8481818 16.5848158,12.6076364 C17.1463421,12.3645455 17.6113947,12.0298182 17.9787368,11.606 C18.3411316,11.1872727 18.6157105,10.6845455 18.7962895,10.1169091 C18.9706842,9.55181818 19.0622105,8.93581818 19.0622105,8.288 L19.0622105,2.82163636 L17.5235789,1.23454545 L17.2032368,1.23454545 Z" id="Fill-1012"></path>
                    <path d="M27.6789184,3.55332727 C27.5589447,3.12950909 27.3474447,2.74769091 27.0456553,2.40532727 C26.7438658,2.06805455 26.3394184,1.78423636 25.8384974,1.56150909 C25.3425237,1.34514545 24.7067868,1.23696364 23.9560237,1.23696364 L21.9189447,1.23696364 L20.38155,2.82150909 L20.38155,12.6876909 L22.2194974,12.6876909 L22.2194974,8.30950909 L24.0339447,8.30950909 C24.5806289,8.30950909 25.0902079,8.23314545 25.5503132,8.08678182 C26.0190763,7.93405455 26.4259974,7.71005455 26.7636553,7.41223636 C27.1037868,7.11569091 27.3746553,6.73896364 27.5638921,6.29732727 C27.7593132,5.85950909 27.8570237,5.34278182 27.8570237,4.76369091 C27.8570237,4.37169091 27.7964184,3.96569091 27.6789184,3.55332727 M25.4674447,6.14714545 C25.1347342,6.46787273 24.6486553,6.62950909 24.0203395,6.62950909 L22.2194974,6.62950909 L22.2194974,2.91441818 L24.0203395,2.91441818 C24.6251553,2.91441818 25.1075237,3.08241818 25.4501289,3.41587273 C25.7914974,3.74678182 25.9646553,4.21005455 25.9646553,4.79932727 C25.9646553,5.38096364 25.8013921,5.8226 25.4674447,6.14714545" id="Fill-1014"></path>
                </g>
                <polygon id="Fill-1017" fill="#211F1F" points="57.8228661 27.3237746 57.8228661 24.1534956 61.7126995 24.1534956 61.7126995 22.4760476 57.8228661 22.4760476 57.8228661 19.6627765 62.991499 19.6627765 62.991499 18 56 18 56 27.4753807 57.5131853 29 63 29 63 27.3237746"></polygon>
                <polygon id="Fill-1018" fill="#211F1F" points="101.697866 18 101.697866 25.1402627 97.2290876 18 95 18 95.0094253 27.4344946 96.4821312 29 97.3044901 29 97.3044901 21.7252998 101.882838 29 104 29 104 18"></polygon>
                <polygon id="Fill-1019" fill="#211F1F" points="107.25896 18 106 19.5667619 106 29 108 29 108 18"></polygon>
            </g>
        </g>
    </g>
</svg>