<?xml version="1.0" encoding="UTF-8"?>
<svg width="71px" height="56px" viewBox="0 0 71 56" version="1.1" xmlns="http://www.w3.org/2000/svg" xmlns:xlink="http://www.w3.org/1999/xlink">
    <!-- Generator: sketchtool 60.1 (101010) - https://sketch.com -->
    <title>49EC5EE4-115C-4010-8FBA-589360B9224D</title>
    <desc>Created with sketchtool.</desc>
    <g id="Page-1" stroke="none" stroke-width="1" fill="none" fill-rule="evenodd">
        <g id="LP-DE-PATROCÃNIO" transform="translate(-340.000000, -3532.000000)">
            <g id="Group-15" transform="translate(339.000000, 3532.000000)">
                <path d="M46.4166621,5.57984 C46.1559724,6.56668444 46.3012138,7.47761778 46.8350069,8.21184 C47.9882483,9.81219556 50.5169379,10.5874844 53.2703172,10.1780622 L53.4056276,10.1593956 C60.122731,9.24597333 66.2675586,11.1649067 69.0916966,15.0724622 C69.5261793,15.6785067 69.8762483,16.3144178 70.1369379,16.9789511 C71.5670069,13.3364622 71.4565241,9.50108444 69.4653517,6.28419556 C66.0751448,0.804906667 58.286731,-1.16256 50.6721103,1.03388444 C48.5369379,2.05806222 46.8710069,3.83264 46.4166621,5.57984" id="Fill-1" fill="#7DB5AB"></path>
                <path d="M59.4125379,26.4911111 C60.5446759,25.3711111 61.3428828,24.1005333 61.6842621,22.7926222 C62.0976414,21.196 61.8270207,19.6678222 60.8872966,18.3686222 C59.3157103,16.1883556 56.1415034,15.0148444 52.3937793,15.2239111 L52.3255034,15.2264 L51.682469,15.2388444 C48.3133655,15.2388444 45.4817793,14.0740444 44.0268828,12.0617778 C43.0834345,10.7501333 42.8041241,9.20702222 43.2261931,7.60168889 C43.7910207,5.44133333 45.5748828,3.38924444 48.0986069,1.94195556 C47.3922621,2.24062222 46.6834345,2.57413333 45.994469,2.94871111 C37.122331,7.72364444 33.2541931,16.9624 37.3495034,23.5840889 C39.8248138,27.5787556 44.6364,29.7055111 50.0115724,29.7092444 C54.958469,29.7092444 58.4901931,27.3995556 59.4125379,26.4911111" id="Fill-3" fill="#002B6E"></path>
                <path d="M12.5075172,39.6830933 C12.1288966,39.2699378 11.6695862,38.9252267 11.1295862,38.6439822 C10.5895862,38.3614933 9.9837931,38.0939378 9.32213793,37.8301156 L7.74931034,37.2253156 L6.9597931,36.8967822 L6.2522069,36.4774044 L5.75441379,35.8701156 L5.57068966,34.9902933 C5.57068966,34.5522489 5.64889655,34.1950933 5.80655172,33.9262933 L6.41234483,33.3090489 L7.23662069,33.0178489 L8.14282759,32.9406933 C8.63068966,32.9406933 9.06517241,32.9606044 9.45,33.0054044 C9.83731034,33.04896 10.1836552,33.1074489 10.4877931,33.1771378 L11.3530345,33.4372267 L12.1537241,33.7558044 C12.6093103,32.7739378 12.8898621,31.7758933 12.9916552,30.7566933 C12.1338621,30.4592711 11.3157931,30.2315378 10.539931,30.0734933 C9.76034483,29.9179378 8.92737931,29.8358044 8.03731034,29.8358044 C7.05786207,29.8358044 6.17151724,29.9540267 5.3882069,30.1904711 C4.59993103,30.42816 3.92834483,30.7778489 3.36972414,31.24576 C2.80737931,31.70496 2.37662069,32.2811378 2.07248276,32.9655822 C1.76213793,33.6487822 1.61193103,34.4390044 1.61193103,35.3312711 C1.61193103,36.0692267 1.70131034,36.7014044 1.88503448,37.2253156 C2.07248276,37.75296 2.3282069,38.2046933 2.66089655,38.5792711 C2.98986207,38.9575822 3.39206897,39.2786489 3.86751724,39.5524267 C4.33924138,39.8262044 4.8717931,40.0726044 5.46517241,40.3015822 L7.06531034,40.9038933 L7.98393103,41.2871822 L8.78586207,41.7725156 L9.36186207,42.4818489 C9.50834483,42.7618489 9.58034483,43.1127822 9.58034483,43.5334044 C9.58034483,44.3758933 9.26751724,45.0030933 8.63937931,45.4125156 C8.01,45.8256711 7.14351724,46.0334933 6.04241379,46.0334933 C5.31124138,46.0334933 4.61606897,45.9563378 3.96931034,45.8094933 C3.32503448,45.66016 2.63110345,45.4349156 1.89993103,45.1387378 C1.70503448,45.6987378 1.53868966,46.25376 1.40213793,46.8075378 C1.26310345,47.3575822 1.16627586,47.8902044 1.11289655,48.3954489 C1.54737931,48.57216 1.96944828,48.7214933 2.37289655,48.8434489 C2.77386207,48.9666489 3.18103448,49.0686933 3.59193103,49.1470933 C4.00282759,49.2279822 4.43358621,49.2852267 4.88917241,49.3163378 C5.34227586,49.3549156 5.85868966,49.3698489 6.43717241,49.3698489 C7.60655172,49.3698489 8.64310345,49.2242489 9.54434483,48.9218489 C10.4431034,48.6244267 11.1978621,48.21376 11.8135862,47.68736 C12.4218621,47.1622044 12.8898621,46.5300267 13.2151034,45.7933156 C13.5391034,45.0603378 13.7017241,44.2464711 13.7017241,43.3492267 C13.7017241,42.4942933 13.5974483,41.7687822 13.383931,41.1814044 C13.1791034,40.5952711 12.8811724,40.09376 12.5075172,39.6830933" id="Fill-5" fill="#78706E"></path>
                <path d="M27.450869,35.3053867 C26.8376276,35.3053867 26.2430069,35.3576533 25.6645241,35.46592 L22.466731,47.3180089 L19.6351448,35.46592 C19.3396966,35.3962311 19.0057655,35.3501867 18.6383172,35.3352533 C18.2696276,35.3128533 17.9121103,35.3053867 17.5632828,35.3053867 L16.7092138,35.3178311 C16.4050759,35.3277867 16.0512828,35.3750756 15.6490759,35.46592 L19.6351448,49.0552533 L20.106869,49.10752 L20.6543172,49.10752 L21.3792828,49.0950756 L22.0210759,49.0552533 L21.5754207,50.6842311 C21.4351448,51.1932089 21.2774897,51.5876978 21.1024552,51.8701867 L20.538869,52.4861867 L19.9243862,52.7213867 L19.2937655,52.7612089 L18.5054897,52.6952533 L17.874869,52.5521422 C17.7370759,52.90432 17.6191448,53.2652089 17.5223172,53.6422756 C17.4292138,54.0205867 17.3783172,54.4212978 17.3783172,54.8381867 L17.3783172,55.0348089 L17.4056276,55.2600533 C17.7916966,55.3658311 18.1814897,55.4454756 18.5712828,55.5114311 C18.9635586,55.5736533 19.4092138,55.5997867 19.8958345,55.5997867 C20.4196966,55.5997867 20.9112828,55.5512533 21.3681103,55.4591644 C21.8224552,55.3608533 22.2321103,55.1903644 22.5970759,54.9464533 C22.9632828,54.7012978 23.2934897,54.3590756 23.5814897,53.9172978 C23.8694897,53.4829867 24.1177655,52.9304533 24.3288,52.2646756 L29.3886621,35.46592 C28.9541793,35.3750756 28.5879724,35.3277867 28.2875586,35.3178311 L27.450869,35.3053867 Z" id="Fill-7" fill="#78706E"></path>
                <path d="M39.5301103,35.14784 C38.9901103,35.14784 38.5059724,35.2175289 38.0863862,35.36064 C37.6692828,35.4987733 37.3117655,35.6692622 37.0113517,35.8696178 L36.2677655,36.5005511 L35.7786621,37.0667733 L35.7786621,29.8365511 L34.8376966,29.7345067 L33.9165931,29.7058844 L32.9992138,29.7345067 L32.0805931,29.8365511 L32.0805931,49.08064 L33.0116276,49.1864178 L33.9165931,49.21504 L34.8376966,49.1864178 L35.7786621,49.08064 L35.7786621,41.9313067 C35.7786621,41.1945956 35.8643172,40.5997511 36.0319034,40.14304 C36.1945241,39.6863289 36.4055586,39.3304178 36.6575586,39.07904 L37.5091448,38.5663289 L38.4290069,38.4356622 C39.1428,38.4356622 39.6530069,38.68704 39.9496966,39.1972622 C40.248869,39.7074844 40.3953517,40.4317511 40.3953517,41.3775289 L40.3953517,49.08064 L41.3388,49.1864178 L42.2574207,49.21504 L43.1760414,49.1864178 L44.1182483,49.08064 L44.1182483,40.37824 C44.1182483,38.5737956 43.7321793,37.2509511 42.9513517,36.4097067 C42.1742483,35.5684622 41.0334207,35.14784 39.5301103,35.14784" id="Fill-9" fill="#78706E"></path>
                <path d="M54.9680276,35.4631822 L54.9680276,46.1118933 C54.5285793,46.2350933 53.9885793,46.2960711 53.3418207,46.2960711 C52.8688552,46.2960711 52.4604414,46.2375822 52.1103724,46.1243378 L51.2289931,45.5444267 C50.993131,45.2718933 50.8180966,44.9072711 50.705131,44.4406044 C50.5909241,43.9764267 50.5338207,43.3878044 50.5338207,42.6660267 L50.5338207,35.4631822 C49.9032,35.3574044 49.2862345,35.3026489 48.6717517,35.3026489 C48.0585103,35.3026489 47.4415448,35.3574044 46.8121655,35.4631822 L46.8121655,42.77056 C46.8121655,44.22656 46.9946483,45.39136 47.3596138,46.2674489 C47.7307862,47.1472711 48.221131,47.81056 48.8430621,48.2672711 C49.4662345,48.7227378 50.1849931,49.0214044 51.009269,49.1582933 C51.8298207,49.3014044 52.6838897,49.3710933 53.5776828,49.3710933 C54.573269,49.3710933 55.5316138,49.27776 56.4514759,49.0948267 C57.3638897,48.9106489 58.1049931,48.7227378 58.6660966,48.52736 L58.6660966,35.4631822 C58.0354759,35.3574044 57.4147862,35.3026489 56.8027862,35.3026489 C56.2069241,35.3026489 55.5961655,35.3574044 54.9680276,35.4631822" id="Fill-11" fill="#78706E"></path>
                <path d="M70.9007586,43.1669156 C70.7431034,42.73136 70.5221379,42.3592711 70.2465517,42.0630933 C69.9647586,41.7669156 69.6283448,41.5180267 69.2348276,41.3126933 C68.8450345,41.1135822 68.4018621,40.9406044 67.9102759,40.7999822 L66.4131724,40.3544711 C65.979931,40.2126044 65.6422759,40.0670044 65.4064138,39.9064711 C65.1705517,39.7484267 65.0526207,39.4758933 65.0526207,39.0926044 C65.0526207,38.6894044 65.2189655,38.39696 65.5528966,38.2140267 C65.8818621,38.0248711 66.3448966,37.9365156 66.942,37.9365156 C67.4993793,37.9365156 68.031931,38.0012267 68.5396552,38.1306489 C69.0473793,38.2613156 69.5104138,38.4156267 69.93,38.5910933 C70.1211724,38.2252267 70.2875172,37.79216 70.4290345,37.3043378 C70.568069,36.8140267 70.6574483,36.3386489 70.6897241,35.8819378 C70.0094483,35.6367822 69.3353793,35.4538489 68.67,35.3318933 C68.0071034,35.2099378 67.3317931,35.14896 66.6502759,35.14896 C65.007931,35.14896 63.7106897,35.5235378 62.756069,36.2764267 C61.8064138,37.0318044 61.326,38.0746489 61.326,39.4062044 C61.326,40.5100267 61.6028276,41.3400711 62.1552414,41.89136 C62.703931,42.4451378 63.4673793,42.8620267 64.4468276,43.1407822 L66.078,43.6136711 C66.5286207,43.7518044 66.8861379,43.9160711 67.1368966,44.1002489 C67.3901379,44.2819378 67.5192414,44.5880711 67.5192414,45.0074489 L67.2672414,45.7292267 L66.6502759,46.1759822 L65.8545517,46.4136711 L65.0526207,46.4783822 C64.4927586,46.4783822 63.9564828,46.4211378 63.440069,46.3066489 C62.9248966,46.1934044 62.3786897,46.0216711 61.8026897,45.7939378 C61.5904138,46.2506489 61.4191034,46.7173156 61.29,47.2038933 C61.1596552,47.6842489 61.074,48.1608711 61.0417241,48.63376 C61.407931,48.7756267 61.748069,48.89136 62.0608966,48.9747378 L63.0217241,49.1999822 L64.0284828,49.3306489 C64.3797931,49.3580267 64.7646207,49.3704711 65.1829655,49.3704711 C66.1090345,49.3704711 66.942,49.2522489 67.6731724,49.0170489 C68.408069,48.7781156 69.0349655,48.4533156 69.5513793,48.0426489 C70.0677931,47.6319822 70.4575862,47.1466489 70.7294483,46.58416 C71.0013103,46.0216711 71.1353793,45.41936 71.1353793,44.7722489 C71.1353793,44.1400711 71.0608966,43.6074489 70.9007586,43.1669156" id="Fill-13" fill="#78706E"></path>
            </g>
        </g>
    </g>
</svg>