<?xml version="1.0" encoding="UTF-8"?>
<svg width="106px" height="41px" viewBox="0 0 106 41" version="1.1" xmlns="http://www.w3.org/2000/svg" xmlns:xlink="http://www.w3.org/1999/xlink">
    <!-- Generator: sketchtool 60.1 (101010) - https://sketch.com -->
    <title>98D8EDE1-71CA-4439-A45E-D55F02D7F8DD</title>
    <desc>Created with sketchtool.</desc>
    <g id="Page-1" stroke="none" stroke-width="1" fill="none" fill-rule="evenodd">
        <g id="LP-DE-PATROCÃNIO" transform="translate(-556.000000, -3338.000000)">
            <g id="Group-29" transform="translate(556.000000, 3338.000000)">
                <path d="M-2.18314256e-12,25.578952 C0.0111623377,25.419599 0.0496103896,25.263952 0.115344156,25.1181873 C0.218285714,25.0045402 0.365876623,24.9415402 0.519668831,24.9452461 L8.90134416,24.9452461 C9.05513636,24.9415402 9.20272727,25.0045402 9.30566883,25.1181873 C9.39620779,25.2318343 9.43837662,25.377599 9.42101299,25.5208931 C9.41729221,25.6814814 9.3776039,25.8383637 9.30566883,25.9816579 C9.20272727,26.0953049 9.05513636,26.1583049 8.90134416,26.154599 L5.43357792,26.154599 L5.43357792,39.5674226 C5.44101948,39.7354226 5.35048052,39.8923049 5.20164935,39.9713637 C4.93747403,40.2011284 4.54183117,40.2011284 4.27765584,39.9713637 C4.12386364,39.9293637 4.02588312,39.7823637 4.04572727,39.6254814 L4.04572727,26.2114226 L0.519668831,26.2114226 C0.365876623,26.2163637 0.218285714,26.1533637 0.115344156,26.0397167 C0.0434090909,25.8964226 0.00372077922,25.7395402 -2.18314256e-12,25.578952" id="Fill-177" fill="#381C2E"></path>
                <path d="M8.84329725,36.3441696 L8.84329725,34.0415814 C8.84205974,33.0199931 9.26002727,32.0428755 9.99922208,31.3362873 C10.748339,30.5864637 11.770313,30.1714049 12.8319753,30.1849931 C13.8651117,30.1714049 14.8610403,30.5642284 15.6064364,31.2782284 C16.354313,31.9786402 16.774761,32.960699 16.7623584,33.9835226 C16.7635987,34.2948167 16.7239104,34.6048755 16.645774,34.905052 C16.5577156,35.1261696 16.3940013,35.3102284 16.1843974,35.4226402 C16.010761,35.5325814 15.8110792,35.5918755 15.6051961,35.5955814 C15.4328,35.5955814 15.2008714,35.6536402 14.9118909,35.6536402 L10.1728584,35.6536402 L10.1728584,36.4022284 C10.1393714,37.1532873 10.4605987,37.8771696 11.0398,38.3589343 C11.617761,38.8777579 12.3693584,39.1075226 13.3516442,39.1075226 C13.7869753,39.1198755 14.219826,39.042052 14.6229104,38.8765226 C14.9094104,38.777699 15.1810273,38.643052 15.4315597,38.4738167 C15.5667481,38.3626402 15.724261,38.2835814 15.8954169,38.2428167 C16.0628519,38.2354049 16.2203649,38.3255814 16.2997416,38.4738167 C16.3952416,38.5874637 16.4560143,38.7282873 16.4721377,38.8765226 C16.4721377,39.1643461 16.1843974,39.4521696 15.5481442,39.7968167 C14.8424364,40.1229343 14.0709948,40.2798167 13.2933519,40.2575814 C11.9637935,40.2575814 10.8661636,39.9129343 10.0575143,39.1643461 C9.24762468,38.4738167 8.84329725,37.4954637 8.84329725,36.3441696 L8.84329725,36.3441696 Z M10.1728584,34.6172284 L14.3339299,34.6172284 C14.6092675,34.6308167 14.8833649,34.5912873 15.1438195,34.5023461 C15.2988519,34.3504049 15.3819494,34.1416402 15.3745078,33.926699 C15.3881506,33.2361696 15.1165338,32.5691108 14.6229104,32.0836402 C14.1478909,31.5672873 13.4769104,31.2745226 12.7736831,31.2782284 C12.0778974,31.2535226 11.4056766,31.5265226 10.9244558,32.0268167 C10.4320727,32.490052 10.1592156,33.1373461 10.1728584,33.8118167 L10.1728584,34.6172284 Z" id="Fill-179" fill="#381C2E"></path>
                <path d="M18.0912968,37.553152 C18.0912968,36.4599167 18.4956214,35.7113284 19.362563,35.2505637 C20.1712123,34.8478579 21.3854266,34.6168579 23.0039656,34.6168579 L24.0445435,34.6168579 L24.0445435,34.0992696 C24.0656279,33.4013284 23.8634656,32.7157402 23.4665825,32.1413284 C23.0610175,31.5656814 22.4260045,31.3359167 21.6161149,31.3359167 C21.1014071,31.337152 20.5916604,31.4347402 20.1141604,31.6237402 C19.6515435,31.7966814 19.4196149,31.9115637 19.4196149,31.9115637 C19.2521799,31.9189755 19.0946669,31.828799 19.0152903,31.6805637 C18.8987058,31.5335637 18.8379331,31.3507402 18.8416539,31.1629755 C18.8416539,30.875152 19.1306344,30.6453873 19.7668877,30.4143873 C20.3746149,30.1784461 21.0220305,30.0610931 21.6744071,30.0697402 C23.0039656,30.0697402 23.9291994,30.4724461 24.5654526,31.2210343 C25.1868227,32.051152 25.5117708,33.0640931 25.4894461,34.0992696 L25.4894461,39.5110931 C25.4944071,39.6642696 25.4311539,39.8112696 25.3158097,39.913799 C25.0516344,40.1435637 24.6559916,40.1435637 24.3918162,39.913799 C24.2777123,39.8112696 24.2144591,39.6642696 24.2181799,39.5110931 L24.2181799,38.5895637 C23.2941864,39.6840343 22.2536084,40.2016226 21.0393942,40.2016226 C20.3014396,40.2300343 19.5808487,39.9842108 19.0165305,39.5110931 C18.3219851,39.107152 18.0912968,38.4746814 18.0912968,37.553152 M19.4208552,37.4382696 C19.4208552,38.0139167 19.5944916,38.4746814 19.940524,38.7625049 C20.2877968,39.0503284 20.6921214,39.1652108 21.2700825,39.1652108 C21.9596669,39.157799 22.6207253,38.8897402 23.12055,38.4166226 C23.698511,37.9558579 23.9874916,37.4382696 23.9874916,36.9775049 L23.9874916,35.6532696 L23.12055,35.6532696 C22.6566929,35.6384461 22.1928357,35.6582108 21.7326994,35.7113284 C21.3420175,35.7595049 20.9562968,35.8373284 20.5767773,35.9410931 C20.2443877,36.0300343 19.9442448,36.209152 19.7098357,36.4599167 C19.5113942,36.7465049 19.4109331,37.0899167 19.4208552,37.4382696" id="Fill-181" fill="#381C2E"></path>
                <path d="M27.9171305,39.6257284 L27.9171305,30.8180814 C27.9258123,30.6834343 27.9878253,30.5599049 28.0907669,30.472199 C28.3549422,30.2424343 28.7505851,30.2424343 29.0147604,30.472199 C29.1177019,30.5599049 29.1797149,30.6834343 29.1883968,30.8180814 L29.1883968,31.7964343 C29.4438903,31.3208461 29.8234097,30.9230814 30.2872669,30.6451402 C30.7908123,30.3387873 31.3724942,30.178199 31.9628578,30.1843755 C32.6090331,30.1621402 33.2428058,30.3659637 33.7550331,30.7600226 C34.2784227,31.135552 34.6802669,31.6568461 34.9109552,32.257199 C35.2123383,31.6160814 35.6947994,31.0762579 36.2975656,30.703199 C36.8345981,30.3659637 37.4559682,30.1868461 38.0897409,30.1843755 C39.0248968,30.1806696 39.9216045,30.5549637 40.5752214,31.2207873 C41.2685266,31.9113167 41.6157994,32.8896696 41.6157994,34.042199 L41.6157994,39.5676696 C41.6083578,39.7196108 41.5475851,39.8616696 41.442163,39.9716108 C41.1767474,40.2013755 40.7823448,40.2013755 40.5169292,39.9716108 C40.4152279,39.8839049 40.3532149,39.7591402 40.3445331,39.6257284 L40.3445331,34.0990226 C40.3730591,33.382552 40.1250071,32.6821402 39.6499877,32.1423167 C38.7247539,31.2207873 37.2240396,31.2207873 36.2975656,32.1423167 C35.7865786,32.614199 35.5112409,33.2899049 35.5459682,33.9841402 L35.5459682,39.6257284 C35.5459682,39.9716108 35.3152799,40.1433167 34.852663,40.1433167 C34.3900461,40.1433167 34.1593578,39.9716108 34.1593578,39.6257284 L34.1593578,34.0409637 C34.1779617,33.3603167 33.9286695,32.6994343 33.4660526,32.1991402 C33.0468448,31.7136696 32.4329162,31.4394343 31.7892214,31.450552 C31.1442864,31.4542579 30.5253968,31.7013167 30.0553383,32.1423167 C29.5356695,32.6018461 29.3049812,33.235552 29.3049812,34.0409637 L29.3049812,39.5676696 C29.3087019,39.7208461 29.2169227,39.859199 29.0730526,39.913552 C28.8088773,40.1433167 28.4132344,40.1433167 28.1490591,39.913552 C28.0126305,39.8839049 27.9171305,39.7640814 27.9171305,39.6257284" id="Fill-183" fill="#381C2E"></path>
                <path d="M43.9855636,35.5382637 L43.9855636,29.7237343 C43.9855636,28.1116755 44.4481805,26.9023226 45.3151221,26.0969108 C46.1820636,25.3483226 47.3950377,24.9456167 48.7828883,24.9456167 C50.2277909,24.9456167 51.4420052,25.291499 52.3659987,26.0400873 C53.2676675,26.719499 53.7848558,27.7917343 53.7538494,28.9183226 C53.7538494,29.4359108 53.6385052,29.7817931 53.4648688,29.953499 C53.1585247,30.1585579 52.7938883,30.259852 52.4242909,30.2413226 C51.5573494,30.2413226 51.0947325,29.953499 51.0947325,29.377852 C51.0947325,29.2049108 51.0376805,29.0319696 51.0376805,28.9170873 C51.0165961,28.7342637 50.9570636,28.5576167 50.8640442,28.399499 C50.7759857,28.2092637 50.6594013,28.0350873 50.5167714,27.8806755 C50.3480961,27.6892049 50.1273299,27.5496167 49.8817584,27.4779696 C49.569213,27.3544402 49.2343429,27.2963814 48.8982325,27.3050284 C47.4533299,27.3050284 46.7017325,28.1104402 46.7017325,29.722499 L46.7017325,35.5382637 C46.7017325,37.1503226 47.4533299,37.9557343 48.9565247,37.9557343 C49.3372844,37.9816755 49.7168039,37.9013814 50.0541545,37.7259696 C50.3282519,37.6147931 50.552739,37.4109696 50.6904078,37.1503226 C50.810713,36.9304402 50.9074532,36.6994402 50.9793883,36.4585579 C51.0376805,36.286852 51.0376805,35.9990284 51.0947325,35.7112049 C51.1530247,35.1343226 51.5573494,34.846499 52.4242909,34.846499 C52.8869078,34.846499 53.2924727,34.9613814 53.4648688,35.1343226 C53.6955571,35.3072637 53.8121416,35.6519108 53.8121416,36.1707343 C53.8121416,37.4369108 53.3495247,38.4152637 52.4242909,39.1650873 C51.5002974,39.9136755 50.2860831,40.3163814 48.8411805,40.3163814 C47.3962779,40.3163814 46.2403558,39.9136755 45.372174,39.1650873 C44.4481805,38.3584402 43.9855636,37.1503226 43.9855636,35.5382637" id="Fill-185" fill="#E0261C"></path>
                <path d="M55.3142201,36.1140343 L55.3142201,31.106152 C55.3142201,30.8763873 55.4295643,30.7034461 55.7185448,30.5305049 C56.2754214,30.1463284 57.0121357,30.1463284 57.5690123,30.5305049 C57.8567526,30.7034461 57.973337,30.8763873 57.973337,31.106152 L57.973337,36.1140343 C57.9807786,36.6032108 58.1655773,37.0738579 58.4930058,37.4382696 C58.8092721,37.8088579 59.2756097,38.0200931 59.7642721,38.0139167 C60.2554149,38.0324461 60.7267136,37.8187402 61.0355383,37.4382696 C61.372889,37.078799 61.5589279,36.6056814 61.5552071,36.1140343 L61.5552071,31.106152 C61.5552071,30.8763873 61.6717916,30.7034461 61.9607721,30.5305049 C62.2398305,30.3674461 62.5610578,30.287152 62.8847656,30.3007402 C63.2283175,30.2797402 63.569389,30.3600343 63.8670513,30.5305049 C64.0989799,30.7034461 64.2726257,30.8763873 64.2726257,31.106152 L64.2726257,36.1140343 C64.2750968,37.238152 63.7901552,38.3079167 62.9430578,39.0503284 C61.1620448,40.7389755 58.3652591,40.7389755 56.5842461,39.0503284 C55.7743565,38.2856814 55.3154604,37.2245637 55.3142201,36.1140343" id="Fill-187" fill="#E0261C"></path>
                <path d="M66.5272844,39.2802167 L66.5272844,25.3485696 C66.5223234,25.106452 66.6575117,24.8828637 66.8745571,24.7729226 C67.169739,24.5962755 67.5132909,24.5159814 67.8568429,24.5419226 C68.2003948,24.5221579 68.5414662,24.602452 68.8391286,24.7729226 C69.1281091,24.9458637 69.2434532,25.1188049 69.2434532,25.3485696 L69.2434532,39.2802167 C69.2434532,39.5099814 69.1281091,39.6829226 68.8391286,39.8558637 C68.5650312,40.0362167 68.2438039,40.1362755 67.9151351,40.1436873 C67.5827455,40.1548049 67.2565571,40.0535108 66.9899013,39.8558637 C66.7331675,39.7755696 66.5496091,39.5482755 66.5272844,39.2802167" id="Fill-189" fill="#E0261C"></path>
                <path d="M71.4981214,36.8048108 L71.4981214,26.8458696 C71.4981214,26.6148696 71.6134656,26.4419284 71.9024461,26.2702226 C72.1827448,26.1059284 72.5039721,26.0268696 72.8276799,26.0392226 C73.1526279,26.0194579 73.4750955,26.099752 73.7516734,26.2702226 C74.0406539,26.4419284 74.1572383,26.6148696 74.1572383,26.8458696 L74.1572383,30.299752 L76.6427188,30.299752 C76.853563,30.2985167 77.0507643,30.4084579 77.1623877,30.5875755 C77.393076,31.0606931 77.393076,31.6116343 77.1623877,32.084752 C77.0706084,32.282399 76.8597643,32.399752 76.6427188,32.3725755 L74.1572383,32.3725755 L74.1572383,36.6911637 C74.1336734,36.9876343 74.2378552,37.2816343 74.4462188,37.4965755 C74.6186149,37.6695167 74.9088357,37.7263402 75.3702123,37.7263402 L76.1801019,37.7263402 C76.5038097,37.7176931 76.8188357,37.8424579 77.0470435,38.0722226 C77.2268812,38.3032226 77.3285825,38.5861049 77.3360683,38.8776343 C77.3385045,39.1901637 77.2368032,39.4940461 77.0470435,39.7423402 C76.8734071,39.9721049 76.5844266,40.0882226 76.1801019,40.0882226 L75.3702123,40.0882226 C72.7693877,40.1438108 71.4981214,39.0505755 71.4981214,36.8048108" id="Fill-191" fill="#E0261C"></path>
                <path d="M78.6653344,36.1140343 L78.6653344,31.106152 C78.6653344,30.8763873 78.7806786,30.7034461 79.0696591,30.5305049 C79.6265357,30.1463284 80.36325,30.1463284 80.9201266,30.5305049 C81.2078669,30.7034461 81.3244513,30.8763873 81.3244513,31.106152 L81.3244513,36.1140343 C81.3318929,36.6032108 81.5166916,37.0738579 81.8441201,37.4382696 C82.1603864,37.8088579 82.626724,38.0200931 83.1153864,38.0139167 C83.6065292,38.0324461 84.0778279,37.8187402 84.3866526,37.4382696 C84.7240032,37.078799 84.9100422,36.6056814 84.9063214,36.1140343 L84.9063214,31.106152 C84.9063214,30.8763873 85.0229058,30.7034461 85.3118864,30.5305049 C85.5909448,30.3674461 85.9121721,30.287152 86.2358799,30.3007402 C86.5794318,30.2797402 86.9205032,30.3600343 87.2181656,30.5305049 C87.4500942,30.7034461 87.62374,30.8763873 87.62374,31.106152 L87.62374,36.1140343 C87.626211,37.238152 87.1412695,38.3079167 86.2941721,39.0503284 C84.5131591,40.7389755 81.7163734,40.7389755 79.9353604,39.0503284 C79.1254708,38.2856814 78.6665747,37.2245637 78.6653344,36.1140343" id="Fill-193" fill="#E0261C"></path>
                <path d="M89.7051344,39.2802167 L89.7051344,31.1062755 C89.7001734,30.8641579 89.8353617,30.6405696 90.0524071,30.5306284 C90.3289851,30.3601579 90.6514526,30.2798637 90.9764006,30.2996284 C91.2839851,30.2798637 91.589089,30.3601579 91.8445825,30.5306284 C92.0653487,30.6652755 92.1968162,30.9061579 92.1906149,31.163099 L92.1906149,32.0278049 C92.420063,31.5225696 92.7784981,31.0852755 93.2311929,30.7616284 C93.6628032,30.4305696 94.1899136,30.2489814 94.7343877,30.2440402 L95.3706409,30.2440402 C95.638537,30.2613343 95.8890695,30.386099 96.0639461,30.5886873 C96.2437838,30.8196873 96.3454851,31.1025696 96.3529266,31.3953343 C96.3454851,31.7053931 96.245024,32.0068049 96.0639461,32.2588049 C95.9051929,32.4823931 95.6447383,32.612099 95.3706409,32.6046873 L94.7926799,32.6046873 C94.1279006,32.6133343 93.5065305,32.9345108 93.1158487,33.4681579 C92.6532318,34.0450402 92.4225435,34.7936284 92.4225435,35.7139226 L92.4225435,39.4556284 C92.4225435,39.6866284 92.3071994,39.8583343 92.0182188,40.0312755 C91.7255175,40.2202755 91.3844461,40.3203343 91.0346929,40.319099 C90.7035435,40.3302167 90.3773552,40.2289226 90.1106994,40.0312755 C89.8204786,39.7409814 89.7051344,39.5099814 89.7051344,39.2802167" id="Fill-195" fill="#E0261C"></path>
                <path d="M96.9878156,36.0563461 L96.9878156,34.2713461 C96.9853351,33.1484637 97.4702766,32.0774637 98.317374,31.3362873 C99.1967182,30.5284049 100.357601,30.0948167 101.554452,30.1269343 C102.675647,30.1022284 103.767075,30.4913461 104.616653,31.2201696 C105.455069,31.9156402 105.923887,32.9569931 105.887919,34.0415814 C105.896601,34.3948755 105.838309,34.7469343 105.715523,35.0779931 C105.624984,35.312699 105.463751,35.514052 105.252906,35.6536402 C105.065627,35.745052 104.873387,35.8228755 104.674945,35.8834049 C104.501309,35.8834049 104.269381,35.9414637 103.98164,35.9414637 L99.7622766,35.9414637 L99.7622766,36.2292873 C99.7473935,36.7925814 100.005368,37.3274637 100.455582,37.6684049 C100.97153,38.0538167 101.602822,38.2564049 102.247757,38.244052 C102.793471,38.2465226 103.331744,38.1081696 103.808004,37.8413461 C104.327673,37.5535226 104.676186,37.4386402 104.79029,37.4386402 C105.092913,37.4398755 105.374452,37.5905814 105.541887,37.8413461 C105.713043,38.0772873 105.813504,38.3564637 105.830868,38.6467579 C105.830868,39.0494637 105.484835,39.3953461 104.79029,39.798052 C104.096984,40.2007579 103.230043,40.373699 102.189465,40.373699 C100.68751,40.373699 99.4732961,39.9709931 98.5480623,39.2224049 C97.5372506,38.4874049 96.9530883,37.3027579 96.9878156,36.0563461 L96.9878156,36.0563461 Z M99.7039844,34.3294049 L102.767426,34.3294049 C102.9299,34.3417579 103.092374,34.3022284 103.230043,34.2145226 C103.345387,34.1564637 103.345387,33.9835226 103.345387,33.8105814 C103.35779,33.3844049 103.164309,32.9779931 102.825718,32.7173461 C102.443718,32.4307579 101.97366,32.288699 101.49616,32.3146402 C101.038504,32.2973461 100.58829,32.4394049 100.224894,32.7173461 C99.8863026,32.9779931 99.6928221,33.3844049 99.7052247,33.8105814 L99.7039844,34.3294049 Z" id="Fill-197" fill="#E0261C"></path>
                <path d="M51.2682448,8.94164021 C49.6807123,8.97252256 48.0944201,8.85640491 46.5292123,8.59575785 C46.2402318,8.53893432 45.8929591,8.4808755 45.6039786,8.42405197 C46.4126279,7.84840491 47.1642253,7.21469903 47.9158227,6.58099315 C49.1895695,5.46799315 50.3504526,4.23393432 51.383589,2.89734609 C51.5572253,2.60952256 51.326537,2.26364021 50.9792643,2.43658138 C49.5306409,3.09993432 48.0212448,3.61999315 46.4709201,3.99058138 C45.3298812,4.26605197 44.1714786,4.45875785 43.0031539,4.56622844 C43.8217253,3.27040491 44.5187513,1.90293432 45.0843097,0.478640205 C45.147563,0.313110794 45.0632253,0.12905197 44.8970305,0.0672872642 C44.7816864,0.02405197 44.6526994,0.0499931465 44.5634006,0.133993147 C43.3529071,1.17040491 42.0357513,2.07711079 40.6330175,2.83928726 C40.5759656,2.89734609 40.5176734,2.89734609 40.4023292,2.95416962 C38.7254981,1.62993432 36.4719461,0.882581382 34.0435175,0.882581382 L32.4249786,0.882581382 C32.3939721,0.882581382 32.3679266,0.857875499 32.3679266,0.826993147 C32.3679266,0.825757852 32.3679266,0.825757852 32.3679266,0.824522558 L32.3679266,0.882581382 C29.8824461,0.882581382 25.8937708,0.882581382 23.4665825,0.824522558 L21.9063357,0.824522558 C19.520076,0.820816676 17.1871474,1.52246373 15.2014916,2.83928726 C15.1556019,2.79481668 15.0923487,2.77381668 15.0290955,2.78246373 C13.6437253,1.99311079 12.32905,1.08764021 11.0974721,0.075934323 C10.9598032,-0.03894803 10.7539201,-0.0216539123 10.638576,0.115463735 C10.5678812,0.200699029 10.5443162,0.315581382 10.5778032,0.421816676 C11.1669266,1.83375785 11.8614721,3.20122844 12.6577188,4.50816962 C11.4893942,4.40069903 10.3297513,4.20922844 9.18871234,3.93375785 C7.6371474,3.57058138 6.12651104,3.04928726 4.68160844,2.37852256 C4.50797208,2.20558138 4.21899156,2.60952256 4.45092013,2.83928726 C5.50017987,4.16352256 6.65982273,5.39634609 7.91868636,6.52416962 C8.66904351,7.15664021 9.42064091,7.79034609 10.2305305,8.36599315 C9.94155,8.42405197 9.59427727,8.4808755 9.30529675,8.53893432 C7.74380974,8.82922844 6.15379675,8.94534609 4.56626429,8.88358138 C4.39758896,8.86875785 4.24751753,8.99228726 4.23139416,9.16028726 C4.21899156,9.28381668 4.28348506,9.40240491 4.39262792,9.46046373 C5.86357597,10.2819343 7.41266039,10.9576402 9.01631623,11.4739931 C9.24824481,11.532052 9.53722532,11.6469343 9.76791364,11.7049931 C9.71954351,12.0669343 9.70093961,12.4338167 9.71086169,12.7982284 C9.68233571,19.4478167 15.0712643,24.8596402 21.7463422,24.888052 C21.7612253,24.888052 21.7761084,24.888052 21.7909916,24.888052 C23.9862513,24.888052 31.6746214,24.946132 33.9281734,24.946132 C40.6243357,24.9584637 46.0727968,19.5824637 46.1248877,12.9143461 C46.1335695,12.4906402 46.1149656,12.0681696 46.0665955,11.6481696 C46.3245695,11.5975226 46.5763422,11.519699 46.8181929,11.4159343 C48.4218487,10.8983461 49.9709331,10.2238755 51.4418812,9.40116962 C51.7308617,9.34434609 51.6155175,8.94164021 51.2682448,8.94164021" id="Fill-199" fill="#E0261C"></path>
                <path d="M33.9284214,4.5664755 L21.9065838,4.5664755 C17.2791747,4.57018138 13.5286292,8.30571079 13.5248166,12.9133579 C13.5100253,16.0670637 15.3059214,18.9527108 18.149837,20.3399461 L17.6289279,22.8154755 L20.6923695,21.1465931 C21.1128175,21.2157696 21.5369864,21.2540637 21.9636357,21.2614755 L33.9854734,21.2614755 C38.6128825,21.2577696 42.3634279,17.5222402 42.3671487,12.9133579 C42.3162981,8.30200491 38.558311,4.58624021 33.9284214,4.5664755" id="Fill-201" fill="#FFFFFF"></path>
                <path d="M16.010389,12.9139755 C16.1505383,14.1443284 16.6528435,15.3067402 17.4552916,16.2529755 C17.8484539,16.7137402 18.3172721,17.1028579 18.8431422,17.4042696 C19.3454474,17.6982696 19.8911617,17.9119755 20.4616812,18.0379755 C20.7457006,18.1046814 21.0359214,18.1429755 21.3286227,18.1528579 L22.1968045,18.1528579 L24.1030838,18.094799 L31.7331617,18.094799 L33.6406812,18.1528579 L34.508863,18.1528579 C34.800324,18.1429755 35.0905448,18.1046814 35.3758045,18.0379755 C35.9450838,17.9119755 36.4920383,17.6982696 36.9943435,17.4042696 C37.5189734,17.1028579 37.9890318,16.7137402 38.3809539,16.2529755 C39.2156487,15.3265049 39.7216747,14.1542108 39.823376,12.9139755 C39.9325188,14.2184461 39.5852461,15.5192108 38.8410903,16.5988579 C38.4392461,17.1325049 37.9741487,17.6155049 37.4544799,18.0379755 C36.8938825,18.4456226 36.2687916,18.7569167 35.6040123,18.9582696 C35.2827851,19.0558579 34.9541162,19.1336814 34.6217266,19.1892696 L34.1020578,19.2460931 L33.6394409,19.2460931 L31.7319214,19.304152 L27.9168825,19.304152 C26.6456162,19.304152 25.37435,19.304152 24.1018435,19.2460931 L22.1955643,19.1892696 L21.7329474,19.1892696 L21.2120383,19.1312108 C20.8784084,19.0879755 20.5484994,19.0113873 20.2297526,18.9014461 C19.5748955,18.6766226 18.9535253,18.3665637 18.3805253,17.9799167 C17.8459734,17.5735049 17.3783955,17.0880343 16.9926747,16.540799 C16.2423175,15.4870931 15.8938045,14.201152 16.010389,12.9139755" id="Fill-203" fill="#E0261C"></path>
            </g>
        </g>
    </g>
</svg>