<?xml version="1.0" encoding="UTF-8"?>
<svg width="141px" height="44px" viewBox="0 0 141 44" version="1.1" xmlns="http://www.w3.org/2000/svg" xmlns:xlink="http://www.w3.org/1999/xlink">
    <!-- Generator: sketchtool 60.1 (101010) - https://sketch.com -->
    <title>068675AF-3713-4AA4-8AA7-B22DE3FD7DD7</title>
    <desc>Created with sketchtool.</desc>
    <g id="Page-1" stroke="none" stroke-width="1" fill="none" fill-rule="evenodd">
        <g id="LP-DE-PATROCÃNIO" transform="translate(-1238.000000, -3841.000000)">
            <g id="Group-54" transform="translate(1238.000000, 3841.000000)">
                <path d="M52.3713839,25.5343772 C53.3706555,23.7912106 54.4456295,22.1262468 55.5899973,20.5281338 C55.4373308,20.5596672 54.9540972,20.7640036 54.1440816,21.1487112 L53.7958506,21.1133938 L53.9409469,20.7640036 C54.2828693,20.5117364 54.9843782,20.1636076 56.0479968,19.7158332 C57.4333506,17.5892204 58.4073881,16.094537 58.9701092,15.2292603 C60.5005593,12.8440735 61.3219303,11.5537266 61.4405307,11.3569581 L62.0335328,11 L62.483962,11.6306681 C62.789295,12.4820701 62.7943418,13.1266129 62.4864854,13.5579898 C62.2682102,13.8682786 61.9073621,14.2895648 61.4026795,14.8168034 C60.8109391,15.4323355 60.2898543,16.0226408 59.8406868,16.5952874 C59.2010015,17.3962359 58.5676248,18.2274565 57.9493886,19.0851651 C60.2141519,18.300614 61.8556321,18.0975389 62.8813996,18.4797238 L63,18.6096414 L62.8183143,19.2062534 C62.3577914,19.8697163 62.084001,20.2645145 61.9918965,20.3856028 C61.503616,21.0175322 61.2058533,21.2382661 61.0973465,21.0591563 C61.482167,20.63787 61.3913241,20.2985706 60.828603,20.037474 C60.2822841,19.7852067 59.6047476,19.7271853 58.8023023,19.8583642 C58.0389698,19.9882819 57.509053,20.1219835 57.2100286,20.2682985 C56.4630983,21.2647541 55.5635015,22.674928 54.5137616,24.5063882 C53.7819718,25.7702471 53.3416362,26.7439986 53.1864463,27.4326882 C52.9719562,28.366077 53.2053719,28.958905 53.8917403,29.2111723 C54.598296,29.4634395 55.4461628,29.4205541 56.4416493,29.0799933 C57.4409209,28.7482619 58.7530957,28.1806606 60.3781738,27.3784507 L60.7024323,27.3860188 L60.6115895,27.7480223 C60.3819589,28.0217322 59.5328304,28.5754588 58.0755593,29.4155087 C54.9124609,31.2293102 52.6678849,31.4866228 51.3418313,30.1836625 C50.7589229,29.6122772 50.9216831,28.4001331 51.8288501,26.5421848 L52.3713839,25.5343772 Z" id="Fill-1427" fill="#000000"></path>
                <path d="M63.4820786,20.0873253 L63.8853721,20.0873253 L64.1221683,20.4890584 C63.0837183,23.3567358 62.0946009,25.6108335 61.154816,27.2487681 C62.0810344,25.9583133 62.7877231,24.9998373 63.2637821,24.3707568 C64.2245333,23.0983864 65.04962,22.1554115 65.7365757,21.5405401 C66.4185981,20.9269605 67.1326866,20.4838915 67.8800746,20.2087495 C68.5744301,19.9504001 69.1195546,19.9323157 69.514215,20.1519126 C69.8546095,20.3547168 70.0149403,20.6802369 69.9989072,21.1323482 C69.9656077,22.1954556 69.6535794,22.8787895 69.0628222,23.1707243 L68.2944679,23.0299239 C68.204436,22.9097915 68.0860379,22.6475669 67.9466735,22.2419585 L67.830742,21.7730545 L67.6667113,21.2976918 L66.8860239,21.2757321 C66.4296979,21.683924 65.5108793,22.7935343 64.1271015,24.6032712 C63.6461093,25.2388105 62.6397254,26.6946088 61.1030168,28.9693744 C60.2261309,30.2727467 59.6304405,30.9470384 59.3147122,31 L58.2343296,30.6977313 L58,30.0027717 C58.0493325,29.8374281 58.2466627,29.4499042 58.5919905,28.844075 C59.5317754,27.2100157 60.3691953,25.4377394 61.0968502,23.5298298 C61.8602713,21.5147052 62.2425985,20.5058512 62.2425985,20.5006842 L63.0220526,20.109285 L63.4820786,20.0873253 Z" id="Fill-1429" fill="#000000"></path>
                <path d="M69.2770804,25.2224374 C70.6809637,23.8784551 72.1812403,22.7836311 73.7865611,21.933056 C75.5933193,20.9769261 76.8143023,20.7572249 77.4482742,21.2665881 L77.6534191,22.1539846 L77.3407585,22.5332454 L76.7772279,22.6928049 C75.6205072,22.6928049 74.4687297,23.0561097 73.3169522,23.7888562 C72.4123373,24.3571337 71.6251246,24.9560957 70.9553141,25.5808327 C70.1026033,26.3663566 69.6589465,27.0242329 69.6144573,27.5532341 C69.609514,28.0662794 70.3337003,27.9067199 71.7820728,27.0757829 C72.9264354,26.4240435 74.0658548,25.6471113 75.192916,24.7474409 L75.6093849,24.3767718 L76.0864086,23.9557801 C76.4855761,23.6035217 76.7982367,23.3801383 77.0318053,23.2807205 C77.8227255,22.9493276 77.9537216,23.2684467 77.4359161,24.2294861 C77.2764962,24.5277397 77.0318053,24.91191 76.7092582,25.3905886 C76.3743529,25.887678 76.202575,26.1540197 76.1852736,26.1822494 C75.6056774,27.1801103 75.2880735,28.0049104 75.2312262,28.6591045 C75.1743788,29.3771225 75.4450218,29.7662023 76.05057,29.8312535 C76.9996742,29.9380356 77.9463067,29.5870046 78.8917035,28.7867521 C79.2550324,28.57687 79.6912743,28.2957997 80.2004292,27.9435413 C80.5761162,27.6821091 80.7862044,27.5532341 80.8257504,27.5532341 L81,27.977908 C80.8554099,28.2503866 80.5625223,28.5412759 80.1262804,28.8518033 C78.9510225,29.7011511 78.0810103,30.2522452 77.5261304,30.5063131 C76.789586,31.0254953 75.8812637,31.1359596 74.7949843,30.8340238 C73.7445434,30.5517262 73.3614415,29.7256987 73.6543291,28.3522592 C73.7989192,27.6759722 74.0460817,27.0193233 74.3995242,26.3896768 C74.3377336,26.4375447 73.8248713,26.8106685 72.8535225,27.5225496 C72.1355153,28.0429592 71.5361461,28.4541319 71.0405852,28.7560676 C69.5477234,29.6778308 68.4120115,30.006769 67.6421002,29.7453368 C66.8499442,29.4802225 66.791861,28.7450212 67.4616715,27.5434151 C67.9349878,26.6965221 68.540536,25.9257268 69.2770804,25.2224374" id="Fill-1431" fill="#000000"></path>
                <path d="M81.8736443,24.4295583 C82.9293528,23.176614 83.9512786,22.2369057 84.9406282,21.606598 C85.633173,21.1603964 86.6176966,20.7129162 87.8905793,20.2667146 C88.324928,20.1120144 88.7906462,20.0237968 89.2841145,20.0007836 C89.8922026,19.989277 90.2843229,20.1043433 90.4737472,20.3562107 C90.6342149,20.5901788 90.6366279,21.0159242 90.4785733,21.6360038 C90.312073,22.26759 90.0828334,22.657537 89.7993003,22.8160728 C89.6050499,22.9221895 89.3010059,23.0257492 88.8835486,23.1101312 C88.4057651,23.2200835 88.1391233,23.2136909 88.0824167,23.0807254 C88.0389818,22.9720516 88.0956884,22.7125131 88.2477104,22.2957174 C88.4057651,21.8661364 88.4528195,21.564407 88.3924933,21.3994786 C88.3080366,21.1130913 88.0196774,21.0709003 87.5334482,21.2754627 C87.1316758,21.4467836 86.7576533,21.6922585 86.411381,22.0118871 C85.5607815,22.8160728 84.753617,23.6918554 83.9971265,24.6379562 C83.0294943,25.8282533 82.5227542,26.7078714 82.4720802,27.2640253 C82.3912431,28.0567043 82.9558963,28.5246407 84.1781051,28.6703914 C85.2350201,28.7931288 86.5042833,28.6652773 87.9883078,28.286837 C89.1381251,27.9927786 90.0804204,27.6616433 90.8031282,27.28576 C91.3762271,26.980195 91.6585537,26.8254947 91.645282,26.8254947 L92,27.1131605 C91.9396738,27.3074948 91.6947494,27.5363489 91.2652269,27.8010014 C89.934431,28.592402 88.2477104,29.208646 86.1954132,29.6484551 C83.6484411,30.1969378 81.783155,30.1048848 80.5959354,29.3633463 C79.894945,28.9299298 79.8116948,28.0912242 80.3498045,26.8472295 C80.7045226,26.018752 81.2100561,25.2132878 81.8736443,24.4295583" id="Fill-1433" fill="#000000"></path>
                <path d="M95.1824995,21.7381255 C94.4989818,22.6956174 93.9287543,23.6275924 93.4806284,24.52676 C93.0576782,25.3748937 92.8738963,25.9022433 92.9318002,26.1027333 L93.5272033,26.0589901 C93.7978411,25.885232 94.2144974,25.552297 94.767102,25.0589699 C95.3146715,24.566858 96.3116255,23.9386558 97.7541879,23.1792238 C98.7813526,22.6348629 99.7757892,21.9361854 100.740015,21.0795461 L101.624938,20.945886 L102.172507,21.6858766 C102.314749,22.0054456 101.971102,22.5072783 101.140307,23.1889445 C100.215104,23.9471614 99.146399,24.4769412 97.9404874,24.7758537 C97.426905,24.9107288 97.0794816,25.0966378 96.8956996,25.339656 L96.7735979,25.6616552 C96.7912209,26.2193821 96.9724852,26.8147768 97.306062,27.4502695 C97.6887313,28.1866148 98.1242693,28.6046062 98.6265227,28.6993834 C99.2269609,28.8257529 100.649383,28.4976782 102.901341,27.7102991 C103.299115,27.5717787 103.341914,27.6702011 103.027219,28.0007059 L102.444404,28.535346 C101.535564,29.2510348 100.551198,29.7091242 99.4913048,29.9023237 C98.4414819,30.093093 97.4369752,30.0031763 96.4740082,29.6435093 C95.6734239,29.3445968 95.076762,28.7941605 94.6789874,27.9934153 C94.4813589,27.5887899 94.3592572,27.2194022 94.3151998,26.8852521 C93.752525,27.3822244 93.1042531,27.6531898 92.3703841,27.7005783 C91.6856076,27.7418914 91.2500696,27.5997258 91.0612525,27.2728662 C90.9190104,27.0067612 91.0247479,26.4745513 91.3759476,25.6738061 C91.4174874,25.5608026 91.7372176,24.9338155 92.3187741,23.7867694 C92.5113675,23.408876 93.0727836,22.6081309 94.0030223,21.3833189 C95.1195605,19.9094132 95.7993019,18.9944495 96.0409877,18.6469334 C99.9432069,12.8703895 101.963549,9.77555207 102.100757,9.3672814 C102.323561,8.71842267 102.794345,8.27369927 103.504297,8.03918665 C104.083336,7.84963242 104.155086,8.34781983 103.719548,9.53253381 C102.926516,11.6893208 101.67403,13.861904 99.9646062,16.045423 C98.8984192,17.4136157 97.306062,19.3103732 95.1824995,21.7381255" id="Fill-1435" fill="#000000"></path>
                <path d="M106.033633,27.9583069 C105.656824,28.6173955 105.170971,29.139905 104.578496,29.5183171 C104.029639,29.8779338 103.512284,30.0358144 103.04097,29.9932117 C102.540577,29.9568741 102.226771,29.7162942 102.092283,29.2614479 C101.794229,28.2552727 102.217079,27.2002297 103.376584,26.0862948 C103.956943,25.5274478 104.570015,25.0675894 105.207319,24.7167437 C105.170971,24.299488 105.063138,23.8910034 104.886243,23.4787598 L104.654827,22.993841 L104.441585,22.5314766 C104.147165,21.7997128 104.238035,20.9276107 104.722677,19.9139174 C105.002557,19.3174798 105.416926,18.8551154 105.973053,18.5180529 C106.441944,18.2386294 106.973838,18.0719778 107.578429,18.0206039 C108.099419,17.9717361 108.582849,18.0093267 109.035989,18.1383878 C109.470955,18.2624368 109.748412,18.4253294 109.879266,18.6345838 C110.109471,19.0017187 110.092508,19.4352637 109.82959,19.9352188 C109.592116,20.4038483 109.314658,20.6582114 108.998429,20.698308 C108.619197,20.7446698 108.309026,20.4364268 108.071552,19.7773382 L108.003702,19.3989261 L107.838924,18.9465858 C107.599026,18.6583912 107.170118,18.9340556 106.549776,19.7773382 C105.93307,20.6080906 105.727097,21.5954705 105.941551,22.7344658 C106.040903,23.302084 106.208104,23.7870028 106.437097,24.1917283 C107.063497,23.9950041 107.725033,23.8960155 108.409589,23.8910034 C109.798088,23.865943 110.660751,24.3245484 111,25.2680726 L110.951536,25.8143894 L110.830375,25.8807995 L110.77343,25.8269196 L110.499607,25.5136646 C109.733873,24.9924082 108.874846,24.8132263 107.929794,24.9886491 C107.463326,25.0726015 107.067132,25.2129397 106.74848,25.4046518 C106.715766,26.3394049 106.478292,27.1902056 106.033633,27.9583069 M104.303462,27.0862049 C103.437164,27.8417761 103.150014,28.3793217 103.44928,28.7026009 C103.807915,29.1010613 104.287711,28.7790351 104.886243,27.7327633 C105.187933,27.2064948 105.453274,26.6476478 105.684691,26.0512102 C105.195203,26.3594532 104.734793,26.7065398 104.303462,27.0862049" id="Fill-1437" fill="#000000"></path>
                <path d="M111.276817,25.2224374 C112.680731,23.8784551 114.182278,22.7836311 115.785163,21.933056 C117.593198,20.9769261 118.814208,20.7572249 119.448194,21.2665881 L119.652108,22.1539846 L119.340676,22.5332454 L118.778369,22.6928049 C117.621622,22.6928049 116.469819,23.0561097 115.318015,23.7888562 C114.412144,24.3571337 113.626149,24.9560957 112.956324,25.5808327 C112.103594,26.3663566 111.658691,27.0242329 111.614201,27.5532341 C111.610493,28.0662794 112.33346,27.9067199 113.783101,27.0757829 C114.926254,26.4240435 116.065699,25.6471113 117.194021,24.7474409 L117.609264,24.3767718 L118.085062,23.9557801 C118.485474,23.6035217 118.798142,23.3801383 119.032952,23.2807205 C119.82389,22.9493276 119.953653,23.2684467 119.437072,24.2294861 C119.276412,24.5277397 119.032952,24.91191 118.707926,25.3905886 C118.374249,25.887678 118.201231,26.1540197 118.183929,26.1822494 C117.605556,27.1801103 117.289181,28.0049104 117.22986,28.6591045 C117.173012,29.3771225 117.443661,29.7662023 118.049223,29.8312535 C118.999584,29.9380356 119.946238,29.5870046 120.892892,28.7867521 C121.253757,28.57687 121.690009,28.2957997 122.201647,27.9435413 C122.576107,27.6821091 122.784964,27.5532341 122.825746,27.5532341 L123,27.977908 C122.854171,28.2503866 122.563748,28.5412759 122.127497,28.8518033 C120.949741,29.7011511 120.08218,30.2522452 119.526052,30.5063131 C118.789491,31.0254953 117.881148,31.1359596 116.794845,30.8340238 C115.745616,30.5517262 115.362505,29.7256987 115.654164,28.3522592 C115.798757,27.6759722 116.045925,27.0193233 116.399376,26.3896768 C116.336348,26.4375447 115.823474,26.8106685 114.852103,27.5225496 C114.135316,28.0429592 113.535933,28.4541319 113.042833,28.7560676 C111.547466,29.6778308 110.412964,30.006769 109.643035,29.7453368 C108.849626,29.4802225 108.791541,28.7450212 109.462603,27.5434151 C109.934694,26.6965221 110.540256,25.9257268 111.276817,25.2224374" id="Fill-1439" fill="#000000"></path>
                <g id="Group-1446" transform="translate(121.000000, 9.000000)" fill="#000000">
                    <path d="M10.3081588,5.43033333 C11.5224529,4.04922222 12.5094529,3.04822222 13.2654529,2.42611111 C14.7465706,1.18922222 15.9126882,0.757777778 16.7650412,1.13666667 C17.7433941,1.56811111 17.8471588,2.48722222 17.0738647,3.88788889 C16.3660412,5.15288889 14.8565118,6.95444444 12.5415706,9.28644444 C10.6256294,11.2163333 7.74615882,13.5275556 3.90439412,16.2176667 C3.65362941,16.3924444 3.27933529,16.8678889 2.78521765,17.6452222 C2.22933529,18.5215556 2.03292353,19.0911111 2.19227647,19.3575556 C2.42821765,19.7413333 2.86427647,19.9332222 3.50045294,19.9332222 C4.15886471,19.9405556 4.94451176,19.7364444 5.86233529,19.327 C7.6671,18.5215556 9.11980588,17.7356667 10.2179824,16.9754444 L10.7541,16.6356667 L11.1951,16.7322222 L11.0023941,17.2345556 L10.2785118,17.7613333 C7.78321765,19.2243333 6.3021,20.0676667 5.84627647,20.2901111 C3.5511,21.4072222 1.75374706,21.6333333 0.461629412,20.9745556 C0.100923529,20.7912222 -0.00160588235,20.3597778 0.154041176,19.6838889 C0.272629412,19.1583333 0.490041176,18.6474444 0.803805882,18.15 C1.45727647,17.0842222 2.62092353,15.4244444 4.29598235,13.1694444 C7.17792353,9.28644444 9.18157059,6.70755556 10.3081588,5.43033333 M9.54845294,9.999 C12.3204529,7.41522222 13.8744529,5.577 14.2153941,4.48555556 C14.4241588,3.77666667 14.2808647,3.56644444 13.7830412,3.84633333 C13.3235118,4.103 12.6119824,4.74222222 11.6533941,5.75544444 C9.59662941,7.93955556 7.53615882,10.5355556 5.48062941,13.5397778 C6.80362941,12.4654444 8.15874706,11.2884444 9.54845294,9.999" id="Fill-1442"></path>
                    <path d="M15.4815706,18.7794444 C16.6415118,18.1573333 17.8051588,17.4203333 18.9737471,16.5733333 C19.5568059,16.1467778 19.9113353,16.0404444 20.0385706,16.2616667 C20.1163941,16.4144444 19.9039235,16.7053333 19.3974529,17.1306667 C15.6088059,20.3781111 12.7552765,21.7494444 10.8343941,21.2385556 C10.4860412,21.1468889 10.2501,20.9073333 10.1265706,20.5247778 C10.0030412,20.1678889 9.98698235,19.7071111 10.0722176,19.1448889 C10.2624529,17.9764444 10.7849824,16.7884444 11.6447471,15.5894444 C12.1549235,14.8634444 12.8219824,14.1154444 13.6311,13.3393333 C14.4612176,12.5412222 15.2641588,11.9056667 16.0288059,11.4302222 C16.8811588,10.8887778 17.5556294,10.6443333 18.0448059,10.6932222 C18.6006882,10.7506667 18.8749235,11.1894444 18.8638059,12.0144444 C18.8255118,13.4847778 17.8051588,14.7351111 15.7990412,15.7556667 C14.7996882,16.2641111 13.8040412,16.6307778 12.8083941,16.8458889 C12.4699235,17.4203333 12.2117471,17.9898889 12.0388059,18.5472222 C11.8510412,19.1998889 11.8572176,19.5934444 12.0721588,19.7242222 C12.5872765,20.0505556 13.7212765,19.7315556 15.4815706,18.7794444 M15.1986882,14.0225556 C14.5933941,14.6092222 14.0091,15.2325556 13.4421,15.8815556 C14.6675118,15.62 15.6829235,15.1237778 16.5019235,14.3892222 L17.2344529,13.4774444 L17.2999235,12.7331111 C17.1109235,12.4055556 16.4117471,12.8382222 15.1986882,14.0225556" id="Fill-1444"></path>
                </g>
                <path d="M43,21.9987467 C43,34.1474392 33.3744872,44 21.4987751,44 C9.62673769,44 0,34.1474392 0,21.9987467 C0,9.84754743 9.62673769,0 21.4987751,0 C33.3744872,0 43,9.84754743 43,21.9987467" id="Fill-1447" fill="#000000"></path>
                <path d="M12.4862252,24.2625626 C13.5717843,22.4330701 14.733434,20.6834413 15.9737107,19.0038468 C15.8088477,19.0345636 15.286359,19.2495812 14.4075127,19.6513569 L14.0270597,19.6181827 L14.1881181,19.2544958 C14.5584257,18.9891027 15.3193316,18.6192725 16.4695677,18.1511485 C17.9710887,15.9223376 19.0262116,14.3496375 19.6387409,13.437963 C21.2937113,10.9339296 22.1852394,9.57993315 22.312057,9.37597361 L22.9575589,9 L23.4432705,9.66102549 C23.7768009,10.55427 23.7768009,11.2300395 23.447075,11.6871055 C23.2061215,12.0139322 22.8180595,12.4513394 22.2727436,13.0030131 C21.6323144,13.6505232 21.0667077,14.2722312 20.5809961,14.8742804 C19.883499,15.7159207 19.2037563,16.5882778 18.5290864,17.4913516 C20.9817398,16.6656841 22.7635279,16.4518952 23.8731823,16.8548996 L24,16.9888248 L23.805969,17.6142188 C23.3075756,18.3145618 23.0095541,18.7273956 22.9119045,18.8588635 C22.3830749,19.516203 22.0584217,19.7496506 21.9392131,19.5604352 C22.3577114,19.1193419 22.26133,18.7630271 21.6488007,18.4914906 C21.0527577,18.2285548 20.322288,18.1622065 19.4573916,18.2973604 C18.6305405,18.4349717 18.0509839,18.5787263 17.7275988,18.7310816 C16.9248431,19.7791388 15.9483472,21.2633744 14.8044519,23.1813313 C14.0143779,24.508297 13.5375436,25.5354667 13.3688761,26.2542398 C13.1355316,27.2322626 13.3891669,27.8527419 14.1323183,28.1193637 C14.8970288,28.3859856 15.817725,28.3417534 16.895675,27.9842098 C17.9786978,27.6328097 19.40286,27.0393611 21.1630891,26.1977209 L21.5105695,26.2112363 L21.4167244,26.5859812 C21.1668936,26.8722617 20.2525383,27.4571096 18.6685858,28.3368387 C15.2445092,30.2425088 12.8108784,30.507902 11.3702298,29.1465335 C10.7386779,28.5444842 10.9149545,27.2691228 11.9003276,25.3204491 L12.4862252,24.2625626 Z" id="Fill-1449" fill="#94BD54"></path>
                <path d="M24.4822092,28.7866769 C24.0576677,29.5043448 23.5219962,30.0658884 22.8652055,30.4826394 C22.2496203,30.8666547 21.6789866,31.0391468 21.1533043,30.9925613 C20.6038977,30.9547893 20.2492807,30.6891263 20.1044371,30.2006085 C19.7685499,29.110257 20.2430374,27.9657656 21.5254025,26.7583208 C22.1759499,26.1539689 22.852719,25.6591558 23.5632017,25.2776587 C23.5219962,24.8256538 23.4021256,24.3812033 23.2010928,23.9367529 L22.9488652,23.4117222 L22.7103727,22.9080956 C22.3819774,22.1186609 22.4881128,21.173102 23.0275302,20.0764551 C23.3359471,19.430554 23.7966995,18.9281865 24.4122847,18.558021 C24.930475,18.2571041 25.5260818,18.0757985 26.195359,18.0216587 C26.7747333,17.9687779 27.312902,18.0128452 27.8173572,18.1526016 C28.2993367,18.2860626 28.6114996,18.4623319 28.7525972,18.6889639 C29.0060734,19.0868289 28.9885923,19.5564607 28.6989052,20.1003774 C28.4329424,20.604004 28.1245255,20.8809986 27.7749031,20.926325 C27.3503616,20.9716514 27.0094797,20.643035 26.743517,19.9253671 L26.6685979,19.5186887 L26.4862948,19.0289118 C26.220332,18.7191815 25.7420985,19.0150621 25.0553402,19.9253671 C24.3698305,20.8268587 24.1413273,21.8945471 24.3735765,23.1334685 C24.4909497,23.7441157 24.6745015,24.2729236 24.930475,24.7085606 C25.6259739,24.4945193 26.3589323,24.3900168 27.123107,24.3812033 C28.660197,24.3572811 29.6216586,24.8558714 30,25.8744562 L29.9450593,26.4699946 L29.8127023,26.5354661 L29.7452751,26.477549 L29.4431014,26.1426373 C28.5902725,25.5722802 27.6388001,25.3846793 26.5874355,25.5672439 C26.0667479,25.6641921 25.6284712,25.81528 25.2726055,26.023026 C25.235146,27.0365745 24.9716805,27.9569521 24.4822092,28.7866769 M22.5580372,27.8448952 C21.5928297,28.6607702 21.2769208,29.243718 21.6065648,29.5924794 C22.0073819,30.0281164 22.5405561,29.679355 23.2060874,28.5436771 C23.5394773,27.9733199 23.837905,27.368968 24.0913813,26.7268442 C23.5507152,27.0592377 23.0350221,27.4319214 22.5580372,27.8448952" id="Fill-1451" fill="#94BD54"></path>
            </g>
        </g>
    </g>
</svg>