<?xml version="1.0" encoding="UTF-8"?>
<svg width="106px" height="39px" viewBox="0 0 106 39" version="1.1" xmlns="http://www.w3.org/2000/svg" xmlns:xlink="http://www.w3.org/1999/xlink">
    <!-- Generator: sketchtool 60.1 (101010) - https://sketch.com -->
    <title>42BAEB0E-EC89-45F1-92EB-8B84494C7871</title>
    <desc>Created with sketchtool.</desc>
    <g id="Page-1" stroke="none" stroke-width="1" fill="none" fill-rule="evenodd">
        <g id="LP-DE-PATROCÃNIO" transform="translate(-1491.000000, -3642.000000)">
            <g id="Group-40" transform="translate(1490.000000, 3641.000000)">
                <path d="M39.6412492,3.15416687 L39.6412492,26.6294178 C39.6412492,27 39.3035714,27 39.3035714,27 L37.7319736,27 C37.7319736,27 37.3587508,27 37.3587508,26.6294178 L37.3587508,3.15416687 L31.3732227,3.15416687 C31,3.15416687 31,2.82013865 31,2.82013865 L31,1.37184273 C31,1.37184273 31,1 31.3732227,1 L45.6267773,1 C46,1 46,1.33402822 46,1.33402822 L46,2.78358462 C46,2.78358462 46,3.15416687 45.6267773,3.15416687 L39.6412492,3.15416687 Z" id="Fill-1566" fill="#78736E"></path>
                <path d="M47.9768652,14.4834003 L47.9768652,26.6248327 C47.9768652,27 47.6020821,27 47.6020821,27 L46.3412377,27 C46.3412377,27 46,27 46,26.6248327 L46,8.63842035 C46,8.26198126 46.3412377,8.26198126 46.3412377,8.26198126 L47.6020821,8.26198126 C47.6020821,8.26198126 47.9768652,8.26198126 47.9768652,8.63842035 L47.9768652,9.72322624 C48.6940428,8.37516734 50.4303065,8 51.6587623,8 C52,8 52,8.37516734 52,8.37516734 L52,9.76137885 C52,9.76137885 52,10.173427 51.6587623,10.173427 C49.1023713,10.173427 47.9768652,11.6728246 47.9768652,14.4834003" id="Fill-1568" fill="#78736E"></path>
                <path d="M65,21.271653 C65,24.96554 62.5390452,27 58.9993677,27 C55.4584255,27 53,24.5591497 53,21.271653 L53,14.1736203 C53,10.6252311 55.3838128,8 59.2978185,8 C62.5390452,8 65,10.1448376 65,12.9544494 L65,15.6900581 C65,16.3184579 64.6636105,16.9456034 63.7315839,17.1312384 L55.1612393,18.7204251 L55.1612393,21.271653 C55.2712615,23.3399789 56.6142902,24.9291656 58.9993677,24.9291656 C61.4223838,24.9291656 62.8754347,23.5243597 62.8754347,21.271653 C62.8754347,21.0847637 63.0980082,21.0107605 63.0980082,21.0107605 L64.8128359,21.0107605 C64.8128359,21.0107605 65,21.0847637 65,21.271653 L65,21.271653 Z M62.837496,13.0271983 C62.837496,11.1068788 61.3098324,10.0708344 59.1106544,10.0708344 C56.2045526,10.0708344 55.1612393,11.9196594 55.1612393,14.1736203 L55.1612393,16.6132163 L62.837496,15.1720359 L62.837496,13.0271983 Z" id="Fill-1570" fill="#78736E"></path>
                <path d="M68,22.0464779 C68,19.3106886 69.0452431,17.795405 72.4105708,16.9838252 L77.8308668,15.7244339 L77.8308668,13.6936027 C77.7192389,11.6226315 76.2985201,10.0709711 74.1293869,10.0709711 C71.8866808,10.0709711 70.6536998,11.3265993 70.6536998,13.2508087 C70.6536998,13.4339473 70.4291755,13.5092097 70.4291755,13.5092097 L68.635518,13.5092097 C68.635518,13.5092097 68.4477801,13.4339473 68.4477801,13.2508087 C68.4477801,10.0333399 70.9162791,8 74.1293869,8 C77.1953488,8 80,9.9969631 80,14.2831584 L80,26.3703044 C80,26.7403446 79.6625793,26.7403446 79.6625793,26.7403446 L78.205074,26.7403446 C78.205074,26.7403446 77.8308668,26.7403446 77.8308668,26.3703044 L77.8308668,25.077045 C76.6346723,26.6688453 74.8042283,27 73.4951374,27 C70.0194503,27 68,25.077045 68,22.0464779 M77.8308668,20.6415792 L77.8308668,17.9434211 L72.6350951,19.1262956 C70.4672304,19.6067208 70.1678647,20.8636034 70.1678647,21.8244537 C70.1678647,23.5630158 71.4756871,24.9290289 73.4951374,24.9290289 C76.0372093,24.9290289 77.8308668,22.8605664 77.8308668,20.6415792" id="Fill-1572" fill="#78736E"></path>
                <path d="M88.6421064,10.0697168 C85.9083644,10.0697168 85.5193781,12.0290487 85.5193781,12.7302436 C85.5193781,13.5079554 85.803591,14.4324289 86.8320561,14.9856077 C88.5698489,15.946458 89.3526385,16.4281376 91.1265601,17.4253648 C93.6459383,18.8666403 94,20.7143329 94,22.2308708 C94,24.8161352 92.083972,27 88.7842128,27 C84.45358,27 83,23.3773685 83,21.4180366 C83,21.0479963 83.317933,21.0479963 83.317933,21.0479963 L84.7389972,21.0479963 C84.7389972,21.0479963 85.0930589,21.0479963 85.0930589,21.4180366 C85.0930589,23.3773685 86.5129188,24.9277745 88.855266,24.9277745 C90.4509525,24.9277745 91.9779943,23.8201624 91.9779943,22.2308708 C91.9779943,21.3063973 91.7997591,20.2351621 89.9186556,19.1990493 L86.0516751,17.0553245 C84.1693672,16.0217205 83.4961682,14.1351423 83.4961682,12.8042517 C83.4961682,10.9578134 84.7028684,8 88.6421064,8 C91.2674622,8 93.5399606,9.36852182 93.7157872,12.3602033 C93.7157872,12.547105 93.7507116,12.7302436 93.4327786,12.8042517 L92.1562295,13.0262758 C91.9057368,13.0626527 91.7997591,12.9535221 91.7648347,12.6951211 C91.6227283,11.4746154 91.0555069,10.0697168 88.6421064,10.0697168" id="Fill-1574" fill="#78736E"></path>
                <path d="M95.0200927,8.36436414 C94.9135295,8 95.2655474,8 95.2655474,8 L96.8532197,8 C96.8532197,8 97.1369892,8 97.2076323,8.36436414 L100.524263,23.4317475 L100.876281,23.4317475 L104.827502,8.36436414 C104.898145,8 105.180717,8 105.180717,8 L106.733666,8 C106.733666,8 107.085684,8 106.980318,8.36436414 L100.999607,30.7029735 C100.047722,34.2712717 98.0361913,35 95.9911352,35 L95.6019998,35 C95.2475873,35 95.2475873,34.5985819 95.2475873,34.5985819 L95.2475873,33.323925 C95.2475873,33.323925 95.2475873,32.960796 95.6019998,32.960796 C96.7298937,32.960796 98.5306926,33.0336688 99.0946395,30.633806 L100.13393,26.1972095 L99.4658148,26.1972095 C99.4658148,26.1972095 99.2179655,26.1972095 99.0766794,25.8328454 L95.0200927,8.36436414 Z" id="Fill-1576" fill="#78736E"></path>
                <path d="M2.51040392,37.9136601 L2.43451652,38 L2.08323133,38 L2,37.9136601 L2,32 L3.31456548,32 C4.51529988,32 5,32.7457769 5,33.7918665 L5,34.0133472 C5,35.0594369 4.51529988,35.8052138 3.31456548,35.8052138 L2.51040392,35.8052138 L2.51040392,37.9136601 Z M2.51040392,35.3084463 L3.31456548,35.3084463 C4.02815177,35.3084463 4.48959608,34.9743483 4.48959608,34.0133472 L4.48959608,33.7918665 C4.48959608,32.8308655 4.02815177,32.4967675 3.31456548,32.4967675 L2.51040392,32.4967675 L2.51040392,35.3084463 Z" id="Fill-1578" fill="#91BD69"></path>
                <path d="M7,37.6009913 L7,37.9157373 L6.94005213,38 C6.0712424,38 6,37.0904585 6,36.6171004 L6,32.0830235 L6.05299739,32 L6.28496959,32 L6.34404865,32.0830235 L6.34404865,36.6171004 C6.34404865,37.2267658 6.48740226,37.5254027 6.94005213,37.5254027 L7,37.6009913 Z" id="Fill-1580" fill="#91BD69"></path>
                <path d="M8,36.9582505 C8,36.3811417 8.26193724,36.0619142 9.10368349,35.8915081 L10.4583902,35.6268106 L10.4583902,35.1985231 C10.4297408,34.7634195 10.0750341,34.4351037 9.53342428,34.4351037 C8.97407913,34.4351037 8.66575716,34.6998012 8.66575716,35.1053678 L8.60709413,35.1587617 L8.15961801,35.1587617 L8.11186903,35.1053678 C8.11186903,34.4271514 8.72987722,34 9.53342428,34 C10.2987722,34 11,34.4191991 11,35.3234876 L11,37.8670832 L10.9167804,37.94547 L10.5511596,37.94547 L10.4583902,37.8670832 L10.4583902,37.5955694 C10.159618,37.9307015 9.70122783,38 9.37517053,38 C8.50613915,38 8,37.5955694 8,36.9582505 M10.4583902,36.6617438 L10.4583902,36.0937234 L9.15961801,36.3425163 C8.61937244,36.44476 8.54297408,36.7083215 8.54297408,36.9105368 C8.54297408,37.2763419 8.87039563,37.5637603 9.37517053,37.5637603 C10.0095498,37.5637603 10.4583902,37.1286566 10.4583902,36.6617438" id="Fill-1582" fill="#91BD69"></path>
                <path d="M12,34.134715 L12.0845455,34.0564191 L12.4581818,34.0564191 L12.5413636,34.134715 L12.5413636,34.3638457 C12.7568182,34.1116868 13.1304545,34 13.5327273,34 C14.3727273,34 15,34.4663212 15,35.3413932 L15,37.9194013 L14.9045455,38 L14.5513636,38 L14.4572727,37.9194013 L14.4572727,35.3413932 C14.4572727,34.8290155 14.1954545,34.4409902 13.5040909,34.4409902 C12.7568182,34.4409902 12.5413636,34.9234312 12.5413636,35.3413932 L12.5413636,37.9194013 L12.4404545,38 L12.0940909,38 L12,37.9194013 L12,34.134715 Z" id="Fill-1584" fill="#91BD69"></path>
                <path d="M19,36.7935246 C19,37.5717126 18.3863946,38 17.5006803,38 C16.6136054,38 16,37.4865095 16,36.7935246 L16,35.2996308 C16,34.5521159 16.5972789,34 17.5755102,34 C18.3863946,34 19,34.4510082 19,35.0428855 L19,35.6188583 C19,35.750639 18.9170068,35.8824198 18.6843537,35.9210452 L16.5414966,36.2573133 L16.5414966,36.7935246 C16.5687075,37.2286282 16.9047619,37.5637603 17.5006803,37.5637603 C18.107483,37.5637603 18.4707483,37.2683897 18.4707483,36.7935246 L18.5251701,36.7389946 L18.955102,36.7389946 L19,36.7935246 Z M18.4612245,35.0576541 C18.4612245,34.6532235 18.0789116,34.4351037 17.5292517,34.4351037 C16.8013605,34.4351037 16.5414966,34.8247657 16.5414966,35.2996308 L16.5414966,35.8142573 L18.4612245,35.5086623 L18.4612245,35.0576541 Z" id="Fill-1586" fill="#91BD69"></path>
                <path d="M19,39.9206019 L19,39.5966064 L19.1137675,39.508244 C19.7122836,39.508244 20.2893652,39.3596927 20.2893652,38.6054106 L20.2893652,33.8428045 L20.3899423,33.7544421 L20.8301731,33.7544421 L20.9439406,33.8428045 L20.9439406,38.6054106 C20.9439406,39.508244 20.2431987,40 19.1137675,40 L19,39.9206019 Z M21,32.6569553 L20.8994229,32.7453178 L20.3107997,32.7453178 L20.1970322,32.6569553 L20.1970322,32.0870818 L20.2976092,32 L20.8878813,32 L21,32.0870818 L21,32.6569553 Z" id="Fill-1588" fill="#91BD69"></path>
                <path d="M21,36.9582505 C21,36.3811417 21.2620564,36.0619142 22.1028207,35.8915081 L23.4581438,35.6268106 L23.4581438,35.1985231 C23.4308462,34.7634195 23.0759782,34.4351037 22.5341219,34.4351037 C21.9717925,34.4351037 21.6633303,34.6998012 21.6633303,35.1053678 L21.6073703,35.1587617 L21.1583258,35.1587617 L21.1119199,35.1053678 C21.1119199,34.4271514 21.7288444,34 22.5341219,34 C23.299818,34 24,34.4191991 24,35.3234876 L24,37.8670832 L23.9167425,37.94547 L23.5523203,37.94547 L23.4581438,37.8670832 L23.4581438,37.5955694 C23.1606005,37.9307015 22.7020018,38 22.3744313,38 C21.5036397,38 21,37.5955694 21,36.9582505 M23.4581438,36.6617438 L23.4581438,36.0937234 L22.1587807,36.3425163 C21.6169245,36.44476 21.5418562,36.7083215 21.5418562,36.9105368 C21.5418562,37.2763419 21.8694268,37.5637603 22.3744313,37.5637603 C23.0104641,37.5637603 23.4581438,37.1286566 23.4581438,36.6617438" id="Fill-1590" fill="#91BD69"></path>
                <path d="M27.5708001,34.3777714 C27.7880121,34.1186294 28.1743195,34 28.5413803,34 C29.2576299,34 30,34.259142 30,35.3233516 L30,37.9205298 L29.9065164,38 L29.5490789,38 L29.4542205,37.9205298 L29.4542205,35.3233516 C29.4542205,34.8119781 29.1916415,34.4411172 28.5413803,34.4411172 C28.1454495,34.4411172 27.8347539,34.6933487 27.8347539,35.0791823 L27.8347539,37.9205298 L27.7398955,38 L27.4017047,38 L27.3068463,37.9205298 L27.3068463,35.0791823 C27.3068463,34.7647567 27.0717624,34.4411172 26.4888644,34.4411172 C25.7341215,34.4411172 25.5457795,34.906421 25.5457795,35.3233516 L25.5457795,37.9205298 L25.4426725,38 L25.0948584,38 L25,37.9205298 L25,34.1336021 L25.0852351,34.0541319 L25.4619192,34.0541319 L25.5457795,34.1336021 L25.5457795,34.3627987 C25.7066263,34.1416643 26.091559,34 26.4984878,34 C26.9122903,34 27.3453396,34.0944428 27.5708001,34.3777714" id="Fill-1592" fill="#91BD69"></path>
                <path d="M34,36.7935246 C34,37.5717126 33.3853128,38 32.5,38 C31.6146872,38 31,37.4865095 31,36.7935246 L31,35.2996308 C31,34.5521159 31.5970082,34 32.5734361,34 C33.3853128,34 34,34.4510082 34,35.0428855 L34,35.6188583 C34,35.750639 33.9156845,35.8824198 33.6831369,35.9210452 L31.5412511,36.2573133 L31.5412511,36.7935246 C31.5698096,37.2286282 31.9057117,37.5637603 32.5,37.5637603 C33.1065277,37.5637603 33.4696283,37.2683897 33.4696283,36.7935246 L33.5253853,36.7389946 L33.9537625,36.7389946 L34,36.7935246 Z M33.4601088,35.0576541 C33.4601088,34.6532235 33.0779692,34.4351037 32.5285585,34.4351037 C31.8009973,34.4351037 31.5412511,34.8247657 31.5412511,35.2996308 L31.5412511,35.8142573 L33.4601088,35.5086623 L33.4601088,35.0576541 Z" id="Fill-1594" fill="#91BD69"></path>
                <path d="M35,34.134715 L35.0846224,34.0564191 L35.4585987,34.0564191 L35.5418562,34.134715 L35.5418562,34.3638457 C35.7575068,34.1116868 36.1314832,34 36.5327571,34 C37.3748863,34 38,34.4663212 38,35.3413932 L38,37.9194013 L37.9085532,38 L37.5523203,38 L37.4595086,37.9194013 L37.4595086,35.3413932 C37.4595086,34.8290155 37.1974522,34.4409902 36.5040946,34.4409902 C35.7575068,34.4409902 35.5418562,34.9234312 35.5418562,35.3413932 L35.5418562,37.9194013 L35.4394904,38 L35.0941765,38 L35,37.9194013 L35,34.134715 Z" id="Fill-1596" fill="#91BD69"></path>
                <path d="M39.8320413,38 C38.9560724,38 38.4689922,37.6471346 38.4689922,36.659369 L38.4689922,34.1622666 L38.0878553,34.1622666 L38,34.083709 L38,33.7566001 L38.0878553,33.6703155 L38.4689922,33.6703155 L38.4689922,32.0901481 L38.5478036,32 L38.8927649,32 L38.9832041,32.0901481 L38.9832041,33.6703155 L39.9121447,33.6703155 L40,33.7475853 L40,34.0746941 L39.9121447,34.1622666 L38.9832041,34.1622666 L38.9832041,36.659369 C38.9832041,37.3547972 39.2390181,37.4977463 39.8320413,37.5054733 L39.8863049,37.5054733 L39.9741602,37.5853187 L39.9741602,37.9124276 L39.8863049,38 L39.8320413,38 Z" id="Fill-1598" fill="#91BD69"></path>
                <path d="M44,35.4386364 L44,36.5988636 C44,37.4477273 43.5442177,38 42.4993197,38 C41.4557823,38 41,37.4477273 41,36.5988636 L41,35.4386364 C41,34.5136364 41.4857143,34 42.4993197,34 C43.5170068,34 44,34.5136364 44,35.4386364 M43.4598639,36.6068182 L43.4598639,35.4386364 C43.4598639,34.6761364 43.0585034,34.4352273 42.4993197,34.4352273 C41.9401361,34.4352273 41.5401361,34.6761364 41.5401361,35.4386364 L41.5401361,36.6068182 C41.5401361,37.2147727 41.9510204,37.5636364 42.4993197,37.5636364 C43.0503401,37.5636364 43.4598639,37.2147727 43.4598639,36.6068182" id="Fill-1600" fill="#91BD69"></path>
                <path d="M49,36.7935246 C49,37.5717126 48.3863946,38 47.4993197,38 C46.614966,38 46,37.4865095 46,36.7935246 L46,35.2996308 C46,34.5521159 46.5959184,34 47.5741497,34 C48.3863946,34 49,34.4510082 49,35.0428855 L49,35.6188583 C49,35.750639 48.9170068,35.8824198 48.6843537,35.9210452 L46.5401361,36.2573133 L46.5401361,36.7935246 C46.5687075,37.2286282 46.9047619,37.5637603 47.4993197,37.5637603 C48.107483,37.5637603 48.4707483,37.2683897 48.4707483,36.7935246 L48.5251701,36.7389946 L48.9537415,36.7389946 L49,36.7935246 Z M48.4612245,35.0576541 C48.4612245,34.6532235 48.0789116,34.4351037 47.5265306,34.4351037 C46.8013605,34.4351037 46.5401361,34.8247657 46.5401361,35.2996308 L46.5401361,35.8142573 L48.4612245,35.5086623 L48.4612245,35.0576541 Z" id="Fill-1602" fill="#91BD69"></path>
                <path d="M54.9172794,33.4708649 L54.6227941,33.5542834 L54.5169118,33.4966265 C54.45625,32.883255 54.1242647,32.4882437 53.5110294,32.4882437 C52.7941176,32.4882437 52.4610294,32.8992026 52.4610294,33.8487017 L52.4610294,36.1598855 C52.4610294,37.1106113 52.7941176,37.512983 53.5110294,37.512983 C54.1540441,37.512983 54.5400735,37.0995706 54.5400735,36.1598855 L54.6073529,36.076467 L54.925,36.076467 L55,36.1598855 C55,37.1854426 54.5919118,38 53.5110294,38 C52.5150735,38 52,37.2357391 52,36.1598855 L52,33.8487017 C52,32.7740748 52.5150735,32 53.5110294,32 C54.4485294,32 54.8643382,32.6145982 54.9636029,33.3616847 L54.9172794,33.4708649 Z" id="Fill-1604" fill="#91BD69"></path>
                <path d="M59,35.4386364 L59,36.5988636 C59,37.4477273 58.5440109,38 57.4986388,38 C56.4546279,38 56,37.4477273 56,36.5988636 L56,35.4386364 C56,34.5136364 56.4818512,34 57.4986388,34 C58.5167877,34 59,34.5136364 59,35.4386364 M58.4596189,36.6068182 L58.4596189,35.4386364 C58.4596189,34.6761364 58.0594374,34.4352273 57.4986388,34.4352273 C56.9392015,34.4352273 56.53902,34.6761364 56.53902,35.4386364 L56.53902,36.6068182 C56.53902,37.2147727 56.9487296,37.5636364 57.4986388,37.5636364 C58.0499093,37.5636364 58.4596189,37.2147727 58.4596189,36.6068182" id="Fill-1606" fill="#91BD69"></path>
                <path d="M60,34.134715 L60.0845455,34.0564191 L60.4568182,34.0564191 L60.5413636,34.134715 L60.5413636,34.3638457 C60.7568182,34.1116868 61.1304545,34 61.5313636,34 C62.3727273,34 63,34.4663212 63,35.3413932 L63,37.9194013 L62.9059091,38 L62.55,38 L62.4572727,37.9194013 L62.4572727,35.3413932 C62.4572727,34.8290155 62.1954545,34.4409902 61.5040909,34.4409902 C60.7568182,34.4409902 60.5413636,34.9234312 60.5413636,35.3413932 L60.5413636,37.9194013 L60.4404545,38 L60.0927273,38 L60,37.9194013 L60,34.134715 Z" id="Fill-1608" fill="#91BD69"></path>
                <path d="M65.8320413,38 C64.9560724,38 64.4689922,37.6471346 64.4689922,36.659369 L64.4689922,34.1622666 L64.0904393,34.1622666 L64,34.083709 L64,33.7566001 L64.0904393,33.6703155 L64.4689922,33.6703155 L64.4689922,32.0901481 L64.5490956,32 L64.8940568,32 L64.9832041,32.0901481 L64.9832041,33.6703155 L65.9121447,33.6703155 L66,33.7475853 L66,34.0746941 L65.9121447,34.1622666 L64.9832041,34.1622666 L64.9832041,36.659369 C64.9832041,37.3547972 65.2390181,37.4977463 65.8320413,37.5054733 L65.8850129,37.5054733 L65.9741602,37.5853187 L65.9741602,37.9124276 L65.8850129,38 L65.8320413,38 Z" id="Fill-1610" fill="#91BD69"></path>
                <path d="M67.3291874,35.3636625 L67.3291874,37.9205298 L67.2669983,38 L67.0563847,38 L67,37.9205298 L67,34.1336021 L67.0563847,34.0541319 L67.2669983,34.0541319 L67.3291874,34.1336021 L67.3291874,34.361647 C67.4477612,34.0771667 67.7379768,34 67.9419569,34 L68,34.0771667 L68,34.3697092 L67.9419569,34.4560898 C67.5165837,34.4560898 67.3291874,34.7728189 67.3291874,35.3636625" id="Fill-1612" fill="#91BD69"></path>
                <path d="M71,35.4386364 L71,36.5988636 C71,37.4477273 70.5440109,38 69.4986388,38 C68.4559891,38 68,37.4477273 68,36.5988636 L68,35.4386364 C68,34.5136364 68.4832123,34 69.4986388,34 C70.5167877,34 71,34.5136364 71,35.4386364 M70.4596189,36.6068182 L70.4596189,35.4386364 C70.4596189,34.6761364 70.0594374,34.4352273 69.4986388,34.4352273 C68.9392015,34.4352273 68.53902,34.6761364 68.53902,35.4386364 L68.53902,36.6068182 C68.53902,37.2147727 68.9487296,37.5636364 69.4986388,37.5636364 C70.0499093,37.5636364 70.4596189,37.2147727 70.4596189,36.6068182" id="Fill-1614" fill="#91BD69"></path>
                <path d="M74,37.6009913 L74,37.9157373 L73.9400521,38 C73.0712424,38 73,37.0904585 73,36.6171004 L73,32.0830235 L73.0529974,32 L73.2849696,32 L73.3449175,32.0830235 L73.3449175,36.6171004 C73.3449175,37.2267658 73.4874023,37.5254027 73.9400521,37.5254027 L74,37.6009913 Z" id="Fill-1616" fill="#91BD69"></path>
                <path d="M74,36.9582505 C74,36.3811417 74.2620564,36.0619142 75.1041856,35.8915081 L76.4595086,35.6268106 L76.4595086,35.1985231 C76.4308462,34.7634195 76.0759782,34.4351037 75.5341219,34.4351037 C74.9731574,34.4351037 74.6633303,34.6998012 74.6633303,35.1053678 L74.6073703,35.1587617 L74.1596906,35.1587617 L74.1119199,35.1053678 C74.1119199,34.4271514 74.7302093,34 75.5341219,34 C76.299818,34 77,34.4191991 77,35.3234876 L77,37.8670832 L76.9167425,37.94547 L76.5523203,37.94547 L76.4595086,37.8670832 L76.4595086,37.5955694 C76.1606005,37.9307015 75.7020018,38 75.3744313,38 C74.5063694,38 74,37.5955694 74,36.9582505 M76.4595086,36.6617438 L76.4595086,36.0937234 L75.1601456,36.3425163 C74.6182894,36.44476 74.5432211,36.7083215 74.5432211,36.9105368 C74.5432211,37.2763419 74.8707916,37.5637603 75.3744313,37.5637603 C76.0104641,37.5637603 76.4595086,37.1286566 76.4595086,36.6617438" id="Fill-1618" fill="#91BD69"></path>
                <path d="M81,37.8550485 L80.9077758,37.9405327 L80.5443038,37.9405327 L80.4615732,37.8550485 L80.4615732,37.5577122 C80.164557,37.9231881 79.7468354,38 79.4213382,38 C78.5845389,38 78,37.4065662 78,36.6235804 L78,35.0724757 C78,34.2832955 78.482821,33.6378278 79.4593128,33.6378278 C79.8200723,33.6378278 80.2947559,33.7827793 80.4615732,34.0293207 L80.4615732,32.0842453 L80.5443038,32 L80.9159132,32 L81,32.0842453 L81,37.8550485 Z M80.4615732,35.0724757 C80.4615732,34.3340904 79.9055154,34.1123271 79.4593128,34.1123271 C78.835443,34.1123271 78.5384268,34.4939087 78.5384268,35.0724757 L78.5384268,36.6235804 C78.5384268,37.1253355 78.9113924,37.5230229 79.4213382,37.5230229 C80.0262206,37.5230229 80.4615732,37.2355978 80.4615732,36.6235804 L80.4615732,35.0724757 Z" id="Fill-1620" fill="#91BD69"></path>
                <path d="M85,35.4386364 L85,36.5988636 C85,37.4477273 84.5442177,38 83.4993197,38 C82.4557823,38 82,37.4477273 82,36.5988636 L82,35.4386364 C82,34.5136364 82.4829932,34 83.4993197,34 C84.5156463,34 85,34.5136364 85,35.4386364 M84.4598639,36.6068182 L84.4598639,35.4386364 C84.4598639,34.6761364 84.0585034,34.4352273 83.4993197,34.4352273 C82.9401361,34.4352273 82.5401361,34.6761364 82.5401361,35.4386364 L82.5401361,36.6068182 C82.5401361,37.2147727 82.9496599,37.5636364 83.4993197,37.5636364 C84.0489796,37.5636364 84.4598639,37.2147727 84.4598639,36.6068182" id="Fill-1622" fill="#91BD69"></path>
                <path d="M86.3291874,35.3636625 L86.3291874,37.9205298 L86.2661692,38 L86.0563847,38 L86,37.9205298 L86,34.1336021 L86.0563847,34.0541319 L86.2661692,34.0541319 L86.3291874,34.1336021 L86.3291874,34.361647 C86.4477612,34.0771667 86.7371476,34 86.9427861,34 L87,34.0771667 L87,34.3697092 L86.9427861,34.4560898 C86.5157546,34.4560898 86.3291874,34.7728189 86.3291874,35.3636625" id="Fill-1624" fill="#91BD69"></path>
                <path d="M88.062,32 L88,32.0850886 L88,32.6419187 L88.069,32.7270073 L88.425,32.7270073 L88.486,32.6419187 L88.486,32.0850886 L88.418,32 L88.062,32 Z M88.102,33.715537 L88.041,33.7993743 L88.041,37.9136601 L88.11,38 L88.377,38 L88.438,37.9136601 L88.438,33.7993743 L88.37,33.715537 L88.102,33.715537 Z" id="Fill-1627" fill="#91BD69"></path>
                <g id="Group-1632" fill="#91BD69">
                    <path d="M89.315588,36.318071 C89.315588,35.6953613 89.553668,35.3509097 90.317508,35.1670387 L91.548828,34.8814258 L91.548828,34.4192968 C91.522788,33.9498129 91.200388,33.5955548 90.709348,33.5955548 C90.198468,33.5955548 89.918228,33.8811677 89.918228,34.3187806 L89.867388,34.3763935 L89.459428,34.3763935 L89.417268,34.3187806 C89.417268,33.5869742 89.977748,33.126071 90.709348,33.126071 C91.404988,33.126071 92.041108,33.5783935 92.041108,34.5541355 L92.041108,37.2987161 L91.965468,37.3832968 L91.634388,37.3832968 L91.548828,37.2987161 L91.548828,37.0057484 C91.278508,37.3673613 90.861868,37.4421355 90.564268,37.4421355 C89.773148,37.4421355 89.315588,37.0057484 89.315588,36.318071 M91.548828,35.9981355 L91.548828,35.3852323 L90.368348,35.6536839 C89.876068,35.7640065 89.807868,36.0483935 89.807868,36.2665871 C89.807868,36.6612968 90.104228,36.9714258 90.564268,36.9714258 C91.142108,36.9714258 91.548828,36.5019419 91.548828,35.9981355" id="Fill-1628"></path>
                    <path d="M22.68828,7.55611613 C22.46136,3.93630968 19.41096,1.06179355 15.69344,1.06179355 C13.11176,1.06179355 10.7508,2.46779355 9.53188,4.68282581 C8.00916,5.0432129 6.69352,6.02263226 5.91728,7.37224516 C3.22648,7.80250323 1.13336,10.159729 1.13336,12.9055355 C1.13336,15.9970194 3.6766,18.5148258 6.80388,18.5148258 L8.45184,18.5148258 L8.45184,16.3941806 L6.80388,16.3941806 C4.85956,16.3941806 3.27732,14.8276 3.27732,12.9055355 C3.27732,11.0619226 4.79384,9.50024516 6.6588,9.42547097 L7.33584,9.39605161 L7.60244,8.77824516 C8.09596,7.62230968 9.14004,6.83779355 10.39244,6.68211613 L10.99384,6.60611613 L11.23936,6.05572903 C12.0156,4.31018065 13.76524,3.1812129 15.69344,3.1812129 C18.37556,3.1812129 20.55796,5.33863226 20.55796,7.98882581 L20.54556,8.33082581 L20.47736,9.3176 L21.46936,9.45243871 C23.22892,9.69269677 24.50612,11.1452774 24.50612,12.9055355 C24.50612,14.8276 22.92388,16.3941806 20.97832,16.3941806 L19.33284,16.3941806 L19.33284,18.5148258 L20.97832,18.5148258 C24.10684,18.5148258 26.65132,15.9970194 26.65132,12.9055355 C26.65132,10.3926323 25.03312,8.2732129 22.68828,7.55611613" id="Fill-1630"></path>
                </g>
                <polygon id="Fill-1633" fill="#78736E" points="13.3803548 27 15.6196452 27 15.6196452 19.1343727 19 19.1343727 19 17 10 17 10 19.1343727 13.3803548 19.1343727"></polygon>
            </g>
        </g>
    </g>
</svg>