<?xml version="1.0" encoding="UTF-8"?>
<svg width="116px" height="36px" viewBox="0 0 116 36" version="1.1" xmlns="http://www.w3.org/2000/svg" xmlns:xlink="http://www.w3.org/1999/xlink">
    <!-- Generator: sketchtool 60.1 (101010) - https://sketch.com -->
    <title>61843034-C53D-4812-8BE0-FDEB63ACF7D8</title>
    <desc>Created with sketchtool.</desc>
    <defs>
        <polygon id="path-1" points="0.686183598 0.778684889 19.1202553 0.778684889 19.1202553 35.9677617 0.686183598 35.9677617"></polygon>
        <polygon id="path-3" points="0.871234043 1.15316667 13.5547234 1.15316667 13.5547234 16.4279137 0.871234043 16.4279137"></polygon>
        <polygon id="path-5" points="0.238293617 0.257766667 19.421848 0.257766667 19.421848 22.7264627 0.238293617 22.7264627"></polygon>
    </defs>
    <g id="Page-1" stroke="none" stroke-width="1" fill="none" fill-rule="evenodd">
        <g id="LP-DE-PATROCÃNIO" transform="translate(-317.000000, -3642.000000)">
            <g id="Group-43" transform="translate(317.000000, 3642.000000)">
                <g id="Group-1086">
                    <path d="M99.0464766,0.924753333 C98.3011149,1.84235333 98.1049021,3.22492 97.9025191,5.07245333 C97.6989021,6.92245333 97.7988596,9.96878667 98.9132,11.3488867 C99.7338383,12.36392 101.778647,13.6317867 103.194094,15.08712 C103.94686,15.86042 105.672051,17.7042533 105.352434,18.8216533 C105.032817,19.93782 99.2291149,24.16322 98.6737957,25.57662 C98.1542638,26.8913533 97.9333702,27.9495533 97.3965617,30.76032 C96.9572426,33.0666533 97.665583,35.3544867 98.7527745,35.5863533 C100.429838,35.9464867 103.074391,32.40312 105.697966,29.4603867 C106.377923,28.6969533 111.68554,23.3023533 112.164349,22.82382 C112.644391,22.3440533 114.518902,20.3102867 114.518902,18.59472 C114.518902,16.54862 113.809328,15.7259867 112.592562,14.5789867 C111.562136,13.61082 109.929498,12.65252 106.496391,8.66392 C103.063285,4.67408667 99.5536681,0.300686667 99.0464766,0.924753333" id="Fill-1071" fill="#368080"></path>
                    <g id="Group-1075" transform="translate(96.255319, 0.000000)">
                        <mask id="mask-2" fill="white">
                            <use xlink:href="#path-1"></use>
                        </mask>
                        <g id="Clip-1074"></g>
                        <path d="M2.66565532,0.870486667 C2.6681234,0.874186667 2.68293191,0.840886667 2.7434,0.807586667 C2.80263404,0.774286667 2.90135745,0.76812 2.9926766,0.79772 C3.18148511,0.851986667 3.39497447,0.999986667 3.65165532,1.20842 C4.16378298,1.62898667 4.8400383,2.30978667 5.68535745,3.19038667 C6.52944255,4.07222 7.54629362,5.15015333 8.72850638,6.37115333 C9.31591064,6.98288667 9.94650638,7.63038667 10.6104213,8.30995333 C11.268166,8.98705333 11.9765064,9.67895333 12.7218681,10.3856533 C13.4659957,11.0923533 14.2594851,11.79782 15.1060383,12.48972 C15.5441234,12.84122 15.9896128,13.1976533 16.4412723,13.5614867 L16.6276128,13.7168867 C16.691783,13.76992 16.7399106,13.8155533 16.7966766,13.8648867 L16.8892298,13.9462867 L16.9743787,14.0227533 L17.1409745,14.1793867 C17.3668043,14.3902867 17.5963362,14.6184533 17.8209319,14.8737533 C18.0442936,15.12782 18.2651872,15.42012 18.4515277,15.7444867 C18.6378681,16.06762 18.7884213,16.42282 18.8945489,16.7829533 C19.0019106,17.14432 19.0525064,17.5007533 19.0895277,17.8633533 L19.1105064,18.1408533 L19.1142085,18.2111533 L19.1142085,18.26912 L19.1166766,18.3850533 L19.1203787,18.5034533 L19.1228468,18.56142 C19.1228468,18.5663533 19.1228468,18.62432 19.1203787,18.6181533 L19.1203787,18.6563867 L19.0994,18.97582 C19.0475702,19.3840533 18.9463787,19.7725533 18.8044638,20.1166533 C18.7415277,20.2979533 18.6576128,20.4570533 18.5811021,20.6272533 C18.4971872,20.7863533 18.4157404,20.9503867 18.3231872,21.10332 C17.9640809,21.7199867 17.5358681,22.2712867 17.0805064,22.79792 C16.9632723,22.92742 16.8472723,23.05692 16.7238681,23.1839533 C16.6609319,23.24932 16.5918255,23.32332 16.5350596,23.3775867 L16.3573574,23.5539533 C16.1241234,23.7845867 15.8896553,24.0139867 15.6551872,24.2458533 C15.183783,24.71082 14.7099106,25.17702 14.2311021,25.6493867 C13.2784213,26.59042 12.3134,27.5437867 11.3397404,28.5045533 C10.8547617,28.9855533 10.3611447,29.4702533 9.90331489,29.9413867 C9.43437872,30.4359533 8.9666766,30.94162 8.49774043,31.45222 C7.54629362,32.46232 6.59608085,33.4958533 5.52616596,34.4467533 C5.25837872,34.68232 4.98071915,34.9129533 4.68701702,35.1312533 C4.38961277,35.3458533 4.0774,35.5493533 3.72569787,35.7133867 C3.55169787,35.79602 3.36165532,35.86632 3.16050638,35.91442 L3.00625106,35.9464867 C2.95318723,35.9526533 2.9001234,35.9575867 2.84582553,35.9637533 C2.79646383,35.96992 2.72982553,35.9677617 2.6681234,35.96622 C2.60642128,35.9637533 2.53854894,35.9600533 2.5027617,35.95142 L2.44105957,35.94032 L2.40774043,35.9341533 C2.42008085,35.93662 2.35591064,35.92552 2.3460383,35.92182 C2.2880383,35.90332 2.2300383,35.88852 2.17697447,35.8638533 C2.06591064,35.82192 1.97088936,35.7602533 1.88080426,35.6948867 C1.70186809,35.5653867 1.56488936,35.4087533 1.4501234,35.2471867 C1.21935745,34.92282 1.07620851,34.57502 0.965144681,34.22352 C0.856548936,33.87202 0.786208511,33.5180533 0.743017021,33.16162 C0.654165957,32.4487533 0.672676596,31.7358867 0.77633617,31.03042 C0.788676596,30.9403867 0.804719149,30.85652 0.81952766,30.7726533 L0.867655319,30.5173533 L0.963910638,30.0141533 C1.02684681,29.6786867 1.09101702,29.3444533 1.15271915,29.01022 C1.21688936,28.6759867 1.27982553,28.3417533 1.35016596,28.0099867 C1.41680426,27.6757533 1.48714468,27.3427533 1.56859149,27.0109867 C1.6500383,26.67922 1.73765532,26.3474533 1.84131489,26.0218533 C1.89191064,25.8602867 1.94991064,25.6925533 2.00174043,25.53592 C2.02148511,25.4680867 2.06961277,25.3570867 2.11280426,25.26212 C2.16093191,25.1782533 2.20659149,25.0869867 2.25965532,25.01422 C2.4620383,24.70712 2.68416596,24.4456533 2.90752766,24.1903533 C3.13335745,23.93752 3.36165532,23.6945533 3.58995319,23.4552867 C4.51178298,22.50562 5.44718723,21.6200867 6.34310213,20.75182 C6.79229362,20.31892 7.22914468,19.8884867 7.6326766,19.4592867 C7.83259149,19.2471533 8.02880426,19.0325533 8.17935745,18.8327533 C8.19663404,18.8080867 8.21761277,18.78342 8.23242128,18.7599867 L8.27684681,18.6933867 L8.29659149,18.6637867 L8.29659149,18.6637867 C8.29659149,18.6637867 8.29659149,18.6637867 8.29905957,18.66502 L8.30029362,18.66502 C8.3027617,18.6699533 8.30646383,18.6514533 8.30893191,18.6452867 L8.32991064,18.5922533 L8.33978298,18.5663533 C8.36322979,18.4972867 8.3200383,18.62802 8.32250638,18.61322 C8.32250638,18.6045867 8.32620851,18.5971867 8.32744255,18.5860867 C8.3286766,18.5663533 8.3286766,18.5379867 8.32620851,18.50592 C8.31633617,18.37272 8.24846383,18.1593533 8.14480426,17.9496867 C8.04114468,17.73632 7.90416596,17.5192533 7.75731489,17.3021867 C7.45991064,16.87052 7.10697447,16.4573533 6.74910213,16.0552867 C6.65901702,15.95662 6.56646383,15.85672 6.47514468,15.7580533 C6.38259149,15.6630867 6.29250638,15.5668867 6.20118723,15.47192 C6.02225106,15.28322 5.83591064,15.1031533 5.6434,14.9267867 C5.26331489,14.5715867 4.86842128,14.22872 4.47599574,13.89202 C4.08357021,13.5528533 3.69361277,13.2198533 3.31599574,12.8720533 C3.21974043,12.78572 3.12718723,12.6993867 3.0334,12.61182 C2.93961277,12.5205533 2.84952766,12.4317533 2.75820851,12.3392533 C2.66688936,12.2405867 2.57927234,12.15672 2.48671915,12.0469533 L2.34974043,11.89032 L2.23991064,11.7472533 C1.88944255,11.27982 1.70433617,10.7963533 1.56982553,10.3301533 C1.44148511,9.86272 1.3600383,9.41008667 1.31561277,8.97348667 C1.27118723,8.53812 1.24650638,8.11508667 1.24650638,7.71055333 C1.24157021,7.30725333 1.25514468,6.91875333 1.27735745,6.54628667 C1.29710213,6.17505333 1.32918723,5.82232 1.36991064,5.47945333 C1.41063404,5.14398667 1.4587617,4.82332 1.50442128,4.52362 C1.59327234,3.91805333 1.68952766,3.38032 1.79195319,2.91412 C1.89437872,2.44792 2.02395319,2.05818667 2.14982553,1.75355333 C2.2794,1.44645333 2.4126766,1.22445333 2.5114,1.08015333 C2.55952766,1.00615333 2.60025106,0.959286667 2.62493191,0.924753333 C2.65084681,0.89022 2.66442128,0.874186667 2.66442128,0.874186667 L2.66565532,0.870486667 Z M2.8014,0.976553333 C2.8014,0.976553333 2.78782553,0.99382 2.76191064,1.02712 C2.73846383,1.06288667 2.69650638,1.11222 2.65084681,1.18128667 C2.56199574,1.31325333 2.43735745,1.52538667 2.31395319,1.82015333 C2.19178298,2.11492 2.08442128,2.49725333 1.99557021,2.95728667 C1.90671915,3.41608667 1.84501702,3.95382 1.79318723,4.55815333 C1.76850638,4.86032 1.74382553,5.17605333 1.73025106,5.51152 C1.71914468,5.83958667 1.72161277,6.18985333 1.73395319,6.54998667 C1.76727234,7.27395333 1.85242128,8.05342 2.03752766,8.85262 C2.12637872,9.25098667 2.25348511,9.65182 2.41391064,10.03662 C2.57433617,10.41772 2.78659149,10.7889533 3.04697447,11.0516533 L3.17161277,11.17992 L3.28637872,11.2822867 C3.35548511,11.3476533 3.45174043,11.42412 3.53565532,11.4956533 C3.71459149,11.6399533 3.90216596,11.7842533 4.09714468,11.9285533 C4.49820851,12.2208533 4.90791064,12.51932 5.32748511,12.8239533 C5.7507617,13.1359867 6.18391064,13.4652867 6.61582553,13.8278867 C6.83054894,14.0128867 7.04650638,14.2003533 7.25999574,14.4050867 L7.41918723,14.55802 L7.56974043,14.7109533 C7.66969787,14.8145533 7.76965532,14.9193867 7.87208085,15.02422 C8.27314468,15.44972 8.66433617,15.9097533 9.0246766,16.43392 C9.20731489,16.69662 9.37391064,16.98152 9.52322979,17.29972 C9.66761277,17.6228533 9.80829362,17.9780533 9.82557021,18.4454867 C9.82927234,18.56142 9.82186809,18.6847533 9.8021234,18.8117867 C9.79225106,18.8746867 9.77497447,18.9412867 9.75893191,19.0029533 C9.76016596,19.0078867 9.70957021,19.1558867 9.72561277,19.1040867 L9.71450638,19.1324533 L9.69229362,19.18302 C9.68735745,19.19412 9.68859149,19.1953533 9.67995319,19.2138533 L9.65280426,19.26442 L9.59850638,19.3630867 L9.54050638,19.4592867 L9.49608085,19.52342 L9.40846383,19.6430533 C9.38008085,19.6800533 9.35169787,19.71212 9.32208085,19.7478867 C9.09131489,20.0179867 8.86301702,20.24122 8.62978298,20.4619867 C8.15961277,20.89612 7.67710213,21.2969533 7.18842128,21.7002533 C6.21105957,22.5006867 5.19544255,23.2801533 4.21561277,24.1163533 C3.97127234,24.3247867 3.72816596,24.5356867 3.49986809,24.7576867 C3.27033617,24.9784533 3.04697447,25.2053867 2.86433617,25.4384867 C2.81374043,25.4964533 2.7841234,25.55072 2.74216596,25.6086867 C2.71501702,25.6629533 2.68663404,25.7011867 2.65208085,25.78752 C2.58420851,25.9416867 2.52620851,26.08722 2.46820851,26.2401533 C2.35097447,26.54232 2.24361277,26.8518867 2.14982553,27.16762 C1.96348511,27.7990867 1.81416596,28.4527533 1.67225106,29.1150533 C1.6006766,29.4455867 1.53774043,29.7785867 1.46986809,30.1115867 C1.40446383,30.4470533 1.33535745,30.7800533 1.28599574,31.1093533 C1.19220851,31.7605533 1.19097447,32.4339533 1.28846383,33.0863867 C1.34029362,33.4119867 1.41680426,33.7326533 1.52293191,34.03852 C1.63522979,34.3406867 1.77591064,34.6329867 1.95978298,34.8660867 C2.05110213,34.98202 2.15722979,35.0806867 2.26459149,35.1472867 C2.31642128,35.1793533 2.37071915,35.2101867 2.42501702,35.2249867 C2.44969787,35.2360867 2.47561277,35.2385533 2.5027617,35.24472 C2.51386809,35.2471867 2.47191064,35.24102 2.50399574,35.24472 L2.53608085,35.24842 L2.60271915,35.25582 C2.65208085,35.26322 2.67182553,35.2570533 2.69650638,35.2545867 C2.72118723,35.2533533 2.7434,35.2545867 2.77795319,35.2471867 L2.8766766,35.22992 L2.9754,35.2015533 C3.1086766,35.1608533 3.24565532,35.1016533 3.37893191,35.02642 C3.91697447,34.71932 4.41305957,34.2518867 4.8807617,33.7696533 C5.81616596,32.7903867 6.66518723,31.6976533 7.52901702,30.61602 C7.9634,30.07582 8.40025106,29.5368533 8.84574043,28.99912 C9.32084681,28.4564533 9.78978298,27.95942 10.255017,27.4537533 C11.1879532,26.4485867 12.1258255,25.4643867 13.0476553,24.48882 C13.5091872,24.0016533 13.9694851,23.5181867 14.4273149,23.03842 C14.6580809,22.8003867 14.8863787,22.56112 15.1146766,22.3218533 L15.2825064,22.1479533 C15.3429745,22.0850533 15.3836979,22.03942 15.4342936,21.9851533 C15.5342511,21.87292 15.6329745,21.75822 15.7304638,21.64352 C15.9229745,21.4091867 16.1056128,21.1686867 16.2783787,20.9269533 C16.3610596,20.80362 16.4474426,20.68522 16.5227191,20.5606533 L16.6387191,20.37812 L16.7460809,20.1943533 C16.8188894,20.07102 16.8756553,19.94892 16.9410596,19.8255867 C16.9916553,19.70102 17.0582936,19.5801533 17.0953149,19.4592867 C17.1965064,19.21632 17.2409319,18.98692 17.273017,18.7747867 C17.2754851,18.7254533 17.2791872,18.67612 17.2841234,18.62432 L17.2853574,18.60582 C17.2865915,18.5811533 17.2878255,18.6193867 17.2865915,18.6033533 L17.2853574,18.5453867 L17.2841234,18.42822 L17.2816553,18.3110533 L17.2791872,18.2530867 L17.2754851,18.2049867 L17.2631447,18.0187533 C17.2372298,17.7646867 17.2002085,17.5081533 17.1335702,17.2824533 C17.0076979,16.8236533 16.7954426,16.4351533 16.4573149,16.04172 C16.2907191,15.8468533 16.1056128,15.64952 15.908166,15.44972 L15.7576128,15.30172 L15.6811021,15.22772 L15.6119957,15.16112 C15.560166,15.11302 15.502166,15.05752 15.4552723,15.0155867 L15.3121234,14.88732 C14.895017,14.5234867 14.4384213,14.1497867 14.0139106,13.7637533 C13.5819957,13.3789533 13.1759957,12.9805867 12.7835702,12.5871533 C12.3985489,12.18632 12.0283362,11.7891867 11.6791021,11.3895867 C10.978166,10.5903867 10.3537404,9.79365333 9.76757021,9.03268667 C9.19620851,8.26925333 8.65446383,7.54528667 8.14480426,6.86448667 C7.13165532,5.50165333 6.23080426,4.33122 5.4521234,3.40005333 C4.67344255,2.46888667 4.02310213,1.76712 3.53195319,1.35148667 C3.28884681,1.14552 3.08152766,1.00615333 2.94454894,0.965453333 C2.87420851,0.944486667 2.83718723,0.95312 2.82237872,0.96052 C2.80510213,0.96792 2.8014,0.980253333 2.79893191,0.97902 L2.8014,0.976553333 Z" id="Fill-1073" fill="#789457" mask="url(#mask-2)"></path>
                    </g>
                    <path d="M92.0608085,4.53361 L92.4285532,4.53361 C92.5605957,4.53361 92.6642553,4.51881 92.7321277,4.48181 C92.801234,4.44111 92.8320851,4.36587667 92.8320851,4.25241 C92.8320851,4.15127667 92.7925957,4.08591 92.7086809,4.04274333 C92.6309362,4.01067667 92.5309787,3.99711 92.4063404,3.99711 L92.0608085,3.99711 L92.0608085,4.53361 Z M91.6511064,3.67397667 L92.4322553,3.67397667 C92.7025106,3.67397667 92.9048936,3.72207667 93.0394043,3.81457667 C93.177617,3.90707667 93.2417872,4.06864333 93.2417872,4.28324333 C93.2417872,4.46701 93.1961277,4.59774333 93.0924681,4.68777667 C92.9986809,4.77781 92.8666383,4.82837667 92.7000426,4.84194333 L93.2541277,5.75091 L92.8234468,5.75091 L92.3150213,4.86414333 L92.0608085,4.86414333 L92.0608085,5.75091 L91.6511064,5.75091 L91.6511064,3.67397667 Z M91.1019574,5.28841 C91.1685957,5.47464333 91.2673191,5.63004333 91.3956596,5.75461 C91.5277021,5.89027667 91.6794894,5.99634333 91.8510213,6.07157667 C92.017617,6.14187667 92.1940851,6.18011 92.3890638,6.18011 C92.5815745,6.18011 92.7580426,6.14187667 92.9271064,6.07157667 C93.0924681,5.99634333 93.2417872,5.89027667 93.3725957,5.75461 C93.4984681,5.63004333 93.5996596,5.47464333 93.6749362,5.28841 C93.7452766,5.10711 93.7798298,4.92211 93.7798298,4.71491 C93.7798298,4.50771 93.7452766,4.31777667 93.6749362,4.13647667 C93.6045957,3.95394333 93.5021702,3.80101 93.3725957,3.67397667 C93.2454894,3.53707667 93.0924681,3.43101 92.9221702,3.36194333 C92.7543404,3.29041 92.5778723,3.25834333 92.3890638,3.25834333 C92.1940851,3.25834333 92.017617,3.29041 91.8510213,3.36194333 C91.6794894,3.43101 91.5277021,3.53461 91.3956596,3.67027667 C91.2673191,3.79731 91.1685957,3.94777667 91.1019574,4.12907667 C91.030383,4.31037667 90.9908936,4.50401 90.9908936,4.71491 C90.9908936,4.92581 91.030383,5.11327667 91.1019574,5.28841 L91.1019574,5.28841 Z M90.6379574,3.95394333 C90.741617,3.72824333 90.8798298,3.53337667 91.06,3.36564333 C91.235234,3.20531 91.437617,3.07827667 91.668383,2.99317667 C91.8942128,2.90561 92.1373191,2.85874333 92.3890638,2.85874333 C92.6383404,2.85874333 92.8752766,2.90561 93.1060426,2.99317667 C93.3368085,3.07827667 93.5404255,3.20531 93.7193617,3.36564333 C93.8970638,3.53337667 94.0352766,3.72824333 94.135234,3.95394333 C94.2388936,4.18704333 94.2882553,4.43741 94.2882553,4.71491 C94.2882553,4.98377667 94.2388936,5.23907667 94.135234,5.46847667 C94.0352766,5.70157667 93.8970638,5.89891 93.7193617,6.06047667 C93.5404255,6.23067667 93.3368085,6.35154333 93.1060426,6.44651 C92.8752766,6.53284333 92.6383404,6.57971 92.3890638,6.57971 C92.1373191,6.57971 91.8942128,6.53284333 91.668383,6.44651 C91.437617,6.35154333 91.235234,6.23067667 91.06,6.06047667 C90.8798298,5.89891 90.741617,5.70157667 90.6379574,5.46847667 C90.538,5.23907667 90.4923404,4.98377667 90.4923404,4.71491 C90.4923404,4.43741 90.538,4.18704333 90.6379574,3.95394333 L90.6379574,3.95394333 Z" id="Fill-1076" fill="#368080"></path>
                    <g id="Group-1080" transform="translate(0.000000, 6.166667)">
                        <mask id="mask-4" fill="white">
                            <use xlink:href="#path-3"></use>
                        </mask>
                        <g id="Clip-1079"></g>
                        <path d="M8.03114894,2.5419 C8.19034043,1.6539 8.19034043,1.52686667 8.91965957,1.36776667 C9.52310638,1.08163333 11.3322128,1.08163333 12.062766,1.36776667 C12.7920851,1.52686667 12.9512766,1.96963333 12.7920851,2.8601 C12.6341277,4.7952 12.7920851,11.0124333 13.396766,13.9946333 C13.5547234,14.726 13.5547234,15.4857333 13.5547234,15.6448333 C13.396766,16.3749667 12.3478298,16.6598667 11.3001277,16.2171 C10.8558723,15.9309667 10.6966809,15.614 10.4128511,13.3915333 C10.1265532,11.9004333 10.5387234,8.9836 9.49102128,12.4714667 C8.8246383,14.2499333 7.1426383,15.4857333 4.91889362,15.3278667 C1.20565957,15.5819333 0.697234043,11.3306333 0.889744681,8.9503 C1.30191489,3.39906667 2.22251064,2.63686667 2.50757447,2.35196667 C3.5552766,1.74886667 4.60297872,2.22493333 4.76217021,3.39906667 C4.76217021,3.68396667 4.34876596,6.34796667 4.19080851,7.9994 C4.03161702,10.6634 4.09578723,10.5684333 4.25497872,11.8696 C4.41293617,12.4714667 4.79302128,13.2657333 5.55565957,13.1066333 C5.99991489,12.5035333 6.53919149,10.2823 6.98344681,8.50753333 C7.42770213,5.96933333 7.87319149,3.589 8.03114894,2.5419" id="Fill-1078" fill="#368080" mask="url(#mask-4)"></path>
                    </g>
                    <path d="M89.7102043,9.88356333 C89.7102043,9.34336333 89.7102043,8.80439667 89.5510128,8.64529667 C89.0117362,7.98053 87.9319489,8.13716333 87.5839489,8.99433 C87.4259915,9.34336333 87.2668,11.1834967 87.4259915,11.7224633 C87.5839489,11.8827967 88.0269702,11.91363 88.3774383,11.7532967 C89.3930553,11.2155633 89.7102043,10.7394967 89.7102043,9.88356333 M84.6629702,8.61323 C84.8221617,8.45536333 85.4885447,7.94723 86.0278213,7.78813 C89.4559915,6.07503 90.8220766,7.47239667 91.4884596,8.32833 C92.8841617,10.0426633 91.8056085,11.91363 89.0425872,12.7695633 C88.1873957,13.1185967 87.7739915,13.0556967 87.7739915,14.45183 C87.9319489,16.1661633 88.3132681,17.4327967 88.9796511,18.4490633 C89.5201617,19.3049967 90.0594383,19.2741633 90.980034,19.1791967 C91.8056085,18.7339633 92.7262043,17.9729967 92.7262043,19.3370633 C92.7262043,20.5740967 90.980034,21.6840967 89.2647149,21.6840967 C87.0446723,21.6840967 85.8377787,21.3362967 84.8221617,20.1300967 C81.3298213,16.4806633 83.8053106,9.37543 84.6629702,8.61323" id="Fill-1081" fill="#368080"></path>
                    <g id="Group-1085" transform="translate(14.808511, 0.000000)">
                        <mask id="mask-6" fill="white">
                            <use xlink:href="#path-5"></use>
                        </mask>
                        <g id="Clip-1084"></g>
                        <path d="M0.619612766,0.650213333 C1.47727234,0.14208 2.0474,0.270346667 2.55582553,0.270346667 C3.60352766,0.270346667 4.39701702,0.650213333 4.5241234,1.15834667 C4.65122979,1.41241333 4.65122979,1.57028 4.90544255,1.44448 C7.09463404,0.365313333 7.47595319,1.98344667 7.85727234,2.11048 C8.23735745,2.36454667 8.71369787,4.74364667 9.34922979,5.15558 C9.82557021,5.28261333 9.82557021,5.15558 10.110634,4.71158 C10.3969319,4.26758 11.4113149,1.69731333 12.0789319,1.44448 C13.443783,0.555246667 15.0949319,1.18918 15.6021234,1.57028 C16.3968468,2.07841333 16.9052723,3.25254667 17.2865915,5.21971333 C17.6654426,8.13654667 18.9994426,15.6253467 19.1265489,16.5466467 C19.6349745,19.2735467 19.506634,19.8137467 18.5872723,20.1936133 C17.2865915,20.7017467 15.1911872,20.4168467 14.6827617,19.9087133 C14.3656128,19.0515467 14.3014426,17.4642467 14.1743362,16.6724467 C14.0472298,16.0052133 12.8724213,5.18764667 12.7453149,4.80654667 C12.6182085,4.55248 12.5873574,4.67951333 12.3343787,4.93358 C11.8888894,7.75791333 10.5882085,8.55094667 10.4611021,8.55094667 C10.079783,8.80378 8.52365532,9.21694667 7.7314,8.55094667 C6.9366766,7.88371333 6.71454894,5.85364667 6.20735745,4.55248 C5.8260383,3.38081333 5.8260383,3.41041333 5.57182553,3.91731333 C5.31761277,4.42544667 5.31761277,4.55248 5.44471915,6.23351333 C5.57182553,8.70881333 5.69893191,21.4935467 5.69893191,21.87588 C4.71416596,23.0808467 2.20659149,22.76388 1.41310213,22.3840133 C0.492506383,22.00168 0.3654,21.4935467 0.238293617,17.5925133 L0.238293617,9.37481333 C0.3654,3.38081333 0.3654,4.01351333 0.238293617,2.33248 C0.238293617,1.03131333 0.238293617,0.90428 0.619612766,0.650213333" id="Fill-1083" fill="#789457" mask="url(#mask-6)"></path>
                    </g>
                </g>
                <g id="Group-1095" transform="translate(34.000000, 7.000000)">
                    <path d="M8.76673684,9.96734286 C9.43463158,8.15684286 9.02028947,6.7507 7.42971053,5.19034286 C7.04752632,4.69005714 6.50702632,4.28327143 6.50702632,4.28327143 C6.37963158,4.28327143 5.87128947,5.96991429 5.74389474,6.87577143 C5.36171053,8.68748571 5.29863158,9.34441429 5.58434211,10.2502714 C5.96652632,11.1549143 6.72965789,12.2186286 7.04752632,12.0619857 C8.225,11.4682 8.63934211,10.6242714 8.76673684,9.96734286 M2.02223684,4.93898571 C2.94368421,3.25355714 4.78905263,1.5657 6.50702632,1.06541429 C7.01660526,0.942771429 8.51194737,0.815271429 9.02028947,0.942771429 C9.68818421,1.22205714 9.56202632,1.44062857 8.76673684,1.81584286 C8.09760526,2.09634286 7.6845,2.47155714 7.30355263,2.97184286 C7.17492105,3.34705714 7.20707895,3.37862857 8.38455263,3.37862857 C9.306,3.25355714 9.56202632,3.34705714 10.2311579,3.62877143 C11.9478947,4.40834286 13.2527632,6.22005714 13.3801579,8.03177143 C13.6658684,10.8744143 12.1705263,12.8415571 9.27507895,13.8724857 C8.09760526,14.2477 5.45694737,14.2477 4.28071053,13.8724857 C1.76621053,12.7468429 1.09955263,10.6558429 1.09955263,8.97041429 C1.09955263,7.28255714 1.35186842,6.3767 2.02223684,4.93898571" id="Fill-1087" fill="#789457"></path>
                    <path d="M14.4940579,5.78255 C13.6666105,2.40805 13.6666105,1.59690714 14.4940579,1.28483571 C14.9714789,0.972764286 16.7846895,0.972764286 17.1025579,1.12819286 C17.2608737,1.28483571 17.5799789,1.62847857 17.7395316,1.94176429 C18.2157158,2.56590714 19.5527421,6.43947857 19.8718474,8.18683571 C20.0289263,8.99919286 20.1897158,9.62455 20.1897158,9.62455 C20.3467947,9.62455 20.5075842,8.96883571 20.6671368,8.34347857 C21.3016368,6.09583571 22.4791105,2.25262143 22.7969789,1.62847857 C23.9435316,0.160407143 25.2484,1.28483571 25.2484,2.40805 C25.2484,3.22283571 22.9565316,12.03005 22.7969789,12.8411929 C22.3207947,15.40455 22.3207947,15.5587643 21.3350316,16.0286929 C18.3752684,16.84105 16.9120842,16.0286929 16.5942158,15.40455 C16.2763474,14.43555 14.6523737,6.75033571 14.4940579,5.78255" id="Fill-1089" fill="#789457"></path>
                    <path d="M25.8846316,14.1221429 C25.7893947,12.8726429 26.0120263,12.5933571 26.8703947,12.4051429 C27.5395263,12.0615 28.8122368,12.1234286 29.2562632,12.342 C30.4968158,12.7791429 30.1158684,14.7475 29.8932368,15.1846429 C28.4943684,16.4329286 26.5846842,15.7165 26.2655789,15.4967143 C25.8203158,15.2781429 25.8524737,15.2162143 25.8846316,14.1221429" id="Fill-1091" fill="#368080"></path>
                    <path d="M31.6747842,0.785035714 C32.8201,-0.401321429 34.5702316,0.128107143 34.8881,0.441392857 C35.3655211,0.596821429 35.4916789,1.22217857 35.4916789,3.90817857 C35.6512316,6.43875 35.6833895,6.56382143 35.8429421,5.93967857 C36.1608105,5.00225 36.9561,3.75275 37.4335211,3.43946429 C39.1205737,1.94103571 40.1372579,3.28403571 40.6146789,4.53232143 C40.9337842,5.46975 40.9659421,5.50253571 41.4421263,4.72053571 C42.3969684,3.12860714 43.5101263,2.34660714 44.6232842,2.50203571 C45.1019421,2.65867857 45.4507316,2.81653571 46.0877053,4.06482143 C46.4055737,4.68896429 46.8829947,9.24982143 46.8829947,11.9370357 C46.8829947,14.6218214 46.8829947,14.6218214 46.4055737,14.7784643 C45.7698368,15.0905357 44.1780211,15.0905357 43.5422842,14.7784643 C42.9065474,14.4663929 42.9065474,14.4663929 43.0661,11.3104643 C43.0661,9.56189286 43.1910211,7.84367857 43.1910211,7.68703571 C43.3518105,6.28210714 42.0469421,10.0306071 41.5695211,12.09125 C40.4242053,13.9673214 37.8478632,13.15375 37.4335211,12.2478929 C37.5299947,9.68696429 37.4335211,7.06410714 37.4335211,7.06410714 C37.4335211,7.06410714 36.8287053,7.53282143 36.3525211,8.46782143 C35.5559947,9.49996429 35.6203105,9.59346429 35.6833895,11.6249643 C35.7143105,13.15375 36.4156,15.27875 36.3203632,15.55925 C35.7786263,16.9338214 33.2653632,16.8075357 32.6296263,16.3728214 C31.1342842,15.3418929 31.1652053,13.0311071 31.0068895,11.1550357 C30.8473368,9.56189286 31.3569158,1.40796429 31.6747842,0.785035714" id="Fill-1093" fill="#368080"></path>
                </g>
                <polygon id="Fill-1096" fill="#368080" points="4.64361702 27.5491258 3 27.5491258 3 27 7 27 7 27.5491258 5.34840426 27.5491258 5.34840426 32 4.64361702 32"></polygon>
                <path d="M7.03142077,29.3096515 C7.03142077,28.8485255 7.02322404,28.4530831 7,28.0898123 L7.63251366,28.0898123 L7.65846995,28.8552279 L7.68989071,28.8552279 C7.8715847,28.3310992 8.30874317,28 8.79371585,28 C8.87568306,28 8.93306011,28.0093834 9,28.0241287 L9,28.69437 C8.92486339,28.6796247 8.8510929,28.6715818 8.75136612,28.6715818 C8.24180328,28.6715818 7.87978142,29.0522788 7.78142077,29.5831099 C7.76502732,29.6796247 7.74726776,29.7935657 7.74726776,29.9155496 L7.74726776,32 L7.03142077,32 L7.03142077,29.3096515 Z" id="Fill-1097" fill="#368080"></path>
                <path d="M11.27773,29.9613242 C10.5309544,29.9455916 9.68486672,30.0793183 9.68486672,30.82137 C9.68486672,31.2723697 9.98022356,31.4847591 10.3297506,31.4847591 C10.8185727,31.4847591 11.1306965,31.1701082 11.239037,30.8462799 C11.2635426,30.7741724 11.27773,30.6955097 11.27773,30.6260243 L11.27773,29.9613242 Z M11.3783319,31.9121599 L11.3241617,31.4296952 L11.3009458,31.4296952 C11.0907137,31.7312357 10.6870163,32 10.1504729,32 C9.38822012,32 9,31.454605 9,30.9013438 C9,29.9757457 9.80868444,29.4709931 11.2635426,29.4788594 L11.2635426,29.3988856 C11.2635426,29.0842347 11.1771281,28.5152409 10.4058469,28.5152409 C10.0563199,28.5152409 9.69260533,28.6266798 9.42820292,28.7997378 L9.27214101,28.3408718 C9.58297506,28.1350377 10.0343938,28 10.5090284,28 C11.6582115,28 11.9393809,28.7997378 11.9393809,29.5653884 L11.9393809,30.9957391 C11.9393809,31.3287447 11.9535684,31.6525729 12,31.9121599 L11.3783319,31.9121599 Z" id="Fill-1099" fill="#368080"></path>
                <path d="M13.0299043,29.1474531 C13.0299043,28.7439678 13.0227273,28.4115282 13,28.0898123 L13.5633971,28.0898123 L13.5992823,28.7372654 L13.6136364,28.7372654 C13.7870813,28.3632708 14.1901914,28 14.7679426,28 C15.25,28 16,28.3243968 16,29.6648794 L16,32 L15.3660287,32 L15.3660287,29.7453083 C15.3660287,29.116622 15.1566986,28.5898123 14.5586124,28.5898123 C14.1399522,28.5898123 13.8157895,28.922252 13.7069378,29.3176944 C13.6794258,29.4048257 13.6638756,29.5268097 13.6638756,29.650134 L13.6638756,32 L13.0299043,32 L13.0299043,29.1474531 Z" id="Fill-1101" fill="#368080"></path>
                <path d="M17.1391941,31.2076216 C17.303506,31.3416557 17.5934066,31.4848883 17.8707483,31.4848883 C18.2736787,31.4848883 18.4641549,31.2325887 18.4641549,30.9145861 C18.4641549,30.5834428 18.3050759,30.3994744 17.895866,30.2102497 C17.3474621,29.9632063 17.0889587,29.5834428 17.0889587,29.1248357 C17.0889587,28.5059133 17.4866562,28 18.1418106,28 C18.451596,28 18.7226583,28.1116951 18.892203,28.2378449 L18.7540555,28.7437582 C18.6336996,28.6504599 18.4128728,28.5229961 18.1292517,28.5229961 C17.8016745,28.5229961 17.6185243,28.760841 17.6185243,29.0446781 C17.6185243,29.3626807 17.8016745,29.5045992 18.1993721,29.695138 C18.7289377,29.9500657 19,30.2812089 19,30.8515112 C19,31.5243101 18.5834642,32 17.859236,32 C17.5243328,32 17.2145474,31.8961892 17,31.738502 L17.1391941,31.2076216 Z" id="Fill-1103" fill="#368080"></path>
                <path d="M20.4288703,31 L20.4288703,28.1081703 L20,28.1081703 L20,27.6444189 L20.4288703,27.6444189 L20.4288703,27.4833142 C20.4288703,27.0115075 20.5240586,26.5811277 20.7813808,26.3118527 C20.9905858,26.0897583 21.2677824,26 21.5261506,26 C21.7217573,26 21.8922594,26.0483314 22,26.0966628 L21.9236402,26.5684695 C21.8410042,26.5258918 21.7280335,26.4913694 21.5711297,26.4913694 C21.0972803,26.4913694 20.9769874,26.9493671 20.9769874,27.4626007 L20.9769874,27.6444189 L21.7144351,27.6444189 L21.7144351,28.1081703 L20.9769874,28.1081703 L20.9769874,31 L20.4288703,31 Z" id="Fill-1105" fill="#368080"></path>
                <path d="M22.7531557,30.0072108 C22.7531557,30.8462799 23.2692847,31.4782039 23.9957924,31.4782039 C24.7068724,31.4782039 25.2384292,30.8528351 25.2384292,29.9927892 C25.2384292,29.3438217 24.8920056,28.5217961 24.0126227,28.5217961 C23.1346424,28.5217961 22.7531557,29.2808915 22.7531557,30.0072108 M26,29.9691904 C26,31.3838086 24.9509116,32 23.9621318,32 C22.85554,32 22,31.2395936 22,30.0308096 C22,28.7525402 22.8976157,28 24.0308555,28 C25.2047686,28 26,28.7984267 26,29.9691904" id="Fill-1107" fill="#368080"></path>
                <path d="M26.0314208,29.3096515 C26.0314208,28.8485255 26.023224,28.4530831 26,28.0898123 L26.6325137,28.0898123 L26.6571038,28.8552279 L26.6898907,28.8552279 C26.8715847,28.3310992 27.307377,28 27.7937158,28 C27.8756831,28 27.9344262,28.0093834 28,28.0241287 L28,28.69437 C27.9248634,28.6796247 27.8510929,28.6715818 27.7513661,28.6715818 C27.2418033,28.6715818 26.8797814,29.0522788 26.7814208,29.5831099 C26.7650273,29.6796247 26.7472678,29.7935657 26.7472678,29.9155496 L26.7472678,32 L26.0314208,32 L26.0314208,29.3096515 Z" id="Fill-1109" fill="#368080"></path>
                <path d="M29.0298329,29.1474531 C29.0298329,28.7439678 29.022673,28.4115282 29,28.0898123 L29.5548926,28.0898123 L29.5847255,28.7198391 L29.6050119,28.7198391 C29.7983294,28.347185 30.1229117,28 30.699284,28 C31.1718377,28 31.5334129,28.3243968 31.6837709,28.7841823 L31.6980907,28.7841823 C31.8054893,28.5670241 31.9427208,28.3967828 32.0859189,28.2761394 C32.2947494,28.0965147 32.5250597,28 32.8568019,28 C33.3162291,28 34,28.3391421 34,29.6983914 L34,32 L33.3818616,32 L33.3818616,29.7855228 C33.3818616,29.0348525 33.1372315,28.5831099 32.6264916,28.5831099 C32.2661098,28.5831099 31.9856802,28.8806971 31.8782816,29.2292225 C31.849642,29.3257373 31.8281623,29.4544236 31.8281623,29.5844504 L31.8281623,32 L31.2088305,32 L31.2088305,29.6568365 C31.2088305,29.0348525 30.9653938,28.5831099 30.4821002,28.5831099 C30.0871122,28.5831099 29.7983294,28.9369973 29.6980907,29.2922252 C29.6622912,29.3981233 29.6479714,29.5201072 29.6479714,29.6407507 L29.6479714,32 L29.0298329,32 L29.0298329,29.1474531 Z" id="Fill-1111" fill="#368080"></path>
                <path d="M35.067,32 L35.597,32 L35.597,28.41681 L35.067,28.41681 L35.067,32 Z M35.657,27.4079626 C35.663,27.6316048 35.531,27.8085525 35.32,27.8085525 C35.133,27.8085525 35,27.6316048 35,27.4079626 C35,27.1794053 35.139,27 35.332,27 C35.531,27 35.657,27.1794053 35.657,27.4079626 L35.657,27.4079626 Z" id="Fill-1113" fill="#368080"></path>
                <path d="M37.0275229,29.1474531 C37.0275229,28.7439678 37.020343,28.4115282 37,28.0898123 L37.5612286,28.0898123 L37.597128,28.7372654 L37.6126845,28.7372654 C37.785002,28.3632708 38.1894695,28 38.7650578,28 C39.2485042,28 40,28.3243968 40,29.6648794 L40,32 L39.3645792,32 L39.3645792,29.7453083 C39.3645792,29.116622 39.1551655,28.5898123 38.5568408,28.5898123 C38.1380136,28.5898123 37.8137216,28.922252 37.7060231,29.3176944 C37.6773036,29.4048257 37.6617471,29.5268097 37.6617471,29.650134 L37.6617471,32 L37.0275229,32 L37.0275229,29.1474531 Z" id="Fill-1115" fill="#368080"></path>
                <path d="M43.3955963,29.434967 C43.3955963,29.3277568 43.3889908,29.2358624 43.3636697,29.1510368 C43.2568807,28.7881715 42.9717431,28.4901037 42.5456881,28.4901037 C41.9886239,28.4901037 41.5911927,28.994345 41.5911927,29.7907634 C41.5911927,30.4634779 41.9093578,31.0266258 42.5401835,31.0266258 C42.8979817,31.0266258 43.2227523,30.7839303 43.3493578,30.3868992 C43.3823853,30.279689 43.3955963,30.1595193 43.3955963,30.0523091 L43.3955963,29.434967 Z M44,28.078935 C43.986789,28.3275212 43.973578,28.6043827 43.973578,29.0226202 L43.973578,31.0183789 C43.973578,31.8065504 43.827156,32.2884072 43.5155963,32.5876532 C43.2040367,32.9010368 42.7526606,33 42.346422,33 C41.9622018,33 41.5383486,32.9010368 41.2785321,32.7160697 L41.4249541,32.2389255 C41.6374312,32.3814797 41.9688073,32.5098963 42.3673394,32.5098963 C42.9651376,32.5098963 43.4022018,32.1753063 43.4022018,31.3093779 L43.4022018,30.9264844 L43.3889908,30.9264844 C43.2106422,31.2457587 42.8649541,31.5025919 42.3673394,31.5025919 C41.5713761,31.5025919 41,30.7780396 41,29.8261074 C41,28.6609331 41.7100917,28 42.4466055,28 C43.0047706,28 43.3097248,28.3133836 43.4495413,28.5961357 L43.4616514,28.5961357 L43.4891743,28.078935 L44,28.078935 Z" id="Fill-1116" fill="#368080"></path>
                <path d="M47.6166195,32 L47.6166195,29.8778927 L46,27 L46.7503935,27 L47.4718288,28.3786312 C47.6694995,28.7577548 47.8218445,29.0617922 47.9792257,29.4113737 L47.9955933,29.4113737 C48.140384,29.0839488 48.3141328,28.7577548 48.5118036,28.3786312 L49.2483475,27 L50,27 L48.2839156,29.8705071 L48.2839156,32 L47.6166195,32 Z" id="Fill-1117" fill="#368080"></path>
                <path d="M50.7520168,30.0072108 C50.7520168,30.8462799 51.2683269,31.4782039 51.9950894,31.4782039 C52.7064188,31.4782039 53.238162,30.8528351 53.238162,29.9927892 C53.238162,29.3438217 52.891617,28.5217961 52.0133287,28.5217961 C51.1336373,28.5217961 50.7520168,29.2808915 50.7520168,30.0072108 M54,29.9691904 C54,31.3838086 52.9519467,32 51.9628201,32 C50.854437,32 50,31.2395936 50,30.0308096 C50,28.7525402 50.8965275,28 52.0301649,28 C53.2058927,28 54,28.7984267 54,29.9691904" id="Fill-1118" fill="#368080"></path>
                <path d="M56.972211,30.8431635 C56.972211,31.2479893 56.9794603,31.6018767 57,31.9088472 L56.4321385,31.9088472 L56.3971003,31.272118 L56.3813935,31.272118 C56.2146597,31.5871314 55.8425292,32 55.2166734,32 C54.6633105,32 54,31.6595174 54,30.2855228 L54,28 L54.6427708,28 L54.6427708,30.1635389 C54.6427708,30.9088472 54.8457511,31.4088472 55.4281112,31.4088472 C55.858236,31.4088472 56.1566653,31.077748 56.272654,30.7613941 C56.3089005,30.6568365 56.3318566,30.5294906 56.3318566,30.3981233 L56.3318566,28 L56.972211,28 L56.972211,30.8431635 Z" id="Fill-1119" fill="#368080"></path>
                <path d="M58.0327645,29.3096515 C58.0327645,28.8485255 58.0245734,28.4530831 58,28.0898123 L58.6334471,28.0898123 L58.6580205,28.8552279 L58.690785,28.8552279 C58.8709898,28.3310992 59.3078498,28 59.7938567,28 C59.8757679,28 59.9331058,28.0093834 60,28.0241287 L60,28.69437 C59.9249147,28.6796247 59.8511945,28.6715818 59.7515358,28.6715818 C59.2423208,28.6715818 58.8805461,29.0522788 58.7822526,29.5831099 C58.7645051,29.6796247 58.7481229,29.7935657 58.7481229,29.9155496 L58.7481229,32 L58.0327645,32 L58.0327645,29.3096515 Z" id="Fill-1120" fill="#368080"></path>
                <path d="M62.6135831,31.474449 C62.734192,31.4962461 62.9098361,31.5035117 63.1288056,31.5035117 C63.764637,31.5035117 64.3501171,31.2637442 64.3501171,30.5468636 C64.3501171,29.875999 63.7915691,29.5986922 63.1217799,29.5986922 L62.6135831,29.5986922 L62.6135831,31.474449 Z M62.6135831,29.1167353 L63.1709602,29.1167353 C63.8208431,29.1167353 64.2025761,28.7655607 64.2025761,28.2920804 C64.2025761,27.7156697 63.7786885,27.4892226 63.1580796,27.4892226 C62.8747073,27.4892226 62.7131148,27.5122306 62.6135831,27.5328167 L62.6135831,29.1167353 Z M62,27.1017195 C62.2681499,27.0435941 62.6908665,27 63.1217799,27 C63.735363,27 64.1311475,27.1101962 64.4274005,27.3572294 C64.6744731,27.547348 64.8220141,27.8391862 64.8220141,28.2266893 C64.8220141,28.7001695 64.5187354,29.1167353 64.0187354,29.305643 L64.0187354,29.3213853 C64.469555,29.4388472 65,29.8251393 65,30.5541293 C65,30.9767498 64.8372365,31.2988617 64.5971897,31.5398402 C64.265808,31.8546864 63.7295082,32 62.9531616,32 C62.529274,32 62.204918,31.9697263 62,31.9418745 L62,27.1017195 Z" id="Fill-1121" fill="#368080"></path>
                <path d="M68.9698189,30.8431635 C68.9698189,31.2479893 68.9770624,31.6018767 69,31.9088472 L68.4313883,31.9088472 L68.395171,31.272118 L68.3806841,31.272118 C68.2128773,31.5871314 67.8422535,32 67.2156942,32 C66.6627767,32 66,31.6595174 66,30.2855228 L66,28 L66.6422535,28 L66.6422535,30.1635389 C66.6422535,30.9088472 66.8450704,31.4088472 67.4269618,31.4088472 C67.8567404,31.4088472 68.1561368,31.077748 68.2708249,30.7613941 C68.3070423,30.6568365 68.3299799,30.5294906 68.3299799,30.3981233 L68.3299799,28 L68.9698189,28 L68.9698189,30.8431635 Z" id="Fill-1122" fill="#368080"></path>
                <path d="M70.1391941,31.2076216 C70.303506,31.3416557 70.5934066,31.4848883 70.8707483,31.4848883 C71.2736787,31.4848883 71.4641549,31.2325887 71.4641549,30.9145861 C71.4641549,30.5834428 71.3061224,30.3994744 70.895866,30.2102497 C70.3474621,29.9632063 70.0889587,29.5834428 70.0889587,29.1248357 C70.0889587,28.5059133 70.4866562,28 71.1428571,28 C71.451596,28 71.7226583,28.1116951 71.892203,28.2378449 L71.7540555,28.7437582 C71.6336996,28.6504599 71.4128728,28.5229961 71.1302983,28.5229961 C70.8006279,28.5229961 70.6185243,28.760841 70.6185243,29.0446781 C70.6185243,29.3626807 70.8006279,29.5045992 71.1993721,29.695138 C71.7289377,29.9500657 72,30.2812089 72,30.8515112 C72,31.5243101 71.5834642,32 70.859236,32 C70.5243328,32 70.2145474,31.8961892 70,31.738502 L70.1391941,31.2076216 Z" id="Fill-1123" fill="#368080"></path>
                <path d="M73.067,32 L73.597,32 L73.597,28.41681 L73.067,28.41681 L73.067,32 Z M73.657,27.4079626 C73.663,27.6316048 73.53,27.8085525 73.32,27.8085525 C73.132,27.8085525 73,27.6316048 73,27.4079626 C73,27.1794053 73.139,27 73.331,27 C73.53,27 73.657,27.1794053 73.657,27.4079626 L73.657,27.4079626 Z" id="Fill-1124" fill="#368080"></path>
                <path d="M75.0299043,29.1474531 C75.0299043,28.7439678 75.0227273,28.4115282 75,28.0898123 L75.5633971,28.0898123 L75.5992823,28.7372654 L75.6136364,28.7372654 C75.7870813,28.3632708 76.1901914,28 76.7679426,28 C77.25,28 78,28.3243968 78,29.6648794 L78,32 L77.3660287,32 L77.3660287,29.7453083 C77.3660287,29.116622 77.1566986,28.5898123 76.5586124,28.5898123 C76.1399522,28.5898123 75.8157895,28.922252 75.7069378,29.3176944 C75.6794258,29.4048257 75.6638756,29.5268097 75.6638756,29.650134 L75.6638756,32 L75.0299043,32 L75.0299043,29.1474531 Z" id="Fill-1125" fill="#368080"></path>
                <path d="M81.4020979,29.6312849 C81.4090909,29.188301 81.2400932,28.4995071 80.5454545,28.4995071 C79.9207459,28.4995071 79.6456876,29.1475518 79.5967366,29.6312849 L81.4020979,29.6312849 Z M79.5897436,30.130792 C79.6037296,31.0732829 80.1386946,31.4623727 80.7564103,31.4623727 C81.1981352,31.4623727 81.4662005,31.3756162 81.6969697,31.2638843 L81.8030303,31.7633914 C81.5850816,31.8738087 81.2132867,32 80.6713287,32 C79.6247086,32 79,31.225764 79,30.0676964 C79,28.9122576 79.6037296,28 80.5944056,28 C81.7051282,28 82,29.10023 82,29.8061124 C82,29.9480776 81.986014,30.0598094 81.979021,30.130792 L79.5897436,30.130792 Z" id="Fill-1126" fill="#368080"></path>
                <path d="M83.1382199,31.2076216 C83.3026178,31.3416557 83.5937173,31.4848883 83.8701571,31.4848883 C84.2743455,31.4848883 84.4638743,31.2325887 84.4638743,30.9145861 C84.4638743,30.5834428 84.3057592,30.3994744 83.8963351,30.2102497 C83.3465969,29.9632063 83.0879581,29.5834428 83.0879581,29.1248357 C83.0879581,28.5059133 83.4858639,28 84.1424084,28 C84.4513089,28 84.7225131,28.1116951 84.8921466,28.2378449 L84.7539267,28.7437582 C84.634555,28.6504599 84.4125654,28.5229961 84.1298429,28.5229961 C83.8010471,28.5229961 83.6188482,28.760841 83.6188482,29.0446781 C83.6188482,29.3626807 83.8010471,29.5045992 84.1989529,29.695138 C84.7287958,29.9500657 85,30.2812089 85,30.8515112 C85,31.5243101 84.5842932,32 83.8586387,32 C83.5235602,32 83.2136126,31.8961892 83,31.738502 L83.1382199,31.2076216 Z" id="Fill-1127" fill="#368080"></path>
                <path d="M86.1391941,31.2076216 C86.303506,31.3416557 86.5934066,31.4848883 86.8707483,31.4848883 C87.2747253,31.4848883 87.4641549,31.2325887 87.4641549,30.9145861 C87.4641549,30.5834428 87.3061224,30.3994744 86.895866,30.2102497 C86.3474621,29.9632063 86.0889587,29.5834428 86.0889587,29.1248357 C86.0889587,28.5059133 86.4866562,28 87.1428571,28 C87.451596,28 87.7226583,28.1116951 87.892203,28.2378449 L87.7540555,28.7437582 C87.6347462,28.6504599 87.4128728,28.5229961 87.1302983,28.5229961 C86.8016745,28.5229961 86.6195709,28.760841 86.6195709,29.0446781 C86.6195709,29.3626807 86.8016745,29.5045992 87.1993721,29.695138 C87.7289377,29.9500657 88,30.2812089 88,30.8515112 C88,31.5243101 87.5845107,32 86.859236,32 C86.5243328,32 86.2145474,31.8961892 86,31.738502 L86.1391941,31.2076216 Z" id="Fill-1128" fill="#368080"></path>
            </g>
        </g>
    </g>
</svg>