<?xml version="1.0" encoding="UTF-8"?>
<svg width="128px" height="35px" viewBox="0 0 128 35" version="1.1" xmlns="http://www.w3.org/2000/svg" xmlns:xlink="http://www.w3.org/1999/xlink">
    <!-- Generator: sketchtool 60.1 (101010) - https://sketch.com -->
    <title>D09AF97D-F7F8-4D3A-BFBA-93766DD0206B</title>
    <desc>Created with sketchtool.</desc>
    <g id="Page-1" stroke="none" stroke-width="1" fill="none" fill-rule="evenodd">
        <g id="LP-DE-PATROCÃNIO" transform="translate(-545.000000, -3542.000000)">
            <g id="Group-34" transform="translate(545.000000, 3542.000000)">
                <path d="M128,25.3942029 C127.91283,25.9104362 127.796194,26.4177249 127.569061,26.8917906 C127.118478,27.827144 126.449355,28.5452705 125.58011,29.060226 C124.570902,29.6556832 123.472069,29.9240223 122.320442,29.9866348 C120.597913,30.0824701 118.977287,29.6544054 117.404543,28.9758909 C116.949048,28.7791089 116.504604,28.5606042 116.067526,28.3267658 L116,28.1146502 C116.414979,27.2419092 116.828729,26.3666127 117.236341,25.4913161 L117.467158,25.4453152 C118.2124,25.892547 118.977287,26.2963334 119.794966,26.5851174 C120.595457,26.8700679 121.408226,27.0898504 122.265193,27.0566275 C122.750153,27.0361826 123.177409,26.8649567 123.549417,26.5250605 C124.254144,25.8810467 124.243094,24.5265732 123.248619,24.0026731 C122.698588,23.7113335 122.109269,23.5797196 121.512584,23.4557725 C120.81768,23.3126583 120.101903,23.2513237 119.431553,22.986818 C118.692449,22.698034 118.004911,22.3146925 117.474524,21.6860123 C117.036219,21.16339 116.81768,20.5308764 116.709638,19.8613065 C116.437078,18.1797149 116.801719,16.6897941 118.017188,15.4912128 C118.73051,14.7871422 119.607121,14.3935782 120.557397,14.1789069 C121.59116,13.9450686 122.631062,13.9680691 123.675875,14.0907384 C124.742787,14.2146855 125.713935,14.6414724 126.687538,15.0669815 C126.8938,15.1589835 127.09515,15.2637635 127.300184,15.3557655 L127.375077,15.5499919 C126.993247,16.3562869 126.612646,17.1651376 126.236955,17.9752661 L126.024555,18.0123224 C125.486802,17.7248163 124.940454,17.464144 124.362185,17.2852513 C123.655003,17.0654688 122.935543,16.9389661 122.193984,17.0309681 C121.855126,17.0731356 121.548189,17.1945271 121.26949,17.4015316 C120.617557,17.8896531 120.568447,19.0869566 121.381215,19.5277994 C121.878453,19.7974163 122.411295,19.9341414 122.945365,20.0862002 C123.750767,20.3162052 124.578269,20.4733752 125.360344,20.7877153 C126.822591,21.3755057 127.750767,22.4309727 127.985267,24.0806192 L128,24.1291758 L128,25.3942029 Z" id="Fill-1678" fill="#290F00"></path>
                <path d="M26.0476971,0 C26.6548389,0.094373902 27.2360445,0.266606273 27.764199,0.58747754 C29.0279971,1.35544517 29.7907558,2.46787754 29.9664143,3.94011041 C30.2528909,6.34428556 28.6790379,8.46769836 26.3023429,8.92305244 C23.9303637,9.37958619 21.5289115,7.75399572 21.085639,5.38992948 C20.594031,2.77459272 22.2657341,0.423502885 24.8994327,0.0165154329 L24.9442315,0 L26.0476971,0 Z" id="Fill-1680" fill="#290F00"></path>
                <path d="M55.6927924,15.2946513 C56.6614143,14.3964528 57.8192494,14.0216915 59.0973792,14.0008031 C61.3403715,13.9676275 62.9881564,14.9628954 64.0708075,16.8698777 C64.5920839,17.7901933 64.8289138,18.7952909 64.9279062,19.8347929 C65.0557192,21.1827051 65.015621,22.526931 64.7913218,23.8625559 C64.5707818,25.188351 63.988105,26.3421244 63.0558221,27.3361635 C62.4029735,28.032851 61.6498794,28.5747191 60.7226088,28.84381 C59.1324651,29.3070396 57.5886849,29.1583638 56.0962805,28.4506178 L55.9308754,28.4088411 L55.922104,28.5648893 L55.942153,28.892959 C55.9446592,30.541909 55.9396469,32.1908589 55.9484184,33.8398089 C55.9484184,34.0179741 55.885765,34.0843253 55.7166007,34.1273307 C54.640215,34.3976503 53.5663354,34.6790285 52.4912028,34.9554918 L52.4598761,34.9653216 C52.2092624,35.0279866 52.2092624,35.0279866 52.2092624,34.7736404 C52.2092624,29.0870977 52.2130216,23.4017837 52.2055032,17.715241 C52.2042501,16.716287 52.1929725,15.7111894 52,14.7220651 L52.1303191,14.552501 C53.1691128,14.3743357 54.2091595,14.1937131 55.2467001,14.0094042 L55.4722524,14.1556226 C55.5662325,14.498437 55.628886,14.8486239 55.6727434,15.2037256 L55.6927924,15.2946513 Z M55.977239,21.7098284 L55.977239,25.0617922 L56.0549292,25.2989363 C56.7779496,25.792884 57.5310437,26.173789 58.4608204,26.0730335 C59.4031279,25.9698205 60.0271559,25.4955324 60.3517006,24.6292807 C60.652437,23.8220079 60.7276211,22.9754159 60.7526825,22.1275951 C60.7777438,21.3289234 60.7727316,20.529023 60.688776,19.7328087 C60.6323879,19.1921694 60.5471793,18.6552162 60.3303984,18.1514387 C60.1086053,17.6341451 59.7276726,17.2888732 59.167551,17.1524846 C58.8881168,17.083676 58.6074294,17.0799898 58.3204768,17.0922771 C57.4671372,17.1340538 56.7466229,17.4621235 56.1301133,18.033481 L55.9747328,18.3910402 C55.978492,19.4981221 55.977239,20.605204 55.977239,21.7098284 L55.977239,21.7098284 Z" id="Fill-1682" fill="#696B70"></path>
                <path d="M88.6368589,22.6320543 C87.2611741,22.6320543 85.8829371,22.6356814 84.5072523,22.6284272 C84.3336966,22.6284272 84.2813746,22.6731615 84.2877553,22.8375901 C84.3145544,23.6174168 84.434512,24.375481 84.9041335,25.0404495 C85.3571652,25.6776103 85.9990663,26.0342752 86.7941049,26.1358341 C88.4033243,26.3413698 89.796875,25.8492931 91.0577067,24.9352636 C91.3269734,24.7381911 91.2746514,24.7442362 91.4494833,24.9945062 C91.8731636,25.6074863 92.289187,26.2253025 92.7179719,26.8358646 L92.6707545,27.1344959 C91.3703623,28.0944687 89.9206611,28.7316295 88.2769859,28.9274929 C86.6294821,29.1221473 85.0419573,28.9420013 83.5641809,28.177892 C82.0174926,27.3775117 81.037413,26.1358341 80.4810136,24.5749715 C80.0381911,23.3308758 79.9450325,22.0493001 80.0267058,20.7459617 C80.0751993,19.9588808 80.1619772,19.176636 80.4159302,18.423408 C81.0782496,16.4575191 82.363328,15.0272322 84.4472735,14.3078572 C85.0164343,14.1119937 85.6136704,14.0346155 86.2198395,14.0092258 C87.1667394,13.9669097 88.0893925,14.0684685 88.9929034,14.3489643 C90.3162662,14.7600358 91.2695468,15.5712974 91.938247,16.7114162 C92.4525336,17.5855476 92.710315,18.5346391 92.8583479,19.5175835 C93.0051046,20.4872285 92.9987239,21.4617097 93,22.4373999 C93,22.5957833 92.9425735,22.6356814 92.7830553,22.6356814 C91.4009898,22.6308453 90.0189243,22.6320543 88.6368589,22.6320543 M86.6128922,19.8766665 C87.3071153,19.8766665 88.0026146,19.8742484 88.6955615,19.8766665 L88.8869834,19.7013566 C88.8780503,19.3120477 88.8831549,18.9239479 88.8065862,18.5418933 C88.6840762,17.9277041 88.4237426,17.3884751 87.8430964,17.0414824 C86.9663845,16.5191798 85.3341946,16.5905128 84.6999503,17.9748564 C84.4498258,18.5177126 84.3668763,19.0883765 84.3515626,19.6747579 C84.3490103,19.8331413 84.4026084,19.8815026 84.565955,19.8778755 C85.2474167,19.8730394 85.9314306,19.8766665 86.6128922,19.8766665" id="Fill-1684" fill="#290F00"></path>
                <path d="M48.215338,19.6936947 C48.215338,21.4408573 48.2092836,23.1856018 48.2177598,24.9327644 C48.2213925,25.8311324 48.4526741,26.6678359 49,27.4017651 L48.9394551,27.5964317 C48.2359233,27.9954377 47.5311806,28.3932346 46.8276488,28.7934497 L46.7574168,28.8321412 C46.3893037,29.0352715 46.3905146,29.0316442 46.089001,28.7475036 C45.7862765,28.4633629 45.5392533,28.1417399 45.3685166,27.7620797 L45.1941473,27.7245973 C44.4288597,28.4174168 43.510999,28.7801495 42.50111,28.9264517 C41.491221,29.0727539 40.4970737,29.0098802 39.5344097,28.6556113 C38.758224,28.3690524 38.0655903,27.954328 37.5957619,27.2409536 C37.2881937,26.7730284 37.165893,26.2434386 37.0956609,25.7005487 C37.012109,25.0645573 37.0012109,24.4237295 37,23.7829016 C37,20.8290481 37,17.8764037 37,14.9225502 C37,14.6722647 37,14.6746829 37.249445,14.6263185 C38.3089808,14.4268155 39.3685166,14.2248943 40.4292634,14.0266004 L40.5891019,14 L40.6980827,14.0943105 L40.7005045,14.2708404 L40.7005045,23.277494 C40.7005045,23.8542391 40.7440969,24.4261477 40.8433905,24.9956381 C41.0104945,25.9568798 41.7394551,26.1962834 42.4115035,26.1624283 C43.2228052,26.1213186 43.8996973,25.7610041 44.4312815,25.139522 C44.5753784,24.9714559 44.6431887,24.7816258 44.6419778,24.5494768 C44.6383451,21.3695199 44.639556,18.189563 44.639556,15.0108152 C44.639556,14.7593205 44.639556,14.7581114 44.8829465,14.7061197 L48.0179617,14.044737 C48.2068618,14.0036273 48.215338,14.0096729 48.215338,14.2115941 L48.215338,19.6936947" id="Fill-1686" fill="#696B70"></path>
                <path d="M100.527744,24.1852767 C100.254007,24.8065711 99.9778052,25.3858696 99.6683107,25.9503458 C99.1196054,26.9434289 98.5104809,27.8994565 97.9309494,28.8740119 L97.701603,28.9975296 C96.1787916,28.9950593 94.6572133,28.9950593 93.1331689,28.9950593 L93,28.9629447 L93.0628853,28.819664 C94.6720099,26.4888834 96.2836005,24.1581028 97.8951911,21.8285573 C98.0086313,21.6655138 98.1134402,21.4950593 98.2342787,21.3406621 L98.2404439,21.0639822 C96.974106,19.1506917 95.7114673,17.2336957 94.4488286,15.3204051 C94.2811344,15.0659585 94.2811344,15.0671937 94.5782984,14.9832016 C95.7410604,14.6571146 96.9050555,14.333498 98.0665845,14 L98.3575832,14.1148715 C99.1713933,15.4575099 99.9321825,16.8273221 100.575832,18.2601285 L100.680641,18.4182312 C100.831073,18.0723814 100.975339,17.7314723 101.131936,17.3930336 C101.573366,16.4333004 101.985203,15.4599802 102.527744,14.548419 L102.823674,14.3730237 C104.18619,14.3791996 105.551171,14.3754941 106.913687,14.3779644 L107.08508,14.4014328 L107.018496,14.5755929 C105.67201,16.6716897 104.325524,18.7714921 102.970407,20.861413 C102.848335,21.0516304 102.848335,21.1788538 102.975339,21.367836 C104.62762,23.8320158 106.267571,26.3036067 107.908755,28.7714921 L108,28.9555336 L107.787916,28.9950593 C106.331689,28.9975296 104.875462,28.9925889 103.419236,29 L103.093711,28.8134881 C102.236745,27.3189229 101.367448,25.833004 100.591862,24.2952075 L100.527744,24.1852767 Z" id="Fill-1688" fill="#290F00"></path>
                <path d="M68,18.9819461 L68,9.25649007 C68,9 68,9 68.2481375,9 L71.7792307,9 C72.0249355,9 72.0249355,9 72.0249355,9.25898027 L72.0249355,25.3618253 C72.0249355,25.6481977 72.0249355,25.6481977 72.3107801,25.6481977 L78.7854647,25.6481977 C79.0238713,25.6481977 79.0238713,25.6481977 78.9727842,25.8897466 C78.7696521,26.853452 78.5628708,27.8159123 78.3682532,28.783353 C78.3329788,28.9551765 78.2587808,29 78.0933559,29 C74.8079673,28.9950196 71.5213624,28.9975098 68.2359739,28.9975098 C68,28.9975098 68,28.9950196 68,28.7559609 L68,18.9819461" id="Fill-1690" fill="#290F00"></path>
                <path d="M0.000760731623,8.00245206 C-0.0429708236,5.2834205 2.24643519,2.97307049 5.04880053,3.00023718 C7.76606662,3.02504155 10.0152869,5.26924657 10,8.01426367 C9.98337467,10.8301504 7.70815186,13.0129351 4.97197482,13 C2.11524052,12.9893119 -0.0465166254,10.6163603 0.000760731623,8.00245206" id="Fill-1692" fill="#696B70"></path>
                <path d="M0.000786339879,18.9950699 C-0.0474294432,16.3191123 2.19398632,13.9901524 5.00039215,14 C7.7548733,14.0099103 10,16.2425505 10,18.993835 C10.0024706,21.7488241 7.75116439,24.0061617 4.99544694,24 C2.127226,23.9925782 -0.0474294432,21.6302769 0.000786339879,18.9950699" id="Fill-1694" fill="#696B70"></path>
                <path d="M16.0130226,10.9993112 C13.3903699,11.0440619 11.0099802,8.9034835 11,6.00214199 C10.9888599,3.2512128 13.2537087,0.998757437 16.0043259,1 C18.7549432,1.00248667 21.0160649,3.2561851 21,6.01084353 C20.9837631,8.92710196 18.5946769,11.0316312 16.0130226,10.9993112" id="Fill-1696" fill="#290F00"></path>
                <path d="M5.51955015,25.0001377 C7.97365882,25.0001377 10.005912,27.0281495 10,29.4852322 C9.99406214,31.9849848 8.02105831,33.9904763 5.53376999,34 C2.9422028,34.010626 0.995268687,31.9612793 1,29.4911586 C1.00474859,26.9226597 3.09388117,24.9811733 5.51955015,25.0001377" id="Fill-1698" fill="#696B70"></path>
                <path d="M11.0005637,16.4963803 C10.9693657,14.1108685 12.927642,12.0060052 15.4990795,12 C17.9865224,11.9952111 20.003595,14.0281132 20,16.5215667 C19.9975953,18.9970298 17.976923,20.9867553 15.49068,21 C13.0128366,21.0119417 10.9609662,18.9406603 11.0005637,16.4963803" id="Fill-1700" fill="#C46B3B"></path>
                <path d="M21.0007022,15.483999 C20.9710952,13.1785988 22.8548402,11.0111285 25.5083671,11 C27.9990555,10.9889612 30.0036958,13.0332797 30,15.5591215 C29.9950604,17.9889049 27.9497105,20.0085931 25.4935636,20 C22.9103534,19.9888889 20.9575254,17.8669847 21.0007022,15.483999" id="Fill-1702" fill="#290F00"></path>
                <path d="M11,26.4912498 C11.0075052,24.0568251 12.9488435,21.9962541 15.5118604,22 C18.0023273,22.0037562 19.9899476,23.984305 20,26.4787464 C20.0112123,29.0432071 17.9322791,31.0012497 15.4805889,31 C13.0163901,30.9962484 11.0025017,28.9731877 11,26.4912498" id="Fill-1704" fill="#696B70"></path>
                <path d="M29.9995136,24.4866688 C30.0358587,26.9141467 28.0303881,28.9618857 25.582286,28.9994707 C23.0653878,29.0370558 21.0261681,27.0683752 21.0002073,24.5087015 C20.9768426,22.0475266 22.9316897,20.0969905 25.317486,20.0036758 C27.9732743,19.8986967 30.0293686,22.0578949 29.9995136,24.4866688" id="Fill-1706" fill="#290F00"></path>
                <path d="M114,21.4970452 L114,28.7284054 C114,29 114,29 113.713827,29 L110.246391,29 C110.006416,29 110.00385,28.9975197 110.00385,28.771811 C110.001283,24.1174987 110.00385,19.4607061 110,14.8051536 C110,14.6315315 110.059031,14.572004 110.237408,14.5459607 C111.411614,14.376059 112.58582,14.194996 113.760026,14.0164133 C113.998717,13.9816889 114,13.982929 114,14.2160787 L114,20.7169859 L114,21.4970452 Z" id="Fill-1708" fill="#290F00"></path>
                <path d="M114.997196,10.5034378 C115.061515,11.8011766 113.937902,13.0038954 112.512383,13 C111.117055,12.9934823 110.005255,11.8987999 110,10.5138509 C109.997379,9.1262987 111.11968,8.02771137 112.512383,8.00037685 C113.923463,7.97564562 115.064141,9.17185623 114.997196,10.5034378" id="Fill-1710" fill="#696B70"></path>
            </g>
        </g>
    </g>
</svg>