<?xml version="1.0" encoding="UTF-8"?>
<svg width="67px" height="55px" viewBox="0 0 67 55" version="1.1" xmlns="http://www.w3.org/2000/svg" xmlns:xlink="http://www.w3.org/1999/xlink">
    <!-- Generator: sketchtool 60.1 (101010) - https://sketch.com -->
    <title>64CBF14C-A741-44E5-9586-BE7918172203</title>
    <desc>Created with sketchtool.</desc>
    <g id="Page-1" stroke="none" stroke-width="1" fill="none" fill-rule="evenodd">
        <g id="LP-DE-PATROCÃNIO" transform="translate(-1510.000000, -3331.000000)">
            <g id="Group-393" transform="translate(1510.000000, 3331.000000)">
                <path d="M2.89719964,54.8578264 L1.29756098,54.8578264 L0,47.1421736 L1.48429991,47.1421736 L2.40426378,52.9822283 L5.41817525,47.1421736 L6.90247516,47.1421736 L2.89719964,54.8578264 Z M6.49741644,51.8311688 C6.49741644,51.3745728 6.56195122,50.8933698 6.69102078,50.3875598 C6.86128275,49.709501 7.11804878,49.1216678 7.46269196,48.6226931 C7.8100813,48.1237184 8.24672087,47.7300068 8.77123758,47.4388243 C9.29850045,47.1490089 9.89579042,47.0041012 10.5699729,47.0041012 C11.4707136,47.0041012 12.1984463,47.3007519 12.7531707,47.8940533 C13.3065221,48.4887218 13.5852575,49.2747779 13.5852575,50.2563226 C13.5852575,51.0697198 13.4053839,51.8585099 13.0442638,52.621326 C12.6845167,53.3841422 12.1915808,53.9719754 11.5736947,54.3848257 C10.9544354,54.7949419 10.2555375,55 9.47288166,55 C8.79320687,55 8.22475158,54.8359535 7.76476965,54.5105947 C7.30616079,54.1838688 6.97936766,53.7792208 6.78850949,53.2952837 C6.59353207,52.8099795 6.49741644,52.3219412 6.49741644,51.8311688 L6.49741644,51.8311688 Z M7.98171635,51.8010936 C7.98171635,52.3315106 8.13412827,52.7771702 8.43757904,53.1353383 C8.74102981,53.4948735 9.14334237,53.6739576 9.63902439,53.6739576 C10.04271,53.6739576 10.4299187,53.531784 10.8006504,53.2501709 C11.1741283,52.9671907 11.4803252,52.5379357 11.7247335,51.962406 C11.9677687,51.3855092 12.0899729,50.8263841 12.0899729,50.2822967 C12.0899729,49.6725906 11.9361879,49.1954887 11.629991,48.8496241 C11.3210479,48.5037594 10.9283469,48.3301435 10.4532611,48.3301435 C9.72278229,48.3301435 9.1268654,48.6937799 8.66962963,49.4169515 C8.2096477,50.138756 7.98171635,50.9343814 7.98171635,51.8010936 L7.98171635,51.8010936 Z M13.8749774,54.8578264 L15.3990967,47.1421736 L16.8943812,47.1421736 L15.370262,54.8578264 L13.8749774,54.8578264 Z M22.0269557,52.088175 L23.5304788,52.3301435 C23.2366396,53.1941217 22.7945077,53.8530417 22.2068293,54.3110048 C21.6205239,54.7689679 20.9298645,54.9986329 20.1403433,54.9986329 C19.2533333,54.9986329 18.5558085,54.7156528 18.0601265,54.1442242 C17.557579,53.5741627 17.3090515,52.7484621 17.3090515,51.6671224 C17.3090515,50.7894737 17.4751942,49.9856459 17.8115989,49.2556391 C18.1480036,48.5269993 18.6134779,47.9678742 19.2080217,47.5809979 C19.8025655,47.1941217 20.4492864,47 21.1495574,47 C21.9377055,47 22.5734417,47.2241969 23.0595122,47.6712235 C23.5455827,48.1209843 23.8298103,48.7279563 23.9163144,49.5044429 L22.4841915,49.6507177 C22.4045528,49.2009569 22.2521409,48.8755981 22.0269557,48.671907 C21.8003975,48.469583 21.5010659,48.3697881 21.126215,48.3697881 C20.7129178,48.3697881 20.3298284,48.5037594 19.9714544,48.771702 C19.6130804,49.0396446 19.3288528,49.456596 19.1160253,50.0266576 C18.9018248,50.595352 18.7947245,51.1626794 18.7947245,51.7300068 C18.7947245,52.3492823 18.9334056,52.8291183 19.2121409,53.1667806 C19.4895032,53.5030759 19.8368925,53.6712235 20.2515628,53.6712235 C20.6373984,53.6712235 20.988907,53.5372522 21.3102078,53.2693096 C21.6315086,53.0068353 21.8704246,52.6103896 22.0269557,52.088175 L22.0269557,52.088175 Z M24.1030533,54.8578264 L25.6285456,47.1421736 L31.0165131,47.1421736 L30.7624932,48.4340396 L26.8684372,48.4340396 L26.5114363,50.1797676 L30.2860343,50.1797676 L30.0320145,51.4716336 L26.2450587,51.4716336 L25.8152846,53.5632262 L30.0429991,53.5632262 L29.7889792,54.8550923 L24.1030533,54.8550923 L24.1030533,54.8578264 Z M32.4101897,54.8578264 L30.9135321,54.8578264 L32.4390244,47.1421736 L35.6671364,47.1421736 C36.223234,47.1421736 36.6543812,47.202324 36.9646974,47.3239918 C37.2736405,47.4470267 37.5235411,47.6671224 37.7157724,47.9897471 C37.9052575,48.3137389 38,48.7019822 38,49.1626794 C38,49.8188653 37.8160072,50.3602187 37.4452755,50.7867396 C37.0759169,51.2146275 36.5157001,51.4784689 35.7646251,51.5782638 C35.9554833,51.7614491 36.1367299,52.0020506 36.3056188,52.3000684 C36.6392773,52.9029392 37.0127552,53.7559809 37.4205601,54.8578264 L35.8154291,54.8578264 C35.6863595,54.4231032 35.4309666,53.7450444 35.0533695,52.8250171 C34.8474074,52.3274094 34.6304607,51.9911141 34.3984101,51.8202324 C34.2542367,51.7190704 34.0070822,51.6671224 33.6514544,51.6671224 L33.0390605,51.6671224 L32.4101897,54.8578264 Z M33.2669919,50.5146958 L34.0620054,50.5146958 C34.8666305,50.5146958 35.3980126,50.4654819 35.6630172,50.3615858 C35.9280217,50.2604238 36.1312376,50.1004785 36.2822764,49.8803828 C36.4319422,49.6616541 36.5047154,49.4333561 36.5047154,49.1954887 C36.5047154,48.9138756 36.3962421,48.7019822 36.1820416,48.5625427 C36.0488528,48.4777854 35.7646251,48.4367738 35.3224932,48.4367738 L33.6747967,48.4367738 L33.2669919,50.5146958 Z" id="Fill-371" fill="#2E3B4F"></path>
                <path d="M42.7251517,52.088175 L44.2309844,52.3301435 C43.938069,53.1941217 43.495258,53.8530417 42.9053016,54.3110048 C42.3180956,54.7689679 41.6277504,54.9986329 40.8370163,54.9986329 C39.9472686,54.9986329 39.2514226,54.7156528 38.7522288,54.1455913 C38.2516597,53.5741627 38,52.7498291 38,51.6671224 C38,50.7894737 38.1677731,49.9856459 38.5046946,49.2556391 C38.8388657,48.5269993 39.3064302,47.9678742 39.9018873,47.5809979 C40.4973445,47.1941217 41.1450588,47 41.8477807,47 C42.6357644,47 43.2724772,47.2241969 43.7592944,47.6725906 C44.2461115,48.1209843 44.5307758,48.7279563 44.6187879,49.5044429 L43.1830899,49.6507177 C43.1033289,49.202324 42.9506829,48.8755981 42.7251517,48.671907 C42.4996206,48.469583 42.1998293,48.3697881 41.8230273,48.3697881 C41.4104704,48.3697881 41.0254173,48.5037594 40.6664928,48.771702 C40.3089435,49.0396446 40.0242792,49.456596 39.8111248,50.0266576 C39.59522,50.595352 39.4893304,51.1640465 39.4893304,51.7300068 C39.4893304,52.3492823 39.6282246,52.8291183 39.9060129,53.1667806 C40.1838012,53.5030759 40.5344746,53.6712235 40.9470315,53.6712235 C41.334835,53.6712235 41.6868835,53.5372522 42.0073027,53.2693096 C42.3277219,53.0068353 42.5670049,52.6103896 42.7251517,52.088175 L42.7251517,52.088175 Z M45.272003,51.8311688 C45.272003,51.3745728 45.3380121,50.8933698 45.4659048,50.3875598 C45.6350531,49.709501 45.8935888,49.1216678 46.2401366,48.6226931 C46.5853092,48.1237184 47.0239947,47.7300068 47.5506923,47.4388243 C48.0787652,47.1490089 48.6755975,47.0041012 49.3494404,47.0041012 C50.2515649,47.0041012 50.9804154,47.3007519 51.535992,47.8940533 C52.0901935,48.4887218 52.3679818,49.2747779 52.3679818,50.2563226 C52.3679818,51.0710868 52.1905823,51.8585099 51.8275322,52.621326 C51.4672325,53.3841422 50.9735395,53.9719754 50.3560793,54.3848257 C49.7372439,54.7949419 49.034522,55 48.2520391,55 C47.5713202,55 47.0019917,54.8359535 46.5413031,54.5105947 C46.0806146,54.1838688 45.7546946,53.7792208 45.5621681,53.2952837 C45.3696415,52.8099795 45.272003,52.3219412 45.272003,51.8311688 L45.272003,51.8311688 Z M46.7585831,51.8010936 C46.7585831,52.3328776 46.9112291,52.7771702 47.2151461,53.1367054 C47.519063,53.4948735 47.9219936,53.6739576 48.4198122,53.6739576 C48.824118,53.6739576 49.2105463,53.531784 49.5845979,53.2501709 C49.9586495,52.9671907 50.2653168,52.5379357 50.5101005,51.962406 C50.7535091,51.3855092 50.875901,50.8263841 50.875901,50.2822967 C50.875901,49.6725906 50.7205046,49.1954887 50.4152124,48.8496241 C50.1057948,48.5037594 49.7152409,48.3315106 49.2366749,48.3315106 C48.5036988,48.3315106 47.9082417,48.6937799 47.4503035,49.4183185 C46.9868646,50.138756 46.7585831,50.9343814 46.7585831,51.8010936 L46.7585831,51.8010936 Z M54.2533668,54.8578264 L52.7557853,54.8578264 L54.283621,47.1421736 L57.516692,47.1421736 C58.0736438,47.1421736 58.5068285,47.203691 58.8176214,47.3239918 C59.1256639,47.4470267 59.3759484,47.6671224 59.5670998,47.9897471 C59.7555008,48.3137389 59.851764,48.7019822 59.851764,49.1626794 C59.851764,49.8202324 59.6674886,50.3602187 59.2948122,50.7881066 C58.9262614,51.2146275 58.365184,51.4784689 57.6102049,51.5782638 C57.8027314,51.7614491 57.9828813,52.0020506 58.1520296,52.3000684 C58.4862007,52.9029392 58.8602523,53.7559809 59.271434,54.8578264 L57.6624621,54.8578264 C57.5345694,54.4231032 57.2801593,53.7450444 56.9019822,52.8250171 C56.6957037,52.3274094 56.4784237,51.9911141 56.2460167,51.8202324 C56.102997,51.7190704 55.8540876,51.6671224 55.4979135,51.6671224 L54.8859541,51.6671224 L54.2533668,54.8578264 Z M55.1114852,50.5146958 L55.9063448,50.5146958 C56.7135812,50.5146958 57.24853,50.4654819 57.5111912,50.3615858 C57.7766028,50.2604238 57.9801309,50.1004785 58.1300266,49.8803828 C58.2799222,49.6616541 58.3541825,49.4333561 58.3541825,49.1954887 C58.3541825,48.9138756 58.2482929,48.7019822 58.0323881,48.5625427 C57.9003699,48.4777854 57.6129552,48.4367738 57.1715193,48.4367738 L55.5226669,48.4367738 L55.1114852,50.5146958 Z M60.07592,54.8578264 L61.6037557,47.1421736 L67,47.1421736 L66.7455899,48.4340396 L62.8441768,48.4340396 L62.4852523,50.1797676 L66.2670239,50.1797676 L66.0126138,51.4730007 L62.2212159,51.4730007 L61.7907815,53.5632262 L66.0236153,53.5632262 L65.7692052,54.8564593 L60.07592,54.8564593 L60.07592,54.8578264 Z" id="Fill-373" fill="#FF7D21"></path>
                <path d="M16.024478,10.7084031 C16.299496,11.1864747 16.2548596,11.7877469 16.3858891,12.31001 C16.4449244,12.5684633 16.5212383,12.8121861 16.5802736,13.0706394 C16.5903528,13.1175092 16.7098632,13.3545363 16.7343413,13.4549715 L16.8984881,14 C17.0395968,12.9367258 17.7077034,12.7063944 18,11.8346167 C17.4946004,11.0954135 16.825054,10.3080013 16,10 L16.024478,10.7084031 Z" id="Fill-375" fill="#69402E"></path>
                <path d="M36,42.2533411 C36.8352273,42.8553167 38.3792614,43.2632191 38.9545455,43.5793144 C39.2286932,43.7303893 39.09375,43.6478791 39.2713068,43.8012783 L40,44 C39.5241477,43.1133062 38.7315341,42.2940151 38.3707386,42 L36,42.2533411 Z" id="Fill-377" fill="#69402E"></path>
                <path d="M51,13.3069219 C51.092233,13.562592 51.323301,14.1163476 51.4116505,15 C51.7446602,13.7852725 51.8621359,12.0332842 52,11.1060383 L52,11 C51.5796117,11.817673 51.0339806,13.1360825 51,13.3069219" id="Fill-379" fill="#69402E"></path>
                <path d="M16,13.6179613 C17.9816967,20.8500281 21.350717,28.2336734 25.7575098,33.4993172 C27.5719116,35.6664792 29.2734232,38.0808097 31.5217036,39.8246445 C32.3092138,40.4364206 34.3385147,41.6968431 35.2769984,42 C36.0345859,41.8866576 38.0611666,41.6790907 38.6541795,41.3376978 C38.0693273,40.6794923 37.4083084,40.3708732 36.9757898,39.7905053 C37.20157,39.6047875 37.2097307,39.5924974 37.5171181,39.3412322 L38.1726965,38.7868102 C46.8611511,33.6263154 50.7674193,26.584063 51,15.2238734 C50.8721486,13.5728974 47.9383671,9.25632581 46.6870555,8.6281629 C45.705048,16.3887059 41.3281778,30.8746887 34.2351455,34.2380914 C32.8246998,33.4952205 30.5995414,31.0781589 29.4570396,29.4654189 C26.1927486,24.875733 23.0372673,17.5917744 21.339836,12.0106836 C21.1290172,11.3156077 20.2326973,8.41513375 20.0817239,8 C18.4890219,9.59089083 16.7603078,11.2486947 16,13.6179613" id="Fill-381" fill="#211F1F"></path>
                <path d="M38.3106145,45.0822109 C35.0059301,44.5052748 31.7850455,41.8873041 29.352149,39.8027537 C22.5697743,33.9912799 15.637371,20.1083147 15.4224651,10.7439809 L15.3981362,10 C15.2386463,10.0758018 14.8574925,10.540439 14.4858,11.1651022 C14.1546558,11.7223861 13.8545985,12.2923036 13.7964793,12.4116213 C13.2774614,13.4798656 12.8287272,14.3417605 12.442167,15.4493095 C11.6906723,17.6124692 11.1554351,20.0437428 11,22.8105096 L11,24.5679892 C11.2216639,28.731475 12.943614,33.2866036 15.1183531,36.4871254 C20.8491759,44.9179736 29.5994935,47.345036 39,45.33348 C39.0066932,45.327865 38.4836204,45.1467829 38.3106145,45.0822109" id="Fill-383" fill="#FF7D21"></path>
                <path d="M52.2432233,10.4910673 C51.9527292,15.0577158 50.6644508,24.00929 48.6773026,27.9683467 C47.9980796,29.2931187 47.0929168,30.5859851 46.1667036,31.7040649 C45.0791048,33.0135777 44.0041362,33.9887763 42.7214713,35.0804994 C41.1623458,36.4094329 38.8875102,38.2682753 38.2321442,38.4416747 C37.8041214,38.8980621 37.3985523,39.1324982 37,39.4584892 C37.798508,40.3726512 40.2445528,42.2606247 41.361622,43 C42.9319743,42.6379419 46.220031,40.5460507 47.5461999,39.520913 L49.3017948,38.0060953 C53.5385184,33.8458952 55.8722949,28.473286 56,22.8079785 L56,21.8216823 C55.9494793,19.5147757 55.5340867,17.1662533 54.7341753,14.8427004 C54.1770441,13.2210686 53.445897,11.2207323 52.2544501,10 L52.2432233,10.4910673 Z" id="Fill-385" fill="#FF7D21"></path>
                <path d="M40,45 C40.0259889,45.0234544 36.5089477,43.1819476 34.3027161,41.6886833 C33.2174813,40.953195 32.0497191,39.9223969 31.0786471,39.0267169 C29.4913708,37.5613121 28.0705246,35.9273578 26.6923177,34.2655441 C22.2372154,28.8928574 18.8288353,21.3624594 16.8247958,13.9852883 C16.4644263,12.6856469 16.2622342,11.3261078 16.0008976,10 C15.9073666,19.4471252 23.1395146,33.8420811 30.1983552,39.5309722 C31.5834395,40.6899236 33.2326113,42.0564275 35.1004806,43.1443374 C36.5887241,44.009372 38.298416,44.7337166 40,45" id="Fill-387" fill="#945733"></path>
                <path d="M37,40 C37.5229783,39.8620868 40.2234229,37.598126 41.7164639,36.4565872 C50.154491,30.0019776 51.7510237,22.0917695 51.9994039,11.1338167 C52.0035435,10.9481119 51.9842251,11.177512 51.9994039,11 C51.697208,12.7846784 51.3122187,14.5434128 51.0555591,16.3308221 C49.3845124,27.9401074 45.8561338,32.8012054 37,40" id="Fill-389" fill="#945933"></path>
                <path d="M34.9970018,35 C42.7619689,31.4941708 49.1475586,9.86933936 47.8257724,4.42322944 C46.2118167,2.65643588 38.3176209,0.194305655 36.0153812,0.134626061 C35.3790697,0.0638432865 34.7525908,0.020818463 34.1373492,0 L32.8211817,0 C28.0467383,0.142953446 23.8720853,1.84312792 20.0205043,4.39269569 C19.5120169,11.2142121 28.5706769,31.667658 34.9970018,35" id="Fill-391" fill="#FF7D21"></path>
            </g>
        </g>
    </g>
</svg>