<?xml version="1.0" encoding="UTF-8"?>
<svg width="152px" height="64px" viewBox="0 0 152 64" version="1.1" xmlns="http://www.w3.org/2000/svg" xmlns:xlink="http://www.w3.org/1999/xlink">
    <!-- Generator: sketchtool 60.1 (101010) - https://sketch.com -->
    <title>AC80A60D-1BB2-47F6-9E9A-E3374A35BA96</title>
    <desc>Created with sketchtool.</desc>
    <defs>
        <polygon id="path-1" points="0 0.907738095 60.7061833 0.907738095 60.7061833 60.9996369 0 60.9996369"></polygon>
        <polygon id="path-3" points="0.251394 0.07393 55.965624 0.07393 55.965624 22.3780845 0.251394 22.3780845"></polygon>
        <polygon id="path-5" points="0 0.503284683 30.6576007 0.503284683 30.6576007 41.4695882 0 41.4695882"></polygon>
        <polygon id="path-7" points="0.780208 0.552842171 2.210208 0.552842171 2.210208 1.43 0.780208 1.43"></polygon>
        <polygon id="path-9" points="0.081081 0.560985973 1.511081 0.560985973 1.511081 1.43 0.081081 1.43"></polygon>
    </defs>
    <g id="Page-1" stroke="none" stroke-width="1" fill="none" fill-rule="evenodd">
        <g id="LP-DE-PATROCÃNIO" transform="translate(-1000.000000, -4032.000000)">
            <g id="Group-42" transform="translate(1000.000000, 4032.000000)">
                <g id="Group-10" transform="translate(91.000000, 2.000000)">
                    <polygon id="Fill-1" fill="#FEFEFE" points="3 39 59 39 59 23 3 23"></polygon>
                    <g id="Group-9">
                        <g id="Group-4">
                            <mask id="mask-2" fill="white">
                                <use xlink:href="#path-1"></use>
                            </mask>
                            <g id="Clip-3"></g>
                            <path d="M44.4830881,60.9996369 C39.7091119,60.9996369 34.9336833,61.0007262 30.1582548,60.9978214 C26.1569452,60.996369 22.2907071,60.2876071 18.5885881,58.7509881 C15.5966833,57.5092024 12.8894452,55.8012024 10.4625167,53.6574881 C7.85985,51.358369 5.58251667,48.7876548 3.83385,45.7710595 C2.01256429,42.6295595 0.86082619,39.2600357 0.35685,35.6682976 C0.123016667,34.0053214 -0.03965,32.3307262 0.00827857143,30.648869 C0.12882619,26.39775 0.926183333,22.2976786 2.79249286,18.4387024 C4.12287381,15.6849881 5.8395881,13.2086786 7.92085,10.9691071 C10.75735,7.91910714 13.9990643,5.42682143 17.77235,3.64329762 C20.6756595,2.26934524 23.731469,1.44439286 26.9238024,1.0900119 C28.435731,0.922988095 29.9491119,0.875059524 31.4639452,0.927345238 C35.2343262,1.05370238 38.859469,1.84234524 42.3161357,3.37315476 C45.4895881,4.77905952 48.3013976,6.71217857 50.8590405,9.04905952 C54.3738024,12.2602738 57.1028262,16.0103214 58.8195405,20.4676786 C59.7171119,22.7972976 60.2791833,25.2067976 60.53335,27.6932738 C60.6713262,29.0280119 60.7061833,30.3612976 60.7061833,31.7003929 C60.7018262,41.1742738 60.704731,50.6510595 60.704731,60.1249405 C60.704731,60.2890595 60.697469,60.4531786 60.7018262,60.6158452 C60.7061833,60.8758214 60.5856357,61.0007262 60.3242071,60.996369 C60.1760643,60.9934643 60.0279214,60.9996369 59.8783262,60.9996369 L44.4830881,60.9996369 Z M21.9523024,31.6103452 C21.9523024,32.1448214 21.95085,32.68075 21.9523024,33.2166786 C21.9523024,33.2457262 21.9537548,33.2747738 21.9537548,33.3052738 C21.95085,33.6001071 22.084469,33.7017738 22.3763976,33.6436786 C23.0851595,33.5027976 23.5571833,32.9596071 23.56735,32.2363214 C23.5760643,31.6568214 23.5600881,31.0773214 23.5746119,30.4992738 C23.6007548,29.4274167 24.3022548,28.6837976 25.263731,28.6837976 C26.2368262,28.6837976 26.92235,29.4143452 26.9484929,30.496369 C26.9601119,31.0613452 26.9441357,31.6263214 26.9543024,32.1912976 C26.9688262,32.9262024 27.3624214,33.4214643 28.069731,33.6189881 C28.519969,33.7438929 28.641969,33.6625595 28.6448738,33.1948929 C28.6521357,32.2581071 28.649231,31.3213214 28.649231,30.3845357 C28.649231,30.160869 28.6623024,29.9430119 28.75235,29.7295119 C29.068969,28.9887976 29.8125881,28.5690595 30.5867071,28.704131 C31.3128976,28.8319405 31.9141833,29.5290833 31.9446833,30.3235357 C31.9708262,30.9466071 31.9446833,31.571131 31.9592071,32.1971071 C31.9722786,32.9349167 32.4108976,33.4650357 33.1240167,33.6335119 C33.5277786,33.729369 33.6425167,33.6494881 33.6454214,33.22975 C33.6526833,32.2769881 33.6613976,31.3256786 33.6410643,30.3758214 C33.6308976,29.8979881 33.529231,29.4303214 33.3186357,28.9946071 C32.3469929,26.9903214 29.8953738,26.4543929 28.1089452,27.8791786 C27.818469,28.1101071 27.673231,28.0723452 27.4074452,27.8544881 C26.3457548,26.9859643 25.141731,26.7986071 23.8999452,27.3708452 C22.65235,27.9430833 21.95085,28.940869 21.95085,30.3612976 C21.95085,30.7766786 21.95085,31.1935119 21.9523024,31.6103452 L21.9523024,31.6103452 Z M20.3517786,31.2487024 C20.3517786,30.0141786 20.3546833,28.7796548 20.3488738,27.5436786 C20.3488738,27.1050595 20.223969,27.0208214 19.8013262,27.12975 C19.1245167,27.3069405 18.668469,27.903869 18.6597548,28.6532976 C18.6510405,29.6351071 18.6481357,30.6169167 18.6597548,31.6001786 C18.6655643,31.937131 18.546469,32.0925357 18.1935405,32.0780119 C17.7781595,32.0605833 17.3598738,32.0852738 16.9444929,32.0692976 C16.0178738,32.0329881 15.3643024,31.3561786 15.351231,30.4281071 C15.3454214,29.8355357 15.3643024,29.2386071 15.3454214,28.6445833 C15.3178262,27.8777262 14.8617786,27.293869 14.1907786,27.1268452 C13.7855643,27.0251786 13.6621119,27.1036071 13.6577548,27.5131786 C13.6519452,28.5254881 13.6345167,29.5377976 13.6635643,30.5486548 C13.7027786,32.0329881 14.8109452,33.309631 16.2647786,33.607369 C16.9139929,33.7409881 17.5690167,33.6654643 18.2211357,33.6799881 C18.5130643,33.6843452 18.645231,33.7831071 18.6626595,34.0939167 C18.7265643,35.2325833 18.3663738,35.650869 17.2102786,35.7452738 C16.4521357,35.8062738 15.9713976,36.1664643 15.7796833,36.8156786 C15.6605881,37.2267024 15.7317548,37.3370833 16.1514929,37.3457976 C16.6583738,37.3545119 17.1667071,37.3094881 17.6677786,37.3559643 C19.0126833,37.480869 20.4171357,36.1287024 20.3619452,34.6835833 C20.3169214,33.5391071 20.3517786,32.3931786 20.3517786,31.2487024 L20.3517786,31.2487024 Z M35.1718738,33.5144167 C35.1718738,34.6429167 35.176231,35.772869 35.1689272,36.9028214 C35.1660643,37.2702738 35.3142071,37.3748452 35.6656833,37.2877024 C36.2045167,37.1540833 36.548731,36.8432738 36.7055881,36.3029881 C36.907469,35.6029405 36.8697071,34.888369 36.8580881,34.1767024 C36.8522786,33.8165119 36.9815405,33.6741786 37.3518976,33.675631 C37.9589929,33.6785357 38.57335,33.7511548 39.1746357,33.6320595 C40.933469,33.2892976 42.0706833,31.7091071 41.8542786,29.9342976 C41.642231,28.2146786 40.0605881,26.965631 38.23785,27.080369 C36.5734214,27.1849405 35.1805881,28.68525 35.1733262,30.39325 C35.1675167,31.4317024 35.1718738,32.4730595 35.1718738,33.5144167 L35.1718738,33.5144167 Z M54.1762786,33.5115119 L54.1762786,33.5260357 C54.726731,33.5260357 55.2786357,33.4882738 55.8232786,33.5376548 C56.2154214,33.5725119 56.3287071,33.4447024 56.32435,33.0816071 C56.3141833,32.1753214 56.3272548,31.2690357 56.3199929,30.36275 C56.3141833,29.5682976 56.0818024,28.849369 55.5952548,28.208869 C54.627969,26.935131 52.8197548,26.5575119 51.3441357,27.331631 C49.9396833,28.0694405 49.2585167,29.7425833 49.7523262,31.24725 C50.1967548,32.6023214 51.4225643,33.5013452 52.8400881,33.5100595 C53.285969,33.5144167 53.73185,33.5115119 54.1762786,33.5115119 L54.1762786,33.5115119 Z M5.7480881,33.6799881 L5.7480881,33.6814405 C5.97175476,33.6814405 6.19396905,33.6828929 6.41763571,33.6814405 C7.93392143,33.668369 9.06096905,32.5616548 9.10018333,31.045369 C9.10889762,30.6750119 9.1030881,30.3032024 9.10454048,29.9328452 C9.10744524,29.550869 9.27592143,29.245869 9.55187381,28.9960595 C9.84670714,28.727369 10.2039929,28.6808929 10.5874214,28.6765357 C11.27585,28.6678214 11.8335643,28.2538929 12.0063976,27.6627738 C12.1283976,27.2372262 12.019469,27.0832738 11.5779452,27.0774643 C11.073969,27.0702024 10.5685405,27.0702024 10.0616595,27.0760119 C8.82277857,27.0890833 7.81192143,27.8966071 7.49965952,29.0962738 C7.38056429,29.550869 7.41251667,30.0112738 7.41106429,30.4702262 C7.40670714,31.6393929 7.04651667,32.0228214 5.89187381,32.0751071 C5.20344524,32.1085119 4.67332619,32.5355119 4.50339762,33.1919881 C4.42351667,33.5027976 4.49904048,33.6887024 4.85777857,33.6814405 C5.15406429,33.675631 5.45035,33.6799881 5.7480881,33.6799881 L5.7480881,33.6799881 Z M45.1628024,28.8319405 L45.1598976,28.8319405 C45.1598976,28.2669643 45.1744214,27.7005357 45.1555405,27.1370119 C45.1323024,26.3614405 44.7750167,25.8531071 44.1258024,25.623631 C43.6348976,25.45225 43.4693262,25.5640833 43.4678738,26.0898452 C43.464969,27.5175357 43.4620643,28.9437738 43.4678738,30.3714643 C43.4751357,32.021369 44.58185,33.3662738 46.2012548,33.6349643 C46.9637548,33.7642262 47.7451357,33.6727262 48.5178024,33.6727262 C48.7806833,33.6741786 48.8460405,33.5115119 48.79085,33.2805833 C48.6543262,32.7039881 48.3435167,32.2871548 47.7378738,32.1332024 C47.429969,32.0562262 47.1177071,32.0809167 46.8054452,32.0736548 C45.86285,32.0562262 45.1787786,31.3794167 45.1642548,30.4382738 C45.1555405,29.9023452 45.1628024,29.3664167 45.1628024,28.8319405 L45.1628024,28.8319405 Z M49.1815405,27.7455595 C49.1902548,27.1878452 48.7559929,26.73325 48.2142548,26.7288929 C47.7088262,26.7230833 47.2382548,27.1834881 47.2324452,27.690369 C47.2251833,28.216131 47.6899452,28.6750833 48.2345881,28.6780026 C48.7371119,28.6808929 49.1742786,28.2480833 49.1815405,27.7455595 L49.1815405,27.7455595 Z M50.4044452,26.4558492 C50.9403738,26.4558492 51.394969,26.0288452 51.3993262,25.5219643 C51.4051357,24.9976548 50.9345643,24.5619405 50.3739452,24.5706548 C49.8307548,24.5779167 49.4589452,24.9555357 49.4516833,25.501631 C49.4473262,26.0578929 49.846731,26.4572976 50.4044452,26.4558492 L50.4044452,26.4558492 Z" id="Fill-2" fill="#6194CC" mask="url(#mask-2)"></path>
                        </g>
                        <path d="M37.9674167,32.0742357 C36.7096548,32.0611643 36.8766786,32.2267357 36.8636071,30.9529976 C36.8607024,30.7162595 36.8548929,30.478069 36.8694167,30.241331 C36.9275119,29.3277833 37.6856548,28.648069 38.5962976,28.6843786 C39.5156548,28.7235929 40.1706786,29.42945 40.1706786,30.3836643 C40.1692262,31.3306167 39.5025833,32.0466405 38.5904881,32.0727833 C38.3813452,32.0785929 38.1751071,32.0742357 37.9674167,32.0742357" id="Fill-5" fill="#6194CC"></path>
                        <path d="M53.4431167,31.8995143 C53.24995,31.8995143 53.0567833,31.9038714 52.8636167,31.8995143 C52.0067119,31.8820857 51.3328071,31.2357762 51.2543786,30.3585381 C51.1788548,29.5277762 51.7990214,28.7289667 52.651569,28.5561333 C53.4460214,28.3934667 54.2825929,28.8988952 54.5222357,29.7049667 C54.7081405,30.3294905 54.6079262,30.9728952 54.6122833,31.6090381 C54.6151881,31.8123714 54.4772119,31.8937048 54.2884024,31.8951571 C54.0080929,31.8995143 53.7248786,31.8951571 53.4431167,31.8951571 L53.4431167,31.8995143 Z" id="Fill-7" fill="#6194CC"></path>
                    </g>
                </g>
                <g id="Group-65">
                    <g id="Group-3" transform="translate(2.860000, 0.355927)">
                        <mask id="mask-4" fill="white">
                            <use xlink:href="#path-3"></use>
                        </mask>
                        <g id="Clip-2"></g>
                        <path d="M0.251394,21.488895 C0.723294,19.867275 1.248104,18.262815 1.993134,16.741295 C6.303154,7.945365 13.202904,2.376945 22.856834,0.603745 C32.426394,-1.153725 40.843374,1.486055 47.940464,8.138415 C51.981644,11.929345 54.582814,16.598295 55.905564,21.977955 C55.938454,22.106655 55.945604,22.243935 55.965624,22.375495 C55.751124,22.402665 55.756844,22.209615 55.699644,22.096645 C55.349294,21.408815 55.018964,20.713835 54.588534,20.070335 C54.046564,19.095075 53.563224,18.088355 52.979784,17.135975 C50.324274,12.805935 46.817914,9.348195 42.394924,6.835685 C39.201734,5.018155 35.772594,3.882735 32.136104,3.366505 C30.401514,3.120545 28.654054,3.026165 26.909454,3.117685 C23.400234,3.303585 20.016854,4.067205 16.785054,5.464315 C13.879294,6.718425 11.248094,8.401535 8.910044,10.523655 C7.051044,12.212485 5.410834,14.098655 4.026594,16.200755 C3.932214,16.346615 3.840694,16.495335 3.710564,16.618315 C3.004144,17.346185 2.469324,18.201325 1.903044,19.032155 C1.412554,19.757165 0.993564,20.523645 0.567424,21.285835 C0.503074,21.398805 0.463034,21.587565 0.251394,21.488895" id="Fill-1" fill="#C23840" mask="url(#mask-4)"></path>
                    </g>
                    <g id="Group-6" transform="translate(0.000000, 22.235927)">
                        <mask id="mask-6" fill="white">
                            <use xlink:href="#path-5"></use>
                        </mask>
                        <g id="Clip-5"></g>
                        <path d="M30.6449,41.361749 C29.46658,41.511899 28.28254,41.480439 27.10565,41.416089 C23.16886,41.194439 19.40224,40.259219 15.90446,38.433109 C7.53038,34.054449 2.30945,27.251939 0.51623,17.941209 C-0.63635,11.958089 0.16016,6.180889 2.71128,0.645359 C2.73273,0.595309 2.76133,0.550979 2.7885,0.503789 C2.88288,0.496639 2.91005,0.566709 2.93436,0.638209 C2.96296,1.127269 2.79422,1.587729 2.717,2.061059 C2.44816,3.691259 2.27942,5.325749 2.32375,6.977399 C2.23795,8.158579 2.24081,9.341189 2.23795,10.525229 C2.2308,14.320449 3.0459,17.944069 4.52452,21.426119 C5.72429,24.243219 7.33876,26.807209 9.36078,29.110939 C9.55669,29.332589 9.74688,29.562819 9.90561,29.810209 C9.98426,29.956069 10.09008,30.081909 10.19304,30.207749 C11.91047,32.421389 13.92248,34.327579 16.19332,35.963499 C18.44557,37.586549 20.88944,38.843519 23.51206,39.744419 C25.49976,40.427959 27.5418,40.889849 29.63818,41.108639 C29.96565,41.145819 30.31028,41.114359 30.62774,41.250209 C30.66063,41.281669 30.66635,41.320279 30.6449,41.361749" id="Fill-4" fill="#458A57" mask="url(#mask-6)"></path>
                    </g>
                    <path d="M59.053995,23.439558 C59.247045,23.608298 59.287085,23.857118 59.375745,24.075908 C60.975915,28.021278 61.690915,32.126808 61.452105,36.372478 C61.054565,43.432388 58.414785,49.559938 53.551355,54.697928 C49.483005,58.996508 44.520905,61.746398 38.733695,62.990498 C36.437115,63.480988 34.111935,63.691198 31.762445,63.579658 C31.740995,63.536758 31.748145,63.502438 31.788185,63.472408 C32.787755,63.270778 33.803055,63.159238 34.798335,62.936158 C38.104495,62.193988 41.206165,60.958468 44.064735,59.116628 C45.843655,57.971198 47.492445,56.668468 48.975355,55.155528 C49.088325,55.041128 49.205585,54.929588 49.291385,54.789448 C49.544495,54.450538 49.894845,54.216018 50.205155,53.938598 C52.883545,51.547638 55.062865,48.774868 56.718805,45.584538 C58.293235,42.554368 59.282795,39.345448 59.721805,35.964928 C59.976345,34.011548 59.969195,32.051018 59.850505,30.087628 C59.766135,28.714828 59.527325,27.364908 59.269925,26.017848 C59.251335,25.923468 59.249905,25.831948 59.258485,25.736138 C59.232745,25.149838 59.111195,24.579268 59.005375,24.007268 C58.971055,23.817078 58.890975,23.615448 59.053995,23.439558" id="Fill-7" fill="#4F70AB"></path>
                    <path d="M49.364887,54.825341 C49.035987,55.360161 48.546927,55.746261 48.095047,56.158101 C47.074027,57.089031 45.991517,57.945601 44.847517,58.724951 C43.028557,59.961901 41.100917,60.980061 39.051727,61.770851 C37.028277,62.551631 34.941907,63.076441 32.804057,63.411061 C32.462287,63.465401 32.113367,63.483991 31.767307,63.516881 C31.614297,63.601251 31.438407,63.505441 31.283967,63.576941 C31.199597,63.579801 31.115227,63.579801 31.030857,63.579801 C30.900727,63.512591 30.752007,63.588381 30.620447,63.526891 C25.216477,63.132211 20.333027,61.307531 15.945787,58.145801 C13.826527,56.619991 11.956087,54.829631 10.327317,52.786161 C10.244377,52.683201 10.174307,52.567371 10.097087,52.458691 C10.128547,52.425801 10.168587,52.411501 10.214347,52.414361 C10.478897,52.478711 10.637627,52.691781 10.816377,52.870531 C12.979967,55.046991 15.448147,56.803031 18.185167,58.172971 C21.148127,59.655881 24.275537,60.601111 27.567397,60.994361 C28.688517,61.128781 29.812497,61.226021 30.942197,61.223161 C33.769307,61.220301 36.539217,60.822761 39.254787,60.026251 C42.798327,58.988071 46.001527,57.296381 48.910147,55.036981 C49.045997,54.932591 49.160397,54.778151 49.364887,54.825341" id="Fill-9" fill="#38A6D6"></path>
                    <path d="M2.218216,29.321148 C2.136706,27.249078 2.395536,25.208468 2.811666,23.182158 C2.834546,23.066328 2.851706,22.946208 2.868866,22.827518 C2.901756,22.714548 2.873156,22.591568 2.926066,22.481458 C2.986126,22.269818 3.050476,22.056748 3.111966,21.845108 C3.307876,21.832238 3.316456,21.649198 3.379376,21.529078 C4.217356,19.963228 5.194046,18.487468 6.296576,17.094648 C6.362356,17.010278 6.422416,16.918758 6.535386,16.888728 C6.606886,17.131828 6.429566,17.294848 6.323746,17.470738 C4.803656,20.006128 3.698266,22.707398 3.006146,25.580268 C2.740166,26.679938 2.544256,27.789618 2.402686,28.912168 C2.382666,29.065178 2.418416,29.246788 2.218216,29.321148" id="Fill-11" fill="#D68F40"></path>
                    <path d="M59.053995,23.439558 C59.145515,24.070188 59.239895,24.699388 59.328555,25.331448 C59.351435,25.488748 59.355725,25.647478 59.368595,25.806208 C59.171255,25.784758 59.161245,25.611728 59.128355,25.480168 C58.717945,23.874278 58.193135,22.308428 57.532475,20.786908 C57.475275,20.655348 57.409495,20.510918 57.513885,20.365058 C58.002945,21.072908 58.370455,21.845108 58.732245,22.621598 C58.755125,22.670218 58.760845,22.721698 58.825195,22.730278 C58.908135,22.964798 59.029685,23.186448 59.053995,23.439558" id="Fill-13" fill="#B880AB"></path>
                    <g id="Group-17" transform="translate(30.030000, 62.275927)">
                        <mask id="mask-8" fill="white">
                            <use xlink:href="#path-7"></use>
                        </mask>
                        <g id="Clip-16"></g>
                        <path d="M1.254253,1.3013 C1.402973,1.18404 1.574573,1.25268 1.736163,1.24124 C1.733303,1.26269 1.733303,1.28128 1.733303,1.30416 C1.573143,1.30273 1.414413,1.30273 1.254253,1.3013" id="Fill-15" fill="#4080BD" mask="url(#mask-8)"></path>
                    </g>
                    <path d="M2.925208,22.48203 C2.940938,22.60358 2.962388,22.72513 2.868008,22.82666 C2.840838,22.79949 2.815098,22.76803 2.786498,22.74086 C2.810808,22.64076 2.839408,22.54638 2.925208,22.48203" id="Fill-18" fill="#45965C"></path>
                    <g id="Group-22" transform="translate(30.030000, 62.275927)">
                        <mask id="mask-10" fill="white">
                            <use xlink:href="#path-9"></use>
                        </mask>
                        <g id="Clip-21"></g>
                        <path d="M0.590876,1.250964 C0.732446,1.240954 0.876876,1.186614 1.001286,1.302444 C0.871156,1.309594 0.743886,1.316744 0.615186,1.322464 C0.600886,1.299584 0.592306,1.278134 0.590876,1.250964" id="Fill-20" fill="#389C7D" mask="url(#mask-10)"></path>
                    </g>
                    <path d="M57.512598,20.36563 C57.665608,20.93477 57.948748,21.45386 58.154668,22.00441 C58.575088,23.14412 58.949748,24.29956 59.232888,25.4836 C59.258628,25.59371 59.262918,25.72527 59.367308,25.80678 C59.484568,26.5275 59.608978,27.24536 59.714798,27.96894 C60.547058,33.61744 59.829198,39.05859 57.478278,44.27237 C55.639298,48.34644 52.963768,51.79274 49.541778,54.66275 C49.481718,54.71423 49.424518,54.77 49.365888,54.82434 C47.960198,55.91257 46.511608,56.9293 44.948618,57.77586 C41.457988,59.67061 37.742848,60.8475 33.781748,61.17783 C25.141688,61.89569 17.632758,59.28308 11.236368,53.44439 C10.880298,53.11978 10.537098,52.78373 10.188178,52.45054 C10.056618,52.36331 9.973678,52.22174 9.842118,52.13308 C8.592298,50.58868 7.323888,49.06287 6.295718,47.34973 C3.324178,42.40765 1.938508,37.05516 2.122978,31.29083 C2.144428,30.63446 2.185898,29.97952 2.217358,29.32029 C2.341768,28.55667 2.453308,27.78876 2.592018,27.02657 C3.238378,23.49018 4.529668,20.20118 6.407258,17.13955 C6.454448,17.05947 6.493058,16.97367 6.535958,16.88787 C8.745308,13.52165 11.453728,10.64163 14.795638,8.37508 C18.467878,5.88831 22.486178,4.2624 26.886288,3.67753 C35.949628,2.46918 43.903288,4.94594 50.705798,11.05061 C53.449968,13.50878 55.562078,16.46173 57.193708,19.76074 C57.295238,19.96523 57.405348,20.164 57.512598,20.36563" id="Fill-23" fill="#FEFEFE"></path>
                    <path d="M9.84126,52.133223 C10.0243,52.166113 10.11153,52.301963 10.18875,52.452113 C10.15872,52.453543 10.12869,52.456403 10.09723,52.459263 C9.98283,52.373463 9.90418,52.260493 9.84126,52.133223" id="Fill-25" fill="#3BA8D6"></path>
                    <path d="M56.394195,42.719962 C55.865095,44.147102 55.157245,45.489872 54.339285,46.765432 C50.089325,53.402062 44.136235,57.679192 36.398505,59.180692 C27.718405,60.862372 19.934915,58.731672 13.162435,53.027402 C10.456875,50.746552 8.366215,47.965202 6.694545,44.856382 C6.671665,44.814912 6.688825,44.782022 6.728865,44.764862 C6.993415,44.776302 7.072065,45.007962 7.186465,45.173842 C7.844265,46.123362 8.546395,47.039992 9.304295,47.916582 C10.055045,48.781732 10.870145,49.585392 11.708125,50.357592 C13.095225,51.637442 14.622465,52.737112 16.235505,53.715232 C18.177445,54.893552 20.248085,55.781582 22.404525,56.479422 C22.558965,56.529472 22.719125,56.550922 22.874995,56.595252 C24.972805,57.208722 27.104935,57.666322 29.287115,57.812182 C32.997965,58.053852 36.608715,57.539052 40.097915,56.229172 C41.043145,55.873102 41.978365,55.499872 42.884985,55.056572 C43.664335,54.849222 44.323565,54.395912 45.014255,54.011242 C47.684065,52.528332 49.997805,50.589252 52.059865,48.352732 C53.671475,46.605272 55.014245,44.660472 56.135365,42.564092 C56.304105,42.250922 56.299815,42.248062 56.510025,42.238052 C56.530045,42.412512 56.418505,42.555512 56.394195,42.719962" id="Fill-27" fill="#38A6D6"></path>
                    <path d="M45.573814,9.16587 C47.372754,10.16401 48.925734,11.48819 50.375754,12.92105 C52.123214,14.64563 53.610414,16.58328 54.831634,18.7197 C56.325984,21.34375 57.392764,24.12939 57.959044,27.09521 C58.213584,28.42797 58.362304,29.76931 58.428084,31.12781 C58.579664,34.25522 58.176404,37.30684 57.278364,40.30126 C57.166824,40.66734 57.022394,41.0277 56.893694,41.38949 C56.805034,41.4567 56.816474,41.57682 56.752124,41.65547 C56.690634,41.73269 56.637724,41.75271 56.580524,41.65404 C56.539054,41.53392 56.566224,41.41666 56.591964,41.29797 C56.962334,39.58912 57.173974,37.86597 57.256914,36.11422 C57.407064,32.87384 56.949464,29.72212 56.065724,26.61759 C56.051424,26.56611 56.034264,26.51606 56.014244,26.46601 C55.592394,25.20475 55.236324,23.92061 54.725814,22.68938 C53.630434,20.04388 52.156104,17.63719 50.259924,15.4879 C48.481004,13.47446 46.450404,11.77133 44.150964,10.39138 C41.336724,8.70112 38.293684,7.63863 35.063314,7.09666 C34.718684,7.03946 34.376914,6.96081 34.033714,6.89217 C32.996964,6.69483 31.950204,6.58186 30.900584,6.48176 C30.754724,6.46889 30.603144,6.46603 30.480164,6.36736 C30.483024,6.08136 30.714684,6.16716 30.860544,6.15429 C33.200024,5.95123 35.522344,6.12855 37.830364,6.52752 C40.128374,6.92363 42.344874,7.59859 44.466994,8.57385 C44.601414,8.63677 44.724394,8.71971 44.858814,8.77691 C45.106204,8.88988 45.335004,9.03717 45.573814,9.16587" id="Fill-29" fill="#B880A8"></path>
                    <path d="M4.003142,36.456276 C2.876302,28.346746 4.901182,21.112376 10.082072,14.783196 C12.197042,12.200616 14.729572,10.095656 17.663932,8.484046 C17.861272,8.376796 18.045742,8.239516 18.253092,8.145136 C18.383222,8.173736 18.486182,8.096516 18.594862,8.049326 C21.028722,7.044036 23.576982,6.549256 26.185302,6.299006 C27.069042,6.214636 27.954212,6.231796 28.837952,6.153146 C29.118232,6.127406 29.405662,6.14339107 29.651622,6.317596 C29.675932,6.549256 29.485742,6.516366 29.362762,6.532096 C27.901302,6.713706 26.461292,6.991126 25.044162,7.391526 C24.722412,7.480186 24.406382,7.586006 24.088922,7.688966 C18.733572,9.322026 14.344902,12.380796 10.794212,16.682236 C9.711702,17.936346 8.793642,19.310576 7.972822,20.744866 C6.478472,23.353186 5.420272,26.131676 4.803942,29.073186 C4.503642,30.506046 4.309162,31.956066 4.243382,33.421816 C4.214782,34.079616 4.176172,34.735986 4.180462,35.392356 C4.177602,35.631166 4.190472,35.869976 4.174742,36.107356 C4.164732,36.240346 4.204772,36.413376 4.003142,36.456276" id="Fill-31" fill="#D68F40"></path>
                    <path d="M4.0760616,35.315422 C4.061915,30.660772 5.047185,26.237782 7.136415,22.069332 C8.074495,20.201752 9.205625,18.460012 10.518365,16.835532 C10.594155,16.741152 10.682815,16.661072 10.767185,16.572412 C10.905895,16.815512 10.695685,16.951362 10.585575,17.097222 C9.214205,18.913322 8.137415,20.891012 7.305155,23.004552 C6.475755,25.119522 5.940935,27.303132 5.690685,29.565392 C5.541965,30.906732 5.491915,32.250932 5.559125,33.590842 C5.714995,36.638172 6.391385,39.576822 7.594015,42.385342 C8.999705,45.671482 11.010285,48.542922 13.618605,50.979642 C16.164005,53.357732 19.074055,55.160962 22.357335,56.352152 C22.524645,56.413642 22.774895,56.390762 22.802065,56.666752 C21.440705,56.330702 20.147985,55.808752 18.883865,55.219592 C13.980395,52.934452 10.022155,49.539632 6.984835,45.065162 C6.911905,44.956482 6.871865,44.814912 6.728865,44.764862 C5.606315,42.811482 4.922775,40.692222 4.393675,38.517192 C4.317885,38.205452 4.237805,37.898002 4.157725,37.587692 C4.247815,37.364612 4.150575,37.155832 4.109105,36.942762 C4.050475,36.400792 4.172025,35.857392 4.0760616,35.315422" id="Fill-33" fill="#DEBDD6"></path>
                    <path d="M29.707106,6.34734 C28.391506,6.17574 27.077336,6.32303 25.771746,6.44887 C23.496616,6.66766 21.274396,7.17388 19.113666,7.93607 C18.839106,8.03188 18.583136,8.26211 18.252806,8.14485 C21.345896,6.50464 24.627746,5.4779 28.112656,5.11468 C34.082906,4.49406 39.669916,5.68096 44.869396,8.68682 C44.915156,8.71256 44.956626,8.74831 45.000956,8.77691 C45.010966,8.85413 44.990946,8.89703 44.905146,8.86414 C43.099056,8.06477 41.251496,7.39696 39.325286,6.95223 C36.481016,6.29443 33.602426,6.08565 30.693806,6.28585 C30.613726,6.29157 30.536506,6.31731 30.459286,6.33304 C30.210466,6.51894 29.960216,6.50464 29.707106,6.34734" id="Fill-35" fill="#C23840"></path>
                    <path d="M4.076215,35.315422 C4.170595,35.883132 4.139135,36.455132 4.150575,37.027132 C4.126265,37.054302 4.101955,37.051442 4.079075,37.024272 L4.001855,36.455132 C4.149145,36.083332 4.009005,35.692942 4.076215,35.315422" id="Fill-37" fill="#D9994A"></path>
                    <path d="M56.394195,42.719962 C56.418505,42.541212 56.442815,42.362462 56.467125,42.183712 C56.377035,41.984942 56.474275,41.860532 56.644445,41.769012 C56.714515,41.786172 56.764565,41.813342 56.725955,41.897712 C56.644445,42.183712 56.558645,42.466852 56.394195,42.719962" id="Fill-39" fill="#4D7AB0"></path>
                    <path d="M44.905289,8.863139 C44.936749,8.833109 44.969639,8.805939 45.001099,8.777339 C45.207019,8.886019 45.437249,8.956089 45.573099,9.166299 C45.325709,9.123399 45.109779,9.004709 44.905289,8.863139" id="Fill-41" fill="#C44054"></path>
                    <path d="M4.079933,37.022985 C4.104243,37.024415 4.127123,37.025845 4.151433,37.028705 C4.255823,37.213175 4.272983,37.400505 4.158583,37.587835 C4.132843,37.400505 4.107103,37.211745 4.079933,37.022985" id="Fill-43" fill="#DEA87D"></path>
                    <path d="M56.72524,41.897855 L56.6423,41.796325 C56.62371,41.780595 56.61656,41.766295 56.62228,41.750565 C56.62657,41.733405 56.63229,41.726255 56.63801,41.726255 C56.76385,41.643315 56.71666,41.431675 56.89398,41.390205 C56.88254,41.574675 56.82534,41.743415 56.72524,41.897855" id="Fill-45" fill="#5478AD"></path>
                    <path d="M22.802494,56.666037 C22.199034,56.418647 21.591284,56.176977 20.990684,55.921007 C18.884294,55.020107 16.930914,53.856087 15.140554,52.423227 C14.269684,51.726817 13.440284,50.988937 12.663794,50.186707 C11.147994,48.617997 9.849554,46.889127 8.768474,44.990087 C7.578714,42.900857 6.714994,40.684357 6.142994,38.352027 C5.808374,36.987807 5.616754,35.600707 5.502354,34.197877 C5.419414,33.135387 5.400824,32.074327 5.458024,31.020417 C5.566704,29.014127 5.889884,27.037867 6.467604,25.107367 C7.264114,22.448997 8.442434,19.980817 10.012574,17.692817 C10.265684,17.322447 10.621754,17.017857 10.766184,16.573127 C12.014574,15.012997 13.437424,13.624467 14.986114,12.368927 C17.604444,10.248237 20.555964,8.738157 23.746294,7.682817 C23.822084,7.657077 23.902164,7.647067 23.980814,7.629907 C25.103364,7.319597 26.227344,7.015007 27.382784,6.851987 C29.084484,6.613177 30.791904,6.430137 32.515054,6.637487 C33.045584,6.701837 33.574684,6.771907 34.106644,6.827677 C37.979084,7.389667 41.615574,8.603737 44.914584,10.747307 C49.135944,13.488617 52.307684,17.140837 54.416934,21.709687 C55.111914,23.209757 55.612414,24.782757 56.065724,26.371487 C56.742114,28.718117 56.909424,31.121947 56.810754,33.544367 C56.723524,35.657907 56.357444,37.735697 55.739684,39.766297 C55.026114,42.110067 54.015104,44.315127 52.676624,46.365747 C51.431094,48.279087 49.958194,49.997947 48.249344,51.519467 C46.644884,52.948037 44.911724,54.180697 42.976934,55.121637 C39.446264,56.853367 35.733984,57.851507 31.785754,57.961617 C28.791334,58.045987 25.885574,57.571227 23.021284,56.751837 C22.946924,56.731817 22.875424,56.696067 22.802494,56.666037" id="Fill-47" fill="#FEFEFE"></path>
                    <path d="M42.977506,55.121494 C43.229186,54.822624 43.608136,54.722524 43.927026,54.535194 C45.425666,53.658604 46.809906,52.636154 48.115496,51.490724 C49.761426,50.049284 51.181416,48.411934 52.396916,46.601554 C53.949896,44.289244 55.092466,41.779594 55.817476,39.086904 C56.252196,37.468144 56.525326,35.826504 56.646876,34.150544 C56.827056,31.659484 56.642586,29.202744 56.107766,26.768884 C56.079166,26.637324 56.079166,26.504334 56.066296,26.371344 C56.420936,27.213614 56.595396,28.107364 56.781296,28.992534 C57.118776,30.576974 57.290376,32.182864 57.387616,33.804484 C57.453396,34.907014 57.406206,36.002394 57.338996,37.093484 C57.250336,38.560664 57.030116,40.019264 56.682626,41.452124 C56.659746,41.540784 56.654026,41.635164 56.638296,41.725254 C56.636866,41.749564 56.638296,41.772444 56.642586,41.796754 C56.583956,41.925454 56.525326,42.055584 56.466696,42.184284 C55.663036,43.642884 54.813616,45.072884 53.802606,46.398494 C50.996946,50.089324 47.527766,52.970774 43.350736,54.992794 C43.232046,55.051424 43.124796,55.145804 42.977506,55.121494" id="Fill-49" fill="#DEBDD6"></path>
                    <path d="M34.106072,6.828249 C33.022132,6.822529 31.948202,6.633769 30.861402,6.670949 C29.003832,6.735299 27.161992,6.919769 25.344462,7.330179 C24.891152,7.434569 24.455002,7.623329 23.980242,7.630479 C25.347322,7.114249 26.773032,6.833969 28.207322,6.586579 C28.704962,6.500779 29.205462,6.426419 29.704532,6.346339 C29.956212,6.343479 30.207892,6.339189 30.458142,6.334899 C31.635032,6.416409 32.804772,6.565129 33.968792,6.756749 C34.017412,6.765329 34.060312,6.803939 34.106072,6.828249" id="Fill-51" fill="#DEBAD4"></path>
                    <path d="M29.55095,31.255509 C28.74014,31.255509 28.38836,31.009549 28.11237,30.231629 C27.76631,29.246359 27.74057,28.202459 27.56468,27.184299 C27.46172,26.589419 27.38736,25.990249 27.28583,25.392509 C27.24865,25.167999 27.19717,24.900589 26.90831,24.897729 C26.598,24.894869 26.54366,25.163709 26.50791,25.411099 C26.29484,26.791049 26.08463,28.170999 25.87013,29.549519 C25.85011,29.682509 25.82008,29.814069 25.7829,29.942769 C25.42254,31.146829 24.95064,31.407089 23.62932,31.195449 C23.19317,31.123949 22.91289,30.802199 22.71126,30.413239 C22.39094,29.789759 22.35376,29.099069 22.24508,28.426969 C22.03487,27.152839 21.83038,25.882999 21.62589,24.608869 C21.58442,24.347179 21.48432,24.058319 21.88901,23.975379 C22.32516,23.883859 22.66121,24.042589 22.72413,24.427259 C22.97295,25.951639 23.20747,27.477449 23.44628,29.001829 C23.47631,29.200599 23.4949,29.402229 23.5378,29.599569 C23.61216,29.944199 23.73657,30.250219 24.16986,30.257369 C24.58885,30.267379 24.77761,30.004259 24.84911,29.649619 C24.96351,29.081909 25.04073,28.509909 25.14226,27.942199 C25.31815,26.964079 25.39251,25.971659 25.61416,25.002119 C25.86298,23.923899 26.61087,23.819509 27.55181,24.075479 C27.90645,24.169859 28.03086,24.523069 28.13096,24.850539 C28.36405,25.596999 28.40409,26.380639 28.53136,27.148549 C28.66721,27.955069 28.78447,28.765879 28.9289,29.572399 C29.0147,30.058599 29.25065,30.270239 29.62531,30.257369 C30.07862,30.243069 30.19874,29.921319 30.25594,29.556669 C30.51763,27.899299 30.77789,26.240499 31.02957,24.580269 C31.07819,24.257089 31.18544,24.018279 31.54866,23.966799 C32.06918,23.893869 32.2465,24.055459 32.16356,24.580269 C31.90473,26.239069 31.63732,27.895009 31.36848,29.550949 C31.31128,29.911309 31.18973,30.254509 30.99811,30.564819 C30.68351,31.071039 30.28883,31.256939 29.55095,31.255509" id="Fill-53" fill="#002B54"></path>
                    <path d="M24.244363,33.59599 C25.049453,33.59456 25.424113,33.86483 25.701533,34.65991 C25.946063,35.34917 25.990393,36.07847 26.103363,36.7949 C26.240643,37.65719 26.367913,38.52091 26.496613,39.3832 C26.535223,39.64346 26.570973,39.94948 26.889863,39.95377 C27.243073,39.95949 27.267383,39.61629 27.308853,39.36032 C27.506193,38.08619 27.684943,36.80777 27.880853,35.53364 C27.925183,35.24335 27.999543,34.95163 28.095353,34.67421 C28.367053,33.87341 28.720263,33.61315 29.499613,33.59599 C30.369053,33.57597 30.880993,33.88771 31.175573,34.63846 C31.468723,35.38635 31.495893,36.18715 31.624593,36.96793 C31.801913,38.05616 31.987813,39.1401 32.159413,40.22976 C32.203743,40.49288 32.321003,40.8132 31.880563,40.88756 C31.398653,40.96621 31.118373,40.80033 31.045443,40.36275 C30.928183,39.66062 30.823793,38.95563 30.715113,38.25207 C30.559243,37.25679 30.413383,36.25865 30.243213,35.26623 C30.160273,34.77574 29.957213,34.58984 29.589703,34.59413 C29.246503,34.59699 29.003403,34.82436 28.930473,35.28053 C28.708823,36.62044 28.505763,37.96178 28.294123,39.30169 C28.269813,39.46042 28.239783,39.61915 28.201173,39.77502 C27.962363,40.73169 27.531933,40.9991 26.556673,40.86897 C26.004693,40.79604 25.788763,40.42567 25.648623,39.97093 C25.452713,39.326 25.408383,38.65247 25.303993,37.98895 C25.165283,37.09949 25.026573,36.2086 24.886433,35.32057 C24.880713,35.28196 24.864983,35.24478 24.853543,35.20331 C24.756303,34.85439 24.586133,34.58412 24.168573,34.59413 C23.738143,34.60557 23.600863,34.91588 23.539373,35.25908 C23.412103,35.98695 23.316293,36.72054 23.201893,37.44984 C23.051743,38.41795 22.905883,39.38749 22.740003,40.35417 C22.661353,40.82607 22.253803,41.02913 21.804783,40.86039 C21.545953,40.76315 21.573123,40.56009 21.607443,40.35703 C21.800493,39.16441 21.999263,37.97179 22.195173,36.77774 C22.293843,36.18286 22.331023,35.57654 22.495473,34.99167 C22.772893,34.00497 23.290553,33.59599 24.244363,33.59599" id="Fill-55" fill="#002B54"></path>
                    <path d="M37.996101,37.580113 C37.309701,37.580113 36.623301,37.590123 35.938331,37.574393 C35.705241,37.570103 35.649471,37.650183 35.646611,37.873263 C35.619441,39.124513 36.168561,39.732263 37.468431,39.839513 C38.226331,39.902433 38.967071,39.755143 39.704951,39.609283 C39.930891,39.564953 40.199731,39.417663 40.316991,39.758003 C40.451411,40.136953 40.286961,40.495883 39.925171,40.600273 C39.067171,40.851953 38.184861,40.913443 37.295401,40.849093 C37.015121,40.827643 36.731981,40.789033 36.461711,40.713243 C35.194731,40.364323 34.566961,39.500603 34.524061,38.042003 C34.499751,37.249783 34.516911,36.456133 34.591271,35.665343 C34.694231,34.572823 35.563671,33.694803 36.752001,33.484593 C37.439831,33.363043 38.117651,33.405943 38.789751,33.573253 C39.896571,33.846383 40.371331,34.654333 40.532921,35.698233 C40.604421,36.161553 40.587261,36.639173 40.538641,37.106783 C40.502891,37.435683 40.334151,37.600133 39.972361,37.587263 C39.314561,37.562953 38.655331,37.580113 37.996101,37.580113" id="Fill-57" fill="#002B54"></path>
                    <path d="M37.963211,27.945202 C37.276811,27.945202 36.590411,27.952352 35.904011,27.940912 C35.695231,27.936622 35.640891,28.002402 35.632311,28.211182 C35.583691,29.596852 36.378771,30.317572 37.900291,30.227482 C38.503751,30.193162 39.102921,30.115942 39.694941,29.978662 C39.925171,29.924322 40.188291,29.805632 40.306981,30.137392 C40.431391,30.486312 40.262651,30.855252 39.939471,30.968222 C39.596271,31.088342 39.234481,31.139822 38.874121,31.174142 C38.150541,31.247072 37.428391,31.285682 36.706241,31.144112 C35.340591,30.873842 34.589841,30.035862 34.525491,28.643042 C34.485451,27.812212 34.475441,26.978522 34.569821,26.144832 C34.698521,24.972232 35.439261,24.129962 36.584691,23.885432 C37.265371,23.741002 37.946051,23.748152 38.623871,23.914032 C39.733551,24.184302 40.337011,24.857832 40.497171,26.001832 C40.567241,26.482312 40.570101,26.964222 40.520051,27.448992 C40.484301,27.800772 40.319851,27.965222 39.939471,27.952352 C39.281671,27.928042 38.622441,27.945202 37.963211,27.945202" id="Fill-59" fill="#002B54"></path>
                    <path d="M37.582402,36.637028 C37.031852,36.637028 36.479872,36.627018 35.930752,36.642748 C35.707672,36.648468 35.647612,36.591268 35.630452,36.359608 C35.491742,34.563528 36.986092,34.218898 38.240202,34.476298 C39.232622,34.685078 39.701662,35.432968 39.558662,36.458278 C39.527202,36.675638 39.399932,36.635598 39.274092,36.635598 C38.712102,36.638458 38.147252,36.637028 37.582402,36.637028" id="Fill-61" fill="#FEFEFE"></path>
                    <path d="M37.577254,27.002546 C37.026704,27.002546 36.474724,26.992536 35.922744,27.006836 C35.702524,27.012556 35.625304,26.958216 35.618154,26.719406 C35.578114,25.360906 36.384634,24.625886 37.791754,24.776036 C38.207884,24.821796 38.612574,24.910456 38.961494,25.170716 C39.437684,25.526786 39.699374,26.329016 39.526344,26.880996 C39.470574,27.059746 39.337584,26.998256 39.230334,26.999686 C38.679784,27.005406 38.127804,27.002546 37.577254,27.002546" id="Fill-63" fill="#FEFEFE"></path>
                </g>
            </g>
        </g>
    </g>
</svg>