<?xml version="1.0" encoding="UTF-8"?>
<svg width="107px" height="22px" viewBox="0 0 107 22" version="1.1" xmlns="http://www.w3.org/2000/svg" xmlns:xlink="http://www.w3.org/1999/xlink">
    <!-- Generator: sketchtool 60.1 (101010) - https://sketch.com -->
    <title>7E772950-0C35-4CB5-B916-72D68DD7E9CA</title>
    <desc>Created with sketchtool.</desc>
    <g id="Page-1" stroke="none" stroke-width="1" fill="none" fill-rule="evenodd">
        <g id="LP-DE-PATROCÃNIO" transform="translate(-557.000000, -3448.000000)" fill="#942633">
            <path d="M663.267828,3465.84145 C661.427498,3462.45958 659.678998,3457.30401 658.513745,3453.59102 C658.078171,3452.20199 657.62026,3450.81297 657.132566,3449.43856 C656.469899,3447.65754 652.755732,3448.4464 652.00868,3448.80065 C650.87321,3449.33264 648.339188,3456.26072 648.023986,3457.30644 C647.352632,3455.92959 646.237017,3452.99816 645.65377,3451.4874 C644.308579,3451.37174 642.325539,3451.41557 641.017577,3451.74061 C640.661424,3451.82826 640.57828,3451.94026 640.596895,3452.27382 L640.613027,3452.41503 C639.368353,3449.97298 637.272387,3448.1031 634.292864,3448.11284 C627.285214,3448.13475 622.04716,3455.61429 623.329062,3462.39993 C623.422133,3462.89784 623.56112,3463.35922 623.74354,3463.79017 C622.065774,3463.30566 616.632891,3462.76636 611.200007,3463.28131 C611.087081,3462.96358 622.028545,3452.9239 622.734646,3452.81068 C622.750779,3451.59209 622.709827,3451.55557 622.038473,3451.39487 C618.476944,3450.55367 606.001664,3447.66606 604.153888,3448.18101 C602.492254,3448.64361 601.693082,3450.78497 602.934033,3452.26408 C603.758024,3453.24772 604.878603,3454.12301 605.862677,3455.02995 C606.367744,3455.49255 606.731343,3455.99898 606.953473,3456.55167 C606.97581,3457.00697 611.185116,3454.40301 610.863709,3454.20336 C610.129066,3453.69084 609.198353,3453.14181 608.840959,3452.28964 C610.934444,3452.67433 613.511899,3453.32319 615.389458,3454.15953 C611.743544,3457.68261 607.803524,3460.72361 602.467435,3465.15363 L602.097632,3464.82372 C601.215316,3464.78355 600.380156,3465.2145 599.404768,3465.45432 C596.169609,3466.25414 589.689363,3466.51953 589.673231,3461.88377 C590.539414,3462.09559 591.595464,3462.30011 592.840138,3462.49124 C594.998151,3462.85158 600.754923,3463.45661 601.776226,3460.82465 C602.059162,3460.11005 602.195667,3459.25424 602.191944,3458.27791 C602.177053,3453.81988 599.654199,3448.21875 594.507976,3448.23457 C590.889363,3448.24675 587.748516,3450.24933 585.728248,3453.11137 C586.275507,3451.97069 586.790502,3450.97123 587.274472,3450.1422 C587.728661,3449.35821 587.894948,3448.62413 587.278195,3448.49996 C584.626283,3447.95945 583.633522,3447.90588 583.070131,3449.11352 C581.037453,3452.33712 579.461445,3456.51028 577.405189,3461.56725 C576.689161,3458.44225 576.078613,3455.03604 575.415945,3451.96826 C574.852553,3449.36673 574.748313,3447.82067 572.535698,3448.01666 C572.139834,3448.05318 570.344178,3448.28449 569.739835,3448.79091 C568.975409,3449.43003 567.909433,3455.40612 566.88813,3461.21543 C564.567552,3456.39219 563.842836,3454.57831 561.87717,3448.52066 C557.952042,3448.45005 556.927017,3450.61941 557.003955,3451.4667 C557.101991,3452.11434 557.299302,3452.82651 557.595889,3453.60076 C558.452145,3455.85777 562.732185,3465.01485 564.848007,3468.5075 C565.777479,3470.04017 566.016982,3470.44556 567.861036,3469.47531 C569.722462,3468.49532 570.427322,3468.0169 570.675512,3466.35396 C571.113568,3463.40305 571.458552,3459.58536 571.783682,3455.84194 C572.550589,3459.08381 573.313774,3463.13523 573.787817,3465.20476 C574.518737,3468.46002 574.681302,3468.67184 577.921425,3467.7369 C579.646347,3467.21952 580.014909,3466.68387 580.65524,3465.07694 C581.717494,3462.39141 582.726387,3459.90675 583.668269,3457.696 C583.305911,3459.27007 583.2389,3460.91595 583.540451,3462.51924 C584.925352,3469.85513 596.142308,3469.50087 600.911283,3466.98334 C600.84303,3467.47395 601.03786,3468.00229 601.361748,3468.67549 C607.717899,3466.50126 614.450058,3466.92613 620.997315,3468.46611 C621.051917,3468.47341 624.087283,3466.86282 624.742505,3465.42267 C628.651501,3470.04382 638.788829,3468.75706 641.904857,3466.06058 C642.56132,3465.49084 642.282106,3464.72146 641.885002,3464.70199 C641.005168,3464.66181 640.165044,3465.09155 639.193379,3465.33259 C635.954497,3466.12875 629.477974,3466.39414 629.461842,3461.75838 C630.328025,3461.97263 631.384075,3462.17594 632.628749,3462.3695 C634.786762,3462.72862 640.543534,3463.33122 641.564836,3460.70413 C641.845291,3459.98466 641.981796,3459.13372 641.979314,3458.15252 C641.975591,3457.556 641.928435,3456.93514 641.835364,3456.31306 C643.472178,3460.66518 646.297823,3466.87256 647.696375,3467.59325 C648.050046,3467.79046 651.512299,3467.90003 652.12657,3467.81725 C652.54353,3464.61068 652.657697,3459.74241 653.688927,3456.75375 C655.175587,3459.29441 658.708574,3469.33531 662.045491,3469.36453 C663.06183,3469.3767 664.003712,3468.11185 664,3467.85255 C663.997507,3467.26456 663.55821,3466.37344 663.267828,3465.84145 M596.021936,3459.42956 C594.790913,3459.43441 590.773954,3458.30225 589.317078,3457.97478 C588.938588,3451.76861 596.213042,3448.11649 596.021936,3459.42956 M635.810547,3459.3066 C634.575801,3459.31024 630.562565,3458.17686 629.105689,3457.84817 C628.727199,3451.64322 635.999171,3447.99353 635.810547,3459.3066" id="Fill-85"></path>
        </g>
    </g>
</svg>