<?xml version="1.0" encoding="UTF-8"?>
<svg width="114px" height="23px" viewBox="0 0 114 23" version="1.1" xmlns="http://www.w3.org/2000/svg" xmlns:xlink="http://www.w3.org/1999/xlink">
    <!-- Generator: sketchtool 60.1 (101010) - https://sketch.com -->
    <title>29D22A91-0D49-4830-B026-17ACDA215999</title>
    <desc>Created with sketchtool.</desc>
    <g id="Page-1" stroke="none" stroke-width="1" fill="none" fill-rule="evenodd">
        <g id="LP-DE-PATROCÃNIO" transform="translate(-552.000000, -3650.000000)" fill="#080A08">
            <g id="Group-47" transform="translate(552.000000, 3649.000000)">
                <path d="M75.026145,20.0889851 C76.5294864,20.1196274 77.9841315,19.5656153 79.070433,18.5470665 L81.0682289,20.6711881 C79.7434405,22.0071907 77.9092142,23 75.0548633,23 C70.1602634,23 67,19.8156562 67,15.5012257 C67,11.2223403 70.330076,8 74.6103537,8 C79.4699922,8 82.221956,11.6317209 81.9859664,16.6644059 L70.508629,16.6644059 C70.9156799,18.7542082 72.4115296,20.0889851 75.026145,20.0889851 L75.026145,20.0889851 Z M78.5260336,14.2681811 C78.2213698,12.3156562 77.0314326,10.8815983 74.6515582,10.8815983 C72.4439938,10.8815983 70.9156799,12.1121915 70.5061318,14.2681811 L78.5260336,14.2681811 Z" id="Fill-87"></path>
                <polygon id="Fill-90" points="0 20.0612766 8.8021999 10.88 0.206408417 10.88 0.206408417 8 12.8818747 8 12.8818747 10.94 4.07843137 20.1212766 13 20.1212766 13 23 0 23"></polygon>
                <g id="Group-97" transform="translate(15.000000, 0.000000)">
                    <path d="M8.35865758,20.2184842 C9.85453636,20.2513263 11.3007182,19.6803789 12.3828697,18.6294316 L14.3707485,20.8184842 C13.0525364,22.1953263 11.2274152,23.2184842 8.38723333,23.2184842 C3.5169303,23.2184842 0.372354545,19.9380632 0.372354545,15.4904842 C0.372354545,11.0820632 3.68714242,7.75995789 7.94617273,7.75995789 C12.7804455,7.75995789 15.5187485,11.5026947 15.2839303,16.6904842 L3.86356667,16.6904842 C4.26859697,18.8441684 5.75702121,20.2184842 8.35865758,20.2184842 L8.35865758,20.2184842 Z M11.8411727,14.2210105 C11.5380212,12.2088 10.3539909,10.7309053 7.9859303,10.7309053 C5.78932424,10.7309053 4.26859697,11.9991158 3.86108182,14.2210105 L11.8411727,14.2210105 Z" id="Fill-91"></path>
                    <path d="M34.2824606,15.5004632 C34.2824606,10.7484632 37.7724303,7.78256842 41.6127636,7.78256842 C43.5459758,7.78256842 45.3959455,8.64656842 46.4793394,10.0133053 L46.4793394,1.24951579 L49.5953394,1.24951579 L49.5953394,22.9278316 L46.4793394,22.9278316 L46.4793394,20.8739368 C45.3673697,22.3290947 43.5186424,23.2208842 41.5829455,23.2208842 C37.8618848,23.2208842 34.2824606,20.2221474 34.2824606,15.5029895 M46.6570061,15.4739368 C46.6570061,12.8314105 44.6927333,10.6638316 42.0252485,10.6638316 C39.4149152,10.6638316 37.3910061,12.7720421 37.3910061,15.4739368 C37.3910061,18.1783579 39.4124303,20.3130947 42.0252485,20.3130947 C44.6927333,20.3130947 46.6570061,18.1455158 46.6570061,15.4739368" id="Fill-93"></path>
                    <path d="M69.4876697,19.7753684 L72.3005182,18.2898947 C73.0608818,19.6642105 74.5045788,20.4978947 76.0538818,20.4574737 C77.814397,20.4574737 78.7238515,19.5391579 78.7238515,18.4995789 C78.7238515,17.3122105 77.0229727,17.0418947 75.1754879,16.6604211 C72.6819424,16.1273684 70.1039121,15.2949474 70.1039121,12.2368421 C70.1039121,9.89115789 72.303003,7.72231579 75.764397,7.75515789 C78.4902758,7.75515789 80.5141848,8.85663158 81.6584576,10.6338947 L79.0506091,12.084 C78.3759727,11.0444211 77.2329424,10.3926316 75.7668818,10.3926316 C74.0958212,10.3926316 73.2360636,11.2250526 73.2360636,12.1749474 C73.2360636,13.2435789 74.5853364,13.5391579 76.6974576,14.0115789 C79.1015485,14.5471579 81.8274273,15.348 81.8274273,18.4364211 C81.8274273,20.4852632 80.069397,23.2465263 75.9047909,23.2124211 C72.8558818,23.2124211 70.7151848,21.9644211 69.4839424,19.7677895" id="Fill-95"></path>
                </g>
                <polygon id="Fill-98" points="104.72043 16.6135913 102.189357 19.2597039 102.189357 23 99 23 99 2 102.189357 2 102.189357 15.7495046 108.96355 8.6152815 112.849462 8.6152815 106.975943 14.7728173 113 23 109.387097 23"></polygon>
                <path d="M39.967037,7.67222535 C36.2941975,7.67222535 33.221358,10.0618592 33.221358,14.0230986 L33.221358,22.5330704 L36.3695062,22.5330704 L36.3695062,14.4197183 C36.3695062,12.0325634 37.7361728,10.6022535 40.0682716,10.6022535 C42.3991358,10.6022535 43.5658025,12.0325634 43.5658025,14.4197183 L43.5658025,22.5330704 L46.712716,22.5330704 L46.712716,14.0230986 C46.712716,10.0581408 43.638642,7.67222535 39.967037,7.67222535" id="Fill-99"></path>
                <path d="M111.932222,6.08091268 C112.370494,5.64091268 113.08037,5.64215211 113.518642,6.08215211 C113.955679,6.52463099 113.955679,7.23730704 113.516173,7.67606761 C113.077901,8.11482817 112.369259,8.11482817 111.932222,7.67606761 C111.492716,7.23730704 111.491481,6.52463099 111.929753,6.08215211 C111.929753,6.08215211 111.930988,6.08091268 111.932222,6.08091268 L111.932222,6.08091268 Z M113.324815,7.47899718 C113.648272,7.13939155 113.638395,6.60271549 113.300123,6.2779831 C112.963086,5.95077183 112.426049,5.96192676 112.102593,6.30153239 C111.784074,6.63494085 111.787778,7.16294085 112.113704,7.49139155 C112.449506,7.82356056 112.990247,7.81984225 113.322346,7.48395493 L113.324815,7.47899718 Z M112.818642,6.15527887 L113.156914,6.49488451 C113.370494,6.70930704 113.36679,6.96463099 113.22358,7.1071662 C113.117407,7.22615211 112.945802,7.26085634 112.800123,7.19144789 L112.697654,7.62649014 L112.472963,7.39967324 L112.63963,6.79978592 L112.729753,6.89274366 C112.790247,6.97330704 112.901358,6.98941972 112.981605,6.9311662 C112.990247,6.92620845 112.995185,6.91877183 113.003827,6.91257465 C113.06679,6.83572958 113.056914,6.72170141 112.981605,6.6572507 C112.977901,6.65477183 112.972963,6.65229296 112.969259,6.64857465 L112.851975,6.51595493 L112.226049,7.1443493 L112.027284,6.9448 L112.818642,6.15527887 Z" id="Fill-101"></path>
            </g>
        </g>
    </g>
</svg>