<?xml version="1.0" encoding="UTF-8"?>
<svg width="319px" height="127px" viewBox="0 0 319 127" version="1.1" xmlns="http://www.w3.org/2000/svg" xmlns:xlink="http://www.w3.org/1999/xlink">
    <!-- Generator: Sketch 60.1 (88133) - https://sketch.com -->
    <title>Group 69</title>
    <desc>Created with Sketch.</desc>
    <g id="Page-1" stroke="none" stroke-width="1" fill="none" fill-rule="evenodd">
        <g id="Group-69">
            <path d="M244.707473,111.858127 L241.091036,114.501023 C236.516398,117.846462 236.196997,119.920634 236.196997,123.422194 L236.196997,124.927641 L248.468155,124.927641 C248.828768,124.927641 249.179078,125.083762 249.179078,125.507517 L249.179078,125.931273 C249.179078,126.355028 248.859678,126.499997 248.468155,126.499997 L235.310919,126.499997 C234.922275,126.499997 234.605628,126.162293 234.599995,125.741698 L234.599995,123.399891 C234.599995,119.630696 235.310919,116.709013 240.101925,113.218605 L243.718362,110.575708 C246.912366,108.233901 247.839657,106.962634 247.839657,104.509313 C247.839657,101.052359 246.026287,99.4019426 241.307404,99.4019426 C239.488088,99.4106393 237.673573,99.6047888 235.8879,99.9818187 C235.82957,99.9779508 235.771075,99.9779508 235.712745,99.9818187 C235.55899,99.9913832 235.408652,99.9302318 235.298775,99.8134324 C235.188898,99.6966331 235.129698,99.5350466 235.135764,99.3684882 L235.135764,98.9447327 C235.135764,98.5655829 235.455164,98.4094624 235.815777,98.3314022 C237.621736,97.9249972 239.462924,97.7305811 241.307404,97.7515261 C246.634178,97.7515261 249.549995,99.8256982 249.549995,104.442404 C249.549995,107.319481 248.447548,109.126018 244.758989,111.813521" id="Path" fill="#FFFFFF" fill-rule="nonzero"></path>
            <path d="M286.107472,111.858127 L282.491035,114.501023 C277.916397,117.846462 277.596996,119.920634 277.596996,123.422194 L277.596996,124.927641 L289.868154,124.927641 C290.228767,124.927641 290.579077,125.083762 290.579077,125.507517 L290.579077,125.931273 C290.579077,126.355028 290.259677,126.499997 289.868154,126.499997 L276.710918,126.499997 C276.322274,126.499997 276.005627,126.162293 275.999994,125.741698 L275.999994,123.399891 C275.999994,119.630696 276.710918,116.709013 281.501924,113.218605 L285.118361,110.575708 C288.312365,108.233901 289.239656,106.962634 289.239656,104.509313 C289.239656,101.052359 287.426286,99.4019426 282.707403,99.4019426 C280.888087,99.4106393 279.073572,99.6047888 277.287899,99.9818187 C277.229569,99.9779508 277.171074,99.9779508 277.112744,99.9818187 C276.958989,99.9913832 276.808651,99.9302318 276.698774,99.8134324 C276.588897,99.6966331 276.529697,99.5350466 276.535763,99.3684882 L276.535763,98.9447327 C276.535763,98.5655829 276.855163,98.4094624 277.215776,98.3314022 C279.021735,97.9249972 280.862923,97.7305811 282.707403,97.7515261 C288.034177,97.7515261 290.949994,99.8256982 290.949994,104.442404 C290.949994,107.319481 289.847547,109.126018 286.158988,111.813521" id="Path-Copy" fill="#FFFFFF" fill-rule="nonzero"></path>
            <path d="M262.774995,126.499997 C257.525942,126.499997 254.149995,123.177578 254.149995,115.868256 L254.149995,108.348515 C254.149995,100.994894 257.525942,97.749998 262.774995,97.749998 C268.024047,97.749998 271.399994,100.994894 271.399994,108.348515 L271.399994,115.868256 C271.399994,123.221877 268.024047,126.499997 262.774995,126.499997 L262.774995,126.499997 Z M269.744691,108.348515 C269.744691,102.334936 267.272627,99.2783107 262.774995,99.2783107 C258.277362,99.2783107 255.805298,102.334936 255.805298,108.348515 L255.805298,115.868256 C255.805298,121.881835 258.277362,124.971685 262.774995,124.971685 C267.272627,124.971685 269.744691,121.881835 269.744691,115.868256 L269.744691,108.348515 Z" id="Shape" fill="#FFFFFF" fill-rule="nonzero"></path>
            <path d="M305.324994,126.499997 C300.075941,126.499997 296.699994,123.177578 296.699994,115.868256 L296.699994,108.348515 C296.699994,100.994894 300.075941,97.749998 305.324994,97.749998 C310.574047,97.749998 313.949993,100.994894 313.949993,108.348515 L313.949993,115.868256 C313.949993,123.221877 310.574047,126.499997 305.324994,126.499997 L305.324994,126.499997 Z M312.29469,108.348515 C312.29469,102.334936 309.822626,99.2783107 305.324994,99.2783107 C300.827361,99.2783107 298.355297,102.334936 298.355297,108.348515 L298.355297,115.868256 C298.355297,121.881835 300.827361,124.971685 305.324994,124.971685 C309.822626,124.971685 312.29469,121.881835 312.29469,115.868256 L312.29469,108.348515 Z" id="Shape-Copy" fill="#FFFFFF" fill-rule="nonzero"></path>
            <path d="M51.3119228,85.0447339 L43.8683419,85.0447339 C42.6550471,85.1391648 41.5328234,84.3721145 41.1354844,83.1768004 L34.6914701,68.2001733 L22.1649868,83.1768004 C21.3238076,84.3745931 19.98684,85.0878751 18.5601669,85.0999982 L11.5206661,85.0999982 C10.1595542,85.0999982 9.98941517,84.4699851 10.9889817,83.209959 L30.820808,59.30262 L20.9846475,36.3900386 C20.4316958,35.1300124 20.8783107,34.5442107 22.3138584,34.5442107 L29.0981507,34.5442107 C30.3731056,34.443303 31.5156646,35.3590412 31.7459388,36.6663601 L37.5838329,51.2892956 L49.9614446,36.3789857 C50.8203593,35.202909 52.1563696,34.5085714 53.5768982,34.4999993 L60.8609737,34.4999993 C62.3177889,34.4999993 62.4879279,35.1300124 61.3820244,36.3789857 L41.9542783,59.5899944 L52.5879653,83.4310162 C53.0558475,84.4920909 52.6411337,85.0447339 51.3119228,85.0447339 Z" id="Path" fill="#FFFFFF" fill-rule="nonzero"></path>
            <path d="M174.191349,46.0089142 L168.128741,46.0089142 C167.507898,45.9535027 166.891487,46.1580281 166.416943,46.5768899 C165.942399,46.9957517 165.649177,47.5941234 165.602655,48.2385932 L158.755348,82.7986163 C158.508114,84.3259463 159.088576,85.0951855 160.507484,85.0951855 L166.398103,85.0951855 C167.713276,85.1789294 168.853058,84.1600495 168.967187,82.7986163 L175.857492,47.9598833 C176.19072,46.6778179 175.621007,46.0089142 174.191349,46.0089142 Z" id="Path" fill="#FFFFFF" fill-rule="nonzero"></path>
            <path d="M29.6509778,26.0743397 C29.31736,24.1945166 27.6720862,22.8746822 25.8303675,23.0094558 L16.0339307,23.0094558 C13.9730507,23.0094558 13.3380965,23.9146482 14.129068,25.725033 L28.377441,58.6499988 C28.377441,58.6499988 37.7275957,49.0722367 35.2240618,39.8325132 L29.6509778,26.0743397 Z" id="Path" fill="#FFFFFF" fill-rule="nonzero"></path>
            <path d="M1.65022626,95.449998 L11.6080958,95.449998 C13.629399,95.4333431 15.5245304,94.4215769 16.7204425,92.7205902 L40.7025784,64.0121586 C42.5846377,61.7659345 43.0735964,58.595605 41.9619875,55.8463532 L35.7183072,40.2499992 C38.1730875,49.09536 29.0050168,58.8542215 29.0050168,58.8542215 L0.903119225,92.7651512 C-0.512826495,94.5624454 -0.263790815,95.457379 1.65022626,95.449998 Z" id="Path" fill="#300829"></path>
            <path d="M94.1971353,68.2870225 L94.3245409,67.8162645 C94.8623625,65.5239747 95.2175064,63.1881852 95.3862537,60.8333541 C96.06575,50.1777841 91.3128154,44.8499991 81.12745,44.8499991 C79.9701829,44.8499991 78.7492131,44.9172502 77.4857748,45.040544 C76.2223365,45.1638377 74.9695153,45.3655912 73.7379284,45.6233872 L70.7120467,46.2734816 C69.9263792,46.452818 69.002689,46.6769885 67.9409762,46.9572016 C66.8792633,47.2374147 66.3271726,47.3831255 66.2847041,47.3831255 C64.9113991,47.7105524 63.8747145,48.9032578 63.6835076,50.3758013 L54.1280918,98.9535438 C53.8308122,100.489112 54.3829029,101.195249 55.7737467,101.195249 L61.3689735,101.195249 C62.6697267,101.278944 63.7940105,100.246633 63.8958501,98.8750841 L66.5926008,84.9989316 C68.7587078,85.487326 70.961507,85.7723873 73.1752206,85.8507794 C75.7408956,85.8759163 78.2935716,85.4633597 80.7346162,84.6290503 L94.1971353,68.2870225 Z M68.2276386,76.4692449 L72.6231299,53.9064864 C74.5407243,53.4068659 76.508654,53.1546998 78.4837849,53.1555133 C83.2968832,53.1555133 85.505246,56.144455 85.1088732,62.1223343 C84.9867651,66.0673916 83.7601809,69.8858081 81.5839865,73.0954792 C79.6042798,75.8758372 76.4566267,77.4514259 73.1646035,77.3098842 C71.4883383,77.2924998 69.8240778,77.0091186 68.2276386,76.4692449 Z" id="Shape" fill="#FFFFFF" fill-rule="nonzero"></path>
            <path d="M129.575549,48.2361788 C127.571876,45.9802099 124.282693,44.8522254 119.707999,44.8522254 C116.939422,44.8132317 114.186039,45.2867433 111.57481,46.2509261 L99.10033,61.2080005 C98.4137329,63.5939068 97.9873018,66.0535352 97.8291827,68.5398996 C97.4198301,74.7438143 98.5976164,79.2557523 101.362541,82.0757135 C104.127467,84.8956747 107.99118,86.2868556 112.953682,86.2492561 C116.585701,86.1857702 120.199318,85.6938726 123.726117,84.7828763 C125.100559,84.5153832 126.123211,83.3002331 126.203777,81.8388368 L126.505405,78.4548833 C126.61313,77.6878538 126.505405,77.168981 126.12837,76.9095445 C125.672322,76.638424 125.127153,76.5850353 124.631002,76.7629066 C121.775582,77.4204648 118.86129,77.7570064 115.937646,77.7668128 C112.835185,77.7668128 110.504748,76.9433841 108.946336,75.2965267 C107.384333,73.6383895 106.942663,71.1455438 107.599781,67.8067097 L107.81523,66.7915237 L127.582649,66.7915237 C128.982574,66.8175624 130.212881,65.8244336 130.545069,64.4001966 C131.479326,62.2031862 132.037221,59.8512205 132.193251,57.4518121 C132.494879,53.5715455 131.589995,50.4921478 129.575549,48.2361788 Z M123.381399,60.4748105 L109.291054,60.4748105 C109.529711,59.355271 109.91011,58.2741262 110.42216,57.2600548 C111.166452,55.9555318 112.187452,54.8478457 113.406124,54.0227393 C114.896416,52.9412324 116.678276,52.3878198 118.490714,52.443561 C120.645201,52.443561 122.121024,53.1654711 122.918184,54.6092912 C123.734325,56.4444333 123.898571,58.5242205 123.381399,60.4748105 L123.381399,60.4748105 Z" id="Shape" fill="#FFFFFF" fill-rule="nonzero"></path>
            <path d="M162.022263,44.8499991 L160.48674,44.8499991 C156.287291,44.9107051 152.228456,46.4592158 148.959653,49.2477677 L149.119603,47.8607791 C149.26889,46.3159219 148.629089,45.6055132 147.189536,45.6055132 L146.784329,45.6055132 L138.893446,55.2129462 L133.476461,82.7722962 C133.177887,84.3171534 133.753709,85.0952201 135.203925,85.0952201 L140.74887,85.0952201 C142.055286,85.1794219 143.184465,84.1408656 143.286748,82.7610199 L148.682406,55.5061307 C150.516503,54.2882871 153.406272,53.6793653 157.351714,53.6793653 C158.062604,53.6793653 158.691742,53.701918 159.239128,53.7470233 C160.305463,53.9048919 161.105215,53.1832068 161.649046,51.5932443 L163.013955,47.4210023 C163.611103,45.8761451 163.269876,45.0304203 162.022263,44.8499991 Z" id="Path" fill="#FFFFFF" fill-rule="nonzero"></path>
            <path d="M250.467911,51.595811 C250.208355,49.9172498 249.345511,48.4089451 248.05892,47.3847459 C246.840992,46.4599001 245.464068,45.7941987 244.005022,45.4248086 C242.264121,45.0124139 240.482819,44.8206652 238.698874,44.8536269 C235.453437,44.9092558 232.224409,45.3526002 229.07352,46.1751846 L217.187748,60.6115223 L212.826094,82.7420137 C212.528949,84.2763646 213.102013,85.0491398 214.545286,85.0491398 L220.042455,85.0491398 C221.340865,85.1332686 222.466119,84.1097052 222.578794,82.7420137 L228.213924,54.5301171 C230.52444,53.3417371 233.073272,52.7614877 235.642532,52.8389712 C239.625681,52.8389712 241.175076,55.0788995 240.290718,59.5587561 L235.748655,82.7868123 C235.451511,84.3211631 236.013962,85.0939384 237.414786,85.0939384 L242.943792,85.0939384 C244.225997,85.186841 245.351506,84.2011136 245.501356,82.8540101 L250.223828,58.6963837 C250.761896,56.3716724 250.84495,53.9555575 250.467911,51.595811 L250.467911,51.595811 Z" id="Path" fill="#FFFFFF" fill-rule="nonzero"></path>
            <path d="M208.884909,48.2445636 C206.883328,45.9830085 203.59758,44.8522309 199.027663,44.8522309 C196.261977,44.8131407 193.51147,45.2878248 190.902968,46.2543951 L178.463038,61.2485058 C177.768474,63.6385903 177.33877,66.1049293 177.182457,68.5985601 C176.762771,74.7839135 177.946501,79.2731005 180.701365,82.0661212 C183.456228,84.8591418 187.319493,86.2499982 192.291161,86.2499982 C195.919394,86.1864511 199.529247,85.6933341 203.052346,84.7799874 C204.427579,84.5126976 205.452785,83.295512 205.53818,81.8286579 L205.839493,78.4363251 C205.936344,77.6673964 205.839493,77.1472387 205.462852,76.8871598 C205.003526,76.6148637 204.455472,76.561388 203.956286,76.7401587 C201.103849,77.3993452 198.192599,77.7367202 195.272009,77.7465508 C192.183549,77.7465508 189.891417,76.9210832 188.288,75.2701479 C186.684584,73.6192126 186.28642,71.1088864 186.953613,67.7617847 L187.168837,66.7440849 L206.904851,66.7440849 C208.304658,66.7744658 209.535931,65.777054 209.864177,64.3468364 C210.797458,62.1443859 211.354771,59.7865963 211.510638,57.3812465 C211.910633,54.0819946 210.955872,50.7597346 208.884909,48.2445636 L208.884909,48.2445636 Z M202.697227,60.5135004 L188.621597,60.5135004 C188.846566,59.4094595 189.208358,58.3411889 189.697715,57.3360154 C190.444572,56.0309523 191.463841,54.9212464 192.678564,54.0906837 C194.15314,52.9974078 195.921194,52.426978 197.72556,52.462364 C199.877797,52.462364 201.352079,53.1860617 202.148407,54.633457 C202.998047,56.4604274 203.192882,58.547886 202.697227,60.5135004 L202.697227,60.5135004 Z" id="Shape" fill="#FFFFFF" fill-rule="nonzero"></path>
            <path d="M283.694985,45.6211908 C281.304064,45.101782 278.868973,44.8441153 276.428195,44.8522627 C272.888162,44.8038814 269.376998,45.5315418 266.115766,46.9894306 L254.360665,61.0676008 C253.656934,63.6479958 253.223312,66.3024056 253.067603,68.9830378 C252.690015,74.7123065 253.894023,79.0205657 256.679625,81.9078156 C259.465228,84.7950655 263.198363,86.2424597 267.879031,86.2499982 C270.8851,86.2456455 273.880191,85.8660975 276.802221,85.1192215 C278.071746,84.898959 279.026658,83.7757364 279.099809,82.4166651 L279.527267,79.3861835 C279.674212,78.7775978 279.53937,78.1313356 279.163928,77.6447874 C278.715122,77.2938838 278.132728,77.1968026 277.603705,77.3847088 C275.374521,77.9086127 273.100999,78.192751 270.817806,78.2327913 C265.161109,78.2327913 262.550052,74.9799236 262.984634,68.4741882 C263.333725,63.0012289 264.601851,59.1188955 266.789012,56.8271881 C269.158347,54.4500906 272.344477,53.2037045 275.605338,53.3783191 C277.458034,53.3962878 279.306081,53.5778422 281.130236,53.9210919 C281.758739,54.1032998 282.430746,53.9959065 282.980364,53.6254234 C283.529981,53.2549402 283.905994,52.6558901 284.015579,51.976156 L284.97736,48.4933637 C285.511682,46.9441996 285.084224,45.9604238 283.694985,45.6211908 Z" id="Path" fill="#FFFFFF" fill-rule="nonzero"></path>
            <path d="M315.88395,48.2445636 C313.865381,45.9830085 310.575329,44.8522309 306.013794,44.8522309 C303.244485,44.8131407 300.490375,45.2878248 297.878457,46.2543951 L285.422233,61.2485058 C284.728151,63.63943 284.294375,66.1051661 284.1292,68.5985601 C283.719739,74.7876828 284.897836,79.2768698 287.663492,82.0661212 C290.429147,84.8553725 294.293881,86.2499982 299.257693,86.2499982 C302.890672,86.1863551 306.505243,85.6932395 310.032973,84.7799874 C311.407778,84.5118319 312.4307,83.2936729 312.511288,81.8286579 L312.812995,78.4363251 C312.909973,77.6673964 312.812995,77.1472387 312.435861,76.8871598 C311.979692,76.6153679 311.434379,76.561847 310.938097,76.7401587 C308.081737,77.398158 305.166796,77.735519 302.242446,77.7465508 C299.139165,77.7465508 296.808113,76.9210832 295.249289,75.2701479 C293.690465,73.6192126 293.241495,71.1164249 293.902379,67.7617847 L294.117884,66.7440849 L313.890523,66.7440849 C315.290819,66.7701881 316.52145,65.7746002 316.853725,64.3468364 C317.788229,62.1443859 318.346272,59.7865963 318.502343,57.3812465 C318.771725,53.5931416 317.898928,50.5061188 315.88395,48.2445636 Z M309.666614,60.5135004 L295.594098,60.5135004 C295.836232,59.3906347 296.220363,58.3067907 296.736277,57.2907843 C297.477645,55.9805281 298.499541,54.8694169 299.72103,54.0454526 C301.196865,52.9507396 302.967695,52.3801614 304.774636,52.4171329 C306.929692,52.4171329 308.405906,53.1408306 309.203277,54.5882259 C310.030158,56.4410071 310.194608,58.5440423 309.666614,60.5135004 L309.666614,60.5135004 Z" id="Shape" fill="#FFFFFF" fill-rule="nonzero"></path>
            <path d="M146.474772,28.7489932 C144.644747,28.7655754 142.818165,28.5771668 141.025222,28.1868822 C140.569366,28.0766644 140.299997,27.8562287 140.299997,27.4594445 L140.299997,26.1698959 C140.310333,26.0076716 140.382605,25.8570084 140.500019,25.7529166 C140.617433,25.6488249 140.769766,25.6003682 140.921619,25.6188067 L141.056303,25.6188067 C142.713961,25.8392424 145.200447,26.0376345 146.474772,26.0376345 C148.72297,26.0376345 149.893691,25.4204146 149.904051,23.4364936 C149.904051,22.3343152 149.282429,21.6289211 147.313961,20.3834596 L143.83288,18.1791029 C141.760808,16.8234235 140.310357,15.2362867 140.320718,12.9217122 C140.320718,9.10817517 143.014411,8.03906218 146.536934,8.04999983 C148.338947,8.04955928 150.137749,8.21179472 151.913961,8.53504243 C152.369817,8.61219492 152.577024,8.86569593 152.577024,9.27350192 L152.577024,10.4858981 C152.597626,10.6553719 152.543161,10.8254252 152.429578,10.9462593 C152.315996,11.0670934 152.156147,11.1250356 151.996844,11.103118 L151.89324,11.103118 C150.681078,10.9929001 148.474321,10.8055298 146.536934,10.8055298 C144.599547,10.8055298 143.366664,11.0590308 143.366664,12.9217122 C143.366664,14.0238906 144.154051,14.7182629 145.749547,15.7102234 L149.158105,17.9145801 C152.017564,19.7221526 152.949997,21.2982676 152.949997,23.4254718 C152.949997,27.1838999 150.359907,28.760015 146.474772,28.7489932 Z" id="Path" fill="#FFFFFF" fill-rule="nonzero"></path>
            <path d="M170.667948,28.4940317 L168.888455,28.4940317 C168.703767,28.4912304 168.528066,28.4103049 168.401536,28.2697636 C168.275007,28.1292223 168.208472,27.9410872 168.21715,27.7483865 L168.21715,27.0472575 C166.522407,28.1511748 164.566967,28.740748 162.569659,28.7499994 C158.307401,28.7499994 156.389385,25.9566124 156.399997,21.0264512 L156.399997,8.78451595 C156.405864,8.37706019 156.723801,8.04999983 157.113969,8.04999983 L158.818872,8.04999983 C159.208996,8.05608194 159.522188,8.38814383 159.522145,8.79564498 L159.522145,21.0375802 C159.522145,24.788064 160.726232,25.9343543 163.42211,25.9343543 C165.104522,25.8449529 166.744904,25.3538191 168.21715,24.4987092 L168.21715,8.85129014 C168.238754,8.45108087 168.547611,8.13331752 168.931078,8.11677403 L170.667948,8.11677403 C171.052182,8.12889139 171.355909,8.46098142 171.349996,8.86241917 L171.349996,27.7817736 C171.352818,27.9715911 171.281903,28.1545271 171.153374,28.2887655 C171.024846,28.4230039 170.849691,28.4970693 170.667948,28.4940317 L170.667948,28.4940317 Z" id="Path" fill="#FFFFFF" fill-rule="nonzero"></path>
            <path d="M182.052367,28.7610038 C180.663749,28.7331724 179.279328,28.5933562 177.911645,28.342822 L177.911645,34.9456926 C177.91449,35.1314668 177.845276,35.3106511 177.719526,35.4430602 C177.593776,35.5754694 177.422013,35.6499993 177.242759,35.6499993 L175.437828,35.6499993 C175.26321,35.6499993 175.096157,35.5761459 174.975731,35.4450826 C174.855304,35.3140192 174.792063,35.1374632 174.800794,34.9566973 L174.800794,9.72272704 C174.800794,9.24952132 174.906966,9.02942563 175.544001,8.88636344 C177.676731,8.35776022 179.859667,8.07723996 182.052367,8.04999983 C187.360986,8.04999983 189.760482,11.6265547 189.749996,17.1179421 L189.749996,19.8361238 C189.771099,25.536602 187.222962,28.7610038 182.052367,28.7610038 Z M186.670866,17.1399516 C186.670866,13.2882771 185.609142,10.7901911 182.084219,10.7901911 C180.696798,10.7955505 179.31206,10.9169976 177.943496,11.153349 L177.943496,25.6686594 C179.312704,25.9010597 180.696868,26.0261351 182.084219,26.0428221 C185.545438,26.0428221 186.681483,23.698803 186.6921,19.7810998 L186.670866,17.1399516 Z" id="Shape" fill="#FFFFFF" fill-rule="nonzero"></path>
            <path d="M207.500416,19.4182735 L195.306167,19.4182735 L195.306167,19.9360134 C195.306167,24.3423105 197.010739,25.9175618 200.354324,25.9285775 C202.520372,25.9363971 204.684682,25.8039355 206.833884,25.5320108 L207.019639,25.5320108 C207.166792,25.5129109 207.314948,25.5589038 207.425955,25.6581457 C207.536962,25.7573876 207.599971,25.9001795 207.598757,26.0497507 L207.598757,27.2945296 C207.598757,27.7682065 207.456709,28.0325844 206.866665,28.1427418 C204.70702,28.5659845 202.510596,28.7689632 200.310617,28.7486077 C196.114746,28.7486077 192.049996,26.7547582 192.049996,19.9360134 L192.049996,16.6312906 C192.049996,11.3767813 194.934657,8.03901127 200.146715,8.04999983 C205.358774,8.06104276 208.156021,11.4428758 208.145094,16.6533221 L208.145094,18.669203 C208.188801,19.0878013 207.937486,19.4182735 207.500416,19.4182735 Z M204.954484,16.6202749 C204.954484,12.4783556 203.402886,10.8590414 200.201349,10.8479756 C196.999812,10.8370099 195.317093,12.6435917 195.306167,16.6092591 L195.306167,16.9397314 L204.954484,16.9397314 L204.954484,16.6202749 Z" id="Shape" fill="#FFFFFF" fill-rule="nonzero"></path>
            <path d="M220.02838,10.8285982 C218.200976,10.8430248 216.41622,11.3814277 214.886608,12.3797032 L214.886608,28.0023444 C214.874925,28.4103339 214.546373,28.7383355 214.137698,28.7499994 L212.315722,28.7499994 C211.912661,28.7378494 211.594052,28.4048642 211.600345,28.0023444 L211.600345,9.03199442 C211.594293,8.83874605 211.666983,8.65130519 211.801804,8.51250432 C211.936624,8.37370344 212.122055,8.29540405 212.315722,8.29549848 L214.059454,8.29549848 C214.253192,8.29830729 214.437502,8.37945094 214.570232,8.52037104 C214.702961,8.66129113 214.772756,8.84993341 214.763653,9.04315345 L214.763653,9.82428551 C216.280021,8.68778196 218.121128,8.06598335 220.017203,8.04999983 C220.542558,8.04999983 220.799646,8.27318042 220.799646,8.7195416 L220.799646,10.1925335 C220.810824,10.6054176 220.553735,10.8285982 220.02838,10.8285982 Z" id="Path" fill="#FFFFFF" fill-rule="nonzero"></path>
            <path d="M225.842561,28.7499994 L223.795639,28.7499994 C223.599958,28.7415203 223.416147,28.6597056 223.285593,28.5229779 C223.155039,28.3862503 223.08872,28.2061041 223.101567,28.023104 L223.101567,1.85486996 C223.091976,1.67293464 223.161706,1.49515152 223.294779,1.36226137 C223.427851,1.22937123 223.612858,1.15276642 223.807403,1.14999998 L225.854325,1.14999998 C226.046855,1.14958694 226.230919,1.22406154 226.362524,1.35562565 C226.494129,1.48718977 226.56145,1.66402125 226.548397,1.84385639 L226.548397,28.0120904 C226.56849,28.397463 226.253904,28.7263438 225.842561,28.7499994 Z" id="Path" fill="#FFFFFF" fill-rule="nonzero"></path>
            <path d="M236.840462,28.7499994 C231.53516,28.7499994 228.839201,25.182321 228.849995,19.8143371 L228.849995,17.0260592 C228.849995,11.6470979 231.567642,8.11235187 236.872943,8.11235187 C242.178245,8.11235187 244.949995,11.6800303 244.949995,17.0480142 L244.949995,19.8362921 C244.949995,25.2481858 242.145764,28.7499994 236.840462,28.7499994 Z M241.701851,17.0480142 C241.701851,13.3156736 240.229359,10.9335622 236.840462,10.9335622 C233.451565,10.9335622 232.000727,13.2607863 231.9899,17.0370367 L231.9899,19.8143371 C231.9899,23.5466776 233.419084,25.9287891 236.818808,25.9287891 C240.218532,25.9287891 241.691024,23.5905875 241.691024,19.8253146 L241.701851,17.0480142 Z M242.264863,0.581806021 L238.183028,5.1923443 C237.858214,5.55460088 237.749942,5.73024043 237.349338,5.73024043 L235.400452,5.73024043 C235.183909,5.73024043 235.075637,5.62046571 235.075637,5.47775857 C235.077573,5.33834303 235.131768,5.20489984 235.227217,5.10452452 L238.800176,0.548873605 C239.12499,0.142707137 239.233261,1.77635684e-15 239.666347,1.77635684e-15 L242.04832,1.77635684e-15 C242.297344,1.77635684e-15 242.438097,0.0768423046 242.438097,0.26345933 C242.429209,0.373432887 242.378786,0.475680749 242.297344,0.548873605 L242.264863,0.581806021 Z" id="Shape" fill="#FFFFFF" fill-rule="nonzero"></path>
            <path d="M263.862576,10.5340257 L262.628862,10.7879454 C263.474353,11.8311941 263.893085,13.1960514 263.790609,14.5746614 L263.790609,14.8727411 C263.790609,18.9244169 261.456833,21.1544945 256.172425,21.1544945 C254.815925,21.1952897 253.465835,20.9398904 252.203978,20.4037753 C251.703201,20.585054 251.361956,21.0839411 251.350659,21.651294 C251.350659,22.2805733 251.617964,22.611773 252.378754,22.8325727 L257.519229,24.2456913 C260.870819,25.1730503 264.088757,26.1997692 264.088757,29.6663256 L264.088757,29.9533653 C264.088757,33.4861615 261.888633,35.6499993 256.264954,35.6499993 C250.857174,35.6499993 248.389746,33.4420016 248.399995,29.7767254 L248.399995,29.4124058 C248.414146,27.5855368 249.210412,25.8672851 250.559026,24.7535307 L250.322564,24.6431308 C249.311049,24.1042792 248.693315,22.9726979 248.749579,21.7616939 L248.749579,21.7616939 C248.743861,20.6715179 249.280971,19.661126 250.158069,19.1120967 C249.069164,18.0145913 248.495694,16.450762 248.595365,14.8506611 L248.595365,14.5525815 C248.595365,11.2405849 250.312284,8.03898831 256.203268,8.04999983 L263.708361,8.04999983 C264.129647,8.06058485 264.473438,8.41537526 264.499995,8.86698744 L264.499995,9.82746643 C264.479433,10.3132259 264.242971,10.4567458 263.862576,10.5340257 Z M261.066157,29.6552856 C261.066157,28.2200871 259.966096,27.6349677 256.892092,26.7848886 L253.016173,25.6808898 C251.911316,26.5463079 251.279369,27.9448931 251.330098,29.4124058 L251.330098,29.7436055 C251.330098,31.8080833 252.461002,33.055602 256.264954,33.055602 C260.068905,33.055602 261.055876,31.8853632 261.066157,29.8650453 L261.066157,29.6552856 Z M260.809133,14.5746614 C260.809133,12.3666638 259.894129,10.6333856 256.192987,10.6333856 C252.491845,10.6333856 251.566559,12.4991436 251.556278,14.5525815 L251.556278,14.8506611 C251.556278,16.4735394 252.245102,18.6042572 256.182706,18.6152972 C259.883848,18.6152972 260.809133,17.0696988 260.809133,14.8727411 L260.809133,14.5746614 Z" id="Shape" fill="#FFFFFF" fill-rule="nonzero"></path>
            <path d="M269.376146,28.7499994 L267.560356,28.7499994 C267.14042,28.7499994 266.799994,28.4085855 266.799994,27.9874301 L266.799994,8.63865778 C266.799994,8.2175024 267.14042,7.87608851 267.560356,7.87608851 L269.376146,7.87608851 C269.791643,7.88230867 270.125205,8.22190746 270.125159,8.63865778 L270.125159,27.9874301 C270.125205,28.4041805 269.791643,28.7437793 269.376146,28.7499994 L269.376146,28.7499994 Z M269.489633,4.55265233 L267.560356,4.55265233 C267.359724,4.55265233 267.167469,4.4719722 267.026671,4.3286259 C266.885873,4.1852796 266.808303,3.99127507 266.811343,3.79008306 L266.811343,0.762569264 C266.811343,0.341413889 267.151769,1.77635684e-15 267.571705,1.77635684e-15 L269.500981,1.77635684e-15 C269.916479,0.00622015142 270.250041,0.345818948 270.249994,0.762569264 L270.249994,3.80146469 C270.243792,4.21816858 269.905177,4.55269874 269.489633,4.55265233 L269.489633,4.55265233 Z" id="Shape" fill="#FFFFFF" fill-rule="nonzero"></path>
            <path d="M285.618966,28.3534049 C284.160059,28.6177518 282.681903,28.7504437 281.201012,28.7499994 C276.401652,28.7499994 273.689431,25.213707 273.699994,19.8156301 L273.699994,16.9513443 C273.699994,11.5642839 276.401652,8.0390091 281.232796,8.04999983 C282.713948,8.05425491 284.19202,8.19062503 285.65075,8.45763547 C286.212264,8.56780031 286.349994,8.75508053 286.349994,9.26183878 L286.349994,10.5838168 C286.348056,10.743096 286.281186,10.8940331 286.166023,10.9990762 C286.05086,11.1041193 285.898228,11.153394 285.746101,11.134641 L285.608371,11.134641 C284.156415,10.953582 282.695147,10.8652844 281.232796,10.8702454 C278.404034,10.8702454 276.814842,12.8091465 276.804247,16.9623608 L276.804247,19.8266466 C276.804247,23.9357949 278.351061,25.918762 281.211606,25.918762 C282.673632,25.9361685 284.135209,25.8552119 285.587182,25.6763994 L285.724912,25.6763994 C285.877038,25.6576464 286.02967,25.706921 286.144834,25.8119641 C286.259997,25.9170072 286.326866,26.0679444 286.328805,26.2272235 L286.328805,27.5492016 C286.381778,28.0229104 286.18048,28.24324 285.618966,28.3534049 Z" id="Path" fill="#FFFFFF" fill-rule="nonzero"></path>
            <path d="M301.780553,28.5076476 L300.204889,28.5076476 C299.823815,28.5076476 299.514893,28.1772018 299.514893,27.7695763 L299.514893,26.965409 C297.935318,28.0562534 296.110562,28.6726409 294.231786,28.7499994 C291.317323,28.7499994 288.639725,27.3840166 288.649994,22.7903487 L288.649994,22.3497091 C288.649994,18.3839526 290.812699,16.4120903 296.888787,16.4231063 L299.432505,16.4231063 L299.432505,14.9579796 C299.432505,11.8735024 298.40266,10.8049513 295.766256,10.8049513 C294.0121,10.8046658 292.259077,10.9002624 290.514044,11.0913671 L290.349269,11.0913671 C290.040315,11.0913671 289.731361,10.9812072 289.731361,10.4965036 L289.731361,9.21864872 C289.731361,8.81105708 289.978524,8.59073728 290.452253,8.51362534 C292.210716,8.1911035 293.992482,8.03627141 295.776554,8.05095375 C300.544738,8.05095375 302.460251,10.6286955 302.449994,14.9579796 L302.449994,27.7695763 C302.449994,28.1687505 302.15356,28.495732 301.780553,28.5076476 Z M299.463401,18.7364643 L296.919682,18.7364643 C292.800301,18.7364643 291.667471,19.7168874 291.667471,22.3276771 L291.667471,22.7683167 C291.667471,25.4121544 292.831196,26.0731138 294.818798,26.0731138 C296.454838,26.0232719 298.05113,25.5224016 299.453102,24.6190031 L299.463401,18.7364643 Z" id="Shape" fill="#FFFFFF" fill-rule="nonzero"></path>
        </g>
    </g>
</svg>