<?xml version="1.0" encoding="UTF-8"?>
<svg width="195px" height="78px" viewBox="0 0 195 78" version="1.1" xmlns="http://www.w3.org/2000/svg" xmlns:xlink="http://www.w3.org/1999/xlink">
    <!-- Generator: Sketch 59.1 (86144) - https://sketch.com -->
    <title>Logo Xperience</title>
    <desc>Created with Sketch.</desc>
    <g id="Integral" stroke="none" stroke-width="1" fill="none" fill-rule="evenodd">
        <g id="Artboard-Copy-2" transform="translate(-48.000000, -48.000000)">
            <g id="Logo-Xperience" transform="translate(48.000000, 48.000000)">
                <path d="M149.060756,68.8251989 L146.788972,70.4430182 C143.915262,72.4908907 143.71462,73.7605717 143.71462,75.9040116 L143.71462,76.8255543 L151.423153,76.8255543 C151.649685,76.8255543 151.869743,76.9211217 151.869743,77.1805188 L151.869743,77.439916 C151.869743,77.6993132 151.669102,77.7880544 151.423153,77.7880544 L143.158,77.7880544 C142.913861,77.7880544 142.714948,77.5813322 142.71141,77.3238699 L142.71141,75.8903591 C142.71141,73.5830894 143.158,71.7946141 146.167629,69.6580004 L148.439414,68.0401811 C150.445833,66.6066703 151.028342,65.8284787 151.028342,64.3267055 C151.028342,62.2105705 149.889213,61.2002868 146.924891,61.2002868 C145.782027,61.2056103 144.642179,61.3244567 143.52045,61.5552513 C143.483808,61.5528837 143.447063,61.5528837 143.410421,61.5552513 C143.313834,61.5611061 143.219395,61.523673 143.150372,61.4521756 C143.081349,61.3806782 143.044161,61.2817648 143.047971,61.179808 L143.047971,60.9204108 C143.047971,60.6883186 143.248613,60.5927512 143.475144,60.5449675 C144.609616,60.2961913 145.76622,60.1771817 146.924891,60.190003 C150.27108,60.190003 152.102747,61.4596839 152.102747,64.2857481 C152.102747,66.0469184 151.410209,67.1527696 149.093118,68.7978939" id="Path" fill="#FFFFFF" fill-rule="nonzero"></path>
                <path d="M174.904732,68.8251989 L172.632947,70.4430182 C169.759237,72.4908907 169.558595,73.7605717 169.558595,75.9040116 L169.558595,76.8255543 L177.267129,76.8255543 C177.49366,76.8255543 177.713719,76.9211217 177.713719,77.1805188 L177.713719,77.439916 C177.713719,77.6993132 177.513077,77.7880544 177.267129,77.7880544 L169.001976,77.7880544 C168.757836,77.7880544 168.558924,77.5813322 168.555386,77.3238699 L168.555386,75.8903591 C168.555386,73.5830894 169.001976,71.7946141 172.011605,69.6580004 L174.283389,68.0401811 C176.289808,66.6066703 176.872317,65.8284787 176.872317,64.3267055 C176.872317,62.2105705 175.733189,61.2002868 172.768866,61.2002868 C171.626003,61.2056103 170.486155,61.3244567 169.364426,61.5552513 C169.327783,61.5528837 169.291038,61.5528837 169.254396,61.5552513 C169.15781,61.5611061 169.06337,61.523673 168.994347,61.4521756 C168.925324,61.3806782 168.888136,61.2817648 168.891946,61.179808 L168.891946,60.9204108 C168.891946,60.6883186 169.092588,60.5927512 169.319119,60.5449675 C170.453592,60.2961913 171.610195,60.1771817 172.768866,60.190003 C176.115056,60.190003 177.946722,61.4596839 177.946722,64.2857481 C177.946722,66.0469184 177.254184,67.1527696 174.937093,68.7978939" id="Path-Copy" fill="#FFFFFF" fill-rule="nonzero"></path>
                <path d="M160.329066,77.917753 C157.209408,77.917753 155.202988,75.8698804 155.202988,71.3645608 L155.202988,66.7295426 C155.202988,62.1969181 157.209408,60.1968292 160.329066,60.1968292 C163.448725,60.1968292 165.455144,62.1969181 165.455144,66.7295426 L165.455144,71.3645608 C165.455144,75.8971854 163.448725,77.917753 160.329066,77.917753 L160.329066,77.917753 Z M164.471351,66.7295426 C164.471351,63.0228933 163.002135,61.1388506 160.329066,61.1388506 C157.655998,61.1388506 156.186781,63.0228933 156.186781,66.7295426 L156.186781,71.3645608 C156.186781,75.0712101 157.655998,76.9757316 160.329066,76.9757316 C163.002135,76.9757316 164.471351,75.0712101 164.471351,71.3645608 L164.471351,66.7295426 Z" id="Shape" fill="#FFFFFF" fill-rule="nonzero"></path>
                <path d="M186.173042,77.917753 C183.053383,77.917753 181.046964,75.8698804 181.046964,71.3645608 L181.046964,66.7295426 C181.046964,62.1969181 183.053383,60.1968292 186.173042,60.1968292 C189.2927,60.1968292 191.299119,62.1969181 191.299119,66.7295426 L191.299119,71.3645608 C191.299119,75.8971854 189.2927,77.917753 186.173042,77.917753 L186.173042,77.917753 Z M190.315327,66.7295426 C190.315327,63.0228933 188.84611,61.1388506 186.173042,61.1388506 C183.499973,61.1388506 182.030757,63.0228933 182.030757,66.7295426 L182.030757,71.3645608 C182.030757,75.0712101 183.499973,76.9757316 186.173042,76.9757316 C188.84611,76.9757316 190.315327,75.0712101 190.315327,71.3645608 L190.315327,66.7295426 Z" id="Shape-Copy" fill="#FFFFFF" fill-rule="nonzero"></path>
                <path d="M31.2418906,52.7220944 L26.7112664,52.7220944 C25.97278,52.7804149 25.2897252,52.306685 25.04788,51.5684596 L21.1256538,42.3189019 L13.5012604,51.5684596 C12.9892666,52.3082158 12.1755054,52.7487384 11.3071438,52.7562256 L7.02246765,52.7562256 C6.19401064,52.7562256 6.09045351,52.3671299 6.69885163,51.5889383 L18.7697292,36.8237773 L12.7828328,22.672978 C12.4462722,21.8947864 12.7181096,21.5329956 13.5918729,21.5329956 L17.7212133,21.5329956 C18.4972298,21.470675 19.1926619,22.0362345 19.3328211,22.843634 L22.886125,31.8747519 L30.4199059,22.6661517 C30.9426947,21.9398073 31.7558733,21.5109848 32.6204949,21.5056906 L37.0540344,21.5056906 C37.9407423,21.5056906 38.0442994,21.8947864 37.3711781,22.6661517 L25.5462487,37.0012595 L32.0185691,51.7254631 C32.3033512,52.3807823 32.0509307,52.7220944 31.2418906,52.7220944 Z" id="Path" fill="#FFFFFF" fill-rule="nonzero"></path>
                <path d="M106.307863,28.7483332 L102.657474,28.7483332 C102.283655,28.7144043 101.912504,28.8396367 101.626774,29.0961088 C101.341044,29.3525808 101.164491,29.7189681 101.136479,30.1135816 L97.0136107,51.2749312 C96.8647473,52.2101263 97.2142526,52.681137 98.0685989,52.681137 L101.615431,52.681137 C102.407316,52.7324139 103.093596,52.1085465 103.162315,51.2749312 L107.311072,29.9429255 C107.511714,29.1579077 107.168681,28.7483332 106.307863,28.7483332 Z" id="Path" fill="#FFFFFF" fill-rule="nonzero"></path>
                <path d="M18.3490284,16.9662398 C18.1506549,15.8274239 17.1723538,15.0278549 16.0772439,15.1095021 L10.2521555,15.1095021 C9.02672954,15.1095021 8.64917751,15.6578768 9.11949946,16.7546263 L17.5917669,36.7009049 C17.5917669,36.7009049 23.1514901,30.8985994 21.6628564,25.3010811 L18.3490284,16.9662398 Z" id="Path" fill="#FFFFFF" fill-rule="nonzero"></path>
                <path d="M1.00320966,59.1114849 L7.04188461,59.1114849 C8.26764811,59.1012795 9.4168982,58.481315 10.1421261,57.4390275 L24.6854301,39.8478024 C25.8267529,38.4714181 26.1232684,36.528784 25.4491639,34.8441671 L21.6628564,25.2874286 C23.1514901,30.7074646 17.5917669,36.6872524 17.5917669,36.6872524 L0.550147235,57.4663325 C-0.30851394,58.5676328 -0.15749313,59.1160076 1.00320966,59.1114849 Z" id="Path" fill="#FF3D35"></path>
                <path d="M57.2541464,42.632909 L57.3318142,42.3462069 C57.6596763,40.9501511 57.876176,39.527603 57.9790463,38.0934582 C58.3932748,31.6039777 55.4958327,28.3592374 49.28672,28.3592374 C48.581237,28.3592374 47.8369202,28.4001949 47.0667141,28.4752835 C46.2965079,28.5503722 45.5327741,28.6732445 44.7819849,28.8302481 L42.9373736,29.2261701 C42.4584219,29.33539 41.89533,29.4719148 41.248098,29.6425709 C40.600866,29.8132269 40.2643053,29.9019681 40.238416,29.9019681 C39.4012339,30.1013784 38.7692594,30.8277627 38.6526975,31.7245746 L32.8276091,61.3095066 C32.6463842,62.2447018 32.9829448,62.674755 33.8308188,62.674755 L37.2417317,62.674755 C38.0346854,62.7257274 38.7200614,62.0970267 38.7821439,61.2617229 L40.4261133,52.8108356 C41.7465964,53.1082787 43.0894474,53.2818874 44.438952,53.32963 C46.0030161,53.3449389 47.559156,53.0936827 49.0472441,52.5855696 L57.2541464,42.632909 Z M41.4228507,47.6160656 L44.1023913,33.8748408 C45.2713783,33.5705607 46.4710503,33.416986 47.6751122,33.4174814 C50.6092308,33.4174814 51.9554734,35.2378137 51.7138401,38.878476 C51.6394016,41.2811041 50.8916622,43.6066053 49.5650297,45.5613668 C48.3581784,47.254667 46.4393339,48.2142358 44.4324796,48.1280337 C43.4106097,48.1174462 42.3960578,47.9448607 41.4228507,47.6160656 Z" id="Shape" fill="#FFFFFF" fill-rule="nonzero"></path>
                <path d="M79.1500063,30.40711 C77.9461548,29.0418616 75.9699396,28.3592374 73.2213608,28.3592374 C71.5579377,28.3356396 69.9036435,28.6221953 68.3347589,29.2056914 L60.8398119,38.257288 C60.427289,39.7011708 60.1710796,41.1896681 60.0760781,42.6943452 C59.8301299,46.4487782 60.5377703,49.1792749 62.1989992,50.8858354 C63.8602281,52.5923958 66.1816337,53.434299 69.1632159,53.4115449 C71.3454146,53.373125 73.5165564,53.0754425 75.6355364,52.5241334 C76.4613317,52.3622542 77.0757642,51.6268799 77.1241701,50.7424843 L77.305395,48.6946118 C77.3701182,48.2304273 77.305395,47.9164202 77.0788638,47.7594166 C76.8048601,47.5953422 76.4773098,47.5630328 76.1792113,47.6706755 C74.4636113,48.068611 72.712639,48.2722765 70.9560487,48.278211 C69.0920204,48.278211 67.6918418,47.7798954 66.7555128,46.7832641 C65.8170263,45.7798065 65.5516612,44.2712071 65.9464727,42.2506395 L66.0759191,41.6362777 L77.9526271,41.6362777 C78.7937337,41.6520356 79.5329292,41.0510223 79.7325152,40.1891145 C80.2938379,38.8595462 80.6290337,37.4362033 80.7227802,35.9841495 C80.9040052,33.6359223 80.3603303,31.7723583 79.1500063,30.40711 Z M75.4284221,37.8135823 L66.962627,37.8135823 C67.1060175,37.1360688 67.3345695,36.4817906 67.6422207,35.8681034 C68.0894085,35.0786431 68.7028477,34.408303 69.4350534,33.908972 C70.330454,33.2544748 71.4010359,32.9195652 72.4899886,32.9532981 C73.7844527,32.9532981 74.6711606,33.3901776 75.1501123,34.2639366 C75.6404678,35.3745125 75.7391505,36.6331406 75.4284221,37.8135823 L75.4284221,37.8135823 Z" id="Shape" fill="#FFFFFF" fill-rule="nonzero"></path>
                <path d="M98.7481926,28.3592374 L97.8161784,28.3592374 C95.2672451,28.3959864 92.8036601,29.3333933 90.8196001,31.0214717 L90.9166849,30.181844 C91.0072973,29.2466488 90.6189581,28.8165956 89.7451949,28.8165956 L89.4992467,28.8165956 L84.7097296,34.6325536 L81.4217908,51.3158886 C81.2405658,52.2510837 81.5900711,52.7220944 82.4703067,52.7220944 L85.8359133,52.7220944 C86.628867,52.7730668 87.314243,52.1443661 87.3763256,51.3090624 L90.6513197,34.8100359 C91.7645588,34.0728018 93.5185577,33.7041847 95.9133162,33.7041847 C96.3448042,33.7041847 96.7266712,33.7178372 97.0589169,33.7451422 C97.706149,33.8407096 98.191573,33.4038301 98.5216613,32.44133 L99.3501184,29.9156205 C99.7125683,28.9804254 99.5054541,28.4684573 98.7481926,28.3592374 Z" id="Path" fill="#FFFFFF" fill-rule="nonzero"></path>
                <path d="M152.572009,32.3457626 C152.413709,31.3226705 151.88747,30.4033506 151.102792,29.7790957 C150.359992,29.2153972 149.520221,28.8096486 148.630366,28.5845034 C147.56861,28.3331465 146.482214,28.2162747 145.394206,28.2363651 C143.41485,28.2702712 141.445503,28.5404919 139.523811,29.0418616 L132.274812,37.8408873 L129.614689,51.3295411 C129.433464,52.2647362 129.782969,52.7357469 130.663205,52.7357469 L134.015867,52.7357469 C134.807752,52.7870239 135.494032,52.1631564 135.562751,51.3295411 L138.999553,34.134238 C140.408711,33.409914 141.963214,33.0562488 143.530178,33.1034755 C145.959455,33.1034755 146.904414,34.4687238 146.365054,37.1992206 L143.594901,51.3568461 C143.413676,52.2920412 143.756709,52.7630519 144.611055,52.7630519 L147.983134,52.7630519 C148.765136,52.8196765 149.451572,52.2188704 149.542963,51.3978035 L152.423146,36.6735999 C152.751307,35.2566759 152.801961,33.7840408 152.572009,32.3457626 L152.572009,32.3457626 Z" id="Path" fill="#FFFFFF" fill-rule="nonzero"></path>
                <path d="M127.465878,30.40711 C126.262027,29.0418616 124.285811,28.3592374 121.537233,28.3592374 C119.87381,28.3356396 118.219515,28.6221953 116.650631,29.2056914 L109.168628,38.257288 C108.750883,39.7001266 108.492437,41.1889982 108.398422,42.6943452 C108.146002,46.4282995 108.857957,49.1383175 110.514871,50.8243992 C112.171785,52.5104809 114.495348,53.3501087 117.48556,53.3501087 C119.667763,53.3117467 121.838911,53.0140635 123.957881,52.4626972 C124.785015,52.3013406 125.401626,51.5665539 125.452987,50.6810481 L125.634212,48.6331756 C125.692462,48.1689911 125.634212,47.854984 125.40768,47.6979805 C125.131419,47.5336016 124.801791,47.5013196 124.501555,47.6092393 C122.785956,48.0071749 121.034983,48.2108403 119.278393,48.2167748 C117.420837,48.2167748 116.042233,47.7184592 115.077857,46.7218279 C114.113481,45.7251966 113.874005,44.2097709 114.275289,42.1892033 L114.404736,41.5748416 L126.274971,41.5748416 C127.116886,41.5931818 127.857436,40.9910674 128.054859,40.1276783 C128.616182,38.79811 128.951378,37.3747671 129.045124,35.9227133 C129.285702,33.9310315 128.71146,31.9254603 127.465878,30.40711 L127.465878,30.40711 Z M123.744294,37.8135823 L115.278499,37.8135823 C115.413807,37.1470984 115.631406,36.5022083 115.925731,35.8954084 C116.374928,35.1075721 116.987968,34.4376684 117.718564,33.936277 C118.605448,33.2762917 119.668845,32.9319364 120.754082,32.9532981 C122.048546,32.9532981 122.935254,33.3901776 123.414206,34.2639366 C123.925222,35.3668362 124.042406,36.6269865 123.744294,37.8135823 L123.744294,37.8135823 Z" id="Shape" fill="#FFFFFF" fill-rule="nonzero"></path>
                <path d="M173.264017,28.8370743 C171.815941,28.523519 170.341112,28.3679715 168.86284,28.3728899 C166.718796,28.3436833 164.592237,28.7829552 162.61705,29.6630496 L155.497498,38.1617206 C155.071279,39.7194464 154.808653,41.3218533 154.714347,42.9400899 C154.485659,46.3987191 155.214873,48.9995172 156.901991,50.7424843 C158.58911,52.4854514 160.850107,53.3592103 163.684983,53.3637612 C165.505628,53.3611335 167.319624,53.132009 169.089371,52.681137 C169.858267,52.5481695 170.436615,51.8701056 170.48092,51.0496652 L170.739813,49.2202324 C170.82881,48.852843 170.747143,48.4627092 170.519754,48.1689911 C170.247932,47.9571586 169.895201,47.8985529 169.574795,48.0119876 C168.224675,48.3282565 166.847702,48.4997843 165.464871,48.5239557 C162.038856,48.5239557 160.457453,46.5602735 160.720661,42.632909 C160.93209,39.329008 161.700138,36.9853316 163.024807,35.60188 C164.459809,34.1668803 166.389509,33.4144654 168.364471,33.5198762 C169.486568,33.5307235 170.605849,33.6403238 171.710661,33.8475358 C172.091318,33.9575306 172.498323,33.8926997 172.831203,33.6690474 C173.164082,33.4453952 173.391817,33.0837623 173.458187,32.6734222 L174.040696,30.5709398 C174.364312,29.6357446 174.105419,29.0418616 173.264017,28.8370743 Z" id="Path" fill="#FFFFFF" fill-rule="nonzero"></path>
                <path d="M192.726285,30.40711 C191.513804,29.0418616 189.537588,28.3592374 186.797639,28.3592374 C185.134216,28.3356396 183.479922,28.6221953 181.911038,29.2056914 L174.429035,38.257288 C174.012125,39.7006334 173.751571,41.1891411 173.652357,42.6943452 C173.406409,46.4305749 174.114049,49.1405929 175.775278,50.8243992 C177.436507,52.5082055 179.757912,53.3501087 182.739495,53.3501087 C184.921693,53.3116888 187.092835,53.0140064 189.211815,52.4626972 C190.03761,52.300818 190.652043,51.5654437 190.700449,50.6810481 L190.881674,48.6331756 C190.939925,48.1689911 190.881674,47.854984 190.655142,47.6979805 C190.381139,47.533906 190.053588,47.5015967 189.75549,47.6092393 C188.039778,48.0064582 186.288879,48.2101152 184.532327,48.2167748 C182.668299,48.2167748 181.26812,47.7184592 180.331791,46.7218279 C179.395462,45.7251966 179.125782,44.2143217 179.522751,42.1892033 L179.652198,41.5748416 L191.528906,41.5748416 C192.370012,41.5905995 193.109208,40.9895861 193.308794,40.1276783 C193.870117,38.79811 194.205312,37.3747671 194.299059,35.9227133 C194.460867,33.6359223 193.936609,31.7723583 192.726285,30.40711 Z M188.991756,37.8135823 L180.538906,37.8135823 C180.684347,37.1357344 180.91508,36.4814429 181.224972,35.8681034 C181.670284,35.0771321 182.2841,34.4063801 183.017804,33.908972 C183.904285,33.2481191 184.967959,32.9036743 186.053323,32.9259932 C187.347787,32.9259932 188.234495,33.3628727 188.713446,34.2366316 C189.210124,35.3551126 189.308903,36.6246661 188.991756,37.8135823 L188.991756,37.8135823 Z" id="Shape" fill="#FFFFFF" fill-rule="nonzero"></path>
                <path d="M89.3180217,18.1540059 C88.1747693,18.1642759 87.0336679,18.0475868 85.9135812,17.8058676 C85.6287991,17.7376052 85.4605188,17.6010803 85.4605188,17.3553356 L85.4605188,16.5566653 C85.4669755,16.4561932 85.5121252,16.3628813 85.5854762,16.298413 C85.6588271,16.2339447 85.7539924,16.2039335 85.848858,16.2153532 L85.9329981,16.2153532 C86.9685694,16.3518781 88.5219263,16.4747504 89.3180217,16.4747504 C90.7225152,16.4747504 91.4538875,16.0924809 91.4603598,14.8637573 C91.4603598,14.1811332 91.0720206,13.7442537 89.8422797,12.9728884 L87.66758,11.60764 C86.3731159,10.7680123 85.4669911,9.78503344 85.4734634,8.35152266 C85.4734634,5.98964299 87.1562667,5.32749754 89.3568556,5.33427167 C90.4826087,5.33399882 91.6063557,5.43447787 92.7159899,5.63467842 C93.000772,5.68246211 93.1302184,5.83946567 93.1302184,6.09203662 L93.1302184,6.84292322 C93.1430891,6.94788531 93.1090638,7.05320626 93.0381064,7.12804378 C92.967149,7.20288129 92.8672886,7.23876725 92.7677685,7.22519276 L92.7030453,7.22519276 C91.9457838,7.15693034 90.5671796,7.04088423 89.3568556,7.04088423 C88.1465317,7.04088423 87.3763256,7.19788779 87.3763256,8.35152266 C87.3763256,9.03414684 87.8682219,9.46420008 88.8649593,10.0785618 L90.9943527,11.4438102 C92.7807131,12.5633139 93.363222,13.5394664 93.363222,14.8569311 C93.363222,17.1846796 91.7451419,18.1608321 89.3180217,18.1540059 Z" id="Path" fill="#FFFFFF" fill-rule="nonzero"></path>
                <path d="M103.841909,18.0174811 L102.761031,18.0174811 C102.64885,18.0157628 102.542128,17.9661254 102.465273,17.8799212 C102.388418,17.7937171 102.348004,17.6783201 102.353275,17.5601229 L102.353275,17.1300696 C101.323875,17.8071821 100.136126,18.1688101 98.9229452,18.1744846 C96.334017,18.1744846 95.1689994,16.4610979 95.1754449,13.4370728 L95.1754449,5.92820682 C95.1790089,5.67828467 95.3721264,5.47767486 95.6091172,5.47767486 L96.6446884,5.47767486 C96.8816528,5.48140545 97.071888,5.68508308 97.0718616,5.93503306 L97.0718616,13.4438991 C97.0718616,15.7443425 97.8032338,16.4474454 99.4407308,16.4474454 C100.462641,16.3926091 101.459021,16.0913612 102.353275,15.5668603 L102.353275,5.96916427 C102.366398,5.72368692 102.553999,5.52877963 102.786921,5.51863231 L103.841909,5.51863231 C104.075295,5.52606477 104.259781,5.72975965 104.25619,5.97599051 L104.25619,17.5806016 C104.257904,17.6970304 104.21483,17.8092383 104.13676,17.8915764 C104.058691,17.9739146 103.952301,18.0193443 103.841909,18.0174811 L103.841909,18.0174811 Z" id="Path" fill="#FFFFFF" fill-rule="nonzero"></path>
                <path d="M111.045601,18.1949634 C110.199093,18.1776996 109.355143,18.090972 108.521396,17.9355662 L108.521396,22.0313112 C108.523131,22.1465466 108.480938,22.2576942 108.40428,22.3398273 C108.327622,22.4219603 108.222915,22.468191 108.11364,22.468191 L107.013346,22.468191 C106.906898,22.468191 106.805061,22.42238 106.731649,22.3410817 C106.658236,22.2597834 106.619684,22.1502661 106.625007,22.0381375 L106.625007,6.38556502 C106.625007,6.09203662 106.68973,5.95551178 107.078069,5.86677064 C108.378192,5.53887931 109.708921,5.36487325 111.045601,5.34797626 C114.281762,5.34797626 115.744506,7.56650485 115.738114,10.9727995 L115.738114,12.6588812 C115.750978,16.1948745 114.197621,18.1949634 111.045601,18.1949634 Z M113.861061,10.986452 C113.861061,8.59726737 113.213829,7.04771047 111.065018,7.04771047 C110.21924,7.05103487 109.375096,7.12636823 108.540813,7.27297645 L108.540813,16.2767894 C109.375489,16.4209468 110.219282,16.4985307 111.065018,16.5088816 C113.174995,16.5088816 113.867533,15.0548921 113.874005,12.62475 L113.861061,10.986452 Z" id="Shape" fill="#FFFFFF" fill-rule="nonzero"></path>
                <path d="M126.559753,12.4404415 L119.336644,12.4404415 L119.336644,12.7612749 C119.336644,15.4917716 120.346326,16.4679242 122.326856,16.4747504 C123.609887,16.4795961 124.891889,16.3975122 126.164942,16.2290057 L126.274971,16.2290057 C126.362136,16.2171699 126.449894,16.2456708 126.515648,16.3071691 C126.581401,16.3686674 126.618724,16.4571527 126.618004,16.5498391 L126.618004,17.3212044 C126.618004,17.6147328 126.533864,17.7785626 126.184359,17.846825 C124.90512,18.1091003 123.604097,18.2348823 122.300967,18.2222683 C119.815596,18.2222683 117.407892,16.9867186 117.407892,12.7612749 L117.407892,10.7134023 C117.407892,7.45728498 119.116585,5.38893371 122.203882,5.39574311 C125.291179,5.4025862 126.948093,7.49824243 126.94162,10.7270548 L126.94162,11.9762571 C126.96751,12.2356543 126.818646,12.4404415 126.559753,12.4404415 Z M125.051703,10.7065761 C125.051703,8.13990916 124.132633,7.13645162 122.236243,7.12959435 C120.339853,7.12279913 119.343116,8.24230279 119.336644,10.6997498 L119.336644,10.9045371 L125.051703,10.9045371 L125.051703,10.7065761 Z" id="Shape" fill="#FFFFFF" fill-rule="nonzero"></path>
                <path d="M133.776391,7.12962538 C132.718259,7.1384505 131.684822,7.46780425 130.799123,8.07847299 L130.799123,17.6352115 C130.792358,17.8847883 130.602115,18.0854346 130.365478,18.0925697 L129.31049,18.0925697 C129.077103,18.0851373 128.892617,17.8814424 128.896261,17.6352115 L128.896261,6.03060044 C128.892757,5.91238585 128.934846,5.79772385 129.012912,5.71281608 C129.090978,5.62790831 129.198349,5.58001072 129.31049,5.58006849 L130.320172,5.58006849 C130.432353,5.5817867 130.539075,5.63142419 130.61593,5.71762834 C130.692785,5.80383249 130.733199,5.91922943 130.727928,6.03742669 L130.727928,6.51526361 C131.605958,5.82003755 132.672024,5.43966866 133.769918,5.42989117 C134.074117,5.42989117 134.222981,5.566416 134.222981,5.83946567 L134.222981,6.74052959 C134.229453,6.99310054 134.08059,7.12962538 133.776391,7.12962538 Z" id="Path" fill="#FFFFFF" fill-rule="nonzero"></path>
                <path d="M137.407362,18.0789172 L136.281179,18.0789172 C136.173519,18.0736619 136.072388,18.0229528 136.00056,17.9382086 C135.928731,17.8534644 135.892243,17.7418093 135.899312,17.6283853 L135.899312,1.40923474 C135.894035,1.29647068 135.932399,1.18628016 136.005614,1.10391445 C136.078828,1.02154874 136.180616,0.974068843 136.287651,0.972354195 L137.413835,0.972354195 C137.519762,0.972098195 137.62103,1.01825778 137.693437,1.09980161 C137.765845,1.18134545 137.802883,1.29094613 137.795702,1.4024085 L137.795702,17.621559 C137.806757,17.8604141 137.633677,18.0642554 137.407362,18.0789172 Z" id="Path" fill="#FFFFFF" fill-rule="nonzero"></path>
                <path d="M144.662834,18.2495733 C141.491397,18.2495733 139.879789,16.0310447 139.886242,12.6930125 L139.886242,10.959147 C139.886242,7.61428854 141.510814,5.41623868 144.682251,5.41623868 C147.853688,5.41623868 149.510602,7.63476727 149.510602,10.9727995 L149.510602,12.7066649 C149.510602,16.0720021 147.834271,18.2495733 144.662834,18.2495733 Z M147.568905,10.9727995 C147.568905,8.6518773 146.68867,7.17058283 144.662834,7.17058283 C142.636997,7.17058283 141.769706,8.61774609 141.763234,10.9659733 L141.763234,12.6930125 C141.763234,15.0139347 142.61758,16.4952291 144.649889,16.4952291 C146.682198,16.4952291 147.562433,15.0412396 147.562433,12.6998387 L147.568905,10.9727995 Z M147.905466,0.7334368 L145.465401,3.60045836 C145.271232,3.82572434 145.206508,3.93494421 144.967033,3.93494421 L143.802015,3.93494421 C143.672569,3.93494421 143.607845,3.86668179 143.607845,3.77794065 C143.609003,3.69124635 143.641399,3.60826591 143.698458,3.54584843 L145.834324,0.712958074 C146.028493,0.460387127 146.093216,0.371645984 146.352109,0.371645984 L147.77602,0.371645984 C147.924883,0.371645984 148.009023,0.419429676 148.009023,0.535475787 C148.00371,0.603861849 147.973568,0.667443758 147.924883,0.712958074 L147.905466,0.7334368 Z" id="Shape" fill="#FFFFFF" fill-rule="nonzero"></path>
                <path d="M160.83069,7.12962538 L160.054012,7.28662894 C160.586286,7.93169009 160.849897,8.77560817 160.785384,9.62802988 L160.785384,9.81233841 C160.785384,12.3175692 159.316167,13.69647 155.989394,13.69647 C155.135416,13.7216945 154.285474,13.563776 153.491079,13.2322856 C153.175817,13.3443737 152.960988,13.6528454 152.953876,14.0036509 C152.953876,14.3927467 153.122156,14.5975339 153.601108,14.7340588 L156.837268,15.6078177 C158.947245,16.181222 160.973081,16.8160625 160.973081,18.9595024 L160.973081,19.1369847 C160.973081,21.3213821 159.588004,22.6593255 156.047645,22.6593255 C152.643205,22.6593255 151.089848,21.2940771 151.0963,19.0277649 L151.0963,18.8024989 C151.105209,17.6729098 151.606494,16.610481 152.455507,15.9218248 L152.306644,15.8535624 C151.66985,15.5203799 151.280958,14.8207009 151.316379,14.0719133 L151.316379,14.0719133 C151.312779,13.3978361 151.650914,12.7730909 152.203087,12.4336153 C151.517572,11.7550061 151.156547,10.7880597 151.219294,9.79868592 L151.219294,9.6143774 C151.219294,7.56650485 152.300172,5.58689473 156.008811,5.59370337 L160.733605,5.59370337 C160.998823,5.60024829 161.215256,5.81962217 161.231974,6.09886286 L161.231974,6.6927459 C161.219029,6.99310054 161.070166,7.08184168 160.83069,7.12962538 Z M159.070219,18.9526762 C159.070219,18.0652648 158.377681,17.7034739 156.442457,17.1778533 L154.002392,16.4952291 C153.306835,17.0303342 152.908995,17.8951069 152.940931,18.8024989 L152.940931,19.0072861 C152.940931,20.2837933 153.652887,21.0551587 156.047645,21.0551587 C158.442404,21.0551587 159.063747,20.331577 159.070219,19.0823748 L159.070219,18.9526762 Z M158.908411,9.62802988 C158.908411,8.26278152 158.332374,7.19106155 156.002339,7.19106155 C153.672304,7.19106155 153.089795,8.34469642 153.083322,9.6143774 L153.083322,9.79868592 C153.083322,10.8021435 153.516968,12.1196081 155.995867,12.1264344 C158.325902,12.1264344 158.908411,11.1707605 158.908411,9.81233841 L158.908411,9.62802988 Z" id="Shape" fill="#FFFFFF" fill-rule="nonzero"></path>
                <path d="M164.468134,18.1198747 L163.432563,18.1198747 C163.193067,18.1198747 162.998917,17.9151085 162.998917,17.6625165 L162.998917,6.05790541 C162.998917,5.80531345 163.193067,5.60054721 163.432563,5.60054721 L164.468134,5.60054721 C164.705098,5.60427781 164.895334,5.80795543 164.895307,6.05790541 L164.895307,17.6625165 C164.895334,17.9124665 164.705098,18.1161441 164.468134,18.1198747 L164.468134,18.1198747 Z M164.532857,3.6072846 L163.432563,3.6072846 C163.318139,3.6072846 163.208493,3.55889593 163.128194,3.47292262 C163.047895,3.38694931 163.003656,3.27059323 163.00539,3.1499264 L163.00539,1.33414608 C163.00539,1.08155412 163.199539,0.876787878 163.439035,0.876787878 L164.53933,0.876787878 C164.776294,0.880518473 164.966529,1.0841961 164.966503,1.33414608 L164.966503,3.15675264 C164.962966,3.40667479 164.769848,3.60731244 164.532857,3.6072846 L164.532857,3.6072846 Z" id="Shape" fill="#FFFFFF" fill-rule="nonzero"></path>
                <path d="M174.286644,18.044786 C173.395388,18.2085857 172.492373,18.2908067 171.587687,18.2905314 C168.655725,18.2905314 166.998811,16.0993071 167.005265,12.7544486 L167.005265,10.9796258 C167.005265,7.64159351 168.655725,5.45719613 171.607103,5.46400642 C172.511949,5.46664303 173.414914,5.55114327 174.306061,5.71659332 C174.649094,5.78485574 174.733234,5.90090185 174.733234,6.21490897 L174.733234,7.03405799 C174.73205,7.13275355 174.691199,7.22628008 174.620845,7.29136887 C174.550491,7.35645767 174.457247,7.38699016 174.364312,7.37537008 L174.280172,7.37537008 C173.393162,7.26317888 172.500464,7.20846625 171.607103,7.21154028 C169.878994,7.21154028 168.908146,8.41295884 168.901674,10.986452 L168.901674,12.7612749 C168.901674,15.3074631 169.846632,16.5361866 171.594159,16.5361866 C172.48732,16.5469724 173.380207,16.4968085 174.267227,16.3860093 L174.351367,16.3860093 C174.444302,16.3743892 174.537546,16.4049217 174.6079,16.4700105 C174.678255,16.5350993 174.719105,16.6286258 174.72029,16.7273214 L174.72029,17.5464704 C174.752651,17.8399988 174.629677,17.9765236 174.286644,18.044786 Z" id="Path" fill="#FFFFFF" fill-rule="nonzero"></path>
                <path d="M184.402881,18.1540059 L183.412616,18.1540059 C183.17312,18.1540059 182.97897,17.9492397 182.97897,17.6966477 L182.97897,17.198332 C181.986247,17.874292 180.839434,18.2562467 179.65867,18.3041832 C177.827003,18.3041832 176.1442,17.4577292 176.150654,14.6111864 L176.150654,14.3381367 C176.150654,11.8806897 177.50986,10.6587924 181.328529,10.6656186 L182.927192,10.6656186 L182.927192,9.75772847 C182.927192,7.84638077 182.27996,7.18423531 180.623046,7.18423531 C179.520603,7.18405839 178.418872,7.24329639 177.322162,7.3617176 L177.218605,7.3617176 C177.024436,7.3617176 176.830266,7.29345518 176.830266,6.99310054 L176.830266,6.20125649 C176.830266,5.94868554 176.985602,5.81216071 177.283328,5.76437701 C178.388478,5.56452098 179.508274,5.4685767 180.629518,5.47767486 C183.626202,5.47767486 184.830054,7.07501544 184.823608,9.75772847 L184.823608,17.6966477 C184.823608,17.9440027 184.637307,18.1466222 184.402881,18.1540059 Z M182.946609,12.0991294 L181.347946,12.0991294 C178.759018,12.0991294 178.047062,12.7066649 178.047062,14.3244842 L178.047062,14.5975339 C178.047062,16.235832 178.778434,16.6454065 180.027592,16.6454065 C181.055803,16.6145211 182.059032,16.3041485 182.940137,15.7443425 L182.946609,12.0991294 Z" id="Shape" fill="#FFFFFF" fill-rule="nonzero"></path>
            </g>
        </g>
    </g>
</svg>