<svg xmlns="http://www.w3.org/2000/svg" width="174" height="52" viewBox="0 0 174 52">
    <g fill="none" fill-rule="evenodd">
        <path fill="#111" d="M57.82 31.968c.982 1.104 2.253 1.655 3.81 1.655.696 0 1.265-.143 1.707-.434.441-.29.662-.697.662-1.221 0-.463-.131-.785-.395-.97-.27-.19-.63-.294-1.08-.31l-2.136-.2c-1.012-.098-1.836-.464-2.47-1.093-.652-.615-.985-1.472-.999-2.577.014-1.325.452-2.322 1.31-2.985.834-.662 1.894-.994 3.177-.994.557 0 1.055.036 1.495.111.44.083.855.2 1.24.348a6.994 6.994 0 0 1 1.994 1.306l-1.497 1.877a7.405 7.405 0 0 0-1.474-.893c-.512-.208-1.1-.312-1.765-.312-.759 0-1.288.145-1.59.436-.319.29-.477.663-.477 1.12-.016.291.105.544.36.76.233.241.643.393 1.23.46l1.997.163c1.254.099 2.16.506 2.716 1.22.519.699.778 1.583.778 2.653-.016 1.253-.49 2.222-1.426 2.901-.926.698-2.112 1.055-3.557 1.07-1.962 0-3.728-.768-5.297-2.31l1.686-1.781zM69.226 23h2.413v7.696c0 .873.228 1.554.685 2.044.446.49 1.019.735 1.714.735.696 0 1.263-.246 1.703-.735.448-.49.672-1.171.672-2.044V23h2.414v12.912h-2.414v-1.38h-.046c-.795 1.02-1.833 1.529-3.114 1.529-.995-.018-1.893-.406-2.696-1.168-.873-.744-1.316-1.845-1.331-3.3V23zM87.171 33.475c.573 0 1.024-.117 1.355-.35.333-.242.57-.549.709-.923.153-.391.259-.823.312-1.299a47.945 47.945 0 0 0 0-2.946 4.756 4.756 0 0 0-.312-1.296c-.14-.393-.376-.7-.709-.925-.33-.208-.782-.312-1.355-.312-.541 0-.969.122-1.286.362a2.093 2.093 0 0 0-.73.948c-.148.391-.244.816-.289 1.274-.047.482-.07.97-.07 1.46 0 .458.023.915.07 1.373.045.482.141.92.29 1.31.153.391.396.709.729.949.317.25.745.375 1.286.375zm-4.79-10.476h2.414v1.345c.804-.963 1.838-1.465 3.104-1.506 1.474.041 2.552.606 3.23 1.693.332.405.558.941.682 1.603.115.656.174 1.768.174 3.335 0 1.526-.059 2.62-.174 3.283-.124.664-.352 1.207-.683 1.63a3.7 3.7 0 0 1-1.309 1.192c-.532.309-1.172.47-1.922.486a3.196 3.196 0 0 1-1.655-.432 5.286 5.286 0 0 1-1.447-1.09v6.597h-2.413V22.999zM101.996 28.3c-.03-1.008-.282-1.771-.753-2.288-.466-.491-1.062-.737-1.79-.737-.727 0-1.322.246-1.788.737-.457.517-.707 1.28-.753 2.288h5.084zm-5.084 2.138c0 1.038.277 1.825.834 2.365.518.547 1.197.82 2.04.82.981 0 1.859-.419 2.631-1.256l1.75 1.605c-1.228 1.41-2.67 2.105-4.331 2.089-.633 0-1.25-.1-1.853-.3a4.192 4.192 0 0 1-.88-.435 4.17 4.17 0 0 1-.845-.583c-.51-.483-.924-1.153-1.24-2.016-.347-.83-.52-1.908-.52-3.234 0-1.277.15-2.339.452-3.185.3-.862.686-1.542 1.157-2.04a4.316 4.316 0 0 1 1.61-1.094 4.838 4.838 0 0 1 1.736-.336c1.376.016 2.536.502 3.486 1.456.966.97 1.456 2.306 1.471 4.006v2.138h-7.498zM107.343 23h2.413v1.368h.05c.797-1.02 1.84-1.53 3.13-1.53a3.763 3.763 0 0 1 2.526.992l-1.763 2.243c-.51-.432-1.04-.649-1.587-.649-.62 0-1.149.217-1.59.647-.495.425-.75 1.11-.766 2.055v7.786h-2.413V23zM116.875 17.775h2.414V32.59c0 .59.302.884.907.884h.836v2.437h-1.078c-.879 0-1.605-.235-2.176-.707-.601-.478-.903-1.284-.903-2.415V17.775zM128.092 17.627h3.18l-3.365 3.704h-1.99l2.175-3.704zm2 11.841c0-.923-.04-1.597-.116-2.02a2.464 2.464 0 0 0-.477-1.075 1.793 1.793 0 0 0-.79-.686c-.333-.176-.719-.262-1.16-.262-.41 0-.79.086-1.138.262a2.175 2.175 0 0 0-.812.686c-.21.307-.36.666-.454 1.074-.093.424-.14 1.089-.14 1.996 0 .898.047 1.556.14 1.972.093.424.243.798.454 1.123.208.251.479.472.812.662a2.41 2.41 0 0 0 1.138.274 2.37 2.37 0 0 0 1.16-.274c.35-.19.612-.411.79-.662.241-.325.398-.7.477-1.123.076-.416.116-1.065.116-1.947zm-7.5-.025c0-1.363.105-2.408.314-3.14.215-.715.548-1.318.996-1.807.331-.429.795-.812 1.39-1.151.586-.321 1.34-.49 2.258-.506.95.016 1.72.187 2.306.51.579.34 1.027.726 1.344 1.156.478.49.816 1.09 1.016 1.804.193.73.29 1.775.29 3.134 0 1.361-.097 2.397-.29 3.11a4.538 4.538 0 0 1-1.02 1.853c-.154.19-.344.377-.566.56-.202.208-.46.385-.778.534-.586.357-1.353.543-2.303.56-.92-.017-1.671-.203-2.259-.56-.593-.323-1.057-.688-1.39-1.094a5.082 5.082 0 0 1-.994-1.854c-.21-.712-.314-1.748-.314-3.109zM137.263 29.468c0 .99.031 1.673.093 2.048.053.389.181.715.383.974.162.23.408.444.741.636.316.231.71.348 1.181.348.473 0 .866-.117 1.183-.348.315-.192.555-.405.719-.636.2-.259.334-.585.405-.974.047-.375.07-1.058.07-2.048 0-1.008-.023-1.705-.07-2.096-.07-.393-.205-.708-.405-.949-.164-.233-.404-.462-.719-.688-.317-.19-.71-.294-1.183-.31-.47.016-.865.12-1.18.31-.334.226-.58.455-.742.688-.202.24-.33.556-.383.949-.062.39-.093 1.088-.093 2.096zm4.774 5.096c-.795.965-1.83 1.463-3.102 1.496-.779-.017-1.427-.194-1.944-.535-.54-.322-.954-.672-1.238-1.045-.318-.423-.545-.941-.683-1.557-.147-.606-.22-1.759-.22-3.458 0-1.736.073-2.91.22-3.524.138-.606.365-1.117.683-1.531.284-.404.698-.768 1.238-1.089.517-.306 1.165-.466 1.944-.482 1.197 0 2.23.51 3.102 1.53V23h2.414v12.6c-.031 1.94-.552 3.366-1.562 4.279-1.017.938-2.236 1.406-3.655 1.406-1.628-.033-3.016-.753-4.166-2.161l1.876-1.601a4.57 4.57 0 0 0 1.065.789 2.7 2.7 0 0 0 1.273.387c.826 0 1.49-.246 1.991-.737.495-.5.749-1.192.764-2.075v-1.323zM147.653 35.911h2.414V23h-2.414v12.912zm0-15.55h2.414v-2.585h-2.414v2.586zM162.304 33.833a6.595 6.595 0 0 1-1.853 1.572c-.712.42-1.535.639-2.47.655-1.418 0-2.663-.517-3.735-1.555-1.11-1.036-1.682-2.715-1.713-5.037.031-2.347.602-4.047 1.714-5.1 1.073-1.036 2.32-1.547 3.74-1.529.933.016 1.755.223 2.465.619a6.24 6.24 0 0 1 1.852 1.626l-1.784 1.7c-.61-.873-1.424-1.327-2.445-1.36-2.054-.033-3.097 1.315-3.128 4.044.031 2.713 1.073 4.047 3.128 4.006 1.019-.016 1.834-.464 2.445-1.348l1.784 1.707zM170.641 30.437h-2.9c-1.408.034-2.105.553-2.09 1.557 0 .44.182.812.545 1.119.349.34.925.51 1.73.51 1.013.017 1.729-.112 2.146-.385.38-.274.57-.896.57-1.866v-.935zm0 4.33h-.046c-.224.44-.571.763-1.042.97-.464.216-1.103.324-1.922.324-1.343-.018-2.378-.399-3.104-1.144-.763-.73-1.146-1.663-1.146-2.8 0-1.084.333-1.984.996-2.698.664-.73 1.637-1.103 2.918-1.119h3.346v-1.363c.016-1.14-.807-1.694-2.467-1.662-.603 0-1.078.066-1.424.199-.364.16-.65.427-.857.802l-1.9-1.557c.917-1.287 2.272-1.913 4.062-1.88 1.512-.017 2.719.29 3.622.919.904.647 1.362 1.76 1.378 3.333v8.82h-2.414v-1.143z"/>
        <path fill="#FFF" d="M10.333 8.482l7.28-7.57 7.277 7.57-7.278 7.57zM35.925 17.148l7.28-7.57 7.277 7.57-7.278 7.571zM2 35.098l7.28-7.57 7.277 7.57-7.278 7.57zM27.592 43.764l7.279-7.57 7.28 7.57-7.28 7.57zM10.024 26.11V10.354l6.842 7.117v15.757zM35.616 34.777V19.019l6.843 7.117v15.756zM19.41 16.374l6.844-7.117h15.15l-6.842 7.117zM11.078 42.988l6.843-7.115h15.15l-6.841 7.115z"/>
        <g>
            <path fill="#F3EB59" d="M25.942 8.973l-8.474 8.474-8.472-8.474L17.468.501z"/>
            <path fill="#95D6E5" d="M51.966 17.447l-8.474 8.473-8.472-8.473 8.472-8.474z"/>
            <path fill="#F69973" d="M17.469 34.997L8.996 43.47.522 34.997l8.474-8.472z"/>
            <path fill="#745DA7" d="M43.493 43.47l-8.473 8.475-8.474-8.474 8.474-8.473z"/>
            <path fill="#F9D84F" d="M17.469 34.997l-8.473-8.472V8.974l8.473 8.474z"/>
            <path fill="#62C4B8" d="M43.493 43.47l-8.473-8.472v-17.55l8.473 8.473z"/>
            <path fill="#3BC2E5" d="M17.469 17.447l8.474-8.474h17.55l-8.473 8.474z"/>
            <path fill="#F16F74" d="M8.996 43.47l8.472-8.472h17.55l-8.471 8.473z"/>
        </g>
    </g>
</svg>
