<?xml version="1.0" encoding="UTF-8"?>
<svg width="79px" height="86px" viewBox="0 0 79 86" version="1.1" xmlns="http://www.w3.org/2000/svg" xmlns:xlink="http://www.w3.org/1999/xlink">
    <!-- Generator: sketchtool 60.1 (101010) - https://sketch.com -->
    <title>11015F88-824C-41D3-A5E6-4F2FE353D371</title>
    <desc>Created with sketchtool.</desc>
    <g id="Page-1" stroke="none" stroke-width="1" fill="none" fill-rule="evenodd">
        <g id="LP-DE-PATROCÃNIO" transform="translate(-932.000000, -1833.000000)">
            <g id="Group-12" transform="translate(810.000000, 1824.000000)">
                <g id="SDL-Stockholm-/-Home-/-Calendar-Alt" transform="translate(108.000000, 0.000000)">
                    <polygon id="bound" points="0 0 108 0 108 108 0 108"></polygon>
                    <path d="M14,42.6574101 L14,85.9884253 C14,90.6355438 17.7572214,94.4027778 22.3919888,94.4027778 L83.93324,94.4027778 C88.5680074,94.4027778 92.3252288,90.6355438 92.3252288,85.9884253 L92.3252288,42.6574101 L14,42.6574101 Z M67.1492624,31.4382734 L72.7439216,31.4382734 C74.2888441,31.4382734 75.5412512,30.1825287 75.5412512,28.6334892 L75.5412512,11.8047842 C75.5412512,10.2557446 74.2888441,9 72.7439216,9 L67.1492624,9 C65.6043399,9 64.3519328,10.2557446 64.3519328,11.8047842 L64.3519328,28.6334892 C64.3519328,30.1825287 65.6043399,31.4382734 67.1492624,31.4382734 Z M33.5813072,31.4382734 L39.1759664,31.4382734 C40.7208889,31.4382734 41.973296,30.1825287 41.973296,28.6334892 L41.973296,11.8047842 C41.973296,10.2557446 40.7208889,9 39.1759664,9 L33.5813072,9 C32.0363847,9 30.7839776,10.2557446 30.7839776,11.8047842 L30.7839776,28.6334892 C30.7839776,30.1825287 32.0363847,31.4382734 33.5813072,31.4382734 Z" id="Shape" fill="#FF433A" opacity="0.4"></path>
                    <path d="M36.4874092,69.7690295 C37.039694,69.7690295 37.4874092,70.2167447 37.4874092,70.7690295 L37.4874092,82.2875743 C37.4874092,82.8398591 37.039694,83.2875743 36.4874092,83.2875743 L25.0047941,83.2875743 C24.4525093,83.2875743 24.0047941,82.8398591 24.0047941,82.2875743 L24.0047941,70.7690295 C24.0047941,70.2167447 24.4525093,69.7690295 25.0047941,69.7690295 L36.4874092,69.7690295 Z M58.903922,69.7690295 C59.4562067,69.7690295 59.903922,70.2167447 59.903922,70.7690295 L59.903922,82.2875743 C59.903922,82.8398591 59.4562067,83.2875743 58.903922,83.2875743 L47.4213068,83.2875743 C46.8690221,83.2875743 46.4213068,82.8398591 46.4213068,82.2875743 L46.4213068,70.7690295 C46.4213068,70.2167447 46.8690221,69.7690295 47.4213068,69.7690295 L58.903922,69.7690295 Z M81.3204347,69.7690295 C81.8727195,69.7690295 82.3204347,70.2167447 82.3204347,70.7690295 L82.3204347,82.2875743 C82.3204347,82.8398591 81.8727195,83.2875743 81.3204347,83.2875743 L69.8378196,83.2875743 C69.2855348,83.2875743 68.8378196,82.8398591 68.8378196,82.2875743 L68.8378196,70.7690295 C68.8378196,70.2167447 69.2855348,69.7690295 69.8378196,69.7690295 L81.3204347,69.7690295 Z M36.4874092,49.4539474 C37.039694,49.4539474 37.4874092,49.9016626 37.4874092,50.4539474 L37.4874092,61.9724922 C37.4874092,62.524777 37.039694,62.9724922 36.4874092,62.9724922 L25.0047941,62.9724922 C24.4525093,62.9724922 24.0047941,62.524777 24.0047941,61.9724922 L24.0047941,50.4539474 C24.0047941,49.9016626 24.4525093,49.4539474 25.0047941,49.4539474 L36.4874092,49.4539474 Z M58.903922,49.4539474 C59.4562067,49.4539474 59.903922,49.9016626 59.903922,50.4539474 L59.903922,61.9724922 C59.903922,62.524777 59.4562067,62.9724922 58.903922,62.9724922 L47.4213068,62.9724922 C46.8690221,62.9724922 46.4213068,62.524777 46.4213068,61.9724922 L46.4213068,50.4539474 C46.4213068,49.9016626 46.8690221,49.4539474 47.4213068,49.4539474 L58.903922,49.4539474 Z M81.3204347,49.4539474 C81.8727195,49.4539474 82.3204347,49.9016626 82.3204347,50.4539474 L82.3204347,61.9724922 C82.3204347,62.524777 81.8727195,62.9724922 81.3204347,62.9724922 L69.8378196,62.9724922 C69.2855348,62.9724922 68.8378196,62.524777 68.8378196,61.9724922 L68.8378196,50.4539474 C68.8378196,49.9016626 69.2855348,49.4539474 69.8378196,49.4539474 L81.3204347,49.4539474 Z M30.7839776,20.2191367 L30.7839776,28.6334892 C30.7839776,30.1825287 32.0363847,31.4382734 33.5813072,31.4382734 L39.1759664,31.4382734 C40.7208889,31.4382734 41.973296,30.1825287 41.973296,28.6334892 L41.973296,20.2191367 L64.3519328,20.2191367 L64.3519328,28.6334892 C64.3519328,30.1825287 65.6043399,31.4382734 67.1492624,31.4382734 L72.7439216,31.4382734 C74.2888441,31.4382734 75.5412512,30.1825287 75.5412512,28.6334892 L75.5412512,20.2191367 L83.93324,20.2191367 C88.5680074,20.2191367 92.3252288,23.9863706 92.3252288,28.6334892 L92.3252288,42.6574101 L14,42.6574101 L14,28.6334892 C14,23.9863706 17.7572214,20.2191367 22.3919888,20.2191367 L30.7839776,20.2191367 Z" id="Combined-Shape" fill="#FF423A"></path>
                </g>
            </g>
        </g>
    </g>
</svg>