<?xml version="1.0" encoding="UTF-8"?>
<svg width="81px" height="91px" viewBox="0 0 81 91" version="1.1" xmlns="http://www.w3.org/2000/svg" xmlns:xlink="http://www.w3.org/1999/xlink">
    <!-- Generator: sketchtool 60.1 (101010) - https://sketch.com -->
    <title>8F6CD40C-FB89-48B6-9CF0-8145EB8B8DAA</title>
    <desc>Created with sketchtool.</desc>
    <g id="Page-1" stroke="none" stroke-width="1" fill="none" fill-rule="evenodd">
        <g id="LP-DE-PATROCÃNIO" transform="translate(-1395.000000, -1833.000000)">
            <g id="Group-11" transform="translate(1262.000000, 1823.000000)">
                <g id="SDL-Stockholm-/-Files-/-Assinatura-" transform="translate(114.000000, 0.000000)">
                    <polygon id="a" points="0.843823579 0.843823579 108.843824 0.843823579 108.843824 108.843824 0.843823579 108.843824"></polygon>
                    <path d="M62.9926203,10.1135332 C64.5933189,10.1135332 66.1422307,10.6810628 67.3643731,11.7147959 L88.8625248,29.8986347 C90.3832032,31.1848755 91.260294,33.0755128 91.260294,35.06721 L91.260294,91.7240478 C91.260294,99.8047812 91.1680124,100.374008 82.8789939,100.374008 L27.4334492,100.374008 C19.1444402,100.374008 19.0521491,99.8048037 19.0521491,91.7240478 L19.0521491,18.763493 C19.0521491,10.6827597 19.1444307,10.1135332 27.4334492,10.1135332 L62.9926203,10.1135332 Z" id="Path" fill="#FF433A" opacity="0.4"></path>
                    <path d="M98.494679,60.4235887 L72.6375148,87.350974 C71.8331302,88.1886517 70.7291706,88.6728359 69.5680646,88.6972038 L58.6889025,88.9254692 L58.9180934,78.0017901 C58.9418996,76.8671007 59.4049277,75.7858892 60.2097285,74.9856393 L86.6548607,48.6916643 C88.3679159,46.9883971 91.1361738,46.9923682 92.8443317,48.7005262 L98.4325103,54.2887047 C100.119661,55.9758552 100.147303,58.70262 98.4947001,60.4236097 L98.494679,60.4235887 Z" id="Path" fill="#FF423A"></path>
                </g>
            </g>
        </g>
    </g>
</svg>