<?xml version="1.0" encoding="UTF-8"?>
<svg width="92px" height="56px" viewBox="0 0 92 56" version="1.1" xmlns="http://www.w3.org/2000/svg" xmlns:xlink="http://www.w3.org/1999/xlink">
    <!-- Generator: sketchtool 60.1 (101010) - https://sketch.com -->
    <title>B141F82E-EC8A-4170-91A4-17F9D421F656</title>
    <desc>Created with sketchtool.</desc>
    <g id="Page-1" stroke="none" stroke-width="1" fill="none" fill-rule="evenodd">
        <g id="LP-DE-PATROCÃNIO" transform="translate(-495.000000, -1850.000000)">
            <g id="Group-13" transform="translate(368.000000, 1824.000000)">
                <g id="SDL-Stockholm-/-Communication-/-Group-2" transform="translate(119.000000, 0.000000)">
                    <polygon id="Path" points="0 0 108 0 108 108 0 108"></polygon>
                    <path d="M79.9259836,41.9383563 C84.9220864,41.9383563 88.9722462,45.9885204 88.9722462,50.9846189 C88.9722462,55.9807218 84.9220821,60.0308815 79.9259836,60.0308815 C74.9298808,60.0308815 70.879721,55.9807175 70.879721,50.9846189 C70.879721,45.9885161 74.929885,41.9383563 79.9259836,41.9383563 Z M28.0740079,41.9383563 C33.0701065,41.9383563 37.1202705,45.9885161 37.1202705,50.9846189 C37.1202705,55.9807175 33.0701107,60.0308815 28.0740079,60.0308815 C23.0779094,60.0308815 19.0277453,55.9807218 19.0277453,50.9846189 C19.0277453,45.9885204 23.0779051,41.9383563 28.0740079,41.9383563 Z M53.9897583,26.8611951 C60.6512429,26.8611951 66.0514702,32.2613798 66.0514702,38.922907 C66.0514702,45.5843917 60.6512856,50.9846189 53.9897583,50.9846189 C47.3282736,50.9846189 41.9280464,45.5844343 41.9280464,38.922907 C41.9280464,32.2614224 47.328231,26.8611951 53.9897583,26.8611951 Z" id="Combined-Shape" fill="#FF433A" opacity="0.4"></path>
                    <path d="M79.9259836,63.0481224 C90.1980563,63.1604045 98.5853665,68.3538236 99.2165497,79.3295523 C99.2419723,79.7716323 99.2165497,81.1388049 97.5805494,81.1388049 L85.9532479,81.1388049 C85.9532479,74.3513139 83.7106557,68.0875553 79.9259836,63.0481224 Z M28.0740164,63.0481224 C24.2893443,68.0875553 22.0467521,74.3513139 22.0467521,81.1388049 L10.4194506,81.1388049 C8.78345032,81.1388049 8.75802759,79.7716323 8.78345032,79.3295523 C9.41463353,68.3538236 17.8019438,63.1604045 28.0740164,63.0481224 Z M53.9391894,57.0153853 C68.3769134,57.0153853 80.2385679,63.9303371 81.1221476,78.7264369 C81.1573484,79.3158725 81.1221476,81.138775 78.8569178,81.138775 L29.0443332,81.138775 L29.0443332,81.138775 C27.2268651,81.138775 26.7889058,79.5079745 26.8525701,78.7240439 C28.021383,64.3323672 39.7020986,57.0153853 53.9391894,57.0153853 Z" id="Combined-Shape" fill="#FF423A"></path>
                </g>
            </g>
        </g>
    </g>
</svg>