<svg xmlns="http://www.w3.org/2000/svg" width="88" height="88" viewBox="0 0 88 88">
    <g fill="none" fill-rule="evenodd">
        <path d="M0 0h89.45v89.45H0z"/>
        <path fill="#8634F2" d="M39.454 44.725l-7.906 7.906a3.727 3.727 0 1 0 5.27 5.27l7.907-7.905 2.635 2.635a7.454 7.454 0 0 1 0 10.542L36.818 73.714a7.454 7.454 0 0 1-10.541 0L15.735 63.173a7.454 7.454 0 0 1 0-10.542l10.542-10.542a7.454 7.454 0 0 1 10.541 0l2.636 2.636z"/>
        <path fill="#8634F2" d="M49.996 44.725l7.906-7.907a3.727 3.727 0 0 0-5.271-5.27l-7.906 7.906-2.636-2.636a7.454 7.454 0 0 1 0-10.541l10.542-10.542a7.454 7.454 0 0 1 10.542 0l10.541 10.542a7.454 7.454 0 0 1 0 10.541L63.173 47.36a7.454 7.454 0 0 1-10.542 0l-2.635-2.635z" opacity=".305"/>
    </g>
</svg>
