<svg xmlns="http://www.w3.org/2000/svg" width="88" height="88" viewBox="0 0 88 88">
    <g fill="none" fill-rule="evenodd">
        <path d="M0 0h89.45v89.45H0z"/>
        <g fill="#8634F2">
            <path d="M21.711 7.454h29.367a5.59 5.59 0 0 1 3.61 1.322l17.754 15.017a5.59 5.59 0 0 1 1.98 4.269v46.79c0 6.673-.076 7.143-6.921 7.143H21.71c-6.845 0-6.922-.47-6.922-7.143V14.597c0-6.673.077-7.143 6.922-7.143z" opacity=".305"/>
            <path d="M44.467 57.605c1.388 0 2.513 1.266 2.513 2.828v8.484c0 1.562-1.125 2.828-2.513 2.828-1.389 0-2.514-1.266-2.514-2.828v-8.484c0-1.502 1.04-2.73 2.355-2.823l.159-.005zm0-37.706c1.388 0 2.513 1.406 2.513 3.142v6.284c0 1.735-1.125 3.142-2.513 3.142-1.389 0-2.514-1.407-2.514-3.142v-6.284c0-1.674 1.046-3.042 2.366-3.137l.148-.005z"/>
            <path d="M51.99 37.605c-.7-.891-1.616-1.6-2.746-2.125-1.13-.525-2.22-.788-3.272-.788a9.74 9.74 0 0 0-1.647.143 4.254 4.254 0 0 0-1.505.55c-.446.27-.82.62-1.122 1.05-.303.43-.454.98-.454 1.648 0 .573.12 1.05.358 1.433.239.382.59.716 1.05 1.003.463.286 1.012.55 1.649.788.636.239 1.353.485 2.149.74 1.146.382 2.34.804 3.582 1.266a13.397 13.397 0 0 1 3.391 1.839 9.652 9.652 0 0 1 2.531 2.841c.67 1.13 1.003 2.54 1.003 4.227 0 1.943-.358 3.622-1.074 5.04-.717 1.416-1.68 2.586-2.89 3.51-1.21.923-2.595 1.608-4.155 2.053-1.56.446-3.168.669-4.824.669-2.42 0-4.76-.422-7.02-1.266-2.262-.844-4.14-2.045-5.637-3.606l5.35-5.444c.827 1.018 1.918 1.87 3.271 2.555 1.353.684 2.699 1.027 4.036 1.027.605 0 1.194-.064 1.767-.191a4.408 4.408 0 0 0 1.505-.621c.43-.287.772-.669 1.027-1.147.254-.477.382-1.05.382-1.719 0-.637-.16-1.178-.478-1.624-.318-.446-.772-.852-1.361-1.218-.59-.366-1.322-.7-2.197-1.003-.876-.302-1.87-.629-2.985-.979a28.527 28.527 0 0 1-3.176-1.242 10.63 10.63 0 0 1-2.77-1.838 8.516 8.516 0 0 1-1.959-2.723c-.493-1.067-.74-2.364-.74-3.892 0-1.879.382-3.487 1.146-4.824a9.964 9.964 0 0 1 3.01-3.296c1.241-.86 2.642-1.488 4.202-1.886a19.057 19.057 0 0 1 4.729-.597c1.91 0 3.86.35 5.85 1.05 1.99.7 3.734 1.736 5.23 3.105l-5.206 5.492z"/>
        </g>
    </g>
</svg>
