<svg xmlns="http://www.w3.org/2000/svg" width="88" height="88" viewBox="0 0 88 88">
    <g fill="none" fill-rule="evenodd">
        <path d="M0 0h89.45v89.45H0z"/>
        <path fill="#8634F2" d="M21.767 29.816h45.915a7.454 7.454 0 0 1 7.429 6.836l2.484 29.816a7.454 7.454 0 0 1-7.428 8.073H19.282a7.454 7.454 0 0 1-7.428-8.073l2.485-29.816a7.454 7.454 0 0 1 7.428-6.836zm17.367 7.455c-1.03 0-1.863.834-1.863 1.863v3.727c0 1.03.834 1.864 1.863 1.864h11.181c1.03 0 1.864-.835 1.864-1.864v-3.727c0-1.03-.835-1.863-1.864-1.863h-11.18z" opacity=".305"/>
        <path fill="#8634F2" d="M37.27 29.816h-7.454V26.09c0-6.175 5.006-11.18 11.182-11.18h7.454c6.175 0 11.18 5.005 11.18 11.18v3.727H52.18V26.09a3.727 3.727 0 0 0-3.727-3.727h-7.454a3.727 3.727 0 0 0-3.727 3.727v3.727z"/>
    </g>
</svg>
