<svg xmlns="http://www.w3.org/2000/svg" width="22" height="23" viewBox="0 0 22 23">
    <g fill="none" fill-rule="evenodd">
        <path d="M0 .5h22v22H0z"/>
        <path fill="#1E232C" d="M10.922 13.464l2.02-2.02c.558-.558.697-1.41.344-2.116l-.115-.23a1.833 1.833 0 0 1 .344-2.116l2.505-2.505a.458.458 0 0 1 .734.12l1.012 2.023a4.022 4.022 0 0 1-.754 4.643l-5.499 5.499a4.975 4.975 0 0 1-5.09 1.202l-2.214-.738a.458.458 0 0 1-.179-.76l2.43-2.43a1.833 1.833 0 0 1 2.117-.343l.229.115a1.833 1.833 0 0 0 2.116-.344z"/>
    </g>
</svg>
