<svg xmlns="http://www.w3.org/2000/svg" width="88" height="88" viewBox="0 0 88 88">
    <g fill="none" fill-rule="evenodd">
        <path d="M0 0h89.45v89.45H0z"/>
        <path fill="#8634F2" d="M18.635 70.814h55.906a3.727 3.727 0 0 1 0 7.454H14.908a3.727 3.727 0 0 1-3.727-3.727V14.908a3.727 3.727 0 1 1 7.454 0v55.906z"/>
        <path fill="#8634F2" d="M32.535 54.728a3.727 3.727 0 1 1-5.438-5.098L41.074 34.72a3.727 3.727 0 0 1 5.138-.286l11.031 9.414 14.373-18.206a3.727 3.727 0 1 1 5.85 4.62L60.695 51.506a3.727 3.727 0 0 1-5.345.525l-11.27-9.617-11.545 12.313z" opacity=".305"/>
    </g>
</svg>
