<?xml version="1.0" encoding="UTF-8"?>
<svg width="22px" height="23px" viewBox="0 0 22 23" version="1.1" xmlns="http://www.w3.org/2000/svg" xmlns:xlink="http://www.w3.org/1999/xlink">
    <!-- Generator: sketchtool 60.1 (101010) - https://sketch.com -->
    <title>1EDAB589-5834-43AD-BE62-37C740726CDF</title>
    <desc>Created with sketchtool.</desc>
    <g id="Page-1" stroke="none" stroke-width="1" fill="none" fill-rule="evenodd">
        <g id="LP-DE-PATROCÃNIO" transform="translate(-469.000000, -1435.000000)">
            <g id="Group-9" transform="translate(368.000000, 1063.000000)">
                <g id="Group-2">
                    <g id="Group-4" transform="translate(65.000000, 48.000000)">
                        <g id="Form/Input/Light/Icon/Left/Regular" transform="translate(20.000000, 311.000000)">
                            <g id="Group" transform="translate(16.000000, 12.500000)">
                                <g id="SDL-Stockholm-/-Clothes-/-Briefcase" transform="translate(0.000000, 1.000000)">
                                    <polygon id="bound" points="0 0 22 0 22 22 0 22"></polygon>
                                    <path d="M5.35357695,7.33333333 L16.6464231,7.33333333 C17.5999189,7.33333333 18.3942401,8.06421439 18.4734236,9.01441662 L19.0845347,16.34775 C19.1686201,17.3567745 18.4188088,18.2429152 17.4097842,18.3270006 C17.3591439,18.3312206 17.30835,18.3333333 17.2575342,18.3333333 L4.74246584,18.3333333 C3.7299438,18.3333333 2.90913251,17.512522 2.90913251,16.5 C2.90913251,16.4491842 2.91124526,16.3983903 2.91546528,16.34775 L3.52657639,9.01441662 C3.60575991,8.06421439 4.40008112,7.33333333 5.35357695,7.33333333 Z M9.625,9.16666667 C9.37186949,9.16666667 9.16666667,9.37186949 9.16666667,9.625 L9.16666667,10.5416667 C9.16666667,10.7947972 9.37186949,11 9.625,11 L12.375,11 C12.6281305,11 12.8333333,10.7947972 12.8333333,10.5416667 L12.8333333,9.625 C12.8333333,9.37186949 12.6281305,9.16666667 12.375,9.16666667 L9.625,9.16666667 Z" id="Shape" fill="#1E232C"></path>
                                    <path d="M9.16666667,7.33333333 L7.33333333,7.33333333 L7.33333333,6.41666667 C7.33333333,4.8978836 8.56455027,3.66666667 10.0833333,3.66666667 L11.9166667,3.66666667 C13.4354497,3.66666667 14.6666667,4.8978836 14.6666667,6.41666667 L14.6666667,7.33333333 L12.8333333,7.33333333 L12.8333333,6.41666667 C12.8333333,5.91040565 12.4229277,5.5 11.9166667,5.5 L10.0833333,5.5 C9.57707231,5.5 9.16666667,5.91040565 9.16666667,6.41666667 L9.16666667,7.33333333 Z" id="Path-53" fill="#1E232C" opacity="0.3"></path>
                                </g>
                            </g>
                        </g>
                    </g>
                </g>
            </g>
        </g>
    </g>
</svg>