<svg xmlns="http://www.w3.org/2000/svg" width="88" height="88" viewBox="0 0 88 88">
    <g fill="none" fill-rule="evenodd">
        <path d="M0 0h89.45v89.45H0z"/>
        <path fill="#8634F2" d="M14.908 18.635h59.633a7.454 7.454 0 0 1 7.454 7.454V63.36a7.454 7.454 0 0 1-7.454 7.454H14.908a7.454 7.454 0 0 1-7.454-7.454V26.09a7.454 7.454 0 0 1 7.454-7.455z" opacity=".305"/>
        <path fill="#8634F2" d="M7.454 29.816h74.541v11.182H7.455zM63.36 52.179h7.454a3.727 3.727 0 1 1 0 7.454H63.36a3.727 3.727 0 0 1 0-7.454z"/>
    </g>
</svg>
