<?xml version="1.0" encoding="UTF-8"?>
<svg width="22px" height="23px" viewBox="0 0 22 23" version="1.1" xmlns="http://www.w3.org/2000/svg" xmlns:xlink="http://www.w3.org/1999/xlink">
    <!-- Generator: sketchtool 60.1 (101010) - https://sketch.com -->
    <title>54931E85-F570-4602-95AE-11CD2D285C3A</title>
    <desc>Created with sketchtool.</desc>
    <g id="Page-1" stroke="none" stroke-width="1" fill="none" fill-rule="evenodd">
        <g id="LP-DE-PATROCÃNIO" transform="translate(-469.000000, -1297.000000)">
            <g id="Group-9" transform="translate(368.000000, 1063.000000)">
                <g id="Group-2">
                    <g id="Group-4" transform="translate(65.000000, 48.000000)">
                        <g id="Form/Input/Light/Icon/Left/Regular" transform="translate(20.000000, 173.000000)">
                            <g id="Group" transform="translate(16.000000, 12.500000)">
                                <g id="SDL-Stockholm-/-Communication-/-Mail" transform="translate(0.000000, 1.000000)">
                                    <polygon id="bound" points="0 0 22 0 22 22 0 22"></polygon>
                                    <path d="M4.58333333,5.5 L17.4166667,5.5 C18.4291887,5.5 19.25,6.32081129 19.25,7.33333333 L19.25,15.5833333 C19.25,16.5958554 18.4291887,17.4166667 17.4166667,17.4166667 L4.58333333,17.4166667 C3.57081129,17.4166667 2.75,16.5958554 2.75,15.5833333 L2.75,7.33333333 C2.75,6.32081129 3.57081129,5.5 4.58333333,5.5 Z M16.6323897,7.18634279 L11,10.219168 L5.3676103,7.18634279 C5.03329915,7.00632909 4.61635648,7.13141189 4.43634279,7.46572304 C4.25632909,7.80003419 4.38141189,8.21697685 4.71572304,8.39699055 L10.6740564,11.6053239 C10.8775401,11.714892 11.1224599,11.714892 11.3259436,11.6053239 L17.284277,8.39699055 C17.6185881,8.21697685 17.7436709,7.80003419 17.5636572,7.46572304 C17.3836435,7.13141189 16.9667009,7.00632909 16.6323897,7.18634279 Z" id="Shape" fill="#1E232C"></path>
                                </g>
                            </g>
                        </g>
                    </g>
                </g>
            </g>
        </g>
    </g>
</svg>