<?xml version="1.0" encoding="UTF-8"?>
<svg width="41px" height="41px" viewBox="0 0 41 41" version="1.1" xmlns="http://www.w3.org/2000/svg" xmlns:xlink="http://www.w3.org/1999/xlink">
    <!-- Generator: sketchtool 60.1 (101010) - https://sketch.com -->
    <title>BD28709B-C1AD-42FF-890B-2278D06A1BE4</title>
    <desc>Created with sketchtool.</desc>
    <g id="Page-1" stroke="none" stroke-width="1" fill="none" fill-rule="evenodd">
        <g id="LP-DE-PATROCÃNIO" transform="translate(-1486.000000, -4260.000000)" fill="#1E232C">
            <g id="Brands/Facebook-New" transform="translate(1486.000000, 4260.000000)">
                <g transform="translate(1.708333, 3.416667)" id="Path">
                    <path d="M35.9296628,17.1874407 C35.9296628,25.741501 29.6625724,32.8315721 21.4694811,34.1172191 L21.4694811,22.1413918 L25.4627644,22.1413918 L26.2225964,17.1874407 L21.4694811,17.1874407 L21.4694811,13.9726269 C21.4694811,12.6173211 22.1334117,11.2962555 24.2623729,11.2962555 L26.4234322,11.2962555 L26.4234322,7.07870255 C26.4234322,7.07870255 24.4621674,6.74397612 22.5871341,6.74397612 C18.6724416,6.74397612 16.1138523,9.11651704 16.1138523,13.4117266 L16.1138523,17.1874407 L11.7624087,17.1874407 L11.7624087,22.1413918 L16.1138523,22.1413918 L16.1138523,34.1172191 C7.92076091,32.8315364 1.65367055,25.741501 1.65367055,17.1874407 C1.65367055,7.72238891 9.32661191,0.0494475462 18.7916637,0.0494475462 C28.2567155,0.0494475462 35.9296628,7.72238891 35.9296628,17.1874407 L35.9296628,17.1874407 Z"></path>
                </g>
            </g>
        </g>
    </g>
</svg>