<?xml version="1.0" encoding="UTF-8"?>
<svg width="41px" height="41px" viewBox="0 0 41 41" version="1.1" xmlns="http://www.w3.org/2000/svg" xmlns:xlink="http://www.w3.org/1999/xlink">
    <!-- Generator: sketchtool 60.1 (101010) - https://sketch.com -->
    <title>09CC6308-5EF8-4AE8-ADAB-209BE7FD4908</title>
    <desc>Created with sketchtool.</desc>
    <g id="Page-1" stroke="none" stroke-width="1" fill="none" fill-rule="evenodd">
        <g id="LP-DE-PATROCÃNIO" transform="translate(-1546.000000, -4260.000000)" fill="#1E232C">
            <g id="Brands/Linkedin" transform="translate(1546.000000, 4260.000000)">
                <g transform="translate(5.125000, 5.125000)" id="Shape">
                    <path d="M28.2285,0.37925 L2.51480547,0.37925 C1.33656797,0.37925 0.37925,1.34995703 0.37925,2.54158359 L0.37925,28.2084164 C0.37925,29.400043 1.33656797,30.37075 2.51480547,30.37075 L28.2285,30.37075 C29.4067375,30.37075 30.37075,29.400043 30.37075,28.2084164 L30.37075,2.54158359 C30.37075,1.34995703 29.4067375,0.37925 28.2285,0.37925 Z M9.44364531,26.08625 L4.99847656,26.08625 L4.99847656,11.7733422 L9.45033984,11.7733422 L9.45033984,26.08625 L9.44364531,26.08625 Z M7.22106094,9.81853906 C5.79512578,9.81853906 4.64366641,8.66038516 4.64366641,7.24114453 C4.64366641,5.82190391 5.79512578,4.66375 7.22106094,4.66375 C8.64030156,4.66375 9.79845547,5.82190391 9.79845547,7.24114453 C9.79845547,8.66707969 8.64699609,9.81853906 7.22106094,9.81853906 L7.22106094,9.81853906 Z M26.1063336,26.08625 L21.6611648,26.08625 L21.6611648,19.1239375 C21.6611648,17.4636938 21.6276922,15.3281383 19.3515516,15.3281383 C17.0352437,15.3281383 16.6804336,17.1356617 16.6804336,19.0034359 L16.6804336,26.08625 L12.2352648,26.08625 L12.2352648,11.7733422 L16.4996812,11.7733422 L16.4996812,13.7281453 L16.559932,13.7281453 C17.1557453,12.6034641 18.6084586,11.418532 20.7707922,11.418532 C25.2695172,11.418532 26.1063336,14.3842094 26.1063336,18.2402594 L26.1063336,26.08625 L26.1063336,26.08625 Z"></path>
                </g>
            </g>
        </g>
    </g>
</svg>