<svg xmlns="http://www.w3.org/2000/svg" width="88" height="88" viewBox="0 0 88 88">
    <g fill="none" fill-rule="evenodd">
        <path d="M0 0h89.45v89.45H0z"/>
        <g fill="#8634F2">
            <path d="M73.644 58.48c-4.029 0-16.274 7.972-25.822 4.344 6.275-.483 13.032-1.93 13.032-5.792 0-3.62-6.998-4.344-15.686-5.31L37.928 51a8.667 8.667 0 0 0-9.175 6.172 18764.32 18764.32 0 0 0-3.374 11.445c-.241.724.241 1.206.724 1.448l18.1 6.033c2.413.965 4.102 1.448 6.274 1.448 3.137 0 6.516-1.207 14.48-4.586l10.855-5.729a4.644 4.644 0 0 0-2.168-8.75z" opacity=".305"/>
            <path d="M11.024 50.278l-.848 20.027c0 .724.482 1.207 1.206 1.207a13.506 13.506 0 0 0 13.205-10.668l1.428-6.644a8.744 8.744 0 0 0-6.428-10.32 6.897 6.897 0 0 0-8.563 6.398z"/>
        </g>
        <path d="M27.666 9.84h43.372v43.372H27.666z"/>
        <path fill="#8634F2" d="M50.255 38.755c.998 0 1.807.91 1.807 2.033v6.1c0 1.122-.809 2.032-1.807 2.032-.998 0-1.807-.91-1.807-2.033v-6.1c0-1.068.734-1.945 1.666-2.026l.141-.006zm0-27.108c.998 0 1.807 1.012 1.807 2.26v4.517c0 1.248-.809 2.26-1.807 2.26-.998 0-1.807-1.012-1.807-2.26v-4.518c0-1.19.737-2.166 1.672-2.252l.135-.007z"/>
        <path fill="#8634F2" d="M55.664 24.377c-.504-.64-1.162-1.15-1.974-1.528-.813-.378-1.597-.566-2.352-.566-.39 0-.784.034-1.185.103-.4.068-.761.2-1.082.394-.32.195-.589.447-.806.756-.218.309-.327.704-.327 1.184 0 .412.086.756.258 1.03.172.275.423.516.755.722.332.206.727.394 1.185.566.458.172.973.35 1.545.532.824.275 1.682.578 2.575.91a9.63 9.63 0 0 1 2.438 1.322 6.94 6.94 0 0 1 1.82 2.043c.48.813.72 1.826.72 3.039 0 1.396-.257 2.604-.772 3.622a7.224 7.224 0 0 1-2.077 2.524 8.901 8.901 0 0 1-2.987 1.476c-1.122.321-2.278.481-3.468.481a14.32 14.32 0 0 1-5.048-.91c-1.625-.606-2.975-1.47-4.051-2.592l3.845-3.914c.596.732 1.38 1.344 2.352 1.837.973.492 1.94.738 2.902.738.435 0 .858-.046 1.27-.138a3.17 3.17 0 0 0 1.082-.446c.309-.206.555-.48.738-.824.183-.343.275-.755.275-1.236 0-.458-.115-.847-.344-1.167-.228-.321-.555-.613-.978-.876-.424-.263-.95-.504-1.58-.721a81.168 81.168 0 0 0-2.146-.704c-.778-.252-1.539-.55-2.283-.893a7.643 7.643 0 0 1-1.991-1.322 6.122 6.122 0 0 1-1.408-1.957c-.355-.767-.532-1.7-.532-2.798 0-1.35.274-2.507.824-3.468a7.163 7.163 0 0 1 2.163-2.37 9.293 9.293 0 0 1 3.021-1.356 13.7 13.7 0 0 1 3.4-.429c1.373 0 2.775.252 4.206.756a10.83 10.83 0 0 1 3.76 2.231l-3.743 3.95z"/>
    </g>
</svg>
