<svg xmlns="http://www.w3.org/2000/svg" width="88" height="88" viewBox="0 0 88 88">
    <g fill="none" fill-rule="evenodd">
        <path d="M0 0h89.45v89.45H0z"/>
        <path fill="#8634F2" d="M59.696 24.47l-4.092 2.866a2.099 2.099 0 0 0 .547 3.712l14.215 4.685a2.099 2.099 0 0 0 2.755-1.935l.412-14.928a2.099 2.099 0 0 0-3.301-1.777l-3.385 2.37a33.484 33.484 0 0 0-22.122-8.315c-18.544 0-33.577 15.033-33.577 33.577 0 18.544 15.033 33.577 33.577 33.577 18.544 0 33.577-15.033 33.577-33.577h-8.395c0 13.908-11.274 25.182-25.182 25.182S19.542 58.633 19.542 44.725s11.275-25.183 25.183-25.183a25.094 25.094 0 0 1 14.971 4.929z" opacity=".305"/>
        <g fill="#8634F2">
            <path d="M44.873 52.214c.911 0 1.65.831 1.65 1.856v5.569c0 1.025-.739 1.856-1.65 1.856-.91 0-1.65-.831-1.65-1.856V54.07c0-.973.667-1.772 1.515-1.85l.135-.006zm0-24.747c.911 0 1.65.924 1.65 2.063v4.124c0 1.139-.739 2.062-1.65 2.062-.91 0-1.65-.923-1.65-2.062V29.53c0-1.085.67-1.974 1.521-2.056l.13-.007z"/>
            <path d="M49.811 39.088c-.46-.585-1.06-1.05-1.802-1.394-.742-.345-1.458-.518-2.147-.518-.356 0-.716.032-1.082.094a2.792 2.792 0 0 0-.987.36 2.441 2.441 0 0 0-.737.69c-.198.283-.298.643-.298 1.082 0 .376.079.69.235.94.157.251.387.47.69.659.303.188.663.36 1.081.517.418.157.889.318 1.411.486.752.25 1.536.527 2.351.83a8.792 8.792 0 0 1 2.226 1.207 6.335 6.335 0 0 1 1.66 1.865c.44.742.66 1.667.66 2.774 0 1.275-.236 2.377-.706 3.307a6.595 6.595 0 0 1-1.897 2.304 8.126 8.126 0 0 1-2.727 1.348c-1.024.293-2.079.44-3.166.44-1.588 0-3.124-.278-4.608-.832-1.483-.553-2.716-1.342-3.698-2.366l3.51-3.574c.544.669 1.26 1.228 2.148 1.677.888.45 1.77.674 2.648.674a5.33 5.33 0 0 0 1.16-.125c.376-.084.705-.22.988-.408a2.04 2.04 0 0 0 .673-.752c.168-.313.251-.69.251-1.128 0-.418-.104-.774-.313-1.066-.21-.293-.507-.56-.894-.8A7.196 7.196 0 0 0 45 46.722a74.093 74.093 0 0 0-1.96-.642c-.71-.23-1.405-.502-2.084-.815a6.977 6.977 0 0 1-1.818-1.207 5.59 5.59 0 0 1-1.285-1.787c-.324-.7-.486-1.552-.486-2.555 0-1.233.25-2.288.752-3.166a6.54 6.54 0 0 1 1.975-2.162 8.483 8.483 0 0 1 2.758-1.239 12.507 12.507 0 0 1 3.104-.391c1.253 0 2.533.23 3.84.69a9.887 9.887 0 0 1 3.432 2.037l-3.417 3.604z"/>
        </g>
    </g>
</svg>
