<?xml version="1.0" encoding="UTF-8"?>
<svg width="22px" height="23px" viewBox="0 0 22 23" version="1.1" xmlns="http://www.w3.org/2000/svg" xmlns:xlink="http://www.w3.org/1999/xlink">
    <!-- Generator: sketchtool 60.1 (101010) - https://sketch.com -->
    <title>31561FCD-7485-4915-B986-BDD7E8C9989C</title>
    <desc>Created with sketchtool.</desc>
    <g id="Page-1" stroke="none" stroke-width="1" fill="none" fill-rule="evenodd">
        <g id="LP-DE-PATROCÃNIO" transform="translate(-469.000000, -1366.000000)">
            <g id="Group-9" transform="translate(368.000000, 1063.000000)">
                <g id="Group-2">
                    <g id="Group-4" transform="translate(65.000000, 48.000000)">
                        <g id="Form/Input/Light/Icon/Left/Regular" transform="translate(20.000000, 242.000000)">
                            <g id="Group" transform="translate(16.000000, 12.500000)">
                                <g id="SDL-Stockholm-/-Communication-/-Call#1" transform="translate(0.000000, 1.000000)">
                                    <polygon id="bound" points="0 0 22 0 22 22 0 22"></polygon>
                                    <path d="M10.9219522,12.9641786 L12.9423092,10.9438217 C13.500303,10.3858278 13.6386362,9.53338018 13.2857299,8.82756763 L13.1712563,8.59862047 C12.8183501,7.89280792 12.9566833,7.04036025 13.5146771,6.48236644 L16.0197475,3.97729602 C16.1987378,3.79830572 16.4889384,3.79830572 16.6679287,3.97729602 C16.7027627,4.01212996 16.731753,4.0523519 16.7537839,4.09641373 L17.7657616,6.12036918 C18.5399367,7.6687193 18.2364733,9.53874478 17.0123951,10.762823 L11.5134717,16.2617464 C10.1810605,17.5941576 8.21020758,18.0594129 6.42259036,17.4635405 L4.20931739,16.7257828 C3.9691767,16.6457359 3.83939504,16.3861726 3.91944193,16.1460319 C3.9419428,16.0785293 3.97985103,16.0171925 4.0301645,15.966879 L6.46049701,13.5365465 C7.01849082,12.9785527 7.87093848,12.8402195 8.57675103,13.1931258 L8.8056982,13.3075994 C9.51151074,13.6605056 10.3639584,13.5221724 10.9219522,12.9641786 L10.9219522,12.9641786 Z" id="Path-76" fill="#1E232C"></path>
                                </g>
                            </g>
                        </g>
                    </g>
                </g>
            </g>
        </g>
    </g>
</svg>