<svg xmlns="http://www.w3.org/2000/svg" width="88" height="88" viewBox="0 0 88 88">
    <g fill="none" fill-rule="evenodd">
        <path d="M0 0h89.45v89.45H0z"/>
        <path fill="#8634F2" d="M59.753 21.197a6.028 6.028 0 0 1 8.525 8.525L30.044 68.015a6.07 6.07 0 1 1-8.584-8.584l38.293-38.234z"/>
        <path fill="#8634F2" d="M36.738 25.823c0 6.033-4.883 10.915-10.91 10.915-6.026 0-10.92-4.882-10.92-10.915 0-6.033 4.894-10.915 10.92-10.915 6.027 0 10.91 4.882 10.91 10.915zm37.803 37.803c0 6.033-4.883 10.915-10.91 10.915-6.025 0-10.92-4.882-10.92-10.915 0-6.044 4.895-10.915 10.92-10.915 6.027 0 10.91 4.871 10.91 10.915z" opacity=".305"/>
    </g>
</svg>
