<svg xmlns="http://www.w3.org/2000/svg" width="88" height="88" viewBox="0 0 88 88">
    <g fill="none" fill-rule="evenodd">
        <path d="M0 0h89.45v89.45H0z"/>
        <path fill="#8634F2" d="M56.365 70.856L29.212 55.23a14.892 14.892 0 0 0 3.817-6.61L60 64.281a14.882 14.882 0 0 0-3.634 6.575zM28.907 33.919l27.288-16.076a14.86 14.86 0 0 0 3.4 6.883L33.04 40.87a14.899 14.899 0 0 0-4.133-6.95z" opacity=".305"/>
        <path fill="#8634F2" d="M70.814 63.36c6.175 0 11.181 5.006 11.181 11.181 0 6.175-5.006 11.181-11.18 11.181-6.176 0-11.182-5.006-11.182-11.18 0-6.176 5.006-11.182 11.181-11.182zM18.635 33.544c6.175 0 11.181 5.006 11.181 11.18 0 6.176-5.006 11.182-11.18 11.182-6.176 0-11.182-5.006-11.182-11.181 0-6.175 5.006-11.181 11.181-11.181zm52.18-29.817c6.174 0 11.18 5.006 11.18 11.181 0 6.175-5.006 11.181-11.18 11.181-6.176 0-11.182-5.006-11.182-11.18 0-6.176 5.006-11.182 11.181-11.182z"/>
    </g>
</svg>
