<?xml version="1.0" encoding="UTF-8"?>
<svg width="22px" height="23px" viewBox="0 0 22 23" version="1.1" xmlns="http://www.w3.org/2000/svg" xmlns:xlink="http://www.w3.org/1999/xlink">
    <!-- Generator: sketchtool 60.1 (101010) - https://sketch.com -->
    <title>90E8AA12-4386-4723-8467-E226B44BBA72</title>
    <desc>Created with sketchtool.</desc>
    <g id="Page-1" stroke="none" stroke-width="1" fill="none" fill-rule="evenodd">
        <g id="LP-DE-PATROCÃNIO" transform="translate(-469.000000, -1228.000000)">
            <g id="Group-9" transform="translate(368.000000, 1063.000000)">
                <g id="Group-2">
                    <g id="Group-4" transform="translate(65.000000, 48.000000)">
                        <g id="Form/Input/Light/Icon/Left/Regular" transform="translate(20.000000, 104.000000)">
                            <g id="Group" transform="translate(16.000000, 12.500000)">
                                <g id="SDL-Stockholm-/-General-/-Smile" transform="translate(0.000000, 1.000000)">
                                    <polygon id="bound" points="0 0 22 0 22 22 0 22"></polygon>
                                    <path d="M11,1.83333333 C16.0626102,1.83333333 20.1666667,5.93738979 20.1666667,11 C20.1666667,16.0626102 16.0626102,20.1666667 11,20.1666667 C5.93738979,20.1666667 1.83333333,16.0626102 1.83333333,11 C1.83333333,5.93738979 5.93738979,1.83333333 11,1.83333333 Z" id="Combined-Shape" fill="#1E232C" opacity="0.3"></path>
                                    <path d="M5.6539539,13.3418085 C5.37313081,12.9205739 5.48695686,12.3514437 5.90819149,12.0706206 C6.32942612,11.7897975 6.89855635,11.9036235 7.17937944,12.3248582 C8.23999495,13.9157814 9.49147035,14.6666667 11,14.6666667 C12.5085296,14.6666667 13.760005,13.9157814 14.8206206,12.3248582 C15.1014437,11.9036235 15.6705739,11.7897975 16.0918085,12.0706206 C16.5130431,12.3514437 16.6268692,12.9205739 16.3460461,13.3418085 C14.9622172,15.4175519 13.158137,16.5 11,16.5 C8.84186298,16.5 7.03778283,15.4175519 5.6539539,13.3418085 Z" id="Path-56" fill="#1E232C"></path>
                                </g>
                            </g>
                        </g>
                    </g>
                </g>
            </g>
        </g>
    </g>
</svg>