<svg xmlns="http://www.w3.org/2000/svg" width="22" height="23" viewBox="0 0 22 23">
    <g fill="none" fill-rule="evenodd">
        <path d="M0 .5h22v22H0z"/>
        <path fill="#1E232C" d="M11 2.333a9.167 9.167 0 1 1 0 18.334 9.167 9.167 0 0 1 0-18.334z" opacity=".3"/>
        <path fill="#1E232C" d="M5.654 13.842a.917.917 0 1 1 1.525-1.017c1.061 1.59 2.312 2.342 3.821 2.342 1.509 0 2.76-.751 3.82-2.342a.917.917 0 1 1 1.526 1.017C14.962 15.918 13.158 17 11 17s-3.962-1.082-5.346-3.158z"/>
    </g>
</svg>
