<?xml version="1.0" encoding="UTF-8"?>
<svg width="22px" height="23px" viewBox="0 0 22 23" version="1.1" xmlns="http://www.w3.org/2000/svg" xmlns:xlink="http://www.w3.org/1999/xlink">
    <!-- Generator: sketchtool 60.1 (101010) - https://sketch.com -->
    <title>5C977071-C6DC-4619-BF97-F3DBD632BD8C</title>
    <desc>Created with sketchtool.</desc>
    <g id="Page-1" stroke="none" stroke-width="1" fill="none" fill-rule="evenodd">
        <g id="LP-DE-PATROCÃNIO" transform="translate(-469.000000, -1504.000000)">
            <g id="Group-9" transform="translate(368.000000, 1063.000000)">
                <g id="Group-2">
                    <g id="Group-4" transform="translate(65.000000, 48.000000)">
                        <g id="Form/Input/Light/Icon/Left/Regular" transform="translate(20.000000, 380.000000)">
                            <g id="Group" transform="translate(16.000000, 12.500000)">
                                <g id="SDL-Stockholm-/-General-/-User" transform="translate(0.000000, 1.000000)">
                                    <polygon id="Shape" points="0 0 22 0 22 22 0 22"></polygon>
                                    <path d="M11,10.0833333 C8.97495592,10.0833333 7.33333333,8.44171075 7.33333333,6.41666667 C7.33333333,4.39162258 8.97495592,2.75 11,2.75 C13.0250441,2.75 14.6666667,4.39162258 14.6666667,6.41666667 C14.6666667,8.44171075 13.0250441,10.0833333 11,10.0833333 Z" id="Mask" fill="#1E232C" opacity="0.3"></path>
                                    <path d="M2.75059738,18.5159384 C3.10590365,14.1409729 6.65675298,11.9166667 10.9847296,11.9166667 C15.373615,11.9166667 18.9794767,14.0187601 19.2480881,18.5166667 C19.2587889,18.6958512 19.2480881,19.25 18.5594749,19.25 C15.162697,19.25 10.1151643,19.25 3.41687704,19.25 C3.18698614,19.25 2.7312434,18.7542483 2.75059738,18.5159384 Z" id="Mask-Copy" fill="#1E232C"></path>
                                </g>
                            </g>
                        </g>
                    </g>
                </g>
            </g>
        </g>
    </g>
</svg>