<?xml version="1.0" encoding="UTF-8"?>
<svg width="41px" height="41px" viewBox="0 0 41 41" version="1.1" xmlns="http://www.w3.org/2000/svg" xmlns:xlink="http://www.w3.org/1999/xlink">
    <!-- Generator: sketchtool 60.1 (101010) - https://sketch.com -->
    <title>5CA2B849-82AF-4AA8-A69B-31A74C9A4C75</title>
    <desc>Created with sketchtool.</desc>
    <g id="Page-1" stroke="none" stroke-width="1" fill="none" fill-rule="evenodd">
        <g id="LP-DE-PATROCÃNIO" transform="translate(-1604.000000, -4260.000000)" fill="#1E232C">
            <g id="Brands/Twitter" transform="translate(1604.000000, 4260.000000)">
                <g transform="translate(1.708333, 5.125000)" id="Path">
                    <path d="M32.4064018,8.39364156 C32.428159,8.69810884 32.428159,9.00264307 32.428159,9.30711035 C32.428159,18.5937641 25.3598721,29.294169 12.4411004,29.294169 C8.46106771,29.294169 4.76381199,28.1414376 1.65373361,26.1406431 C2.21922067,26.2058478 2.76288355,26.227605 3.35012783,26.227605 C6.63413014,26.227605 9.65724656,25.1184551 12.0713615,23.2263128 C8.98304032,23.1610411 6.39493453,21.1384224 5.50322297,18.3545685 C5.93823361,18.4197732 6.37317731,18.4632877 6.82994517,18.4632877 C7.46063696,18.4632877 8.0913957,18.3762588 8.67857303,18.2240921 C5.45977546,17.5715761 3.0455936,14.7442747 3.0455936,11.3297291 L3.0455936,11.2427671 C3.98075267,11.7647397 5.06827928,12.0909642 6.22087672,12.1344117 C4.32873441,10.8729612 3.08910806,8.71986607 3.08910806,6.28399393 C3.08910806,4.97909589 3.43702285,3.78291705 4.04602435,2.73897185 C7.50408447,7.00171462 12.7020533,9.78550155 18.5306469,10.0900358 C18.4219277,9.56806318 18.356656,9.02440029 18.356656,8.48067046 C18.356656,4.60935693 21.4884916,1.45583104 25.3814954,1.45583104 C27.4041142,1.45583104 29.2309848,2.30402815 30.5141926,3.67419786 C32.1018006,3.36973058 33.624204,2.7824863 34.9726834,1.97780364 C34.4506439,3.60899313 33.3414939,4.97916284 31.8843623,5.84905023 C33.2980464,5.69688354 34.6682161,5.3053204 35.9295997,4.76165752 C34.9728173,6.15351751 33.7765715,7.39314386 32.4064018,8.39364156 Z"></path>
                </g>
            </g>
        </g>
    </g>
</svg>